M48
;DRILL file {KiCad 5.0.2-bee76a0~70~ubuntu18.04.1} date 2020年02月19日 02時49分09秒
;FORMAT={-:-/ absolute / inch / decimal}
FMAT,2
INCH,TZ
T1C0.0157
T2C0.0197
T3C0.0394
T4C0.0866
%
G90
G05
T1
X1.06Y-4.81
X1.0791Y-4.7641
X1.0791Y-4.8559
X1.125Y-4.745
X1.125Y-4.875
X1.1709Y-4.7641
X1.1709Y-4.8559
X1.19Y-4.81
X7.2425Y-2.595
X7.2615Y-2.5491
X7.2615Y-2.6409
X7.3075Y-2.53
X7.3075Y-2.66
X7.3534Y-2.5491
X7.3534Y-2.6409
X7.3724Y-2.595
X14.31Y-4.8125
X14.3291Y-4.7666
X14.3291Y-4.8585
X14.375Y-4.7476
X14.375Y-4.8775
X14.4209Y-4.7666
X14.4209Y-4.8585
X14.44Y-4.8125
X13.785Y-1.3625
X13.8041Y-1.3166
X13.8041Y-1.4084
X13.85Y-1.2975
X13.85Y-1.4275
X13.8959Y-1.3166
X13.8959Y-1.4084
X13.915Y-1.3625
X0.81Y-1.3625
X0.8291Y-1.3166
X0.8291Y-1.4084
X0.875Y-1.2975
X0.875Y-1.4275
X0.9209Y-1.3166
X0.9209Y-1.4084
X0.94Y-1.3625
T3
X7.15Y-2.8
X7.15Y-2.92
X7.15Y-3.04
X7.15Y-3.16
X7.19Y-2.74
X7.19Y-2.86
X7.19Y-2.98
X7.19Y-3.1
X7.23Y-2.8
X7.23Y-2.92
X7.23Y-3.04
X7.23Y-3.16
X7.27Y-2.74
X7.27Y-2.86
X7.27Y-2.98
X7.27Y-3.1
X7.31Y-2.8
X7.31Y-2.92
X7.31Y-3.04
X7.31Y-3.16
X7.35Y-2.74
X7.35Y-2.86
X7.35Y-2.98
X7.35Y-3.1
X7.39Y-2.8
X7.39Y-2.92
X7.39Y-3.04
X7.39Y-3.16
X7.43Y-2.74
X7.43Y-2.86
X7.43Y-2.98
X7.43Y-3.1
X7.47Y-2.8
X7.47Y-2.92
X7.47Y-3.04
X7.47Y-3.16
T4
X1.125Y-4.81
X7.3075Y-2.595
X14.375Y-4.8125
X13.85Y-1.3625
X0.875Y-1.3625
T2
X8.5448Y-1.5782G85X8.5448Y-1.0468
G05
X9.0783Y-1.0448G85X8.5468Y-1.0448
G05
X9.0783Y-1.5802G85X8.5468Y-1.5802
G05
X9.0802Y-1.5782G85X9.0802Y-1.0468
G05
X7.0448Y-3.8282G85X7.0448Y-3.2968
G05
X7.5783Y-3.2948G85X7.0468Y-3.2948
G05
X7.5783Y-3.8302G85X7.0468Y-3.8302
G05
X7.5802Y-3.8282G85X7.5802Y-3.2968
G05
X11.3573Y-3.0782G85X11.3573Y-2.5468
G05
X11.8907Y-2.5448G85X11.3593Y-2.5448
G05
X11.8907Y-3.0802G85X11.3593Y-3.0802
G05
X11.8927Y-3.0782G85X11.8927Y-2.5468
G05
X11.1698Y-2.3282G85X11.1698Y-1.7968
G05
X11.7032Y-1.7948G85X11.1717Y-1.7948
G05
X11.7032Y-2.3302G85X11.1717Y-2.3302
G05
X11.7052Y-2.3282G85X11.7052Y-1.7968
G05
X4.0448Y-1.5782G85X4.0448Y-1.0468
G05
X4.5783Y-1.0448G85X4.0468Y-1.0448
G05
X4.5783Y-1.5802G85X4.0468Y-1.5802
G05
X4.5802Y-1.5782G85X4.5802Y-1.0468
G05
X8.5448Y-3.8282G85X8.5448Y-3.2968
G05
X9.0783Y-3.2948G85X8.5468Y-3.2948
G05
X9.0783Y-3.8302G85X8.5468Y-3.8302
G05
X9.0802Y-3.8282G85X9.0802Y-3.2968
G05
X13.0448Y-2.3282G85X13.0448Y-1.7968
G05
X13.5783Y-1.7948G85X13.0468Y-1.7948
G05
X13.5783Y-2.3302G85X13.0468Y-2.3302
G05
X13.5802Y-2.3282G85X13.5802Y-1.7968
G05
X5.9198Y-2.3282G85X5.9198Y-1.7968
G05
X6.4532Y-1.7948G85X5.9217Y-1.7948
G05
X6.4532Y-2.3302G85X5.9217Y-2.3302
G05
X6.4552Y-2.3282G85X6.4552Y-1.7968
G05
X2.5448Y-1.5782G85X2.5448Y-1.0468
G05
X3.0782Y-1.0448G85X2.5468Y-1.0448
G05
X3.0782Y-1.5802G85X2.5468Y-1.5802
G05
X3.0802Y-1.5782G85X3.0802Y-1.0468
G05
X4.0448Y-3.8282G85X4.0448Y-3.2968
G05
X4.5783Y-3.2948G85X4.0468Y-3.2948
G05
X4.5783Y-3.8302G85X4.0468Y-3.8302
G05
X4.5802Y-3.8282G85X4.5802Y-3.2968
G05
X4.4198Y-2.3282G85X4.4198Y-1.7968
G05
X4.9532Y-1.7948G85X4.4217Y-1.7948
G05
X4.9532Y-2.3302G85X4.4217Y-2.3302
G05
X4.9552Y-2.3282G85X4.9552Y-1.7968
G05
X9.2948Y-3.8282G85X9.2948Y-3.2968
G05
X9.8283Y-3.2948G85X9.2968Y-3.2948
G05
X9.8283Y-3.8302G85X9.2968Y-3.8302
G05
X9.8302Y-3.8282G85X9.8302Y-3.2968
G05
X13.0448Y-4.5783G85X13.0448Y-4.0468
G05
X13.5783Y-4.0448G85X13.0468Y-4.0448
G05
X13.5783Y-4.5802G85X13.0468Y-4.5802
G05
X13.5802Y-4.5783G85X13.5802Y-4.0468
G05
X7.4198Y-2.3282G85X7.4198Y-1.7968
G05
X7.9532Y-1.7948G85X7.4217Y-1.7948
G05
X7.9532Y-2.3302G85X7.4217Y-2.3302
G05
X7.9552Y-2.3282G85X7.9552Y-1.7968
G05
X10.7948Y-1.5782G85X10.7948Y-1.0468
G05
X11.3283Y-1.0448G85X10.7968Y-1.0448
G05
X11.3283Y-1.5802G85X10.7968Y-1.5802
G05
X11.3302Y-1.5782G85X11.3302Y-1.0468
G05
X7.7948Y-3.8282G85X7.7948Y-3.2968
G05
X8.3283Y-3.2948G85X7.7968Y-3.2948
G05
X8.3283Y-3.8302G85X7.7968Y-3.8302
G05
X8.3302Y-3.8282G85X8.3302Y-3.2968
G05
X0.9717Y-3.2968G85X0.9717Y-3.8282
G05
X1.0662Y-3.2948G85X0.9717Y-3.2948
G05
X1.0662Y-3.2613G85X1.0662Y-3.2928
G05
X1.1804Y-3.2594G85X1.0662Y-3.2594
G05
X1.1804Y-3.2613G85X1.1804Y-3.2928
G05
X2.0052Y-3.2948G85X1.1823Y-3.2948
G05
X2.2158Y-3.8302G85X0.9717Y-3.8302
G05
X2.0071Y-3.2613G85X2.0071Y-3.2928
G05
X2.1213Y-3.2594G85X2.0071Y-3.2594
G05
X2.1213Y-3.2613G85X2.1213Y-3.2928
G05
X2.2158Y-3.2948G85X2.1213Y-3.2948
G05
X2.2158Y-3.2968G85X2.2158Y-3.8282
G05
X11.5448Y-3.8282G85X11.5448Y-3.2968
G05
X12.0783Y-3.2948G85X11.5468Y-3.2948
G05
X12.0783Y-3.8302G85X11.5468Y-3.8302
G05
X12.0802Y-3.8282G85X12.0802Y-3.2968
G05
X2.5448Y-3.8282G85X2.5448Y-3.2968
G05
X3.0782Y-3.2948G85X2.5468Y-3.2948
G05
X3.0782Y-3.8302G85X2.5468Y-3.8302
G05
X3.0802Y-3.8282G85X3.0802Y-3.2968
G05
X9.1073Y-4.1405G85X9.1073Y-4.672
G05
X9.6407Y-4.1385G85X9.1093Y-4.1385
G05
X9.6407Y-4.674G85X9.1093Y-4.674
G05
X9.6427Y-4.1405G85X9.6427Y-4.672
G05
X8.2635Y-4.2343G85X8.2635Y-4.7657
G05
X8.2655Y-4.2323G85X8.797Y-4.2323
G05
X8.2655Y-4.7677G85X8.797Y-4.7677
G05
X8.799Y-4.2343G85X8.799Y-4.7657
G05
X5.826Y-4.2343G85X5.826Y-4.7657
G05
X5.828Y-4.2323G85X6.3595Y-4.2323
G05
X5.828Y-4.7677G85X6.3595Y-4.7677
G05
X6.3615Y-4.2343G85X6.3615Y-4.7657
G05
X11.5448Y-1.5782G85X11.5448Y-1.0468
G05
X12.0783Y-1.0448G85X11.5468Y-1.0448
G05
X12.0783Y-1.5802G85X11.5468Y-1.5802
G05
X12.0802Y-1.5782G85X12.0802Y-1.0468
G05
X1.701Y-3.0782G85X1.701Y-2.5468
G05
X2.2345Y-2.5448G85X1.703Y-2.5448
G05
X2.2345Y-3.0802G85X1.703Y-3.0802
G05
X2.2365Y-3.0782G85X2.2365Y-2.5468
G05
X10.7948Y-3.8282G85X10.7948Y-3.2968
G05
X11.3283Y-3.2948G85X10.7968Y-3.2948
G05
X11.3283Y-3.8302G85X10.7968Y-3.8302
G05
X11.3302Y-3.8282G85X11.3302Y-3.2968
G05
X0.8573Y-4.5783G85X0.8573Y-4.0468
G05
X1.3907Y-4.0448G85X0.8593Y-4.0448
G05
X1.3907Y-4.5802G85X0.8593Y-4.5802
G05
X1.3927Y-4.5783G85X1.3927Y-4.0468
G05
X10.0448Y-1.5782G85X10.0448Y-1.0468
G05
X10.5783Y-1.0448G85X10.0468Y-1.0448
G05
X10.5783Y-1.5802G85X10.0468Y-1.5802
G05
X10.5802Y-1.5782G85X10.5802Y-1.0468
G05
X7.6073Y-3.0782G85X7.6073Y-2.5468
G05
X8.1407Y-2.5448G85X7.6093Y-2.5448
G05
X8.1407Y-3.0802G85X7.6093Y-3.0802
G05
X8.1427Y-3.0782G85X8.1427Y-2.5468
G05
X13.3467Y-3.2968G85X13.3467Y-3.8282
G05
X13.4412Y-3.2948G85X13.3467Y-3.2948
G05
X13.4412Y-3.2613G85X13.4412Y-3.2928
G05
X13.5554Y-3.2594G85X13.4412Y-3.2594
G05
X13.5554Y-3.2613G85X13.5554Y-3.2928
G05
X14.3802Y-3.2948G85X13.5573Y-3.2948
G05
X14.5908Y-3.8302G85X13.3467Y-3.8302
G05
X14.3821Y-3.2613G85X14.3821Y-3.2928
G05
X14.4963Y-3.2594G85X14.3821Y-3.2594
G05
X14.4963Y-3.2613G85X14.4963Y-3.2928
G05
X14.5908Y-3.2948G85X14.4963Y-3.2948
G05
X14.5908Y-3.2968G85X14.5908Y-3.8282
G05
X6.6698Y-4.328G85X6.6698Y-4.8595
G05
X7.2032Y-4.326G85X6.6717Y-4.326
G05
X7.2032Y-4.8615G85X6.6717Y-4.8615
G05
X7.2052Y-4.328G85X7.2052Y-4.8595
G05
X12.1073Y-2.3282G85X12.1073Y-1.7968
G05
X12.6407Y-1.7948G85X12.1093Y-1.7948
G05
X12.6407Y-2.3302G85X12.1093Y-2.3302
G05
X12.6427Y-2.3282G85X12.6427Y-1.7968
G05
X1.7948Y-1.5782G85X1.7948Y-1.0468
G05
X2.3282Y-1.0448G85X1.7968Y-1.0448
G05
X2.3282Y-1.5802G85X1.7968Y-1.5802
G05
X2.3302Y-1.5782G85X2.3302Y-1.0468
G05
X8.9198Y-2.3282G85X8.9198Y-1.7968
G05
X9.4532Y-1.7948G85X8.9217Y-1.7948
G05
X9.4532Y-2.3302G85X8.9217Y-2.3302
G05
X9.4552Y-2.3282G85X9.4552Y-1.7968
G05
X7.7948Y-1.5782G85X7.7948Y-1.0468
G05
X8.3283Y-1.0448G85X7.7968Y-1.0448
G05
X8.3283Y-1.5802G85X7.7968Y-1.5802
G05
X8.3302Y-1.5782G85X8.3302Y-1.0468
G05
X3.4823Y-3.0782G85X3.4823Y-2.5468
G05
X4.0157Y-2.5448G85X3.4843Y-2.5448
G05
X4.0157Y-3.0802G85X3.4843Y-3.0802
G05
X4.0177Y-3.0782G85X4.0177Y-2.5468
G05
X1.9823Y-2.3282G85X1.9823Y-1.7968
G05
X2.5157Y-1.7948G85X1.9843Y-1.7948
G05
X2.5157Y-2.3302G85X1.9843Y-2.3302
G05
X2.5177Y-2.3282G85X2.5177Y-1.7968
G05
X5.5448Y-1.5782G85X5.5448Y-1.0468
G05
X6.0783Y-1.0448G85X5.5468Y-1.0448
G05
X6.0783Y-1.5802G85X5.5468Y-1.5802
G05
X6.0802Y-1.5782G85X6.0802Y-1.0468
G05
X8.1698Y-2.3282G85X8.1698Y-1.7968
G05
X8.7032Y-1.7948G85X8.1717Y-1.7948
G05
X8.7032Y-2.3302G85X8.1717Y-2.3302
G05
X8.7052Y-2.3282G85X8.7052Y-1.7968
G05
X9.6698Y-2.3282G85X9.6698Y-1.7968
G05
X10.2032Y-1.7948G85X9.6717Y-1.7948
G05
X10.2032Y-2.3302G85X9.6717Y-2.3302
G05
X10.2052Y-2.3282G85X10.2052Y-1.7968
G05
X1.0448Y-1.5782G85X1.0448Y-1.0468
G05
X1.5782Y-1.0448G85X1.0468Y-1.0448
G05
X1.5782Y-1.5802G85X1.0468Y-1.5802
G05
X1.5802Y-1.5782G85X1.5802Y-1.0468
G05
X7.0448Y-1.5782G85X7.0448Y-1.0468
G05
X7.5783Y-1.0448G85X7.0468Y-1.0448
G05
X7.5783Y-1.5802G85X7.0468Y-1.5802
G05
X7.5802Y-1.5782G85X7.5802Y-1.0468
G05
X9.8573Y-3.0782G85X9.8573Y-2.5468
G05
X10.3907Y-2.5448G85X9.8593Y-2.5448
G05
X10.3907Y-3.0802G85X9.8593Y-3.0802
G05
X10.3927Y-3.0782G85X10.3927Y-2.5468
G05
X6.2948Y-1.5782G85X6.2948Y-1.0468
G05
X6.8283Y-1.0448G85X6.2968Y-1.0448
G05
X6.8283Y-1.5802G85X6.2968Y-1.5802
G05
X6.8302Y-1.5782G85X6.8302Y-1.0468
G05
X6.4823Y-3.0782G85X6.4823Y-2.5468
G05
X7.0157Y-2.5448G85X6.4843Y-2.5448
G05
X7.0157Y-3.0802G85X6.4843Y-3.0802
G05
X7.0177Y-3.0782G85X7.0177Y-2.5468
G05
X11.5448Y-4.5783G85X11.5448Y-4.0468
G05
X12.0783Y-4.0448G85X11.5468Y-4.0448
G05
X12.0783Y-4.5802G85X11.5468Y-4.5802
G05
X12.0802Y-4.5783G85X12.0802Y-4.0468
G05
X4.2323Y-3.0782G85X4.2323Y-2.5468
G05
X4.7657Y-2.5448G85X4.2343Y-2.5448
G05
X4.7657Y-3.0802G85X4.2343Y-3.0802
G05
X4.7677Y-3.0782G85X4.7677Y-2.5468
G05
X10.0448Y-3.8282G85X10.0448Y-3.2968
G05
X10.5783Y-3.2948G85X10.0468Y-3.2948
G05
X10.5783Y-3.8302G85X10.0468Y-3.8302
G05
X10.5802Y-3.8282G85X10.5802Y-3.2968
G05
X10.6073Y-3.0782G85X10.6073Y-2.5468
G05
X11.1407Y-2.5448G85X10.6093Y-2.5448
G05
X11.1407Y-3.0802G85X10.6093Y-3.0802
G05
X11.1427Y-3.0782G85X11.1427Y-2.5468
G05
X9.2948Y-1.5782G85X9.2948Y-1.0468
G05
X9.8283Y-1.0448G85X9.2968Y-1.0448
G05
X9.8283Y-1.5802G85X9.2968Y-1.5802
G05
X9.8302Y-1.5782G85X9.8302Y-1.0468
G05
X6.2948Y-3.8282G85X6.2948Y-3.2968
G05
X6.8283Y-3.2948G85X6.2968Y-3.2948
G05
X6.8283Y-3.8302G85X6.2968Y-3.8302
G05
X6.8302Y-3.8282G85X6.8302Y-3.2968
G05
X1.0448Y-2.3282G85X1.0448Y-1.7968
G05
X1.5782Y-1.7948G85X1.0468Y-1.7948
G05
X1.5782Y-2.3302G85X1.0468Y-2.3302
G05
X1.5802Y-2.3282G85X1.5802Y-1.7968
G05
X5.5448Y-3.8282G85X5.5448Y-3.2968
G05
X6.0783Y-3.2948G85X5.5468Y-3.2948
G05
X6.0783Y-3.8302G85X5.5468Y-3.8302
G05
X6.0802Y-3.8282G85X6.0802Y-3.2968
G05
X12.2948Y-4.5783G85X12.2948Y-4.0468
G05
X12.8283Y-4.0448G85X12.2968Y-4.0448
G05
X12.8283Y-4.5802G85X12.2968Y-4.5802
G05
X12.8302Y-4.5783G85X12.8302Y-4.0468
G05
X2.9198Y-2.3282G85X2.9198Y-1.7968
G05
X3.4532Y-1.7948G85X2.9218Y-1.7948
G05
X3.4532Y-2.3302G85X2.9218Y-2.3302
G05
X3.4552Y-2.3282G85X3.4552Y-1.7968
G05
X5.1698Y-2.3282G85X5.1698Y-1.7968
G05
X5.7032Y-1.7948G85X5.1717Y-1.7948
G05
X5.7032Y-2.3302G85X5.1717Y-2.3302
G05
X5.7052Y-2.3282G85X5.7052Y-1.7968
G05
X12.3154Y-1.5782G85X12.3154Y-1.0468
G05
X12.3154Y-1.5802G85X12.4099Y-1.5802
G05
X12.4099Y-1.6137G85X12.4099Y-1.5822
G05
X12.4099Y-1.6156G85X12.5241Y-1.6156
G05
X12.5241Y-1.6137G85X12.5241Y-1.5822
G05
X12.3154Y-1.0448G85X13.5595Y-1.0448
G05
X12.5261Y-1.5802G85X13.3489Y-1.5802
G05
X13.3509Y-1.6137G85X13.3509Y-1.5822
G05
X13.3509Y-1.6156G85X13.465Y-1.6156
G05
X13.465Y-1.6137G85X13.465Y-1.5822
G05
X13.465Y-1.5802G85X13.5595Y-1.5802
G05
X13.5595Y-1.5782G85X13.5595Y-1.0468
G05
X4.7948Y-1.5782G85X4.7948Y-1.0468
G05
X5.3283Y-1.0448G85X4.7968Y-1.0448
G05
X5.3283Y-1.5802G85X4.7968Y-1.5802
G05
X5.3302Y-1.5782G85X5.3302Y-1.0468
G05
X8.3573Y-3.0782G85X8.3573Y-2.5468
G05
X8.8907Y-2.5448G85X8.3593Y-2.5448
G05
X8.8907Y-3.0802G85X8.3593Y-3.0802
G05
X8.8927Y-3.0782G85X8.8927Y-2.5468
G05
X1.701Y-4.5783G85X1.701Y-4.0468
G05
X2.2345Y-4.0448G85X1.703Y-4.0448
G05
X2.2345Y-4.5802G85X1.703Y-4.5802
G05
X2.2365Y-4.5783G85X2.2365Y-4.0468
G05
X6.6698Y-2.3282G85X6.6698Y-1.7968
G05
X7.2032Y-1.7948G85X6.6717Y-1.7948
G05
X7.2032Y-2.3302G85X6.6717Y-2.3302
G05
X7.2052Y-2.3282G85X7.2052Y-1.7968
G05
X3.2948Y-3.8282G85X3.2948Y-3.2968
G05
X3.8282Y-3.2948G85X3.2968Y-3.2948
G05
X3.8282Y-3.8302G85X3.2968Y-3.8302
G05
X3.8302Y-3.8282G85X3.8302Y-3.2968
G05
X4.7948Y-3.8282G85X4.7948Y-3.2968
G05
X5.3283Y-3.2948G85X4.7968Y-3.2948
G05
X5.3283Y-3.8302G85X4.7968Y-3.8302
G05
X5.3302Y-3.8282G85X5.3302Y-3.2968
G05
X4.9823Y-4.672G85X4.9823Y-4.1405
G05
X4.9843Y-4.1385G85X5.5157Y-4.1385
G05
X4.9843Y-4.674G85X5.5157Y-4.674
G05
X5.5177Y-4.672G85X5.5177Y-4.1405
G05
X12.2948Y-3.8282G85X12.2948Y-3.2968
G05
X12.8283Y-3.2948G85X12.2968Y-3.2948
G05
X12.8283Y-3.8302G85X12.2968Y-3.8302
G05
X12.8302Y-3.8282G85X12.8302Y-3.2968
G05
X2.7323Y-3.0782G85X2.7323Y-2.5468
G05
X3.2657Y-2.5448G85X2.7343Y-2.5448
G05
X3.2657Y-3.0802G85X2.7343Y-3.0802
G05
X3.2677Y-3.0782G85X3.2677Y-2.5468
G05
X4.9823Y-3.0782G85X4.9823Y-2.5468
G05
X5.5157Y-2.5448G85X4.9843Y-2.5448
G05
X5.5157Y-3.0802G85X4.9843Y-3.0802
G05
X5.5177Y-3.0782G85X5.5177Y-2.5468
G05
X12.2217Y-2.5468G85X12.2217Y-3.0782
G05
X12.3162Y-2.5448G85X12.2217Y-2.5448
G05
X12.3162Y-2.5113G85X12.3162Y-2.5428
G05
X12.4304Y-2.5094G85X12.3162Y-2.5094
G05
X12.4304Y-2.5113G85X12.4304Y-2.5428
G05
X13.2552Y-2.5448G85X12.4323Y-2.5448
G05
X13.4658Y-3.0802G85X12.2217Y-3.0802
G05
X13.2571Y-2.5113G85X13.2571Y-2.5428
G05
X13.3713Y-2.5094G85X13.2571Y-2.5094
G05
X13.3713Y-2.5113G85X13.3713Y-2.5428
G05
X13.4658Y-2.5448G85X13.3713Y-2.5448
G05
X13.4658Y-2.5468G85X13.4658Y-3.0782
G05
X10.4198Y-2.3282G85X10.4198Y-1.7968
G05
X10.9532Y-1.7948G85X10.4217Y-1.7948
G05
X10.9532Y-2.3302G85X10.4217Y-2.3302
G05
X10.9552Y-2.3282G85X10.9552Y-1.7968
G05
X3.6698Y-2.3282G85X3.6698Y-1.7968
G05
X4.2032Y-1.7948G85X3.6717Y-1.7948
G05
X4.2032Y-2.3302G85X3.6717Y-2.3302
G05
X4.2052Y-2.3282G85X4.2052Y-1.7968
G05
X3.2948Y-1.5782G85X3.2948Y-1.0468
G05
X3.8282Y-1.0448G85X3.2968Y-1.0448
G05
X3.8282Y-1.5802G85X3.2968Y-1.5802
G05
X3.8302Y-1.5782G85X3.8302Y-1.0468
G05
X9.1073Y-3.0782G85X9.1073Y-2.5468
G05
X9.6407Y-2.5448G85X9.1093Y-2.5448
G05
X9.6407Y-3.0802G85X9.1093Y-3.0802
G05
X9.6427Y-3.0782G85X9.6427Y-2.5468
G05
X5.7323Y-3.0782G85X5.7323Y-2.5468
G05
X6.2657Y-2.5448G85X5.7343Y-2.5448
G05
X6.2657Y-3.0802G85X5.7343Y-3.0802
G05
X6.2677Y-3.0782G85X6.2677Y-2.5468
G05
X7.4198Y-4.8595G85X7.4198Y-4.328
G05
X7.4217Y-4.326G85X7.9532Y-4.326
G05
X7.4217Y-4.8615G85X7.9532Y-4.8615
G05
X7.9552Y-4.8595G85X7.9552Y-4.328
G05
T0
M30
