G04 #@! TF.GenerationSoftware,KiCad,Pcbnew,5.0.2-bee76a0~70~ubuntu18.04.1*
G04 #@! TF.CreationDate,2020-02-19T02:48:56+09:00*
G04 #@! TF.ProjectId,amatelus73,616d6174-656c-4757-9337-332e6b696361,rev?*
G04 #@! TF.SameCoordinates,Original*
G04 #@! TF.FileFunction,Copper,L2,Bot*
G04 #@! TF.FilePolarity,Positive*
%FSLAX46Y46*%
G04 Gerber Fmt 4.6, Leading zero omitted, Abs format (unit mm)*
G04 Created by KiCad (PCBNEW 5.0.2-bee76a0~70~ubuntu18.04.1) date 2020年02月19日 02時48分56秒*
%MOMM*%
%LPD*%
G01*
G04 APERTURE LIST*
G04 #@! TA.AperFunction,ComponentPad*
%ADD10O,4.000000X2.000000*%
G04 #@! TD*
G04 #@! TA.AperFunction,ComponentPad*
%ADD11O,4.700000X2.000000*%
G04 #@! TD*
G04 #@! TA.AperFunction,ComponentPad*
%ADD12O,2.000000X2.900000*%
G04 #@! TD*
G04 #@! TA.AperFunction,ComponentPad*
%ADD13O,2.000000X15.500000*%
G04 #@! TD*
G04 #@! TA.AperFunction,ComponentPad*
%ADD14O,22.900000X2.000000*%
G04 #@! TD*
G04 #@! TA.AperFunction,ComponentPad*
%ADD15O,33.500000X2.000000*%
G04 #@! TD*
G04 #@! TA.AperFunction,ComponentPad*
%ADD16O,15.500000X2.000000*%
G04 #@! TD*
G04 #@! TA.AperFunction,ComponentPad*
%ADD17C,4.400000*%
G04 #@! TD*
G04 #@! TA.AperFunction,ComponentPad*
%ADD18C,0.700000*%
G04 #@! TD*
G04 #@! TA.AperFunction,ViaPad*
%ADD19C,1.200000*%
G04 #@! TD*
G04 #@! TA.AperFunction,Conductor*
%ADD20C,0.254000*%
G04 #@! TD*
G04 APERTURE END LIST*
D10*
G04 #@! TO.P,SW16,1*
G04 #@! TO.N,N/C*
X343212000Y-40137500D03*
D11*
X340562000Y-41037500D03*
D12*
X339112000Y-40587500D03*
X342012000Y-40587500D03*
X318112000Y-40587500D03*
X315212000Y-40587500D03*
D11*
X316662000Y-41037500D03*
D13*
X312812000Y-33337500D03*
X344412000Y-33337500D03*
D10*
X314012000Y-40137500D03*
D14*
X328612000Y-40137500D03*
D15*
X328612000Y-26537500D03*
G04 #@! TD*
D10*
G04 #@! TO.P,SW46,1*
G04 #@! TO.N,N/C*
X311631000Y-64637500D03*
D11*
X314281000Y-63737500D03*
D12*
X315731000Y-64187500D03*
X312831000Y-64187500D03*
X336731000Y-64187500D03*
X339631000Y-64187500D03*
D11*
X338181000Y-63737500D03*
D13*
X342031000Y-71437500D03*
X310431000Y-71437500D03*
D10*
X340831000Y-64637500D03*
D14*
X326231000Y-64637500D03*
D15*
X326231000Y-78237500D03*
G04 #@! TD*
D10*
G04 #@! TO.P,SW62,1*
G04 #@! TO.N,N/C*
X340206000Y-83687500D03*
D11*
X342856000Y-82787500D03*
D12*
X344306000Y-83237500D03*
X341406000Y-83237500D03*
X365306000Y-83237500D03*
X368206000Y-83237500D03*
D11*
X366756000Y-82787500D03*
D13*
X370606000Y-90487500D03*
X339006000Y-90487500D03*
D10*
X369406000Y-83687500D03*
D14*
X354806000Y-83687500D03*
D15*
X354806000Y-97287500D03*
G04 #@! TD*
D10*
G04 #@! TO.P,SW47,1*
G04 #@! TO.N,N/C*
X25881200Y-83687500D03*
D11*
X28531200Y-82787500D03*
D12*
X29981200Y-83237500D03*
X27081200Y-83237500D03*
X50981200Y-83237500D03*
X53881200Y-83237500D03*
D11*
X52431200Y-82787500D03*
D13*
X56281200Y-90487500D03*
X24681200Y-90487500D03*
D10*
X55081200Y-83687500D03*
D14*
X40481200Y-83687500D03*
D15*
X40481200Y-97287500D03*
G04 #@! TD*
D13*
G04 #@! TO.P,SW1,1*
G04 #@! TO.N,N/C*
X26537500Y-33337500D03*
X40137500Y-33337500D03*
D16*
X33337500Y-26537500D03*
X33337500Y-40137500D03*
G04 #@! TD*
D13*
G04 #@! TO.P,SW48,1*
G04 #@! TO.N,N/C*
X64637500Y-90487500D03*
X78237500Y-90487500D03*
D16*
X71437500Y-83687500D03*
X71437500Y-97287500D03*
G04 #@! TD*
D13*
G04 #@! TO.P,SW13,1*
G04 #@! TO.N,N/C*
X255138000Y-33337500D03*
X268738000Y-33337500D03*
D16*
X261938000Y-26537500D03*
X261938000Y-40137500D03*
G04 #@! TD*
D13*
G04 #@! TO.P,SW73,1*
G04 #@! TO.N,N/C*
X331338000Y-109538000D03*
X344938000Y-109538000D03*
D16*
X338138000Y-102738000D03*
X338138000Y-116338000D03*
G04 #@! TD*
D13*
G04 #@! TO.P,SW72,1*
G04 #@! TO.N,N/C*
X312288000Y-109538000D03*
X325888000Y-109538000D03*
D16*
X319088000Y-102738000D03*
X319088000Y-116338000D03*
G04 #@! TD*
D13*
G04 #@! TO.P,SW71,1*
G04 #@! TO.N,N/C*
X293238000Y-109538000D03*
X306838000Y-109538000D03*
D16*
X300038000Y-102738000D03*
X300038000Y-116338000D03*
G04 #@! TD*
D13*
G04 #@! TO.P,SW63,1*
G04 #@! TO.N,N/C*
X21775000Y-109538000D03*
X35375000Y-109538000D03*
D16*
X28575000Y-102738000D03*
X28575000Y-116338000D03*
G04 #@! TD*
D13*
G04 #@! TO.P,SW61,1*
G04 #@! TO.N,N/C*
X312288000Y-90487500D03*
X325888000Y-90487500D03*
D16*
X319088000Y-83687500D03*
X319088000Y-97287500D03*
G04 #@! TD*
D13*
G04 #@! TO.P,SW60,1*
G04 #@! TO.N,N/C*
X293238000Y-90487500D03*
X306838000Y-90487500D03*
D16*
X300038000Y-83687500D03*
X300038000Y-97287500D03*
G04 #@! TD*
D13*
G04 #@! TO.P,SW59,1*
G04 #@! TO.N,N/C*
X274188000Y-90487500D03*
X287788000Y-90487500D03*
D16*
X280988000Y-83687500D03*
X280988000Y-97287500D03*
G04 #@! TD*
D13*
G04 #@! TO.P,SW58,1*
G04 #@! TO.N,N/C*
X255138000Y-90487500D03*
X268738000Y-90487500D03*
D16*
X261938000Y-83687500D03*
X261938000Y-97287500D03*
G04 #@! TD*
D13*
G04 #@! TO.P,SW57,1*
G04 #@! TO.N,N/C*
X236088000Y-90487500D03*
X249688000Y-90487500D03*
D16*
X242888000Y-83687500D03*
X242888000Y-97287500D03*
G04 #@! TD*
D13*
G04 #@! TO.P,SW56,1*
G04 #@! TO.N,N/C*
X217038000Y-90487500D03*
X230638000Y-90487500D03*
D16*
X223838000Y-83687500D03*
X223838000Y-97287500D03*
G04 #@! TD*
D13*
G04 #@! TO.P,SW55,1*
G04 #@! TO.N,N/C*
X197988000Y-90487500D03*
X211588000Y-90487500D03*
D16*
X204788000Y-83687500D03*
X204788000Y-97287500D03*
G04 #@! TD*
D13*
G04 #@! TO.P,SW54,1*
G04 #@! TO.N,N/C*
X178938000Y-90487500D03*
X192538000Y-90487500D03*
D16*
X185738000Y-83687500D03*
X185738000Y-97287500D03*
G04 #@! TD*
D13*
G04 #@! TO.P,SW53,1*
G04 #@! TO.N,N/C*
X159888000Y-90487500D03*
X173488000Y-90487500D03*
D16*
X166688000Y-83687500D03*
X166688000Y-97287500D03*
G04 #@! TD*
D13*
G04 #@! TO.P,SW51,1*
G04 #@! TO.N,N/C*
X121788000Y-90487500D03*
X135388000Y-90487500D03*
D16*
X128588000Y-83687500D03*
X128588000Y-97287500D03*
G04 #@! TD*
D13*
G04 #@! TO.P,SW50,1*
G04 #@! TO.N,N/C*
X102738000Y-90487500D03*
X116338000Y-90487500D03*
D16*
X109538000Y-83687500D03*
X109538000Y-97287500D03*
G04 #@! TD*
D13*
G04 #@! TO.P,SW49,1*
G04 #@! TO.N,N/C*
X83687500Y-90487500D03*
X97287500Y-90487500D03*
D16*
X90487500Y-83687500D03*
X90487500Y-97287500D03*
G04 #@! TD*
D13*
G04 #@! TO.P,SW45,1*
G04 #@! TO.N,N/C*
X288475000Y-71437500D03*
X302075000Y-71437500D03*
D16*
X295275000Y-64637500D03*
X295275000Y-78237500D03*
G04 #@! TD*
D13*
G04 #@! TO.P,SW44,1*
G04 #@! TO.N,N/C*
X269425000Y-71437500D03*
X283025000Y-71437500D03*
D16*
X276225000Y-64637500D03*
X276225000Y-78237500D03*
G04 #@! TD*
D13*
G04 #@! TO.P,SW43,1*
G04 #@! TO.N,N/C*
X250375000Y-71437500D03*
X263975000Y-71437500D03*
D16*
X257175000Y-64637500D03*
X257175000Y-78237500D03*
G04 #@! TD*
D13*
G04 #@! TO.P,SW42,1*
G04 #@! TO.N,N/C*
X231325000Y-71437500D03*
X244925000Y-71437500D03*
D16*
X238125000Y-64637500D03*
X238125000Y-78237500D03*
G04 #@! TD*
D13*
G04 #@! TO.P,SW41,1*
G04 #@! TO.N,N/C*
X212275000Y-71437500D03*
X225875000Y-71437500D03*
D16*
X219075000Y-64637500D03*
X219075000Y-78237500D03*
G04 #@! TD*
D13*
G04 #@! TO.P,SW40,1*
G04 #@! TO.N,N/C*
X193225000Y-71437500D03*
X206825000Y-71437500D03*
D16*
X200025000Y-64637500D03*
X200025000Y-78237500D03*
G04 #@! TD*
D13*
G04 #@! TO.P,SW39,1*
G04 #@! TO.N,N/C*
X164650000Y-71437500D03*
X178250000Y-71437500D03*
D16*
X171450000Y-64637500D03*
X171450000Y-78237500D03*
G04 #@! TD*
D13*
G04 #@! TO.P,SW38,1*
G04 #@! TO.N,N/C*
X145600000Y-71437500D03*
X159200000Y-71437500D03*
D16*
X152400000Y-64637500D03*
X152400000Y-78237500D03*
G04 #@! TD*
D13*
G04 #@! TO.P,SW37,1*
G04 #@! TO.N,N/C*
X126550000Y-71437500D03*
X140150000Y-71437500D03*
D16*
X133350000Y-64637500D03*
X133350000Y-78237500D03*
G04 #@! TD*
D13*
G04 #@! TO.P,SW36,1*
G04 #@! TO.N,N/C*
X107500000Y-71437500D03*
X121100000Y-71437500D03*
D16*
X114300000Y-64637500D03*
X114300000Y-78237500D03*
G04 #@! TD*
D13*
G04 #@! TO.P,SW35,1*
G04 #@! TO.N,N/C*
X88450000Y-71437500D03*
X102050000Y-71437500D03*
D16*
X95250000Y-64637500D03*
X95250000Y-78237500D03*
G04 #@! TD*
D13*
G04 #@! TO.P,SW34,1*
G04 #@! TO.N,N/C*
X69400000Y-71437500D03*
X83000000Y-71437500D03*
D16*
X76200000Y-64637500D03*
X76200000Y-78237500D03*
G04 #@! TD*
D13*
G04 #@! TO.P,SW30,1*
G04 #@! TO.N,N/C*
X283712000Y-52387500D03*
X297312000Y-52387500D03*
D16*
X290512000Y-45587500D03*
X290512000Y-59187500D03*
G04 #@! TD*
D13*
G04 #@! TO.P,SW29,1*
G04 #@! TO.N,N/C*
X264662000Y-52387500D03*
X278262000Y-52387500D03*
D16*
X271462000Y-45587500D03*
X271462000Y-59187500D03*
G04 #@! TD*
D13*
G04 #@! TO.P,SW28,1*
G04 #@! TO.N,N/C*
X245612000Y-52387500D03*
X259212000Y-52387500D03*
D16*
X252412000Y-45587500D03*
X252412000Y-59187500D03*
G04 #@! TD*
D13*
G04 #@! TO.P,SW27,1*
G04 #@! TO.N,N/C*
X226562000Y-52387500D03*
X240162000Y-52387500D03*
D16*
X233362000Y-45587500D03*
X233362000Y-59187500D03*
G04 #@! TD*
D13*
G04 #@! TO.P,SW26,1*
G04 #@! TO.N,N/C*
X207512000Y-52387500D03*
X221112000Y-52387500D03*
D16*
X214312000Y-45587500D03*
X214312000Y-59187500D03*
G04 #@! TD*
D13*
G04 #@! TO.P,SW25,1*
G04 #@! TO.N,N/C*
X188462000Y-52387500D03*
X202062000Y-52387500D03*
D16*
X195262000Y-45587500D03*
X195262000Y-59187500D03*
G04 #@! TD*
D13*
G04 #@! TO.P,SW24,1*
G04 #@! TO.N,N/C*
X169412000Y-52387500D03*
X183012000Y-52387500D03*
D16*
X176212000Y-45587500D03*
X176212000Y-59187500D03*
G04 #@! TD*
D13*
G04 #@! TO.P,SW22,1*
G04 #@! TO.N,N/C*
X131312000Y-52387500D03*
X144912000Y-52387500D03*
D16*
X138112000Y-45587500D03*
X138112000Y-59187500D03*
G04 #@! TD*
D13*
G04 #@! TO.P,SW21,1*
G04 #@! TO.N,N/C*
X112262000Y-52387500D03*
X125862000Y-52387500D03*
D16*
X119062000Y-45587500D03*
X119062000Y-59187500D03*
G04 #@! TD*
D13*
G04 #@! TO.P,SW20,1*
G04 #@! TO.N,N/C*
X93212000Y-52387500D03*
X106812000Y-52387500D03*
D16*
X100012000Y-45587500D03*
X100012000Y-59187500D03*
G04 #@! TD*
D13*
G04 #@! TO.P,SW19,1*
G04 #@! TO.N,N/C*
X74162500Y-52387500D03*
X87762500Y-52387500D03*
D16*
X80962500Y-45587500D03*
X80962500Y-59187500D03*
G04 #@! TD*
D13*
G04 #@! TO.P,SW17,1*
G04 #@! TO.N,N/C*
X26537500Y-52387500D03*
X40137500Y-52387500D03*
D16*
X33337500Y-45587500D03*
X33337500Y-59187500D03*
G04 #@! TD*
D13*
G04 #@! TO.P,SW15,1*
G04 #@! TO.N,N/C*
X293238000Y-33337500D03*
X306838000Y-33337500D03*
D16*
X300038000Y-26537500D03*
X300038000Y-40137500D03*
G04 #@! TD*
D13*
G04 #@! TO.P,SW14,1*
G04 #@! TO.N,N/C*
X274188000Y-33337500D03*
X287788000Y-33337500D03*
D16*
X280988000Y-26537500D03*
X280988000Y-40137500D03*
G04 #@! TD*
D13*
G04 #@! TO.P,SW12,1*
G04 #@! TO.N,N/C*
X236088000Y-33337500D03*
X249688000Y-33337500D03*
D16*
X242888000Y-26537500D03*
X242888000Y-40137500D03*
G04 #@! TD*
D13*
G04 #@! TO.P,SW11,1*
G04 #@! TO.N,N/C*
X217038000Y-33337500D03*
X230638000Y-33337500D03*
D16*
X223838000Y-26537500D03*
X223838000Y-40137500D03*
G04 #@! TD*
D13*
G04 #@! TO.P,SW9,1*
G04 #@! TO.N,N/C*
X178938000Y-33337500D03*
X192538000Y-33337500D03*
D16*
X185738000Y-26537500D03*
X185738000Y-40137500D03*
G04 #@! TD*
D13*
G04 #@! TO.P,SW8,1*
G04 #@! TO.N,N/C*
X159888000Y-33337500D03*
X173488000Y-33337500D03*
D16*
X166688000Y-26537500D03*
X166688000Y-40137500D03*
G04 #@! TD*
D13*
G04 #@! TO.P,SW7,1*
G04 #@! TO.N,N/C*
X140838000Y-33337500D03*
X154438000Y-33337500D03*
D16*
X147638000Y-26537500D03*
X147638000Y-40137500D03*
G04 #@! TD*
D13*
G04 #@! TO.P,SW6,1*
G04 #@! TO.N,N/C*
X121788000Y-33337500D03*
X135388000Y-33337500D03*
D16*
X128588000Y-26537500D03*
X128588000Y-40137500D03*
G04 #@! TD*
D13*
G04 #@! TO.P,SW5,1*
G04 #@! TO.N,N/C*
X102738000Y-33337500D03*
X116338000Y-33337500D03*
D16*
X109538000Y-26537500D03*
X109538000Y-40137500D03*
G04 #@! TD*
D13*
G04 #@! TO.P,SW4,1*
G04 #@! TO.N,N/C*
X83687500Y-33337500D03*
X97287500Y-33337500D03*
D16*
X90487500Y-26537500D03*
X90487500Y-40137500D03*
G04 #@! TD*
D13*
G04 #@! TO.P,SW2,1*
G04 #@! TO.N,N/C*
X45587500Y-33337500D03*
X59187500Y-33337500D03*
D16*
X52387500Y-26537500D03*
X52387500Y-40137500D03*
G04 #@! TD*
D13*
G04 #@! TO.P,SW3,1*
G04 #@! TO.N,N/C*
X64637500Y-33337500D03*
X78237500Y-33337500D03*
D16*
X71437500Y-26537500D03*
X71437500Y-40137500D03*
G04 #@! TD*
D13*
G04 #@! TO.P,SW52,1*
G04 #@! TO.N,N/C*
X140838000Y-90487500D03*
X154438000Y-90487500D03*
D16*
X147638000Y-83687500D03*
X147638000Y-97287500D03*
G04 #@! TD*
D13*
G04 #@! TO.P,SW10,1*
G04 #@! TO.N,N/C*
X197988000Y-33337500D03*
X211588000Y-33337500D03*
D16*
X204788000Y-26537500D03*
X204788000Y-40137500D03*
G04 #@! TD*
D13*
G04 #@! TO.P,SW32,1*
G04 #@! TO.N,N/C*
X331338000Y-52387500D03*
X344938000Y-52387500D03*
D16*
X338138000Y-45587500D03*
X338138000Y-59187500D03*
G04 #@! TD*
D13*
G04 #@! TO.P,SW31,1*
G04 #@! TO.N,N/C*
X307525000Y-52387500D03*
X321125000Y-52387500D03*
D16*
X314325000Y-45587500D03*
X314325000Y-59187500D03*
G04 #@! TD*
D13*
G04 #@! TO.P,SW18,1*
G04 #@! TO.N,N/C*
X50350000Y-52387500D03*
X63950000Y-52387500D03*
D16*
X57150000Y-45587500D03*
X57150000Y-59187500D03*
G04 #@! TD*
D13*
G04 #@! TO.P,SW33,1*
G04 #@! TO.N,N/C*
X43206200Y-71437500D03*
X56806200Y-71437500D03*
D16*
X50006200Y-64637500D03*
X50006200Y-78237500D03*
G04 #@! TD*
G04 #@! TO.P,SW68,1*
G04 #@! TO.N,N/C*
X195262000Y-109881000D03*
X195262000Y-123481000D03*
D13*
X202062000Y-116681000D03*
X188462000Y-116681000D03*
G04 #@! TD*
D16*
G04 #@! TO.P,SW67,1*
G04 #@! TO.N,N/C*
X176212000Y-123481000D03*
X176212000Y-109881000D03*
D13*
X169412000Y-116681000D03*
X183012000Y-116681000D03*
G04 #@! TD*
G04 #@! TO.P,SW66,1*
G04 #@! TO.N,N/C*
X161581000Y-114300000D03*
X147981000Y-114300000D03*
D16*
X154781000Y-121100000D03*
X154781000Y-107500000D03*
G04 #@! TD*
G04 #@! TO.P,SW65,1*
G04 #@! TO.N,N/C*
X133350000Y-105119000D03*
X133350000Y-118719000D03*
D13*
X140150000Y-111919000D03*
X126550000Y-111919000D03*
G04 #@! TD*
G04 #@! TO.P,SW69,1*
G04 #@! TO.N,N/C*
X223494000Y-114300000D03*
X209894000Y-114300000D03*
D16*
X216694000Y-121100000D03*
X216694000Y-107500000D03*
G04 #@! TD*
G04 #@! TO.P,SW70,1*
G04 #@! TO.N,N/C*
X238125000Y-118719000D03*
X238125000Y-105119000D03*
D13*
X231325000Y-111919000D03*
X244925000Y-111919000D03*
G04 #@! TD*
G04 #@! TO.P,SW64,1*
G04 #@! TO.N,N/C*
X43206200Y-109538000D03*
X56806200Y-109538000D03*
D16*
X50006200Y-102738000D03*
X50006200Y-116338000D03*
G04 #@! TD*
D13*
G04 #@! TO.P,SW23,1*
G04 #@! TO.N,N/C*
X150362000Y-52387500D03*
X163962000Y-52387500D03*
D16*
X157162000Y-45587500D03*
X157162000Y-59187500D03*
G04 #@! TD*
D17*
G04 #@! TO.P,Hole2,1*
G04 #@! TO.N,GND*
X28575000Y-122174000D03*
D18*
X30225000Y-122174000D03*
X29741726Y-123340726D03*
X28575000Y-123824000D03*
X27408274Y-123340726D03*
X26925000Y-122174000D03*
X27408274Y-121007274D03*
X28575000Y-120524000D03*
X29741726Y-121007274D03*
G04 #@! TD*
D17*
G04 #@! TO.P,Hole5,1*
G04 #@! TO.N,GND*
X365125000Y-122238000D03*
D18*
X366775000Y-122238000D03*
X366291726Y-123404726D03*
X365125000Y-123888000D03*
X363958274Y-123404726D03*
X363475000Y-122238000D03*
X363958274Y-121071274D03*
X365125000Y-120588000D03*
X366291726Y-121071274D03*
G04 #@! TD*
D17*
G04 #@! TO.P,Hole1,1*
G04 #@! TO.N,GND*
X22225000Y-34607500D03*
D18*
X23875000Y-34607500D03*
X23391726Y-35774226D03*
X22225000Y-36257500D03*
X21058274Y-35774226D03*
X20575000Y-34607500D03*
X21058274Y-33440774D03*
X22225000Y-32957500D03*
X23391726Y-33440774D03*
G04 #@! TD*
D17*
G04 #@! TO.P,Hole3,1*
G04 #@! TO.N,GND*
X185610000Y-65913000D03*
D18*
X187260000Y-65913000D03*
X186776726Y-67079726D03*
X185610000Y-67563000D03*
X184443274Y-67079726D03*
X183960000Y-65913000D03*
X184443274Y-64746274D03*
X185610000Y-64263000D03*
X186776726Y-64746274D03*
G04 #@! TD*
D17*
G04 #@! TO.P,Hole4,1*
G04 #@! TO.N,GND*
X351790000Y-34607500D03*
D18*
X353440000Y-34607500D03*
X352956726Y-35774226D03*
X351790000Y-36257500D03*
X350623274Y-35774226D03*
X350140000Y-34607500D03*
X350623274Y-33440774D03*
X351790000Y-32957500D03*
X352956726Y-33440774D03*
G04 #@! TD*
D19*
G04 #@! TO.N,GND*
X182626000Y-72644000D03*
X188722000Y-72644000D03*
X185674000Y-77216000D03*
X187706000Y-80264000D03*
X183642000Y-80264000D03*
X187706000Y-74168000D03*
X181610000Y-80264000D03*
X181610000Y-77216000D03*
X181610000Y-74168000D03*
X181610000Y-71120000D03*
X183642000Y-74168000D03*
X189738000Y-74168000D03*
X185674000Y-74168000D03*
X186690000Y-78740000D03*
X188722000Y-78740000D03*
X185674000Y-80264000D03*
X189738000Y-80264000D03*
X182626000Y-78740000D03*
X184658000Y-78740000D03*
X183642000Y-77216000D03*
X184658000Y-75692000D03*
X189738000Y-77216000D03*
X188722000Y-75692000D03*
X187706000Y-77216000D03*
X182626000Y-75692000D03*
X186690000Y-75692000D03*
X189738000Y-71120000D03*
X186690000Y-72644000D03*
X184658000Y-72644000D03*
X183642000Y-71120000D03*
X185674000Y-71120000D03*
X187706000Y-71120000D03*
X188722000Y-69596000D03*
X186690000Y-69596000D03*
X184658000Y-69596000D03*
X182626000Y-69596000D03*
G04 #@! TD*
D20*
G04 #@! TO.N,GND*
G36*
X343673430Y-24593952D02*
X344422417Y-24798851D01*
X344723195Y-24942315D01*
X344523031Y-24902500D01*
X312700969Y-24902500D01*
X312224055Y-24997364D01*
X311683231Y-25358731D01*
X311663203Y-25388705D01*
X311633232Y-25408731D01*
X311271865Y-25949555D01*
X311177001Y-26426469D01*
X311177000Y-40248530D01*
X311271864Y-40725444D01*
X311633231Y-41266269D01*
X312174055Y-41627636D01*
X312352281Y-41663087D01*
X312374055Y-41677636D01*
X312850969Y-41772500D01*
X313736715Y-41772500D01*
X314033231Y-42216269D01*
X314574055Y-42577636D01*
X315212000Y-42704531D01*
X315373031Y-42672500D01*
X317950969Y-42672500D01*
X318112000Y-42704531D01*
X318749944Y-42577636D01*
X319290769Y-42216269D01*
X319587286Y-41772500D01*
X337636715Y-41772500D01*
X337933231Y-42216269D01*
X338474055Y-42577636D01*
X339112000Y-42704531D01*
X339273031Y-42672500D01*
X341850969Y-42672500D01*
X342012000Y-42704531D01*
X342649944Y-42577636D01*
X343190769Y-42216269D01*
X343487286Y-41772500D01*
X344373031Y-41772500D01*
X344849945Y-41677636D01*
X344871719Y-41663087D01*
X345049944Y-41627636D01*
X345590769Y-41266269D01*
X345952136Y-40725445D01*
X346047000Y-40248531D01*
X346047000Y-34056860D01*
X348952391Y-34056860D01*
X348957670Y-35184681D01*
X349379112Y-36202132D01*
X349770618Y-36447277D01*
X351610395Y-34607500D01*
X349770618Y-32767723D01*
X349379112Y-33012868D01*
X348952391Y-34056860D01*
X346047000Y-34056860D01*
X346047000Y-26426469D01*
X345952136Y-25949555D01*
X345668325Y-25524802D01*
X345753861Y-25586266D01*
X346294241Y-26143893D01*
X346727337Y-26788408D01*
X347039449Y-27499418D01*
X347221511Y-28257765D01*
X347270747Y-28990928D01*
X347275362Y-29137789D01*
X347277117Y-29148872D01*
X347276413Y-29160068D01*
X347287588Y-29248528D01*
X347406892Y-29873944D01*
X347420697Y-29916430D01*
X347429066Y-29960305D01*
X347461889Y-30043207D01*
X347732980Y-30619304D01*
X347756916Y-30657021D01*
X347775934Y-30697436D01*
X347828343Y-30769571D01*
X348234185Y-31260151D01*
X348266754Y-31290736D01*
X348295222Y-31325147D01*
X348363915Y-31381975D01*
X348363922Y-31381982D01*
X348363926Y-31381984D01*
X348879019Y-31756221D01*
X348918165Y-31777742D01*
X348954301Y-31803996D01*
X349034965Y-31841954D01*
X349034978Y-31841961D01*
X349034985Y-31841963D01*
X349626960Y-32076343D01*
X349670236Y-32087454D01*
X349711758Y-32103894D01*
X349799330Y-32120600D01*
X349799342Y-32120603D01*
X349799349Y-32120603D01*
X350243431Y-32176704D01*
X350195368Y-32196612D01*
X349950223Y-32588118D01*
X351790000Y-34427895D01*
X351804143Y-34413753D01*
X351983748Y-34593358D01*
X351969605Y-34607500D01*
X351983748Y-34621643D01*
X351804143Y-34801248D01*
X351790000Y-34787105D01*
X349950223Y-36626882D01*
X350195368Y-37018388D01*
X351239360Y-37445109D01*
X352367181Y-37439830D01*
X353175475Y-37105024D01*
X353097239Y-37176619D01*
X352693701Y-37391748D01*
X352225153Y-37505643D01*
X352023981Y-37517000D01*
X350450074Y-37517000D01*
X350430573Y-37520879D01*
X350389256Y-37524013D01*
X349758663Y-37611936D01*
X349715539Y-37623602D01*
X349671303Y-37629770D01*
X349586870Y-37658411D01*
X349586865Y-37658412D01*
X349586862Y-37658413D01*
X348997950Y-37900395D01*
X348959087Y-37922416D01*
X348917768Y-37939394D01*
X348843106Y-37988135D01*
X348332871Y-38368974D01*
X348300701Y-38399973D01*
X348264909Y-38426688D01*
X348204714Y-38492465D01*
X347805220Y-38988229D01*
X347781772Y-39026250D01*
X347753745Y-39061031D01*
X347711799Y-39139712D01*
X347448147Y-39719251D01*
X347434891Y-39761909D01*
X347416395Y-39802566D01*
X347395334Y-39889206D01*
X347311288Y-40362833D01*
X347311195Y-40362973D01*
X347270000Y-40570075D01*
X347270001Y-80575069D01*
X347256091Y-80645000D01*
X347311195Y-80922028D01*
X347468119Y-81156881D01*
X347702972Y-81313805D01*
X347910074Y-81355000D01*
X347910075Y-81355000D01*
X347980000Y-81368909D01*
X348049926Y-81355000D01*
X364506966Y-81355000D01*
X364127231Y-81608731D01*
X363830715Y-82052500D01*
X345781286Y-82052500D01*
X345484769Y-81608731D01*
X344943944Y-81247364D01*
X344306000Y-81120469D01*
X344144969Y-81152500D01*
X341567031Y-81152500D01*
X341406000Y-81120469D01*
X340768055Y-81247364D01*
X340227231Y-81608731D01*
X339930715Y-82052500D01*
X339044969Y-82052500D01*
X338568055Y-82147364D01*
X338546281Y-82161913D01*
X338368055Y-82197364D01*
X337827231Y-82558731D01*
X337465864Y-83099556D01*
X337371000Y-83576470D01*
X337371001Y-97398531D01*
X337465865Y-97875445D01*
X337827232Y-98416269D01*
X337857203Y-98436295D01*
X337877231Y-98466269D01*
X338418055Y-98827636D01*
X338894969Y-98922500D01*
X370717031Y-98922500D01*
X371193945Y-98827636D01*
X371734769Y-98466269D01*
X371754796Y-98436296D01*
X371784769Y-98416269D01*
X372146136Y-97875445D01*
X372241000Y-97398531D01*
X372241000Y-83576469D01*
X372146136Y-83099555D01*
X371784769Y-82558731D01*
X371243944Y-82197364D01*
X371065719Y-82161913D01*
X371043945Y-82147364D01*
X370567031Y-82052500D01*
X369681286Y-82052500D01*
X369384769Y-81608731D01*
X369005033Y-81355000D01*
X375888382Y-81355000D01*
X376693358Y-81426842D01*
X377442277Y-81631723D01*
X378143072Y-81965986D01*
X378773605Y-82419069D01*
X379313934Y-82976645D01*
X379746989Y-83621099D01*
X380059073Y-84332044D01*
X380241640Y-85092493D01*
X380290001Y-85751044D01*
X380290000Y-120617454D01*
X380219200Y-121387965D01*
X380018044Y-122101210D01*
X379690272Y-122765866D01*
X379246872Y-123359651D01*
X378702685Y-123862691D01*
X378075940Y-124258139D01*
X377387625Y-124532748D01*
X376647026Y-124680064D01*
X376218908Y-124702500D01*
X366590201Y-124702500D01*
X366719632Y-124648888D01*
X366964777Y-124257382D01*
X365125000Y-122417605D01*
X363285223Y-124257382D01*
X363530368Y-124648888D01*
X363661532Y-124702500D01*
X247693501Y-124702500D01*
X247667286Y-124699275D01*
X247623748Y-124702500D01*
X247580074Y-124702500D01*
X247554159Y-124707655D01*
X204761248Y-127877500D01*
X166713766Y-127877500D01*
X123920841Y-124707655D01*
X123894926Y-124702500D01*
X123851252Y-124702500D01*
X123807714Y-124699275D01*
X123781499Y-124702500D01*
X29885692Y-124702500D01*
X30169632Y-124584888D01*
X30414777Y-124193382D01*
X28575000Y-122353605D01*
X26735223Y-124193382D01*
X26980368Y-124584888D01*
X27268111Y-124702500D01*
X23845046Y-124702500D01*
X23074535Y-124631700D01*
X22361290Y-124430544D01*
X21696634Y-124102772D01*
X21102849Y-123659372D01*
X20599809Y-123115185D01*
X20204361Y-122488440D01*
X19929752Y-121800125D01*
X19894591Y-121623360D01*
X25737391Y-121623360D01*
X25742670Y-122751181D01*
X26164112Y-123768632D01*
X26555618Y-124013777D01*
X28395395Y-122174000D01*
X28754605Y-122174000D01*
X30594382Y-124013777D01*
X30985888Y-123768632D01*
X31412609Y-122724640D01*
X31407330Y-121596819D01*
X30985888Y-120579368D01*
X30594382Y-120334223D01*
X28754605Y-122174000D01*
X28395395Y-122174000D01*
X26555618Y-120334223D01*
X26164112Y-120579368D01*
X25737391Y-121623360D01*
X19894591Y-121623360D01*
X19782436Y-121059526D01*
X19760000Y-120631408D01*
X19760000Y-120154618D01*
X26735223Y-120154618D01*
X28575000Y-121994395D01*
X30414777Y-120154618D01*
X30169632Y-119763112D01*
X29125640Y-119336391D01*
X27997819Y-119341670D01*
X26980368Y-119763112D01*
X26735223Y-120154618D01*
X19760000Y-120154618D01*
X19760000Y-118830030D01*
X124915000Y-118830030D01*
X125009864Y-119306944D01*
X125371231Y-119847769D01*
X125401204Y-119867796D01*
X125421231Y-119897769D01*
X125962055Y-120259136D01*
X126438969Y-120354000D01*
X140261031Y-120354000D01*
X140737945Y-120259136D01*
X141278769Y-119897769D01*
X141298796Y-119867796D01*
X141328769Y-119847769D01*
X141690136Y-119306945D01*
X141785000Y-118830031D01*
X141785000Y-107388970D01*
X146346000Y-107388970D01*
X146346001Y-121211031D01*
X146440865Y-121687945D01*
X146802232Y-122228769D01*
X146832203Y-122248795D01*
X146852231Y-122278769D01*
X147393055Y-122640136D01*
X147869969Y-122735000D01*
X161692031Y-122735000D01*
X162168945Y-122640136D01*
X162709769Y-122278769D01*
X162729796Y-122248796D01*
X162759769Y-122228769D01*
X163121136Y-121687945D01*
X163216000Y-121211031D01*
X163216000Y-109769970D01*
X167777000Y-109769970D01*
X167777001Y-123592031D01*
X167871865Y-124068945D01*
X168233232Y-124609769D01*
X168263203Y-124629795D01*
X168283231Y-124659769D01*
X168824055Y-125021136D01*
X169300969Y-125116000D01*
X183123031Y-125116000D01*
X183599945Y-125021136D01*
X184140769Y-124659769D01*
X184160796Y-124629796D01*
X184190769Y-124609769D01*
X184552136Y-124068945D01*
X184647000Y-123592031D01*
X184647000Y-123592030D01*
X186827000Y-123592030D01*
X186921864Y-124068944D01*
X187283231Y-124609769D01*
X187313204Y-124629796D01*
X187333231Y-124659769D01*
X187874055Y-125021136D01*
X188350969Y-125116000D01*
X202173031Y-125116000D01*
X202649945Y-125021136D01*
X203190769Y-124659769D01*
X203210796Y-124629796D01*
X203240769Y-124609769D01*
X203602136Y-124068945D01*
X203697000Y-123592031D01*
X203697000Y-109769969D01*
X203602136Y-109293055D01*
X203240769Y-108752231D01*
X203210796Y-108732204D01*
X203190769Y-108702231D01*
X202649945Y-108340864D01*
X202173031Y-108246000D01*
X188350969Y-108246000D01*
X187874055Y-108340864D01*
X187333231Y-108702231D01*
X187313203Y-108732205D01*
X187283232Y-108752231D01*
X186921865Y-109293055D01*
X186827001Y-109769969D01*
X186827000Y-123592030D01*
X184647000Y-123592030D01*
X184647000Y-109769969D01*
X184552136Y-109293055D01*
X184190769Y-108752231D01*
X184160796Y-108732204D01*
X184140769Y-108702231D01*
X183599945Y-108340864D01*
X183123031Y-108246000D01*
X169300969Y-108246000D01*
X168824055Y-108340864D01*
X168283231Y-108702231D01*
X168263204Y-108732204D01*
X168233231Y-108752231D01*
X167871864Y-109293056D01*
X167777000Y-109769970D01*
X163216000Y-109769970D01*
X163216000Y-107388970D01*
X208259000Y-107388970D01*
X208259001Y-121211031D01*
X208353865Y-121687945D01*
X208715232Y-122228769D01*
X208745203Y-122248795D01*
X208765231Y-122278769D01*
X209306055Y-122640136D01*
X209782969Y-122735000D01*
X223605031Y-122735000D01*
X224081945Y-122640136D01*
X224622769Y-122278769D01*
X224642796Y-122248796D01*
X224672769Y-122228769D01*
X225034136Y-121687945D01*
X225034252Y-121687360D01*
X362287391Y-121687360D01*
X362292670Y-122815181D01*
X362714112Y-123832632D01*
X363105618Y-124077777D01*
X364945395Y-122238000D01*
X365304605Y-122238000D01*
X367144382Y-124077777D01*
X367535888Y-123832632D01*
X367962609Y-122788640D01*
X367957330Y-121660819D01*
X367535888Y-120643368D01*
X367144382Y-120398223D01*
X365304605Y-122238000D01*
X364945395Y-122238000D01*
X363105618Y-120398223D01*
X362714112Y-120643368D01*
X362287391Y-121687360D01*
X225034252Y-121687360D01*
X225129000Y-121211031D01*
X225129000Y-107388969D01*
X225034136Y-106912055D01*
X224672769Y-106371231D01*
X224642796Y-106351204D01*
X224622769Y-106321231D01*
X224081945Y-105959864D01*
X223605031Y-105865000D01*
X209782969Y-105865000D01*
X209306055Y-105959864D01*
X208765231Y-106321231D01*
X208745204Y-106351204D01*
X208715231Y-106371231D01*
X208353864Y-106912056D01*
X208259000Y-107388970D01*
X163216000Y-107388970D01*
X163216000Y-107388969D01*
X163121136Y-106912055D01*
X162759769Y-106371231D01*
X162729796Y-106351204D01*
X162709769Y-106321231D01*
X162168945Y-105959864D01*
X161692031Y-105865000D01*
X147869969Y-105865000D01*
X147393055Y-105959864D01*
X146852231Y-106321231D01*
X146832204Y-106351204D01*
X146802231Y-106371231D01*
X146440864Y-106912056D01*
X146346000Y-107388970D01*
X141785000Y-107388970D01*
X141785000Y-105007970D01*
X229690000Y-105007970D01*
X229690001Y-118830031D01*
X229784865Y-119306945D01*
X230146232Y-119847769D01*
X230176203Y-119867795D01*
X230196231Y-119897769D01*
X230737055Y-120259136D01*
X231213969Y-120354000D01*
X245036031Y-120354000D01*
X245512945Y-120259136D01*
X245573584Y-120218618D01*
X363285223Y-120218618D01*
X365125000Y-122058395D01*
X366964777Y-120218618D01*
X366719632Y-119827112D01*
X365675640Y-119400391D01*
X364547819Y-119405670D01*
X363530368Y-119827112D01*
X363285223Y-120218618D01*
X245573584Y-120218618D01*
X246053769Y-119897769D01*
X246073796Y-119867796D01*
X246103769Y-119847769D01*
X246465136Y-119306945D01*
X246560000Y-118830031D01*
X246560000Y-116449030D01*
X291603000Y-116449030D01*
X291697864Y-116925944D01*
X292059231Y-117466769D01*
X292089204Y-117486796D01*
X292109231Y-117516769D01*
X292650055Y-117878136D01*
X293126969Y-117973000D01*
X306949031Y-117973000D01*
X307425945Y-117878136D01*
X307966769Y-117516769D01*
X307986796Y-117486796D01*
X308016769Y-117466769D01*
X308378136Y-116925945D01*
X308473000Y-116449031D01*
X308473000Y-116449030D01*
X310653000Y-116449030D01*
X310747864Y-116925944D01*
X311109231Y-117466769D01*
X311139204Y-117486796D01*
X311159231Y-117516769D01*
X311700055Y-117878136D01*
X312176969Y-117973000D01*
X325999031Y-117973000D01*
X326475945Y-117878136D01*
X327016769Y-117516769D01*
X327036796Y-117486796D01*
X327066769Y-117466769D01*
X327428136Y-116925945D01*
X327523000Y-116449031D01*
X327523000Y-116449030D01*
X329703000Y-116449030D01*
X329797864Y-116925944D01*
X330159231Y-117466769D01*
X330189204Y-117486796D01*
X330209231Y-117516769D01*
X330750055Y-117878136D01*
X331226969Y-117973000D01*
X345049031Y-117973000D01*
X345525945Y-117878136D01*
X346066769Y-117516769D01*
X346086796Y-117486796D01*
X346116769Y-117466769D01*
X346478136Y-116925945D01*
X346573000Y-116449031D01*
X346573000Y-102626969D01*
X346478136Y-102150055D01*
X346116769Y-101609231D01*
X346086796Y-101589204D01*
X346066769Y-101559231D01*
X345525945Y-101197864D01*
X345049031Y-101103000D01*
X331226969Y-101103000D01*
X330750055Y-101197864D01*
X330209231Y-101559231D01*
X330189203Y-101589205D01*
X330159232Y-101609231D01*
X329797865Y-102150055D01*
X329703001Y-102626969D01*
X329703000Y-116449030D01*
X327523000Y-116449030D01*
X327523000Y-102626969D01*
X327428136Y-102150055D01*
X327066769Y-101609231D01*
X327036796Y-101589204D01*
X327016769Y-101559231D01*
X326475945Y-101197864D01*
X325999031Y-101103000D01*
X312176969Y-101103000D01*
X311700055Y-101197864D01*
X311159231Y-101559231D01*
X311139203Y-101589205D01*
X311109232Y-101609231D01*
X310747865Y-102150055D01*
X310653001Y-102626969D01*
X310653000Y-116449030D01*
X308473000Y-116449030D01*
X308473000Y-102626969D01*
X308378136Y-102150055D01*
X308016769Y-101609231D01*
X307986796Y-101589204D01*
X307966769Y-101559231D01*
X307425945Y-101197864D01*
X306949031Y-101103000D01*
X293126969Y-101103000D01*
X292650055Y-101197864D01*
X292109231Y-101559231D01*
X292089203Y-101589205D01*
X292059232Y-101609231D01*
X291697865Y-102150055D01*
X291603001Y-102626969D01*
X291603000Y-116449030D01*
X246560000Y-116449030D01*
X246560000Y-105007969D01*
X246465136Y-104531055D01*
X246103769Y-103990231D01*
X246073796Y-103970204D01*
X246053769Y-103940231D01*
X245512945Y-103578864D01*
X245036031Y-103484000D01*
X231213969Y-103484000D01*
X230737055Y-103578864D01*
X230196231Y-103940231D01*
X230176204Y-103970204D01*
X230146231Y-103990231D01*
X229784864Y-104531056D01*
X229690000Y-105007970D01*
X141785000Y-105007970D01*
X141785000Y-105007969D01*
X141690136Y-104531055D01*
X141328769Y-103990231D01*
X141298796Y-103970204D01*
X141278769Y-103940231D01*
X140737945Y-103578864D01*
X140261031Y-103484000D01*
X126438969Y-103484000D01*
X125962055Y-103578864D01*
X125421231Y-103940231D01*
X125401203Y-103970205D01*
X125371232Y-103990231D01*
X125009865Y-104531055D01*
X124915001Y-105007969D01*
X124915000Y-118830030D01*
X19760000Y-118830030D01*
X19760000Y-116449030D01*
X20140000Y-116449030D01*
X20234864Y-116925944D01*
X20596231Y-117466769D01*
X20626204Y-117486796D01*
X20646231Y-117516769D01*
X21187055Y-117878136D01*
X21663969Y-117973000D01*
X35486031Y-117973000D01*
X35962945Y-117878136D01*
X36503769Y-117516769D01*
X36523796Y-117486796D01*
X36553769Y-117466769D01*
X36915136Y-116925945D01*
X37010000Y-116449031D01*
X37010000Y-116449030D01*
X41571200Y-116449030D01*
X41666064Y-116925944D01*
X42027431Y-117466769D01*
X42057404Y-117486796D01*
X42077431Y-117516769D01*
X42618255Y-117878136D01*
X43095169Y-117973000D01*
X56917231Y-117973000D01*
X57394145Y-117878136D01*
X57934969Y-117516769D01*
X57954996Y-117486796D01*
X57984969Y-117466769D01*
X58346336Y-116925945D01*
X58441200Y-116449031D01*
X58441200Y-102626969D01*
X58346336Y-102150055D01*
X57984969Y-101609231D01*
X57954996Y-101589204D01*
X57934969Y-101559231D01*
X57394145Y-101197864D01*
X56917231Y-101103000D01*
X43095169Y-101103000D01*
X42618255Y-101197864D01*
X42077431Y-101559231D01*
X42057403Y-101589205D01*
X42027432Y-101609231D01*
X41666065Y-102150055D01*
X41571201Y-102626969D01*
X41571200Y-116449030D01*
X37010000Y-116449030D01*
X37010000Y-102626969D01*
X36915136Y-102150055D01*
X36553769Y-101609231D01*
X36523796Y-101589204D01*
X36503769Y-101559231D01*
X35962945Y-101197864D01*
X35486031Y-101103000D01*
X21663969Y-101103000D01*
X21187055Y-101197864D01*
X20646231Y-101559231D01*
X20626203Y-101589205D01*
X20596232Y-101609231D01*
X20234865Y-102150055D01*
X20140001Y-102626969D01*
X20140000Y-116449030D01*
X19760000Y-116449030D01*
X19760000Y-83576470D01*
X23046200Y-83576470D01*
X23046201Y-97398531D01*
X23141065Y-97875445D01*
X23502432Y-98416269D01*
X23532403Y-98436295D01*
X23552431Y-98466269D01*
X24093255Y-98827636D01*
X24570169Y-98922500D01*
X56392231Y-98922500D01*
X56869145Y-98827636D01*
X57409969Y-98466269D01*
X57429996Y-98436296D01*
X57459969Y-98416269D01*
X57821336Y-97875445D01*
X57916200Y-97398531D01*
X57916200Y-97398530D01*
X63002500Y-97398530D01*
X63097364Y-97875444D01*
X63458731Y-98416269D01*
X63488704Y-98436296D01*
X63508731Y-98466269D01*
X64049555Y-98827636D01*
X64526469Y-98922500D01*
X78348531Y-98922500D01*
X78825445Y-98827636D01*
X79366269Y-98466269D01*
X79386296Y-98436296D01*
X79416269Y-98416269D01*
X79777636Y-97875445D01*
X79872500Y-97398531D01*
X79872500Y-97398530D01*
X82052500Y-97398530D01*
X82147364Y-97875444D01*
X82508731Y-98416269D01*
X82538704Y-98436296D01*
X82558731Y-98466269D01*
X83099555Y-98827636D01*
X83576469Y-98922500D01*
X97398531Y-98922500D01*
X97875445Y-98827636D01*
X98416269Y-98466269D01*
X98436296Y-98436296D01*
X98466269Y-98416269D01*
X98827636Y-97875445D01*
X98922500Y-97398531D01*
X98922500Y-97398530D01*
X101103000Y-97398530D01*
X101197864Y-97875444D01*
X101559231Y-98416269D01*
X101589204Y-98436296D01*
X101609231Y-98466269D01*
X102150055Y-98827636D01*
X102626969Y-98922500D01*
X116449031Y-98922500D01*
X116925945Y-98827636D01*
X117466769Y-98466269D01*
X117486796Y-98436296D01*
X117516769Y-98416269D01*
X117878136Y-97875445D01*
X117973000Y-97398531D01*
X117973000Y-97398530D01*
X120153000Y-97398530D01*
X120247864Y-97875444D01*
X120609231Y-98416269D01*
X120639204Y-98436296D01*
X120659231Y-98466269D01*
X121200055Y-98827636D01*
X121676969Y-98922500D01*
X135499031Y-98922500D01*
X135975945Y-98827636D01*
X136516769Y-98466269D01*
X136536796Y-98436296D01*
X136566769Y-98416269D01*
X136928136Y-97875445D01*
X137023000Y-97398531D01*
X137023000Y-97398530D01*
X139203000Y-97398530D01*
X139297864Y-97875444D01*
X139659231Y-98416269D01*
X139689204Y-98436296D01*
X139709231Y-98466269D01*
X140250055Y-98827636D01*
X140726969Y-98922500D01*
X154549031Y-98922500D01*
X155025945Y-98827636D01*
X155566769Y-98466269D01*
X155586796Y-98436296D01*
X155616769Y-98416269D01*
X155978136Y-97875445D01*
X156073000Y-97398531D01*
X156073000Y-97398530D01*
X158253000Y-97398530D01*
X158347864Y-97875444D01*
X158709231Y-98416269D01*
X158739204Y-98436296D01*
X158759231Y-98466269D01*
X159300055Y-98827636D01*
X159776969Y-98922500D01*
X173599031Y-98922500D01*
X174075945Y-98827636D01*
X174616769Y-98466269D01*
X174636796Y-98436296D01*
X174666769Y-98416269D01*
X175028136Y-97875445D01*
X175123000Y-97398531D01*
X175123000Y-97398530D01*
X177303000Y-97398530D01*
X177397864Y-97875444D01*
X177759231Y-98416269D01*
X177789204Y-98436296D01*
X177809231Y-98466269D01*
X178350055Y-98827636D01*
X178826969Y-98922500D01*
X192649031Y-98922500D01*
X193125945Y-98827636D01*
X193666769Y-98466269D01*
X193686796Y-98436296D01*
X193716769Y-98416269D01*
X194078136Y-97875445D01*
X194173000Y-97398531D01*
X194173000Y-97398530D01*
X196353000Y-97398530D01*
X196447864Y-97875444D01*
X196809231Y-98416269D01*
X196839204Y-98436296D01*
X196859231Y-98466269D01*
X197400055Y-98827636D01*
X197876969Y-98922500D01*
X211699031Y-98922500D01*
X212175945Y-98827636D01*
X212716769Y-98466269D01*
X212736796Y-98436296D01*
X212766769Y-98416269D01*
X213128136Y-97875445D01*
X213223000Y-97398531D01*
X213223000Y-97398530D01*
X215403000Y-97398530D01*
X215497864Y-97875444D01*
X215859231Y-98416269D01*
X215889204Y-98436296D01*
X215909231Y-98466269D01*
X216450055Y-98827636D01*
X216926969Y-98922500D01*
X230749031Y-98922500D01*
X231225945Y-98827636D01*
X231766769Y-98466269D01*
X231786796Y-98436296D01*
X231816769Y-98416269D01*
X232178136Y-97875445D01*
X232273000Y-97398531D01*
X232273000Y-97398530D01*
X234453000Y-97398530D01*
X234547864Y-97875444D01*
X234909231Y-98416269D01*
X234939204Y-98436296D01*
X234959231Y-98466269D01*
X235500055Y-98827636D01*
X235976969Y-98922500D01*
X249799031Y-98922500D01*
X250275945Y-98827636D01*
X250816769Y-98466269D01*
X250836796Y-98436296D01*
X250866769Y-98416269D01*
X251228136Y-97875445D01*
X251323000Y-97398531D01*
X251323000Y-97398530D01*
X253503000Y-97398530D01*
X253597864Y-97875444D01*
X253959231Y-98416269D01*
X253989204Y-98436296D01*
X254009231Y-98466269D01*
X254550055Y-98827636D01*
X255026969Y-98922500D01*
X268849031Y-98922500D01*
X269325945Y-98827636D01*
X269866769Y-98466269D01*
X269886796Y-98436296D01*
X269916769Y-98416269D01*
X270278136Y-97875445D01*
X270373000Y-97398531D01*
X270373000Y-97398530D01*
X272553000Y-97398530D01*
X272647864Y-97875444D01*
X273009231Y-98416269D01*
X273039204Y-98436296D01*
X273059231Y-98466269D01*
X273600055Y-98827636D01*
X274076969Y-98922500D01*
X287899031Y-98922500D01*
X288375945Y-98827636D01*
X288916769Y-98466269D01*
X288936796Y-98436296D01*
X288966769Y-98416269D01*
X289328136Y-97875445D01*
X289423000Y-97398531D01*
X289423000Y-97398530D01*
X291603000Y-97398530D01*
X291697864Y-97875444D01*
X292059231Y-98416269D01*
X292089204Y-98436296D01*
X292109231Y-98466269D01*
X292650055Y-98827636D01*
X293126969Y-98922500D01*
X306949031Y-98922500D01*
X307425945Y-98827636D01*
X307966769Y-98466269D01*
X307986796Y-98436296D01*
X308016769Y-98416269D01*
X308378136Y-97875445D01*
X308473000Y-97398531D01*
X308473000Y-97398530D01*
X310653000Y-97398530D01*
X310747864Y-97875444D01*
X311109231Y-98416269D01*
X311139204Y-98436296D01*
X311159231Y-98466269D01*
X311700055Y-98827636D01*
X312176969Y-98922500D01*
X325999031Y-98922500D01*
X326475945Y-98827636D01*
X327016769Y-98466269D01*
X327036796Y-98436296D01*
X327066769Y-98416269D01*
X327428136Y-97875445D01*
X327523000Y-97398531D01*
X327523000Y-83576469D01*
X327428136Y-83099555D01*
X327066769Y-82558731D01*
X327036796Y-82538704D01*
X327016769Y-82508731D01*
X326475945Y-82147364D01*
X325999031Y-82052500D01*
X312176969Y-82052500D01*
X311700055Y-82147364D01*
X311159231Y-82508731D01*
X311139203Y-82538705D01*
X311109232Y-82558731D01*
X310747865Y-83099555D01*
X310653001Y-83576469D01*
X310653000Y-97398530D01*
X308473000Y-97398530D01*
X308473000Y-83576469D01*
X308378136Y-83099555D01*
X308016769Y-82558731D01*
X307986796Y-82538704D01*
X307966769Y-82508731D01*
X307425945Y-82147364D01*
X306949031Y-82052500D01*
X293126969Y-82052500D01*
X292650055Y-82147364D01*
X292109231Y-82508731D01*
X292089203Y-82538705D01*
X292059232Y-82558731D01*
X291697865Y-83099555D01*
X291603001Y-83576469D01*
X291603000Y-97398530D01*
X289423000Y-97398530D01*
X289423000Y-83576469D01*
X289328136Y-83099555D01*
X288966769Y-82558731D01*
X288936796Y-82538704D01*
X288916769Y-82508731D01*
X288375945Y-82147364D01*
X287899031Y-82052500D01*
X274076969Y-82052500D01*
X273600055Y-82147364D01*
X273059231Y-82508731D01*
X273039203Y-82538705D01*
X273009232Y-82558731D01*
X272647865Y-83099555D01*
X272553001Y-83576469D01*
X272553000Y-97398530D01*
X270373000Y-97398530D01*
X270373000Y-83576469D01*
X270278136Y-83099555D01*
X269916769Y-82558731D01*
X269886796Y-82538704D01*
X269866769Y-82508731D01*
X269325945Y-82147364D01*
X268849031Y-82052500D01*
X255026969Y-82052500D01*
X254550055Y-82147364D01*
X254009231Y-82508731D01*
X253989203Y-82538705D01*
X253959232Y-82558731D01*
X253597865Y-83099555D01*
X253503001Y-83576469D01*
X253503000Y-97398530D01*
X251323000Y-97398530D01*
X251323000Y-83576469D01*
X251228136Y-83099555D01*
X250866769Y-82558731D01*
X250836796Y-82538704D01*
X250816769Y-82508731D01*
X250275945Y-82147364D01*
X249799031Y-82052500D01*
X235976969Y-82052500D01*
X235500055Y-82147364D01*
X234959231Y-82508731D01*
X234939203Y-82538705D01*
X234909232Y-82558731D01*
X234547865Y-83099555D01*
X234453001Y-83576469D01*
X234453000Y-97398530D01*
X232273000Y-97398530D01*
X232273000Y-83576469D01*
X232178136Y-83099555D01*
X231816769Y-82558731D01*
X231786796Y-82538704D01*
X231766769Y-82508731D01*
X231225945Y-82147364D01*
X230749031Y-82052500D01*
X216926969Y-82052500D01*
X216450055Y-82147364D01*
X215909231Y-82508731D01*
X215889203Y-82538705D01*
X215859232Y-82558731D01*
X215497865Y-83099555D01*
X215403001Y-83576469D01*
X215403000Y-97398530D01*
X213223000Y-97398530D01*
X213223000Y-83576469D01*
X213128136Y-83099555D01*
X212766769Y-82558731D01*
X212736796Y-82538704D01*
X212716769Y-82508731D01*
X212175945Y-82147364D01*
X211699031Y-82052500D01*
X197876969Y-82052500D01*
X197400055Y-82147364D01*
X196859231Y-82508731D01*
X196839203Y-82538705D01*
X196809232Y-82558731D01*
X196447865Y-83099555D01*
X196353001Y-83576469D01*
X196353000Y-97398530D01*
X194173000Y-97398530D01*
X194173000Y-83576469D01*
X194078136Y-83099555D01*
X193716769Y-82558731D01*
X193686796Y-82538704D01*
X193666769Y-82508731D01*
X193125945Y-82147364D01*
X192649031Y-82052500D01*
X178826969Y-82052500D01*
X178350055Y-82147364D01*
X177809231Y-82508731D01*
X177789203Y-82538705D01*
X177759232Y-82558731D01*
X177397865Y-83099555D01*
X177303001Y-83576469D01*
X177303000Y-97398530D01*
X175123000Y-97398530D01*
X175123000Y-83576469D01*
X175028136Y-83099555D01*
X174666769Y-82558731D01*
X174636796Y-82538704D01*
X174616769Y-82508731D01*
X174075945Y-82147364D01*
X173599031Y-82052500D01*
X159776969Y-82052500D01*
X159300055Y-82147364D01*
X158759231Y-82508731D01*
X158739203Y-82538705D01*
X158709232Y-82558731D01*
X158347865Y-83099555D01*
X158253001Y-83576469D01*
X158253000Y-97398530D01*
X156073000Y-97398530D01*
X156073000Y-83576469D01*
X155978136Y-83099555D01*
X155616769Y-82558731D01*
X155586796Y-82538704D01*
X155566769Y-82508731D01*
X155025945Y-82147364D01*
X154549031Y-82052500D01*
X140726969Y-82052500D01*
X140250055Y-82147364D01*
X139709231Y-82508731D01*
X139689203Y-82538705D01*
X139659232Y-82558731D01*
X139297865Y-83099555D01*
X139203001Y-83576469D01*
X139203000Y-97398530D01*
X137023000Y-97398530D01*
X137023000Y-83576469D01*
X136928136Y-83099555D01*
X136566769Y-82558731D01*
X136536796Y-82538704D01*
X136516769Y-82508731D01*
X135975945Y-82147364D01*
X135499031Y-82052500D01*
X121676969Y-82052500D01*
X121200055Y-82147364D01*
X120659231Y-82508731D01*
X120639203Y-82538705D01*
X120609232Y-82558731D01*
X120247865Y-83099555D01*
X120153001Y-83576469D01*
X120153000Y-97398530D01*
X117973000Y-97398530D01*
X117973000Y-83576469D01*
X117878136Y-83099555D01*
X117516769Y-82558731D01*
X117486796Y-82538704D01*
X117466769Y-82508731D01*
X116925945Y-82147364D01*
X116449031Y-82052500D01*
X102626969Y-82052500D01*
X102150055Y-82147364D01*
X101609231Y-82508731D01*
X101589203Y-82538705D01*
X101559232Y-82558731D01*
X101197865Y-83099555D01*
X101103001Y-83576469D01*
X101103000Y-97398530D01*
X98922500Y-97398530D01*
X98922500Y-83576469D01*
X98827636Y-83099555D01*
X98466269Y-82558731D01*
X98436296Y-82538704D01*
X98416269Y-82508731D01*
X97875445Y-82147364D01*
X97398531Y-82052500D01*
X83576469Y-82052500D01*
X83099555Y-82147364D01*
X82558731Y-82508731D01*
X82538703Y-82538705D01*
X82508732Y-82558731D01*
X82147365Y-83099555D01*
X82052501Y-83576469D01*
X82052500Y-97398530D01*
X79872500Y-97398530D01*
X79872500Y-83576469D01*
X79777636Y-83099555D01*
X79416269Y-82558731D01*
X79386296Y-82538704D01*
X79366269Y-82508731D01*
X78825445Y-82147364D01*
X78348531Y-82052500D01*
X64526469Y-82052500D01*
X64049555Y-82147364D01*
X63508731Y-82508731D01*
X63488703Y-82538705D01*
X63458732Y-82558731D01*
X63097365Y-83099555D01*
X63002501Y-83576469D01*
X63002500Y-97398530D01*
X57916200Y-97398530D01*
X57916200Y-83576469D01*
X57821336Y-83099555D01*
X57459969Y-82558731D01*
X56919144Y-82197364D01*
X56740919Y-82161913D01*
X56719145Y-82147364D01*
X56242231Y-82052500D01*
X55356486Y-82052500D01*
X55059969Y-81608731D01*
X54519144Y-81247364D01*
X53881200Y-81120469D01*
X53720169Y-81152500D01*
X51142231Y-81152500D01*
X50981200Y-81120469D01*
X50343255Y-81247364D01*
X49802431Y-81608731D01*
X49505915Y-82052500D01*
X31456486Y-82052500D01*
X31159969Y-81608731D01*
X30619144Y-81247364D01*
X29981200Y-81120469D01*
X29820169Y-81152500D01*
X27242231Y-81152500D01*
X27081200Y-81120469D01*
X26443255Y-81247364D01*
X25902431Y-81608731D01*
X25605915Y-82052500D01*
X24720169Y-82052500D01*
X24243255Y-82147364D01*
X24221481Y-82161913D01*
X24043255Y-82197364D01*
X23502431Y-82558731D01*
X23141064Y-83099556D01*
X23046200Y-83576470D01*
X19760000Y-83576470D01*
X19760000Y-78348530D01*
X41571200Y-78348530D01*
X41666064Y-78825444D01*
X42027431Y-79366269D01*
X42057404Y-79386296D01*
X42077431Y-79416269D01*
X42618255Y-79777636D01*
X43095169Y-79872500D01*
X56917231Y-79872500D01*
X57394145Y-79777636D01*
X57934969Y-79416269D01*
X57954996Y-79386296D01*
X57984969Y-79366269D01*
X58346336Y-78825445D01*
X58441200Y-78348531D01*
X58441200Y-78348530D01*
X67765000Y-78348530D01*
X67859864Y-78825444D01*
X68221231Y-79366269D01*
X68251204Y-79386296D01*
X68271231Y-79416269D01*
X68812055Y-79777636D01*
X69288969Y-79872500D01*
X83111031Y-79872500D01*
X83587945Y-79777636D01*
X84128769Y-79416269D01*
X84148796Y-79386296D01*
X84178769Y-79366269D01*
X84540136Y-78825445D01*
X84635000Y-78348531D01*
X84635000Y-78348530D01*
X86815000Y-78348530D01*
X86909864Y-78825444D01*
X87271231Y-79366269D01*
X87301204Y-79386296D01*
X87321231Y-79416269D01*
X87862055Y-79777636D01*
X88338969Y-79872500D01*
X102161031Y-79872500D01*
X102637945Y-79777636D01*
X103178769Y-79416269D01*
X103198796Y-79386296D01*
X103228769Y-79366269D01*
X103590136Y-78825445D01*
X103685000Y-78348531D01*
X103685000Y-78348530D01*
X105865000Y-78348530D01*
X105959864Y-78825444D01*
X106321231Y-79366269D01*
X106351204Y-79386296D01*
X106371231Y-79416269D01*
X106912055Y-79777636D01*
X107388969Y-79872500D01*
X121211031Y-79872500D01*
X121687945Y-79777636D01*
X122228769Y-79416269D01*
X122248796Y-79386296D01*
X122278769Y-79366269D01*
X122640136Y-78825445D01*
X122735000Y-78348531D01*
X122735000Y-78348530D01*
X124915000Y-78348530D01*
X125009864Y-78825444D01*
X125371231Y-79366269D01*
X125401204Y-79386296D01*
X125421231Y-79416269D01*
X125962055Y-79777636D01*
X126438969Y-79872500D01*
X140261031Y-79872500D01*
X140737945Y-79777636D01*
X141278769Y-79416269D01*
X141298796Y-79386296D01*
X141328769Y-79366269D01*
X141690136Y-78825445D01*
X141785000Y-78348531D01*
X141785000Y-78348530D01*
X143965000Y-78348530D01*
X144059864Y-78825444D01*
X144421231Y-79366269D01*
X144451204Y-79386296D01*
X144471231Y-79416269D01*
X145012055Y-79777636D01*
X145488969Y-79872500D01*
X159311031Y-79872500D01*
X159787945Y-79777636D01*
X160328769Y-79416269D01*
X160348796Y-79386296D01*
X160378769Y-79366269D01*
X160740136Y-78825445D01*
X160835000Y-78348531D01*
X160835000Y-78348530D01*
X163015000Y-78348530D01*
X163109864Y-78825444D01*
X163471231Y-79366269D01*
X163501204Y-79386296D01*
X163521231Y-79416269D01*
X164062055Y-79777636D01*
X164538969Y-79872500D01*
X178361031Y-79872500D01*
X178837945Y-79777636D01*
X179378769Y-79416269D01*
X179398796Y-79386296D01*
X179428769Y-79366269D01*
X179790136Y-78825445D01*
X179885000Y-78348531D01*
X179885000Y-78348530D01*
X191590000Y-78348530D01*
X191684864Y-78825444D01*
X192046231Y-79366269D01*
X192076204Y-79386296D01*
X192096231Y-79416269D01*
X192637055Y-79777636D01*
X193113969Y-79872500D01*
X206936031Y-79872500D01*
X207412945Y-79777636D01*
X207953769Y-79416269D01*
X207973796Y-79386296D01*
X208003769Y-79366269D01*
X208365136Y-78825445D01*
X208460000Y-78348531D01*
X208460000Y-78348530D01*
X210640000Y-78348530D01*
X210734864Y-78825444D01*
X211096231Y-79366269D01*
X211126204Y-79386296D01*
X211146231Y-79416269D01*
X211687055Y-79777636D01*
X212163969Y-79872500D01*
X225986031Y-79872500D01*
X226462945Y-79777636D01*
X227003769Y-79416269D01*
X227023796Y-79386296D01*
X227053769Y-79366269D01*
X227415136Y-78825445D01*
X227510000Y-78348531D01*
X227510000Y-78348530D01*
X229690000Y-78348530D01*
X229784864Y-78825444D01*
X230146231Y-79366269D01*
X230176204Y-79386296D01*
X230196231Y-79416269D01*
X230737055Y-79777636D01*
X231213969Y-79872500D01*
X245036031Y-79872500D01*
X245512945Y-79777636D01*
X246053769Y-79416269D01*
X246073796Y-79386296D01*
X246103769Y-79366269D01*
X246465136Y-78825445D01*
X246560000Y-78348531D01*
X246560000Y-78348530D01*
X248740000Y-78348530D01*
X248834864Y-78825444D01*
X249196231Y-79366269D01*
X249226204Y-79386296D01*
X249246231Y-79416269D01*
X249787055Y-79777636D01*
X250263969Y-79872500D01*
X264086031Y-79872500D01*
X264562945Y-79777636D01*
X265103769Y-79416269D01*
X265123796Y-79386296D01*
X265153769Y-79366269D01*
X265515136Y-78825445D01*
X265610000Y-78348531D01*
X265610000Y-78348530D01*
X267790000Y-78348530D01*
X267884864Y-78825444D01*
X268246231Y-79366269D01*
X268276204Y-79386296D01*
X268296231Y-79416269D01*
X268837055Y-79777636D01*
X269313969Y-79872500D01*
X283136031Y-79872500D01*
X283612945Y-79777636D01*
X284153769Y-79416269D01*
X284173796Y-79386296D01*
X284203769Y-79366269D01*
X284565136Y-78825445D01*
X284660000Y-78348531D01*
X284660000Y-78348530D01*
X286840000Y-78348530D01*
X286934864Y-78825444D01*
X287296231Y-79366269D01*
X287326204Y-79386296D01*
X287346231Y-79416269D01*
X287887055Y-79777636D01*
X288363969Y-79872500D01*
X302186031Y-79872500D01*
X302662945Y-79777636D01*
X303203769Y-79416269D01*
X303223796Y-79386296D01*
X303253769Y-79366269D01*
X303615136Y-78825445D01*
X303710000Y-78348531D01*
X303710000Y-64526470D01*
X308796000Y-64526470D01*
X308796001Y-78348531D01*
X308890865Y-78825445D01*
X309252232Y-79366269D01*
X309282203Y-79386295D01*
X309302231Y-79416269D01*
X309843055Y-79777636D01*
X310319969Y-79872500D01*
X342142031Y-79872500D01*
X342618945Y-79777636D01*
X343159769Y-79416269D01*
X343179796Y-79386296D01*
X343209769Y-79366269D01*
X343571136Y-78825445D01*
X343666000Y-78348531D01*
X343666000Y-64526469D01*
X343571136Y-64049555D01*
X343209769Y-63508731D01*
X342668944Y-63147364D01*
X342490719Y-63111913D01*
X342468945Y-63097364D01*
X341992031Y-63002500D01*
X341106286Y-63002500D01*
X340809769Y-62558731D01*
X340268944Y-62197364D01*
X339631000Y-62070469D01*
X339469969Y-62102500D01*
X336892031Y-62102500D01*
X336731000Y-62070469D01*
X336093055Y-62197364D01*
X335552231Y-62558731D01*
X335255715Y-63002500D01*
X317206286Y-63002500D01*
X316909769Y-62558731D01*
X316368944Y-62197364D01*
X315731000Y-62070469D01*
X315569969Y-62102500D01*
X312992031Y-62102500D01*
X312831000Y-62070469D01*
X312193055Y-62197364D01*
X311652231Y-62558731D01*
X311355715Y-63002500D01*
X310469969Y-63002500D01*
X309993055Y-63097364D01*
X309971281Y-63111913D01*
X309793055Y-63147364D01*
X309252231Y-63508731D01*
X308890864Y-64049556D01*
X308796000Y-64526470D01*
X303710000Y-64526470D01*
X303710000Y-64526469D01*
X303615136Y-64049555D01*
X303253769Y-63508731D01*
X303223796Y-63488704D01*
X303203769Y-63458731D01*
X302662945Y-63097364D01*
X302186031Y-63002500D01*
X288363969Y-63002500D01*
X287887055Y-63097364D01*
X287346231Y-63458731D01*
X287326203Y-63488705D01*
X287296232Y-63508731D01*
X286934865Y-64049555D01*
X286840001Y-64526469D01*
X286840000Y-78348530D01*
X284660000Y-78348530D01*
X284660000Y-64526469D01*
X284565136Y-64049555D01*
X284203769Y-63508731D01*
X284173796Y-63488704D01*
X284153769Y-63458731D01*
X283612945Y-63097364D01*
X283136031Y-63002500D01*
X269313969Y-63002500D01*
X268837055Y-63097364D01*
X268296231Y-63458731D01*
X268276203Y-63488705D01*
X268246232Y-63508731D01*
X267884865Y-64049555D01*
X267790001Y-64526469D01*
X267790000Y-78348530D01*
X265610000Y-78348530D01*
X265610000Y-64526469D01*
X265515136Y-64049555D01*
X265153769Y-63508731D01*
X265123796Y-63488704D01*
X265103769Y-63458731D01*
X264562945Y-63097364D01*
X264086031Y-63002500D01*
X250263969Y-63002500D01*
X249787055Y-63097364D01*
X249246231Y-63458731D01*
X249226203Y-63488705D01*
X249196232Y-63508731D01*
X248834865Y-64049555D01*
X248740001Y-64526469D01*
X248740000Y-78348530D01*
X246560000Y-78348530D01*
X246560000Y-64526469D01*
X246465136Y-64049555D01*
X246103769Y-63508731D01*
X246073796Y-63488704D01*
X246053769Y-63458731D01*
X245512945Y-63097364D01*
X245036031Y-63002500D01*
X231213969Y-63002500D01*
X230737055Y-63097364D01*
X230196231Y-63458731D01*
X230176203Y-63488705D01*
X230146232Y-63508731D01*
X229784865Y-64049555D01*
X229690001Y-64526469D01*
X229690000Y-78348530D01*
X227510000Y-78348530D01*
X227510000Y-64526469D01*
X227415136Y-64049555D01*
X227053769Y-63508731D01*
X227023796Y-63488704D01*
X227003769Y-63458731D01*
X226462945Y-63097364D01*
X225986031Y-63002500D01*
X212163969Y-63002500D01*
X211687055Y-63097364D01*
X211146231Y-63458731D01*
X211126203Y-63488705D01*
X211096232Y-63508731D01*
X210734865Y-64049555D01*
X210640001Y-64526469D01*
X210640000Y-78348530D01*
X208460000Y-78348530D01*
X208460000Y-64526469D01*
X208365136Y-64049555D01*
X208003769Y-63508731D01*
X207973796Y-63488704D01*
X207953769Y-63458731D01*
X207412945Y-63097364D01*
X206936031Y-63002500D01*
X193113969Y-63002500D01*
X192637055Y-63097364D01*
X192096231Y-63458731D01*
X192076203Y-63488705D01*
X192046232Y-63508731D01*
X191684865Y-64049555D01*
X191590001Y-64526469D01*
X191590000Y-78348530D01*
X179885000Y-78348530D01*
X179885000Y-67932382D01*
X183770223Y-67932382D01*
X184015368Y-68323888D01*
X185059360Y-68750609D01*
X186187181Y-68745330D01*
X187204632Y-68323888D01*
X187449777Y-67932382D01*
X185610000Y-66092605D01*
X183770223Y-67932382D01*
X179885000Y-67932382D01*
X179885000Y-65362360D01*
X182772391Y-65362360D01*
X182777670Y-66490181D01*
X183199112Y-67507632D01*
X183590618Y-67752777D01*
X185430395Y-65913000D01*
X185789605Y-65913000D01*
X187629382Y-67752777D01*
X188020888Y-67507632D01*
X188447609Y-66463640D01*
X188442330Y-65335819D01*
X188020888Y-64318368D01*
X187629382Y-64073223D01*
X185789605Y-65913000D01*
X185430395Y-65913000D01*
X183590618Y-64073223D01*
X183199112Y-64318368D01*
X182772391Y-65362360D01*
X179885000Y-65362360D01*
X179885000Y-64526469D01*
X179790136Y-64049555D01*
X179685943Y-63893618D01*
X183770223Y-63893618D01*
X185610000Y-65733395D01*
X187449777Y-63893618D01*
X187204632Y-63502112D01*
X186160640Y-63075391D01*
X185032819Y-63080670D01*
X184015368Y-63502112D01*
X183770223Y-63893618D01*
X179685943Y-63893618D01*
X179428769Y-63508731D01*
X179398796Y-63488704D01*
X179378769Y-63458731D01*
X178837945Y-63097364D01*
X178361031Y-63002500D01*
X164538969Y-63002500D01*
X164062055Y-63097364D01*
X163521231Y-63458731D01*
X163501203Y-63488705D01*
X163471232Y-63508731D01*
X163109865Y-64049555D01*
X163015001Y-64526469D01*
X163015000Y-78348530D01*
X160835000Y-78348530D01*
X160835000Y-64526469D01*
X160740136Y-64049555D01*
X160378769Y-63508731D01*
X160348796Y-63488704D01*
X160328769Y-63458731D01*
X159787945Y-63097364D01*
X159311031Y-63002500D01*
X145488969Y-63002500D01*
X145012055Y-63097364D01*
X144471231Y-63458731D01*
X144451203Y-63488705D01*
X144421232Y-63508731D01*
X144059865Y-64049555D01*
X143965001Y-64526469D01*
X143965000Y-78348530D01*
X141785000Y-78348530D01*
X141785000Y-64526469D01*
X141690136Y-64049555D01*
X141328769Y-63508731D01*
X141298796Y-63488704D01*
X141278769Y-63458731D01*
X140737945Y-63097364D01*
X140261031Y-63002500D01*
X126438969Y-63002500D01*
X125962055Y-63097364D01*
X125421231Y-63458731D01*
X125401203Y-63488705D01*
X125371232Y-63508731D01*
X125009865Y-64049555D01*
X124915001Y-64526469D01*
X124915000Y-78348530D01*
X122735000Y-78348530D01*
X122735000Y-64526469D01*
X122640136Y-64049555D01*
X122278769Y-63508731D01*
X122248796Y-63488704D01*
X122228769Y-63458731D01*
X121687945Y-63097364D01*
X121211031Y-63002500D01*
X107388969Y-63002500D01*
X106912055Y-63097364D01*
X106371231Y-63458731D01*
X106351203Y-63488705D01*
X106321232Y-63508731D01*
X105959865Y-64049555D01*
X105865001Y-64526469D01*
X105865000Y-78348530D01*
X103685000Y-78348530D01*
X103685000Y-64526469D01*
X103590136Y-64049555D01*
X103228769Y-63508731D01*
X103198796Y-63488704D01*
X103178769Y-63458731D01*
X102637945Y-63097364D01*
X102161031Y-63002500D01*
X88338969Y-63002500D01*
X87862055Y-63097364D01*
X87321231Y-63458731D01*
X87301203Y-63488705D01*
X87271232Y-63508731D01*
X86909865Y-64049555D01*
X86815001Y-64526469D01*
X86815000Y-78348530D01*
X84635000Y-78348530D01*
X84635000Y-64526469D01*
X84540136Y-64049555D01*
X84178769Y-63508731D01*
X84148796Y-63488704D01*
X84128769Y-63458731D01*
X83587945Y-63097364D01*
X83111031Y-63002500D01*
X69288969Y-63002500D01*
X68812055Y-63097364D01*
X68271231Y-63458731D01*
X68251203Y-63488705D01*
X68221232Y-63508731D01*
X67859865Y-64049555D01*
X67765001Y-64526469D01*
X67765000Y-78348530D01*
X58441200Y-78348530D01*
X58441200Y-64526469D01*
X58346336Y-64049555D01*
X57984969Y-63508731D01*
X57954996Y-63488704D01*
X57934969Y-63458731D01*
X57394145Y-63097364D01*
X56917231Y-63002500D01*
X43095169Y-63002500D01*
X42618255Y-63097364D01*
X42077431Y-63458731D01*
X42057403Y-63488705D01*
X42027432Y-63508731D01*
X41666065Y-64049555D01*
X41571201Y-64526469D01*
X41571200Y-78348530D01*
X19760000Y-78348530D01*
X19760000Y-59298530D01*
X24902500Y-59298530D01*
X24997364Y-59775444D01*
X25358731Y-60316269D01*
X25388704Y-60336296D01*
X25408731Y-60366269D01*
X25949555Y-60727636D01*
X26426469Y-60822500D01*
X40248531Y-60822500D01*
X40725445Y-60727636D01*
X41266269Y-60366269D01*
X41286296Y-60336296D01*
X41316269Y-60316269D01*
X41677636Y-59775445D01*
X41772500Y-59298531D01*
X41772500Y-59298530D01*
X48715000Y-59298530D01*
X48809864Y-59775444D01*
X49171231Y-60316269D01*
X49201204Y-60336296D01*
X49221231Y-60366269D01*
X49762055Y-60727636D01*
X50238969Y-60822500D01*
X64061031Y-60822500D01*
X64537945Y-60727636D01*
X65078769Y-60366269D01*
X65098796Y-60336296D01*
X65128769Y-60316269D01*
X65490136Y-59775445D01*
X65585000Y-59298531D01*
X65585000Y-59298530D01*
X72527500Y-59298530D01*
X72622364Y-59775444D01*
X72983731Y-60316269D01*
X73013704Y-60336296D01*
X73033731Y-60366269D01*
X73574555Y-60727636D01*
X74051469Y-60822500D01*
X87873531Y-60822500D01*
X88350445Y-60727636D01*
X88891269Y-60366269D01*
X88911296Y-60336296D01*
X88941269Y-60316269D01*
X89302636Y-59775445D01*
X89397500Y-59298531D01*
X89397500Y-59298530D01*
X91577000Y-59298530D01*
X91671864Y-59775444D01*
X92033231Y-60316269D01*
X92063204Y-60336296D01*
X92083231Y-60366269D01*
X92624055Y-60727636D01*
X93100969Y-60822500D01*
X106923031Y-60822500D01*
X107399945Y-60727636D01*
X107940769Y-60366269D01*
X107960796Y-60336296D01*
X107990769Y-60316269D01*
X108352136Y-59775445D01*
X108447000Y-59298531D01*
X108447000Y-59298530D01*
X110627000Y-59298530D01*
X110721864Y-59775444D01*
X111083231Y-60316269D01*
X111113204Y-60336296D01*
X111133231Y-60366269D01*
X111674055Y-60727636D01*
X112150969Y-60822500D01*
X125973031Y-60822500D01*
X126449945Y-60727636D01*
X126990769Y-60366269D01*
X127010796Y-60336296D01*
X127040769Y-60316269D01*
X127402136Y-59775445D01*
X127497000Y-59298531D01*
X127497000Y-59298530D01*
X129677000Y-59298530D01*
X129771864Y-59775444D01*
X130133231Y-60316269D01*
X130163204Y-60336296D01*
X130183231Y-60366269D01*
X130724055Y-60727636D01*
X131200969Y-60822500D01*
X145023031Y-60822500D01*
X145499945Y-60727636D01*
X146040769Y-60366269D01*
X146060796Y-60336296D01*
X146090769Y-60316269D01*
X146452136Y-59775445D01*
X146547000Y-59298531D01*
X146547000Y-59298530D01*
X148727000Y-59298530D01*
X148821864Y-59775444D01*
X149183231Y-60316269D01*
X149213204Y-60336296D01*
X149233231Y-60366269D01*
X149774055Y-60727636D01*
X150250969Y-60822500D01*
X164073031Y-60822500D01*
X164549945Y-60727636D01*
X165090769Y-60366269D01*
X165110796Y-60336296D01*
X165140769Y-60316269D01*
X165502136Y-59775445D01*
X165597000Y-59298531D01*
X165597000Y-59298530D01*
X167777000Y-59298530D01*
X167871864Y-59775444D01*
X168233231Y-60316269D01*
X168263204Y-60336296D01*
X168283231Y-60366269D01*
X168824055Y-60727636D01*
X169300969Y-60822500D01*
X183123031Y-60822500D01*
X183599945Y-60727636D01*
X184140769Y-60366269D01*
X184160796Y-60336296D01*
X184190769Y-60316269D01*
X184552136Y-59775445D01*
X184647000Y-59298531D01*
X184647000Y-59298530D01*
X186827000Y-59298530D01*
X186921864Y-59775444D01*
X187283231Y-60316269D01*
X187313204Y-60336296D01*
X187333231Y-60366269D01*
X187874055Y-60727636D01*
X188350969Y-60822500D01*
X202173031Y-60822500D01*
X202649945Y-60727636D01*
X203190769Y-60366269D01*
X203210796Y-60336296D01*
X203240769Y-60316269D01*
X203602136Y-59775445D01*
X203697000Y-59298531D01*
X203697000Y-59298530D01*
X205877000Y-59298530D01*
X205971864Y-59775444D01*
X206333231Y-60316269D01*
X206363204Y-60336296D01*
X206383231Y-60366269D01*
X206924055Y-60727636D01*
X207400969Y-60822500D01*
X221223031Y-60822500D01*
X221699945Y-60727636D01*
X222240769Y-60366269D01*
X222260796Y-60336296D01*
X222290769Y-60316269D01*
X222652136Y-59775445D01*
X222747000Y-59298531D01*
X222747000Y-59298530D01*
X224927000Y-59298530D01*
X225021864Y-59775444D01*
X225383231Y-60316269D01*
X225413204Y-60336296D01*
X225433231Y-60366269D01*
X225974055Y-60727636D01*
X226450969Y-60822500D01*
X240273031Y-60822500D01*
X240749945Y-60727636D01*
X241290769Y-60366269D01*
X241310796Y-60336296D01*
X241340769Y-60316269D01*
X241702136Y-59775445D01*
X241797000Y-59298531D01*
X241797000Y-59298530D01*
X243977000Y-59298530D01*
X244071864Y-59775444D01*
X244433231Y-60316269D01*
X244463204Y-60336296D01*
X244483231Y-60366269D01*
X245024055Y-60727636D01*
X245500969Y-60822500D01*
X259323031Y-60822500D01*
X259799945Y-60727636D01*
X260340769Y-60366269D01*
X260360796Y-60336296D01*
X260390769Y-60316269D01*
X260752136Y-59775445D01*
X260847000Y-59298531D01*
X260847000Y-59298530D01*
X263027000Y-59298530D01*
X263121864Y-59775444D01*
X263483231Y-60316269D01*
X263513204Y-60336296D01*
X263533231Y-60366269D01*
X264074055Y-60727636D01*
X264550969Y-60822500D01*
X278373031Y-60822500D01*
X278849945Y-60727636D01*
X279390769Y-60366269D01*
X279410796Y-60336296D01*
X279440769Y-60316269D01*
X279802136Y-59775445D01*
X279897000Y-59298531D01*
X279897000Y-59298530D01*
X282077000Y-59298530D01*
X282171864Y-59775444D01*
X282533231Y-60316269D01*
X282563204Y-60336296D01*
X282583231Y-60366269D01*
X283124055Y-60727636D01*
X283600969Y-60822500D01*
X297423031Y-60822500D01*
X297899945Y-60727636D01*
X298440769Y-60366269D01*
X298460796Y-60336296D01*
X298490769Y-60316269D01*
X298852136Y-59775445D01*
X298947000Y-59298531D01*
X298947000Y-59298530D01*
X305890000Y-59298530D01*
X305984864Y-59775444D01*
X306346231Y-60316269D01*
X306376204Y-60336296D01*
X306396231Y-60366269D01*
X306937055Y-60727636D01*
X307413969Y-60822500D01*
X321236031Y-60822500D01*
X321712945Y-60727636D01*
X322253769Y-60366269D01*
X322273796Y-60336296D01*
X322303769Y-60316269D01*
X322665136Y-59775445D01*
X322760000Y-59298531D01*
X322760000Y-59298530D01*
X329703000Y-59298530D01*
X329797864Y-59775444D01*
X330159231Y-60316269D01*
X330189204Y-60336296D01*
X330209231Y-60366269D01*
X330750055Y-60727636D01*
X331226969Y-60822500D01*
X345049031Y-60822500D01*
X345525945Y-60727636D01*
X346066769Y-60366269D01*
X346086796Y-60336296D01*
X346116769Y-60316269D01*
X346478136Y-59775445D01*
X346573000Y-59298531D01*
X346573000Y-45476469D01*
X346478136Y-44999555D01*
X346116769Y-44458731D01*
X346086796Y-44438704D01*
X346066769Y-44408731D01*
X345525945Y-44047364D01*
X345049031Y-43952500D01*
X331226969Y-43952500D01*
X330750055Y-44047364D01*
X330209231Y-44408731D01*
X330189203Y-44438705D01*
X330159232Y-44458731D01*
X329797865Y-44999555D01*
X329703001Y-45476469D01*
X329703000Y-59298530D01*
X322760000Y-59298530D01*
X322760000Y-45476469D01*
X322665136Y-44999555D01*
X322303769Y-44458731D01*
X322273796Y-44438704D01*
X322253769Y-44408731D01*
X321712945Y-44047364D01*
X321236031Y-43952500D01*
X307413969Y-43952500D01*
X306937055Y-44047364D01*
X306396231Y-44408731D01*
X306376203Y-44438705D01*
X306346232Y-44458731D01*
X305984865Y-44999555D01*
X305890001Y-45476469D01*
X305890000Y-59298530D01*
X298947000Y-59298530D01*
X298947000Y-45476469D01*
X298852136Y-44999555D01*
X298490769Y-44458731D01*
X298460796Y-44438704D01*
X298440769Y-44408731D01*
X297899945Y-44047364D01*
X297423031Y-43952500D01*
X283600969Y-43952500D01*
X283124055Y-44047364D01*
X282583231Y-44408731D01*
X282563203Y-44438705D01*
X282533232Y-44458731D01*
X282171865Y-44999555D01*
X282077001Y-45476469D01*
X282077000Y-59298530D01*
X279897000Y-59298530D01*
X279897000Y-45476469D01*
X279802136Y-44999555D01*
X279440769Y-44458731D01*
X279410796Y-44438704D01*
X279390769Y-44408731D01*
X278849945Y-44047364D01*
X278373031Y-43952500D01*
X264550969Y-43952500D01*
X264074055Y-44047364D01*
X263533231Y-44408731D01*
X263513203Y-44438705D01*
X263483232Y-44458731D01*
X263121865Y-44999555D01*
X263027001Y-45476469D01*
X263027000Y-59298530D01*
X260847000Y-59298530D01*
X260847000Y-45476469D01*
X260752136Y-44999555D01*
X260390769Y-44458731D01*
X260360796Y-44438704D01*
X260340769Y-44408731D01*
X259799945Y-44047364D01*
X259323031Y-43952500D01*
X245500969Y-43952500D01*
X245024055Y-44047364D01*
X244483231Y-44408731D01*
X244463203Y-44438705D01*
X244433232Y-44458731D01*
X244071865Y-44999555D01*
X243977001Y-45476469D01*
X243977000Y-59298530D01*
X241797000Y-59298530D01*
X241797000Y-45476469D01*
X241702136Y-44999555D01*
X241340769Y-44458731D01*
X241310796Y-44438704D01*
X241290769Y-44408731D01*
X240749945Y-44047364D01*
X240273031Y-43952500D01*
X226450969Y-43952500D01*
X225974055Y-44047364D01*
X225433231Y-44408731D01*
X225413203Y-44438705D01*
X225383232Y-44458731D01*
X225021865Y-44999555D01*
X224927001Y-45476469D01*
X224927000Y-59298530D01*
X222747000Y-59298530D01*
X222747000Y-45476469D01*
X222652136Y-44999555D01*
X222290769Y-44458731D01*
X222260796Y-44438704D01*
X222240769Y-44408731D01*
X221699945Y-44047364D01*
X221223031Y-43952500D01*
X207400969Y-43952500D01*
X206924055Y-44047364D01*
X206383231Y-44408731D01*
X206363203Y-44438705D01*
X206333232Y-44458731D01*
X205971865Y-44999555D01*
X205877001Y-45476469D01*
X205877000Y-59298530D01*
X203697000Y-59298530D01*
X203697000Y-45476469D01*
X203602136Y-44999555D01*
X203240769Y-44458731D01*
X203210796Y-44438704D01*
X203190769Y-44408731D01*
X202649945Y-44047364D01*
X202173031Y-43952500D01*
X188350969Y-43952500D01*
X187874055Y-44047364D01*
X187333231Y-44408731D01*
X187313203Y-44438705D01*
X187283232Y-44458731D01*
X186921865Y-44999555D01*
X186827001Y-45476469D01*
X186827000Y-59298530D01*
X184647000Y-59298530D01*
X184647000Y-45476469D01*
X184552136Y-44999555D01*
X184190769Y-44458731D01*
X184160796Y-44438704D01*
X184140769Y-44408731D01*
X183599945Y-44047364D01*
X183123031Y-43952500D01*
X169300969Y-43952500D01*
X168824055Y-44047364D01*
X168283231Y-44408731D01*
X168263203Y-44438705D01*
X168233232Y-44458731D01*
X167871865Y-44999555D01*
X167777001Y-45476469D01*
X167777000Y-59298530D01*
X165597000Y-59298530D01*
X165597000Y-45476469D01*
X165502136Y-44999555D01*
X165140769Y-44458731D01*
X165110796Y-44438704D01*
X165090769Y-44408731D01*
X164549945Y-44047364D01*
X164073031Y-43952500D01*
X150250969Y-43952500D01*
X149774055Y-44047364D01*
X149233231Y-44408731D01*
X149213203Y-44438705D01*
X149183232Y-44458731D01*
X148821865Y-44999555D01*
X148727001Y-45476469D01*
X148727000Y-59298530D01*
X146547000Y-59298530D01*
X146547000Y-45476469D01*
X146452136Y-44999555D01*
X146090769Y-44458731D01*
X146060796Y-44438704D01*
X146040769Y-44408731D01*
X145499945Y-44047364D01*
X145023031Y-43952500D01*
X131200969Y-43952500D01*
X130724055Y-44047364D01*
X130183231Y-44408731D01*
X130163203Y-44438705D01*
X130133232Y-44458731D01*
X129771865Y-44999555D01*
X129677001Y-45476469D01*
X129677000Y-59298530D01*
X127497000Y-59298530D01*
X127497000Y-45476469D01*
X127402136Y-44999555D01*
X127040769Y-44458731D01*
X127010796Y-44438704D01*
X126990769Y-44408731D01*
X126449945Y-44047364D01*
X125973031Y-43952500D01*
X112150969Y-43952500D01*
X111674055Y-44047364D01*
X111133231Y-44408731D01*
X111113203Y-44438705D01*
X111083232Y-44458731D01*
X110721865Y-44999555D01*
X110627001Y-45476469D01*
X110627000Y-59298530D01*
X108447000Y-59298530D01*
X108447000Y-45476469D01*
X108352136Y-44999555D01*
X107990769Y-44458731D01*
X107960796Y-44438704D01*
X107940769Y-44408731D01*
X107399945Y-44047364D01*
X106923031Y-43952500D01*
X93100969Y-43952500D01*
X92624055Y-44047364D01*
X92083231Y-44408731D01*
X92063203Y-44438705D01*
X92033232Y-44458731D01*
X91671865Y-44999555D01*
X91577001Y-45476469D01*
X91577000Y-59298530D01*
X89397500Y-59298530D01*
X89397500Y-45476469D01*
X89302636Y-44999555D01*
X88941269Y-44458731D01*
X88911296Y-44438704D01*
X88891269Y-44408731D01*
X88350445Y-44047364D01*
X87873531Y-43952500D01*
X74051469Y-43952500D01*
X73574555Y-44047364D01*
X73033731Y-44408731D01*
X73013703Y-44438705D01*
X72983732Y-44458731D01*
X72622365Y-44999555D01*
X72527501Y-45476469D01*
X72527500Y-59298530D01*
X65585000Y-59298530D01*
X65585000Y-45476469D01*
X65490136Y-44999555D01*
X65128769Y-44458731D01*
X65098796Y-44438704D01*
X65078769Y-44408731D01*
X64537945Y-44047364D01*
X64061031Y-43952500D01*
X50238969Y-43952500D01*
X49762055Y-44047364D01*
X49221231Y-44408731D01*
X49201203Y-44438705D01*
X49171232Y-44458731D01*
X48809865Y-44999555D01*
X48715001Y-45476469D01*
X48715000Y-59298530D01*
X41772500Y-59298530D01*
X41772500Y-45476469D01*
X41677636Y-44999555D01*
X41316269Y-44458731D01*
X41286296Y-44438704D01*
X41266269Y-44408731D01*
X40725445Y-44047364D01*
X40248531Y-43952500D01*
X26426469Y-43952500D01*
X25949555Y-44047364D01*
X25408731Y-44408731D01*
X25388703Y-44438705D01*
X25358732Y-44458731D01*
X24997365Y-44999555D01*
X24902501Y-45476469D01*
X24902500Y-59298530D01*
X19760000Y-59298530D01*
X19760000Y-36626882D01*
X20385223Y-36626882D01*
X20630368Y-37018388D01*
X21674360Y-37445109D01*
X22802181Y-37439830D01*
X23819632Y-37018388D01*
X24064777Y-36626882D01*
X22225000Y-34787105D01*
X20385223Y-36626882D01*
X19760000Y-36626882D01*
X19760000Y-36071494D01*
X19814112Y-36202132D01*
X20205618Y-36447277D01*
X22045395Y-34607500D01*
X22404605Y-34607500D01*
X24244382Y-36447277D01*
X24635888Y-36202132D01*
X24902500Y-35549853D01*
X24902500Y-40248530D01*
X24997364Y-40725444D01*
X25358731Y-41266269D01*
X25388704Y-41286296D01*
X25408731Y-41316269D01*
X25949555Y-41677636D01*
X26426469Y-41772500D01*
X40248531Y-41772500D01*
X40725445Y-41677636D01*
X41266269Y-41316269D01*
X41286296Y-41286296D01*
X41316269Y-41266269D01*
X41677636Y-40725445D01*
X41772500Y-40248531D01*
X41772500Y-40248530D01*
X43952500Y-40248530D01*
X44047364Y-40725444D01*
X44408731Y-41266269D01*
X44438704Y-41286296D01*
X44458731Y-41316269D01*
X44999555Y-41677636D01*
X45476469Y-41772500D01*
X59298531Y-41772500D01*
X59775445Y-41677636D01*
X60316269Y-41316269D01*
X60336296Y-41286296D01*
X60366269Y-41266269D01*
X60727636Y-40725445D01*
X60822500Y-40248531D01*
X60822500Y-40248530D01*
X63002500Y-40248530D01*
X63097364Y-40725444D01*
X63458731Y-41266269D01*
X63488704Y-41286296D01*
X63508731Y-41316269D01*
X64049555Y-41677636D01*
X64526469Y-41772500D01*
X78348531Y-41772500D01*
X78825445Y-41677636D01*
X79366269Y-41316269D01*
X79386296Y-41286296D01*
X79416269Y-41266269D01*
X79777636Y-40725445D01*
X79872500Y-40248531D01*
X79872500Y-40248530D01*
X82052500Y-40248530D01*
X82147364Y-40725444D01*
X82508731Y-41266269D01*
X82538704Y-41286296D01*
X82558731Y-41316269D01*
X83099555Y-41677636D01*
X83576469Y-41772500D01*
X97398531Y-41772500D01*
X97875445Y-41677636D01*
X98416269Y-41316269D01*
X98436296Y-41286296D01*
X98466269Y-41266269D01*
X98827636Y-40725445D01*
X98922500Y-40248531D01*
X98922500Y-40248530D01*
X101103000Y-40248530D01*
X101197864Y-40725444D01*
X101559231Y-41266269D01*
X101589204Y-41286296D01*
X101609231Y-41316269D01*
X102150055Y-41677636D01*
X102626969Y-41772500D01*
X116449031Y-41772500D01*
X116925945Y-41677636D01*
X117466769Y-41316269D01*
X117486796Y-41286296D01*
X117516769Y-41266269D01*
X117878136Y-40725445D01*
X117973000Y-40248531D01*
X117973000Y-40248530D01*
X120153000Y-40248530D01*
X120247864Y-40725444D01*
X120609231Y-41266269D01*
X120639204Y-41286296D01*
X120659231Y-41316269D01*
X121200055Y-41677636D01*
X121676969Y-41772500D01*
X135499031Y-41772500D01*
X135975945Y-41677636D01*
X136516769Y-41316269D01*
X136536796Y-41286296D01*
X136566769Y-41266269D01*
X136928136Y-40725445D01*
X137023000Y-40248531D01*
X137023000Y-40248530D01*
X139203000Y-40248530D01*
X139297864Y-40725444D01*
X139659231Y-41266269D01*
X139689204Y-41286296D01*
X139709231Y-41316269D01*
X140250055Y-41677636D01*
X140726969Y-41772500D01*
X154549031Y-41772500D01*
X155025945Y-41677636D01*
X155566769Y-41316269D01*
X155586796Y-41286296D01*
X155616769Y-41266269D01*
X155978136Y-40725445D01*
X156073000Y-40248531D01*
X156073000Y-40248530D01*
X158253000Y-40248530D01*
X158347864Y-40725444D01*
X158709231Y-41266269D01*
X158739204Y-41286296D01*
X158759231Y-41316269D01*
X159300055Y-41677636D01*
X159776969Y-41772500D01*
X173599031Y-41772500D01*
X174075945Y-41677636D01*
X174616769Y-41316269D01*
X174636796Y-41286296D01*
X174666769Y-41266269D01*
X175028136Y-40725445D01*
X175123000Y-40248531D01*
X175123000Y-40248530D01*
X177303000Y-40248530D01*
X177397864Y-40725444D01*
X177759231Y-41266269D01*
X177789204Y-41286296D01*
X177809231Y-41316269D01*
X178350055Y-41677636D01*
X178826969Y-41772500D01*
X192649031Y-41772500D01*
X193125945Y-41677636D01*
X193666769Y-41316269D01*
X193686796Y-41286296D01*
X193716769Y-41266269D01*
X194078136Y-40725445D01*
X194173000Y-40248531D01*
X194173000Y-40248530D01*
X196353000Y-40248530D01*
X196447864Y-40725444D01*
X196809231Y-41266269D01*
X196839204Y-41286296D01*
X196859231Y-41316269D01*
X197400055Y-41677636D01*
X197876969Y-41772500D01*
X211699031Y-41772500D01*
X212175945Y-41677636D01*
X212716769Y-41316269D01*
X212736796Y-41286296D01*
X212766769Y-41266269D01*
X213128136Y-40725445D01*
X213223000Y-40248531D01*
X213223000Y-40248530D01*
X215403000Y-40248530D01*
X215497864Y-40725444D01*
X215859231Y-41266269D01*
X215889204Y-41286296D01*
X215909231Y-41316269D01*
X216450055Y-41677636D01*
X216926969Y-41772500D01*
X230749031Y-41772500D01*
X231225945Y-41677636D01*
X231766769Y-41316269D01*
X231786796Y-41286296D01*
X231816769Y-41266269D01*
X232178136Y-40725445D01*
X232273000Y-40248531D01*
X232273000Y-40248530D01*
X234453000Y-40248530D01*
X234547864Y-40725444D01*
X234909231Y-41266269D01*
X234939204Y-41286296D01*
X234959231Y-41316269D01*
X235500055Y-41677636D01*
X235976969Y-41772500D01*
X249799031Y-41772500D01*
X250275945Y-41677636D01*
X250816769Y-41316269D01*
X250836796Y-41286296D01*
X250866769Y-41266269D01*
X251228136Y-40725445D01*
X251323000Y-40248531D01*
X251323000Y-40248530D01*
X253503000Y-40248530D01*
X253597864Y-40725444D01*
X253959231Y-41266269D01*
X253989204Y-41286296D01*
X254009231Y-41316269D01*
X254550055Y-41677636D01*
X255026969Y-41772500D01*
X268849031Y-41772500D01*
X269325945Y-41677636D01*
X269866769Y-41316269D01*
X269886796Y-41286296D01*
X269916769Y-41266269D01*
X270278136Y-40725445D01*
X270373000Y-40248531D01*
X270373000Y-40248530D01*
X272553000Y-40248530D01*
X272647864Y-40725444D01*
X273009231Y-41266269D01*
X273039204Y-41286296D01*
X273059231Y-41316269D01*
X273600055Y-41677636D01*
X274076969Y-41772500D01*
X287899031Y-41772500D01*
X288375945Y-41677636D01*
X288916769Y-41316269D01*
X288936796Y-41286296D01*
X288966769Y-41266269D01*
X289328136Y-40725445D01*
X289423000Y-40248531D01*
X289423000Y-40248530D01*
X291603000Y-40248530D01*
X291697864Y-40725444D01*
X292059231Y-41266269D01*
X292089204Y-41286296D01*
X292109231Y-41316269D01*
X292650055Y-41677636D01*
X293126969Y-41772500D01*
X306949031Y-41772500D01*
X307425945Y-41677636D01*
X307966769Y-41316269D01*
X307986796Y-41286296D01*
X308016769Y-41266269D01*
X308378136Y-40725445D01*
X308473000Y-40248531D01*
X308473000Y-26426469D01*
X308378136Y-25949555D01*
X308016769Y-25408731D01*
X307986796Y-25388704D01*
X307966769Y-25358731D01*
X307425945Y-24997364D01*
X306949031Y-24902500D01*
X293126969Y-24902500D01*
X292650055Y-24997364D01*
X292109231Y-25358731D01*
X292089203Y-25388705D01*
X292059232Y-25408731D01*
X291697865Y-25949555D01*
X291603001Y-26426469D01*
X291603000Y-40248530D01*
X289423000Y-40248530D01*
X289423000Y-26426469D01*
X289328136Y-25949555D01*
X288966769Y-25408731D01*
X288936796Y-25388704D01*
X288916769Y-25358731D01*
X288375945Y-24997364D01*
X287899031Y-24902500D01*
X274076969Y-24902500D01*
X273600055Y-24997364D01*
X273059231Y-25358731D01*
X273039203Y-25388705D01*
X273009232Y-25408731D01*
X272647865Y-25949555D01*
X272553001Y-26426469D01*
X272553000Y-40248530D01*
X270373000Y-40248530D01*
X270373000Y-26426469D01*
X270278136Y-25949555D01*
X269916769Y-25408731D01*
X269886796Y-25388704D01*
X269866769Y-25358731D01*
X269325945Y-24997364D01*
X268849031Y-24902500D01*
X255026969Y-24902500D01*
X254550055Y-24997364D01*
X254009231Y-25358731D01*
X253989203Y-25388705D01*
X253959232Y-25408731D01*
X253597865Y-25949555D01*
X253503001Y-26426469D01*
X253503000Y-40248530D01*
X251323000Y-40248530D01*
X251323000Y-26426469D01*
X251228136Y-25949555D01*
X250866769Y-25408731D01*
X250836796Y-25388704D01*
X250816769Y-25358731D01*
X250275945Y-24997364D01*
X249799031Y-24902500D01*
X235976969Y-24902500D01*
X235500055Y-24997364D01*
X234959231Y-25358731D01*
X234939203Y-25388705D01*
X234909232Y-25408731D01*
X234547865Y-25949555D01*
X234453001Y-26426469D01*
X234453000Y-40248530D01*
X232273000Y-40248530D01*
X232273000Y-26426469D01*
X232178136Y-25949555D01*
X231816769Y-25408731D01*
X231786796Y-25388704D01*
X231766769Y-25358731D01*
X231225945Y-24997364D01*
X230749031Y-24902500D01*
X216926969Y-24902500D01*
X216450055Y-24997364D01*
X215909231Y-25358731D01*
X215889203Y-25388705D01*
X215859232Y-25408731D01*
X215497865Y-25949555D01*
X215403001Y-26426469D01*
X215403000Y-40248530D01*
X213223000Y-40248530D01*
X213223000Y-26426469D01*
X213128136Y-25949555D01*
X212766769Y-25408731D01*
X212736796Y-25388704D01*
X212716769Y-25358731D01*
X212175945Y-24997364D01*
X211699031Y-24902500D01*
X197876969Y-24902500D01*
X197400055Y-24997364D01*
X196859231Y-25358731D01*
X196839203Y-25388705D01*
X196809232Y-25408731D01*
X196447865Y-25949555D01*
X196353001Y-26426469D01*
X196353000Y-40248530D01*
X194173000Y-40248530D01*
X194173000Y-26426469D01*
X194078136Y-25949555D01*
X193716769Y-25408731D01*
X193686796Y-25388704D01*
X193666769Y-25358731D01*
X193125945Y-24997364D01*
X192649031Y-24902500D01*
X178826969Y-24902500D01*
X178350055Y-24997364D01*
X177809231Y-25358731D01*
X177789203Y-25388705D01*
X177759232Y-25408731D01*
X177397865Y-25949555D01*
X177303001Y-26426469D01*
X177303000Y-40248530D01*
X175123000Y-40248530D01*
X175123000Y-26426469D01*
X175028136Y-25949555D01*
X174666769Y-25408731D01*
X174636796Y-25388704D01*
X174616769Y-25358731D01*
X174075945Y-24997364D01*
X173599031Y-24902500D01*
X159776969Y-24902500D01*
X159300055Y-24997364D01*
X158759231Y-25358731D01*
X158739203Y-25388705D01*
X158709232Y-25408731D01*
X158347865Y-25949555D01*
X158253001Y-26426469D01*
X158253000Y-40248530D01*
X156073000Y-40248530D01*
X156073000Y-26426469D01*
X155978136Y-25949555D01*
X155616769Y-25408731D01*
X155586796Y-25388704D01*
X155566769Y-25358731D01*
X155025945Y-24997364D01*
X154549031Y-24902500D01*
X140726969Y-24902500D01*
X140250055Y-24997364D01*
X139709231Y-25358731D01*
X139689203Y-25388705D01*
X139659232Y-25408731D01*
X139297865Y-25949555D01*
X139203001Y-26426469D01*
X139203000Y-40248530D01*
X137023000Y-40248530D01*
X137023000Y-26426469D01*
X136928136Y-25949555D01*
X136566769Y-25408731D01*
X136536796Y-25388704D01*
X136516769Y-25358731D01*
X135975945Y-24997364D01*
X135499031Y-24902500D01*
X121676969Y-24902500D01*
X121200055Y-24997364D01*
X120659231Y-25358731D01*
X120639203Y-25388705D01*
X120609232Y-25408731D01*
X120247865Y-25949555D01*
X120153001Y-26426469D01*
X120153000Y-40248530D01*
X117973000Y-40248530D01*
X117973000Y-26426469D01*
X117878136Y-25949555D01*
X117516769Y-25408731D01*
X117486796Y-25388704D01*
X117466769Y-25358731D01*
X116925945Y-24997364D01*
X116449031Y-24902500D01*
X102626969Y-24902500D01*
X102150055Y-24997364D01*
X101609231Y-25358731D01*
X101589203Y-25388705D01*
X101559232Y-25408731D01*
X101197865Y-25949555D01*
X101103001Y-26426469D01*
X101103000Y-40248530D01*
X98922500Y-40248530D01*
X98922500Y-26426469D01*
X98827636Y-25949555D01*
X98466269Y-25408731D01*
X98436296Y-25388704D01*
X98416269Y-25358731D01*
X97875445Y-24997364D01*
X97398531Y-24902500D01*
X83576469Y-24902500D01*
X83099555Y-24997364D01*
X82558731Y-25358731D01*
X82538703Y-25388705D01*
X82508732Y-25408731D01*
X82147365Y-25949555D01*
X82052501Y-26426469D01*
X82052500Y-40248530D01*
X79872500Y-40248530D01*
X79872500Y-26426469D01*
X79777636Y-25949555D01*
X79416269Y-25408731D01*
X79386296Y-25388704D01*
X79366269Y-25358731D01*
X78825445Y-24997364D01*
X78348531Y-24902500D01*
X64526469Y-24902500D01*
X64049555Y-24997364D01*
X63508731Y-25358731D01*
X63488703Y-25388705D01*
X63458732Y-25408731D01*
X63097365Y-25949555D01*
X63002501Y-26426469D01*
X63002500Y-40248530D01*
X60822500Y-40248530D01*
X60822500Y-26426469D01*
X60727636Y-25949555D01*
X60366269Y-25408731D01*
X60336296Y-25388704D01*
X60316269Y-25358731D01*
X59775445Y-24997364D01*
X59298531Y-24902500D01*
X45476469Y-24902500D01*
X44999555Y-24997364D01*
X44458731Y-25358731D01*
X44438703Y-25388705D01*
X44408732Y-25408731D01*
X44047365Y-25949555D01*
X43952501Y-26426469D01*
X43952500Y-40248530D01*
X41772500Y-40248530D01*
X41772500Y-26426469D01*
X41677636Y-25949555D01*
X41316269Y-25408731D01*
X41286296Y-25388704D01*
X41266269Y-25358731D01*
X40725445Y-24997364D01*
X40248531Y-24902500D01*
X26426469Y-24902500D01*
X25949555Y-24997364D01*
X25408731Y-25358731D01*
X25388703Y-25388705D01*
X25358732Y-25408731D01*
X24997365Y-25949555D01*
X24902501Y-26426469D01*
X24902500Y-33656527D01*
X24635888Y-33012868D01*
X24244382Y-32767723D01*
X22404605Y-34607500D01*
X22045395Y-34607500D01*
X20205618Y-32767723D01*
X19814112Y-33012868D01*
X19760000Y-33145255D01*
X19760000Y-32588118D01*
X20385223Y-32588118D01*
X22225000Y-34427895D01*
X24064777Y-32588118D01*
X23819632Y-32196612D01*
X22775640Y-31769891D01*
X21647819Y-31775170D01*
X20630368Y-32196612D01*
X20385223Y-32588118D01*
X19760000Y-32588118D01*
X19760000Y-28607547D01*
X19830800Y-27837035D01*
X20031956Y-27123790D01*
X20359728Y-26459134D01*
X20803128Y-25865350D01*
X21347318Y-25362307D01*
X21974060Y-24966861D01*
X22662379Y-24692250D01*
X23402973Y-24544936D01*
X23831092Y-24522500D01*
X342872830Y-24522500D01*
X343673430Y-24593952D01*
X343673430Y-24593952D01*
G37*
X343673430Y-24593952D02*
X344422417Y-24798851D01*
X344723195Y-24942315D01*
X344523031Y-24902500D01*
X312700969Y-24902500D01*
X312224055Y-24997364D01*
X311683231Y-25358731D01*
X311663203Y-25388705D01*
X311633232Y-25408731D01*
X311271865Y-25949555D01*
X311177001Y-26426469D01*
X311177000Y-40248530D01*
X311271864Y-40725444D01*
X311633231Y-41266269D01*
X312174055Y-41627636D01*
X312352281Y-41663087D01*
X312374055Y-41677636D01*
X312850969Y-41772500D01*
X313736715Y-41772500D01*
X314033231Y-42216269D01*
X314574055Y-42577636D01*
X315212000Y-42704531D01*
X315373031Y-42672500D01*
X317950969Y-42672500D01*
X318112000Y-42704531D01*
X318749944Y-42577636D01*
X319290769Y-42216269D01*
X319587286Y-41772500D01*
X337636715Y-41772500D01*
X337933231Y-42216269D01*
X338474055Y-42577636D01*
X339112000Y-42704531D01*
X339273031Y-42672500D01*
X341850969Y-42672500D01*
X342012000Y-42704531D01*
X342649944Y-42577636D01*
X343190769Y-42216269D01*
X343487286Y-41772500D01*
X344373031Y-41772500D01*
X344849945Y-41677636D01*
X344871719Y-41663087D01*
X345049944Y-41627636D01*
X345590769Y-41266269D01*
X345952136Y-40725445D01*
X346047000Y-40248531D01*
X346047000Y-34056860D01*
X348952391Y-34056860D01*
X348957670Y-35184681D01*
X349379112Y-36202132D01*
X349770618Y-36447277D01*
X351610395Y-34607500D01*
X349770618Y-32767723D01*
X349379112Y-33012868D01*
X348952391Y-34056860D01*
X346047000Y-34056860D01*
X346047000Y-26426469D01*
X345952136Y-25949555D01*
X345668325Y-25524802D01*
X345753861Y-25586266D01*
X346294241Y-26143893D01*
X346727337Y-26788408D01*
X347039449Y-27499418D01*
X347221511Y-28257765D01*
X347270747Y-28990928D01*
X347275362Y-29137789D01*
X347277117Y-29148872D01*
X347276413Y-29160068D01*
X347287588Y-29248528D01*
X347406892Y-29873944D01*
X347420697Y-29916430D01*
X347429066Y-29960305D01*
X347461889Y-30043207D01*
X347732980Y-30619304D01*
X347756916Y-30657021D01*
X347775934Y-30697436D01*
X347828343Y-30769571D01*
X348234185Y-31260151D01*
X348266754Y-31290736D01*
X348295222Y-31325147D01*
X348363915Y-31381975D01*
X348363922Y-31381982D01*
X348363926Y-31381984D01*
X348879019Y-31756221D01*
X348918165Y-31777742D01*
X348954301Y-31803996D01*
X349034965Y-31841954D01*
X349034978Y-31841961D01*
X349034985Y-31841963D01*
X349626960Y-32076343D01*
X349670236Y-32087454D01*
X349711758Y-32103894D01*
X349799330Y-32120600D01*
X349799342Y-32120603D01*
X349799349Y-32120603D01*
X350243431Y-32176704D01*
X350195368Y-32196612D01*
X349950223Y-32588118D01*
X351790000Y-34427895D01*
X351804143Y-34413753D01*
X351983748Y-34593358D01*
X351969605Y-34607500D01*
X351983748Y-34621643D01*
X351804143Y-34801248D01*
X351790000Y-34787105D01*
X349950223Y-36626882D01*
X350195368Y-37018388D01*
X351239360Y-37445109D01*
X352367181Y-37439830D01*
X353175475Y-37105024D01*
X353097239Y-37176619D01*
X352693701Y-37391748D01*
X352225153Y-37505643D01*
X352023981Y-37517000D01*
X350450074Y-37517000D01*
X350430573Y-37520879D01*
X350389256Y-37524013D01*
X349758663Y-37611936D01*
X349715539Y-37623602D01*
X349671303Y-37629770D01*
X349586870Y-37658411D01*
X349586865Y-37658412D01*
X349586862Y-37658413D01*
X348997950Y-37900395D01*
X348959087Y-37922416D01*
X348917768Y-37939394D01*
X348843106Y-37988135D01*
X348332871Y-38368974D01*
X348300701Y-38399973D01*
X348264909Y-38426688D01*
X348204714Y-38492465D01*
X347805220Y-38988229D01*
X347781772Y-39026250D01*
X347753745Y-39061031D01*
X347711799Y-39139712D01*
X347448147Y-39719251D01*
X347434891Y-39761909D01*
X347416395Y-39802566D01*
X347395334Y-39889206D01*
X347311288Y-40362833D01*
X347311195Y-40362973D01*
X347270000Y-40570075D01*
X347270001Y-80575069D01*
X347256091Y-80645000D01*
X347311195Y-80922028D01*
X347468119Y-81156881D01*
X347702972Y-81313805D01*
X347910074Y-81355000D01*
X347910075Y-81355000D01*
X347980000Y-81368909D01*
X348049926Y-81355000D01*
X364506966Y-81355000D01*
X364127231Y-81608731D01*
X363830715Y-82052500D01*
X345781286Y-82052500D01*
X345484769Y-81608731D01*
X344943944Y-81247364D01*
X344306000Y-81120469D01*
X344144969Y-81152500D01*
X341567031Y-81152500D01*
X341406000Y-81120469D01*
X340768055Y-81247364D01*
X340227231Y-81608731D01*
X339930715Y-82052500D01*
X339044969Y-82052500D01*
X338568055Y-82147364D01*
X338546281Y-82161913D01*
X338368055Y-82197364D01*
X337827231Y-82558731D01*
X337465864Y-83099556D01*
X337371000Y-83576470D01*
X337371001Y-97398531D01*
X337465865Y-97875445D01*
X337827232Y-98416269D01*
X337857203Y-98436295D01*
X337877231Y-98466269D01*
X338418055Y-98827636D01*
X338894969Y-98922500D01*
X370717031Y-98922500D01*
X371193945Y-98827636D01*
X371734769Y-98466269D01*
X371754796Y-98436296D01*
X371784769Y-98416269D01*
X372146136Y-97875445D01*
X372241000Y-97398531D01*
X372241000Y-83576469D01*
X372146136Y-83099555D01*
X371784769Y-82558731D01*
X371243944Y-82197364D01*
X371065719Y-82161913D01*
X371043945Y-82147364D01*
X370567031Y-82052500D01*
X369681286Y-82052500D01*
X369384769Y-81608731D01*
X369005033Y-81355000D01*
X375888382Y-81355000D01*
X376693358Y-81426842D01*
X377442277Y-81631723D01*
X378143072Y-81965986D01*
X378773605Y-82419069D01*
X379313934Y-82976645D01*
X379746989Y-83621099D01*
X380059073Y-84332044D01*
X380241640Y-85092493D01*
X380290001Y-85751044D01*
X380290000Y-120617454D01*
X380219200Y-121387965D01*
X380018044Y-122101210D01*
X379690272Y-122765866D01*
X379246872Y-123359651D01*
X378702685Y-123862691D01*
X378075940Y-124258139D01*
X377387625Y-124532748D01*
X376647026Y-124680064D01*
X376218908Y-124702500D01*
X366590201Y-124702500D01*
X366719632Y-124648888D01*
X366964777Y-124257382D01*
X365125000Y-122417605D01*
X363285223Y-124257382D01*
X363530368Y-124648888D01*
X363661532Y-124702500D01*
X247693501Y-124702500D01*
X247667286Y-124699275D01*
X247623748Y-124702500D01*
X247580074Y-124702500D01*
X247554159Y-124707655D01*
X204761248Y-127877500D01*
X166713766Y-127877500D01*
X123920841Y-124707655D01*
X123894926Y-124702500D01*
X123851252Y-124702500D01*
X123807714Y-124699275D01*
X123781499Y-124702500D01*
X29885692Y-124702500D01*
X30169632Y-124584888D01*
X30414777Y-124193382D01*
X28575000Y-122353605D01*
X26735223Y-124193382D01*
X26980368Y-124584888D01*
X27268111Y-124702500D01*
X23845046Y-124702500D01*
X23074535Y-124631700D01*
X22361290Y-124430544D01*
X21696634Y-124102772D01*
X21102849Y-123659372D01*
X20599809Y-123115185D01*
X20204361Y-122488440D01*
X19929752Y-121800125D01*
X19894591Y-121623360D01*
X25737391Y-121623360D01*
X25742670Y-122751181D01*
X26164112Y-123768632D01*
X26555618Y-124013777D01*
X28395395Y-122174000D01*
X28754605Y-122174000D01*
X30594382Y-124013777D01*
X30985888Y-123768632D01*
X31412609Y-122724640D01*
X31407330Y-121596819D01*
X30985888Y-120579368D01*
X30594382Y-120334223D01*
X28754605Y-122174000D01*
X28395395Y-122174000D01*
X26555618Y-120334223D01*
X26164112Y-120579368D01*
X25737391Y-121623360D01*
X19894591Y-121623360D01*
X19782436Y-121059526D01*
X19760000Y-120631408D01*
X19760000Y-120154618D01*
X26735223Y-120154618D01*
X28575000Y-121994395D01*
X30414777Y-120154618D01*
X30169632Y-119763112D01*
X29125640Y-119336391D01*
X27997819Y-119341670D01*
X26980368Y-119763112D01*
X26735223Y-120154618D01*
X19760000Y-120154618D01*
X19760000Y-118830030D01*
X124915000Y-118830030D01*
X125009864Y-119306944D01*
X125371231Y-119847769D01*
X125401204Y-119867796D01*
X125421231Y-119897769D01*
X125962055Y-120259136D01*
X126438969Y-120354000D01*
X140261031Y-120354000D01*
X140737945Y-120259136D01*
X141278769Y-119897769D01*
X141298796Y-119867796D01*
X141328769Y-119847769D01*
X141690136Y-119306945D01*
X141785000Y-118830031D01*
X141785000Y-107388970D01*
X146346000Y-107388970D01*
X146346001Y-121211031D01*
X146440865Y-121687945D01*
X146802232Y-122228769D01*
X146832203Y-122248795D01*
X146852231Y-122278769D01*
X147393055Y-122640136D01*
X147869969Y-122735000D01*
X161692031Y-122735000D01*
X162168945Y-122640136D01*
X162709769Y-122278769D01*
X162729796Y-122248796D01*
X162759769Y-122228769D01*
X163121136Y-121687945D01*
X163216000Y-121211031D01*
X163216000Y-109769970D01*
X167777000Y-109769970D01*
X167777001Y-123592031D01*
X167871865Y-124068945D01*
X168233232Y-124609769D01*
X168263203Y-124629795D01*
X168283231Y-124659769D01*
X168824055Y-125021136D01*
X169300969Y-125116000D01*
X183123031Y-125116000D01*
X183599945Y-125021136D01*
X184140769Y-124659769D01*
X184160796Y-124629796D01*
X184190769Y-124609769D01*
X184552136Y-124068945D01*
X184647000Y-123592031D01*
X184647000Y-123592030D01*
X186827000Y-123592030D01*
X186921864Y-124068944D01*
X187283231Y-124609769D01*
X187313204Y-124629796D01*
X187333231Y-124659769D01*
X187874055Y-125021136D01*
X188350969Y-125116000D01*
X202173031Y-125116000D01*
X202649945Y-125021136D01*
X203190769Y-124659769D01*
X203210796Y-124629796D01*
X203240769Y-124609769D01*
X203602136Y-124068945D01*
X203697000Y-123592031D01*
X203697000Y-109769969D01*
X203602136Y-109293055D01*
X203240769Y-108752231D01*
X203210796Y-108732204D01*
X203190769Y-108702231D01*
X202649945Y-108340864D01*
X202173031Y-108246000D01*
X188350969Y-108246000D01*
X187874055Y-108340864D01*
X187333231Y-108702231D01*
X187313203Y-108732205D01*
X187283232Y-108752231D01*
X186921865Y-109293055D01*
X186827001Y-109769969D01*
X186827000Y-123592030D01*
X184647000Y-123592030D01*
X184647000Y-109769969D01*
X184552136Y-109293055D01*
X184190769Y-108752231D01*
X184160796Y-108732204D01*
X184140769Y-108702231D01*
X183599945Y-108340864D01*
X183123031Y-108246000D01*
X169300969Y-108246000D01*
X168824055Y-108340864D01*
X168283231Y-108702231D01*
X168263204Y-108732204D01*
X168233231Y-108752231D01*
X167871864Y-109293056D01*
X167777000Y-109769970D01*
X163216000Y-109769970D01*
X163216000Y-107388970D01*
X208259000Y-107388970D01*
X208259001Y-121211031D01*
X208353865Y-121687945D01*
X208715232Y-122228769D01*
X208745203Y-122248795D01*
X208765231Y-122278769D01*
X209306055Y-122640136D01*
X209782969Y-122735000D01*
X223605031Y-122735000D01*
X224081945Y-122640136D01*
X224622769Y-122278769D01*
X224642796Y-122248796D01*
X224672769Y-122228769D01*
X225034136Y-121687945D01*
X225034252Y-121687360D01*
X362287391Y-121687360D01*
X362292670Y-122815181D01*
X362714112Y-123832632D01*
X363105618Y-124077777D01*
X364945395Y-122238000D01*
X365304605Y-122238000D01*
X367144382Y-124077777D01*
X367535888Y-123832632D01*
X367962609Y-122788640D01*
X367957330Y-121660819D01*
X367535888Y-120643368D01*
X367144382Y-120398223D01*
X365304605Y-122238000D01*
X364945395Y-122238000D01*
X363105618Y-120398223D01*
X362714112Y-120643368D01*
X362287391Y-121687360D01*
X225034252Y-121687360D01*
X225129000Y-121211031D01*
X225129000Y-107388969D01*
X225034136Y-106912055D01*
X224672769Y-106371231D01*
X224642796Y-106351204D01*
X224622769Y-106321231D01*
X224081945Y-105959864D01*
X223605031Y-105865000D01*
X209782969Y-105865000D01*
X209306055Y-105959864D01*
X208765231Y-106321231D01*
X208745204Y-106351204D01*
X208715231Y-106371231D01*
X208353864Y-106912056D01*
X208259000Y-107388970D01*
X163216000Y-107388970D01*
X163216000Y-107388969D01*
X163121136Y-106912055D01*
X162759769Y-106371231D01*
X162729796Y-106351204D01*
X162709769Y-106321231D01*
X162168945Y-105959864D01*
X161692031Y-105865000D01*
X147869969Y-105865000D01*
X147393055Y-105959864D01*
X146852231Y-106321231D01*
X146832204Y-106351204D01*
X146802231Y-106371231D01*
X146440864Y-106912056D01*
X146346000Y-107388970D01*
X141785000Y-107388970D01*
X141785000Y-105007970D01*
X229690000Y-105007970D01*
X229690001Y-118830031D01*
X229784865Y-119306945D01*
X230146232Y-119847769D01*
X230176203Y-119867795D01*
X230196231Y-119897769D01*
X230737055Y-120259136D01*
X231213969Y-120354000D01*
X245036031Y-120354000D01*
X245512945Y-120259136D01*
X245573584Y-120218618D01*
X363285223Y-120218618D01*
X365125000Y-122058395D01*
X366964777Y-120218618D01*
X366719632Y-119827112D01*
X365675640Y-119400391D01*
X364547819Y-119405670D01*
X363530368Y-119827112D01*
X363285223Y-120218618D01*
X245573584Y-120218618D01*
X246053769Y-119897769D01*
X246073796Y-119867796D01*
X246103769Y-119847769D01*
X246465136Y-119306945D01*
X246560000Y-118830031D01*
X246560000Y-116449030D01*
X291603000Y-116449030D01*
X291697864Y-116925944D01*
X292059231Y-117466769D01*
X292089204Y-117486796D01*
X292109231Y-117516769D01*
X292650055Y-117878136D01*
X293126969Y-117973000D01*
X306949031Y-117973000D01*
X307425945Y-117878136D01*
X307966769Y-117516769D01*
X307986796Y-117486796D01*
X308016769Y-117466769D01*
X308378136Y-116925945D01*
X308473000Y-116449031D01*
X308473000Y-116449030D01*
X310653000Y-116449030D01*
X310747864Y-116925944D01*
X311109231Y-117466769D01*
X311139204Y-117486796D01*
X311159231Y-117516769D01*
X311700055Y-117878136D01*
X312176969Y-117973000D01*
X325999031Y-117973000D01*
X326475945Y-117878136D01*
X327016769Y-117516769D01*
X327036796Y-117486796D01*
X327066769Y-117466769D01*
X327428136Y-116925945D01*
X327523000Y-116449031D01*
X327523000Y-116449030D01*
X329703000Y-116449030D01*
X329797864Y-116925944D01*
X330159231Y-117466769D01*
X330189204Y-117486796D01*
X330209231Y-117516769D01*
X330750055Y-117878136D01*
X331226969Y-117973000D01*
X345049031Y-117973000D01*
X345525945Y-117878136D01*
X346066769Y-117516769D01*
X346086796Y-117486796D01*
X346116769Y-117466769D01*
X346478136Y-116925945D01*
X346573000Y-116449031D01*
X346573000Y-102626969D01*
X346478136Y-102150055D01*
X346116769Y-101609231D01*
X346086796Y-101589204D01*
X346066769Y-101559231D01*
X345525945Y-101197864D01*
X345049031Y-101103000D01*
X331226969Y-101103000D01*
X330750055Y-101197864D01*
X330209231Y-101559231D01*
X330189203Y-101589205D01*
X330159232Y-101609231D01*
X329797865Y-102150055D01*
X329703001Y-102626969D01*
X329703000Y-116449030D01*
X327523000Y-116449030D01*
X327523000Y-102626969D01*
X327428136Y-102150055D01*
X327066769Y-101609231D01*
X327036796Y-101589204D01*
X327016769Y-101559231D01*
X326475945Y-101197864D01*
X325999031Y-101103000D01*
X312176969Y-101103000D01*
X311700055Y-101197864D01*
X311159231Y-101559231D01*
X311139203Y-101589205D01*
X311109232Y-101609231D01*
X310747865Y-102150055D01*
X310653001Y-102626969D01*
X310653000Y-116449030D01*
X308473000Y-116449030D01*
X308473000Y-102626969D01*
X308378136Y-102150055D01*
X308016769Y-101609231D01*
X307986796Y-101589204D01*
X307966769Y-101559231D01*
X307425945Y-101197864D01*
X306949031Y-101103000D01*
X293126969Y-101103000D01*
X292650055Y-101197864D01*
X292109231Y-101559231D01*
X292089203Y-101589205D01*
X292059232Y-101609231D01*
X291697865Y-102150055D01*
X291603001Y-102626969D01*
X291603000Y-116449030D01*
X246560000Y-116449030D01*
X246560000Y-105007969D01*
X246465136Y-104531055D01*
X246103769Y-103990231D01*
X246073796Y-103970204D01*
X246053769Y-103940231D01*
X245512945Y-103578864D01*
X245036031Y-103484000D01*
X231213969Y-103484000D01*
X230737055Y-103578864D01*
X230196231Y-103940231D01*
X230176204Y-103970204D01*
X230146231Y-103990231D01*
X229784864Y-104531056D01*
X229690000Y-105007970D01*
X141785000Y-105007970D01*
X141785000Y-105007969D01*
X141690136Y-104531055D01*
X141328769Y-103990231D01*
X141298796Y-103970204D01*
X141278769Y-103940231D01*
X140737945Y-103578864D01*
X140261031Y-103484000D01*
X126438969Y-103484000D01*
X125962055Y-103578864D01*
X125421231Y-103940231D01*
X125401203Y-103970205D01*
X125371232Y-103990231D01*
X125009865Y-104531055D01*
X124915001Y-105007969D01*
X124915000Y-118830030D01*
X19760000Y-118830030D01*
X19760000Y-116449030D01*
X20140000Y-116449030D01*
X20234864Y-116925944D01*
X20596231Y-117466769D01*
X20626204Y-117486796D01*
X20646231Y-117516769D01*
X21187055Y-117878136D01*
X21663969Y-117973000D01*
X35486031Y-117973000D01*
X35962945Y-117878136D01*
X36503769Y-117516769D01*
X36523796Y-117486796D01*
X36553769Y-117466769D01*
X36915136Y-116925945D01*
X37010000Y-116449031D01*
X37010000Y-116449030D01*
X41571200Y-116449030D01*
X41666064Y-116925944D01*
X42027431Y-117466769D01*
X42057404Y-117486796D01*
X42077431Y-117516769D01*
X42618255Y-117878136D01*
X43095169Y-117973000D01*
X56917231Y-117973000D01*
X57394145Y-117878136D01*
X57934969Y-117516769D01*
X57954996Y-117486796D01*
X57984969Y-117466769D01*
X58346336Y-116925945D01*
X58441200Y-116449031D01*
X58441200Y-102626969D01*
X58346336Y-102150055D01*
X57984969Y-101609231D01*
X57954996Y-101589204D01*
X57934969Y-101559231D01*
X57394145Y-101197864D01*
X56917231Y-101103000D01*
X43095169Y-101103000D01*
X42618255Y-101197864D01*
X42077431Y-101559231D01*
X42057403Y-101589205D01*
X42027432Y-101609231D01*
X41666065Y-102150055D01*
X41571201Y-102626969D01*
X41571200Y-116449030D01*
X37010000Y-116449030D01*
X37010000Y-102626969D01*
X36915136Y-102150055D01*
X36553769Y-101609231D01*
X36523796Y-101589204D01*
X36503769Y-101559231D01*
X35962945Y-101197864D01*
X35486031Y-101103000D01*
X21663969Y-101103000D01*
X21187055Y-101197864D01*
X20646231Y-101559231D01*
X20626203Y-101589205D01*
X20596232Y-101609231D01*
X20234865Y-102150055D01*
X20140001Y-102626969D01*
X20140000Y-116449030D01*
X19760000Y-116449030D01*
X19760000Y-83576470D01*
X23046200Y-83576470D01*
X23046201Y-97398531D01*
X23141065Y-97875445D01*
X23502432Y-98416269D01*
X23532403Y-98436295D01*
X23552431Y-98466269D01*
X24093255Y-98827636D01*
X24570169Y-98922500D01*
X56392231Y-98922500D01*
X56869145Y-98827636D01*
X57409969Y-98466269D01*
X57429996Y-98436296D01*
X57459969Y-98416269D01*
X57821336Y-97875445D01*
X57916200Y-97398531D01*
X57916200Y-97398530D01*
X63002500Y-97398530D01*
X63097364Y-97875444D01*
X63458731Y-98416269D01*
X63488704Y-98436296D01*
X63508731Y-98466269D01*
X64049555Y-98827636D01*
X64526469Y-98922500D01*
X78348531Y-98922500D01*
X78825445Y-98827636D01*
X79366269Y-98466269D01*
X79386296Y-98436296D01*
X79416269Y-98416269D01*
X79777636Y-97875445D01*
X79872500Y-97398531D01*
X79872500Y-97398530D01*
X82052500Y-97398530D01*
X82147364Y-97875444D01*
X82508731Y-98416269D01*
X82538704Y-98436296D01*
X82558731Y-98466269D01*
X83099555Y-98827636D01*
X83576469Y-98922500D01*
X97398531Y-98922500D01*
X97875445Y-98827636D01*
X98416269Y-98466269D01*
X98436296Y-98436296D01*
X98466269Y-98416269D01*
X98827636Y-97875445D01*
X98922500Y-97398531D01*
X98922500Y-97398530D01*
X101103000Y-97398530D01*
X101197864Y-97875444D01*
X101559231Y-98416269D01*
X101589204Y-98436296D01*
X101609231Y-98466269D01*
X102150055Y-98827636D01*
X102626969Y-98922500D01*
X116449031Y-98922500D01*
X116925945Y-98827636D01*
X117466769Y-98466269D01*
X117486796Y-98436296D01*
X117516769Y-98416269D01*
X117878136Y-97875445D01*
X117973000Y-97398531D01*
X117973000Y-97398530D01*
X120153000Y-97398530D01*
X120247864Y-97875444D01*
X120609231Y-98416269D01*
X120639204Y-98436296D01*
X120659231Y-98466269D01*
X121200055Y-98827636D01*
X121676969Y-98922500D01*
X135499031Y-98922500D01*
X135975945Y-98827636D01*
X136516769Y-98466269D01*
X136536796Y-98436296D01*
X136566769Y-98416269D01*
X136928136Y-97875445D01*
X137023000Y-97398531D01*
X137023000Y-97398530D01*
X139203000Y-97398530D01*
X139297864Y-97875444D01*
X139659231Y-98416269D01*
X139689204Y-98436296D01*
X139709231Y-98466269D01*
X140250055Y-98827636D01*
X140726969Y-98922500D01*
X154549031Y-98922500D01*
X155025945Y-98827636D01*
X155566769Y-98466269D01*
X155586796Y-98436296D01*
X155616769Y-98416269D01*
X155978136Y-97875445D01*
X156073000Y-97398531D01*
X156073000Y-97398530D01*
X158253000Y-97398530D01*
X158347864Y-97875444D01*
X158709231Y-98416269D01*
X158739204Y-98436296D01*
X158759231Y-98466269D01*
X159300055Y-98827636D01*
X159776969Y-98922500D01*
X173599031Y-98922500D01*
X174075945Y-98827636D01*
X174616769Y-98466269D01*
X174636796Y-98436296D01*
X174666769Y-98416269D01*
X175028136Y-97875445D01*
X175123000Y-97398531D01*
X175123000Y-97398530D01*
X177303000Y-97398530D01*
X177397864Y-97875444D01*
X177759231Y-98416269D01*
X177789204Y-98436296D01*
X177809231Y-98466269D01*
X178350055Y-98827636D01*
X178826969Y-98922500D01*
X192649031Y-98922500D01*
X193125945Y-98827636D01*
X193666769Y-98466269D01*
X193686796Y-98436296D01*
X193716769Y-98416269D01*
X194078136Y-97875445D01*
X194173000Y-97398531D01*
X194173000Y-97398530D01*
X196353000Y-97398530D01*
X196447864Y-97875444D01*
X196809231Y-98416269D01*
X196839204Y-98436296D01*
X196859231Y-98466269D01*
X197400055Y-98827636D01*
X197876969Y-98922500D01*
X211699031Y-98922500D01*
X212175945Y-98827636D01*
X212716769Y-98466269D01*
X212736796Y-98436296D01*
X212766769Y-98416269D01*
X213128136Y-97875445D01*
X213223000Y-97398531D01*
X213223000Y-97398530D01*
X215403000Y-97398530D01*
X215497864Y-97875444D01*
X215859231Y-98416269D01*
X215889204Y-98436296D01*
X215909231Y-98466269D01*
X216450055Y-98827636D01*
X216926969Y-98922500D01*
X230749031Y-98922500D01*
X231225945Y-98827636D01*
X231766769Y-98466269D01*
X231786796Y-98436296D01*
X231816769Y-98416269D01*
X232178136Y-97875445D01*
X232273000Y-97398531D01*
X232273000Y-97398530D01*
X234453000Y-97398530D01*
X234547864Y-97875444D01*
X234909231Y-98416269D01*
X234939204Y-98436296D01*
X234959231Y-98466269D01*
X235500055Y-98827636D01*
X235976969Y-98922500D01*
X249799031Y-98922500D01*
X250275945Y-98827636D01*
X250816769Y-98466269D01*
X250836796Y-98436296D01*
X250866769Y-98416269D01*
X251228136Y-97875445D01*
X251323000Y-97398531D01*
X251323000Y-97398530D01*
X253503000Y-97398530D01*
X253597864Y-97875444D01*
X253959231Y-98416269D01*
X253989204Y-98436296D01*
X254009231Y-98466269D01*
X254550055Y-98827636D01*
X255026969Y-98922500D01*
X268849031Y-98922500D01*
X269325945Y-98827636D01*
X269866769Y-98466269D01*
X269886796Y-98436296D01*
X269916769Y-98416269D01*
X270278136Y-97875445D01*
X270373000Y-97398531D01*
X270373000Y-97398530D01*
X272553000Y-97398530D01*
X272647864Y-97875444D01*
X273009231Y-98416269D01*
X273039204Y-98436296D01*
X273059231Y-98466269D01*
X273600055Y-98827636D01*
X274076969Y-98922500D01*
X287899031Y-98922500D01*
X288375945Y-98827636D01*
X288916769Y-98466269D01*
X288936796Y-98436296D01*
X288966769Y-98416269D01*
X289328136Y-97875445D01*
X289423000Y-97398531D01*
X289423000Y-97398530D01*
X291603000Y-97398530D01*
X291697864Y-97875444D01*
X292059231Y-98416269D01*
X292089204Y-98436296D01*
X292109231Y-98466269D01*
X292650055Y-98827636D01*
X293126969Y-98922500D01*
X306949031Y-98922500D01*
X307425945Y-98827636D01*
X307966769Y-98466269D01*
X307986796Y-98436296D01*
X308016769Y-98416269D01*
X308378136Y-97875445D01*
X308473000Y-97398531D01*
X308473000Y-97398530D01*
X310653000Y-97398530D01*
X310747864Y-97875444D01*
X311109231Y-98416269D01*
X311139204Y-98436296D01*
X311159231Y-98466269D01*
X311700055Y-98827636D01*
X312176969Y-98922500D01*
X325999031Y-98922500D01*
X326475945Y-98827636D01*
X327016769Y-98466269D01*
X327036796Y-98436296D01*
X327066769Y-98416269D01*
X327428136Y-97875445D01*
X327523000Y-97398531D01*
X327523000Y-83576469D01*
X327428136Y-83099555D01*
X327066769Y-82558731D01*
X327036796Y-82538704D01*
X327016769Y-82508731D01*
X326475945Y-82147364D01*
X325999031Y-82052500D01*
X312176969Y-82052500D01*
X311700055Y-82147364D01*
X311159231Y-82508731D01*
X311139203Y-82538705D01*
X311109232Y-82558731D01*
X310747865Y-83099555D01*
X310653001Y-83576469D01*
X310653000Y-97398530D01*
X308473000Y-97398530D01*
X308473000Y-83576469D01*
X308378136Y-83099555D01*
X308016769Y-82558731D01*
X307986796Y-82538704D01*
X307966769Y-82508731D01*
X307425945Y-82147364D01*
X306949031Y-82052500D01*
X293126969Y-82052500D01*
X292650055Y-82147364D01*
X292109231Y-82508731D01*
X292089203Y-82538705D01*
X292059232Y-82558731D01*
X291697865Y-83099555D01*
X291603001Y-83576469D01*
X291603000Y-97398530D01*
X289423000Y-97398530D01*
X289423000Y-83576469D01*
X289328136Y-83099555D01*
X288966769Y-82558731D01*
X288936796Y-82538704D01*
X288916769Y-82508731D01*
X288375945Y-82147364D01*
X287899031Y-82052500D01*
X274076969Y-82052500D01*
X273600055Y-82147364D01*
X273059231Y-82508731D01*
X273039203Y-82538705D01*
X273009232Y-82558731D01*
X272647865Y-83099555D01*
X272553001Y-83576469D01*
X272553000Y-97398530D01*
X270373000Y-97398530D01*
X270373000Y-83576469D01*
X270278136Y-83099555D01*
X269916769Y-82558731D01*
X269886796Y-82538704D01*
X269866769Y-82508731D01*
X269325945Y-82147364D01*
X268849031Y-82052500D01*
X255026969Y-82052500D01*
X254550055Y-82147364D01*
X254009231Y-82508731D01*
X253989203Y-82538705D01*
X253959232Y-82558731D01*
X253597865Y-83099555D01*
X253503001Y-83576469D01*
X253503000Y-97398530D01*
X251323000Y-97398530D01*
X251323000Y-83576469D01*
X251228136Y-83099555D01*
X250866769Y-82558731D01*
X250836796Y-82538704D01*
X250816769Y-82508731D01*
X250275945Y-82147364D01*
X249799031Y-82052500D01*
X235976969Y-82052500D01*
X235500055Y-82147364D01*
X234959231Y-82508731D01*
X234939203Y-82538705D01*
X234909232Y-82558731D01*
X234547865Y-83099555D01*
X234453001Y-83576469D01*
X234453000Y-97398530D01*
X232273000Y-97398530D01*
X232273000Y-83576469D01*
X232178136Y-83099555D01*
X231816769Y-82558731D01*
X231786796Y-82538704D01*
X231766769Y-82508731D01*
X231225945Y-82147364D01*
X230749031Y-82052500D01*
X216926969Y-82052500D01*
X216450055Y-82147364D01*
X215909231Y-82508731D01*
X215889203Y-82538705D01*
X215859232Y-82558731D01*
X215497865Y-83099555D01*
X215403001Y-83576469D01*
X215403000Y-97398530D01*
X213223000Y-97398530D01*
X213223000Y-83576469D01*
X213128136Y-83099555D01*
X212766769Y-82558731D01*
X212736796Y-82538704D01*
X212716769Y-82508731D01*
X212175945Y-82147364D01*
X211699031Y-82052500D01*
X197876969Y-82052500D01*
X197400055Y-82147364D01*
X196859231Y-82508731D01*
X196839203Y-82538705D01*
X196809232Y-82558731D01*
X196447865Y-83099555D01*
X196353001Y-83576469D01*
X196353000Y-97398530D01*
X194173000Y-97398530D01*
X194173000Y-83576469D01*
X194078136Y-83099555D01*
X193716769Y-82558731D01*
X193686796Y-82538704D01*
X193666769Y-82508731D01*
X193125945Y-82147364D01*
X192649031Y-82052500D01*
X178826969Y-82052500D01*
X178350055Y-82147364D01*
X177809231Y-82508731D01*
X177789203Y-82538705D01*
X177759232Y-82558731D01*
X177397865Y-83099555D01*
X177303001Y-83576469D01*
X177303000Y-97398530D01*
X175123000Y-97398530D01*
X175123000Y-83576469D01*
X175028136Y-83099555D01*
X174666769Y-82558731D01*
X174636796Y-82538704D01*
X174616769Y-82508731D01*
X174075945Y-82147364D01*
X173599031Y-82052500D01*
X159776969Y-82052500D01*
X159300055Y-82147364D01*
X158759231Y-82508731D01*
X158739203Y-82538705D01*
X158709232Y-82558731D01*
X158347865Y-83099555D01*
X158253001Y-83576469D01*
X158253000Y-97398530D01*
X156073000Y-97398530D01*
X156073000Y-83576469D01*
X155978136Y-83099555D01*
X155616769Y-82558731D01*
X155586796Y-82538704D01*
X155566769Y-82508731D01*
X155025945Y-82147364D01*
X154549031Y-82052500D01*
X140726969Y-82052500D01*
X140250055Y-82147364D01*
X139709231Y-82508731D01*
X139689203Y-82538705D01*
X139659232Y-82558731D01*
X139297865Y-83099555D01*
X139203001Y-83576469D01*
X139203000Y-97398530D01*
X137023000Y-97398530D01*
X137023000Y-83576469D01*
X136928136Y-83099555D01*
X136566769Y-82558731D01*
X136536796Y-82538704D01*
X136516769Y-82508731D01*
X135975945Y-82147364D01*
X135499031Y-82052500D01*
X121676969Y-82052500D01*
X121200055Y-82147364D01*
X120659231Y-82508731D01*
X120639203Y-82538705D01*
X120609232Y-82558731D01*
X120247865Y-83099555D01*
X120153001Y-83576469D01*
X120153000Y-97398530D01*
X117973000Y-97398530D01*
X117973000Y-83576469D01*
X117878136Y-83099555D01*
X117516769Y-82558731D01*
X117486796Y-82538704D01*
X117466769Y-82508731D01*
X116925945Y-82147364D01*
X116449031Y-82052500D01*
X102626969Y-82052500D01*
X102150055Y-82147364D01*
X101609231Y-82508731D01*
X101589203Y-82538705D01*
X101559232Y-82558731D01*
X101197865Y-83099555D01*
X101103001Y-83576469D01*
X101103000Y-97398530D01*
X98922500Y-97398530D01*
X98922500Y-83576469D01*
X98827636Y-83099555D01*
X98466269Y-82558731D01*
X98436296Y-82538704D01*
X98416269Y-82508731D01*
X97875445Y-82147364D01*
X97398531Y-82052500D01*
X83576469Y-82052500D01*
X83099555Y-82147364D01*
X82558731Y-82508731D01*
X82538703Y-82538705D01*
X82508732Y-82558731D01*
X82147365Y-83099555D01*
X82052501Y-83576469D01*
X82052500Y-97398530D01*
X79872500Y-97398530D01*
X79872500Y-83576469D01*
X79777636Y-83099555D01*
X79416269Y-82558731D01*
X79386296Y-82538704D01*
X79366269Y-82508731D01*
X78825445Y-82147364D01*
X78348531Y-82052500D01*
X64526469Y-82052500D01*
X64049555Y-82147364D01*
X63508731Y-82508731D01*
X63488703Y-82538705D01*
X63458732Y-82558731D01*
X63097365Y-83099555D01*
X63002501Y-83576469D01*
X63002500Y-97398530D01*
X57916200Y-97398530D01*
X57916200Y-83576469D01*
X57821336Y-83099555D01*
X57459969Y-82558731D01*
X56919144Y-82197364D01*
X56740919Y-82161913D01*
X56719145Y-82147364D01*
X56242231Y-82052500D01*
X55356486Y-82052500D01*
X55059969Y-81608731D01*
X54519144Y-81247364D01*
X53881200Y-81120469D01*
X53720169Y-81152500D01*
X51142231Y-81152500D01*
X50981200Y-81120469D01*
X50343255Y-81247364D01*
X49802431Y-81608731D01*
X49505915Y-82052500D01*
X31456486Y-82052500D01*
X31159969Y-81608731D01*
X30619144Y-81247364D01*
X29981200Y-81120469D01*
X29820169Y-81152500D01*
X27242231Y-81152500D01*
X27081200Y-81120469D01*
X26443255Y-81247364D01*
X25902431Y-81608731D01*
X25605915Y-82052500D01*
X24720169Y-82052500D01*
X24243255Y-82147364D01*
X24221481Y-82161913D01*
X24043255Y-82197364D01*
X23502431Y-82558731D01*
X23141064Y-83099556D01*
X23046200Y-83576470D01*
X19760000Y-83576470D01*
X19760000Y-78348530D01*
X41571200Y-78348530D01*
X41666064Y-78825444D01*
X42027431Y-79366269D01*
X42057404Y-79386296D01*
X42077431Y-79416269D01*
X42618255Y-79777636D01*
X43095169Y-79872500D01*
X56917231Y-79872500D01*
X57394145Y-79777636D01*
X57934969Y-79416269D01*
X57954996Y-79386296D01*
X57984969Y-79366269D01*
X58346336Y-78825445D01*
X58441200Y-78348531D01*
X58441200Y-78348530D01*
X67765000Y-78348530D01*
X67859864Y-78825444D01*
X68221231Y-79366269D01*
X68251204Y-79386296D01*
X68271231Y-79416269D01*
X68812055Y-79777636D01*
X69288969Y-79872500D01*
X83111031Y-79872500D01*
X83587945Y-79777636D01*
X84128769Y-79416269D01*
X84148796Y-79386296D01*
X84178769Y-79366269D01*
X84540136Y-78825445D01*
X84635000Y-78348531D01*
X84635000Y-78348530D01*
X86815000Y-78348530D01*
X86909864Y-78825444D01*
X87271231Y-79366269D01*
X87301204Y-79386296D01*
X87321231Y-79416269D01*
X87862055Y-79777636D01*
X88338969Y-79872500D01*
X102161031Y-79872500D01*
X102637945Y-79777636D01*
X103178769Y-79416269D01*
X103198796Y-79386296D01*
X103228769Y-79366269D01*
X103590136Y-78825445D01*
X103685000Y-78348531D01*
X103685000Y-78348530D01*
X105865000Y-78348530D01*
X105959864Y-78825444D01*
X106321231Y-79366269D01*
X106351204Y-79386296D01*
X106371231Y-79416269D01*
X106912055Y-79777636D01*
X107388969Y-79872500D01*
X121211031Y-79872500D01*
X121687945Y-79777636D01*
X122228769Y-79416269D01*
X122248796Y-79386296D01*
X122278769Y-79366269D01*
X122640136Y-78825445D01*
X122735000Y-78348531D01*
X122735000Y-78348530D01*
X124915000Y-78348530D01*
X125009864Y-78825444D01*
X125371231Y-79366269D01*
X125401204Y-79386296D01*
X125421231Y-79416269D01*
X125962055Y-79777636D01*
X126438969Y-79872500D01*
X140261031Y-79872500D01*
X140737945Y-79777636D01*
X141278769Y-79416269D01*
X141298796Y-79386296D01*
X141328769Y-79366269D01*
X141690136Y-78825445D01*
X141785000Y-78348531D01*
X141785000Y-78348530D01*
X143965000Y-78348530D01*
X144059864Y-78825444D01*
X144421231Y-79366269D01*
X144451204Y-79386296D01*
X144471231Y-79416269D01*
X145012055Y-79777636D01*
X145488969Y-79872500D01*
X159311031Y-79872500D01*
X159787945Y-79777636D01*
X160328769Y-79416269D01*
X160348796Y-79386296D01*
X160378769Y-79366269D01*
X160740136Y-78825445D01*
X160835000Y-78348531D01*
X160835000Y-78348530D01*
X163015000Y-78348530D01*
X163109864Y-78825444D01*
X163471231Y-79366269D01*
X163501204Y-79386296D01*
X163521231Y-79416269D01*
X164062055Y-79777636D01*
X164538969Y-79872500D01*
X178361031Y-79872500D01*
X178837945Y-79777636D01*
X179378769Y-79416269D01*
X179398796Y-79386296D01*
X179428769Y-79366269D01*
X179790136Y-78825445D01*
X179885000Y-78348531D01*
X179885000Y-78348530D01*
X191590000Y-78348530D01*
X191684864Y-78825444D01*
X192046231Y-79366269D01*
X192076204Y-79386296D01*
X192096231Y-79416269D01*
X192637055Y-79777636D01*
X193113969Y-79872500D01*
X206936031Y-79872500D01*
X207412945Y-79777636D01*
X207953769Y-79416269D01*
X207973796Y-79386296D01*
X208003769Y-79366269D01*
X208365136Y-78825445D01*
X208460000Y-78348531D01*
X208460000Y-78348530D01*
X210640000Y-78348530D01*
X210734864Y-78825444D01*
X211096231Y-79366269D01*
X211126204Y-79386296D01*
X211146231Y-79416269D01*
X211687055Y-79777636D01*
X212163969Y-79872500D01*
X225986031Y-79872500D01*
X226462945Y-79777636D01*
X227003769Y-79416269D01*
X227023796Y-79386296D01*
X227053769Y-79366269D01*
X227415136Y-78825445D01*
X227510000Y-78348531D01*
X227510000Y-78348530D01*
X229690000Y-78348530D01*
X229784864Y-78825444D01*
X230146231Y-79366269D01*
X230176204Y-79386296D01*
X230196231Y-79416269D01*
X230737055Y-79777636D01*
X231213969Y-79872500D01*
X245036031Y-79872500D01*
X245512945Y-79777636D01*
X246053769Y-79416269D01*
X246073796Y-79386296D01*
X246103769Y-79366269D01*
X246465136Y-78825445D01*
X246560000Y-78348531D01*
X246560000Y-78348530D01*
X248740000Y-78348530D01*
X248834864Y-78825444D01*
X249196231Y-79366269D01*
X249226204Y-79386296D01*
X249246231Y-79416269D01*
X249787055Y-79777636D01*
X250263969Y-79872500D01*
X264086031Y-79872500D01*
X264562945Y-79777636D01*
X265103769Y-79416269D01*
X265123796Y-79386296D01*
X265153769Y-79366269D01*
X265515136Y-78825445D01*
X265610000Y-78348531D01*
X265610000Y-78348530D01*
X267790000Y-78348530D01*
X267884864Y-78825444D01*
X268246231Y-79366269D01*
X268276204Y-79386296D01*
X268296231Y-79416269D01*
X268837055Y-79777636D01*
X269313969Y-79872500D01*
X283136031Y-79872500D01*
X283612945Y-79777636D01*
X284153769Y-79416269D01*
X284173796Y-79386296D01*
X284203769Y-79366269D01*
X284565136Y-78825445D01*
X284660000Y-78348531D01*
X284660000Y-78348530D01*
X286840000Y-78348530D01*
X286934864Y-78825444D01*
X287296231Y-79366269D01*
X287326204Y-79386296D01*
X287346231Y-79416269D01*
X287887055Y-79777636D01*
X288363969Y-79872500D01*
X302186031Y-79872500D01*
X302662945Y-79777636D01*
X303203769Y-79416269D01*
X303223796Y-79386296D01*
X303253769Y-79366269D01*
X303615136Y-78825445D01*
X303710000Y-78348531D01*
X303710000Y-64526470D01*
X308796000Y-64526470D01*
X308796001Y-78348531D01*
X308890865Y-78825445D01*
X309252232Y-79366269D01*
X309282203Y-79386295D01*
X309302231Y-79416269D01*
X309843055Y-79777636D01*
X310319969Y-79872500D01*
X342142031Y-79872500D01*
X342618945Y-79777636D01*
X343159769Y-79416269D01*
X343179796Y-79386296D01*
X343209769Y-79366269D01*
X343571136Y-78825445D01*
X343666000Y-78348531D01*
X343666000Y-64526469D01*
X343571136Y-64049555D01*
X343209769Y-63508731D01*
X342668944Y-63147364D01*
X342490719Y-63111913D01*
X342468945Y-63097364D01*
X341992031Y-63002500D01*
X341106286Y-63002500D01*
X340809769Y-62558731D01*
X340268944Y-62197364D01*
X339631000Y-62070469D01*
X339469969Y-62102500D01*
X336892031Y-62102500D01*
X336731000Y-62070469D01*
X336093055Y-62197364D01*
X335552231Y-62558731D01*
X335255715Y-63002500D01*
X317206286Y-63002500D01*
X316909769Y-62558731D01*
X316368944Y-62197364D01*
X315731000Y-62070469D01*
X315569969Y-62102500D01*
X312992031Y-62102500D01*
X312831000Y-62070469D01*
X312193055Y-62197364D01*
X311652231Y-62558731D01*
X311355715Y-63002500D01*
X310469969Y-63002500D01*
X309993055Y-63097364D01*
X309971281Y-63111913D01*
X309793055Y-63147364D01*
X309252231Y-63508731D01*
X308890864Y-64049556D01*
X308796000Y-64526470D01*
X303710000Y-64526470D01*
X303710000Y-64526469D01*
X303615136Y-64049555D01*
X303253769Y-63508731D01*
X303223796Y-63488704D01*
X303203769Y-63458731D01*
X302662945Y-63097364D01*
X302186031Y-63002500D01*
X288363969Y-63002500D01*
X287887055Y-63097364D01*
X287346231Y-63458731D01*
X287326203Y-63488705D01*
X287296232Y-63508731D01*
X286934865Y-64049555D01*
X286840001Y-64526469D01*
X286840000Y-78348530D01*
X284660000Y-78348530D01*
X284660000Y-64526469D01*
X284565136Y-64049555D01*
X284203769Y-63508731D01*
X284173796Y-63488704D01*
X284153769Y-63458731D01*
X283612945Y-63097364D01*
X283136031Y-63002500D01*
X269313969Y-63002500D01*
X268837055Y-63097364D01*
X268296231Y-63458731D01*
X268276203Y-63488705D01*
X268246232Y-63508731D01*
X267884865Y-64049555D01*
X267790001Y-64526469D01*
X267790000Y-78348530D01*
X265610000Y-78348530D01*
X265610000Y-64526469D01*
X265515136Y-64049555D01*
X265153769Y-63508731D01*
X265123796Y-63488704D01*
X265103769Y-63458731D01*
X264562945Y-63097364D01*
X264086031Y-63002500D01*
X250263969Y-63002500D01*
X249787055Y-63097364D01*
X249246231Y-63458731D01*
X249226203Y-63488705D01*
X249196232Y-63508731D01*
X248834865Y-64049555D01*
X248740001Y-64526469D01*
X248740000Y-78348530D01*
X246560000Y-78348530D01*
X246560000Y-64526469D01*
X246465136Y-64049555D01*
X246103769Y-63508731D01*
X246073796Y-63488704D01*
X246053769Y-63458731D01*
X245512945Y-63097364D01*
X245036031Y-63002500D01*
X231213969Y-63002500D01*
X230737055Y-63097364D01*
X230196231Y-63458731D01*
X230176203Y-63488705D01*
X230146232Y-63508731D01*
X229784865Y-64049555D01*
X229690001Y-64526469D01*
X229690000Y-78348530D01*
X227510000Y-78348530D01*
X227510000Y-64526469D01*
X227415136Y-64049555D01*
X227053769Y-63508731D01*
X227023796Y-63488704D01*
X227003769Y-63458731D01*
X226462945Y-63097364D01*
X225986031Y-63002500D01*
X212163969Y-63002500D01*
X211687055Y-63097364D01*
X211146231Y-63458731D01*
X211126203Y-63488705D01*
X211096232Y-63508731D01*
X210734865Y-64049555D01*
X210640001Y-64526469D01*
X210640000Y-78348530D01*
X208460000Y-78348530D01*
X208460000Y-64526469D01*
X208365136Y-64049555D01*
X208003769Y-63508731D01*
X207973796Y-63488704D01*
X207953769Y-63458731D01*
X207412945Y-63097364D01*
X206936031Y-63002500D01*
X193113969Y-63002500D01*
X192637055Y-63097364D01*
X192096231Y-63458731D01*
X192076203Y-63488705D01*
X192046232Y-63508731D01*
X191684865Y-64049555D01*
X191590001Y-64526469D01*
X191590000Y-78348530D01*
X179885000Y-78348530D01*
X179885000Y-67932382D01*
X183770223Y-67932382D01*
X184015368Y-68323888D01*
X185059360Y-68750609D01*
X186187181Y-68745330D01*
X187204632Y-68323888D01*
X187449777Y-67932382D01*
X185610000Y-66092605D01*
X183770223Y-67932382D01*
X179885000Y-67932382D01*
X179885000Y-65362360D01*
X182772391Y-65362360D01*
X182777670Y-66490181D01*
X183199112Y-67507632D01*
X183590618Y-67752777D01*
X185430395Y-65913000D01*
X185789605Y-65913000D01*
X187629382Y-67752777D01*
X188020888Y-67507632D01*
X188447609Y-66463640D01*
X188442330Y-65335819D01*
X188020888Y-64318368D01*
X187629382Y-64073223D01*
X185789605Y-65913000D01*
X185430395Y-65913000D01*
X183590618Y-64073223D01*
X183199112Y-64318368D01*
X182772391Y-65362360D01*
X179885000Y-65362360D01*
X179885000Y-64526469D01*
X179790136Y-64049555D01*
X179685943Y-63893618D01*
X183770223Y-63893618D01*
X185610000Y-65733395D01*
X187449777Y-63893618D01*
X187204632Y-63502112D01*
X186160640Y-63075391D01*
X185032819Y-63080670D01*
X184015368Y-63502112D01*
X183770223Y-63893618D01*
X179685943Y-63893618D01*
X179428769Y-63508731D01*
X179398796Y-63488704D01*
X179378769Y-63458731D01*
X178837945Y-63097364D01*
X178361031Y-63002500D01*
X164538969Y-63002500D01*
X164062055Y-63097364D01*
X163521231Y-63458731D01*
X163501203Y-63488705D01*
X163471232Y-63508731D01*
X163109865Y-64049555D01*
X163015001Y-64526469D01*
X163015000Y-78348530D01*
X160835000Y-78348530D01*
X160835000Y-64526469D01*
X160740136Y-64049555D01*
X160378769Y-63508731D01*
X160348796Y-63488704D01*
X160328769Y-63458731D01*
X159787945Y-63097364D01*
X159311031Y-63002500D01*
X145488969Y-63002500D01*
X145012055Y-63097364D01*
X144471231Y-63458731D01*
X144451203Y-63488705D01*
X144421232Y-63508731D01*
X144059865Y-64049555D01*
X143965001Y-64526469D01*
X143965000Y-78348530D01*
X141785000Y-78348530D01*
X141785000Y-64526469D01*
X141690136Y-64049555D01*
X141328769Y-63508731D01*
X141298796Y-63488704D01*
X141278769Y-63458731D01*
X140737945Y-63097364D01*
X140261031Y-63002500D01*
X126438969Y-63002500D01*
X125962055Y-63097364D01*
X125421231Y-63458731D01*
X125401203Y-63488705D01*
X125371232Y-63508731D01*
X125009865Y-64049555D01*
X124915001Y-64526469D01*
X124915000Y-78348530D01*
X122735000Y-78348530D01*
X122735000Y-64526469D01*
X122640136Y-64049555D01*
X122278769Y-63508731D01*
X122248796Y-63488704D01*
X122228769Y-63458731D01*
X121687945Y-63097364D01*
X121211031Y-63002500D01*
X107388969Y-63002500D01*
X106912055Y-63097364D01*
X106371231Y-63458731D01*
X106351203Y-63488705D01*
X106321232Y-63508731D01*
X105959865Y-64049555D01*
X105865001Y-64526469D01*
X105865000Y-78348530D01*
X103685000Y-78348530D01*
X103685000Y-64526469D01*
X103590136Y-64049555D01*
X103228769Y-63508731D01*
X103198796Y-63488704D01*
X103178769Y-63458731D01*
X102637945Y-63097364D01*
X102161031Y-63002500D01*
X88338969Y-63002500D01*
X87862055Y-63097364D01*
X87321231Y-63458731D01*
X87301203Y-63488705D01*
X87271232Y-63508731D01*
X86909865Y-64049555D01*
X86815001Y-64526469D01*
X86815000Y-78348530D01*
X84635000Y-78348530D01*
X84635000Y-64526469D01*
X84540136Y-64049555D01*
X84178769Y-63508731D01*
X84148796Y-63488704D01*
X84128769Y-63458731D01*
X83587945Y-63097364D01*
X83111031Y-63002500D01*
X69288969Y-63002500D01*
X68812055Y-63097364D01*
X68271231Y-63458731D01*
X68251203Y-63488705D01*
X68221232Y-63508731D01*
X67859865Y-64049555D01*
X67765001Y-64526469D01*
X67765000Y-78348530D01*
X58441200Y-78348530D01*
X58441200Y-64526469D01*
X58346336Y-64049555D01*
X57984969Y-63508731D01*
X57954996Y-63488704D01*
X57934969Y-63458731D01*
X57394145Y-63097364D01*
X56917231Y-63002500D01*
X43095169Y-63002500D01*
X42618255Y-63097364D01*
X42077431Y-63458731D01*
X42057403Y-63488705D01*
X42027432Y-63508731D01*
X41666065Y-64049555D01*
X41571201Y-64526469D01*
X41571200Y-78348530D01*
X19760000Y-78348530D01*
X19760000Y-59298530D01*
X24902500Y-59298530D01*
X24997364Y-59775444D01*
X25358731Y-60316269D01*
X25388704Y-60336296D01*
X25408731Y-60366269D01*
X25949555Y-60727636D01*
X26426469Y-60822500D01*
X40248531Y-60822500D01*
X40725445Y-60727636D01*
X41266269Y-60366269D01*
X41286296Y-60336296D01*
X41316269Y-60316269D01*
X41677636Y-59775445D01*
X41772500Y-59298531D01*
X41772500Y-59298530D01*
X48715000Y-59298530D01*
X48809864Y-59775444D01*
X49171231Y-60316269D01*
X49201204Y-60336296D01*
X49221231Y-60366269D01*
X49762055Y-60727636D01*
X50238969Y-60822500D01*
X64061031Y-60822500D01*
X64537945Y-60727636D01*
X65078769Y-60366269D01*
X65098796Y-60336296D01*
X65128769Y-60316269D01*
X65490136Y-59775445D01*
X65585000Y-59298531D01*
X65585000Y-59298530D01*
X72527500Y-59298530D01*
X72622364Y-59775444D01*
X72983731Y-60316269D01*
X73013704Y-60336296D01*
X73033731Y-60366269D01*
X73574555Y-60727636D01*
X74051469Y-60822500D01*
X87873531Y-60822500D01*
X88350445Y-60727636D01*
X88891269Y-60366269D01*
X88911296Y-60336296D01*
X88941269Y-60316269D01*
X89302636Y-59775445D01*
X89397500Y-59298531D01*
X89397500Y-59298530D01*
X91577000Y-59298530D01*
X91671864Y-59775444D01*
X92033231Y-60316269D01*
X92063204Y-60336296D01*
X92083231Y-60366269D01*
X92624055Y-60727636D01*
X93100969Y-60822500D01*
X106923031Y-60822500D01*
X107399945Y-60727636D01*
X107940769Y-60366269D01*
X107960796Y-60336296D01*
X107990769Y-60316269D01*
X108352136Y-59775445D01*
X108447000Y-59298531D01*
X108447000Y-59298530D01*
X110627000Y-59298530D01*
X110721864Y-59775444D01*
X111083231Y-60316269D01*
X111113204Y-60336296D01*
X111133231Y-60366269D01*
X111674055Y-60727636D01*
X112150969Y-60822500D01*
X125973031Y-60822500D01*
X126449945Y-60727636D01*
X126990769Y-60366269D01*
X127010796Y-60336296D01*
X127040769Y-60316269D01*
X127402136Y-59775445D01*
X127497000Y-59298531D01*
X127497000Y-59298530D01*
X129677000Y-59298530D01*
X129771864Y-59775444D01*
X130133231Y-60316269D01*
X130163204Y-60336296D01*
X130183231Y-60366269D01*
X130724055Y-60727636D01*
X131200969Y-60822500D01*
X145023031Y-60822500D01*
X145499945Y-60727636D01*
X146040769Y-60366269D01*
X146060796Y-60336296D01*
X146090769Y-60316269D01*
X146452136Y-59775445D01*
X146547000Y-59298531D01*
X146547000Y-59298530D01*
X148727000Y-59298530D01*
X148821864Y-59775444D01*
X149183231Y-60316269D01*
X149213204Y-60336296D01*
X149233231Y-60366269D01*
X149774055Y-60727636D01*
X150250969Y-60822500D01*
X164073031Y-60822500D01*
X164549945Y-60727636D01*
X165090769Y-60366269D01*
X165110796Y-60336296D01*
X165140769Y-60316269D01*
X165502136Y-59775445D01*
X165597000Y-59298531D01*
X165597000Y-59298530D01*
X167777000Y-59298530D01*
X167871864Y-59775444D01*
X168233231Y-60316269D01*
X168263204Y-60336296D01*
X168283231Y-60366269D01*
X168824055Y-60727636D01*
X169300969Y-60822500D01*
X183123031Y-60822500D01*
X183599945Y-60727636D01*
X184140769Y-60366269D01*
X184160796Y-60336296D01*
X184190769Y-60316269D01*
X184552136Y-59775445D01*
X184647000Y-59298531D01*
X184647000Y-59298530D01*
X186827000Y-59298530D01*
X186921864Y-59775444D01*
X187283231Y-60316269D01*
X187313204Y-60336296D01*
X187333231Y-60366269D01*
X187874055Y-60727636D01*
X188350969Y-60822500D01*
X202173031Y-60822500D01*
X202649945Y-60727636D01*
X203190769Y-60366269D01*
X203210796Y-60336296D01*
X203240769Y-60316269D01*
X203602136Y-59775445D01*
X203697000Y-59298531D01*
X203697000Y-59298530D01*
X205877000Y-59298530D01*
X205971864Y-59775444D01*
X206333231Y-60316269D01*
X206363204Y-60336296D01*
X206383231Y-60366269D01*
X206924055Y-60727636D01*
X207400969Y-60822500D01*
X221223031Y-60822500D01*
X221699945Y-60727636D01*
X222240769Y-60366269D01*
X222260796Y-60336296D01*
X222290769Y-60316269D01*
X222652136Y-59775445D01*
X222747000Y-59298531D01*
X222747000Y-59298530D01*
X224927000Y-59298530D01*
X225021864Y-59775444D01*
X225383231Y-60316269D01*
X225413204Y-60336296D01*
X225433231Y-60366269D01*
X225974055Y-60727636D01*
X226450969Y-60822500D01*
X240273031Y-60822500D01*
X240749945Y-60727636D01*
X241290769Y-60366269D01*
X241310796Y-60336296D01*
X241340769Y-60316269D01*
X241702136Y-59775445D01*
X241797000Y-59298531D01*
X241797000Y-59298530D01*
X243977000Y-59298530D01*
X244071864Y-59775444D01*
X244433231Y-60316269D01*
X244463204Y-60336296D01*
X244483231Y-60366269D01*
X245024055Y-60727636D01*
X245500969Y-60822500D01*
X259323031Y-60822500D01*
X259799945Y-60727636D01*
X260340769Y-60366269D01*
X260360796Y-60336296D01*
X260390769Y-60316269D01*
X260752136Y-59775445D01*
X260847000Y-59298531D01*
X260847000Y-59298530D01*
X263027000Y-59298530D01*
X263121864Y-59775444D01*
X263483231Y-60316269D01*
X263513204Y-60336296D01*
X263533231Y-60366269D01*
X264074055Y-60727636D01*
X264550969Y-60822500D01*
X278373031Y-60822500D01*
X278849945Y-60727636D01*
X279390769Y-60366269D01*
X279410796Y-60336296D01*
X279440769Y-60316269D01*
X279802136Y-59775445D01*
X279897000Y-59298531D01*
X279897000Y-59298530D01*
X282077000Y-59298530D01*
X282171864Y-59775444D01*
X282533231Y-60316269D01*
X282563204Y-60336296D01*
X282583231Y-60366269D01*
X283124055Y-60727636D01*
X283600969Y-60822500D01*
X297423031Y-60822500D01*
X297899945Y-60727636D01*
X298440769Y-60366269D01*
X298460796Y-60336296D01*
X298490769Y-60316269D01*
X298852136Y-59775445D01*
X298947000Y-59298531D01*
X298947000Y-59298530D01*
X305890000Y-59298530D01*
X305984864Y-59775444D01*
X306346231Y-60316269D01*
X306376204Y-60336296D01*
X306396231Y-60366269D01*
X306937055Y-60727636D01*
X307413969Y-60822500D01*
X321236031Y-60822500D01*
X321712945Y-60727636D01*
X322253769Y-60366269D01*
X322273796Y-60336296D01*
X322303769Y-60316269D01*
X322665136Y-59775445D01*
X322760000Y-59298531D01*
X322760000Y-59298530D01*
X329703000Y-59298530D01*
X329797864Y-59775444D01*
X330159231Y-60316269D01*
X330189204Y-60336296D01*
X330209231Y-60366269D01*
X330750055Y-60727636D01*
X331226969Y-60822500D01*
X345049031Y-60822500D01*
X345525945Y-60727636D01*
X346066769Y-60366269D01*
X346086796Y-60336296D01*
X346116769Y-60316269D01*
X346478136Y-59775445D01*
X346573000Y-59298531D01*
X346573000Y-45476469D01*
X346478136Y-44999555D01*
X346116769Y-44458731D01*
X346086796Y-44438704D01*
X346066769Y-44408731D01*
X345525945Y-44047364D01*
X345049031Y-43952500D01*
X331226969Y-43952500D01*
X330750055Y-44047364D01*
X330209231Y-44408731D01*
X330189203Y-44438705D01*
X330159232Y-44458731D01*
X329797865Y-44999555D01*
X329703001Y-45476469D01*
X329703000Y-59298530D01*
X322760000Y-59298530D01*
X322760000Y-45476469D01*
X322665136Y-44999555D01*
X322303769Y-44458731D01*
X322273796Y-44438704D01*
X322253769Y-44408731D01*
X321712945Y-44047364D01*
X321236031Y-43952500D01*
X307413969Y-43952500D01*
X306937055Y-44047364D01*
X306396231Y-44408731D01*
X306376203Y-44438705D01*
X306346232Y-44458731D01*
X305984865Y-44999555D01*
X305890001Y-45476469D01*
X305890000Y-59298530D01*
X298947000Y-59298530D01*
X298947000Y-45476469D01*
X298852136Y-44999555D01*
X298490769Y-44458731D01*
X298460796Y-44438704D01*
X298440769Y-44408731D01*
X297899945Y-44047364D01*
X297423031Y-43952500D01*
X283600969Y-43952500D01*
X283124055Y-44047364D01*
X282583231Y-44408731D01*
X282563203Y-44438705D01*
X282533232Y-44458731D01*
X282171865Y-44999555D01*
X282077001Y-45476469D01*
X282077000Y-59298530D01*
X279897000Y-59298530D01*
X279897000Y-45476469D01*
X279802136Y-44999555D01*
X279440769Y-44458731D01*
X279410796Y-44438704D01*
X279390769Y-44408731D01*
X278849945Y-44047364D01*
X278373031Y-43952500D01*
X264550969Y-43952500D01*
X264074055Y-44047364D01*
X263533231Y-44408731D01*
X263513203Y-44438705D01*
X263483232Y-44458731D01*
X263121865Y-44999555D01*
X263027001Y-45476469D01*
X263027000Y-59298530D01*
X260847000Y-59298530D01*
X260847000Y-45476469D01*
X260752136Y-44999555D01*
X260390769Y-44458731D01*
X260360796Y-44438704D01*
X260340769Y-44408731D01*
X259799945Y-44047364D01*
X259323031Y-43952500D01*
X245500969Y-43952500D01*
X245024055Y-44047364D01*
X244483231Y-44408731D01*
X244463203Y-44438705D01*
X244433232Y-44458731D01*
X244071865Y-44999555D01*
X243977001Y-45476469D01*
X243977000Y-59298530D01*
X241797000Y-59298530D01*
X241797000Y-45476469D01*
X241702136Y-44999555D01*
X241340769Y-44458731D01*
X241310796Y-44438704D01*
X241290769Y-44408731D01*
X240749945Y-44047364D01*
X240273031Y-43952500D01*
X226450969Y-43952500D01*
X225974055Y-44047364D01*
X225433231Y-44408731D01*
X225413203Y-44438705D01*
X225383232Y-44458731D01*
X225021865Y-44999555D01*
X224927001Y-45476469D01*
X224927000Y-59298530D01*
X222747000Y-59298530D01*
X222747000Y-45476469D01*
X222652136Y-44999555D01*
X222290769Y-44458731D01*
X222260796Y-44438704D01*
X222240769Y-44408731D01*
X221699945Y-44047364D01*
X221223031Y-43952500D01*
X207400969Y-43952500D01*
X206924055Y-44047364D01*
X206383231Y-44408731D01*
X206363203Y-44438705D01*
X206333232Y-44458731D01*
X205971865Y-44999555D01*
X205877001Y-45476469D01*
X205877000Y-59298530D01*
X203697000Y-59298530D01*
X203697000Y-45476469D01*
X203602136Y-44999555D01*
X203240769Y-44458731D01*
X203210796Y-44438704D01*
X203190769Y-44408731D01*
X202649945Y-44047364D01*
X202173031Y-43952500D01*
X188350969Y-43952500D01*
X187874055Y-44047364D01*
X187333231Y-44408731D01*
X187313203Y-44438705D01*
X187283232Y-44458731D01*
X186921865Y-44999555D01*
X186827001Y-45476469D01*
X186827000Y-59298530D01*
X184647000Y-59298530D01*
X184647000Y-45476469D01*
X184552136Y-44999555D01*
X184190769Y-44458731D01*
X184160796Y-44438704D01*
X184140769Y-44408731D01*
X183599945Y-44047364D01*
X183123031Y-43952500D01*
X169300969Y-43952500D01*
X168824055Y-44047364D01*
X168283231Y-44408731D01*
X168263203Y-44438705D01*
X168233232Y-44458731D01*
X167871865Y-44999555D01*
X167777001Y-45476469D01*
X167777000Y-59298530D01*
X165597000Y-59298530D01*
X165597000Y-45476469D01*
X165502136Y-44999555D01*
X165140769Y-44458731D01*
X165110796Y-44438704D01*
X165090769Y-44408731D01*
X164549945Y-44047364D01*
X164073031Y-43952500D01*
X150250969Y-43952500D01*
X149774055Y-44047364D01*
X149233231Y-44408731D01*
X149213203Y-44438705D01*
X149183232Y-44458731D01*
X148821865Y-44999555D01*
X148727001Y-45476469D01*
X148727000Y-59298530D01*
X146547000Y-59298530D01*
X146547000Y-45476469D01*
X146452136Y-44999555D01*
X146090769Y-44458731D01*
X146060796Y-44438704D01*
X146040769Y-44408731D01*
X145499945Y-44047364D01*
X145023031Y-43952500D01*
X131200969Y-43952500D01*
X130724055Y-44047364D01*
X130183231Y-44408731D01*
X130163203Y-44438705D01*
X130133232Y-44458731D01*
X129771865Y-44999555D01*
X129677001Y-45476469D01*
X129677000Y-59298530D01*
X127497000Y-59298530D01*
X127497000Y-45476469D01*
X127402136Y-44999555D01*
X127040769Y-44458731D01*
X127010796Y-44438704D01*
X126990769Y-44408731D01*
X126449945Y-44047364D01*
X125973031Y-43952500D01*
X112150969Y-43952500D01*
X111674055Y-44047364D01*
X111133231Y-44408731D01*
X111113203Y-44438705D01*
X111083232Y-44458731D01*
X110721865Y-44999555D01*
X110627001Y-45476469D01*
X110627000Y-59298530D01*
X108447000Y-59298530D01*
X108447000Y-45476469D01*
X108352136Y-44999555D01*
X107990769Y-44458731D01*
X107960796Y-44438704D01*
X107940769Y-44408731D01*
X107399945Y-44047364D01*
X106923031Y-43952500D01*
X93100969Y-43952500D01*
X92624055Y-44047364D01*
X92083231Y-44408731D01*
X92063203Y-44438705D01*
X92033232Y-44458731D01*
X91671865Y-44999555D01*
X91577001Y-45476469D01*
X91577000Y-59298530D01*
X89397500Y-59298530D01*
X89397500Y-45476469D01*
X89302636Y-44999555D01*
X88941269Y-44458731D01*
X88911296Y-44438704D01*
X88891269Y-44408731D01*
X88350445Y-44047364D01*
X87873531Y-43952500D01*
X74051469Y-43952500D01*
X73574555Y-44047364D01*
X73033731Y-44408731D01*
X73013703Y-44438705D01*
X72983732Y-44458731D01*
X72622365Y-44999555D01*
X72527501Y-45476469D01*
X72527500Y-59298530D01*
X65585000Y-59298530D01*
X65585000Y-45476469D01*
X65490136Y-44999555D01*
X65128769Y-44458731D01*
X65098796Y-44438704D01*
X65078769Y-44408731D01*
X64537945Y-44047364D01*
X64061031Y-43952500D01*
X50238969Y-43952500D01*
X49762055Y-44047364D01*
X49221231Y-44408731D01*
X49201203Y-44438705D01*
X49171232Y-44458731D01*
X48809865Y-44999555D01*
X48715001Y-45476469D01*
X48715000Y-59298530D01*
X41772500Y-59298530D01*
X41772500Y-45476469D01*
X41677636Y-44999555D01*
X41316269Y-44458731D01*
X41286296Y-44438704D01*
X41266269Y-44408731D01*
X40725445Y-44047364D01*
X40248531Y-43952500D01*
X26426469Y-43952500D01*
X25949555Y-44047364D01*
X25408731Y-44408731D01*
X25388703Y-44438705D01*
X25358732Y-44458731D01*
X24997365Y-44999555D01*
X24902501Y-45476469D01*
X24902500Y-59298530D01*
X19760000Y-59298530D01*
X19760000Y-36626882D01*
X20385223Y-36626882D01*
X20630368Y-37018388D01*
X21674360Y-37445109D01*
X22802181Y-37439830D01*
X23819632Y-37018388D01*
X24064777Y-36626882D01*
X22225000Y-34787105D01*
X20385223Y-36626882D01*
X19760000Y-36626882D01*
X19760000Y-36071494D01*
X19814112Y-36202132D01*
X20205618Y-36447277D01*
X22045395Y-34607500D01*
X22404605Y-34607500D01*
X24244382Y-36447277D01*
X24635888Y-36202132D01*
X24902500Y-35549853D01*
X24902500Y-40248530D01*
X24997364Y-40725444D01*
X25358731Y-41266269D01*
X25388704Y-41286296D01*
X25408731Y-41316269D01*
X25949555Y-41677636D01*
X26426469Y-41772500D01*
X40248531Y-41772500D01*
X40725445Y-41677636D01*
X41266269Y-41316269D01*
X41286296Y-41286296D01*
X41316269Y-41266269D01*
X41677636Y-40725445D01*
X41772500Y-40248531D01*
X41772500Y-40248530D01*
X43952500Y-40248530D01*
X44047364Y-40725444D01*
X44408731Y-41266269D01*
X44438704Y-41286296D01*
X44458731Y-41316269D01*
X44999555Y-41677636D01*
X45476469Y-41772500D01*
X59298531Y-41772500D01*
X59775445Y-41677636D01*
X60316269Y-41316269D01*
X60336296Y-41286296D01*
X60366269Y-41266269D01*
X60727636Y-40725445D01*
X60822500Y-40248531D01*
X60822500Y-40248530D01*
X63002500Y-40248530D01*
X63097364Y-40725444D01*
X63458731Y-41266269D01*
X63488704Y-41286296D01*
X63508731Y-41316269D01*
X64049555Y-41677636D01*
X64526469Y-41772500D01*
X78348531Y-41772500D01*
X78825445Y-41677636D01*
X79366269Y-41316269D01*
X79386296Y-41286296D01*
X79416269Y-41266269D01*
X79777636Y-40725445D01*
X79872500Y-40248531D01*
X79872500Y-40248530D01*
X82052500Y-40248530D01*
X82147364Y-40725444D01*
X82508731Y-41266269D01*
X82538704Y-41286296D01*
X82558731Y-41316269D01*
X83099555Y-41677636D01*
X83576469Y-41772500D01*
X97398531Y-41772500D01*
X97875445Y-41677636D01*
X98416269Y-41316269D01*
X98436296Y-41286296D01*
X98466269Y-41266269D01*
X98827636Y-40725445D01*
X98922500Y-40248531D01*
X98922500Y-40248530D01*
X101103000Y-40248530D01*
X101197864Y-40725444D01*
X101559231Y-41266269D01*
X101589204Y-41286296D01*
X101609231Y-41316269D01*
X102150055Y-41677636D01*
X102626969Y-41772500D01*
X116449031Y-41772500D01*
X116925945Y-41677636D01*
X117466769Y-41316269D01*
X117486796Y-41286296D01*
X117516769Y-41266269D01*
X117878136Y-40725445D01*
X117973000Y-40248531D01*
X117973000Y-40248530D01*
X120153000Y-40248530D01*
X120247864Y-40725444D01*
X120609231Y-41266269D01*
X120639204Y-41286296D01*
X120659231Y-41316269D01*
X121200055Y-41677636D01*
X121676969Y-41772500D01*
X135499031Y-41772500D01*
X135975945Y-41677636D01*
X136516769Y-41316269D01*
X136536796Y-41286296D01*
X136566769Y-41266269D01*
X136928136Y-40725445D01*
X137023000Y-40248531D01*
X137023000Y-40248530D01*
X139203000Y-40248530D01*
X139297864Y-40725444D01*
X139659231Y-41266269D01*
X139689204Y-41286296D01*
X139709231Y-41316269D01*
X140250055Y-41677636D01*
X140726969Y-41772500D01*
X154549031Y-41772500D01*
X155025945Y-41677636D01*
X155566769Y-41316269D01*
X155586796Y-41286296D01*
X155616769Y-41266269D01*
X155978136Y-40725445D01*
X156073000Y-40248531D01*
X156073000Y-40248530D01*
X158253000Y-40248530D01*
X158347864Y-40725444D01*
X158709231Y-41266269D01*
X158739204Y-41286296D01*
X158759231Y-41316269D01*
X159300055Y-41677636D01*
X159776969Y-41772500D01*
X173599031Y-41772500D01*
X174075945Y-41677636D01*
X174616769Y-41316269D01*
X174636796Y-41286296D01*
X174666769Y-41266269D01*
X175028136Y-40725445D01*
X175123000Y-40248531D01*
X175123000Y-40248530D01*
X177303000Y-40248530D01*
X177397864Y-40725444D01*
X177759231Y-41266269D01*
X177789204Y-41286296D01*
X177809231Y-41316269D01*
X178350055Y-41677636D01*
X178826969Y-41772500D01*
X192649031Y-41772500D01*
X193125945Y-41677636D01*
X193666769Y-41316269D01*
X193686796Y-41286296D01*
X193716769Y-41266269D01*
X194078136Y-40725445D01*
X194173000Y-40248531D01*
X194173000Y-40248530D01*
X196353000Y-40248530D01*
X196447864Y-40725444D01*
X196809231Y-41266269D01*
X196839204Y-41286296D01*
X196859231Y-41316269D01*
X197400055Y-41677636D01*
X197876969Y-41772500D01*
X211699031Y-41772500D01*
X212175945Y-41677636D01*
X212716769Y-41316269D01*
X212736796Y-41286296D01*
X212766769Y-41266269D01*
X213128136Y-40725445D01*
X213223000Y-40248531D01*
X213223000Y-40248530D01*
X215403000Y-40248530D01*
X215497864Y-40725444D01*
X215859231Y-41266269D01*
X215889204Y-41286296D01*
X215909231Y-41316269D01*
X216450055Y-41677636D01*
X216926969Y-41772500D01*
X230749031Y-41772500D01*
X231225945Y-41677636D01*
X231766769Y-41316269D01*
X231786796Y-41286296D01*
X231816769Y-41266269D01*
X232178136Y-40725445D01*
X232273000Y-40248531D01*
X232273000Y-40248530D01*
X234453000Y-40248530D01*
X234547864Y-40725444D01*
X234909231Y-41266269D01*
X234939204Y-41286296D01*
X234959231Y-41316269D01*
X235500055Y-41677636D01*
X235976969Y-41772500D01*
X249799031Y-41772500D01*
X250275945Y-41677636D01*
X250816769Y-41316269D01*
X250836796Y-41286296D01*
X250866769Y-41266269D01*
X251228136Y-40725445D01*
X251323000Y-40248531D01*
X251323000Y-40248530D01*
X253503000Y-40248530D01*
X253597864Y-40725444D01*
X253959231Y-41266269D01*
X253989204Y-41286296D01*
X254009231Y-41316269D01*
X254550055Y-41677636D01*
X255026969Y-41772500D01*
X268849031Y-41772500D01*
X269325945Y-41677636D01*
X269866769Y-41316269D01*
X269886796Y-41286296D01*
X269916769Y-41266269D01*
X270278136Y-40725445D01*
X270373000Y-40248531D01*
X270373000Y-40248530D01*
X272553000Y-40248530D01*
X272647864Y-40725444D01*
X273009231Y-41266269D01*
X273039204Y-41286296D01*
X273059231Y-41316269D01*
X273600055Y-41677636D01*
X274076969Y-41772500D01*
X287899031Y-41772500D01*
X288375945Y-41677636D01*
X288916769Y-41316269D01*
X288936796Y-41286296D01*
X288966769Y-41266269D01*
X289328136Y-40725445D01*
X289423000Y-40248531D01*
X289423000Y-40248530D01*
X291603000Y-40248530D01*
X291697864Y-40725444D01*
X292059231Y-41266269D01*
X292089204Y-41286296D01*
X292109231Y-41316269D01*
X292650055Y-41677636D01*
X293126969Y-41772500D01*
X306949031Y-41772500D01*
X307425945Y-41677636D01*
X307966769Y-41316269D01*
X307986796Y-41286296D01*
X308016769Y-41266269D01*
X308378136Y-40725445D01*
X308473000Y-40248531D01*
X308473000Y-26426469D01*
X308378136Y-25949555D01*
X308016769Y-25408731D01*
X307986796Y-25388704D01*
X307966769Y-25358731D01*
X307425945Y-24997364D01*
X306949031Y-24902500D01*
X293126969Y-24902500D01*
X292650055Y-24997364D01*
X292109231Y-25358731D01*
X292089203Y-25388705D01*
X292059232Y-25408731D01*
X291697865Y-25949555D01*
X291603001Y-26426469D01*
X291603000Y-40248530D01*
X289423000Y-40248530D01*
X289423000Y-26426469D01*
X289328136Y-25949555D01*
X288966769Y-25408731D01*
X288936796Y-25388704D01*
X288916769Y-25358731D01*
X288375945Y-24997364D01*
X287899031Y-24902500D01*
X274076969Y-24902500D01*
X273600055Y-24997364D01*
X273059231Y-25358731D01*
X273039203Y-25388705D01*
X273009232Y-25408731D01*
X272647865Y-25949555D01*
X272553001Y-26426469D01*
X272553000Y-40248530D01*
X270373000Y-40248530D01*
X270373000Y-26426469D01*
X270278136Y-25949555D01*
X269916769Y-25408731D01*
X269886796Y-25388704D01*
X269866769Y-25358731D01*
X269325945Y-24997364D01*
X268849031Y-24902500D01*
X255026969Y-24902500D01*
X254550055Y-24997364D01*
X254009231Y-25358731D01*
X253989203Y-25388705D01*
X253959232Y-25408731D01*
X253597865Y-25949555D01*
X253503001Y-26426469D01*
X253503000Y-40248530D01*
X251323000Y-40248530D01*
X251323000Y-26426469D01*
X251228136Y-25949555D01*
X250866769Y-25408731D01*
X250836796Y-25388704D01*
X250816769Y-25358731D01*
X250275945Y-24997364D01*
X249799031Y-24902500D01*
X235976969Y-24902500D01*
X235500055Y-24997364D01*
X234959231Y-25358731D01*
X234939203Y-25388705D01*
X234909232Y-25408731D01*
X234547865Y-25949555D01*
X234453001Y-26426469D01*
X234453000Y-40248530D01*
X232273000Y-40248530D01*
X232273000Y-26426469D01*
X232178136Y-25949555D01*
X231816769Y-25408731D01*
X231786796Y-25388704D01*
X231766769Y-25358731D01*
X231225945Y-24997364D01*
X230749031Y-24902500D01*
X216926969Y-24902500D01*
X216450055Y-24997364D01*
X215909231Y-25358731D01*
X215889203Y-25388705D01*
X215859232Y-25408731D01*
X215497865Y-25949555D01*
X215403001Y-26426469D01*
X215403000Y-40248530D01*
X213223000Y-40248530D01*
X213223000Y-26426469D01*
X213128136Y-25949555D01*
X212766769Y-25408731D01*
X212736796Y-25388704D01*
X212716769Y-25358731D01*
X212175945Y-24997364D01*
X211699031Y-24902500D01*
X197876969Y-24902500D01*
X197400055Y-24997364D01*
X196859231Y-25358731D01*
X196839203Y-25388705D01*
X196809232Y-25408731D01*
X196447865Y-25949555D01*
X196353001Y-26426469D01*
X196353000Y-40248530D01*
X194173000Y-40248530D01*
X194173000Y-26426469D01*
X194078136Y-25949555D01*
X193716769Y-25408731D01*
X193686796Y-25388704D01*
X193666769Y-25358731D01*
X193125945Y-24997364D01*
X192649031Y-24902500D01*
X178826969Y-24902500D01*
X178350055Y-24997364D01*
X177809231Y-25358731D01*
X177789203Y-25388705D01*
X177759232Y-25408731D01*
X177397865Y-25949555D01*
X177303001Y-26426469D01*
X177303000Y-40248530D01*
X175123000Y-40248530D01*
X175123000Y-26426469D01*
X175028136Y-25949555D01*
X174666769Y-25408731D01*
X174636796Y-25388704D01*
X174616769Y-25358731D01*
X174075945Y-24997364D01*
X173599031Y-24902500D01*
X159776969Y-24902500D01*
X159300055Y-24997364D01*
X158759231Y-25358731D01*
X158739203Y-25388705D01*
X158709232Y-25408731D01*
X158347865Y-25949555D01*
X158253001Y-26426469D01*
X158253000Y-40248530D01*
X156073000Y-40248530D01*
X156073000Y-26426469D01*
X155978136Y-25949555D01*
X155616769Y-25408731D01*
X155586796Y-25388704D01*
X155566769Y-25358731D01*
X155025945Y-24997364D01*
X154549031Y-24902500D01*
X140726969Y-24902500D01*
X140250055Y-24997364D01*
X139709231Y-25358731D01*
X139689203Y-25388705D01*
X139659232Y-25408731D01*
X139297865Y-25949555D01*
X139203001Y-26426469D01*
X139203000Y-40248530D01*
X137023000Y-40248530D01*
X137023000Y-26426469D01*
X136928136Y-25949555D01*
X136566769Y-25408731D01*
X136536796Y-25388704D01*
X136516769Y-25358731D01*
X135975945Y-24997364D01*
X135499031Y-24902500D01*
X121676969Y-24902500D01*
X121200055Y-24997364D01*
X120659231Y-25358731D01*
X120639203Y-25388705D01*
X120609232Y-25408731D01*
X120247865Y-25949555D01*
X120153001Y-26426469D01*
X120153000Y-40248530D01*
X117973000Y-40248530D01*
X117973000Y-26426469D01*
X117878136Y-25949555D01*
X117516769Y-25408731D01*
X117486796Y-25388704D01*
X117466769Y-25358731D01*
X116925945Y-24997364D01*
X116449031Y-24902500D01*
X102626969Y-24902500D01*
X102150055Y-24997364D01*
X101609231Y-25358731D01*
X101589203Y-25388705D01*
X101559232Y-25408731D01*
X101197865Y-25949555D01*
X101103001Y-26426469D01*
X101103000Y-40248530D01*
X98922500Y-40248530D01*
X98922500Y-26426469D01*
X98827636Y-25949555D01*
X98466269Y-25408731D01*
X98436296Y-25388704D01*
X98416269Y-25358731D01*
X97875445Y-24997364D01*
X97398531Y-24902500D01*
X83576469Y-24902500D01*
X83099555Y-24997364D01*
X82558731Y-25358731D01*
X82538703Y-25388705D01*
X82508732Y-25408731D01*
X82147365Y-25949555D01*
X82052501Y-26426469D01*
X82052500Y-40248530D01*
X79872500Y-40248530D01*
X79872500Y-26426469D01*
X79777636Y-25949555D01*
X79416269Y-25408731D01*
X79386296Y-25388704D01*
X79366269Y-25358731D01*
X78825445Y-24997364D01*
X78348531Y-24902500D01*
X64526469Y-24902500D01*
X64049555Y-24997364D01*
X63508731Y-25358731D01*
X63488703Y-25388705D01*
X63458732Y-25408731D01*
X63097365Y-25949555D01*
X63002501Y-26426469D01*
X63002500Y-40248530D01*
X60822500Y-40248530D01*
X60822500Y-26426469D01*
X60727636Y-25949555D01*
X60366269Y-25408731D01*
X60336296Y-25388704D01*
X60316269Y-25358731D01*
X59775445Y-24997364D01*
X59298531Y-24902500D01*
X45476469Y-24902500D01*
X44999555Y-24997364D01*
X44458731Y-25358731D01*
X44438703Y-25388705D01*
X44408732Y-25408731D01*
X44047365Y-25949555D01*
X43952501Y-26426469D01*
X43952500Y-40248530D01*
X41772500Y-40248530D01*
X41772500Y-26426469D01*
X41677636Y-25949555D01*
X41316269Y-25408731D01*
X41286296Y-25388704D01*
X41266269Y-25358731D01*
X40725445Y-24997364D01*
X40248531Y-24902500D01*
X26426469Y-24902500D01*
X25949555Y-24997364D01*
X25408731Y-25358731D01*
X25388703Y-25388705D01*
X25358732Y-25408731D01*
X24997365Y-25949555D01*
X24902501Y-26426469D01*
X24902500Y-33656527D01*
X24635888Y-33012868D01*
X24244382Y-32767723D01*
X22404605Y-34607500D01*
X22045395Y-34607500D01*
X20205618Y-32767723D01*
X19814112Y-33012868D01*
X19760000Y-33145255D01*
X19760000Y-32588118D01*
X20385223Y-32588118D01*
X22225000Y-34427895D01*
X24064777Y-32588118D01*
X23819632Y-32196612D01*
X22775640Y-31769891D01*
X21647819Y-31775170D01*
X20630368Y-32196612D01*
X20385223Y-32588118D01*
X19760000Y-32588118D01*
X19760000Y-28607547D01*
X19830800Y-27837035D01*
X20031956Y-27123790D01*
X20359728Y-26459134D01*
X20803128Y-25865350D01*
X21347318Y-25362307D01*
X21974060Y-24966861D01*
X22662379Y-24692250D01*
X23402973Y-24544936D01*
X23831092Y-24522500D01*
X342872830Y-24522500D01*
X343673430Y-24593952D01*
G04 #@! TD*
M02*
