G04 #@! TF.GenerationSoftware,KiCad,Pcbnew,5.0.2-bee76a0~70~ubuntu18.04.1*
G04 #@! TF.CreationDate,2020-02-19T02:44:08+09:00*
G04 #@! TF.ProjectId,thanatos,7468616e-6174-46f7-932e-6b696361645f,rev?*
G04 #@! TF.SameCoordinates,Original*
G04 #@! TF.FileFunction,Paste,Bot*
G04 #@! TF.FilePolarity,Positive*
%FSLAX46Y46*%
G04 Gerber Fmt 4.6, Leading zero omitted, Abs format (unit mm)*
G04 Created by KiCad (PCBNEW 5.0.2-bee76a0~70~ubuntu18.04.1) date 2020年02月19日 02時44分08秒*
%MOMM*%
%LPD*%
G01*
G04 APERTURE LIST*
%ADD10R,2.550000X2.500000*%
%ADD11R,1.399540X2.999740*%
%ADD12R,2.500000X2.550000*%
%ADD13R,1.300000X0.950000*%
%ADD14R,0.950000X1.300000*%
%ADD15R,1.800000X0.820000*%
%ADD16R,0.820000X1.800000*%
G04 APERTURE END LIST*
D10*
G04 #@! TO.C,SW46*
X333316000Y-73977500D03*
X320389000Y-76517500D03*
G04 #@! TD*
G04 #@! TO.C,SW32*
X345223000Y-54927500D03*
X332296000Y-57467500D03*
G04 #@! TD*
D11*
G04 #@! TO.C,R1*
X350964500Y-64010540D03*
X350964500Y-69212460D03*
G04 #@! TD*
D10*
G04 #@! TO.C,SW10*
X211873000Y-35877500D03*
X198946000Y-38417500D03*
G04 #@! TD*
G04 #@! TO.C,SW52*
X154723000Y-93027500D03*
X141796000Y-95567500D03*
G04 #@! TD*
G04 #@! TO.C,SW64*
X57091200Y-112078000D03*
X44164200Y-114618000D03*
G04 #@! TD*
D12*
G04 #@! TO.C,SW70*
X240665000Y-104834000D03*
X243205000Y-117761000D03*
G04 #@! TD*
D10*
G04 #@! TO.C,SW3*
X78522500Y-35877500D03*
X65595500Y-38417500D03*
G04 #@! TD*
G04 #@! TO.C,SW69*
X209609000Y-111760000D03*
X222536000Y-109220000D03*
G04 #@! TD*
G04 #@! TO.C,SW16*
X335697000Y-35877500D03*
X322770000Y-38417500D03*
G04 #@! TD*
G04 #@! TO.C,SW62*
X361891000Y-93027500D03*
X348964000Y-95567500D03*
G04 #@! TD*
G04 #@! TO.C,SW33*
X57091200Y-73977500D03*
X44164200Y-76517500D03*
G04 #@! TD*
G04 #@! TO.C,SW47*
X47566200Y-93027500D03*
X34639200Y-95567500D03*
G04 #@! TD*
D12*
G04 #@! TO.C,SW65*
X130810000Y-119004000D03*
X128270000Y-106077000D03*
G04 #@! TD*
D10*
G04 #@! TO.C,SW66*
X147696000Y-111760000D03*
X160623000Y-109220000D03*
G04 #@! TD*
D12*
G04 #@! TO.C,SW67*
X178752000Y-109596000D03*
X181292000Y-122523000D03*
G04 #@! TD*
G04 #@! TO.C,SW68*
X192722000Y-123766000D03*
X190182000Y-110839000D03*
G04 #@! TD*
D10*
G04 #@! TO.C,SW18*
X64235000Y-54927500D03*
X51308000Y-57467500D03*
G04 #@! TD*
G04 #@! TO.C,SW31*
X321410000Y-54927500D03*
X308483000Y-57467500D03*
G04 #@! TD*
G04 #@! TO.C,SW1*
X40422500Y-35877500D03*
X27495500Y-38417500D03*
G04 #@! TD*
G04 #@! TO.C,SW2*
X59472500Y-35877500D03*
X46545500Y-38417500D03*
G04 #@! TD*
G04 #@! TO.C,SW4*
X97572500Y-35877500D03*
X84645500Y-38417500D03*
G04 #@! TD*
G04 #@! TO.C,SW5*
X116623000Y-35877500D03*
X103696000Y-38417500D03*
G04 #@! TD*
G04 #@! TO.C,SW6*
X135673000Y-35877500D03*
X122746000Y-38417500D03*
G04 #@! TD*
G04 #@! TO.C,SW7*
X154723000Y-35877500D03*
X141796000Y-38417500D03*
G04 #@! TD*
G04 #@! TO.C,SW8*
X173773000Y-35877500D03*
X160846000Y-38417500D03*
G04 #@! TD*
G04 #@! TO.C,SW9*
X192823000Y-35877500D03*
X179896000Y-38417500D03*
G04 #@! TD*
G04 #@! TO.C,SW11*
X230923000Y-35877500D03*
X217996000Y-38417500D03*
G04 #@! TD*
G04 #@! TO.C,SW12*
X249973000Y-35877500D03*
X237046000Y-38417500D03*
G04 #@! TD*
G04 #@! TO.C,SW14*
X288073000Y-35877500D03*
X275146000Y-38417500D03*
G04 #@! TD*
G04 #@! TO.C,SW15*
X307123000Y-35877500D03*
X294196000Y-38417500D03*
G04 #@! TD*
G04 #@! TO.C,SW17*
X40422500Y-54927500D03*
X27495500Y-57467500D03*
G04 #@! TD*
G04 #@! TO.C,SW19*
X88047500Y-54927500D03*
X75120500Y-57467500D03*
G04 #@! TD*
G04 #@! TO.C,SW20*
X107097000Y-54927500D03*
X94170000Y-57467500D03*
G04 #@! TD*
G04 #@! TO.C,SW21*
X126147000Y-54927500D03*
X113220000Y-57467500D03*
G04 #@! TD*
G04 #@! TO.C,SW22*
X145197000Y-54927500D03*
X132270000Y-57467500D03*
G04 #@! TD*
G04 #@! TO.C,SW23*
X164247000Y-54927500D03*
X151320000Y-57467500D03*
G04 #@! TD*
G04 #@! TO.C,SW24*
X183297000Y-54927500D03*
X170370000Y-57467500D03*
G04 #@! TD*
G04 #@! TO.C,SW25*
X202347000Y-54927500D03*
X189420000Y-57467500D03*
G04 #@! TD*
G04 #@! TO.C,SW26*
X221397000Y-54927500D03*
X208470000Y-57467500D03*
G04 #@! TD*
G04 #@! TO.C,SW27*
X240447000Y-54927500D03*
X227520000Y-57467500D03*
G04 #@! TD*
G04 #@! TO.C,SW28*
X259497000Y-54927500D03*
X246570000Y-57467500D03*
G04 #@! TD*
G04 #@! TO.C,SW29*
X278547000Y-54927500D03*
X265620000Y-57467500D03*
G04 #@! TD*
G04 #@! TO.C,SW30*
X297597000Y-54927500D03*
X284670000Y-57467500D03*
G04 #@! TD*
G04 #@! TO.C,SW34*
X83285000Y-73977500D03*
X70358000Y-76517500D03*
G04 #@! TD*
G04 #@! TO.C,SW35*
X102335000Y-73977500D03*
X89408000Y-76517500D03*
G04 #@! TD*
G04 #@! TO.C,SW36*
X121385000Y-73977500D03*
X108458000Y-76517500D03*
G04 #@! TD*
G04 #@! TO.C,SW37*
X140435000Y-73977500D03*
X127508000Y-76517500D03*
G04 #@! TD*
G04 #@! TO.C,SW38*
X159485000Y-73977500D03*
X146558000Y-76517500D03*
G04 #@! TD*
G04 #@! TO.C,SW39*
X178535000Y-73977500D03*
X165608000Y-76517500D03*
G04 #@! TD*
G04 #@! TO.C,SW40*
X207110000Y-73977500D03*
X194183000Y-76517500D03*
G04 #@! TD*
G04 #@! TO.C,SW41*
X226160000Y-73977500D03*
X213233000Y-76517500D03*
G04 #@! TD*
G04 #@! TO.C,SW42*
X245210000Y-73977500D03*
X232283000Y-76517500D03*
G04 #@! TD*
G04 #@! TO.C,SW43*
X264260000Y-73977500D03*
X251333000Y-76517500D03*
G04 #@! TD*
G04 #@! TO.C,SW44*
X283310000Y-73977500D03*
X270383000Y-76517500D03*
G04 #@! TD*
G04 #@! TO.C,SW45*
X302360000Y-73977500D03*
X289433000Y-76517500D03*
G04 #@! TD*
G04 #@! TO.C,SW48*
X78522500Y-93027500D03*
X65595500Y-95567500D03*
G04 #@! TD*
G04 #@! TO.C,SW49*
X97572500Y-93027500D03*
X84645500Y-95567500D03*
G04 #@! TD*
G04 #@! TO.C,SW50*
X116623000Y-93027500D03*
X103696000Y-95567500D03*
G04 #@! TD*
G04 #@! TO.C,SW51*
X135673000Y-93027500D03*
X122746000Y-95567500D03*
G04 #@! TD*
G04 #@! TO.C,SW53*
X173773000Y-93027500D03*
X160846000Y-95567500D03*
G04 #@! TD*
G04 #@! TO.C,SW54*
X192823000Y-93027500D03*
X179896000Y-95567500D03*
G04 #@! TD*
G04 #@! TO.C,SW55*
X211873000Y-93027500D03*
X198946000Y-95567500D03*
G04 #@! TD*
G04 #@! TO.C,SW56*
X230923000Y-93027500D03*
X217996000Y-95567500D03*
G04 #@! TD*
G04 #@! TO.C,SW57*
X237046000Y-95567500D03*
X249973000Y-93027500D03*
G04 #@! TD*
G04 #@! TO.C,SW58*
X269023000Y-93027500D03*
X256096000Y-95567500D03*
G04 #@! TD*
G04 #@! TO.C,SW59*
X288073000Y-93027500D03*
X275146000Y-95567500D03*
G04 #@! TD*
G04 #@! TO.C,SW60*
X307123000Y-93027500D03*
X294196000Y-95567500D03*
G04 #@! TD*
G04 #@! TO.C,SW61*
X326173000Y-93027500D03*
X313246000Y-95567500D03*
G04 #@! TD*
G04 #@! TO.C,SW63*
X35660000Y-112078000D03*
X22733000Y-114618000D03*
G04 #@! TD*
G04 #@! TO.C,SW71*
X307123000Y-112078000D03*
X294196000Y-114618000D03*
G04 #@! TD*
G04 #@! TO.C,SW72*
X326173000Y-112078000D03*
X313246000Y-114618000D03*
G04 #@! TD*
G04 #@! TO.C,SW73*
X345223000Y-112078000D03*
X332296000Y-114618000D03*
G04 #@! TD*
G04 #@! TO.C,SW13*
X269023000Y-35877500D03*
X256096000Y-38417500D03*
G04 #@! TD*
D13*
G04 #@! TO.C,D1*
X32890000Y-42100500D03*
X29340000Y-42100500D03*
G04 #@! TD*
G04 #@! TO.C,D2*
X42929000Y-42100500D03*
X46479000Y-42100500D03*
G04 #@! TD*
G04 #@! TO.C,D3*
X69085000Y-42100500D03*
X65535000Y-42100500D03*
G04 #@! TD*
G04 #@! TO.C,D4*
X84579000Y-42100500D03*
X81029000Y-42100500D03*
G04 #@! TD*
G04 #@! TO.C,D5*
X103889000Y-42100500D03*
X107439000Y-42100500D03*
G04 #@! TD*
G04 #@! TO.C,D6*
X122679000Y-42100500D03*
X119129000Y-42100500D03*
G04 #@! TD*
G04 #@! TO.C,D7*
X145282000Y-42100500D03*
X141732000Y-42100500D03*
G04 #@! TD*
G04 #@! TO.C,D8*
X157229000Y-42100500D03*
X160779000Y-42100500D03*
G04 #@! TD*
G04 #@! TO.C,D9*
X179835000Y-42100500D03*
X183385000Y-42100500D03*
G04 #@! TD*
G04 #@! TO.C,D10*
X198879000Y-42100500D03*
X195329000Y-42100500D03*
G04 #@! TD*
G04 #@! TO.C,D11*
X217935000Y-42100500D03*
X221485000Y-42100500D03*
G04 #@! TD*
G04 #@! TO.C,D12*
X233429000Y-42100500D03*
X236979000Y-42100500D03*
G04 #@! TD*
G04 #@! TO.C,D13*
X256035000Y-42100500D03*
X259585000Y-42100500D03*
G04 #@! TD*
G04 #@! TO.C,D14*
X271529000Y-42100500D03*
X275079000Y-42100500D03*
G04 #@! TD*
G04 #@! TO.C,D15*
X294135000Y-42100500D03*
X297685000Y-42100500D03*
G04 #@! TD*
G04 #@! TO.C,D16*
X322837000Y-42100500D03*
X326387000Y-42100500D03*
G04 #@! TD*
G04 #@! TO.C,D17*
X31239000Y-61150500D03*
X27689000Y-61150500D03*
G04 #@! TD*
G04 #@! TO.C,D18*
X47755000Y-61150500D03*
X51305000Y-61150500D03*
G04 #@! TD*
G04 #@! TO.C,D19*
X78737000Y-61150500D03*
X75187000Y-61150500D03*
G04 #@! TD*
G04 #@! TO.C,D20*
X93977000Y-61150500D03*
X90427000Y-61150500D03*
G04 #@! TD*
G04 #@! TO.C,D21*
X113287000Y-61150500D03*
X116837000Y-61150500D03*
G04 #@! TD*
G04 #@! TO.C,D22*
X132331000Y-61150500D03*
X128781000Y-61150500D03*
G04 #@! TD*
G04 #@! TO.C,D23*
X151387000Y-61150500D03*
X154937000Y-61150500D03*
G04 #@! TD*
G04 #@! TO.C,D24*
X166627000Y-61150500D03*
X170177000Y-61150500D03*
G04 #@! TD*
G04 #@! TO.C,D25*
X189487000Y-61150500D03*
X193037000Y-61150500D03*
G04 #@! TD*
G04 #@! TO.C,D26*
X204981000Y-61150500D03*
X208531000Y-61150500D03*
G04 #@! TD*
G04 #@! TO.C,D27*
X227587000Y-61150500D03*
X231137000Y-61150500D03*
G04 #@! TD*
G04 #@! TO.C,D28*
X246631000Y-61150500D03*
X243081000Y-61150500D03*
G04 #@! TD*
G04 #@! TO.C,D29*
X269237000Y-61150500D03*
X265687000Y-61150500D03*
G04 #@! TD*
G04 #@! TO.C,D30*
X284731000Y-61150500D03*
X281181000Y-61150500D03*
G04 #@! TD*
G04 #@! TO.C,D31*
X310131000Y-61150500D03*
X306581000Y-61150500D03*
G04 #@! TD*
G04 #@! TO.C,D32*
X328679000Y-61150500D03*
X332229000Y-61150500D03*
G04 #@! TD*
G04 #@! TO.C,D33*
X40643000Y-80200500D03*
X44193000Y-80200500D03*
G04 #@! TD*
G04 #@! TO.C,D34*
X73911000Y-80200500D03*
X70361000Y-80200500D03*
G04 #@! TD*
G04 #@! TO.C,D35*
X85855000Y-80200500D03*
X89405000Y-80200500D03*
G04 #@! TD*
G04 #@! TO.C,D36*
X108461000Y-80200500D03*
X112011000Y-80200500D03*
G04 #@! TD*
G04 #@! TO.C,D37*
X123955000Y-80200500D03*
X127505000Y-80200500D03*
G04 #@! TD*
G04 #@! TO.C,D38*
X150111000Y-80200500D03*
X146561000Y-80200500D03*
G04 #@! TD*
G04 #@! TO.C,D39*
X165605000Y-80200500D03*
X162055000Y-80200500D03*
G04 #@! TD*
G04 #@! TO.C,D40*
X194313000Y-80200500D03*
X197863000Y-80200500D03*
G04 #@! TD*
G04 #@! TO.C,D41*
X213103000Y-80200500D03*
X209553000Y-80200500D03*
G04 #@! TD*
G04 #@! TO.C,D42*
X232413000Y-80200500D03*
X235963000Y-80200500D03*
G04 #@! TD*
G04 #@! TO.C,D43*
X247653000Y-80200500D03*
X251203000Y-80200500D03*
G04 #@! TD*
G04 #@! TO.C,D44*
X270513000Y-80200500D03*
X274063000Y-80200500D03*
G04 #@! TD*
G04 #@! TO.C,D45*
X285753000Y-80200500D03*
X289303000Y-80200500D03*
G04 #@! TD*
G04 #@! TO.C,D46*
X320551000Y-80200500D03*
X324101000Y-80200500D03*
G04 #@! TD*
G04 #@! TO.C,D47*
X34547000Y-99250500D03*
X38097000Y-99250500D03*
G04 #@! TD*
G04 #@! TO.C,D48*
X65529000Y-99250500D03*
X61979000Y-99250500D03*
G04 #@! TD*
G04 #@! TO.C,D49*
X88389000Y-99250500D03*
X84839000Y-99250500D03*
G04 #@! TD*
G04 #@! TO.C,D50*
X103375000Y-99250500D03*
X99825000Y-99250500D03*
G04 #@! TD*
G04 #@! TO.C,D51*
X126235000Y-99250500D03*
X122685000Y-99250500D03*
G04 #@! TD*
G04 #@! TO.C,D52*
X138179000Y-99250500D03*
X141729000Y-99250500D03*
G04 #@! TD*
G04 #@! TO.C,D53*
X164335000Y-99250500D03*
X160785000Y-99250500D03*
G04 #@! TD*
G04 #@! TO.C,D54*
X179829000Y-99250500D03*
X176279000Y-99250500D03*
G04 #@! TD*
G04 #@! TO.C,D55*
X198885000Y-99250500D03*
X202435000Y-99250500D03*
G04 #@! TD*
G04 #@! TO.C,D56*
X217929000Y-99250500D03*
X214379000Y-99250500D03*
G04 #@! TD*
G04 #@! TO.C,D57*
X240535000Y-99250500D03*
X236985000Y-99250500D03*
G04 #@! TD*
G04 #@! TO.C,D58*
X256029000Y-99250500D03*
X252479000Y-99250500D03*
G04 #@! TD*
G04 #@! TO.C,D59*
X278635000Y-99250500D03*
X275085000Y-99250500D03*
G04 #@! TD*
G04 #@! TO.C,D60*
X294129000Y-99250500D03*
X290579000Y-99250500D03*
G04 #@! TD*
G04 #@! TO.C,D61*
X316735000Y-99250500D03*
X313185000Y-99250500D03*
G04 #@! TD*
G04 #@! TO.C,D62*
X350771000Y-99250500D03*
X347221000Y-99250500D03*
G04 #@! TD*
G04 #@! TO.C,D63*
X26159000Y-118300000D03*
X22609000Y-118300000D03*
G04 #@! TD*
G04 #@! TO.C,D64*
X40643000Y-118300000D03*
X44193000Y-118300000D03*
G04 #@! TD*
G04 #@! TO.C,D65*
X124717000Y-122110000D03*
X128267000Y-122110000D03*
G04 #@! TD*
G04 #@! TO.C,D66*
X160779000Y-124396000D03*
X157229000Y-124396000D03*
G04 #@! TD*
G04 #@! TO.C,D67*
X170183000Y-124650000D03*
X173733000Y-124650000D03*
G04 #@! TD*
G04 #@! TO.C,D68*
X201419000Y-124650000D03*
X197869000Y-124650000D03*
G04 #@! TD*
G04 #@! TO.C,D69*
X222501000Y-124650000D03*
X218951000Y-124650000D03*
G04 #@! TD*
G04 #@! TO.C,D70*
X246631000Y-121348000D03*
X243081000Y-121348000D03*
G04 #@! TD*
G04 #@! TO.C,D71*
X290579000Y-118300000D03*
X294129000Y-118300000D03*
G04 #@! TD*
G04 #@! TO.C,D72*
X313185000Y-118300000D03*
X316735000Y-118300000D03*
G04 #@! TD*
G04 #@! TO.C,D73*
X328682000Y-118300000D03*
X332232000Y-118300000D03*
G04 #@! TD*
D14*
G04 #@! TO.C,D74*
X346646500Y-66106500D03*
X346646500Y-69656500D03*
G04 #@! TD*
D15*
G04 #@! TO.C,L1*
X326112000Y-27126500D03*
X326112000Y-28626500D03*
X331112000Y-28626500D03*
X331112000Y-27126500D03*
G04 #@! TD*
G04 #@! TO.C,L2*
X302538000Y-27126500D03*
X302538000Y-28626500D03*
X297538000Y-28626500D03*
X297538000Y-27126500D03*
G04 #@! TD*
G04 #@! TO.C,L3*
X283488000Y-27126500D03*
X283488000Y-28626500D03*
X278488000Y-28626500D03*
X278488000Y-27126500D03*
G04 #@! TD*
G04 #@! TO.C,L4*
X259438000Y-27126500D03*
X259438000Y-28626500D03*
X264438000Y-28626500D03*
X264438000Y-27126500D03*
G04 #@! TD*
G04 #@! TO.C,L5*
X245388000Y-27126500D03*
X245388000Y-28626500D03*
X240388000Y-28626500D03*
X240388000Y-27126500D03*
G04 #@! TD*
G04 #@! TO.C,L6*
X221338000Y-27126500D03*
X221338000Y-28626500D03*
X226338000Y-28626500D03*
X226338000Y-27126500D03*
G04 #@! TD*
G04 #@! TO.C,L7*
X207288000Y-27126500D03*
X207288000Y-28626500D03*
X202288000Y-28626500D03*
X202288000Y-27126500D03*
G04 #@! TD*
G04 #@! TO.C,L8*
X183238000Y-27126500D03*
X183238000Y-28626500D03*
X188238000Y-28626500D03*
X188238000Y-27126500D03*
G04 #@! TD*
G04 #@! TO.C,L9*
X169188000Y-27126500D03*
X169188000Y-28626500D03*
X164188000Y-28626500D03*
X164188000Y-27126500D03*
G04 #@! TD*
G04 #@! TO.C,L10*
X145138000Y-27126500D03*
X145138000Y-28626500D03*
X150138000Y-28626500D03*
X150138000Y-27126500D03*
G04 #@! TD*
G04 #@! TO.C,L11*
X131088000Y-27126500D03*
X131088000Y-28626500D03*
X126088000Y-28626500D03*
X126088000Y-27126500D03*
G04 #@! TD*
G04 #@! TO.C,L12*
X112038000Y-27126500D03*
X112038000Y-28626500D03*
X107038000Y-28626500D03*
X107038000Y-27126500D03*
G04 #@! TD*
G04 #@! TO.C,L13*
X87987500Y-27126500D03*
X87987500Y-28626500D03*
X92987500Y-28626500D03*
X92987500Y-27126500D03*
G04 #@! TD*
G04 #@! TO.C,L14*
X73937500Y-27126500D03*
X73937500Y-28626500D03*
X68937500Y-28626500D03*
X68937500Y-27126500D03*
G04 #@! TD*
G04 #@! TO.C,L15*
X49887500Y-27126500D03*
X49887500Y-28626500D03*
X54887500Y-28626500D03*
X54887500Y-27126500D03*
G04 #@! TD*
G04 #@! TO.C,L16*
X35837500Y-27126500D03*
X35837500Y-28626500D03*
X30837500Y-28626500D03*
X30837500Y-27126500D03*
G04 #@! TD*
G04 #@! TO.C,L17*
X35837500Y-47676500D03*
X35837500Y-46176500D03*
X30837500Y-46176500D03*
X30837500Y-47676500D03*
G04 #@! TD*
G04 #@! TO.C,L18*
X54650000Y-47676500D03*
X54650000Y-46176500D03*
X59650000Y-46176500D03*
X59650000Y-47676500D03*
G04 #@! TD*
G04 #@! TO.C,L19*
X83462500Y-47676500D03*
X83462500Y-46176500D03*
X78462500Y-46176500D03*
X78462500Y-47676500D03*
G04 #@! TD*
G04 #@! TO.C,L20*
X97512000Y-47676500D03*
X97512000Y-46176500D03*
X102512000Y-46176500D03*
X102512000Y-47676500D03*
G04 #@! TD*
G04 #@! TO.C,L21*
X116562000Y-47676500D03*
X116562000Y-46176500D03*
X121562000Y-46176500D03*
X121562000Y-47676500D03*
G04 #@! TD*
G04 #@! TO.C,L22*
X140612000Y-47676500D03*
X140612000Y-46176500D03*
X135612000Y-46176500D03*
X135612000Y-47676500D03*
G04 #@! TD*
G04 #@! TO.C,L23*
X154662000Y-47676500D03*
X154662000Y-46176500D03*
X159662000Y-46176500D03*
X159662000Y-47676500D03*
G04 #@! TD*
G04 #@! TO.C,L24*
X178712000Y-47676500D03*
X178712000Y-46176500D03*
X173712000Y-46176500D03*
X173712000Y-47676500D03*
G04 #@! TD*
G04 #@! TO.C,L25*
X192762000Y-47676500D03*
X192762000Y-46176500D03*
X197762000Y-46176500D03*
X197762000Y-47676500D03*
G04 #@! TD*
G04 #@! TO.C,L26*
X216812000Y-47676500D03*
X216812000Y-46176500D03*
X211812000Y-46176500D03*
X211812000Y-47676500D03*
G04 #@! TD*
G04 #@! TO.C,L27*
X230862000Y-47676500D03*
X230862000Y-46176500D03*
X235862000Y-46176500D03*
X235862000Y-47676500D03*
G04 #@! TD*
G04 #@! TO.C,L28*
X254912000Y-47676500D03*
X254912000Y-46176500D03*
X249912000Y-46176500D03*
X249912000Y-47676500D03*
G04 #@! TD*
G04 #@! TO.C,L29*
X268962000Y-47676500D03*
X268962000Y-46176500D03*
X273962000Y-46176500D03*
X273962000Y-47676500D03*
G04 #@! TD*
G04 #@! TO.C,L30*
X293012000Y-47676500D03*
X293012000Y-46176500D03*
X288012000Y-46176500D03*
X288012000Y-47676500D03*
G04 #@! TD*
G04 #@! TO.C,L31*
X316825000Y-47676500D03*
X316825000Y-46176500D03*
X311825000Y-46176500D03*
X311825000Y-47676500D03*
G04 #@! TD*
G04 #@! TO.C,L32*
X340638000Y-47676500D03*
X340638000Y-46176500D03*
X335638000Y-46176500D03*
X335638000Y-47676500D03*
G04 #@! TD*
G04 #@! TO.C,L33*
X323731000Y-65226500D03*
X323731000Y-66726500D03*
X328731000Y-66726500D03*
X328731000Y-65226500D03*
G04 #@! TD*
G04 #@! TO.C,L34*
X297775000Y-65226500D03*
X297775000Y-66726500D03*
X292775000Y-66726500D03*
X292775000Y-65226500D03*
G04 #@! TD*
G04 #@! TO.C,L35*
X273725000Y-65226500D03*
X273725000Y-66726500D03*
X278725000Y-66726500D03*
X278725000Y-65226500D03*
G04 #@! TD*
G04 #@! TO.C,L36*
X259675000Y-65226500D03*
X259675000Y-66726500D03*
X254675000Y-66726500D03*
X254675000Y-65226500D03*
G04 #@! TD*
G04 #@! TO.C,L37*
X235625000Y-65226500D03*
X235625000Y-66726500D03*
X240625000Y-66726500D03*
X240625000Y-65226500D03*
G04 #@! TD*
G04 #@! TO.C,L38*
X221448000Y-65226500D03*
X221448000Y-66726500D03*
X216448000Y-66726500D03*
X216448000Y-65226500D03*
G04 #@! TD*
G04 #@! TO.C,L39*
X197525000Y-65226500D03*
X197525000Y-66726500D03*
X202525000Y-66726500D03*
X202525000Y-65226500D03*
G04 #@! TD*
G04 #@! TO.C,L40*
X188174000Y-70687500D03*
X188174000Y-72187500D03*
X183174000Y-72187500D03*
X183174000Y-70687500D03*
G04 #@! TD*
G04 #@! TO.C,L41*
X168950000Y-65226500D03*
X168950000Y-66726500D03*
X173950000Y-66726500D03*
X173950000Y-65226500D03*
G04 #@! TD*
G04 #@! TO.C,L42*
X149900000Y-65226500D03*
X149900000Y-66726500D03*
X154900000Y-66726500D03*
X154900000Y-65226500D03*
G04 #@! TD*
G04 #@! TO.C,L43*
X135850000Y-65226500D03*
X135850000Y-66726500D03*
X130850000Y-66726500D03*
X130850000Y-65226500D03*
G04 #@! TD*
G04 #@! TO.C,L44*
X111800000Y-65226500D03*
X111800000Y-66726500D03*
X116800000Y-66726500D03*
X116800000Y-65226500D03*
G04 #@! TD*
G04 #@! TO.C,L45*
X97750000Y-65226500D03*
X97750000Y-66726500D03*
X92750000Y-66726500D03*
X92750000Y-65226500D03*
G04 #@! TD*
G04 #@! TO.C,L46*
X73700000Y-65226500D03*
X73700000Y-66726500D03*
X78700000Y-66726500D03*
X78700000Y-65226500D03*
G04 #@! TD*
G04 #@! TO.C,L47*
X52506200Y-65226500D03*
X52506200Y-66726500D03*
X47506200Y-66726500D03*
X47506200Y-65226500D03*
G04 #@! TD*
G04 #@! TO.C,L48*
X42981200Y-85776500D03*
X42981200Y-84276500D03*
X37981200Y-84276500D03*
X37981200Y-85776500D03*
G04 #@! TD*
G04 #@! TO.C,L49*
X73937500Y-85776500D03*
X73937500Y-84276500D03*
X68937500Y-84276500D03*
X68937500Y-85776500D03*
G04 #@! TD*
G04 #@! TO.C,L50*
X87924000Y-85776500D03*
X87924000Y-84276500D03*
X92924000Y-84276500D03*
X92924000Y-85776500D03*
G04 #@! TD*
G04 #@! TO.C,L51*
X112038000Y-85776500D03*
X112038000Y-84276500D03*
X107038000Y-84276500D03*
X107038000Y-85776500D03*
G04 #@! TD*
G04 #@! TO.C,L52*
X126088000Y-85776500D03*
X126088000Y-84276500D03*
X131088000Y-84276500D03*
X131088000Y-85776500D03*
G04 #@! TD*
G04 #@! TO.C,L53*
X150138000Y-85776500D03*
X150138000Y-84276500D03*
X145138000Y-84276500D03*
X145138000Y-85776500D03*
G04 #@! TD*
G04 #@! TO.C,L54*
X164188000Y-85776500D03*
X164188000Y-84276500D03*
X169188000Y-84276500D03*
X169188000Y-85776500D03*
G04 #@! TD*
G04 #@! TO.C,L55*
X188238000Y-85776500D03*
X188238000Y-84276500D03*
X183238000Y-84276500D03*
X183238000Y-85776500D03*
G04 #@! TD*
G04 #@! TO.C,L56*
X202288000Y-85776500D03*
X202288000Y-84276500D03*
X207288000Y-84276500D03*
X207288000Y-85776500D03*
G04 #@! TD*
G04 #@! TO.C,L57*
X221338000Y-85776500D03*
X221338000Y-84276500D03*
X226338000Y-84276500D03*
X226338000Y-85776500D03*
G04 #@! TD*
G04 #@! TO.C,L58*
X245388000Y-85776500D03*
X245388000Y-84276500D03*
X240388000Y-84276500D03*
X240388000Y-85776500D03*
G04 #@! TD*
G04 #@! TO.C,L59*
X264438000Y-85776500D03*
X264438000Y-84276500D03*
X259438000Y-84276500D03*
X259438000Y-85776500D03*
G04 #@! TD*
G04 #@! TO.C,L60*
X278488000Y-85776500D03*
X278488000Y-84276500D03*
X283488000Y-84276500D03*
X283488000Y-85776500D03*
G04 #@! TD*
G04 #@! TO.C,L61*
X302538000Y-85776500D03*
X302538000Y-84276500D03*
X297538000Y-84276500D03*
X297538000Y-85776500D03*
G04 #@! TD*
G04 #@! TO.C,L62*
X316588000Y-85776500D03*
X316588000Y-84276500D03*
X321588000Y-84276500D03*
X321588000Y-85776500D03*
G04 #@! TD*
G04 #@! TO.C,L63*
X357306000Y-85776500D03*
X357306000Y-84276500D03*
X352306000Y-84276500D03*
X352306000Y-85776500D03*
G04 #@! TD*
G04 #@! TO.C,L64*
X340638000Y-103314000D03*
X340638000Y-104814000D03*
X335638000Y-104814000D03*
X335638000Y-103314000D03*
G04 #@! TD*
G04 #@! TO.C,L65*
X316588000Y-103326000D03*
X316588000Y-104826000D03*
X321588000Y-104826000D03*
X321588000Y-103326000D03*
G04 #@! TD*
G04 #@! TO.C,L66*
X302538000Y-103326000D03*
X302538000Y-104826000D03*
X297538000Y-104826000D03*
X297538000Y-103326000D03*
G04 #@! TD*
D16*
G04 #@! TO.C,L67*
X231914000Y-114419000D03*
X233414000Y-114419000D03*
X233414000Y-109419000D03*
X231914000Y-109419000D03*
G04 #@! TD*
D15*
G04 #@! TO.C,L68*
X219194000Y-119074000D03*
X219194000Y-120574000D03*
X214194000Y-120574000D03*
X214194000Y-119074000D03*
G04 #@! TD*
D16*
G04 #@! TO.C,L69*
X201410000Y-114181000D03*
X199910000Y-114181000D03*
X199910000Y-119181000D03*
X201410000Y-119181000D03*
G04 #@! TD*
G04 #@! TO.C,L70*
X171438000Y-119181000D03*
X169938000Y-119181000D03*
X169938000Y-114181000D03*
X171438000Y-114181000D03*
G04 #@! TD*
D15*
G04 #@! TO.C,L71*
X152281000Y-119086000D03*
X152281000Y-120586000D03*
X157281000Y-120586000D03*
X157281000Y-119086000D03*
G04 #@! TD*
D16*
G04 #@! TO.C,L72*
X139434000Y-114419000D03*
X137934000Y-114419000D03*
X137934000Y-109419000D03*
X139434000Y-109419000D03*
G04 #@! TD*
D15*
G04 #@! TO.C,L73*
X47538000Y-103326000D03*
X47538000Y-104826000D03*
X52538000Y-104826000D03*
X52538000Y-103326000D03*
G04 #@! TD*
G04 #@! TO.C,L74*
X26075000Y-103338000D03*
X26075000Y-104838000D03*
X31075000Y-104838000D03*
X31075000Y-103338000D03*
G04 #@! TD*
M02*
