M48
;DRILL file {KiCad 5.0.2-bee76a0~70~ubuntu18.04.1} date 2020年02月19日 02時44分28秒
;FORMAT={-:-/ absolute / inch / decimal}
FMAT,2
INCH,TZ
T1C0.0157
T2C0.0300
T3C0.0320
T4C0.0394
T5C0.0394
T6C0.0512
T7C0.0866
T8C0.0472
T9C0.0689
T10C0.1181
T11C0.1200
T12C0.1570
T13C0.1890
%
G90
G05
T1
X1.025Y-1.0625
X1.4039Y-4.4125
X1.45Y-4.8125
X1.5Y-1.5375
X1.55Y-2.6625
X1.625Y-2.4875
X1.7Y-2.3125
X1.775Y-3.8125
X1.8Y-2.0375
X1.875Y-3.6625
X2.0684Y-4.127
X2.2Y-1.5875
X2.25Y-2.9125
X2.275Y-3.5375
X2.275Y-3.7875
X2.3414Y-1.4125
X2.5289Y-2.1625
X2.7141Y-3.318
X2.725Y-2.1875
X3.125Y-3.8375
X3.55Y-2.0625
X3.7Y-4.3375
X3.75Y-3.8375
X3.8405Y-1.4125
X3.85Y-3.6625
X3.875Y-3.5125
X3.95Y-1.5875
X4.028Y-2.9125
X4.2154Y-2.1625
X4.35Y-2.1375
X4.45Y-1.5625
X4.625Y-3.8625
X4.7Y-1.3125
X4.825Y-2.3125
X5.Y-4.5125
X5.05Y-2.0375
X5.175Y-1.5875
X5.3Y-3.8125
X5.3415Y-1.4125
X5.35Y-3.6625
X5.35Y-4.2375
X5.425Y-3.5375
X5.475Y-4.1875
X5.5289Y-2.9125
X5.575Y-1.9625
X5.675Y-4.5875
X5.7164Y-2.1625
X5.8148Y-4.4
X5.95Y-1.5625
X5.95Y-4.5875
X6.15Y-3.8375
X6.225Y-1.3125
X6.325Y-2.3125
X6.33Y-4.2975
X6.33Y-4.8975
X6.55Y-2.0625
X6.7Y-1.5875
X6.8Y-3.8125
X6.8415Y-1.4125
X6.8415Y-3.6625
X6.925Y-3.5375
X7.025Y-4.3125
X7.0289Y-2.9125
X7.125Y-2.5625
X7.2154Y-2.1625
X7.4109Y-3.377
X7.575Y-4.8875
X7.65Y-3.8375
X7.675Y-1.2875
X7.825Y-2.3125
X7.9295Y-4.4953
X8.075Y-2.0375
X8.15Y-4.6375
X8.225Y-3.8125
X8.25Y-4.4125
X8.3415Y-1.4125
X8.35Y-3.6625
X8.4Y-4.5875
X8.45Y-1.5625
X8.45Y-3.8125
X8.475Y-3.5625
X8.625Y-2.3375
X8.7164Y-2.1625
X8.76Y-4.2975
X8.76Y-4.9075
X8.8Y-2.0375
X8.9039Y-2.9125
X9.Y-1.5625
X9.05Y-3.8375
X9.1895Y-4.3078
X9.225Y-1.3125
X9.375Y-2.3375
X9.4641Y-3.318
X9.475Y-4.1275
X9.575Y-2.0625
X9.7Y-3.7875
X9.725Y-1.5625
X9.8415Y-1.4125
X9.8415Y-3.6625
X9.95Y-3.5375
X10.1Y-2.3625
X10.125Y-4.0375
X10.2164Y-2.1625
X10.25Y-2.0375
X10.275Y-3.0875
X10.4039Y-2.9125
X10.5Y-3.8375
X10.5915Y-3.6625
X10.7Y-1.3125
X10.725Y-2.3375
X10.85Y-4.0375
X11.05Y-2.0625
X11.15Y-3.0875
X11.175Y-1.5875
X11.25Y-2.8125
X11.275Y-3.8125
X11.3415Y-1.4125
X11.45Y-3.5125
X11.5Y-1.3875
X11.625Y-2.3375
X11.7164Y-2.1625
X11.9Y-3.0875
X11.9039Y-2.9125
X11.925Y-3.8375
X11.95Y-2.0625
X12.Y-2.7625
X12.1Y-1.3125
X12.1Y-3.6625
X12.1Y-4.4125
X12.15Y-1.0125
X12.25Y-3.6125
X12.375Y-2.8625
X12.4641Y-4.0675
X12.475Y-1.3125
X12.625Y-1.0375
X12.6539Y-2.1625
X12.6609Y-3.377
X12.775Y-3.8375
X12.8Y-2.2625
X12.84Y-3.6675
X12.84Y-4.4075
X12.9Y-2.0625
X12.94Y-2.5675
X13.025Y-0.9875
X13.1Y-1.5875
X13.125Y-2.9125
X13.15Y-2.6
X13.2Y-2.7875
X13.2164Y-1.4125
X13.275Y-3.6625
X13.375Y-4.5875
X13.41Y-1.8175
X13.41Y-4.0675
X13.575Y-1.0375
X13.575Y-1.3875
X13.5915Y-2.1625
X13.5915Y-4.4075
X13.6Y-2.9875
X13.8Y-1.7875
X13.825Y-2.0875
X13.8703Y-3.318
X13.925Y-2.2875
X14.025Y-3.7875
X14.07Y-3.3175
X14.15Y-1.6125
X14.15Y-2.0375
X14.2477Y-3.6625
X14.3Y-1.4875
X14.3Y-1.7875
X14.35Y-1.125
X14.35Y-3.4625
X14.375Y-2.0375
X14.425Y-1.8875
X14.45Y-4.3125
X14.475Y-1.5875
X14.525Y-1.8125
X14.55Y-2.1125
X13.785Y-1.0875
X13.8041Y-1.0416
X13.8041Y-1.1334
X13.85Y-1.0225
X13.85Y-1.1525
X13.8959Y-1.0416
X13.8959Y-1.1334
X13.915Y-1.0875
X14.785Y-1.0875
X14.8041Y-1.0416
X14.8041Y-1.1334
X14.85Y-1.0225
X14.85Y-1.1525
X14.8959Y-1.0416
X14.8959Y-1.1334
X14.915Y-1.0875
X14.81Y-3.0375
X14.8291Y-2.9916
X14.8291Y-3.0834
X14.875Y-2.9725
X14.875Y-3.1025
X14.9209Y-2.9916
X14.9209Y-3.0834
X14.94Y-3.0375
X13.76Y-3.0375
X13.7791Y-2.9916
X13.7791Y-3.0834
X13.825Y-2.9725
X13.825Y-3.1025
X13.8709Y-2.9916
X13.8709Y-3.0834
X13.89Y-3.0375
T2
X14.95Y-1.6391
X14.95Y-1.8359
T3
X14.0504Y-1.0925
X14.0504Y-1.1925
X14.0504Y-1.2925
X14.0504Y-1.3925
X14.0504Y-1.4925
X14.0504Y-1.5925
X14.0504Y-1.6925
X14.0504Y-1.7925
X14.0504Y-1.8925
X14.0504Y-1.9925
X14.0504Y-2.0925
X14.0504Y-2.1925
X14.6497Y-1.0925
X14.6497Y-1.1925
X14.6497Y-1.2925
X14.6497Y-1.3925
X14.6497Y-1.4925
X14.6497Y-1.5925
X14.6497Y-1.6925
X14.6497Y-1.7925
X14.6497Y-1.8925
X14.6497Y-1.9925
X14.6497Y-2.0925
X14.6497Y-2.1925
X14.225Y-2.3125
X14.325Y-2.3125
X14.425Y-2.3125
X14.525Y-2.3125
T5
X13.8175Y-2.4256
X13.8175Y-2.8194
T6
X14.8516Y-1.5997
X14.8516Y-1.8753
T7
X13.825Y-3.0375
X13.85Y-1.0875
X14.85Y-1.0875
X14.875Y-3.0375
T8
X14.6679Y-2.7325
X14.9434Y-2.7325
T9
X12.3625Y-3.5625
X12.7625Y-3.5625
X6.55Y-2.8125
X6.95Y-2.8125
X2.9875Y-2.0625
X3.3875Y-2.0625
X2.6125Y-1.3125
X3.0125Y-1.3125
X5.6125Y-1.3125
X6.0125Y-1.3125
X1.3937Y-3.5625
X1.7937Y-3.5625
X7.6875Y-4.3937
X7.6875Y-4.7937
X7.8625Y-3.5625
X8.2625Y-3.5625
X8.425Y-2.8125
X8.825Y-2.8125
X4.4875Y-2.0625
X4.8875Y-2.0625
X5.9875Y-2.0625
X6.3875Y-2.0625
X9.3625Y-1.3125
X9.7625Y-1.3125
X10.1125Y-1.3125
X10.5125Y-1.3125
X0.925Y-4.3125
X1.325Y-4.3125
X6.3625Y-3.5625
X6.7625Y-3.5625
X3.3625Y-1.3125
X3.7625Y-1.3125
X10.8625Y-3.5625
X11.2625Y-3.5625
X6.9375Y-4.3937
X6.9375Y-4.7937
X3.3625Y-3.5625
X3.7625Y-3.5625
X10.675Y-2.8125
X11.075Y-2.8125
X8.2375Y-2.0625
X8.6375Y-2.0625
X3.55Y-2.8125
X3.95Y-2.8125
X12.6437Y-2.8125
X13.0437Y-2.8125
X11.6125Y-3.5625
X12.0125Y-3.5625
X8.3313Y-4.5
X8.7313Y-4.5
X13.1125Y-4.3125
X13.5125Y-4.3125
X5.05Y-2.8125
X5.45Y-2.8125
X11.6125Y-1.3125
X12.0125Y-1.3125
X9.3625Y-3.5625
X9.7625Y-3.5625
X10.4875Y-2.0625
X10.8875Y-2.0625
X6.3625Y-1.3125
X6.7625Y-1.3125
X1.8625Y-1.3125
X2.2625Y-1.3125
X9.375Y-4.2063
X9.375Y-4.6063
X4.1125Y-1.3125
X4.5125Y-1.3125
X2.8Y-2.8125
X3.2Y-2.8125
X13.1125Y-2.0625
X13.5125Y-2.0625
X4.8625Y-1.3125
X5.2625Y-1.3125
X11.6125Y-4.3125
X12.0125Y-4.3125
X5.8937Y-4.5
X6.2937Y-4.5
X5.6125Y-3.5625
X6.0125Y-3.5625
X7.675Y-2.8125
X8.075Y-2.8125
X3.7375Y-2.0625
X4.1375Y-2.0625
X5.25Y-4.2063
X5.25Y-4.6063
X7.1125Y-1.3125
X7.5125Y-1.3125
X1.1125Y-1.3125
X1.5125Y-1.3125
X4.1125Y-3.5625
X4.5125Y-3.5625
X12.7375Y-1.3125
X13.1375Y-1.3125
X9.7375Y-2.0625
X10.1375Y-2.0625
X8.6125Y-3.5625
X9.0125Y-3.5625
X9.175Y-2.8125
X9.575Y-2.8125
X6.7375Y-2.0625
X7.1375Y-2.0625
X13.7687Y-3.5625
X14.1687Y-3.5625
X10.8625Y-1.3125
X11.2625Y-1.3125
X1.7687Y-4.3125
X2.1687Y-4.3125
X5.8Y-2.8125
X6.2Y-2.8125
X1.1125Y-2.0625
X1.5125Y-2.0625
X11.2375Y-2.0625
X11.6375Y-2.0625
X1.7687Y-2.8125
X2.1687Y-2.8125
X7.1125Y-3.5625
X7.5125Y-3.5625
X7.8625Y-1.3125
X8.2625Y-1.3125
X5.2375Y-2.0625
X5.6375Y-2.0625
X12.175Y-2.0625
X12.575Y-2.0625
X2.05Y-2.0625
X2.45Y-2.0625
X11.425Y-2.8125
X11.825Y-2.8125
X12.3625Y-4.3125
X12.7625Y-4.3125
X8.9875Y-2.0625
X9.3875Y-2.0625
X4.3Y-2.8125
X4.7Y-2.8125
X4.8625Y-3.5625
X5.2625Y-3.5625
X8.6125Y-1.3125
X9.0125Y-1.3125
X10.1125Y-3.5625
X10.5125Y-3.5625
X2.6125Y-3.5625
X3.0125Y-3.5625
X9.925Y-2.8125
X10.325Y-2.8125
X7.4875Y-2.0625
X7.8875Y-2.0625
T10
X7.2125Y-3.7625
X7.4625Y-3.6625
X7.9625Y-1.5125
X8.2125Y-1.4125
X5.3375Y-2.2625
X5.5875Y-2.1625
X12.275Y-2.2625
X12.525Y-2.1625
X2.15Y-2.2625
X2.4Y-2.1625
X11.525Y-3.0125
X11.775Y-2.9125
X12.4625Y-4.5125
X12.7125Y-4.4125
X9.0875Y-2.2625
X9.3375Y-2.1625
X4.4Y-3.0125
X4.65Y-2.9125
X4.9625Y-3.7625
X5.2125Y-3.6625
X8.7125Y-1.5125
X8.9625Y-1.4125
X10.2125Y-3.7625
X10.4625Y-3.6625
X2.7125Y-3.7625
X2.9625Y-3.6625
X10.025Y-3.0125
X10.275Y-2.9125
X7.5875Y-2.2625
X7.8375Y-2.1625
X12.4625Y-3.7625
X12.7125Y-3.6625
X6.65Y-3.0125
X6.9Y-2.9125
X3.0875Y-2.2625
X3.3375Y-2.1625
X2.7125Y-1.5125
X2.9625Y-1.4125
X5.7125Y-1.5125
X5.9625Y-1.4125
X1.4937Y-3.7625
X1.7437Y-3.6625
X7.4875Y-4.4937
X7.5875Y-4.7437
X7.9625Y-3.7625
X8.2125Y-3.6625
X8.525Y-3.0125
X8.775Y-2.9125
X4.5875Y-2.2625
X4.8375Y-2.1625
X6.0875Y-2.2625
X6.3375Y-2.1625
X9.4625Y-1.5125
X9.7125Y-1.4125
X10.2125Y-1.5125
X10.4625Y-1.4125
X1.025Y-4.5125
X1.275Y-4.4125
X6.4625Y-3.7625
X6.7125Y-3.6625
X3.4625Y-1.5125
X3.7125Y-1.4125
X10.9625Y-3.7625
X11.2125Y-3.6625
X7.0375Y-4.4437
X7.1375Y-4.6937
X3.4625Y-3.7625
X3.7125Y-3.6625
X10.775Y-3.0125
X11.025Y-2.9125
X8.3375Y-2.2625
X8.5875Y-2.1625
X3.65Y-3.0125
X3.9Y-2.9125
X12.7437Y-3.0125
X12.9937Y-2.9125
X11.7125Y-3.7625
X11.9625Y-3.6625
X8.3813Y-4.4
X8.6313Y-4.3
X13.2125Y-4.5125
X13.4625Y-4.4125
X5.15Y-3.0125
X5.4Y-2.9125
X11.7125Y-1.5125
X11.9625Y-1.4125
X9.4625Y-3.7625
X9.7125Y-3.6625
X10.5875Y-2.2625
X10.8375Y-2.1625
X6.4625Y-1.5125
X6.7125Y-1.4125
X1.9625Y-1.5125
X2.2125Y-1.4125
X9.475Y-4.2563
X9.575Y-4.5063
X4.2125Y-1.5125
X4.4625Y-1.4125
X2.9Y-3.0125
X3.15Y-2.9125
X13.2125Y-2.2625
X13.4625Y-2.1625
X4.9625Y-1.5125
X5.2125Y-1.4125
X11.7125Y-4.5125
X11.9625Y-4.4125
X5.9437Y-4.4
X6.1937Y-4.3
X5.7125Y-3.7625
X5.9625Y-3.6625
X7.775Y-3.0125
X8.025Y-2.9125
X3.8375Y-2.2625
X4.0875Y-2.1625
X5.05Y-4.3063
X5.15Y-4.5563
X7.2125Y-1.5125
X7.4625Y-1.4125
X1.2125Y-1.5125
X1.4625Y-1.4125
X4.2125Y-3.7625
X4.4625Y-3.6625
X12.8375Y-1.5125
X13.0875Y-1.4125
X9.8375Y-2.2625
X10.0875Y-2.1625
X8.7125Y-3.7625
X8.9625Y-3.6625
X9.275Y-3.0125
X9.525Y-2.9125
X6.8375Y-2.2625
X7.0875Y-2.1625
X13.8687Y-3.7625
X14.1187Y-3.6625
X10.9625Y-1.5125
X11.2125Y-1.4125
X1.8687Y-4.5125
X2.1187Y-4.4125
X5.9Y-3.0125
X6.15Y-2.9125
X1.2125Y-2.2625
X1.4625Y-2.1625
X11.3375Y-2.2625
X11.5875Y-2.1625
X1.8687Y-3.0125
X2.1187Y-2.9125
T11
X1.1237Y-3.8375
X2.0637Y-3.8375
X12.3737Y-3.0875
X13.3137Y-3.0875
X12.4675Y-1.0375
X13.4075Y-1.0375
X13.4987Y-3.8375
X14.4387Y-3.8375
T12
X1.125Y-4.3125
X6.5625Y-3.5625
X3.5625Y-1.3125
X11.0625Y-3.5625
X6.9375Y-4.5937
X3.5625Y-3.5625
X10.875Y-2.8125
X8.4375Y-2.0625
X3.75Y-2.8125
X12.3737Y-2.4875
X12.8437Y-2.8125
X13.3137Y-2.4875
X11.8125Y-3.5625
X8.5313Y-4.5
X13.3125Y-4.3125
X5.25Y-2.8125
X11.8125Y-1.3125
X9.5625Y-3.5625
X10.6875Y-2.0625
X6.5625Y-1.3125
X2.0625Y-1.3125
X9.375Y-4.4063
X4.3125Y-1.3125
X3.Y-2.8125
X13.3125Y-2.0625
X5.0625Y-1.3125
X11.8125Y-4.3125
X6.0937Y-4.5
X5.8125Y-3.5625
X7.875Y-2.8125
X3.9375Y-2.0625
X5.25Y-4.4063
X7.3125Y-1.3125
X1.3125Y-1.3125
X4.3125Y-3.5625
X12.4675Y-1.6375
X12.9375Y-1.3125
X13.4075Y-1.6375
X9.9375Y-2.0625
X8.8125Y-3.5625
X9.375Y-2.8125
X6.9375Y-2.0625
X13.4987Y-3.2375
X13.9687Y-3.5625
X14.4387Y-3.2375
X11.0625Y-1.3125
X1.9687Y-4.3125
X6.Y-2.8125
X1.3125Y-2.0625
X11.4375Y-2.0625
X1.9687Y-2.8125
X7.3125Y-3.5625
X8.0625Y-1.3125
X5.4375Y-2.0625
X12.375Y-2.0625
X2.25Y-2.0625
X11.625Y-2.8125
X12.5625Y-4.3125
X9.1875Y-2.0625
X4.5Y-2.8125
X5.0625Y-3.5625
X8.8125Y-1.3125
X10.3125Y-3.5625
X2.8125Y-3.5625
X10.125Y-2.8125
X7.6875Y-2.0625
X12.5625Y-3.5625
X6.75Y-2.8125
X3.1875Y-2.0625
X2.8125Y-1.3125
X5.8125Y-1.3125
X1.1237Y-3.2375
X1.5937Y-3.5625
X2.0637Y-3.2375
X7.6875Y-4.5937
X8.0625Y-3.5625
X8.625Y-2.8125
X4.6875Y-2.0625
X6.1875Y-2.0625
X9.5625Y-1.3125
X10.3125Y-1.3125
T13
X1.125Y-4.81
X14.375Y-4.8125
X7.3075Y-2.595
X0.875Y-1.3625
X13.85Y-1.3625
T4
X14.5478Y-2.6498G85X14.5281Y-2.6498
G05
X14.6068Y-2.8152G85X14.5871Y-2.8152
G05
X14.7643Y-2.8152G85X14.7446Y-2.8152
G05
X14.8824Y-2.8152G85X14.8627Y-2.8152
G05
T0
M30
