G04 #@! TF.GenerationSoftware,KiCad,Pcbnew,5.1.5+dfsg1-2build2*
G04 #@! TF.CreationDate,2021-01-12T18:32:37+09:00*
G04 #@! TF.ProjectId,amatelus73,616d6174-656c-4757-9337-332e6b696361,rev?*
G04 #@! TF.SameCoordinates,Original*
G04 #@! TF.FileFunction,Legend,Top*
G04 #@! TF.FilePolarity,Positive*
%FSLAX46Y46*%
G04 Gerber Fmt 4.6, Leading zero omitted, Abs format (unit mm)*
G04 Created by KiCad (PCBNEW 5.1.5+dfsg1-2build2) date 2021-01-12 18:32:37*
%MOMM*%
%LPD*%
G04 APERTURE LIST*
%ADD10C,0.300000*%
%ADD11C,0.120000*%
%ADD12C,0.150000*%
%ADD13C,0.125000*%
G04 APERTURE END LIST*
D10*
X355168571Y-112433571D02*
X355168571Y-110933571D01*
X355740000Y-110933571D01*
X355882857Y-111005000D01*
X355954285Y-111076428D01*
X356025714Y-111219285D01*
X356025714Y-111433571D01*
X355954285Y-111576428D01*
X355882857Y-111647857D01*
X355740000Y-111719285D01*
X355168571Y-111719285D01*
X357525714Y-112290714D02*
X357454285Y-112362142D01*
X357240000Y-112433571D01*
X357097142Y-112433571D01*
X356882857Y-112362142D01*
X356740000Y-112219285D01*
X356668571Y-112076428D01*
X356597142Y-111790714D01*
X356597142Y-111576428D01*
X356668571Y-111290714D01*
X356740000Y-111147857D01*
X356882857Y-111005000D01*
X357097142Y-110933571D01*
X357240000Y-110933571D01*
X357454285Y-111005000D01*
X357525714Y-111076428D01*
X358668571Y-111647857D02*
X358882857Y-111719285D01*
X358954285Y-111790714D01*
X359025714Y-111933571D01*
X359025714Y-112147857D01*
X358954285Y-112290714D01*
X358882857Y-112362142D01*
X358740000Y-112433571D01*
X358168571Y-112433571D01*
X358168571Y-110933571D01*
X358668571Y-110933571D01*
X358811428Y-111005000D01*
X358882857Y-111076428D01*
X358954285Y-111219285D01*
X358954285Y-111362142D01*
X358882857Y-111505000D01*
X358811428Y-111576428D01*
X358668571Y-111647857D01*
X358168571Y-111647857D01*
X360811428Y-112433571D02*
X360811428Y-110933571D01*
X361168571Y-110933571D01*
X361382857Y-111005000D01*
X361525714Y-111147857D01*
X361597142Y-111290714D01*
X361668571Y-111576428D01*
X361668571Y-111790714D01*
X361597142Y-112076428D01*
X361525714Y-112219285D01*
X361382857Y-112362142D01*
X361168571Y-112433571D01*
X360811428Y-112433571D01*
X362882857Y-112362142D02*
X362740000Y-112433571D01*
X362454285Y-112433571D01*
X362311428Y-112362142D01*
X362240000Y-112219285D01*
X362240000Y-111647857D01*
X362311428Y-111505000D01*
X362454285Y-111433571D01*
X362740000Y-111433571D01*
X362882857Y-111505000D01*
X362954285Y-111647857D01*
X362954285Y-111790714D01*
X362240000Y-111933571D01*
X363525714Y-112362142D02*
X363668571Y-112433571D01*
X363954285Y-112433571D01*
X364097142Y-112362142D01*
X364168571Y-112219285D01*
X364168571Y-112147857D01*
X364097142Y-112005000D01*
X363954285Y-111933571D01*
X363740000Y-111933571D01*
X363597142Y-111862142D01*
X363525714Y-111719285D01*
X363525714Y-111647857D01*
X363597142Y-111505000D01*
X363740000Y-111433571D01*
X363954285Y-111433571D01*
X364097142Y-111505000D01*
X364811428Y-112433571D02*
X364811428Y-111433571D01*
X364811428Y-110933571D02*
X364740000Y-111005000D01*
X364811428Y-111076428D01*
X364882857Y-111005000D01*
X364811428Y-110933571D01*
X364811428Y-111076428D01*
X366168571Y-111433571D02*
X366168571Y-112647857D01*
X366097142Y-112790714D01*
X366025714Y-112862142D01*
X365882857Y-112933571D01*
X365668571Y-112933571D01*
X365525714Y-112862142D01*
X366168571Y-112362142D02*
X366025714Y-112433571D01*
X365740000Y-112433571D01*
X365597142Y-112362142D01*
X365525714Y-112290714D01*
X365454285Y-112147857D01*
X365454285Y-111719285D01*
X365525714Y-111576428D01*
X365597142Y-111505000D01*
X365740000Y-111433571D01*
X366025714Y-111433571D01*
X366168571Y-111505000D01*
X366882857Y-111433571D02*
X366882857Y-112433571D01*
X366882857Y-111576428D02*
X366954285Y-111505000D01*
X367097142Y-111433571D01*
X367311428Y-111433571D01*
X367454285Y-111505000D01*
X367525714Y-111647857D01*
X367525714Y-112433571D01*
X368811428Y-112362142D02*
X368668571Y-112433571D01*
X368382857Y-112433571D01*
X368240000Y-112362142D01*
X368168571Y-112219285D01*
X368168571Y-111647857D01*
X368240000Y-111505000D01*
X368382857Y-111433571D01*
X368668571Y-111433571D01*
X368811428Y-111505000D01*
X368882857Y-111647857D01*
X368882857Y-111790714D01*
X368168571Y-111933571D01*
X370168571Y-112433571D02*
X370168571Y-110933571D01*
X370168571Y-112362142D02*
X370025714Y-112433571D01*
X369740000Y-112433571D01*
X369597142Y-112362142D01*
X369525714Y-112290714D01*
X369454285Y-112147857D01*
X369454285Y-111719285D01*
X369525714Y-111576428D01*
X369597142Y-111505000D01*
X369740000Y-111433571D01*
X370025714Y-111433571D01*
X370168571Y-111505000D01*
X372025714Y-112433571D02*
X372025714Y-110933571D01*
X372025714Y-111505000D02*
X372168571Y-111433571D01*
X372454285Y-111433571D01*
X372597142Y-111505000D01*
X372668571Y-111576428D01*
X372740000Y-111719285D01*
X372740000Y-112147857D01*
X372668571Y-112290714D01*
X372597142Y-112362142D01*
X372454285Y-112433571D01*
X372168571Y-112433571D01*
X372025714Y-112362142D01*
X373240000Y-111433571D02*
X373597142Y-112433571D01*
X373954285Y-111433571D02*
X373597142Y-112433571D01*
X373454285Y-112790714D01*
X373382857Y-112862142D01*
X373240000Y-112933571D01*
X360347142Y-114912142D02*
X360561428Y-114983571D01*
X360918571Y-114983571D01*
X361061428Y-114912142D01*
X361132857Y-114840714D01*
X361204285Y-114697857D01*
X361204285Y-114555000D01*
X361132857Y-114412142D01*
X361061428Y-114340714D01*
X360918571Y-114269285D01*
X360632857Y-114197857D01*
X360490000Y-114126428D01*
X360418571Y-114055000D01*
X360347142Y-113912142D01*
X360347142Y-113769285D01*
X360418571Y-113626428D01*
X360490000Y-113555000D01*
X360632857Y-113483571D01*
X360990000Y-113483571D01*
X361204285Y-113555000D01*
X361704285Y-113983571D02*
X361990000Y-114983571D01*
X362275714Y-114269285D01*
X362561428Y-114983571D01*
X362847142Y-113983571D01*
X364061428Y-114983571D02*
X364061428Y-114197857D01*
X363990000Y-114055000D01*
X363847142Y-113983571D01*
X363561428Y-113983571D01*
X363418571Y-114055000D01*
X364061428Y-114912142D02*
X363918571Y-114983571D01*
X363561428Y-114983571D01*
X363418571Y-114912142D01*
X363347142Y-114769285D01*
X363347142Y-114626428D01*
X363418571Y-114483571D01*
X363561428Y-114412142D01*
X363918571Y-114412142D01*
X364061428Y-114340714D01*
X364775714Y-113983571D02*
X364775714Y-114983571D01*
X364775714Y-114126428D02*
X364847142Y-114055000D01*
X364990000Y-113983571D01*
X365204285Y-113983571D01*
X365347142Y-114055000D01*
X365418571Y-114197857D01*
X365418571Y-114983571D01*
X366132857Y-114983571D02*
X366132857Y-113483571D01*
X366632857Y-114555000D01*
X367132857Y-113483571D01*
X367132857Y-114983571D01*
X368490000Y-114983571D02*
X368490000Y-114197857D01*
X368418571Y-114055000D01*
X368275714Y-113983571D01*
X367990000Y-113983571D01*
X367847142Y-114055000D01*
X368490000Y-114912142D02*
X368347142Y-114983571D01*
X367990000Y-114983571D01*
X367847142Y-114912142D01*
X367775714Y-114769285D01*
X367775714Y-114626428D01*
X367847142Y-114483571D01*
X367990000Y-114412142D01*
X368347142Y-114412142D01*
X368490000Y-114340714D01*
X368990000Y-113983571D02*
X369561428Y-113983571D01*
X369204285Y-113483571D02*
X369204285Y-114769285D01*
X369275714Y-114912142D01*
X369418571Y-114983571D01*
X369561428Y-114983571D01*
X370704285Y-114912142D02*
X370561428Y-114983571D01*
X370275714Y-114983571D01*
X370132857Y-114912142D01*
X370061428Y-114840714D01*
X369990000Y-114697857D01*
X369990000Y-114269285D01*
X370061428Y-114126428D01*
X370132857Y-114055000D01*
X370275714Y-113983571D01*
X370561428Y-113983571D01*
X370704285Y-114055000D01*
X371347142Y-114983571D02*
X371347142Y-113483571D01*
X371990000Y-114983571D02*
X371990000Y-114197857D01*
X371918571Y-114055000D01*
X371775714Y-113983571D01*
X371561428Y-113983571D01*
X371418571Y-114055000D01*
X371347142Y-114126428D01*
D11*
X377490000Y-42460000D02*
X377490000Y-45860000D01*
X377490000Y-40820000D02*
X377490000Y-41360000D01*
X374660000Y-48020000D02*
X374150000Y-48020000D01*
X374150000Y-47500000D02*
X374150000Y-48020000D01*
X374660000Y-47500000D02*
X374150000Y-47500000D01*
X377490000Y-46960000D02*
X377490000Y-47500000D01*
X374660000Y-40300000D02*
X374150000Y-40300000D01*
X374660000Y-40820000D02*
X374150000Y-40820000D01*
X377490000Y-47500000D02*
X377260000Y-47500000D01*
X381160000Y-40300000D02*
X377260000Y-40300000D01*
X374150000Y-40300000D02*
X374150000Y-40820000D01*
X381160000Y-48020000D02*
X377260000Y-48020000D01*
X381160000Y-40300000D02*
X381160000Y-48020000D01*
X377490000Y-40820000D02*
X377260000Y-40820000D01*
D12*
X381063500Y-66405500D02*
X381063500Y-72405500D01*
X381063500Y-72405500D02*
X369063500Y-72405500D01*
X369063500Y-72405500D02*
X369063500Y-66405500D01*
X369063500Y-66405500D02*
X381063500Y-66405500D01*
X360045000Y-62230000D02*
X360045000Y-59690000D01*
X370205000Y-59690000D02*
X370205000Y-62230000D01*
X360045000Y-59690000D02*
X370205000Y-59690000D01*
X360045000Y-62230000D02*
X370205000Y-62230000D01*
X354416500Y-78209000D02*
X366816500Y-78209000D01*
X366816500Y-65809000D02*
X354416500Y-65809000D01*
X366816500Y-78209000D02*
X366816500Y-74509000D01*
X354416500Y-78209000D02*
X354416500Y-74509000D01*
X366816500Y-65809000D02*
X366816500Y-69509000D01*
X354416500Y-65809000D02*
X354416500Y-69509000D01*
X361516500Y-77509000D02*
X359716500Y-77509000D01*
X363816500Y-66509000D02*
X357416500Y-66509000D01*
X373390000Y-56977500D02*
X372380000Y-56977500D01*
X355590000Y-56977500D02*
X356590000Y-56977500D01*
X373390000Y-55977500D02*
X373390000Y-56977500D01*
X355590000Y-55927500D02*
X355590000Y-56977500D01*
X373390000Y-23927500D02*
X372440000Y-23927500D01*
X355590000Y-23927500D02*
X356590000Y-23927500D01*
X373390000Y-23927500D02*
X373390000Y-24927500D01*
X355590000Y-23927500D02*
X355590000Y-24927500D01*
X360740000Y-21027500D02*
X360740000Y-22327500D01*
X360740000Y-22327500D02*
X368240000Y-22327500D01*
X368240000Y-22327500D02*
X368240000Y-21027500D01*
X368240000Y-21027500D02*
X360740000Y-21027500D01*
X363990000Y-21377500D02*
X364990000Y-21377500D01*
X364990000Y-21377500D02*
X364490000Y-22027500D01*
X364490000Y-22027500D02*
X363990000Y-21377500D01*
X364140000Y-21527500D02*
X364840000Y-21527500D01*
X364240000Y-21677500D02*
X364740000Y-21677500D01*
X364340000Y-21827500D02*
X364640000Y-21827500D01*
X352996476Y-87844261D02*
X353139333Y-87891880D01*
X353377428Y-87891880D01*
X353472666Y-87844261D01*
X353520285Y-87796642D01*
X353567904Y-87701404D01*
X353567904Y-87606166D01*
X353520285Y-87510928D01*
X353472666Y-87463309D01*
X353377428Y-87415690D01*
X353186952Y-87368071D01*
X353091714Y-87320452D01*
X353044095Y-87272833D01*
X352996476Y-87177595D01*
X352996476Y-87082357D01*
X353044095Y-86987119D01*
X353091714Y-86939500D01*
X353186952Y-86891880D01*
X353425047Y-86891880D01*
X353567904Y-86939500D01*
X353901238Y-86891880D02*
X354139333Y-87891880D01*
X354329809Y-87177595D01*
X354520285Y-87891880D01*
X354758380Y-86891880D01*
X355567904Y-86891880D02*
X355377428Y-86891880D01*
X355282190Y-86939500D01*
X355234571Y-86987119D01*
X355139333Y-87129976D01*
X355091714Y-87320452D01*
X355091714Y-87701404D01*
X355139333Y-87796642D01*
X355186952Y-87844261D01*
X355282190Y-87891880D01*
X355472666Y-87891880D01*
X355567904Y-87844261D01*
X355615523Y-87796642D01*
X355663142Y-87701404D01*
X355663142Y-87463309D01*
X355615523Y-87368071D01*
X355567904Y-87320452D01*
X355472666Y-87272833D01*
X355282190Y-87272833D01*
X355186952Y-87320452D01*
X355139333Y-87368071D01*
X355091714Y-87463309D01*
X356044095Y-86987119D02*
X356091714Y-86939500D01*
X356186952Y-86891880D01*
X356425047Y-86891880D01*
X356520285Y-86939500D01*
X356567904Y-86987119D01*
X356615523Y-87082357D01*
X356615523Y-87177595D01*
X356567904Y-87320452D01*
X355996476Y-87891880D01*
X356615523Y-87891880D01*
X324421476Y-68794261D02*
X324564333Y-68841880D01*
X324802428Y-68841880D01*
X324897666Y-68794261D01*
X324945285Y-68746642D01*
X324992904Y-68651404D01*
X324992904Y-68556166D01*
X324945285Y-68460928D01*
X324897666Y-68413309D01*
X324802428Y-68365690D01*
X324611952Y-68318071D01*
X324516714Y-68270452D01*
X324469095Y-68222833D01*
X324421476Y-68127595D01*
X324421476Y-68032357D01*
X324469095Y-67937119D01*
X324516714Y-67889500D01*
X324611952Y-67841880D01*
X324850047Y-67841880D01*
X324992904Y-67889500D01*
X325326238Y-67841880D02*
X325564333Y-68841880D01*
X325754809Y-68127595D01*
X325945285Y-68841880D01*
X326183380Y-67841880D01*
X326992904Y-68175214D02*
X326992904Y-68841880D01*
X326754809Y-67794261D02*
X326516714Y-68508547D01*
X327135761Y-68508547D01*
X327945285Y-67841880D02*
X327754809Y-67841880D01*
X327659571Y-67889500D01*
X327611952Y-67937119D01*
X327516714Y-68079976D01*
X327469095Y-68270452D01*
X327469095Y-68651404D01*
X327516714Y-68746642D01*
X327564333Y-68794261D01*
X327659571Y-68841880D01*
X327850047Y-68841880D01*
X327945285Y-68794261D01*
X327992904Y-68746642D01*
X328040523Y-68651404D01*
X328040523Y-68413309D01*
X327992904Y-68318071D01*
X327945285Y-68270452D01*
X327850047Y-68222833D01*
X327659571Y-68222833D01*
X327564333Y-68270452D01*
X327516714Y-68318071D01*
X327469095Y-68413309D01*
X38671676Y-87844261D02*
X38814533Y-87891880D01*
X39052628Y-87891880D01*
X39147866Y-87844261D01*
X39195485Y-87796642D01*
X39243104Y-87701404D01*
X39243104Y-87606166D01*
X39195485Y-87510928D01*
X39147866Y-87463309D01*
X39052628Y-87415690D01*
X38862152Y-87368071D01*
X38766914Y-87320452D01*
X38719295Y-87272833D01*
X38671676Y-87177595D01*
X38671676Y-87082357D01*
X38719295Y-86987119D01*
X38766914Y-86939500D01*
X38862152Y-86891880D01*
X39100247Y-86891880D01*
X39243104Y-86939500D01*
X39576438Y-86891880D02*
X39814533Y-87891880D01*
X40005009Y-87177595D01*
X40195485Y-87891880D01*
X40433580Y-86891880D01*
X41243104Y-87225214D02*
X41243104Y-87891880D01*
X41005009Y-86844261D02*
X40766914Y-87558547D01*
X41385961Y-87558547D01*
X41671676Y-86891880D02*
X42338342Y-86891880D01*
X41909771Y-87891880D01*
X326802476Y-30694261D02*
X326945333Y-30741880D01*
X327183428Y-30741880D01*
X327278666Y-30694261D01*
X327326285Y-30646642D01*
X327373904Y-30551404D01*
X327373904Y-30456166D01*
X327326285Y-30360928D01*
X327278666Y-30313309D01*
X327183428Y-30265690D01*
X326992952Y-30218071D01*
X326897714Y-30170452D01*
X326850095Y-30122833D01*
X326802476Y-30027595D01*
X326802476Y-29932357D01*
X326850095Y-29837119D01*
X326897714Y-29789500D01*
X326992952Y-29741880D01*
X327231047Y-29741880D01*
X327373904Y-29789500D01*
X327707238Y-29741880D02*
X327945333Y-30741880D01*
X328135809Y-30027595D01*
X328326285Y-30741880D01*
X328564380Y-29741880D01*
X329469142Y-30741880D02*
X328897714Y-30741880D01*
X329183428Y-30741880D02*
X329183428Y-29741880D01*
X329088190Y-29884738D01*
X328992952Y-29979976D01*
X328897714Y-30027595D01*
X330326285Y-29741880D02*
X330135809Y-29741880D01*
X330040571Y-29789500D01*
X329992952Y-29837119D01*
X329897714Y-29979976D01*
X329850095Y-30170452D01*
X329850095Y-30551404D01*
X329897714Y-30646642D01*
X329945333Y-30694261D01*
X330040571Y-30741880D01*
X330231047Y-30741880D01*
X330326285Y-30694261D01*
X330373904Y-30646642D01*
X330421523Y-30551404D01*
X330421523Y-30313309D01*
X330373904Y-30218071D01*
X330326285Y-30170452D01*
X330231047Y-30122833D01*
X330040571Y-30122833D01*
X329945333Y-30170452D01*
X329897714Y-30218071D01*
X329850095Y-30313309D01*
X48196676Y-106894761D02*
X48339533Y-106942380D01*
X48577628Y-106942380D01*
X48672866Y-106894761D01*
X48720485Y-106847142D01*
X48768104Y-106751904D01*
X48768104Y-106656666D01*
X48720485Y-106561428D01*
X48672866Y-106513809D01*
X48577628Y-106466190D01*
X48387152Y-106418571D01*
X48291914Y-106370952D01*
X48244295Y-106323333D01*
X48196676Y-106228095D01*
X48196676Y-106132857D01*
X48244295Y-106037619D01*
X48291914Y-105990000D01*
X48387152Y-105942380D01*
X48625247Y-105942380D01*
X48768104Y-105990000D01*
X49101438Y-105942380D02*
X49339533Y-106942380D01*
X49530009Y-106228095D01*
X49720485Y-106942380D01*
X49958580Y-105942380D01*
X50768104Y-105942380D02*
X50577628Y-105942380D01*
X50482390Y-105990000D01*
X50434771Y-106037619D01*
X50339533Y-106180476D01*
X50291914Y-106370952D01*
X50291914Y-106751904D01*
X50339533Y-106847142D01*
X50387152Y-106894761D01*
X50482390Y-106942380D01*
X50672866Y-106942380D01*
X50768104Y-106894761D01*
X50815723Y-106847142D01*
X50863342Y-106751904D01*
X50863342Y-106513809D01*
X50815723Y-106418571D01*
X50768104Y-106370952D01*
X50672866Y-106323333D01*
X50482390Y-106323333D01*
X50387152Y-106370952D01*
X50339533Y-106418571D01*
X50291914Y-106513809D01*
X51720485Y-106275714D02*
X51720485Y-106942380D01*
X51482390Y-105894761D02*
X51244295Y-106609047D01*
X51863342Y-106609047D01*
X236442476Y-115403511D02*
X236585333Y-115451130D01*
X236823428Y-115451130D01*
X236918666Y-115403511D01*
X236966285Y-115355892D01*
X237013904Y-115260654D01*
X237013904Y-115165416D01*
X236966285Y-115070178D01*
X236918666Y-115022559D01*
X236823428Y-114974940D01*
X236632952Y-114927321D01*
X236537714Y-114879702D01*
X236490095Y-114832083D01*
X236442476Y-114736845D01*
X236442476Y-114641607D01*
X236490095Y-114546369D01*
X236537714Y-114498750D01*
X236632952Y-114451130D01*
X236871047Y-114451130D01*
X237013904Y-114498750D01*
X237347238Y-114451130D02*
X237585333Y-115451130D01*
X237775809Y-114736845D01*
X237966285Y-115451130D01*
X238204380Y-114451130D01*
X238490095Y-114451130D02*
X239156761Y-114451130D01*
X238728190Y-115451130D01*
X239728190Y-114451130D02*
X239823428Y-114451130D01*
X239918666Y-114498750D01*
X239966285Y-114546369D01*
X240013904Y-114641607D01*
X240061523Y-114832083D01*
X240061523Y-115070178D01*
X240013904Y-115260654D01*
X239966285Y-115355892D01*
X239918666Y-115403511D01*
X239823428Y-115451130D01*
X239728190Y-115451130D01*
X239632952Y-115403511D01*
X239585333Y-115355892D01*
X239537714Y-115260654D01*
X239490095Y-115070178D01*
X239490095Y-114832083D01*
X239537714Y-114641607D01*
X239585333Y-114546369D01*
X239632952Y-114498750D01*
X239728190Y-114451130D01*
X214884476Y-117752761D02*
X215027333Y-117800380D01*
X215265428Y-117800380D01*
X215360666Y-117752761D01*
X215408285Y-117705142D01*
X215455904Y-117609904D01*
X215455904Y-117514666D01*
X215408285Y-117419428D01*
X215360666Y-117371809D01*
X215265428Y-117324190D01*
X215074952Y-117276571D01*
X214979714Y-117228952D01*
X214932095Y-117181333D01*
X214884476Y-117086095D01*
X214884476Y-116990857D01*
X214932095Y-116895619D01*
X214979714Y-116848000D01*
X215074952Y-116800380D01*
X215313047Y-116800380D01*
X215455904Y-116848000D01*
X215789238Y-116800380D02*
X216027333Y-117800380D01*
X216217809Y-117086095D01*
X216408285Y-117800380D01*
X216646380Y-116800380D01*
X217455904Y-116800380D02*
X217265428Y-116800380D01*
X217170190Y-116848000D01*
X217122571Y-116895619D01*
X217027333Y-117038476D01*
X216979714Y-117228952D01*
X216979714Y-117609904D01*
X217027333Y-117705142D01*
X217074952Y-117752761D01*
X217170190Y-117800380D01*
X217360666Y-117800380D01*
X217455904Y-117752761D01*
X217503523Y-117705142D01*
X217551142Y-117609904D01*
X217551142Y-117371809D01*
X217503523Y-117276571D01*
X217455904Y-117228952D01*
X217360666Y-117181333D01*
X217170190Y-117181333D01*
X217074952Y-117228952D01*
X217027333Y-117276571D01*
X216979714Y-117371809D01*
X218027333Y-117800380D02*
X218217809Y-117800380D01*
X218313047Y-117752761D01*
X218360666Y-117705142D01*
X218455904Y-117562285D01*
X218503523Y-117371809D01*
X218503523Y-116990857D01*
X218455904Y-116895619D01*
X218408285Y-116848000D01*
X218313047Y-116800380D01*
X218122571Y-116800380D01*
X218027333Y-116848000D01*
X217979714Y-116895619D01*
X217932095Y-116990857D01*
X217932095Y-117228952D01*
X217979714Y-117324190D01*
X218027333Y-117371809D01*
X218122571Y-117419428D01*
X218313047Y-117419428D01*
X218408285Y-117371809D01*
X218455904Y-117324190D01*
X218503523Y-117228952D01*
X131540476Y-109307511D02*
X131683333Y-109355130D01*
X131921428Y-109355130D01*
X132016666Y-109307511D01*
X132064285Y-109259892D01*
X132111904Y-109164654D01*
X132111904Y-109069416D01*
X132064285Y-108974178D01*
X132016666Y-108926559D01*
X131921428Y-108878940D01*
X131730952Y-108831321D01*
X131635714Y-108783702D01*
X131588095Y-108736083D01*
X131540476Y-108640845D01*
X131540476Y-108545607D01*
X131588095Y-108450369D01*
X131635714Y-108402750D01*
X131730952Y-108355130D01*
X131969047Y-108355130D01*
X132111904Y-108402750D01*
X132445238Y-108355130D02*
X132683333Y-109355130D01*
X132873809Y-108640845D01*
X133064285Y-109355130D01*
X133302380Y-108355130D01*
X134111904Y-108355130D02*
X133921428Y-108355130D01*
X133826190Y-108402750D01*
X133778571Y-108450369D01*
X133683333Y-108593226D01*
X133635714Y-108783702D01*
X133635714Y-109164654D01*
X133683333Y-109259892D01*
X133730952Y-109307511D01*
X133826190Y-109355130D01*
X134016666Y-109355130D01*
X134111904Y-109307511D01*
X134159523Y-109259892D01*
X134207142Y-109164654D01*
X134207142Y-108926559D01*
X134159523Y-108831321D01*
X134111904Y-108783702D01*
X134016666Y-108736083D01*
X133826190Y-108736083D01*
X133730952Y-108783702D01*
X133683333Y-108831321D01*
X133635714Y-108926559D01*
X135111904Y-108355130D02*
X134635714Y-108355130D01*
X134588095Y-108831321D01*
X134635714Y-108783702D01*
X134730952Y-108736083D01*
X134969047Y-108736083D01*
X135064285Y-108783702D01*
X135111904Y-108831321D01*
X135159523Y-108926559D01*
X135159523Y-109164654D01*
X135111904Y-109259892D01*
X135064285Y-109307511D01*
X134969047Y-109355130D01*
X134730952Y-109355130D01*
X134635714Y-109307511D01*
X134588095Y-109259892D01*
X152971476Y-117752761D02*
X153114333Y-117800380D01*
X153352428Y-117800380D01*
X153447666Y-117752761D01*
X153495285Y-117705142D01*
X153542904Y-117609904D01*
X153542904Y-117514666D01*
X153495285Y-117419428D01*
X153447666Y-117371809D01*
X153352428Y-117324190D01*
X153161952Y-117276571D01*
X153066714Y-117228952D01*
X153019095Y-117181333D01*
X152971476Y-117086095D01*
X152971476Y-116990857D01*
X153019095Y-116895619D01*
X153066714Y-116848000D01*
X153161952Y-116800380D01*
X153400047Y-116800380D01*
X153542904Y-116848000D01*
X153876238Y-116800380D02*
X154114333Y-117800380D01*
X154304809Y-117086095D01*
X154495285Y-117800380D01*
X154733380Y-116800380D01*
X155542904Y-116800380D02*
X155352428Y-116800380D01*
X155257190Y-116848000D01*
X155209571Y-116895619D01*
X155114333Y-117038476D01*
X155066714Y-117228952D01*
X155066714Y-117609904D01*
X155114333Y-117705142D01*
X155161952Y-117752761D01*
X155257190Y-117800380D01*
X155447666Y-117800380D01*
X155542904Y-117752761D01*
X155590523Y-117705142D01*
X155638142Y-117609904D01*
X155638142Y-117371809D01*
X155590523Y-117276571D01*
X155542904Y-117228952D01*
X155447666Y-117181333D01*
X155257190Y-117181333D01*
X155161952Y-117228952D01*
X155114333Y-117276571D01*
X155066714Y-117371809D01*
X156495285Y-116800380D02*
X156304809Y-116800380D01*
X156209571Y-116848000D01*
X156161952Y-116895619D01*
X156066714Y-117038476D01*
X156019095Y-117228952D01*
X156019095Y-117609904D01*
X156066714Y-117705142D01*
X156114333Y-117752761D01*
X156209571Y-117800380D01*
X156400047Y-117800380D01*
X156495285Y-117752761D01*
X156542904Y-117705142D01*
X156590523Y-117609904D01*
X156590523Y-117371809D01*
X156542904Y-117276571D01*
X156495285Y-117228952D01*
X156400047Y-117181333D01*
X156209571Y-117181333D01*
X156114333Y-117228952D01*
X156066714Y-117276571D01*
X156019095Y-117371809D01*
X174465976Y-120229011D02*
X174608833Y-120276630D01*
X174846928Y-120276630D01*
X174942166Y-120229011D01*
X174989785Y-120181392D01*
X175037404Y-120086154D01*
X175037404Y-119990916D01*
X174989785Y-119895678D01*
X174942166Y-119848059D01*
X174846928Y-119800440D01*
X174656452Y-119752821D01*
X174561214Y-119705202D01*
X174513595Y-119657583D01*
X174465976Y-119562345D01*
X174465976Y-119467107D01*
X174513595Y-119371869D01*
X174561214Y-119324250D01*
X174656452Y-119276630D01*
X174894547Y-119276630D01*
X175037404Y-119324250D01*
X175370738Y-119276630D02*
X175608833Y-120276630D01*
X175799309Y-119562345D01*
X175989785Y-120276630D01*
X176227880Y-119276630D01*
X177037404Y-119276630D02*
X176846928Y-119276630D01*
X176751690Y-119324250D01*
X176704071Y-119371869D01*
X176608833Y-119514726D01*
X176561214Y-119705202D01*
X176561214Y-120086154D01*
X176608833Y-120181392D01*
X176656452Y-120229011D01*
X176751690Y-120276630D01*
X176942166Y-120276630D01*
X177037404Y-120229011D01*
X177085023Y-120181392D01*
X177132642Y-120086154D01*
X177132642Y-119848059D01*
X177085023Y-119752821D01*
X177037404Y-119705202D01*
X176942166Y-119657583D01*
X176751690Y-119657583D01*
X176656452Y-119705202D01*
X176608833Y-119752821D01*
X176561214Y-119848059D01*
X177465976Y-119276630D02*
X178132642Y-119276630D01*
X177704071Y-120276630D01*
X193515976Y-113879011D02*
X193658833Y-113926630D01*
X193896928Y-113926630D01*
X193992166Y-113879011D01*
X194039785Y-113831392D01*
X194087404Y-113736154D01*
X194087404Y-113640916D01*
X194039785Y-113545678D01*
X193992166Y-113498059D01*
X193896928Y-113450440D01*
X193706452Y-113402821D01*
X193611214Y-113355202D01*
X193563595Y-113307583D01*
X193515976Y-113212345D01*
X193515976Y-113117107D01*
X193563595Y-113021869D01*
X193611214Y-112974250D01*
X193706452Y-112926630D01*
X193944547Y-112926630D01*
X194087404Y-112974250D01*
X194420738Y-112926630D02*
X194658833Y-113926630D01*
X194849309Y-113212345D01*
X195039785Y-113926630D01*
X195277880Y-112926630D01*
X196087404Y-112926630D02*
X195896928Y-112926630D01*
X195801690Y-112974250D01*
X195754071Y-113021869D01*
X195658833Y-113164726D01*
X195611214Y-113355202D01*
X195611214Y-113736154D01*
X195658833Y-113831392D01*
X195706452Y-113879011D01*
X195801690Y-113926630D01*
X195992166Y-113926630D01*
X196087404Y-113879011D01*
X196135023Y-113831392D01*
X196182642Y-113736154D01*
X196182642Y-113498059D01*
X196135023Y-113402821D01*
X196087404Y-113355202D01*
X195992166Y-113307583D01*
X195801690Y-113307583D01*
X195706452Y-113355202D01*
X195658833Y-113402821D01*
X195611214Y-113498059D01*
X196754071Y-113355202D02*
X196658833Y-113307583D01*
X196611214Y-113259964D01*
X196563595Y-113164726D01*
X196563595Y-113117107D01*
X196611214Y-113021869D01*
X196658833Y-112974250D01*
X196754071Y-112926630D01*
X196944547Y-112926630D01*
X197039785Y-112974250D01*
X197087404Y-113021869D01*
X197135023Y-113117107D01*
X197135023Y-113164726D01*
X197087404Y-113259964D01*
X197039785Y-113307583D01*
X196944547Y-113355202D01*
X196754071Y-113355202D01*
X196658833Y-113402821D01*
X196611214Y-113450440D01*
X196563595Y-113545678D01*
X196563595Y-113736154D01*
X196611214Y-113831392D01*
X196658833Y-113879011D01*
X196754071Y-113926630D01*
X196944547Y-113926630D01*
X197039785Y-113879011D01*
X197087404Y-113831392D01*
X197135023Y-113736154D01*
X197135023Y-113545678D01*
X197087404Y-113450440D01*
X197039785Y-113402821D01*
X196944547Y-113355202D01*
X48196676Y-68794261D02*
X48339533Y-68841880D01*
X48577628Y-68841880D01*
X48672866Y-68794261D01*
X48720485Y-68746642D01*
X48768104Y-68651404D01*
X48768104Y-68556166D01*
X48720485Y-68460928D01*
X48672866Y-68413309D01*
X48577628Y-68365690D01*
X48387152Y-68318071D01*
X48291914Y-68270452D01*
X48244295Y-68222833D01*
X48196676Y-68127595D01*
X48196676Y-68032357D01*
X48244295Y-67937119D01*
X48291914Y-67889500D01*
X48387152Y-67841880D01*
X48625247Y-67841880D01*
X48768104Y-67889500D01*
X49101438Y-67841880D02*
X49339533Y-68841880D01*
X49530009Y-68127595D01*
X49720485Y-68841880D01*
X49958580Y-67841880D01*
X50244295Y-67841880D02*
X50863342Y-67841880D01*
X50530009Y-68222833D01*
X50672866Y-68222833D01*
X50768104Y-68270452D01*
X50815723Y-68318071D01*
X50863342Y-68413309D01*
X50863342Y-68651404D01*
X50815723Y-68746642D01*
X50768104Y-68794261D01*
X50672866Y-68841880D01*
X50387152Y-68841880D01*
X50291914Y-68794261D01*
X50244295Y-68746642D01*
X51196676Y-67841880D02*
X51815723Y-67841880D01*
X51482390Y-68222833D01*
X51625247Y-68222833D01*
X51720485Y-68270452D01*
X51768104Y-68318071D01*
X51815723Y-68413309D01*
X51815723Y-68651404D01*
X51768104Y-68746642D01*
X51720485Y-68794261D01*
X51625247Y-68841880D01*
X51339533Y-68841880D01*
X51244295Y-68794261D01*
X51196676Y-68746642D01*
X55340476Y-49744261D02*
X55483333Y-49791880D01*
X55721428Y-49791880D01*
X55816666Y-49744261D01*
X55864285Y-49696642D01*
X55911904Y-49601404D01*
X55911904Y-49506166D01*
X55864285Y-49410928D01*
X55816666Y-49363309D01*
X55721428Y-49315690D01*
X55530952Y-49268071D01*
X55435714Y-49220452D01*
X55388095Y-49172833D01*
X55340476Y-49077595D01*
X55340476Y-48982357D01*
X55388095Y-48887119D01*
X55435714Y-48839500D01*
X55530952Y-48791880D01*
X55769047Y-48791880D01*
X55911904Y-48839500D01*
X56245238Y-48791880D02*
X56483333Y-49791880D01*
X56673809Y-49077595D01*
X56864285Y-49791880D01*
X57102380Y-48791880D01*
X58007142Y-49791880D02*
X57435714Y-49791880D01*
X57721428Y-49791880D02*
X57721428Y-48791880D01*
X57626190Y-48934738D01*
X57530952Y-49029976D01*
X57435714Y-49077595D01*
X58578571Y-49220452D02*
X58483333Y-49172833D01*
X58435714Y-49125214D01*
X58388095Y-49029976D01*
X58388095Y-48982357D01*
X58435714Y-48887119D01*
X58483333Y-48839500D01*
X58578571Y-48791880D01*
X58769047Y-48791880D01*
X58864285Y-48839500D01*
X58911904Y-48887119D01*
X58959523Y-48982357D01*
X58959523Y-49029976D01*
X58911904Y-49125214D01*
X58864285Y-49172833D01*
X58769047Y-49220452D01*
X58578571Y-49220452D01*
X58483333Y-49268071D01*
X58435714Y-49315690D01*
X58388095Y-49410928D01*
X58388095Y-49601404D01*
X58435714Y-49696642D01*
X58483333Y-49744261D01*
X58578571Y-49791880D01*
X58769047Y-49791880D01*
X58864285Y-49744261D01*
X58911904Y-49696642D01*
X58959523Y-49601404D01*
X58959523Y-49410928D01*
X58911904Y-49315690D01*
X58864285Y-49268071D01*
X58769047Y-49220452D01*
X312515476Y-49744261D02*
X312658333Y-49791880D01*
X312896428Y-49791880D01*
X312991666Y-49744261D01*
X313039285Y-49696642D01*
X313086904Y-49601404D01*
X313086904Y-49506166D01*
X313039285Y-49410928D01*
X312991666Y-49363309D01*
X312896428Y-49315690D01*
X312705952Y-49268071D01*
X312610714Y-49220452D01*
X312563095Y-49172833D01*
X312515476Y-49077595D01*
X312515476Y-48982357D01*
X312563095Y-48887119D01*
X312610714Y-48839500D01*
X312705952Y-48791880D01*
X312944047Y-48791880D01*
X313086904Y-48839500D01*
X313420238Y-48791880D02*
X313658333Y-49791880D01*
X313848809Y-49077595D01*
X314039285Y-49791880D01*
X314277380Y-48791880D01*
X314563095Y-48791880D02*
X315182142Y-48791880D01*
X314848809Y-49172833D01*
X314991666Y-49172833D01*
X315086904Y-49220452D01*
X315134523Y-49268071D01*
X315182142Y-49363309D01*
X315182142Y-49601404D01*
X315134523Y-49696642D01*
X315086904Y-49744261D01*
X314991666Y-49791880D01*
X314705952Y-49791880D01*
X314610714Y-49744261D01*
X314563095Y-49696642D01*
X316134523Y-49791880D02*
X315563095Y-49791880D01*
X315848809Y-49791880D02*
X315848809Y-48791880D01*
X315753571Y-48934738D01*
X315658333Y-49029976D01*
X315563095Y-49077595D01*
X336328476Y-49744261D02*
X336471333Y-49791880D01*
X336709428Y-49791880D01*
X336804666Y-49744261D01*
X336852285Y-49696642D01*
X336899904Y-49601404D01*
X336899904Y-49506166D01*
X336852285Y-49410928D01*
X336804666Y-49363309D01*
X336709428Y-49315690D01*
X336518952Y-49268071D01*
X336423714Y-49220452D01*
X336376095Y-49172833D01*
X336328476Y-49077595D01*
X336328476Y-48982357D01*
X336376095Y-48887119D01*
X336423714Y-48839500D01*
X336518952Y-48791880D01*
X336757047Y-48791880D01*
X336899904Y-48839500D01*
X337233238Y-48791880D02*
X337471333Y-49791880D01*
X337661809Y-49077595D01*
X337852285Y-49791880D01*
X338090380Y-48791880D01*
X338376095Y-48791880D02*
X338995142Y-48791880D01*
X338661809Y-49172833D01*
X338804666Y-49172833D01*
X338899904Y-49220452D01*
X338947523Y-49268071D01*
X338995142Y-49363309D01*
X338995142Y-49601404D01*
X338947523Y-49696642D01*
X338899904Y-49744261D01*
X338804666Y-49791880D01*
X338518952Y-49791880D01*
X338423714Y-49744261D01*
X338376095Y-49696642D01*
X339376095Y-48887119D02*
X339423714Y-48839500D01*
X339518952Y-48791880D01*
X339757047Y-48791880D01*
X339852285Y-48839500D01*
X339899904Y-48887119D01*
X339947523Y-48982357D01*
X339947523Y-49077595D01*
X339899904Y-49220452D01*
X339328476Y-49791880D01*
X339947523Y-49791880D01*
X202978476Y-30694261D02*
X203121333Y-30741880D01*
X203359428Y-30741880D01*
X203454666Y-30694261D01*
X203502285Y-30646642D01*
X203549904Y-30551404D01*
X203549904Y-30456166D01*
X203502285Y-30360928D01*
X203454666Y-30313309D01*
X203359428Y-30265690D01*
X203168952Y-30218071D01*
X203073714Y-30170452D01*
X203026095Y-30122833D01*
X202978476Y-30027595D01*
X202978476Y-29932357D01*
X203026095Y-29837119D01*
X203073714Y-29789500D01*
X203168952Y-29741880D01*
X203407047Y-29741880D01*
X203549904Y-29789500D01*
X203883238Y-29741880D02*
X204121333Y-30741880D01*
X204311809Y-30027595D01*
X204502285Y-30741880D01*
X204740380Y-29741880D01*
X205645142Y-30741880D02*
X205073714Y-30741880D01*
X205359428Y-30741880D02*
X205359428Y-29741880D01*
X205264190Y-29884738D01*
X205168952Y-29979976D01*
X205073714Y-30027595D01*
X206264190Y-29741880D02*
X206359428Y-29741880D01*
X206454666Y-29789500D01*
X206502285Y-29837119D01*
X206549904Y-29932357D01*
X206597523Y-30122833D01*
X206597523Y-30360928D01*
X206549904Y-30551404D01*
X206502285Y-30646642D01*
X206454666Y-30694261D01*
X206359428Y-30741880D01*
X206264190Y-30741880D01*
X206168952Y-30694261D01*
X206121333Y-30646642D01*
X206073714Y-30551404D01*
X206026095Y-30360928D01*
X206026095Y-30122833D01*
X206073714Y-29932357D01*
X206121333Y-29837119D01*
X206168952Y-29789500D01*
X206264190Y-29741880D01*
X145828476Y-87844261D02*
X145971333Y-87891880D01*
X146209428Y-87891880D01*
X146304666Y-87844261D01*
X146352285Y-87796642D01*
X146399904Y-87701404D01*
X146399904Y-87606166D01*
X146352285Y-87510928D01*
X146304666Y-87463309D01*
X146209428Y-87415690D01*
X146018952Y-87368071D01*
X145923714Y-87320452D01*
X145876095Y-87272833D01*
X145828476Y-87177595D01*
X145828476Y-87082357D01*
X145876095Y-86987119D01*
X145923714Y-86939500D01*
X146018952Y-86891880D01*
X146257047Y-86891880D01*
X146399904Y-86939500D01*
X146733238Y-86891880D02*
X146971333Y-87891880D01*
X147161809Y-87177595D01*
X147352285Y-87891880D01*
X147590380Y-86891880D01*
X148447523Y-86891880D02*
X147971333Y-86891880D01*
X147923714Y-87368071D01*
X147971333Y-87320452D01*
X148066571Y-87272833D01*
X148304666Y-87272833D01*
X148399904Y-87320452D01*
X148447523Y-87368071D01*
X148495142Y-87463309D01*
X148495142Y-87701404D01*
X148447523Y-87796642D01*
X148399904Y-87844261D01*
X148304666Y-87891880D01*
X148066571Y-87891880D01*
X147971333Y-87844261D01*
X147923714Y-87796642D01*
X148876095Y-86987119D02*
X148923714Y-86939500D01*
X149018952Y-86891880D01*
X149257047Y-86891880D01*
X149352285Y-86939500D01*
X149399904Y-86987119D01*
X149447523Y-87082357D01*
X149447523Y-87177595D01*
X149399904Y-87320452D01*
X148828476Y-87891880D01*
X149447523Y-87891880D01*
X70104166Y-30694261D02*
X70247023Y-30741880D01*
X70485119Y-30741880D01*
X70580357Y-30694261D01*
X70627976Y-30646642D01*
X70675595Y-30551404D01*
X70675595Y-30456166D01*
X70627976Y-30360928D01*
X70580357Y-30313309D01*
X70485119Y-30265690D01*
X70294642Y-30218071D01*
X70199404Y-30170452D01*
X70151785Y-30122833D01*
X70104166Y-30027595D01*
X70104166Y-29932357D01*
X70151785Y-29837119D01*
X70199404Y-29789500D01*
X70294642Y-29741880D01*
X70532738Y-29741880D01*
X70675595Y-29789500D01*
X71008928Y-29741880D02*
X71247023Y-30741880D01*
X71437500Y-30027595D01*
X71627976Y-30741880D01*
X71866071Y-29741880D01*
X72151785Y-29741880D02*
X72770833Y-29741880D01*
X72437500Y-30122833D01*
X72580357Y-30122833D01*
X72675595Y-30170452D01*
X72723214Y-30218071D01*
X72770833Y-30313309D01*
X72770833Y-30551404D01*
X72723214Y-30646642D01*
X72675595Y-30694261D01*
X72580357Y-30741880D01*
X72294642Y-30741880D01*
X72199404Y-30694261D01*
X72151785Y-30646642D01*
X32004166Y-30694261D02*
X32147023Y-30741880D01*
X32385119Y-30741880D01*
X32480357Y-30694261D01*
X32527976Y-30646642D01*
X32575595Y-30551404D01*
X32575595Y-30456166D01*
X32527976Y-30360928D01*
X32480357Y-30313309D01*
X32385119Y-30265690D01*
X32194642Y-30218071D01*
X32099404Y-30170452D01*
X32051785Y-30122833D01*
X32004166Y-30027595D01*
X32004166Y-29932357D01*
X32051785Y-29837119D01*
X32099404Y-29789500D01*
X32194642Y-29741880D01*
X32432738Y-29741880D01*
X32575595Y-29789500D01*
X32908928Y-29741880D02*
X33147023Y-30741880D01*
X33337500Y-30027595D01*
X33527976Y-30741880D01*
X33766071Y-29741880D01*
X34670833Y-30741880D02*
X34099404Y-30741880D01*
X34385119Y-30741880D02*
X34385119Y-29741880D01*
X34289880Y-29884738D01*
X34194642Y-29979976D01*
X34099404Y-30027595D01*
X51054166Y-30694261D02*
X51197023Y-30741880D01*
X51435119Y-30741880D01*
X51530357Y-30694261D01*
X51577976Y-30646642D01*
X51625595Y-30551404D01*
X51625595Y-30456166D01*
X51577976Y-30360928D01*
X51530357Y-30313309D01*
X51435119Y-30265690D01*
X51244642Y-30218071D01*
X51149404Y-30170452D01*
X51101785Y-30122833D01*
X51054166Y-30027595D01*
X51054166Y-29932357D01*
X51101785Y-29837119D01*
X51149404Y-29789500D01*
X51244642Y-29741880D01*
X51482738Y-29741880D01*
X51625595Y-29789500D01*
X51958928Y-29741880D02*
X52197023Y-30741880D01*
X52387500Y-30027595D01*
X52577976Y-30741880D01*
X52816071Y-29741880D01*
X53149404Y-29837119D02*
X53197023Y-29789500D01*
X53292261Y-29741880D01*
X53530357Y-29741880D01*
X53625595Y-29789500D01*
X53673214Y-29837119D01*
X53720833Y-29932357D01*
X53720833Y-30027595D01*
X53673214Y-30170452D01*
X53101785Y-30741880D01*
X53720833Y-30741880D01*
X89154166Y-30694261D02*
X89297023Y-30741880D01*
X89535119Y-30741880D01*
X89630357Y-30694261D01*
X89677976Y-30646642D01*
X89725595Y-30551404D01*
X89725595Y-30456166D01*
X89677976Y-30360928D01*
X89630357Y-30313309D01*
X89535119Y-30265690D01*
X89344642Y-30218071D01*
X89249404Y-30170452D01*
X89201785Y-30122833D01*
X89154166Y-30027595D01*
X89154166Y-29932357D01*
X89201785Y-29837119D01*
X89249404Y-29789500D01*
X89344642Y-29741880D01*
X89582738Y-29741880D01*
X89725595Y-29789500D01*
X90058928Y-29741880D02*
X90297023Y-30741880D01*
X90487500Y-30027595D01*
X90677976Y-30741880D01*
X90916071Y-29741880D01*
X91725595Y-30075214D02*
X91725595Y-30741880D01*
X91487500Y-29694261D02*
X91249404Y-30408547D01*
X91868452Y-30408547D01*
X108204666Y-30694261D02*
X108347523Y-30741880D01*
X108585619Y-30741880D01*
X108680857Y-30694261D01*
X108728476Y-30646642D01*
X108776095Y-30551404D01*
X108776095Y-30456166D01*
X108728476Y-30360928D01*
X108680857Y-30313309D01*
X108585619Y-30265690D01*
X108395142Y-30218071D01*
X108299904Y-30170452D01*
X108252285Y-30122833D01*
X108204666Y-30027595D01*
X108204666Y-29932357D01*
X108252285Y-29837119D01*
X108299904Y-29789500D01*
X108395142Y-29741880D01*
X108633238Y-29741880D01*
X108776095Y-29789500D01*
X109109428Y-29741880D02*
X109347523Y-30741880D01*
X109538000Y-30027595D01*
X109728476Y-30741880D01*
X109966571Y-29741880D01*
X110823714Y-29741880D02*
X110347523Y-29741880D01*
X110299904Y-30218071D01*
X110347523Y-30170452D01*
X110442761Y-30122833D01*
X110680857Y-30122833D01*
X110776095Y-30170452D01*
X110823714Y-30218071D01*
X110871333Y-30313309D01*
X110871333Y-30551404D01*
X110823714Y-30646642D01*
X110776095Y-30694261D01*
X110680857Y-30741880D01*
X110442761Y-30741880D01*
X110347523Y-30694261D01*
X110299904Y-30646642D01*
X127254666Y-30694261D02*
X127397523Y-30741880D01*
X127635619Y-30741880D01*
X127730857Y-30694261D01*
X127778476Y-30646642D01*
X127826095Y-30551404D01*
X127826095Y-30456166D01*
X127778476Y-30360928D01*
X127730857Y-30313309D01*
X127635619Y-30265690D01*
X127445142Y-30218071D01*
X127349904Y-30170452D01*
X127302285Y-30122833D01*
X127254666Y-30027595D01*
X127254666Y-29932357D01*
X127302285Y-29837119D01*
X127349904Y-29789500D01*
X127445142Y-29741880D01*
X127683238Y-29741880D01*
X127826095Y-29789500D01*
X128159428Y-29741880D02*
X128397523Y-30741880D01*
X128588000Y-30027595D01*
X128778476Y-30741880D01*
X129016571Y-29741880D01*
X129826095Y-29741880D02*
X129635619Y-29741880D01*
X129540380Y-29789500D01*
X129492761Y-29837119D01*
X129397523Y-29979976D01*
X129349904Y-30170452D01*
X129349904Y-30551404D01*
X129397523Y-30646642D01*
X129445142Y-30694261D01*
X129540380Y-30741880D01*
X129730857Y-30741880D01*
X129826095Y-30694261D01*
X129873714Y-30646642D01*
X129921333Y-30551404D01*
X129921333Y-30313309D01*
X129873714Y-30218071D01*
X129826095Y-30170452D01*
X129730857Y-30122833D01*
X129540380Y-30122833D01*
X129445142Y-30170452D01*
X129397523Y-30218071D01*
X129349904Y-30313309D01*
X146304666Y-30694261D02*
X146447523Y-30741880D01*
X146685619Y-30741880D01*
X146780857Y-30694261D01*
X146828476Y-30646642D01*
X146876095Y-30551404D01*
X146876095Y-30456166D01*
X146828476Y-30360928D01*
X146780857Y-30313309D01*
X146685619Y-30265690D01*
X146495142Y-30218071D01*
X146399904Y-30170452D01*
X146352285Y-30122833D01*
X146304666Y-30027595D01*
X146304666Y-29932357D01*
X146352285Y-29837119D01*
X146399904Y-29789500D01*
X146495142Y-29741880D01*
X146733238Y-29741880D01*
X146876095Y-29789500D01*
X147209428Y-29741880D02*
X147447523Y-30741880D01*
X147638000Y-30027595D01*
X147828476Y-30741880D01*
X148066571Y-29741880D01*
X148352285Y-29741880D02*
X149018952Y-29741880D01*
X148590380Y-30741880D01*
X165354666Y-30694261D02*
X165497523Y-30741880D01*
X165735619Y-30741880D01*
X165830857Y-30694261D01*
X165878476Y-30646642D01*
X165926095Y-30551404D01*
X165926095Y-30456166D01*
X165878476Y-30360928D01*
X165830857Y-30313309D01*
X165735619Y-30265690D01*
X165545142Y-30218071D01*
X165449904Y-30170452D01*
X165402285Y-30122833D01*
X165354666Y-30027595D01*
X165354666Y-29932357D01*
X165402285Y-29837119D01*
X165449904Y-29789500D01*
X165545142Y-29741880D01*
X165783238Y-29741880D01*
X165926095Y-29789500D01*
X166259428Y-29741880D02*
X166497523Y-30741880D01*
X166688000Y-30027595D01*
X166878476Y-30741880D01*
X167116571Y-29741880D01*
X167640380Y-30170452D02*
X167545142Y-30122833D01*
X167497523Y-30075214D01*
X167449904Y-29979976D01*
X167449904Y-29932357D01*
X167497523Y-29837119D01*
X167545142Y-29789500D01*
X167640380Y-29741880D01*
X167830857Y-29741880D01*
X167926095Y-29789500D01*
X167973714Y-29837119D01*
X168021333Y-29932357D01*
X168021333Y-29979976D01*
X167973714Y-30075214D01*
X167926095Y-30122833D01*
X167830857Y-30170452D01*
X167640380Y-30170452D01*
X167545142Y-30218071D01*
X167497523Y-30265690D01*
X167449904Y-30360928D01*
X167449904Y-30551404D01*
X167497523Y-30646642D01*
X167545142Y-30694261D01*
X167640380Y-30741880D01*
X167830857Y-30741880D01*
X167926095Y-30694261D01*
X167973714Y-30646642D01*
X168021333Y-30551404D01*
X168021333Y-30360928D01*
X167973714Y-30265690D01*
X167926095Y-30218071D01*
X167830857Y-30170452D01*
X184404666Y-30694261D02*
X184547523Y-30741880D01*
X184785619Y-30741880D01*
X184880857Y-30694261D01*
X184928476Y-30646642D01*
X184976095Y-30551404D01*
X184976095Y-30456166D01*
X184928476Y-30360928D01*
X184880857Y-30313309D01*
X184785619Y-30265690D01*
X184595142Y-30218071D01*
X184499904Y-30170452D01*
X184452285Y-30122833D01*
X184404666Y-30027595D01*
X184404666Y-29932357D01*
X184452285Y-29837119D01*
X184499904Y-29789500D01*
X184595142Y-29741880D01*
X184833238Y-29741880D01*
X184976095Y-29789500D01*
X185309428Y-29741880D02*
X185547523Y-30741880D01*
X185738000Y-30027595D01*
X185928476Y-30741880D01*
X186166571Y-29741880D01*
X186595142Y-30741880D02*
X186785619Y-30741880D01*
X186880857Y-30694261D01*
X186928476Y-30646642D01*
X187023714Y-30503785D01*
X187071333Y-30313309D01*
X187071333Y-29932357D01*
X187023714Y-29837119D01*
X186976095Y-29789500D01*
X186880857Y-29741880D01*
X186690380Y-29741880D01*
X186595142Y-29789500D01*
X186547523Y-29837119D01*
X186499904Y-29932357D01*
X186499904Y-30170452D01*
X186547523Y-30265690D01*
X186595142Y-30313309D01*
X186690380Y-30360928D01*
X186880857Y-30360928D01*
X186976095Y-30313309D01*
X187023714Y-30265690D01*
X187071333Y-30170452D01*
X222028476Y-30694261D02*
X222171333Y-30741880D01*
X222409428Y-30741880D01*
X222504666Y-30694261D01*
X222552285Y-30646642D01*
X222599904Y-30551404D01*
X222599904Y-30456166D01*
X222552285Y-30360928D01*
X222504666Y-30313309D01*
X222409428Y-30265690D01*
X222218952Y-30218071D01*
X222123714Y-30170452D01*
X222076095Y-30122833D01*
X222028476Y-30027595D01*
X222028476Y-29932357D01*
X222076095Y-29837119D01*
X222123714Y-29789500D01*
X222218952Y-29741880D01*
X222457047Y-29741880D01*
X222599904Y-29789500D01*
X222933238Y-29741880D02*
X223171333Y-30741880D01*
X223361809Y-30027595D01*
X223552285Y-30741880D01*
X223790380Y-29741880D01*
X224695142Y-30741880D02*
X224123714Y-30741880D01*
X224409428Y-30741880D02*
X224409428Y-29741880D01*
X224314190Y-29884738D01*
X224218952Y-29979976D01*
X224123714Y-30027595D01*
X225647523Y-30741880D02*
X225076095Y-30741880D01*
X225361809Y-30741880D02*
X225361809Y-29741880D01*
X225266571Y-29884738D01*
X225171333Y-29979976D01*
X225076095Y-30027595D01*
X241078476Y-30694261D02*
X241221333Y-30741880D01*
X241459428Y-30741880D01*
X241554666Y-30694261D01*
X241602285Y-30646642D01*
X241649904Y-30551404D01*
X241649904Y-30456166D01*
X241602285Y-30360928D01*
X241554666Y-30313309D01*
X241459428Y-30265690D01*
X241268952Y-30218071D01*
X241173714Y-30170452D01*
X241126095Y-30122833D01*
X241078476Y-30027595D01*
X241078476Y-29932357D01*
X241126095Y-29837119D01*
X241173714Y-29789500D01*
X241268952Y-29741880D01*
X241507047Y-29741880D01*
X241649904Y-29789500D01*
X241983238Y-29741880D02*
X242221333Y-30741880D01*
X242411809Y-30027595D01*
X242602285Y-30741880D01*
X242840380Y-29741880D01*
X243745142Y-30741880D02*
X243173714Y-30741880D01*
X243459428Y-30741880D02*
X243459428Y-29741880D01*
X243364190Y-29884738D01*
X243268952Y-29979976D01*
X243173714Y-30027595D01*
X244126095Y-29837119D02*
X244173714Y-29789500D01*
X244268952Y-29741880D01*
X244507047Y-29741880D01*
X244602285Y-29789500D01*
X244649904Y-29837119D01*
X244697523Y-29932357D01*
X244697523Y-30027595D01*
X244649904Y-30170452D01*
X244078476Y-30741880D01*
X244697523Y-30741880D01*
X279178476Y-30694261D02*
X279321333Y-30741880D01*
X279559428Y-30741880D01*
X279654666Y-30694261D01*
X279702285Y-30646642D01*
X279749904Y-30551404D01*
X279749904Y-30456166D01*
X279702285Y-30360928D01*
X279654666Y-30313309D01*
X279559428Y-30265690D01*
X279368952Y-30218071D01*
X279273714Y-30170452D01*
X279226095Y-30122833D01*
X279178476Y-30027595D01*
X279178476Y-29932357D01*
X279226095Y-29837119D01*
X279273714Y-29789500D01*
X279368952Y-29741880D01*
X279607047Y-29741880D01*
X279749904Y-29789500D01*
X280083238Y-29741880D02*
X280321333Y-30741880D01*
X280511809Y-30027595D01*
X280702285Y-30741880D01*
X280940380Y-29741880D01*
X281845142Y-30741880D02*
X281273714Y-30741880D01*
X281559428Y-30741880D02*
X281559428Y-29741880D01*
X281464190Y-29884738D01*
X281368952Y-29979976D01*
X281273714Y-30027595D01*
X282702285Y-30075214D02*
X282702285Y-30741880D01*
X282464190Y-29694261D02*
X282226095Y-30408547D01*
X282845142Y-30408547D01*
X298228476Y-30694261D02*
X298371333Y-30741880D01*
X298609428Y-30741880D01*
X298704666Y-30694261D01*
X298752285Y-30646642D01*
X298799904Y-30551404D01*
X298799904Y-30456166D01*
X298752285Y-30360928D01*
X298704666Y-30313309D01*
X298609428Y-30265690D01*
X298418952Y-30218071D01*
X298323714Y-30170452D01*
X298276095Y-30122833D01*
X298228476Y-30027595D01*
X298228476Y-29932357D01*
X298276095Y-29837119D01*
X298323714Y-29789500D01*
X298418952Y-29741880D01*
X298657047Y-29741880D01*
X298799904Y-29789500D01*
X299133238Y-29741880D02*
X299371333Y-30741880D01*
X299561809Y-30027595D01*
X299752285Y-30741880D01*
X299990380Y-29741880D01*
X300895142Y-30741880D02*
X300323714Y-30741880D01*
X300609428Y-30741880D02*
X300609428Y-29741880D01*
X300514190Y-29884738D01*
X300418952Y-29979976D01*
X300323714Y-30027595D01*
X301799904Y-29741880D02*
X301323714Y-29741880D01*
X301276095Y-30218071D01*
X301323714Y-30170452D01*
X301418952Y-30122833D01*
X301657047Y-30122833D01*
X301752285Y-30170452D01*
X301799904Y-30218071D01*
X301847523Y-30313309D01*
X301847523Y-30551404D01*
X301799904Y-30646642D01*
X301752285Y-30694261D01*
X301657047Y-30741880D01*
X301418952Y-30741880D01*
X301323714Y-30694261D01*
X301276095Y-30646642D01*
X31527976Y-49744261D02*
X31670833Y-49791880D01*
X31908928Y-49791880D01*
X32004166Y-49744261D01*
X32051785Y-49696642D01*
X32099404Y-49601404D01*
X32099404Y-49506166D01*
X32051785Y-49410928D01*
X32004166Y-49363309D01*
X31908928Y-49315690D01*
X31718452Y-49268071D01*
X31623214Y-49220452D01*
X31575595Y-49172833D01*
X31527976Y-49077595D01*
X31527976Y-48982357D01*
X31575595Y-48887119D01*
X31623214Y-48839500D01*
X31718452Y-48791880D01*
X31956547Y-48791880D01*
X32099404Y-48839500D01*
X32432738Y-48791880D02*
X32670833Y-49791880D01*
X32861309Y-49077595D01*
X33051785Y-49791880D01*
X33289880Y-48791880D01*
X34194642Y-49791880D02*
X33623214Y-49791880D01*
X33908928Y-49791880D02*
X33908928Y-48791880D01*
X33813690Y-48934738D01*
X33718452Y-49029976D01*
X33623214Y-49077595D01*
X34527976Y-48791880D02*
X35194642Y-48791880D01*
X34766071Y-49791880D01*
X79152976Y-49744261D02*
X79295833Y-49791880D01*
X79533928Y-49791880D01*
X79629166Y-49744261D01*
X79676785Y-49696642D01*
X79724404Y-49601404D01*
X79724404Y-49506166D01*
X79676785Y-49410928D01*
X79629166Y-49363309D01*
X79533928Y-49315690D01*
X79343452Y-49268071D01*
X79248214Y-49220452D01*
X79200595Y-49172833D01*
X79152976Y-49077595D01*
X79152976Y-48982357D01*
X79200595Y-48887119D01*
X79248214Y-48839500D01*
X79343452Y-48791880D01*
X79581547Y-48791880D01*
X79724404Y-48839500D01*
X80057738Y-48791880D02*
X80295833Y-49791880D01*
X80486309Y-49077595D01*
X80676785Y-49791880D01*
X80914880Y-48791880D01*
X81819642Y-49791880D02*
X81248214Y-49791880D01*
X81533928Y-49791880D02*
X81533928Y-48791880D01*
X81438690Y-48934738D01*
X81343452Y-49029976D01*
X81248214Y-49077595D01*
X82295833Y-49791880D02*
X82486309Y-49791880D01*
X82581547Y-49744261D01*
X82629166Y-49696642D01*
X82724404Y-49553785D01*
X82772023Y-49363309D01*
X82772023Y-48982357D01*
X82724404Y-48887119D01*
X82676785Y-48839500D01*
X82581547Y-48791880D01*
X82391071Y-48791880D01*
X82295833Y-48839500D01*
X82248214Y-48887119D01*
X82200595Y-48982357D01*
X82200595Y-49220452D01*
X82248214Y-49315690D01*
X82295833Y-49363309D01*
X82391071Y-49410928D01*
X82581547Y-49410928D01*
X82676785Y-49363309D01*
X82724404Y-49315690D01*
X82772023Y-49220452D01*
X98202476Y-49744261D02*
X98345333Y-49791880D01*
X98583428Y-49791880D01*
X98678666Y-49744261D01*
X98726285Y-49696642D01*
X98773904Y-49601404D01*
X98773904Y-49506166D01*
X98726285Y-49410928D01*
X98678666Y-49363309D01*
X98583428Y-49315690D01*
X98392952Y-49268071D01*
X98297714Y-49220452D01*
X98250095Y-49172833D01*
X98202476Y-49077595D01*
X98202476Y-48982357D01*
X98250095Y-48887119D01*
X98297714Y-48839500D01*
X98392952Y-48791880D01*
X98631047Y-48791880D01*
X98773904Y-48839500D01*
X99107238Y-48791880D02*
X99345333Y-49791880D01*
X99535809Y-49077595D01*
X99726285Y-49791880D01*
X99964380Y-48791880D01*
X100297714Y-48887119D02*
X100345333Y-48839500D01*
X100440571Y-48791880D01*
X100678666Y-48791880D01*
X100773904Y-48839500D01*
X100821523Y-48887119D01*
X100869142Y-48982357D01*
X100869142Y-49077595D01*
X100821523Y-49220452D01*
X100250095Y-49791880D01*
X100869142Y-49791880D01*
X101488190Y-48791880D02*
X101583428Y-48791880D01*
X101678666Y-48839500D01*
X101726285Y-48887119D01*
X101773904Y-48982357D01*
X101821523Y-49172833D01*
X101821523Y-49410928D01*
X101773904Y-49601404D01*
X101726285Y-49696642D01*
X101678666Y-49744261D01*
X101583428Y-49791880D01*
X101488190Y-49791880D01*
X101392952Y-49744261D01*
X101345333Y-49696642D01*
X101297714Y-49601404D01*
X101250095Y-49410928D01*
X101250095Y-49172833D01*
X101297714Y-48982357D01*
X101345333Y-48887119D01*
X101392952Y-48839500D01*
X101488190Y-48791880D01*
X117252476Y-49744261D02*
X117395333Y-49791880D01*
X117633428Y-49791880D01*
X117728666Y-49744261D01*
X117776285Y-49696642D01*
X117823904Y-49601404D01*
X117823904Y-49506166D01*
X117776285Y-49410928D01*
X117728666Y-49363309D01*
X117633428Y-49315690D01*
X117442952Y-49268071D01*
X117347714Y-49220452D01*
X117300095Y-49172833D01*
X117252476Y-49077595D01*
X117252476Y-48982357D01*
X117300095Y-48887119D01*
X117347714Y-48839500D01*
X117442952Y-48791880D01*
X117681047Y-48791880D01*
X117823904Y-48839500D01*
X118157238Y-48791880D02*
X118395333Y-49791880D01*
X118585809Y-49077595D01*
X118776285Y-49791880D01*
X119014380Y-48791880D01*
X119347714Y-48887119D02*
X119395333Y-48839500D01*
X119490571Y-48791880D01*
X119728666Y-48791880D01*
X119823904Y-48839500D01*
X119871523Y-48887119D01*
X119919142Y-48982357D01*
X119919142Y-49077595D01*
X119871523Y-49220452D01*
X119300095Y-49791880D01*
X119919142Y-49791880D01*
X120871523Y-49791880D02*
X120300095Y-49791880D01*
X120585809Y-49791880D02*
X120585809Y-48791880D01*
X120490571Y-48934738D01*
X120395333Y-49029976D01*
X120300095Y-49077595D01*
X136302476Y-49744261D02*
X136445333Y-49791880D01*
X136683428Y-49791880D01*
X136778666Y-49744261D01*
X136826285Y-49696642D01*
X136873904Y-49601404D01*
X136873904Y-49506166D01*
X136826285Y-49410928D01*
X136778666Y-49363309D01*
X136683428Y-49315690D01*
X136492952Y-49268071D01*
X136397714Y-49220452D01*
X136350095Y-49172833D01*
X136302476Y-49077595D01*
X136302476Y-48982357D01*
X136350095Y-48887119D01*
X136397714Y-48839500D01*
X136492952Y-48791880D01*
X136731047Y-48791880D01*
X136873904Y-48839500D01*
X137207238Y-48791880D02*
X137445333Y-49791880D01*
X137635809Y-49077595D01*
X137826285Y-49791880D01*
X138064380Y-48791880D01*
X138397714Y-48887119D02*
X138445333Y-48839500D01*
X138540571Y-48791880D01*
X138778666Y-48791880D01*
X138873904Y-48839500D01*
X138921523Y-48887119D01*
X138969142Y-48982357D01*
X138969142Y-49077595D01*
X138921523Y-49220452D01*
X138350095Y-49791880D01*
X138969142Y-49791880D01*
X139350095Y-48887119D02*
X139397714Y-48839500D01*
X139492952Y-48791880D01*
X139731047Y-48791880D01*
X139826285Y-48839500D01*
X139873904Y-48887119D01*
X139921523Y-48982357D01*
X139921523Y-49077595D01*
X139873904Y-49220452D01*
X139302476Y-49791880D01*
X139921523Y-49791880D01*
X155352476Y-49744261D02*
X155495333Y-49791880D01*
X155733428Y-49791880D01*
X155828666Y-49744261D01*
X155876285Y-49696642D01*
X155923904Y-49601404D01*
X155923904Y-49506166D01*
X155876285Y-49410928D01*
X155828666Y-49363309D01*
X155733428Y-49315690D01*
X155542952Y-49268071D01*
X155447714Y-49220452D01*
X155400095Y-49172833D01*
X155352476Y-49077595D01*
X155352476Y-48982357D01*
X155400095Y-48887119D01*
X155447714Y-48839500D01*
X155542952Y-48791880D01*
X155781047Y-48791880D01*
X155923904Y-48839500D01*
X156257238Y-48791880D02*
X156495333Y-49791880D01*
X156685809Y-49077595D01*
X156876285Y-49791880D01*
X157114380Y-48791880D01*
X157447714Y-48887119D02*
X157495333Y-48839500D01*
X157590571Y-48791880D01*
X157828666Y-48791880D01*
X157923904Y-48839500D01*
X157971523Y-48887119D01*
X158019142Y-48982357D01*
X158019142Y-49077595D01*
X157971523Y-49220452D01*
X157400095Y-49791880D01*
X158019142Y-49791880D01*
X158352476Y-48791880D02*
X158971523Y-48791880D01*
X158638190Y-49172833D01*
X158781047Y-49172833D01*
X158876285Y-49220452D01*
X158923904Y-49268071D01*
X158971523Y-49363309D01*
X158971523Y-49601404D01*
X158923904Y-49696642D01*
X158876285Y-49744261D01*
X158781047Y-49791880D01*
X158495333Y-49791880D01*
X158400095Y-49744261D01*
X158352476Y-49696642D01*
X174402476Y-49744261D02*
X174545333Y-49791880D01*
X174783428Y-49791880D01*
X174878666Y-49744261D01*
X174926285Y-49696642D01*
X174973904Y-49601404D01*
X174973904Y-49506166D01*
X174926285Y-49410928D01*
X174878666Y-49363309D01*
X174783428Y-49315690D01*
X174592952Y-49268071D01*
X174497714Y-49220452D01*
X174450095Y-49172833D01*
X174402476Y-49077595D01*
X174402476Y-48982357D01*
X174450095Y-48887119D01*
X174497714Y-48839500D01*
X174592952Y-48791880D01*
X174831047Y-48791880D01*
X174973904Y-48839500D01*
X175307238Y-48791880D02*
X175545333Y-49791880D01*
X175735809Y-49077595D01*
X175926285Y-49791880D01*
X176164380Y-48791880D01*
X176497714Y-48887119D02*
X176545333Y-48839500D01*
X176640571Y-48791880D01*
X176878666Y-48791880D01*
X176973904Y-48839500D01*
X177021523Y-48887119D01*
X177069142Y-48982357D01*
X177069142Y-49077595D01*
X177021523Y-49220452D01*
X176450095Y-49791880D01*
X177069142Y-49791880D01*
X177926285Y-49125214D02*
X177926285Y-49791880D01*
X177688190Y-48744261D02*
X177450095Y-49458547D01*
X178069142Y-49458547D01*
X193452476Y-49744261D02*
X193595333Y-49791880D01*
X193833428Y-49791880D01*
X193928666Y-49744261D01*
X193976285Y-49696642D01*
X194023904Y-49601404D01*
X194023904Y-49506166D01*
X193976285Y-49410928D01*
X193928666Y-49363309D01*
X193833428Y-49315690D01*
X193642952Y-49268071D01*
X193547714Y-49220452D01*
X193500095Y-49172833D01*
X193452476Y-49077595D01*
X193452476Y-48982357D01*
X193500095Y-48887119D01*
X193547714Y-48839500D01*
X193642952Y-48791880D01*
X193881047Y-48791880D01*
X194023904Y-48839500D01*
X194357238Y-48791880D02*
X194595333Y-49791880D01*
X194785809Y-49077595D01*
X194976285Y-49791880D01*
X195214380Y-48791880D01*
X195547714Y-48887119D02*
X195595333Y-48839500D01*
X195690571Y-48791880D01*
X195928666Y-48791880D01*
X196023904Y-48839500D01*
X196071523Y-48887119D01*
X196119142Y-48982357D01*
X196119142Y-49077595D01*
X196071523Y-49220452D01*
X195500095Y-49791880D01*
X196119142Y-49791880D01*
X197023904Y-48791880D02*
X196547714Y-48791880D01*
X196500095Y-49268071D01*
X196547714Y-49220452D01*
X196642952Y-49172833D01*
X196881047Y-49172833D01*
X196976285Y-49220452D01*
X197023904Y-49268071D01*
X197071523Y-49363309D01*
X197071523Y-49601404D01*
X197023904Y-49696642D01*
X196976285Y-49744261D01*
X196881047Y-49791880D01*
X196642952Y-49791880D01*
X196547714Y-49744261D01*
X196500095Y-49696642D01*
X212502476Y-49744261D02*
X212645333Y-49791880D01*
X212883428Y-49791880D01*
X212978666Y-49744261D01*
X213026285Y-49696642D01*
X213073904Y-49601404D01*
X213073904Y-49506166D01*
X213026285Y-49410928D01*
X212978666Y-49363309D01*
X212883428Y-49315690D01*
X212692952Y-49268071D01*
X212597714Y-49220452D01*
X212550095Y-49172833D01*
X212502476Y-49077595D01*
X212502476Y-48982357D01*
X212550095Y-48887119D01*
X212597714Y-48839500D01*
X212692952Y-48791880D01*
X212931047Y-48791880D01*
X213073904Y-48839500D01*
X213407238Y-48791880D02*
X213645333Y-49791880D01*
X213835809Y-49077595D01*
X214026285Y-49791880D01*
X214264380Y-48791880D01*
X214597714Y-48887119D02*
X214645333Y-48839500D01*
X214740571Y-48791880D01*
X214978666Y-48791880D01*
X215073904Y-48839500D01*
X215121523Y-48887119D01*
X215169142Y-48982357D01*
X215169142Y-49077595D01*
X215121523Y-49220452D01*
X214550095Y-49791880D01*
X215169142Y-49791880D01*
X216026285Y-48791880D02*
X215835809Y-48791880D01*
X215740571Y-48839500D01*
X215692952Y-48887119D01*
X215597714Y-49029976D01*
X215550095Y-49220452D01*
X215550095Y-49601404D01*
X215597714Y-49696642D01*
X215645333Y-49744261D01*
X215740571Y-49791880D01*
X215931047Y-49791880D01*
X216026285Y-49744261D01*
X216073904Y-49696642D01*
X216121523Y-49601404D01*
X216121523Y-49363309D01*
X216073904Y-49268071D01*
X216026285Y-49220452D01*
X215931047Y-49172833D01*
X215740571Y-49172833D01*
X215645333Y-49220452D01*
X215597714Y-49268071D01*
X215550095Y-49363309D01*
X231552476Y-49744261D02*
X231695333Y-49791880D01*
X231933428Y-49791880D01*
X232028666Y-49744261D01*
X232076285Y-49696642D01*
X232123904Y-49601404D01*
X232123904Y-49506166D01*
X232076285Y-49410928D01*
X232028666Y-49363309D01*
X231933428Y-49315690D01*
X231742952Y-49268071D01*
X231647714Y-49220452D01*
X231600095Y-49172833D01*
X231552476Y-49077595D01*
X231552476Y-48982357D01*
X231600095Y-48887119D01*
X231647714Y-48839500D01*
X231742952Y-48791880D01*
X231981047Y-48791880D01*
X232123904Y-48839500D01*
X232457238Y-48791880D02*
X232695333Y-49791880D01*
X232885809Y-49077595D01*
X233076285Y-49791880D01*
X233314380Y-48791880D01*
X233647714Y-48887119D02*
X233695333Y-48839500D01*
X233790571Y-48791880D01*
X234028666Y-48791880D01*
X234123904Y-48839500D01*
X234171523Y-48887119D01*
X234219142Y-48982357D01*
X234219142Y-49077595D01*
X234171523Y-49220452D01*
X233600095Y-49791880D01*
X234219142Y-49791880D01*
X234552476Y-48791880D02*
X235219142Y-48791880D01*
X234790571Y-49791880D01*
X250602476Y-49744261D02*
X250745333Y-49791880D01*
X250983428Y-49791880D01*
X251078666Y-49744261D01*
X251126285Y-49696642D01*
X251173904Y-49601404D01*
X251173904Y-49506166D01*
X251126285Y-49410928D01*
X251078666Y-49363309D01*
X250983428Y-49315690D01*
X250792952Y-49268071D01*
X250697714Y-49220452D01*
X250650095Y-49172833D01*
X250602476Y-49077595D01*
X250602476Y-48982357D01*
X250650095Y-48887119D01*
X250697714Y-48839500D01*
X250792952Y-48791880D01*
X251031047Y-48791880D01*
X251173904Y-48839500D01*
X251507238Y-48791880D02*
X251745333Y-49791880D01*
X251935809Y-49077595D01*
X252126285Y-49791880D01*
X252364380Y-48791880D01*
X252697714Y-48887119D02*
X252745333Y-48839500D01*
X252840571Y-48791880D01*
X253078666Y-48791880D01*
X253173904Y-48839500D01*
X253221523Y-48887119D01*
X253269142Y-48982357D01*
X253269142Y-49077595D01*
X253221523Y-49220452D01*
X252650095Y-49791880D01*
X253269142Y-49791880D01*
X253840571Y-49220452D02*
X253745333Y-49172833D01*
X253697714Y-49125214D01*
X253650095Y-49029976D01*
X253650095Y-48982357D01*
X253697714Y-48887119D01*
X253745333Y-48839500D01*
X253840571Y-48791880D01*
X254031047Y-48791880D01*
X254126285Y-48839500D01*
X254173904Y-48887119D01*
X254221523Y-48982357D01*
X254221523Y-49029976D01*
X254173904Y-49125214D01*
X254126285Y-49172833D01*
X254031047Y-49220452D01*
X253840571Y-49220452D01*
X253745333Y-49268071D01*
X253697714Y-49315690D01*
X253650095Y-49410928D01*
X253650095Y-49601404D01*
X253697714Y-49696642D01*
X253745333Y-49744261D01*
X253840571Y-49791880D01*
X254031047Y-49791880D01*
X254126285Y-49744261D01*
X254173904Y-49696642D01*
X254221523Y-49601404D01*
X254221523Y-49410928D01*
X254173904Y-49315690D01*
X254126285Y-49268071D01*
X254031047Y-49220452D01*
X269652476Y-49744261D02*
X269795333Y-49791880D01*
X270033428Y-49791880D01*
X270128666Y-49744261D01*
X270176285Y-49696642D01*
X270223904Y-49601404D01*
X270223904Y-49506166D01*
X270176285Y-49410928D01*
X270128666Y-49363309D01*
X270033428Y-49315690D01*
X269842952Y-49268071D01*
X269747714Y-49220452D01*
X269700095Y-49172833D01*
X269652476Y-49077595D01*
X269652476Y-48982357D01*
X269700095Y-48887119D01*
X269747714Y-48839500D01*
X269842952Y-48791880D01*
X270081047Y-48791880D01*
X270223904Y-48839500D01*
X270557238Y-48791880D02*
X270795333Y-49791880D01*
X270985809Y-49077595D01*
X271176285Y-49791880D01*
X271414380Y-48791880D01*
X271747714Y-48887119D02*
X271795333Y-48839500D01*
X271890571Y-48791880D01*
X272128666Y-48791880D01*
X272223904Y-48839500D01*
X272271523Y-48887119D01*
X272319142Y-48982357D01*
X272319142Y-49077595D01*
X272271523Y-49220452D01*
X271700095Y-49791880D01*
X272319142Y-49791880D01*
X272795333Y-49791880D02*
X272985809Y-49791880D01*
X273081047Y-49744261D01*
X273128666Y-49696642D01*
X273223904Y-49553785D01*
X273271523Y-49363309D01*
X273271523Y-48982357D01*
X273223904Y-48887119D01*
X273176285Y-48839500D01*
X273081047Y-48791880D01*
X272890571Y-48791880D01*
X272795333Y-48839500D01*
X272747714Y-48887119D01*
X272700095Y-48982357D01*
X272700095Y-49220452D01*
X272747714Y-49315690D01*
X272795333Y-49363309D01*
X272890571Y-49410928D01*
X273081047Y-49410928D01*
X273176285Y-49363309D01*
X273223904Y-49315690D01*
X273271523Y-49220452D01*
X288702476Y-49744261D02*
X288845333Y-49791880D01*
X289083428Y-49791880D01*
X289178666Y-49744261D01*
X289226285Y-49696642D01*
X289273904Y-49601404D01*
X289273904Y-49506166D01*
X289226285Y-49410928D01*
X289178666Y-49363309D01*
X289083428Y-49315690D01*
X288892952Y-49268071D01*
X288797714Y-49220452D01*
X288750095Y-49172833D01*
X288702476Y-49077595D01*
X288702476Y-48982357D01*
X288750095Y-48887119D01*
X288797714Y-48839500D01*
X288892952Y-48791880D01*
X289131047Y-48791880D01*
X289273904Y-48839500D01*
X289607238Y-48791880D02*
X289845333Y-49791880D01*
X290035809Y-49077595D01*
X290226285Y-49791880D01*
X290464380Y-48791880D01*
X290750095Y-48791880D02*
X291369142Y-48791880D01*
X291035809Y-49172833D01*
X291178666Y-49172833D01*
X291273904Y-49220452D01*
X291321523Y-49268071D01*
X291369142Y-49363309D01*
X291369142Y-49601404D01*
X291321523Y-49696642D01*
X291273904Y-49744261D01*
X291178666Y-49791880D01*
X290892952Y-49791880D01*
X290797714Y-49744261D01*
X290750095Y-49696642D01*
X291988190Y-48791880D02*
X292083428Y-48791880D01*
X292178666Y-48839500D01*
X292226285Y-48887119D01*
X292273904Y-48982357D01*
X292321523Y-49172833D01*
X292321523Y-49410928D01*
X292273904Y-49601404D01*
X292226285Y-49696642D01*
X292178666Y-49744261D01*
X292083428Y-49791880D01*
X291988190Y-49791880D01*
X291892952Y-49744261D01*
X291845333Y-49696642D01*
X291797714Y-49601404D01*
X291750095Y-49410928D01*
X291750095Y-49172833D01*
X291797714Y-48982357D01*
X291845333Y-48887119D01*
X291892952Y-48839500D01*
X291988190Y-48791880D01*
X74390476Y-68794261D02*
X74533333Y-68841880D01*
X74771428Y-68841880D01*
X74866666Y-68794261D01*
X74914285Y-68746642D01*
X74961904Y-68651404D01*
X74961904Y-68556166D01*
X74914285Y-68460928D01*
X74866666Y-68413309D01*
X74771428Y-68365690D01*
X74580952Y-68318071D01*
X74485714Y-68270452D01*
X74438095Y-68222833D01*
X74390476Y-68127595D01*
X74390476Y-68032357D01*
X74438095Y-67937119D01*
X74485714Y-67889500D01*
X74580952Y-67841880D01*
X74819047Y-67841880D01*
X74961904Y-67889500D01*
X75295238Y-67841880D02*
X75533333Y-68841880D01*
X75723809Y-68127595D01*
X75914285Y-68841880D01*
X76152380Y-67841880D01*
X76438095Y-67841880D02*
X77057142Y-67841880D01*
X76723809Y-68222833D01*
X76866666Y-68222833D01*
X76961904Y-68270452D01*
X77009523Y-68318071D01*
X77057142Y-68413309D01*
X77057142Y-68651404D01*
X77009523Y-68746642D01*
X76961904Y-68794261D01*
X76866666Y-68841880D01*
X76580952Y-68841880D01*
X76485714Y-68794261D01*
X76438095Y-68746642D01*
X77914285Y-68175214D02*
X77914285Y-68841880D01*
X77676190Y-67794261D02*
X77438095Y-68508547D01*
X78057142Y-68508547D01*
X93440476Y-68794261D02*
X93583333Y-68841880D01*
X93821428Y-68841880D01*
X93916666Y-68794261D01*
X93964285Y-68746642D01*
X94011904Y-68651404D01*
X94011904Y-68556166D01*
X93964285Y-68460928D01*
X93916666Y-68413309D01*
X93821428Y-68365690D01*
X93630952Y-68318071D01*
X93535714Y-68270452D01*
X93488095Y-68222833D01*
X93440476Y-68127595D01*
X93440476Y-68032357D01*
X93488095Y-67937119D01*
X93535714Y-67889500D01*
X93630952Y-67841880D01*
X93869047Y-67841880D01*
X94011904Y-67889500D01*
X94345238Y-67841880D02*
X94583333Y-68841880D01*
X94773809Y-68127595D01*
X94964285Y-68841880D01*
X95202380Y-67841880D01*
X95488095Y-67841880D02*
X96107142Y-67841880D01*
X95773809Y-68222833D01*
X95916666Y-68222833D01*
X96011904Y-68270452D01*
X96059523Y-68318071D01*
X96107142Y-68413309D01*
X96107142Y-68651404D01*
X96059523Y-68746642D01*
X96011904Y-68794261D01*
X95916666Y-68841880D01*
X95630952Y-68841880D01*
X95535714Y-68794261D01*
X95488095Y-68746642D01*
X97011904Y-67841880D02*
X96535714Y-67841880D01*
X96488095Y-68318071D01*
X96535714Y-68270452D01*
X96630952Y-68222833D01*
X96869047Y-68222833D01*
X96964285Y-68270452D01*
X97011904Y-68318071D01*
X97059523Y-68413309D01*
X97059523Y-68651404D01*
X97011904Y-68746642D01*
X96964285Y-68794261D01*
X96869047Y-68841880D01*
X96630952Y-68841880D01*
X96535714Y-68794261D01*
X96488095Y-68746642D01*
X112490476Y-68794261D02*
X112633333Y-68841880D01*
X112871428Y-68841880D01*
X112966666Y-68794261D01*
X113014285Y-68746642D01*
X113061904Y-68651404D01*
X113061904Y-68556166D01*
X113014285Y-68460928D01*
X112966666Y-68413309D01*
X112871428Y-68365690D01*
X112680952Y-68318071D01*
X112585714Y-68270452D01*
X112538095Y-68222833D01*
X112490476Y-68127595D01*
X112490476Y-68032357D01*
X112538095Y-67937119D01*
X112585714Y-67889500D01*
X112680952Y-67841880D01*
X112919047Y-67841880D01*
X113061904Y-67889500D01*
X113395238Y-67841880D02*
X113633333Y-68841880D01*
X113823809Y-68127595D01*
X114014285Y-68841880D01*
X114252380Y-67841880D01*
X114538095Y-67841880D02*
X115157142Y-67841880D01*
X114823809Y-68222833D01*
X114966666Y-68222833D01*
X115061904Y-68270452D01*
X115109523Y-68318071D01*
X115157142Y-68413309D01*
X115157142Y-68651404D01*
X115109523Y-68746642D01*
X115061904Y-68794261D01*
X114966666Y-68841880D01*
X114680952Y-68841880D01*
X114585714Y-68794261D01*
X114538095Y-68746642D01*
X116014285Y-67841880D02*
X115823809Y-67841880D01*
X115728571Y-67889500D01*
X115680952Y-67937119D01*
X115585714Y-68079976D01*
X115538095Y-68270452D01*
X115538095Y-68651404D01*
X115585714Y-68746642D01*
X115633333Y-68794261D01*
X115728571Y-68841880D01*
X115919047Y-68841880D01*
X116014285Y-68794261D01*
X116061904Y-68746642D01*
X116109523Y-68651404D01*
X116109523Y-68413309D01*
X116061904Y-68318071D01*
X116014285Y-68270452D01*
X115919047Y-68222833D01*
X115728571Y-68222833D01*
X115633333Y-68270452D01*
X115585714Y-68318071D01*
X115538095Y-68413309D01*
X131540476Y-68794261D02*
X131683333Y-68841880D01*
X131921428Y-68841880D01*
X132016666Y-68794261D01*
X132064285Y-68746642D01*
X132111904Y-68651404D01*
X132111904Y-68556166D01*
X132064285Y-68460928D01*
X132016666Y-68413309D01*
X131921428Y-68365690D01*
X131730952Y-68318071D01*
X131635714Y-68270452D01*
X131588095Y-68222833D01*
X131540476Y-68127595D01*
X131540476Y-68032357D01*
X131588095Y-67937119D01*
X131635714Y-67889500D01*
X131730952Y-67841880D01*
X131969047Y-67841880D01*
X132111904Y-67889500D01*
X132445238Y-67841880D02*
X132683333Y-68841880D01*
X132873809Y-68127595D01*
X133064285Y-68841880D01*
X133302380Y-67841880D01*
X133588095Y-67841880D02*
X134207142Y-67841880D01*
X133873809Y-68222833D01*
X134016666Y-68222833D01*
X134111904Y-68270452D01*
X134159523Y-68318071D01*
X134207142Y-68413309D01*
X134207142Y-68651404D01*
X134159523Y-68746642D01*
X134111904Y-68794261D01*
X134016666Y-68841880D01*
X133730952Y-68841880D01*
X133635714Y-68794261D01*
X133588095Y-68746642D01*
X134540476Y-67841880D02*
X135207142Y-67841880D01*
X134778571Y-68841880D01*
X150590476Y-68794261D02*
X150733333Y-68841880D01*
X150971428Y-68841880D01*
X151066666Y-68794261D01*
X151114285Y-68746642D01*
X151161904Y-68651404D01*
X151161904Y-68556166D01*
X151114285Y-68460928D01*
X151066666Y-68413309D01*
X150971428Y-68365690D01*
X150780952Y-68318071D01*
X150685714Y-68270452D01*
X150638095Y-68222833D01*
X150590476Y-68127595D01*
X150590476Y-68032357D01*
X150638095Y-67937119D01*
X150685714Y-67889500D01*
X150780952Y-67841880D01*
X151019047Y-67841880D01*
X151161904Y-67889500D01*
X151495238Y-67841880D02*
X151733333Y-68841880D01*
X151923809Y-68127595D01*
X152114285Y-68841880D01*
X152352380Y-67841880D01*
X152638095Y-67841880D02*
X153257142Y-67841880D01*
X152923809Y-68222833D01*
X153066666Y-68222833D01*
X153161904Y-68270452D01*
X153209523Y-68318071D01*
X153257142Y-68413309D01*
X153257142Y-68651404D01*
X153209523Y-68746642D01*
X153161904Y-68794261D01*
X153066666Y-68841880D01*
X152780952Y-68841880D01*
X152685714Y-68794261D01*
X152638095Y-68746642D01*
X153828571Y-68270452D02*
X153733333Y-68222833D01*
X153685714Y-68175214D01*
X153638095Y-68079976D01*
X153638095Y-68032357D01*
X153685714Y-67937119D01*
X153733333Y-67889500D01*
X153828571Y-67841880D01*
X154019047Y-67841880D01*
X154114285Y-67889500D01*
X154161904Y-67937119D01*
X154209523Y-68032357D01*
X154209523Y-68079976D01*
X154161904Y-68175214D01*
X154114285Y-68222833D01*
X154019047Y-68270452D01*
X153828571Y-68270452D01*
X153733333Y-68318071D01*
X153685714Y-68365690D01*
X153638095Y-68460928D01*
X153638095Y-68651404D01*
X153685714Y-68746642D01*
X153733333Y-68794261D01*
X153828571Y-68841880D01*
X154019047Y-68841880D01*
X154114285Y-68794261D01*
X154161904Y-68746642D01*
X154209523Y-68651404D01*
X154209523Y-68460928D01*
X154161904Y-68365690D01*
X154114285Y-68318071D01*
X154019047Y-68270452D01*
X169640476Y-68794261D02*
X169783333Y-68841880D01*
X170021428Y-68841880D01*
X170116666Y-68794261D01*
X170164285Y-68746642D01*
X170211904Y-68651404D01*
X170211904Y-68556166D01*
X170164285Y-68460928D01*
X170116666Y-68413309D01*
X170021428Y-68365690D01*
X169830952Y-68318071D01*
X169735714Y-68270452D01*
X169688095Y-68222833D01*
X169640476Y-68127595D01*
X169640476Y-68032357D01*
X169688095Y-67937119D01*
X169735714Y-67889500D01*
X169830952Y-67841880D01*
X170069047Y-67841880D01*
X170211904Y-67889500D01*
X170545238Y-67841880D02*
X170783333Y-68841880D01*
X170973809Y-68127595D01*
X171164285Y-68841880D01*
X171402380Y-67841880D01*
X171688095Y-67841880D02*
X172307142Y-67841880D01*
X171973809Y-68222833D01*
X172116666Y-68222833D01*
X172211904Y-68270452D01*
X172259523Y-68318071D01*
X172307142Y-68413309D01*
X172307142Y-68651404D01*
X172259523Y-68746642D01*
X172211904Y-68794261D01*
X172116666Y-68841880D01*
X171830952Y-68841880D01*
X171735714Y-68794261D01*
X171688095Y-68746642D01*
X172783333Y-68841880D02*
X172973809Y-68841880D01*
X173069047Y-68794261D01*
X173116666Y-68746642D01*
X173211904Y-68603785D01*
X173259523Y-68413309D01*
X173259523Y-68032357D01*
X173211904Y-67937119D01*
X173164285Y-67889500D01*
X173069047Y-67841880D01*
X172878571Y-67841880D01*
X172783333Y-67889500D01*
X172735714Y-67937119D01*
X172688095Y-68032357D01*
X172688095Y-68270452D01*
X172735714Y-68365690D01*
X172783333Y-68413309D01*
X172878571Y-68460928D01*
X173069047Y-68460928D01*
X173164285Y-68413309D01*
X173211904Y-68365690D01*
X173259523Y-68270452D01*
X198215476Y-68794261D02*
X198358333Y-68841880D01*
X198596428Y-68841880D01*
X198691666Y-68794261D01*
X198739285Y-68746642D01*
X198786904Y-68651404D01*
X198786904Y-68556166D01*
X198739285Y-68460928D01*
X198691666Y-68413309D01*
X198596428Y-68365690D01*
X198405952Y-68318071D01*
X198310714Y-68270452D01*
X198263095Y-68222833D01*
X198215476Y-68127595D01*
X198215476Y-68032357D01*
X198263095Y-67937119D01*
X198310714Y-67889500D01*
X198405952Y-67841880D01*
X198644047Y-67841880D01*
X198786904Y-67889500D01*
X199120238Y-67841880D02*
X199358333Y-68841880D01*
X199548809Y-68127595D01*
X199739285Y-68841880D01*
X199977380Y-67841880D01*
X200786904Y-68175214D02*
X200786904Y-68841880D01*
X200548809Y-67794261D02*
X200310714Y-68508547D01*
X200929761Y-68508547D01*
X201501190Y-67841880D02*
X201596428Y-67841880D01*
X201691666Y-67889500D01*
X201739285Y-67937119D01*
X201786904Y-68032357D01*
X201834523Y-68222833D01*
X201834523Y-68460928D01*
X201786904Y-68651404D01*
X201739285Y-68746642D01*
X201691666Y-68794261D01*
X201596428Y-68841880D01*
X201501190Y-68841880D01*
X201405952Y-68794261D01*
X201358333Y-68746642D01*
X201310714Y-68651404D01*
X201263095Y-68460928D01*
X201263095Y-68222833D01*
X201310714Y-68032357D01*
X201358333Y-67937119D01*
X201405952Y-67889500D01*
X201501190Y-67841880D01*
X217265476Y-68794261D02*
X217408333Y-68841880D01*
X217646428Y-68841880D01*
X217741666Y-68794261D01*
X217789285Y-68746642D01*
X217836904Y-68651404D01*
X217836904Y-68556166D01*
X217789285Y-68460928D01*
X217741666Y-68413309D01*
X217646428Y-68365690D01*
X217455952Y-68318071D01*
X217360714Y-68270452D01*
X217313095Y-68222833D01*
X217265476Y-68127595D01*
X217265476Y-68032357D01*
X217313095Y-67937119D01*
X217360714Y-67889500D01*
X217455952Y-67841880D01*
X217694047Y-67841880D01*
X217836904Y-67889500D01*
X218170238Y-67841880D02*
X218408333Y-68841880D01*
X218598809Y-68127595D01*
X218789285Y-68841880D01*
X219027380Y-67841880D01*
X219836904Y-68175214D02*
X219836904Y-68841880D01*
X219598809Y-67794261D02*
X219360714Y-68508547D01*
X219979761Y-68508547D01*
X220884523Y-68841880D02*
X220313095Y-68841880D01*
X220598809Y-68841880D02*
X220598809Y-67841880D01*
X220503571Y-67984738D01*
X220408333Y-68079976D01*
X220313095Y-68127595D01*
X236315476Y-68794261D02*
X236458333Y-68841880D01*
X236696428Y-68841880D01*
X236791666Y-68794261D01*
X236839285Y-68746642D01*
X236886904Y-68651404D01*
X236886904Y-68556166D01*
X236839285Y-68460928D01*
X236791666Y-68413309D01*
X236696428Y-68365690D01*
X236505952Y-68318071D01*
X236410714Y-68270452D01*
X236363095Y-68222833D01*
X236315476Y-68127595D01*
X236315476Y-68032357D01*
X236363095Y-67937119D01*
X236410714Y-67889500D01*
X236505952Y-67841880D01*
X236744047Y-67841880D01*
X236886904Y-67889500D01*
X237220238Y-67841880D02*
X237458333Y-68841880D01*
X237648809Y-68127595D01*
X237839285Y-68841880D01*
X238077380Y-67841880D01*
X238886904Y-68175214D02*
X238886904Y-68841880D01*
X238648809Y-67794261D02*
X238410714Y-68508547D01*
X239029761Y-68508547D01*
X239363095Y-67937119D02*
X239410714Y-67889500D01*
X239505952Y-67841880D01*
X239744047Y-67841880D01*
X239839285Y-67889500D01*
X239886904Y-67937119D01*
X239934523Y-68032357D01*
X239934523Y-68127595D01*
X239886904Y-68270452D01*
X239315476Y-68841880D01*
X239934523Y-68841880D01*
X255365476Y-68794261D02*
X255508333Y-68841880D01*
X255746428Y-68841880D01*
X255841666Y-68794261D01*
X255889285Y-68746642D01*
X255936904Y-68651404D01*
X255936904Y-68556166D01*
X255889285Y-68460928D01*
X255841666Y-68413309D01*
X255746428Y-68365690D01*
X255555952Y-68318071D01*
X255460714Y-68270452D01*
X255413095Y-68222833D01*
X255365476Y-68127595D01*
X255365476Y-68032357D01*
X255413095Y-67937119D01*
X255460714Y-67889500D01*
X255555952Y-67841880D01*
X255794047Y-67841880D01*
X255936904Y-67889500D01*
X256270238Y-67841880D02*
X256508333Y-68841880D01*
X256698809Y-68127595D01*
X256889285Y-68841880D01*
X257127380Y-67841880D01*
X257936904Y-68175214D02*
X257936904Y-68841880D01*
X257698809Y-67794261D02*
X257460714Y-68508547D01*
X258079761Y-68508547D01*
X258365476Y-67841880D02*
X258984523Y-67841880D01*
X258651190Y-68222833D01*
X258794047Y-68222833D01*
X258889285Y-68270452D01*
X258936904Y-68318071D01*
X258984523Y-68413309D01*
X258984523Y-68651404D01*
X258936904Y-68746642D01*
X258889285Y-68794261D01*
X258794047Y-68841880D01*
X258508333Y-68841880D01*
X258413095Y-68794261D01*
X258365476Y-68746642D01*
X274415476Y-68794261D02*
X274558333Y-68841880D01*
X274796428Y-68841880D01*
X274891666Y-68794261D01*
X274939285Y-68746642D01*
X274986904Y-68651404D01*
X274986904Y-68556166D01*
X274939285Y-68460928D01*
X274891666Y-68413309D01*
X274796428Y-68365690D01*
X274605952Y-68318071D01*
X274510714Y-68270452D01*
X274463095Y-68222833D01*
X274415476Y-68127595D01*
X274415476Y-68032357D01*
X274463095Y-67937119D01*
X274510714Y-67889500D01*
X274605952Y-67841880D01*
X274844047Y-67841880D01*
X274986904Y-67889500D01*
X275320238Y-67841880D02*
X275558333Y-68841880D01*
X275748809Y-68127595D01*
X275939285Y-68841880D01*
X276177380Y-67841880D01*
X276986904Y-68175214D02*
X276986904Y-68841880D01*
X276748809Y-67794261D02*
X276510714Y-68508547D01*
X277129761Y-68508547D01*
X277939285Y-68175214D02*
X277939285Y-68841880D01*
X277701190Y-67794261D02*
X277463095Y-68508547D01*
X278082142Y-68508547D01*
X293465476Y-68794261D02*
X293608333Y-68841880D01*
X293846428Y-68841880D01*
X293941666Y-68794261D01*
X293989285Y-68746642D01*
X294036904Y-68651404D01*
X294036904Y-68556166D01*
X293989285Y-68460928D01*
X293941666Y-68413309D01*
X293846428Y-68365690D01*
X293655952Y-68318071D01*
X293560714Y-68270452D01*
X293513095Y-68222833D01*
X293465476Y-68127595D01*
X293465476Y-68032357D01*
X293513095Y-67937119D01*
X293560714Y-67889500D01*
X293655952Y-67841880D01*
X293894047Y-67841880D01*
X294036904Y-67889500D01*
X294370238Y-67841880D02*
X294608333Y-68841880D01*
X294798809Y-68127595D01*
X294989285Y-68841880D01*
X295227380Y-67841880D01*
X296036904Y-68175214D02*
X296036904Y-68841880D01*
X295798809Y-67794261D02*
X295560714Y-68508547D01*
X296179761Y-68508547D01*
X297036904Y-67841880D02*
X296560714Y-67841880D01*
X296513095Y-68318071D01*
X296560714Y-68270452D01*
X296655952Y-68222833D01*
X296894047Y-68222833D01*
X296989285Y-68270452D01*
X297036904Y-68318071D01*
X297084523Y-68413309D01*
X297084523Y-68651404D01*
X297036904Y-68746642D01*
X296989285Y-68794261D01*
X296894047Y-68841880D01*
X296655952Y-68841880D01*
X296560714Y-68794261D01*
X296513095Y-68746642D01*
X69627976Y-87844261D02*
X69770833Y-87891880D01*
X70008928Y-87891880D01*
X70104166Y-87844261D01*
X70151785Y-87796642D01*
X70199404Y-87701404D01*
X70199404Y-87606166D01*
X70151785Y-87510928D01*
X70104166Y-87463309D01*
X70008928Y-87415690D01*
X69818452Y-87368071D01*
X69723214Y-87320452D01*
X69675595Y-87272833D01*
X69627976Y-87177595D01*
X69627976Y-87082357D01*
X69675595Y-86987119D01*
X69723214Y-86939500D01*
X69818452Y-86891880D01*
X70056547Y-86891880D01*
X70199404Y-86939500D01*
X70532738Y-86891880D02*
X70770833Y-87891880D01*
X70961309Y-87177595D01*
X71151785Y-87891880D01*
X71389880Y-86891880D01*
X72199404Y-87225214D02*
X72199404Y-87891880D01*
X71961309Y-86844261D02*
X71723214Y-87558547D01*
X72342261Y-87558547D01*
X72866071Y-87320452D02*
X72770833Y-87272833D01*
X72723214Y-87225214D01*
X72675595Y-87129976D01*
X72675595Y-87082357D01*
X72723214Y-86987119D01*
X72770833Y-86939500D01*
X72866071Y-86891880D01*
X73056547Y-86891880D01*
X73151785Y-86939500D01*
X73199404Y-86987119D01*
X73247023Y-87082357D01*
X73247023Y-87129976D01*
X73199404Y-87225214D01*
X73151785Y-87272833D01*
X73056547Y-87320452D01*
X72866071Y-87320452D01*
X72770833Y-87368071D01*
X72723214Y-87415690D01*
X72675595Y-87510928D01*
X72675595Y-87701404D01*
X72723214Y-87796642D01*
X72770833Y-87844261D01*
X72866071Y-87891880D01*
X73056547Y-87891880D01*
X73151785Y-87844261D01*
X73199404Y-87796642D01*
X73247023Y-87701404D01*
X73247023Y-87510928D01*
X73199404Y-87415690D01*
X73151785Y-87368071D01*
X73056547Y-87320452D01*
X88677976Y-87844261D02*
X88820833Y-87891880D01*
X89058928Y-87891880D01*
X89154166Y-87844261D01*
X89201785Y-87796642D01*
X89249404Y-87701404D01*
X89249404Y-87606166D01*
X89201785Y-87510928D01*
X89154166Y-87463309D01*
X89058928Y-87415690D01*
X88868452Y-87368071D01*
X88773214Y-87320452D01*
X88725595Y-87272833D01*
X88677976Y-87177595D01*
X88677976Y-87082357D01*
X88725595Y-86987119D01*
X88773214Y-86939500D01*
X88868452Y-86891880D01*
X89106547Y-86891880D01*
X89249404Y-86939500D01*
X89582738Y-86891880D02*
X89820833Y-87891880D01*
X90011309Y-87177595D01*
X90201785Y-87891880D01*
X90439880Y-86891880D01*
X91249404Y-87225214D02*
X91249404Y-87891880D01*
X91011309Y-86844261D02*
X90773214Y-87558547D01*
X91392261Y-87558547D01*
X91820833Y-87891880D02*
X92011309Y-87891880D01*
X92106547Y-87844261D01*
X92154166Y-87796642D01*
X92249404Y-87653785D01*
X92297023Y-87463309D01*
X92297023Y-87082357D01*
X92249404Y-86987119D01*
X92201785Y-86939500D01*
X92106547Y-86891880D01*
X91916071Y-86891880D01*
X91820833Y-86939500D01*
X91773214Y-86987119D01*
X91725595Y-87082357D01*
X91725595Y-87320452D01*
X91773214Y-87415690D01*
X91820833Y-87463309D01*
X91916071Y-87510928D01*
X92106547Y-87510928D01*
X92201785Y-87463309D01*
X92249404Y-87415690D01*
X92297023Y-87320452D01*
X107728476Y-87844261D02*
X107871333Y-87891880D01*
X108109428Y-87891880D01*
X108204666Y-87844261D01*
X108252285Y-87796642D01*
X108299904Y-87701404D01*
X108299904Y-87606166D01*
X108252285Y-87510928D01*
X108204666Y-87463309D01*
X108109428Y-87415690D01*
X107918952Y-87368071D01*
X107823714Y-87320452D01*
X107776095Y-87272833D01*
X107728476Y-87177595D01*
X107728476Y-87082357D01*
X107776095Y-86987119D01*
X107823714Y-86939500D01*
X107918952Y-86891880D01*
X108157047Y-86891880D01*
X108299904Y-86939500D01*
X108633238Y-86891880D02*
X108871333Y-87891880D01*
X109061809Y-87177595D01*
X109252285Y-87891880D01*
X109490380Y-86891880D01*
X110347523Y-86891880D02*
X109871333Y-86891880D01*
X109823714Y-87368071D01*
X109871333Y-87320452D01*
X109966571Y-87272833D01*
X110204666Y-87272833D01*
X110299904Y-87320452D01*
X110347523Y-87368071D01*
X110395142Y-87463309D01*
X110395142Y-87701404D01*
X110347523Y-87796642D01*
X110299904Y-87844261D01*
X110204666Y-87891880D01*
X109966571Y-87891880D01*
X109871333Y-87844261D01*
X109823714Y-87796642D01*
X111014190Y-86891880D02*
X111109428Y-86891880D01*
X111204666Y-86939500D01*
X111252285Y-86987119D01*
X111299904Y-87082357D01*
X111347523Y-87272833D01*
X111347523Y-87510928D01*
X111299904Y-87701404D01*
X111252285Y-87796642D01*
X111204666Y-87844261D01*
X111109428Y-87891880D01*
X111014190Y-87891880D01*
X110918952Y-87844261D01*
X110871333Y-87796642D01*
X110823714Y-87701404D01*
X110776095Y-87510928D01*
X110776095Y-87272833D01*
X110823714Y-87082357D01*
X110871333Y-86987119D01*
X110918952Y-86939500D01*
X111014190Y-86891880D01*
X126778476Y-87844261D02*
X126921333Y-87891880D01*
X127159428Y-87891880D01*
X127254666Y-87844261D01*
X127302285Y-87796642D01*
X127349904Y-87701404D01*
X127349904Y-87606166D01*
X127302285Y-87510928D01*
X127254666Y-87463309D01*
X127159428Y-87415690D01*
X126968952Y-87368071D01*
X126873714Y-87320452D01*
X126826095Y-87272833D01*
X126778476Y-87177595D01*
X126778476Y-87082357D01*
X126826095Y-86987119D01*
X126873714Y-86939500D01*
X126968952Y-86891880D01*
X127207047Y-86891880D01*
X127349904Y-86939500D01*
X127683238Y-86891880D02*
X127921333Y-87891880D01*
X128111809Y-87177595D01*
X128302285Y-87891880D01*
X128540380Y-86891880D01*
X129397523Y-86891880D02*
X128921333Y-86891880D01*
X128873714Y-87368071D01*
X128921333Y-87320452D01*
X129016571Y-87272833D01*
X129254666Y-87272833D01*
X129349904Y-87320452D01*
X129397523Y-87368071D01*
X129445142Y-87463309D01*
X129445142Y-87701404D01*
X129397523Y-87796642D01*
X129349904Y-87844261D01*
X129254666Y-87891880D01*
X129016571Y-87891880D01*
X128921333Y-87844261D01*
X128873714Y-87796642D01*
X130397523Y-87891880D02*
X129826095Y-87891880D01*
X130111809Y-87891880D02*
X130111809Y-86891880D01*
X130016571Y-87034738D01*
X129921333Y-87129976D01*
X129826095Y-87177595D01*
X164878476Y-87844261D02*
X165021333Y-87891880D01*
X165259428Y-87891880D01*
X165354666Y-87844261D01*
X165402285Y-87796642D01*
X165449904Y-87701404D01*
X165449904Y-87606166D01*
X165402285Y-87510928D01*
X165354666Y-87463309D01*
X165259428Y-87415690D01*
X165068952Y-87368071D01*
X164973714Y-87320452D01*
X164926095Y-87272833D01*
X164878476Y-87177595D01*
X164878476Y-87082357D01*
X164926095Y-86987119D01*
X164973714Y-86939500D01*
X165068952Y-86891880D01*
X165307047Y-86891880D01*
X165449904Y-86939500D01*
X165783238Y-86891880D02*
X166021333Y-87891880D01*
X166211809Y-87177595D01*
X166402285Y-87891880D01*
X166640380Y-86891880D01*
X167497523Y-86891880D02*
X167021333Y-86891880D01*
X166973714Y-87368071D01*
X167021333Y-87320452D01*
X167116571Y-87272833D01*
X167354666Y-87272833D01*
X167449904Y-87320452D01*
X167497523Y-87368071D01*
X167545142Y-87463309D01*
X167545142Y-87701404D01*
X167497523Y-87796642D01*
X167449904Y-87844261D01*
X167354666Y-87891880D01*
X167116571Y-87891880D01*
X167021333Y-87844261D01*
X166973714Y-87796642D01*
X167878476Y-86891880D02*
X168497523Y-86891880D01*
X168164190Y-87272833D01*
X168307047Y-87272833D01*
X168402285Y-87320452D01*
X168449904Y-87368071D01*
X168497523Y-87463309D01*
X168497523Y-87701404D01*
X168449904Y-87796642D01*
X168402285Y-87844261D01*
X168307047Y-87891880D01*
X168021333Y-87891880D01*
X167926095Y-87844261D01*
X167878476Y-87796642D01*
X183928476Y-87844261D02*
X184071333Y-87891880D01*
X184309428Y-87891880D01*
X184404666Y-87844261D01*
X184452285Y-87796642D01*
X184499904Y-87701404D01*
X184499904Y-87606166D01*
X184452285Y-87510928D01*
X184404666Y-87463309D01*
X184309428Y-87415690D01*
X184118952Y-87368071D01*
X184023714Y-87320452D01*
X183976095Y-87272833D01*
X183928476Y-87177595D01*
X183928476Y-87082357D01*
X183976095Y-86987119D01*
X184023714Y-86939500D01*
X184118952Y-86891880D01*
X184357047Y-86891880D01*
X184499904Y-86939500D01*
X184833238Y-86891880D02*
X185071333Y-87891880D01*
X185261809Y-87177595D01*
X185452285Y-87891880D01*
X185690380Y-86891880D01*
X186547523Y-86891880D02*
X186071333Y-86891880D01*
X186023714Y-87368071D01*
X186071333Y-87320452D01*
X186166571Y-87272833D01*
X186404666Y-87272833D01*
X186499904Y-87320452D01*
X186547523Y-87368071D01*
X186595142Y-87463309D01*
X186595142Y-87701404D01*
X186547523Y-87796642D01*
X186499904Y-87844261D01*
X186404666Y-87891880D01*
X186166571Y-87891880D01*
X186071333Y-87844261D01*
X186023714Y-87796642D01*
X187452285Y-87225214D02*
X187452285Y-87891880D01*
X187214190Y-86844261D02*
X186976095Y-87558547D01*
X187595142Y-87558547D01*
X202978476Y-87844261D02*
X203121333Y-87891880D01*
X203359428Y-87891880D01*
X203454666Y-87844261D01*
X203502285Y-87796642D01*
X203549904Y-87701404D01*
X203549904Y-87606166D01*
X203502285Y-87510928D01*
X203454666Y-87463309D01*
X203359428Y-87415690D01*
X203168952Y-87368071D01*
X203073714Y-87320452D01*
X203026095Y-87272833D01*
X202978476Y-87177595D01*
X202978476Y-87082357D01*
X203026095Y-86987119D01*
X203073714Y-86939500D01*
X203168952Y-86891880D01*
X203407047Y-86891880D01*
X203549904Y-86939500D01*
X203883238Y-86891880D02*
X204121333Y-87891880D01*
X204311809Y-87177595D01*
X204502285Y-87891880D01*
X204740380Y-86891880D01*
X205597523Y-86891880D02*
X205121333Y-86891880D01*
X205073714Y-87368071D01*
X205121333Y-87320452D01*
X205216571Y-87272833D01*
X205454666Y-87272833D01*
X205549904Y-87320452D01*
X205597523Y-87368071D01*
X205645142Y-87463309D01*
X205645142Y-87701404D01*
X205597523Y-87796642D01*
X205549904Y-87844261D01*
X205454666Y-87891880D01*
X205216571Y-87891880D01*
X205121333Y-87844261D01*
X205073714Y-87796642D01*
X206549904Y-86891880D02*
X206073714Y-86891880D01*
X206026095Y-87368071D01*
X206073714Y-87320452D01*
X206168952Y-87272833D01*
X206407047Y-87272833D01*
X206502285Y-87320452D01*
X206549904Y-87368071D01*
X206597523Y-87463309D01*
X206597523Y-87701404D01*
X206549904Y-87796642D01*
X206502285Y-87844261D01*
X206407047Y-87891880D01*
X206168952Y-87891880D01*
X206073714Y-87844261D01*
X206026095Y-87796642D01*
X222028476Y-87844261D02*
X222171333Y-87891880D01*
X222409428Y-87891880D01*
X222504666Y-87844261D01*
X222552285Y-87796642D01*
X222599904Y-87701404D01*
X222599904Y-87606166D01*
X222552285Y-87510928D01*
X222504666Y-87463309D01*
X222409428Y-87415690D01*
X222218952Y-87368071D01*
X222123714Y-87320452D01*
X222076095Y-87272833D01*
X222028476Y-87177595D01*
X222028476Y-87082357D01*
X222076095Y-86987119D01*
X222123714Y-86939500D01*
X222218952Y-86891880D01*
X222457047Y-86891880D01*
X222599904Y-86939500D01*
X222933238Y-86891880D02*
X223171333Y-87891880D01*
X223361809Y-87177595D01*
X223552285Y-87891880D01*
X223790380Y-86891880D01*
X224647523Y-86891880D02*
X224171333Y-86891880D01*
X224123714Y-87368071D01*
X224171333Y-87320452D01*
X224266571Y-87272833D01*
X224504666Y-87272833D01*
X224599904Y-87320452D01*
X224647523Y-87368071D01*
X224695142Y-87463309D01*
X224695142Y-87701404D01*
X224647523Y-87796642D01*
X224599904Y-87844261D01*
X224504666Y-87891880D01*
X224266571Y-87891880D01*
X224171333Y-87844261D01*
X224123714Y-87796642D01*
X225552285Y-86891880D02*
X225361809Y-86891880D01*
X225266571Y-86939500D01*
X225218952Y-86987119D01*
X225123714Y-87129976D01*
X225076095Y-87320452D01*
X225076095Y-87701404D01*
X225123714Y-87796642D01*
X225171333Y-87844261D01*
X225266571Y-87891880D01*
X225457047Y-87891880D01*
X225552285Y-87844261D01*
X225599904Y-87796642D01*
X225647523Y-87701404D01*
X225647523Y-87463309D01*
X225599904Y-87368071D01*
X225552285Y-87320452D01*
X225457047Y-87272833D01*
X225266571Y-87272833D01*
X225171333Y-87320452D01*
X225123714Y-87368071D01*
X225076095Y-87463309D01*
X241078476Y-87844261D02*
X241221333Y-87891880D01*
X241459428Y-87891880D01*
X241554666Y-87844261D01*
X241602285Y-87796642D01*
X241649904Y-87701404D01*
X241649904Y-87606166D01*
X241602285Y-87510928D01*
X241554666Y-87463309D01*
X241459428Y-87415690D01*
X241268952Y-87368071D01*
X241173714Y-87320452D01*
X241126095Y-87272833D01*
X241078476Y-87177595D01*
X241078476Y-87082357D01*
X241126095Y-86987119D01*
X241173714Y-86939500D01*
X241268952Y-86891880D01*
X241507047Y-86891880D01*
X241649904Y-86939500D01*
X241983238Y-86891880D02*
X242221333Y-87891880D01*
X242411809Y-87177595D01*
X242602285Y-87891880D01*
X242840380Y-86891880D01*
X243697523Y-86891880D02*
X243221333Y-86891880D01*
X243173714Y-87368071D01*
X243221333Y-87320452D01*
X243316571Y-87272833D01*
X243554666Y-87272833D01*
X243649904Y-87320452D01*
X243697523Y-87368071D01*
X243745142Y-87463309D01*
X243745142Y-87701404D01*
X243697523Y-87796642D01*
X243649904Y-87844261D01*
X243554666Y-87891880D01*
X243316571Y-87891880D01*
X243221333Y-87844261D01*
X243173714Y-87796642D01*
X244078476Y-86891880D02*
X244745142Y-86891880D01*
X244316571Y-87891880D01*
X260128476Y-87844261D02*
X260271333Y-87891880D01*
X260509428Y-87891880D01*
X260604666Y-87844261D01*
X260652285Y-87796642D01*
X260699904Y-87701404D01*
X260699904Y-87606166D01*
X260652285Y-87510928D01*
X260604666Y-87463309D01*
X260509428Y-87415690D01*
X260318952Y-87368071D01*
X260223714Y-87320452D01*
X260176095Y-87272833D01*
X260128476Y-87177595D01*
X260128476Y-87082357D01*
X260176095Y-86987119D01*
X260223714Y-86939500D01*
X260318952Y-86891880D01*
X260557047Y-86891880D01*
X260699904Y-86939500D01*
X261033238Y-86891880D02*
X261271333Y-87891880D01*
X261461809Y-87177595D01*
X261652285Y-87891880D01*
X261890380Y-86891880D01*
X262747523Y-86891880D02*
X262271333Y-86891880D01*
X262223714Y-87368071D01*
X262271333Y-87320452D01*
X262366571Y-87272833D01*
X262604666Y-87272833D01*
X262699904Y-87320452D01*
X262747523Y-87368071D01*
X262795142Y-87463309D01*
X262795142Y-87701404D01*
X262747523Y-87796642D01*
X262699904Y-87844261D01*
X262604666Y-87891880D01*
X262366571Y-87891880D01*
X262271333Y-87844261D01*
X262223714Y-87796642D01*
X263366571Y-87320452D02*
X263271333Y-87272833D01*
X263223714Y-87225214D01*
X263176095Y-87129976D01*
X263176095Y-87082357D01*
X263223714Y-86987119D01*
X263271333Y-86939500D01*
X263366571Y-86891880D01*
X263557047Y-86891880D01*
X263652285Y-86939500D01*
X263699904Y-86987119D01*
X263747523Y-87082357D01*
X263747523Y-87129976D01*
X263699904Y-87225214D01*
X263652285Y-87272833D01*
X263557047Y-87320452D01*
X263366571Y-87320452D01*
X263271333Y-87368071D01*
X263223714Y-87415690D01*
X263176095Y-87510928D01*
X263176095Y-87701404D01*
X263223714Y-87796642D01*
X263271333Y-87844261D01*
X263366571Y-87891880D01*
X263557047Y-87891880D01*
X263652285Y-87844261D01*
X263699904Y-87796642D01*
X263747523Y-87701404D01*
X263747523Y-87510928D01*
X263699904Y-87415690D01*
X263652285Y-87368071D01*
X263557047Y-87320452D01*
X279178476Y-87844261D02*
X279321333Y-87891880D01*
X279559428Y-87891880D01*
X279654666Y-87844261D01*
X279702285Y-87796642D01*
X279749904Y-87701404D01*
X279749904Y-87606166D01*
X279702285Y-87510928D01*
X279654666Y-87463309D01*
X279559428Y-87415690D01*
X279368952Y-87368071D01*
X279273714Y-87320452D01*
X279226095Y-87272833D01*
X279178476Y-87177595D01*
X279178476Y-87082357D01*
X279226095Y-86987119D01*
X279273714Y-86939500D01*
X279368952Y-86891880D01*
X279607047Y-86891880D01*
X279749904Y-86939500D01*
X280083238Y-86891880D02*
X280321333Y-87891880D01*
X280511809Y-87177595D01*
X280702285Y-87891880D01*
X280940380Y-86891880D01*
X281797523Y-86891880D02*
X281321333Y-86891880D01*
X281273714Y-87368071D01*
X281321333Y-87320452D01*
X281416571Y-87272833D01*
X281654666Y-87272833D01*
X281749904Y-87320452D01*
X281797523Y-87368071D01*
X281845142Y-87463309D01*
X281845142Y-87701404D01*
X281797523Y-87796642D01*
X281749904Y-87844261D01*
X281654666Y-87891880D01*
X281416571Y-87891880D01*
X281321333Y-87844261D01*
X281273714Y-87796642D01*
X282321333Y-87891880D02*
X282511809Y-87891880D01*
X282607047Y-87844261D01*
X282654666Y-87796642D01*
X282749904Y-87653785D01*
X282797523Y-87463309D01*
X282797523Y-87082357D01*
X282749904Y-86987119D01*
X282702285Y-86939500D01*
X282607047Y-86891880D01*
X282416571Y-86891880D01*
X282321333Y-86939500D01*
X282273714Y-86987119D01*
X282226095Y-87082357D01*
X282226095Y-87320452D01*
X282273714Y-87415690D01*
X282321333Y-87463309D01*
X282416571Y-87510928D01*
X282607047Y-87510928D01*
X282702285Y-87463309D01*
X282749904Y-87415690D01*
X282797523Y-87320452D01*
X298228476Y-87844261D02*
X298371333Y-87891880D01*
X298609428Y-87891880D01*
X298704666Y-87844261D01*
X298752285Y-87796642D01*
X298799904Y-87701404D01*
X298799904Y-87606166D01*
X298752285Y-87510928D01*
X298704666Y-87463309D01*
X298609428Y-87415690D01*
X298418952Y-87368071D01*
X298323714Y-87320452D01*
X298276095Y-87272833D01*
X298228476Y-87177595D01*
X298228476Y-87082357D01*
X298276095Y-86987119D01*
X298323714Y-86939500D01*
X298418952Y-86891880D01*
X298657047Y-86891880D01*
X298799904Y-86939500D01*
X299133238Y-86891880D02*
X299371333Y-87891880D01*
X299561809Y-87177595D01*
X299752285Y-87891880D01*
X299990380Y-86891880D01*
X300799904Y-86891880D02*
X300609428Y-86891880D01*
X300514190Y-86939500D01*
X300466571Y-86987119D01*
X300371333Y-87129976D01*
X300323714Y-87320452D01*
X300323714Y-87701404D01*
X300371333Y-87796642D01*
X300418952Y-87844261D01*
X300514190Y-87891880D01*
X300704666Y-87891880D01*
X300799904Y-87844261D01*
X300847523Y-87796642D01*
X300895142Y-87701404D01*
X300895142Y-87463309D01*
X300847523Y-87368071D01*
X300799904Y-87320452D01*
X300704666Y-87272833D01*
X300514190Y-87272833D01*
X300418952Y-87320452D01*
X300371333Y-87368071D01*
X300323714Y-87463309D01*
X301514190Y-86891880D02*
X301609428Y-86891880D01*
X301704666Y-86939500D01*
X301752285Y-86987119D01*
X301799904Y-87082357D01*
X301847523Y-87272833D01*
X301847523Y-87510928D01*
X301799904Y-87701404D01*
X301752285Y-87796642D01*
X301704666Y-87844261D01*
X301609428Y-87891880D01*
X301514190Y-87891880D01*
X301418952Y-87844261D01*
X301371333Y-87796642D01*
X301323714Y-87701404D01*
X301276095Y-87510928D01*
X301276095Y-87272833D01*
X301323714Y-87082357D01*
X301371333Y-86987119D01*
X301418952Y-86939500D01*
X301514190Y-86891880D01*
X317278476Y-87844261D02*
X317421333Y-87891880D01*
X317659428Y-87891880D01*
X317754666Y-87844261D01*
X317802285Y-87796642D01*
X317849904Y-87701404D01*
X317849904Y-87606166D01*
X317802285Y-87510928D01*
X317754666Y-87463309D01*
X317659428Y-87415690D01*
X317468952Y-87368071D01*
X317373714Y-87320452D01*
X317326095Y-87272833D01*
X317278476Y-87177595D01*
X317278476Y-87082357D01*
X317326095Y-86987119D01*
X317373714Y-86939500D01*
X317468952Y-86891880D01*
X317707047Y-86891880D01*
X317849904Y-86939500D01*
X318183238Y-86891880D02*
X318421333Y-87891880D01*
X318611809Y-87177595D01*
X318802285Y-87891880D01*
X319040380Y-86891880D01*
X319849904Y-86891880D02*
X319659428Y-86891880D01*
X319564190Y-86939500D01*
X319516571Y-86987119D01*
X319421333Y-87129976D01*
X319373714Y-87320452D01*
X319373714Y-87701404D01*
X319421333Y-87796642D01*
X319468952Y-87844261D01*
X319564190Y-87891880D01*
X319754666Y-87891880D01*
X319849904Y-87844261D01*
X319897523Y-87796642D01*
X319945142Y-87701404D01*
X319945142Y-87463309D01*
X319897523Y-87368071D01*
X319849904Y-87320452D01*
X319754666Y-87272833D01*
X319564190Y-87272833D01*
X319468952Y-87320452D01*
X319421333Y-87368071D01*
X319373714Y-87463309D01*
X320897523Y-87891880D02*
X320326095Y-87891880D01*
X320611809Y-87891880D02*
X320611809Y-86891880D01*
X320516571Y-87034738D01*
X320421333Y-87129976D01*
X320326095Y-87177595D01*
X26765476Y-106894761D02*
X26908333Y-106942380D01*
X27146428Y-106942380D01*
X27241666Y-106894761D01*
X27289285Y-106847142D01*
X27336904Y-106751904D01*
X27336904Y-106656666D01*
X27289285Y-106561428D01*
X27241666Y-106513809D01*
X27146428Y-106466190D01*
X26955952Y-106418571D01*
X26860714Y-106370952D01*
X26813095Y-106323333D01*
X26765476Y-106228095D01*
X26765476Y-106132857D01*
X26813095Y-106037619D01*
X26860714Y-105990000D01*
X26955952Y-105942380D01*
X27194047Y-105942380D01*
X27336904Y-105990000D01*
X27670238Y-105942380D02*
X27908333Y-106942380D01*
X28098809Y-106228095D01*
X28289285Y-106942380D01*
X28527380Y-105942380D01*
X29336904Y-105942380D02*
X29146428Y-105942380D01*
X29051190Y-105990000D01*
X29003571Y-106037619D01*
X28908333Y-106180476D01*
X28860714Y-106370952D01*
X28860714Y-106751904D01*
X28908333Y-106847142D01*
X28955952Y-106894761D01*
X29051190Y-106942380D01*
X29241666Y-106942380D01*
X29336904Y-106894761D01*
X29384523Y-106847142D01*
X29432142Y-106751904D01*
X29432142Y-106513809D01*
X29384523Y-106418571D01*
X29336904Y-106370952D01*
X29241666Y-106323333D01*
X29051190Y-106323333D01*
X28955952Y-106370952D01*
X28908333Y-106418571D01*
X28860714Y-106513809D01*
X29765476Y-105942380D02*
X30384523Y-105942380D01*
X30051190Y-106323333D01*
X30194047Y-106323333D01*
X30289285Y-106370952D01*
X30336904Y-106418571D01*
X30384523Y-106513809D01*
X30384523Y-106751904D01*
X30336904Y-106847142D01*
X30289285Y-106894761D01*
X30194047Y-106942380D01*
X29908333Y-106942380D01*
X29813095Y-106894761D01*
X29765476Y-106847142D01*
X298228476Y-106894761D02*
X298371333Y-106942380D01*
X298609428Y-106942380D01*
X298704666Y-106894761D01*
X298752285Y-106847142D01*
X298799904Y-106751904D01*
X298799904Y-106656666D01*
X298752285Y-106561428D01*
X298704666Y-106513809D01*
X298609428Y-106466190D01*
X298418952Y-106418571D01*
X298323714Y-106370952D01*
X298276095Y-106323333D01*
X298228476Y-106228095D01*
X298228476Y-106132857D01*
X298276095Y-106037619D01*
X298323714Y-105990000D01*
X298418952Y-105942380D01*
X298657047Y-105942380D01*
X298799904Y-105990000D01*
X299133238Y-105942380D02*
X299371333Y-106942380D01*
X299561809Y-106228095D01*
X299752285Y-106942380D01*
X299990380Y-105942380D01*
X300276095Y-105942380D02*
X300942761Y-105942380D01*
X300514190Y-106942380D01*
X301847523Y-106942380D02*
X301276095Y-106942380D01*
X301561809Y-106942380D02*
X301561809Y-105942380D01*
X301466571Y-106085238D01*
X301371333Y-106180476D01*
X301276095Y-106228095D01*
X317278476Y-106894761D02*
X317421333Y-106942380D01*
X317659428Y-106942380D01*
X317754666Y-106894761D01*
X317802285Y-106847142D01*
X317849904Y-106751904D01*
X317849904Y-106656666D01*
X317802285Y-106561428D01*
X317754666Y-106513809D01*
X317659428Y-106466190D01*
X317468952Y-106418571D01*
X317373714Y-106370952D01*
X317326095Y-106323333D01*
X317278476Y-106228095D01*
X317278476Y-106132857D01*
X317326095Y-106037619D01*
X317373714Y-105990000D01*
X317468952Y-105942380D01*
X317707047Y-105942380D01*
X317849904Y-105990000D01*
X318183238Y-105942380D02*
X318421333Y-106942380D01*
X318611809Y-106228095D01*
X318802285Y-106942380D01*
X319040380Y-105942380D01*
X319326095Y-105942380D02*
X319992761Y-105942380D01*
X319564190Y-106942380D01*
X320326095Y-106037619D02*
X320373714Y-105990000D01*
X320468952Y-105942380D01*
X320707047Y-105942380D01*
X320802285Y-105990000D01*
X320849904Y-106037619D01*
X320897523Y-106132857D01*
X320897523Y-106228095D01*
X320849904Y-106370952D01*
X320278476Y-106942380D01*
X320897523Y-106942380D01*
X336328476Y-106894761D02*
X336471333Y-106942380D01*
X336709428Y-106942380D01*
X336804666Y-106894761D01*
X336852285Y-106847142D01*
X336899904Y-106751904D01*
X336899904Y-106656666D01*
X336852285Y-106561428D01*
X336804666Y-106513809D01*
X336709428Y-106466190D01*
X336518952Y-106418571D01*
X336423714Y-106370952D01*
X336376095Y-106323333D01*
X336328476Y-106228095D01*
X336328476Y-106132857D01*
X336376095Y-106037619D01*
X336423714Y-105990000D01*
X336518952Y-105942380D01*
X336757047Y-105942380D01*
X336899904Y-105990000D01*
X337233238Y-105942380D02*
X337471333Y-106942380D01*
X337661809Y-106228095D01*
X337852285Y-106942380D01*
X338090380Y-105942380D01*
X338376095Y-105942380D02*
X339042761Y-105942380D01*
X338614190Y-106942380D01*
X339328476Y-105942380D02*
X339947523Y-105942380D01*
X339614190Y-106323333D01*
X339757047Y-106323333D01*
X339852285Y-106370952D01*
X339899904Y-106418571D01*
X339947523Y-106513809D01*
X339947523Y-106751904D01*
X339899904Y-106847142D01*
X339852285Y-106894761D01*
X339757047Y-106942380D01*
X339471333Y-106942380D01*
X339376095Y-106894761D01*
X339328476Y-106847142D01*
X260128476Y-30694261D02*
X260271333Y-30741880D01*
X260509428Y-30741880D01*
X260604666Y-30694261D01*
X260652285Y-30646642D01*
X260699904Y-30551404D01*
X260699904Y-30456166D01*
X260652285Y-30360928D01*
X260604666Y-30313309D01*
X260509428Y-30265690D01*
X260318952Y-30218071D01*
X260223714Y-30170452D01*
X260176095Y-30122833D01*
X260128476Y-30027595D01*
X260128476Y-29932357D01*
X260176095Y-29837119D01*
X260223714Y-29789500D01*
X260318952Y-29741880D01*
X260557047Y-29741880D01*
X260699904Y-29789500D01*
X261033238Y-29741880D02*
X261271333Y-30741880D01*
X261461809Y-30027595D01*
X261652285Y-30741880D01*
X261890380Y-29741880D01*
X262795142Y-30741880D02*
X262223714Y-30741880D01*
X262509428Y-30741880D02*
X262509428Y-29741880D01*
X262414190Y-29884738D01*
X262318952Y-29979976D01*
X262223714Y-30027595D01*
X263128476Y-29741880D02*
X263747523Y-29741880D01*
X263414190Y-30122833D01*
X263557047Y-30122833D01*
X263652285Y-30170452D01*
X263699904Y-30218071D01*
X263747523Y-30313309D01*
X263747523Y-30551404D01*
X263699904Y-30646642D01*
X263652285Y-30694261D01*
X263557047Y-30741880D01*
X263271333Y-30741880D01*
X263176095Y-30694261D01*
X263128476Y-30646642D01*
X374158095Y-68667380D02*
X374729523Y-68667380D01*
X374443809Y-69667380D02*
X374443809Y-68667380D01*
X375634285Y-69667380D02*
X375300952Y-69191190D01*
X375062857Y-69667380D02*
X375062857Y-68667380D01*
X375443809Y-68667380D01*
X375539047Y-68715000D01*
X375586666Y-68762619D01*
X375634285Y-68857857D01*
X375634285Y-69000714D01*
X375586666Y-69095952D01*
X375539047Y-69143571D01*
X375443809Y-69191190D01*
X375062857Y-69191190D01*
X376634285Y-69667380D02*
X376300952Y-69191190D01*
X376062857Y-69667380D02*
X376062857Y-68667380D01*
X376443809Y-68667380D01*
X376539047Y-68715000D01*
X376586666Y-68762619D01*
X376634285Y-68857857D01*
X376634285Y-69000714D01*
X376586666Y-69095952D01*
X376539047Y-69143571D01*
X376443809Y-69191190D01*
X376062857Y-69191190D01*
X377015238Y-69619761D02*
X377158095Y-69667380D01*
X377396190Y-69667380D01*
X377491428Y-69619761D01*
X377539047Y-69572142D01*
X377586666Y-69476904D01*
X377586666Y-69381666D01*
X377539047Y-69286428D01*
X377491428Y-69238809D01*
X377396190Y-69191190D01*
X377205714Y-69143571D01*
X377110476Y-69095952D01*
X377062857Y-69048333D01*
X377015238Y-68953095D01*
X377015238Y-68857857D01*
X377062857Y-68762619D01*
X377110476Y-68715000D01*
X377205714Y-68667380D01*
X377443809Y-68667380D01*
X377586666Y-68715000D01*
X363662619Y-58312380D02*
X363853095Y-58312380D01*
X363948333Y-58360000D01*
X364043571Y-58455238D01*
X364091190Y-58645714D01*
X364091190Y-58979047D01*
X364043571Y-59169523D01*
X363948333Y-59264761D01*
X363853095Y-59312380D01*
X363662619Y-59312380D01*
X363567380Y-59264761D01*
X363472142Y-59169523D01*
X363424523Y-58979047D01*
X363424523Y-58645714D01*
X363472142Y-58455238D01*
X363567380Y-58360000D01*
X363662619Y-58312380D01*
X364995952Y-59312380D02*
X364519761Y-59312380D01*
X364519761Y-58312380D01*
X365329285Y-58788571D02*
X365662619Y-58788571D01*
X365805476Y-59312380D02*
X365329285Y-59312380D01*
X365329285Y-58312380D01*
X365805476Y-58312380D01*
X366234047Y-59312380D02*
X366234047Y-58312380D01*
X366472142Y-58312380D01*
X366615000Y-58360000D01*
X366710238Y-58455238D01*
X366757857Y-58550476D01*
X366805476Y-58740952D01*
X366805476Y-58883809D01*
X366757857Y-59074285D01*
X366710238Y-59169523D01*
X366615000Y-59264761D01*
X366472142Y-59312380D01*
X366234047Y-59312380D01*
X357918095Y-72350261D02*
X358060952Y-72397880D01*
X358299047Y-72397880D01*
X358394285Y-72350261D01*
X358441904Y-72302642D01*
X358489523Y-72207404D01*
X358489523Y-72112166D01*
X358441904Y-72016928D01*
X358394285Y-71969309D01*
X358299047Y-71921690D01*
X358108571Y-71874071D01*
X358013333Y-71826452D01*
X357965714Y-71778833D01*
X357918095Y-71683595D01*
X357918095Y-71588357D01*
X357965714Y-71493119D01*
X358013333Y-71445500D01*
X358108571Y-71397880D01*
X358346666Y-71397880D01*
X358489523Y-71445500D01*
X358918095Y-71731214D02*
X358918095Y-72731214D01*
X358918095Y-71778833D02*
X359013333Y-71731214D01*
X359203809Y-71731214D01*
X359299047Y-71778833D01*
X359346666Y-71826452D01*
X359394285Y-71921690D01*
X359394285Y-72207404D01*
X359346666Y-72302642D01*
X359299047Y-72350261D01*
X359203809Y-72397880D01*
X359013333Y-72397880D01*
X358918095Y-72350261D01*
X360203809Y-72350261D02*
X360108571Y-72397880D01*
X359918095Y-72397880D01*
X359822857Y-72350261D01*
X359775238Y-72255023D01*
X359775238Y-71874071D01*
X359822857Y-71778833D01*
X359918095Y-71731214D01*
X360108571Y-71731214D01*
X360203809Y-71778833D01*
X360251428Y-71874071D01*
X360251428Y-71969309D01*
X359775238Y-72064547D01*
X361108571Y-72397880D02*
X361108571Y-71874071D01*
X361060952Y-71778833D01*
X360965714Y-71731214D01*
X360775238Y-71731214D01*
X360680000Y-71778833D01*
X361108571Y-72350261D02*
X361013333Y-72397880D01*
X360775238Y-72397880D01*
X360680000Y-72350261D01*
X360632380Y-72255023D01*
X360632380Y-72159785D01*
X360680000Y-72064547D01*
X360775238Y-72016928D01*
X361013333Y-72016928D01*
X361108571Y-71969309D01*
X361584761Y-72397880D02*
X361584761Y-71397880D01*
X361680000Y-72016928D02*
X361965714Y-72397880D01*
X361965714Y-71731214D02*
X361584761Y-72112166D01*
X362775238Y-72350261D02*
X362680000Y-72397880D01*
X362489523Y-72397880D01*
X362394285Y-72350261D01*
X362346666Y-72255023D01*
X362346666Y-71874071D01*
X362394285Y-71778833D01*
X362489523Y-71731214D01*
X362680000Y-71731214D01*
X362775238Y-71778833D01*
X362822857Y-71874071D01*
X362822857Y-71969309D01*
X362346666Y-72064547D01*
X363251428Y-72397880D02*
X363251428Y-71731214D01*
X363251428Y-71921690D02*
X363299047Y-71826452D01*
X363346666Y-71778833D01*
X363441904Y-71731214D01*
X363537142Y-71731214D01*
D13*
X359032380Y-28066785D02*
X358809047Y-27709642D01*
X358649523Y-28066785D02*
X358649523Y-27316785D01*
X358904761Y-27316785D01*
X358968571Y-27352500D01*
X359000476Y-27388214D01*
X359032380Y-27459642D01*
X359032380Y-27566785D01*
X359000476Y-27638214D01*
X358968571Y-27673928D01*
X358904761Y-27709642D01*
X358649523Y-27709642D01*
X359287619Y-27852500D02*
X359606666Y-27852500D01*
X359223809Y-28066785D02*
X359447142Y-27316785D01*
X359670476Y-28066785D01*
X359830000Y-27316785D02*
X359989523Y-28066785D01*
X360117142Y-27531071D01*
X360244761Y-28066785D01*
X360404285Y-27316785D01*
X358984523Y-29902500D02*
X358920714Y-29866785D01*
X358825000Y-29866785D01*
X358729285Y-29902500D01*
X358665476Y-29973928D01*
X358633571Y-30045357D01*
X358601666Y-30188214D01*
X358601666Y-30295357D01*
X358633571Y-30438214D01*
X358665476Y-30509642D01*
X358729285Y-30581071D01*
X358825000Y-30616785D01*
X358888809Y-30616785D01*
X358984523Y-30581071D01*
X359016428Y-30545357D01*
X359016428Y-30295357D01*
X358888809Y-30295357D01*
X359303571Y-30616785D02*
X359303571Y-29866785D01*
X359686428Y-30616785D01*
X359686428Y-29866785D01*
X360005476Y-30616785D02*
X360005476Y-29866785D01*
X360165000Y-29866785D01*
X360260714Y-29902500D01*
X360324523Y-29973928D01*
X360356428Y-30045357D01*
X360388333Y-30188214D01*
X360388333Y-30295357D01*
X360356428Y-30438214D01*
X360324523Y-30509642D01*
X360260714Y-30581071D01*
X360165000Y-30616785D01*
X360005476Y-30616785D01*
X359128095Y-33166785D02*
X358904761Y-32809642D01*
X358745238Y-33166785D02*
X358745238Y-32416785D01*
X359000476Y-32416785D01*
X359064285Y-32452500D01*
X359096190Y-32488214D01*
X359128095Y-32559642D01*
X359128095Y-32666785D01*
X359096190Y-32738214D01*
X359064285Y-32773928D01*
X359000476Y-32809642D01*
X358745238Y-32809642D01*
X359383333Y-33131071D02*
X359479047Y-33166785D01*
X359638571Y-33166785D01*
X359702380Y-33131071D01*
X359734285Y-33095357D01*
X359766190Y-33023928D01*
X359766190Y-32952500D01*
X359734285Y-32881071D01*
X359702380Y-32845357D01*
X359638571Y-32809642D01*
X359510952Y-32773928D01*
X359447142Y-32738214D01*
X359415238Y-32702500D01*
X359383333Y-32631071D01*
X359383333Y-32559642D01*
X359415238Y-32488214D01*
X359447142Y-32452500D01*
X359510952Y-32416785D01*
X359670476Y-32416785D01*
X359766190Y-32452500D01*
X359957619Y-32416785D02*
X360340476Y-32416785D01*
X360149047Y-33166785D02*
X360149047Y-32416785D01*
X358601666Y-34866785D02*
X358825000Y-35616785D01*
X359048333Y-34866785D01*
X359654523Y-35545357D02*
X359622619Y-35581071D01*
X359526904Y-35616785D01*
X359463095Y-35616785D01*
X359367380Y-35581071D01*
X359303571Y-35509642D01*
X359271666Y-35438214D01*
X359239761Y-35295357D01*
X359239761Y-35188214D01*
X359271666Y-35045357D01*
X359303571Y-34973928D01*
X359367380Y-34902500D01*
X359463095Y-34866785D01*
X359526904Y-34866785D01*
X359622619Y-34902500D01*
X359654523Y-34938214D01*
X360324523Y-35545357D02*
X360292619Y-35581071D01*
X360196904Y-35616785D01*
X360133095Y-35616785D01*
X360037380Y-35581071D01*
X359973571Y-35509642D01*
X359941666Y-35438214D01*
X359909761Y-35295357D01*
X359909761Y-35188214D01*
X359941666Y-35045357D01*
X359973571Y-34973928D01*
X360037380Y-34902500D01*
X360133095Y-34866785D01*
X360196904Y-34866785D01*
X360292619Y-34902500D01*
X360324523Y-34938214D01*
X358659285Y-38102500D02*
X358978333Y-38102500D01*
X358595476Y-38316785D02*
X358818809Y-37566785D01*
X359042142Y-38316785D01*
X359201666Y-37566785D02*
X359616428Y-37566785D01*
X359393095Y-37852500D01*
X359488809Y-37852500D01*
X359552619Y-37888214D01*
X359584523Y-37923928D01*
X359616428Y-37995357D01*
X359616428Y-38173928D01*
X359584523Y-38245357D01*
X359552619Y-38281071D01*
X359488809Y-38316785D01*
X359297380Y-38316785D01*
X359233571Y-38281071D01*
X359201666Y-38245357D01*
X360382142Y-37531071D02*
X359807857Y-38495357D01*
X360828809Y-37923928D02*
X360605476Y-37923928D01*
X360605476Y-38316785D02*
X360605476Y-37566785D01*
X360924523Y-37566785D01*
X361466904Y-37816785D02*
X361466904Y-38316785D01*
X361307380Y-37531071D02*
X361147857Y-38066785D01*
X361562619Y-38066785D01*
X358659285Y-40602500D02*
X358978333Y-40602500D01*
X358595476Y-40816785D02*
X358818809Y-40066785D01*
X359042142Y-40816785D01*
X359233571Y-40138214D02*
X359265476Y-40102500D01*
X359329285Y-40066785D01*
X359488809Y-40066785D01*
X359552619Y-40102500D01*
X359584523Y-40138214D01*
X359616428Y-40209642D01*
X359616428Y-40281071D01*
X359584523Y-40388214D01*
X359201666Y-40816785D01*
X359616428Y-40816785D01*
X360382142Y-40031071D02*
X359807857Y-40995357D01*
X360828809Y-40423928D02*
X360605476Y-40423928D01*
X360605476Y-40816785D02*
X360605476Y-40066785D01*
X360924523Y-40066785D01*
X361498809Y-40066785D02*
X361179761Y-40066785D01*
X361147857Y-40423928D01*
X361179761Y-40388214D01*
X361243571Y-40352500D01*
X361403095Y-40352500D01*
X361466904Y-40388214D01*
X361498809Y-40423928D01*
X361530714Y-40495357D01*
X361530714Y-40673928D01*
X361498809Y-40745357D01*
X361466904Y-40781071D01*
X361403095Y-40816785D01*
X361243571Y-40816785D01*
X361179761Y-40781071D01*
X361147857Y-40745357D01*
X358659285Y-43102500D02*
X358978333Y-43102500D01*
X358595476Y-43316785D02*
X358818809Y-42566785D01*
X359042142Y-43316785D01*
X359616428Y-43316785D02*
X359233571Y-43316785D01*
X359425000Y-43316785D02*
X359425000Y-42566785D01*
X359361190Y-42673928D01*
X359297380Y-42745357D01*
X359233571Y-42781071D01*
X360382142Y-42531071D02*
X359807857Y-43495357D01*
X360828809Y-42923928D02*
X360605476Y-42923928D01*
X360605476Y-43316785D02*
X360605476Y-42566785D01*
X360924523Y-42566785D01*
X361466904Y-42566785D02*
X361339285Y-42566785D01*
X361275476Y-42602500D01*
X361243571Y-42638214D01*
X361179761Y-42745357D01*
X361147857Y-42888214D01*
X361147857Y-43173928D01*
X361179761Y-43245357D01*
X361211666Y-43281071D01*
X361275476Y-43316785D01*
X361403095Y-43316785D01*
X361466904Y-43281071D01*
X361498809Y-43245357D01*
X361530714Y-43173928D01*
X361530714Y-42995357D01*
X361498809Y-42923928D01*
X361466904Y-42888214D01*
X361403095Y-42852500D01*
X361275476Y-42852500D01*
X361211666Y-42888214D01*
X361179761Y-42923928D01*
X361147857Y-42995357D01*
X358659285Y-45652500D02*
X358978333Y-45652500D01*
X358595476Y-45866785D02*
X358818809Y-45116785D01*
X359042142Y-45866785D01*
X359393095Y-45116785D02*
X359456904Y-45116785D01*
X359520714Y-45152500D01*
X359552619Y-45188214D01*
X359584523Y-45259642D01*
X359616428Y-45402500D01*
X359616428Y-45581071D01*
X359584523Y-45723928D01*
X359552619Y-45795357D01*
X359520714Y-45831071D01*
X359456904Y-45866785D01*
X359393095Y-45866785D01*
X359329285Y-45831071D01*
X359297380Y-45795357D01*
X359265476Y-45723928D01*
X359233571Y-45581071D01*
X359233571Y-45402500D01*
X359265476Y-45259642D01*
X359297380Y-45188214D01*
X359329285Y-45152500D01*
X359393095Y-45116785D01*
X360382142Y-45081071D02*
X359807857Y-46045357D01*
X360828809Y-45473928D02*
X360605476Y-45473928D01*
X360605476Y-45866785D02*
X360605476Y-45116785D01*
X360924523Y-45116785D01*
X361115952Y-45116785D02*
X361562619Y-45116785D01*
X361275476Y-45866785D01*
X358962380Y-48416785D02*
X358579523Y-48416785D01*
X358770952Y-48416785D02*
X358770952Y-47666785D01*
X358707142Y-47773928D01*
X358643333Y-47845357D01*
X358579523Y-47881071D01*
X359568571Y-47666785D02*
X359249523Y-47666785D01*
X359217619Y-48023928D01*
X359249523Y-47988214D01*
X359313333Y-47952500D01*
X359472857Y-47952500D01*
X359536666Y-47988214D01*
X359568571Y-48023928D01*
X359600476Y-48095357D01*
X359600476Y-48273928D01*
X359568571Y-48345357D01*
X359536666Y-48381071D01*
X359472857Y-48416785D01*
X359313333Y-48416785D01*
X359249523Y-48381071D01*
X359217619Y-48345357D01*
X360366190Y-47631071D02*
X359791904Y-48595357D01*
X360812857Y-48023928D02*
X360908571Y-48059642D01*
X360940476Y-48095357D01*
X360972380Y-48166785D01*
X360972380Y-48273928D01*
X360940476Y-48345357D01*
X360908571Y-48381071D01*
X360844761Y-48416785D01*
X360589523Y-48416785D01*
X360589523Y-47666785D01*
X360812857Y-47666785D01*
X360876666Y-47702500D01*
X360908571Y-47738214D01*
X360940476Y-47809642D01*
X360940476Y-47881071D01*
X360908571Y-47952500D01*
X360876666Y-47988214D01*
X360812857Y-48023928D01*
X360589523Y-48023928D01*
X361610476Y-48416785D02*
X361227619Y-48416785D01*
X361419047Y-48416785D02*
X361419047Y-47666785D01*
X361355238Y-47773928D01*
X361291428Y-47845357D01*
X361227619Y-47881071D01*
X358962380Y-50966785D02*
X358579523Y-50966785D01*
X358770952Y-50966785D02*
X358770952Y-50216785D01*
X358707142Y-50323928D01*
X358643333Y-50395357D01*
X358579523Y-50431071D01*
X359536666Y-50466785D02*
X359536666Y-50966785D01*
X359377142Y-50181071D02*
X359217619Y-50716785D01*
X359632380Y-50716785D01*
X360366190Y-50181071D02*
X359791904Y-51145357D01*
X360812857Y-50573928D02*
X360908571Y-50609642D01*
X360940476Y-50645357D01*
X360972380Y-50716785D01*
X360972380Y-50823928D01*
X360940476Y-50895357D01*
X360908571Y-50931071D01*
X360844761Y-50966785D01*
X360589523Y-50966785D01*
X360589523Y-50216785D01*
X360812857Y-50216785D01*
X360876666Y-50252500D01*
X360908571Y-50288214D01*
X360940476Y-50359642D01*
X360940476Y-50431071D01*
X360908571Y-50502500D01*
X360876666Y-50538214D01*
X360812857Y-50573928D01*
X360589523Y-50573928D01*
X361195714Y-50216785D02*
X361610476Y-50216785D01*
X361387142Y-50502500D01*
X361482857Y-50502500D01*
X361546666Y-50538214D01*
X361578571Y-50573928D01*
X361610476Y-50645357D01*
X361610476Y-50823928D01*
X361578571Y-50895357D01*
X361546666Y-50931071D01*
X361482857Y-50966785D01*
X361291428Y-50966785D01*
X361227619Y-50931071D01*
X361195714Y-50895357D01*
X358962380Y-56016785D02*
X358579523Y-56016785D01*
X358770952Y-56016785D02*
X358770952Y-55266785D01*
X358707142Y-55373928D01*
X358643333Y-55445357D01*
X358579523Y-55481071D01*
X359377142Y-55266785D02*
X359440952Y-55266785D01*
X359504761Y-55302500D01*
X359536666Y-55338214D01*
X359568571Y-55409642D01*
X359600476Y-55552500D01*
X359600476Y-55731071D01*
X359568571Y-55873928D01*
X359536666Y-55945357D01*
X359504761Y-55981071D01*
X359440952Y-56016785D01*
X359377142Y-56016785D01*
X359313333Y-55981071D01*
X359281428Y-55945357D01*
X359249523Y-55873928D01*
X359217619Y-55731071D01*
X359217619Y-55552500D01*
X359249523Y-55409642D01*
X359281428Y-55338214D01*
X359313333Y-55302500D01*
X359377142Y-55266785D01*
X360366190Y-55231071D02*
X359791904Y-56195357D01*
X360812857Y-55623928D02*
X360908571Y-55659642D01*
X360940476Y-55695357D01*
X360972380Y-55766785D01*
X360972380Y-55873928D01*
X360940476Y-55945357D01*
X360908571Y-55981071D01*
X360844761Y-56016785D01*
X360589523Y-56016785D01*
X360589523Y-55266785D01*
X360812857Y-55266785D01*
X360876666Y-55302500D01*
X360908571Y-55338214D01*
X360940476Y-55409642D01*
X360940476Y-55481071D01*
X360908571Y-55552500D01*
X360876666Y-55588214D01*
X360812857Y-55623928D01*
X360589523Y-55623928D01*
X361546666Y-55266785D02*
X361419047Y-55266785D01*
X361355238Y-55302500D01*
X361323333Y-55338214D01*
X361259523Y-55445357D01*
X361227619Y-55588214D01*
X361227619Y-55873928D01*
X361259523Y-55945357D01*
X361291428Y-55981071D01*
X361355238Y-56016785D01*
X361482857Y-56016785D01*
X361546666Y-55981071D01*
X361578571Y-55945357D01*
X361610476Y-55873928D01*
X361610476Y-55695357D01*
X361578571Y-55623928D01*
X361546666Y-55588214D01*
X361482857Y-55552500D01*
X361355238Y-55552500D01*
X361291428Y-55588214D01*
X361259523Y-55623928D01*
X361227619Y-55695357D01*
X358962380Y-53516785D02*
X358579523Y-53516785D01*
X358770952Y-53516785D02*
X358770952Y-52766785D01*
X358707142Y-52873928D01*
X358643333Y-52945357D01*
X358579523Y-52981071D01*
X359536666Y-52766785D02*
X359409047Y-52766785D01*
X359345238Y-52802500D01*
X359313333Y-52838214D01*
X359249523Y-52945357D01*
X359217619Y-53088214D01*
X359217619Y-53373928D01*
X359249523Y-53445357D01*
X359281428Y-53481071D01*
X359345238Y-53516785D01*
X359472857Y-53516785D01*
X359536666Y-53481071D01*
X359568571Y-53445357D01*
X359600476Y-53373928D01*
X359600476Y-53195357D01*
X359568571Y-53123928D01*
X359536666Y-53088214D01*
X359472857Y-53052500D01*
X359345238Y-53052500D01*
X359281428Y-53088214D01*
X359249523Y-53123928D01*
X359217619Y-53195357D01*
X360366190Y-52731071D02*
X359791904Y-53695357D01*
X360812857Y-53123928D02*
X360908571Y-53159642D01*
X360940476Y-53195357D01*
X360972380Y-53266785D01*
X360972380Y-53373928D01*
X360940476Y-53445357D01*
X360908571Y-53481071D01*
X360844761Y-53516785D01*
X360589523Y-53516785D01*
X360589523Y-52766785D01*
X360812857Y-52766785D01*
X360876666Y-52802500D01*
X360908571Y-52838214D01*
X360940476Y-52909642D01*
X360940476Y-52981071D01*
X360908571Y-53052500D01*
X360876666Y-53088214D01*
X360812857Y-53123928D01*
X360589523Y-53123928D01*
X361227619Y-52838214D02*
X361259523Y-52802500D01*
X361323333Y-52766785D01*
X361482857Y-52766785D01*
X361546666Y-52802500D01*
X361578571Y-52838214D01*
X361610476Y-52909642D01*
X361610476Y-52981071D01*
X361578571Y-53088214D01*
X361195714Y-53516785D01*
X361610476Y-53516785D01*
X368062380Y-50423928D02*
X368285714Y-50423928D01*
X368381428Y-50816785D02*
X368062380Y-50816785D01*
X368062380Y-50066785D01*
X368381428Y-50066785D01*
X368955714Y-50066785D02*
X368828095Y-50066785D01*
X368764285Y-50102500D01*
X368732380Y-50138214D01*
X368668571Y-50245357D01*
X368636666Y-50388214D01*
X368636666Y-50673928D01*
X368668571Y-50745357D01*
X368700476Y-50781071D01*
X368764285Y-50816785D01*
X368891904Y-50816785D01*
X368955714Y-50781071D01*
X368987619Y-50745357D01*
X369019523Y-50673928D01*
X369019523Y-50495357D01*
X368987619Y-50423928D01*
X368955714Y-50388214D01*
X368891904Y-50352500D01*
X368764285Y-50352500D01*
X368700476Y-50388214D01*
X368668571Y-50423928D01*
X368636666Y-50495357D01*
X369785238Y-50031071D02*
X369210952Y-50995357D01*
X369944761Y-50066785D02*
X370391428Y-50066785D01*
X370104285Y-50816785D01*
X368030476Y-48266785D02*
X368030476Y-47516785D01*
X368190000Y-47516785D01*
X368285714Y-47552500D01*
X368349523Y-47623928D01*
X368381428Y-47695357D01*
X368413333Y-47838214D01*
X368413333Y-47945357D01*
X368381428Y-48088214D01*
X368349523Y-48159642D01*
X368285714Y-48231071D01*
X368190000Y-48266785D01*
X368030476Y-48266785D01*
X368636666Y-47516785D02*
X369083333Y-47516785D01*
X368796190Y-48266785D01*
X369817142Y-47481071D02*
X369242857Y-48445357D01*
X370327619Y-47516785D02*
X370200000Y-47516785D01*
X370136190Y-47552500D01*
X370104285Y-47588214D01*
X370040476Y-47695357D01*
X370008571Y-47838214D01*
X370008571Y-48123928D01*
X370040476Y-48195357D01*
X370072380Y-48231071D01*
X370136190Y-48266785D01*
X370263809Y-48266785D01*
X370327619Y-48231071D01*
X370359523Y-48195357D01*
X370391428Y-48123928D01*
X370391428Y-47945357D01*
X370359523Y-47873928D01*
X370327619Y-47838214D01*
X370263809Y-47802500D01*
X370136190Y-47802500D01*
X370072380Y-47838214D01*
X370040476Y-47873928D01*
X370008571Y-47945357D01*
X368934523Y-32502500D02*
X368870714Y-32466785D01*
X368775000Y-32466785D01*
X368679285Y-32502500D01*
X368615476Y-32573928D01*
X368583571Y-32645357D01*
X368551666Y-32788214D01*
X368551666Y-32895357D01*
X368583571Y-33038214D01*
X368615476Y-33109642D01*
X368679285Y-33181071D01*
X368775000Y-33216785D01*
X368838809Y-33216785D01*
X368934523Y-33181071D01*
X368966428Y-33145357D01*
X368966428Y-32895357D01*
X368838809Y-32895357D01*
X369253571Y-33216785D02*
X369253571Y-32466785D01*
X369636428Y-33216785D01*
X369636428Y-32466785D01*
X369955476Y-33216785D02*
X369955476Y-32466785D01*
X370115000Y-32466785D01*
X370210714Y-32502500D01*
X370274523Y-32573928D01*
X370306428Y-32645357D01*
X370338333Y-32788214D01*
X370338333Y-32895357D01*
X370306428Y-33038214D01*
X370274523Y-33109642D01*
X370210714Y-33181071D01*
X370115000Y-33216785D01*
X369955476Y-33216785D01*
X368934523Y-34952500D02*
X368870714Y-34916785D01*
X368775000Y-34916785D01*
X368679285Y-34952500D01*
X368615476Y-35023928D01*
X368583571Y-35095357D01*
X368551666Y-35238214D01*
X368551666Y-35345357D01*
X368583571Y-35488214D01*
X368615476Y-35559642D01*
X368679285Y-35631071D01*
X368775000Y-35666785D01*
X368838809Y-35666785D01*
X368934523Y-35631071D01*
X368966428Y-35595357D01*
X368966428Y-35345357D01*
X368838809Y-35345357D01*
X369253571Y-35666785D02*
X369253571Y-34916785D01*
X369636428Y-35666785D01*
X369636428Y-34916785D01*
X369955476Y-35666785D02*
X369955476Y-34916785D01*
X370115000Y-34916785D01*
X370210714Y-34952500D01*
X370274523Y-35023928D01*
X370306428Y-35095357D01*
X370338333Y-35238214D01*
X370338333Y-35345357D01*
X370306428Y-35488214D01*
X370274523Y-35559642D01*
X370210714Y-35631071D01*
X370115000Y-35666785D01*
X369955476Y-35666785D01*
X366906190Y-28116785D02*
X366906190Y-27366785D01*
X367065714Y-27366785D01*
X367161428Y-27402500D01*
X367225238Y-27473928D01*
X367257142Y-27545357D01*
X367289047Y-27688214D01*
X367289047Y-27795357D01*
X367257142Y-27938214D01*
X367225238Y-28009642D01*
X367161428Y-28081071D01*
X367065714Y-28116785D01*
X366906190Y-28116785D01*
X367512380Y-27366785D02*
X367927142Y-27366785D01*
X367703809Y-27652500D01*
X367799523Y-27652500D01*
X367863333Y-27688214D01*
X367895238Y-27723928D01*
X367927142Y-27795357D01*
X367927142Y-27973928D01*
X367895238Y-28045357D01*
X367863333Y-28081071D01*
X367799523Y-28116785D01*
X367608095Y-28116785D01*
X367544285Y-28081071D01*
X367512380Y-28045357D01*
X368692857Y-27331071D02*
X368118571Y-28295357D01*
X368820476Y-27366785D02*
X369203333Y-27366785D01*
X369011904Y-28116785D02*
X369011904Y-27366785D01*
X369362857Y-27366785D02*
X369809523Y-28116785D01*
X369809523Y-27366785D02*
X369362857Y-28116785D01*
X370192380Y-27366785D02*
X370256190Y-27366785D01*
X370320000Y-27402500D01*
X370351904Y-27438214D01*
X370383809Y-27509642D01*
X370415714Y-27652500D01*
X370415714Y-27831071D01*
X370383809Y-27973928D01*
X370351904Y-28045357D01*
X370320000Y-28081071D01*
X370256190Y-28116785D01*
X370192380Y-28116785D01*
X370128571Y-28081071D01*
X370096666Y-28045357D01*
X370064761Y-27973928D01*
X370032857Y-27831071D01*
X370032857Y-27652500D01*
X370064761Y-27509642D01*
X370096666Y-27438214D01*
X370128571Y-27402500D01*
X370192380Y-27366785D01*
X368030476Y-43166785D02*
X368030476Y-42416785D01*
X368190000Y-42416785D01*
X368285714Y-42452500D01*
X368349523Y-42523928D01*
X368381428Y-42595357D01*
X368413333Y-42738214D01*
X368413333Y-42845357D01*
X368381428Y-42988214D01*
X368349523Y-43059642D01*
X368285714Y-43131071D01*
X368190000Y-43166785D01*
X368030476Y-43166785D01*
X368987619Y-42666785D02*
X368987619Y-43166785D01*
X368828095Y-42381071D02*
X368668571Y-42916785D01*
X369083333Y-42916785D01*
X369817142Y-42381071D02*
X369242857Y-43345357D01*
X370327619Y-42666785D02*
X370327619Y-43166785D01*
X370168095Y-42381071D02*
X370008571Y-42916785D01*
X370423333Y-42916785D01*
X365456428Y-38131071D02*
X365552142Y-38166785D01*
X365711666Y-38166785D01*
X365775476Y-38131071D01*
X365807380Y-38095357D01*
X365839285Y-38023928D01*
X365839285Y-37952500D01*
X365807380Y-37881071D01*
X365775476Y-37845357D01*
X365711666Y-37809642D01*
X365584047Y-37773928D01*
X365520238Y-37738214D01*
X365488333Y-37702500D01*
X365456428Y-37631071D01*
X365456428Y-37559642D01*
X365488333Y-37488214D01*
X365520238Y-37452500D01*
X365584047Y-37416785D01*
X365743571Y-37416785D01*
X365839285Y-37452500D01*
X366126428Y-38166785D02*
X366126428Y-37416785D01*
X366285952Y-37416785D01*
X366381666Y-37452500D01*
X366445476Y-37523928D01*
X366477380Y-37595357D01*
X366509285Y-37738214D01*
X366509285Y-37845357D01*
X366477380Y-37988214D01*
X366445476Y-38059642D01*
X366381666Y-38131071D01*
X366285952Y-38166785D01*
X366126428Y-38166785D01*
X366764523Y-37952500D02*
X367083571Y-37952500D01*
X366700714Y-38166785D02*
X366924047Y-37416785D01*
X367147380Y-38166785D01*
X367849285Y-37381071D02*
X367275000Y-38345357D01*
X368072619Y-38166785D02*
X368072619Y-37416785D01*
X368232142Y-37416785D01*
X368327857Y-37452500D01*
X368391666Y-37523928D01*
X368423571Y-37595357D01*
X368455476Y-37738214D01*
X368455476Y-37845357D01*
X368423571Y-37988214D01*
X368391666Y-38059642D01*
X368327857Y-38131071D01*
X368232142Y-38166785D01*
X368072619Y-38166785D01*
X369093571Y-38166785D02*
X368710714Y-38166785D01*
X368902142Y-38166785D02*
X368902142Y-37416785D01*
X368838333Y-37523928D01*
X368774523Y-37595357D01*
X368710714Y-37631071D01*
X369859285Y-37381071D02*
X369285000Y-38345357D01*
X370050714Y-37488214D02*
X370082619Y-37452500D01*
X370146428Y-37416785D01*
X370305952Y-37416785D01*
X370369761Y-37452500D01*
X370401666Y-37488214D01*
X370433571Y-37559642D01*
X370433571Y-37631071D01*
X370401666Y-37738214D01*
X370018809Y-38166785D01*
X370433571Y-38166785D01*
X365472380Y-40631071D02*
X365568095Y-40666785D01*
X365727619Y-40666785D01*
X365791428Y-40631071D01*
X365823333Y-40595357D01*
X365855238Y-40523928D01*
X365855238Y-40452500D01*
X365823333Y-40381071D01*
X365791428Y-40345357D01*
X365727619Y-40309642D01*
X365600000Y-40273928D01*
X365536190Y-40238214D01*
X365504285Y-40202500D01*
X365472380Y-40131071D01*
X365472380Y-40059642D01*
X365504285Y-39988214D01*
X365536190Y-39952500D01*
X365600000Y-39916785D01*
X365759523Y-39916785D01*
X365855238Y-39952500D01*
X366525238Y-40595357D02*
X366493333Y-40631071D01*
X366397619Y-40666785D01*
X366333809Y-40666785D01*
X366238095Y-40631071D01*
X366174285Y-40559642D01*
X366142380Y-40488214D01*
X366110476Y-40345357D01*
X366110476Y-40238214D01*
X366142380Y-40095357D01*
X366174285Y-40023928D01*
X366238095Y-39952500D01*
X366333809Y-39916785D01*
X366397619Y-39916785D01*
X366493333Y-39952500D01*
X366525238Y-39988214D01*
X367131428Y-40666785D02*
X366812380Y-40666785D01*
X366812380Y-39916785D01*
X367833333Y-39881071D02*
X367259047Y-40845357D01*
X368056666Y-40666785D02*
X368056666Y-39916785D01*
X368216190Y-39916785D01*
X368311904Y-39952500D01*
X368375714Y-40023928D01*
X368407619Y-40095357D01*
X368439523Y-40238214D01*
X368439523Y-40345357D01*
X368407619Y-40488214D01*
X368375714Y-40559642D01*
X368311904Y-40631071D01*
X368216190Y-40666785D01*
X368056666Y-40666785D01*
X368854285Y-39916785D02*
X368918095Y-39916785D01*
X368981904Y-39952500D01*
X369013809Y-39988214D01*
X369045714Y-40059642D01*
X369077619Y-40202500D01*
X369077619Y-40381071D01*
X369045714Y-40523928D01*
X369013809Y-40595357D01*
X368981904Y-40631071D01*
X368918095Y-40666785D01*
X368854285Y-40666785D01*
X368790476Y-40631071D01*
X368758571Y-40595357D01*
X368726666Y-40523928D01*
X368694761Y-40381071D01*
X368694761Y-40202500D01*
X368726666Y-40059642D01*
X368758571Y-39988214D01*
X368790476Y-39952500D01*
X368854285Y-39916785D01*
X369843333Y-39881071D02*
X369269047Y-40845357D01*
X370002857Y-39916785D02*
X370417619Y-39916785D01*
X370194285Y-40202500D01*
X370290000Y-40202500D01*
X370353809Y-40238214D01*
X370385714Y-40273928D01*
X370417619Y-40345357D01*
X370417619Y-40523928D01*
X370385714Y-40595357D01*
X370353809Y-40631071D01*
X370290000Y-40666785D01*
X370098571Y-40666785D01*
X370034761Y-40631071D01*
X370002857Y-40595357D01*
X368413333Y-45645357D02*
X368381428Y-45681071D01*
X368285714Y-45716785D01*
X368221904Y-45716785D01*
X368126190Y-45681071D01*
X368062380Y-45609642D01*
X368030476Y-45538214D01*
X367998571Y-45395357D01*
X367998571Y-45288214D01*
X368030476Y-45145357D01*
X368062380Y-45073928D01*
X368126190Y-45002500D01*
X368221904Y-44966785D01*
X368285714Y-44966785D01*
X368381428Y-45002500D01*
X368413333Y-45038214D01*
X368987619Y-44966785D02*
X368860000Y-44966785D01*
X368796190Y-45002500D01*
X368764285Y-45038214D01*
X368700476Y-45145357D01*
X368668571Y-45288214D01*
X368668571Y-45573928D01*
X368700476Y-45645357D01*
X368732380Y-45681071D01*
X368796190Y-45716785D01*
X368923809Y-45716785D01*
X368987619Y-45681071D01*
X369019523Y-45645357D01*
X369051428Y-45573928D01*
X369051428Y-45395357D01*
X369019523Y-45323928D01*
X368987619Y-45288214D01*
X368923809Y-45252500D01*
X368796190Y-45252500D01*
X368732380Y-45288214D01*
X368700476Y-45323928D01*
X368668571Y-45395357D01*
X369817142Y-44931071D02*
X369242857Y-45895357D01*
X370359523Y-44966785D02*
X370040476Y-44966785D01*
X370008571Y-45323928D01*
X370040476Y-45288214D01*
X370104285Y-45252500D01*
X370263809Y-45252500D01*
X370327619Y-45288214D01*
X370359523Y-45323928D01*
X370391428Y-45395357D01*
X370391428Y-45573928D01*
X370359523Y-45645357D01*
X370327619Y-45681071D01*
X370263809Y-45716785D01*
X370104285Y-45716785D01*
X370040476Y-45681071D01*
X370008571Y-45645357D01*
X368253809Y-55473928D02*
X368349523Y-55509642D01*
X368381428Y-55545357D01*
X368413333Y-55616785D01*
X368413333Y-55723928D01*
X368381428Y-55795357D01*
X368349523Y-55831071D01*
X368285714Y-55866785D01*
X368030476Y-55866785D01*
X368030476Y-55116785D01*
X368253809Y-55116785D01*
X368317619Y-55152500D01*
X368349523Y-55188214D01*
X368381428Y-55259642D01*
X368381428Y-55331071D01*
X368349523Y-55402500D01*
X368317619Y-55438214D01*
X368253809Y-55473928D01*
X368030476Y-55473928D01*
X369019523Y-55116785D02*
X368700476Y-55116785D01*
X368668571Y-55473928D01*
X368700476Y-55438214D01*
X368764285Y-55402500D01*
X368923809Y-55402500D01*
X368987619Y-55438214D01*
X369019523Y-55473928D01*
X369051428Y-55545357D01*
X369051428Y-55723928D01*
X369019523Y-55795357D01*
X368987619Y-55831071D01*
X368923809Y-55866785D01*
X368764285Y-55866785D01*
X368700476Y-55831071D01*
X368668571Y-55795357D01*
X369817142Y-55081071D02*
X369242857Y-56045357D01*
X370072380Y-55866785D02*
X370200000Y-55866785D01*
X370263809Y-55831071D01*
X370295714Y-55795357D01*
X370359523Y-55688214D01*
X370391428Y-55545357D01*
X370391428Y-55259642D01*
X370359523Y-55188214D01*
X370327619Y-55152500D01*
X370263809Y-55116785D01*
X370136190Y-55116785D01*
X370072380Y-55152500D01*
X370040476Y-55188214D01*
X370008571Y-55259642D01*
X370008571Y-55438214D01*
X370040476Y-55509642D01*
X370072380Y-55545357D01*
X370136190Y-55581071D01*
X370263809Y-55581071D01*
X370327619Y-55545357D01*
X370359523Y-55509642D01*
X370391428Y-55438214D01*
X366826428Y-30666785D02*
X366826428Y-29916785D01*
X366985952Y-29916785D01*
X367081666Y-29952500D01*
X367145476Y-30023928D01*
X367177380Y-30095357D01*
X367209285Y-30238214D01*
X367209285Y-30345357D01*
X367177380Y-30488214D01*
X367145476Y-30559642D01*
X367081666Y-30631071D01*
X366985952Y-30666785D01*
X366826428Y-30666785D01*
X367464523Y-29988214D02*
X367496428Y-29952500D01*
X367560238Y-29916785D01*
X367719761Y-29916785D01*
X367783571Y-29952500D01*
X367815476Y-29988214D01*
X367847380Y-30059642D01*
X367847380Y-30131071D01*
X367815476Y-30238214D01*
X367432619Y-30666785D01*
X367847380Y-30666785D01*
X368613095Y-29881071D02*
X368038809Y-30845357D01*
X369219285Y-30666785D02*
X368995952Y-30309642D01*
X368836428Y-30666785D02*
X368836428Y-29916785D01*
X369091666Y-29916785D01*
X369155476Y-29952500D01*
X369187380Y-29988214D01*
X369219285Y-30059642D01*
X369219285Y-30166785D01*
X369187380Y-30238214D01*
X369155476Y-30273928D01*
X369091666Y-30309642D01*
X368836428Y-30309642D01*
X369442619Y-29916785D02*
X369889285Y-30666785D01*
X369889285Y-29916785D02*
X369442619Y-30666785D01*
X370495476Y-30666785D02*
X370112619Y-30666785D01*
X370304047Y-30666785D02*
X370304047Y-29916785D01*
X370240238Y-30023928D01*
X370176428Y-30095357D01*
X370112619Y-30131071D01*
X368253809Y-52973928D02*
X368349523Y-53009642D01*
X368381428Y-53045357D01*
X368413333Y-53116785D01*
X368413333Y-53223928D01*
X368381428Y-53295357D01*
X368349523Y-53331071D01*
X368285714Y-53366785D01*
X368030476Y-53366785D01*
X368030476Y-52616785D01*
X368253809Y-52616785D01*
X368317619Y-52652500D01*
X368349523Y-52688214D01*
X368381428Y-52759642D01*
X368381428Y-52831071D01*
X368349523Y-52902500D01*
X368317619Y-52938214D01*
X368253809Y-52973928D01*
X368030476Y-52973928D01*
X368987619Y-52866785D02*
X368987619Y-53366785D01*
X368828095Y-52581071D02*
X368668571Y-53116785D01*
X369083333Y-53116785D01*
X369817142Y-52581071D02*
X369242857Y-53545357D01*
X370136190Y-52938214D02*
X370072380Y-52902500D01*
X370040476Y-52866785D01*
X370008571Y-52795357D01*
X370008571Y-52759642D01*
X370040476Y-52688214D01*
X370072380Y-52652500D01*
X370136190Y-52616785D01*
X370263809Y-52616785D01*
X370327619Y-52652500D01*
X370359523Y-52688214D01*
X370391428Y-52759642D01*
X370391428Y-52795357D01*
X370359523Y-52866785D01*
X370327619Y-52902500D01*
X370263809Y-52938214D01*
X370136190Y-52938214D01*
X370072380Y-52973928D01*
X370040476Y-53009642D01*
X370008571Y-53081071D01*
X370008571Y-53223928D01*
X370040476Y-53295357D01*
X370072380Y-53331071D01*
X370136190Y-53366785D01*
X370263809Y-53366785D01*
X370327619Y-53331071D01*
X370359523Y-53295357D01*
X370391428Y-53223928D01*
X370391428Y-53081071D01*
X370359523Y-53009642D01*
X370327619Y-52973928D01*
X370263809Y-52938214D01*
D11*
X361993571Y-23616785D02*
X361993571Y-22866785D01*
X362243571Y-23402500D01*
X362493571Y-22866785D01*
X362493571Y-23616785D01*
X362850714Y-23616785D02*
X362850714Y-23116785D01*
X362850714Y-22866785D02*
X362815000Y-22902500D01*
X362850714Y-22938214D01*
X362886428Y-22902500D01*
X362850714Y-22866785D01*
X362850714Y-22938214D01*
X363529285Y-23581071D02*
X363457857Y-23616785D01*
X363315000Y-23616785D01*
X363243571Y-23581071D01*
X363207857Y-23545357D01*
X363172142Y-23473928D01*
X363172142Y-23259642D01*
X363207857Y-23188214D01*
X363243571Y-23152500D01*
X363315000Y-23116785D01*
X363457857Y-23116785D01*
X363529285Y-23152500D01*
X363850714Y-23616785D02*
X363850714Y-23116785D01*
X363850714Y-23259642D02*
X363886428Y-23188214D01*
X363922142Y-23152500D01*
X363993571Y-23116785D01*
X364065000Y-23116785D01*
X364422142Y-23616785D02*
X364350714Y-23581071D01*
X364315000Y-23545357D01*
X364279285Y-23473928D01*
X364279285Y-23259642D01*
X364315000Y-23188214D01*
X364350714Y-23152500D01*
X364422142Y-23116785D01*
X364529285Y-23116785D01*
X364600714Y-23152500D01*
X364636428Y-23188214D01*
X364672142Y-23259642D01*
X364672142Y-23473928D01*
X364636428Y-23545357D01*
X364600714Y-23581071D01*
X364529285Y-23616785D01*
X364422142Y-23616785D01*
X364993571Y-22866785D02*
X364993571Y-23473928D01*
X365029285Y-23545357D01*
X365065000Y-23581071D01*
X365136428Y-23616785D01*
X365279285Y-23616785D01*
X365350714Y-23581071D01*
X365386428Y-23545357D01*
X365422142Y-23473928D01*
X365422142Y-22866785D01*
X365743571Y-23581071D02*
X365850714Y-23616785D01*
X366029285Y-23616785D01*
X366100714Y-23581071D01*
X366136428Y-23545357D01*
X366172142Y-23473928D01*
X366172142Y-23402500D01*
X366136428Y-23331071D01*
X366100714Y-23295357D01*
X366029285Y-23259642D01*
X365886428Y-23223928D01*
X365815000Y-23188214D01*
X365779285Y-23152500D01*
X365743571Y-23081071D01*
X365743571Y-23009642D01*
X365779285Y-22938214D01*
X365815000Y-22902500D01*
X365886428Y-22866785D01*
X366065000Y-22866785D01*
X366172142Y-22902500D01*
X366743571Y-23223928D02*
X366850714Y-23259642D01*
X366886428Y-23295357D01*
X366922142Y-23366785D01*
X366922142Y-23473928D01*
X366886428Y-23545357D01*
X366850714Y-23581071D01*
X366779285Y-23616785D01*
X366493571Y-23616785D01*
X366493571Y-22866785D01*
X366743571Y-22866785D01*
X366815000Y-22902500D01*
X366850714Y-22938214D01*
X366886428Y-23009642D01*
X366886428Y-23081071D01*
X366850714Y-23152500D01*
X366815000Y-23188214D01*
X366743571Y-23223928D01*
X366493571Y-23223928D01*
M02*
