G04 #@! TF.GenerationSoftware,KiCad,Pcbnew,5.0.2-bee76a0~70~ubuntu18.04.1*
G04 #@! TF.CreationDate,2020-02-19T02:44:09+09:00*
G04 #@! TF.ProjectId,thanatos,7468616e-6174-46f7-932e-6b696361645f,rev?*
G04 #@! TF.SameCoordinates,Original*
G04 #@! TF.FileFunction,Profile,NP*
%FSLAX46Y46*%
G04 Gerber Fmt 4.6, Leading zero omitted, Abs format (unit mm)*
G04 Created by KiCad (PCBNEW 5.0.2-bee76a0~70~ubuntu18.04.1) date 2020年02月19日 02時44分09秒*
%MOMM*%
%LPD*%
G01*
G04 APERTURE LIST*
%ADD10C,0.150000*%
G04 #@! TA.AperFunction,NonConductor*
%ADD11C,0.120000*%
G04 #@! TD*
G04 APERTURE END LIST*
D10*
X247650000Y-125412500D02*
X376237500Y-125412500D01*
X204787500Y-128587500D02*
X247650000Y-125412500D01*
X123825000Y-125412500D02*
X23812500Y-125412500D01*
X166687500Y-128587500D02*
X123825000Y-125412500D01*
X204787500Y-128587500D02*
X166687500Y-128587500D01*
X375920000Y-23812500D02*
G75*
G02X381000000Y-28892500I0J-5080000D01*
G01*
X381000000Y-120650000D02*
G75*
G02X376237500Y-125412500I-4762500J0D01*
G01*
X23812500Y-125412500D02*
G75*
G02X19050000Y-120650000I0J4762500D01*
G01*
X19050000Y-28575000D02*
G75*
G02X23812500Y-23812500I4762500J0D01*
G01*
X375920000Y-23812500D02*
X23812500Y-23812500D01*
X381000000Y-120650000D02*
X381000000Y-28892500D01*
X19050000Y-28575000D02*
X19050000Y-120650000D01*
D11*
G04 #@! TO.C,L1*
X326912000Y-26376500D02*
X330312000Y-26376500D01*
X326912000Y-29376500D02*
X326912000Y-26376500D01*
X330312000Y-29376500D02*
X326912000Y-29376500D01*
X330312000Y-26376500D02*
X330312000Y-29376500D01*
G04 #@! TO.C,L2*
X301738000Y-26376500D02*
X301738000Y-29376500D01*
X301738000Y-29376500D02*
X298338000Y-29376500D01*
X298338000Y-29376500D02*
X298338000Y-26376500D01*
X298338000Y-26376500D02*
X301738000Y-26376500D01*
G04 #@! TO.C,L3*
X282688000Y-26376500D02*
X282688000Y-29376500D01*
X282688000Y-29376500D02*
X279288000Y-29376500D01*
X279288000Y-29376500D02*
X279288000Y-26376500D01*
X279288000Y-26376500D02*
X282688000Y-26376500D01*
G04 #@! TO.C,L4*
X260238000Y-26376500D02*
X263638000Y-26376500D01*
X260238000Y-29376500D02*
X260238000Y-26376500D01*
X263638000Y-29376500D02*
X260238000Y-29376500D01*
X263638000Y-26376500D02*
X263638000Y-29376500D01*
G04 #@! TO.C,L5*
X244588000Y-26376500D02*
X244588000Y-29376500D01*
X244588000Y-29376500D02*
X241188000Y-29376500D01*
X241188000Y-29376500D02*
X241188000Y-26376500D01*
X241188000Y-26376500D02*
X244588000Y-26376500D01*
G04 #@! TO.C,L6*
X222138000Y-26376500D02*
X225538000Y-26376500D01*
X222138000Y-29376500D02*
X222138000Y-26376500D01*
X225538000Y-29376500D02*
X222138000Y-29376500D01*
X225538000Y-26376500D02*
X225538000Y-29376500D01*
G04 #@! TO.C,L7*
X206488000Y-26376500D02*
X206488000Y-29376500D01*
X206488000Y-29376500D02*
X203088000Y-29376500D01*
X203088000Y-29376500D02*
X203088000Y-26376500D01*
X203088000Y-26376500D02*
X206488000Y-26376500D01*
G04 #@! TO.C,L8*
X184038000Y-26376500D02*
X187438000Y-26376500D01*
X184038000Y-29376500D02*
X184038000Y-26376500D01*
X187438000Y-29376500D02*
X184038000Y-29376500D01*
X187438000Y-26376500D02*
X187438000Y-29376500D01*
G04 #@! TO.C,L9*
X168388000Y-26376500D02*
X168388000Y-29376500D01*
X168388000Y-29376500D02*
X164988000Y-29376500D01*
X164988000Y-29376500D02*
X164988000Y-26376500D01*
X164988000Y-26376500D02*
X168388000Y-26376500D01*
G04 #@! TO.C,L10*
X145938000Y-26376500D02*
X149338000Y-26376500D01*
X145938000Y-29376500D02*
X145938000Y-26376500D01*
X149338000Y-29376500D02*
X145938000Y-29376500D01*
X149338000Y-26376500D02*
X149338000Y-29376500D01*
G04 #@! TO.C,L11*
X130288000Y-26376500D02*
X130288000Y-29376500D01*
X130288000Y-29376500D02*
X126888000Y-29376500D01*
X126888000Y-29376500D02*
X126888000Y-26376500D01*
X126888000Y-26376500D02*
X130288000Y-26376500D01*
G04 #@! TO.C,L12*
X111238000Y-26376500D02*
X111238000Y-29376500D01*
X111238000Y-29376500D02*
X107838000Y-29376500D01*
X107838000Y-29376500D02*
X107838000Y-26376500D01*
X107838000Y-26376500D02*
X111238000Y-26376500D01*
G04 #@! TO.C,L13*
X88787500Y-26376500D02*
X92187500Y-26376500D01*
X88787500Y-29376500D02*
X88787500Y-26376500D01*
X92187500Y-29376500D02*
X88787500Y-29376500D01*
X92187500Y-26376500D02*
X92187500Y-29376500D01*
G04 #@! TO.C,L14*
X73137500Y-26376500D02*
X73137500Y-29376500D01*
X73137500Y-29376500D02*
X69737500Y-29376500D01*
X69737500Y-29376500D02*
X69737500Y-26376500D01*
X69737500Y-26376500D02*
X73137500Y-26376500D01*
G04 #@! TO.C,L15*
X50687500Y-26376500D02*
X54087500Y-26376500D01*
X50687500Y-29376500D02*
X50687500Y-26376500D01*
X54087500Y-29376500D02*
X50687500Y-29376500D01*
X54087500Y-26376500D02*
X54087500Y-29376500D01*
G04 #@! TO.C,L16*
X35037500Y-26376500D02*
X35037500Y-29376500D01*
X35037500Y-29376500D02*
X31637500Y-29376500D01*
X31637500Y-29376500D02*
X31637500Y-26376500D01*
X31637500Y-26376500D02*
X35037500Y-26376500D01*
G04 #@! TO.C,L17*
X35037500Y-48426500D02*
X31637500Y-48426500D01*
X35037500Y-45426500D02*
X35037500Y-48426500D01*
X31637500Y-45426500D02*
X35037500Y-45426500D01*
X31637500Y-48426500D02*
X31637500Y-45426500D01*
G04 #@! TO.C,L18*
X55450000Y-48426500D02*
X55450000Y-45426500D01*
X55450000Y-45426500D02*
X58850000Y-45426500D01*
X58850000Y-45426500D02*
X58850000Y-48426500D01*
X58850000Y-48426500D02*
X55450000Y-48426500D01*
G04 #@! TO.C,L19*
X82662500Y-48426500D02*
X79262500Y-48426500D01*
X82662500Y-45426500D02*
X82662500Y-48426500D01*
X79262500Y-45426500D02*
X82662500Y-45426500D01*
X79262500Y-48426500D02*
X79262500Y-45426500D01*
G04 #@! TO.C,L20*
X98312000Y-48426500D02*
X98312000Y-45426500D01*
X98312000Y-45426500D02*
X101712000Y-45426500D01*
X101712000Y-45426500D02*
X101712000Y-48426500D01*
X101712000Y-48426500D02*
X98312000Y-48426500D01*
G04 #@! TO.C,L21*
X117362000Y-48426500D02*
X117362000Y-45426500D01*
X117362000Y-45426500D02*
X120762000Y-45426500D01*
X120762000Y-45426500D02*
X120762000Y-48426500D01*
X120762000Y-48426500D02*
X117362000Y-48426500D01*
G04 #@! TO.C,L22*
X139812000Y-48426500D02*
X136412000Y-48426500D01*
X139812000Y-45426500D02*
X139812000Y-48426500D01*
X136412000Y-45426500D02*
X139812000Y-45426500D01*
X136412000Y-48426500D02*
X136412000Y-45426500D01*
G04 #@! TO.C,L23*
X155462000Y-48426500D02*
X155462000Y-45426500D01*
X155462000Y-45426500D02*
X158862000Y-45426500D01*
X158862000Y-45426500D02*
X158862000Y-48426500D01*
X158862000Y-48426500D02*
X155462000Y-48426500D01*
G04 #@! TO.C,L24*
X177912000Y-48426500D02*
X174512000Y-48426500D01*
X177912000Y-45426500D02*
X177912000Y-48426500D01*
X174512000Y-45426500D02*
X177912000Y-45426500D01*
X174512000Y-48426500D02*
X174512000Y-45426500D01*
G04 #@! TO.C,L25*
X193562000Y-48426500D02*
X193562000Y-45426500D01*
X193562000Y-45426500D02*
X196962000Y-45426500D01*
X196962000Y-45426500D02*
X196962000Y-48426500D01*
X196962000Y-48426500D02*
X193562000Y-48426500D01*
G04 #@! TO.C,L26*
X216012000Y-48426500D02*
X212612000Y-48426500D01*
X216012000Y-45426500D02*
X216012000Y-48426500D01*
X212612000Y-45426500D02*
X216012000Y-45426500D01*
X212612000Y-48426500D02*
X212612000Y-45426500D01*
G04 #@! TO.C,L27*
X231662000Y-48426500D02*
X231662000Y-45426500D01*
X231662000Y-45426500D02*
X235062000Y-45426500D01*
X235062000Y-45426500D02*
X235062000Y-48426500D01*
X235062000Y-48426500D02*
X231662000Y-48426500D01*
G04 #@! TO.C,L28*
X254112000Y-48426500D02*
X250712000Y-48426500D01*
X254112000Y-45426500D02*
X254112000Y-48426500D01*
X250712000Y-45426500D02*
X254112000Y-45426500D01*
X250712000Y-48426500D02*
X250712000Y-45426500D01*
G04 #@! TO.C,L29*
X269762000Y-48426500D02*
X269762000Y-45426500D01*
X269762000Y-45426500D02*
X273162000Y-45426500D01*
X273162000Y-45426500D02*
X273162000Y-48426500D01*
X273162000Y-48426500D02*
X269762000Y-48426500D01*
G04 #@! TO.C,L30*
X292212000Y-48426500D02*
X288812000Y-48426500D01*
X292212000Y-45426500D02*
X292212000Y-48426500D01*
X288812000Y-45426500D02*
X292212000Y-45426500D01*
X288812000Y-48426500D02*
X288812000Y-45426500D01*
G04 #@! TO.C,L31*
X316025000Y-48426500D02*
X312625000Y-48426500D01*
X316025000Y-45426500D02*
X316025000Y-48426500D01*
X312625000Y-45426500D02*
X316025000Y-45426500D01*
X312625000Y-48426500D02*
X312625000Y-45426500D01*
G04 #@! TO.C,L32*
X339838000Y-48426500D02*
X336438000Y-48426500D01*
X339838000Y-45426500D02*
X339838000Y-48426500D01*
X336438000Y-45426500D02*
X339838000Y-45426500D01*
X336438000Y-48426500D02*
X336438000Y-45426500D01*
G04 #@! TO.C,L33*
X324531000Y-64476500D02*
X327931000Y-64476500D01*
X324531000Y-67476500D02*
X324531000Y-64476500D01*
X327931000Y-67476500D02*
X324531000Y-67476500D01*
X327931000Y-64476500D02*
X327931000Y-67476500D01*
G04 #@! TO.C,L34*
X296975000Y-64476500D02*
X296975000Y-67476500D01*
X296975000Y-67476500D02*
X293575000Y-67476500D01*
X293575000Y-67476500D02*
X293575000Y-64476500D01*
X293575000Y-64476500D02*
X296975000Y-64476500D01*
G04 #@! TO.C,L35*
X274525000Y-64476500D02*
X277925000Y-64476500D01*
X274525000Y-67476500D02*
X274525000Y-64476500D01*
X277925000Y-67476500D02*
X274525000Y-67476500D01*
X277925000Y-64476500D02*
X277925000Y-67476500D01*
G04 #@! TO.C,L36*
X258875000Y-64476500D02*
X258875000Y-67476500D01*
X258875000Y-67476500D02*
X255475000Y-67476500D01*
X255475000Y-67476500D02*
X255475000Y-64476500D01*
X255475000Y-64476500D02*
X258875000Y-64476500D01*
G04 #@! TO.C,L37*
X236425000Y-64476500D02*
X239825000Y-64476500D01*
X236425000Y-67476500D02*
X236425000Y-64476500D01*
X239825000Y-67476500D02*
X236425000Y-67476500D01*
X239825000Y-64476500D02*
X239825000Y-67476500D01*
G04 #@! TO.C,L38*
X220648000Y-64476500D02*
X220648000Y-67476500D01*
X220648000Y-67476500D02*
X217248000Y-67476500D01*
X217248000Y-67476500D02*
X217248000Y-64476500D01*
X217248000Y-64476500D02*
X220648000Y-64476500D01*
G04 #@! TO.C,L39*
X198325000Y-64476500D02*
X201725000Y-64476500D01*
X198325000Y-67476500D02*
X198325000Y-64476500D01*
X201725000Y-67476500D02*
X198325000Y-67476500D01*
X201725000Y-64476500D02*
X201725000Y-67476500D01*
G04 #@! TO.C,L40*
X187374000Y-69937500D02*
X187374000Y-72937500D01*
X187374000Y-72937500D02*
X183974000Y-72937500D01*
X183974000Y-72937500D02*
X183974000Y-69937500D01*
X183974000Y-69937500D02*
X187374000Y-69937500D01*
G04 #@! TO.C,L41*
X169750000Y-64476500D02*
X173150000Y-64476500D01*
X169750000Y-67476500D02*
X169750000Y-64476500D01*
X173150000Y-67476500D02*
X169750000Y-67476500D01*
X173150000Y-64476500D02*
X173150000Y-67476500D01*
G04 #@! TO.C,L42*
X150700000Y-64476500D02*
X154100000Y-64476500D01*
X150700000Y-67476500D02*
X150700000Y-64476500D01*
X154100000Y-67476500D02*
X150700000Y-67476500D01*
X154100000Y-64476500D02*
X154100000Y-67476500D01*
G04 #@! TO.C,L43*
X135050000Y-64476500D02*
X135050000Y-67476500D01*
X135050000Y-67476500D02*
X131650000Y-67476500D01*
X131650000Y-67476500D02*
X131650000Y-64476500D01*
X131650000Y-64476500D02*
X135050000Y-64476500D01*
G04 #@! TO.C,L44*
X112600000Y-64476500D02*
X116000000Y-64476500D01*
X112600000Y-67476500D02*
X112600000Y-64476500D01*
X116000000Y-67476500D02*
X112600000Y-67476500D01*
X116000000Y-64476500D02*
X116000000Y-67476500D01*
G04 #@! TO.C,L45*
X96950000Y-64476500D02*
X96950000Y-67476500D01*
X96950000Y-67476500D02*
X93550000Y-67476500D01*
X93550000Y-67476500D02*
X93550000Y-64476500D01*
X93550000Y-64476500D02*
X96950000Y-64476500D01*
G04 #@! TO.C,L46*
X74500000Y-64476500D02*
X77900000Y-64476500D01*
X74500000Y-67476500D02*
X74500000Y-64476500D01*
X77900000Y-67476500D02*
X74500000Y-67476500D01*
X77900000Y-64476500D02*
X77900000Y-67476500D01*
G04 #@! TO.C,L47*
X51706200Y-64476500D02*
X51706200Y-67476500D01*
X51706200Y-67476500D02*
X48306200Y-67476500D01*
X48306200Y-67476500D02*
X48306200Y-64476500D01*
X48306200Y-64476500D02*
X51706200Y-64476500D01*
G04 #@! TO.C,L48*
X42181200Y-86526500D02*
X38781200Y-86526500D01*
X42181200Y-83526500D02*
X42181200Y-86526500D01*
X38781200Y-83526500D02*
X42181200Y-83526500D01*
X38781200Y-86526500D02*
X38781200Y-83526500D01*
G04 #@! TO.C,L49*
X73137500Y-86526500D02*
X69737500Y-86526500D01*
X73137500Y-83526500D02*
X73137500Y-86526500D01*
X69737500Y-83526500D02*
X73137500Y-83526500D01*
X69737500Y-86526500D02*
X69737500Y-83526500D01*
G04 #@! TO.C,L50*
X88724000Y-86526500D02*
X88724000Y-83526500D01*
X88724000Y-83526500D02*
X92124000Y-83526500D01*
X92124000Y-83526500D02*
X92124000Y-86526500D01*
X92124000Y-86526500D02*
X88724000Y-86526500D01*
G04 #@! TO.C,L51*
X111238000Y-86526500D02*
X107838000Y-86526500D01*
X111238000Y-83526500D02*
X111238000Y-86526500D01*
X107838000Y-83526500D02*
X111238000Y-83526500D01*
X107838000Y-86526500D02*
X107838000Y-83526500D01*
G04 #@! TO.C,L52*
X126888000Y-86526500D02*
X126888000Y-83526500D01*
X126888000Y-83526500D02*
X130288000Y-83526500D01*
X130288000Y-83526500D02*
X130288000Y-86526500D01*
X130288000Y-86526500D02*
X126888000Y-86526500D01*
G04 #@! TO.C,L53*
X149338000Y-86526500D02*
X145938000Y-86526500D01*
X149338000Y-83526500D02*
X149338000Y-86526500D01*
X145938000Y-83526500D02*
X149338000Y-83526500D01*
X145938000Y-86526500D02*
X145938000Y-83526500D01*
G04 #@! TO.C,L54*
X164988000Y-86526500D02*
X164988000Y-83526500D01*
X164988000Y-83526500D02*
X168388000Y-83526500D01*
X168388000Y-83526500D02*
X168388000Y-86526500D01*
X168388000Y-86526500D02*
X164988000Y-86526500D01*
G04 #@! TO.C,L55*
X187438000Y-86526500D02*
X184038000Y-86526500D01*
X187438000Y-83526500D02*
X187438000Y-86526500D01*
X184038000Y-83526500D02*
X187438000Y-83526500D01*
X184038000Y-86526500D02*
X184038000Y-83526500D01*
G04 #@! TO.C,L56*
X203088000Y-86526500D02*
X203088000Y-83526500D01*
X203088000Y-83526500D02*
X206488000Y-83526500D01*
X206488000Y-83526500D02*
X206488000Y-86526500D01*
X206488000Y-86526500D02*
X203088000Y-86526500D01*
G04 #@! TO.C,L57*
X222138000Y-86526500D02*
X222138000Y-83526500D01*
X222138000Y-83526500D02*
X225538000Y-83526500D01*
X225538000Y-83526500D02*
X225538000Y-86526500D01*
X225538000Y-86526500D02*
X222138000Y-86526500D01*
G04 #@! TO.C,L58*
X244588000Y-86526500D02*
X241188000Y-86526500D01*
X244588000Y-83526500D02*
X244588000Y-86526500D01*
X241188000Y-83526500D02*
X244588000Y-83526500D01*
X241188000Y-86526500D02*
X241188000Y-83526500D01*
G04 #@! TO.C,L59*
X263638000Y-86526500D02*
X260238000Y-86526500D01*
X263638000Y-83526500D02*
X263638000Y-86526500D01*
X260238000Y-83526500D02*
X263638000Y-83526500D01*
X260238000Y-86526500D02*
X260238000Y-83526500D01*
G04 #@! TO.C,L60*
X279288000Y-86526500D02*
X279288000Y-83526500D01*
X279288000Y-83526500D02*
X282688000Y-83526500D01*
X282688000Y-83526500D02*
X282688000Y-86526500D01*
X282688000Y-86526500D02*
X279288000Y-86526500D01*
G04 #@! TO.C,L61*
X301738000Y-86526500D02*
X298338000Y-86526500D01*
X301738000Y-83526500D02*
X301738000Y-86526500D01*
X298338000Y-83526500D02*
X301738000Y-83526500D01*
X298338000Y-86526500D02*
X298338000Y-83526500D01*
G04 #@! TO.C,L62*
X317388000Y-86526500D02*
X317388000Y-83526500D01*
X317388000Y-83526500D02*
X320788000Y-83526500D01*
X320788000Y-83526500D02*
X320788000Y-86526500D01*
X320788000Y-86526500D02*
X317388000Y-86526500D01*
G04 #@! TO.C,L63*
X356506000Y-86526500D02*
X353106000Y-86526500D01*
X356506000Y-83526500D02*
X356506000Y-86526500D01*
X353106000Y-83526500D02*
X356506000Y-83526500D01*
X353106000Y-86526500D02*
X353106000Y-83526500D01*
G04 #@! TO.C,L64*
X339838000Y-102564000D02*
X339838000Y-105564000D01*
X339838000Y-105564000D02*
X336438000Y-105564000D01*
X336438000Y-105564000D02*
X336438000Y-102564000D01*
X336438000Y-102564000D02*
X339838000Y-102564000D01*
G04 #@! TO.C,L65*
X317388000Y-102576000D02*
X320788000Y-102576000D01*
X317388000Y-105576000D02*
X317388000Y-102576000D01*
X320788000Y-105576000D02*
X317388000Y-105576000D01*
X320788000Y-102576000D02*
X320788000Y-105576000D01*
G04 #@! TO.C,L66*
X301738000Y-102576000D02*
X301738000Y-105576000D01*
X301738000Y-105576000D02*
X298338000Y-105576000D01*
X298338000Y-105576000D02*
X298338000Y-102576000D01*
X298338000Y-102576000D02*
X301738000Y-102576000D01*
G04 #@! TO.C,L67*
X231164000Y-113619000D02*
X231164000Y-110219000D01*
X234164000Y-113619000D02*
X231164000Y-113619000D01*
X234164000Y-110219000D02*
X234164000Y-113619000D01*
X231164000Y-110219000D02*
X234164000Y-110219000D01*
G04 #@! TO.C,L68*
X218394000Y-118324000D02*
X218394000Y-121324000D01*
X218394000Y-121324000D02*
X214994000Y-121324000D01*
X214994000Y-121324000D02*
X214994000Y-118324000D01*
X214994000Y-118324000D02*
X218394000Y-118324000D01*
G04 #@! TO.C,L69*
X202160000Y-114981000D02*
X202160000Y-118381000D01*
X199160000Y-114981000D02*
X202160000Y-114981000D01*
X199160000Y-118381000D02*
X199160000Y-114981000D01*
X202160000Y-118381000D02*
X199160000Y-118381000D01*
G04 #@! TO.C,L70*
X172188000Y-118381000D02*
X169188000Y-118381000D01*
X169188000Y-118381000D02*
X169188000Y-114981000D01*
X169188000Y-114981000D02*
X172188000Y-114981000D01*
X172188000Y-114981000D02*
X172188000Y-118381000D01*
G04 #@! TO.C,L71*
X153081000Y-118336000D02*
X156481000Y-118336000D01*
X153081000Y-121336000D02*
X153081000Y-118336000D01*
X156481000Y-121336000D02*
X153081000Y-121336000D01*
X156481000Y-118336000D02*
X156481000Y-121336000D01*
G04 #@! TO.C,L72*
X140184000Y-113619000D02*
X137184000Y-113619000D01*
X137184000Y-113619000D02*
X137184000Y-110219000D01*
X137184000Y-110219000D02*
X140184000Y-110219000D01*
X140184000Y-110219000D02*
X140184000Y-113619000D01*
G04 #@! TO.C,L73*
X48338000Y-102576000D02*
X51738000Y-102576000D01*
X48338000Y-105576000D02*
X48338000Y-102576000D01*
X51738000Y-105576000D02*
X48338000Y-105576000D01*
X51738000Y-102576000D02*
X51738000Y-105576000D01*
G04 #@! TO.C,L74*
X26875000Y-102588000D02*
X30275000Y-102588000D01*
X26875000Y-105588000D02*
X26875000Y-102588000D01*
X30275000Y-105588000D02*
X26875000Y-105588000D01*
X30275000Y-102588000D02*
X30275000Y-105588000D01*
G04 #@! TD*
M02*
