G04 #@! TF.GenerationSoftware,KiCad,Pcbnew,5.0.2-bee76a0~70~ubuntu18.04.1*
G04 #@! TF.CreationDate,2020-04-06T01:25:33+09:00*
G04 #@! TF.ProjectId,amatelus73,616d6174-656c-4757-9337-332e6b696361,rev?*
G04 #@! TF.SameCoordinates,Original*
G04 #@! TF.FileFunction,Profile,NP*
%FSLAX46Y46*%
G04 Gerber Fmt 4.6, Leading zero omitted, Abs format (unit mm)*
G04 Created by KiCad (PCBNEW 5.0.2-bee76a0~70~ubuntu18.04.1) date 2020年04月06日 01時25分33秒*
%MOMM*%
%LPD*%
G01*
G04 APERTURE LIST*
%ADD10C,0.150000*%
G04 APERTURE END LIST*
D10*
X375920000Y-80645000D02*
G75*
G02X381000000Y-85725000I0J-5080000D01*
G01*
X347980000Y-80645000D02*
X375920000Y-80645000D01*
X347980000Y-40640000D02*
X347980000Y-80645000D01*
X352044000Y-38227000D02*
X350520000Y-38227000D01*
X354584000Y-34036000D02*
X354584000Y-35560000D01*
X350520000Y-31496000D02*
X352044000Y-31496000D01*
X347983169Y-40640158D02*
G75*
G02X350520000Y-38227000I2536831J-126842D01*
G01*
X354580831Y-35560158D02*
G75*
G02X352044000Y-38227000I-2536831J-126842D01*
G01*
X352044000Y-31496000D02*
G75*
G02X354584000Y-34036000I0J-2540000D01*
G01*
X350520000Y-31496000D02*
G75*
G02X347980000Y-28956000I0J2540000D01*
G01*
X247650000Y-125412500D02*
X376237500Y-125412500D01*
X204787500Y-128587500D02*
X247650000Y-125412500D01*
X123825000Y-125412500D02*
X23812500Y-125412500D01*
X166687500Y-128587500D02*
X123825000Y-125412500D01*
X204787500Y-128587500D02*
X166687500Y-128587500D01*
X342900000Y-23812103D02*
G75*
G02X347980000Y-28956000I0J-5080397D01*
G01*
X381000000Y-120650000D02*
G75*
G02X376237500Y-125412500I-4762500J0D01*
G01*
X23812500Y-125412500D02*
G75*
G02X19050000Y-120650000I0J4762500D01*
G01*
X19050000Y-28575000D02*
G75*
G02X23812500Y-23812500I4762500J0D01*
G01*
X342900000Y-23812500D02*
X23812500Y-23812500D01*
X381000000Y-120650000D02*
X381000000Y-85725000D01*
X19050000Y-28575000D02*
X19050000Y-120650000D01*
M02*
