G04 #@! TF.GenerationSoftware,KiCad,Pcbnew,5.0.2-bee76a0~70~ubuntu18.04.1*
G04 #@! TF.CreationDate,2020-04-06T01:25:33+09:00*
G04 #@! TF.ProjectId,amatelus73,616d6174-656c-4757-9337-332e6b696361,rev?*
G04 #@! TF.SameCoordinates,Original*
G04 #@! TF.FileFunction,Copper,L2,Bot*
G04 #@! TF.FilePolarity,Positive*
%FSLAX46Y46*%
G04 Gerber Fmt 4.6, Leading zero omitted, Abs format (unit mm)*
G04 Created by KiCad (PCBNEW 5.0.2-bee76a0~70~ubuntu18.04.1) date 2020年04月06日 01時25分33秒*
%MOMM*%
%LPD*%
G01*
G04 APERTURE LIST*
G04 #@! TA.AperFunction,ComponentPad*
%ADD10O,8.000000X2.000000*%
G04 #@! TD*
G04 #@! TA.AperFunction,ComponentPad*
%ADD11O,2.000000X8.000000*%
G04 #@! TD*
G04 #@! TA.AperFunction,ComponentPad*
%ADD12O,4.800000X2.000000*%
G04 #@! TD*
G04 #@! TA.AperFunction,ComponentPad*
%ADD13O,5.400000X2.000000*%
G04 #@! TD*
G04 #@! TA.AperFunction,ComponentPad*
%ADD14O,2.000000X3.300000*%
G04 #@! TD*
G04 #@! TA.AperFunction,ComponentPad*
%ADD15C,4.400000*%
G04 #@! TD*
G04 #@! TA.AperFunction,ComponentPad*
%ADD16C,0.700000*%
G04 #@! TD*
G04 #@! TA.AperFunction,ViaPad*
%ADD17C,1.200000*%
G04 #@! TD*
G04 #@! TA.AperFunction,Conductor*
%ADD18C,0.254000*%
G04 #@! TD*
G04 APERTURE END LIST*
D10*
G04 #@! TO.P,SW1,*
G04 #@! TO.N,*
X33337500Y-26337500D03*
X33337500Y-40337500D03*
D11*
X26337500Y-33337500D03*
X40337500Y-33337500D03*
D10*
X29337500Y-40337500D03*
X37337500Y-40337500D03*
X37337500Y-26337500D03*
D11*
X26337500Y-37337500D03*
X26337500Y-29337500D03*
X40337500Y-37337500D03*
X40337500Y-29337500D03*
D10*
X29337500Y-26337500D03*
G04 #@! TD*
G04 #@! TO.P,SW48,*
G04 #@! TO.N,*
X71437500Y-83487500D03*
X71437500Y-97487500D03*
D11*
X64437500Y-90487500D03*
X78437500Y-90487500D03*
D10*
X67437500Y-97487500D03*
X75437500Y-97487500D03*
X75437500Y-83487500D03*
D11*
X64437500Y-94487500D03*
X64437500Y-86487500D03*
X78437500Y-94487500D03*
X78437500Y-86487500D03*
D10*
X67437500Y-83487500D03*
G04 #@! TD*
G04 #@! TO.P,SW13,*
G04 #@! TO.N,*
X261938000Y-26337500D03*
X261938000Y-40337500D03*
D11*
X254938000Y-33337500D03*
X268938000Y-33337500D03*
D10*
X257938000Y-40337500D03*
X265938000Y-40337500D03*
X265938000Y-26337500D03*
D11*
X254938000Y-37337500D03*
X254938000Y-29337500D03*
X268938000Y-37337500D03*
X268938000Y-29337500D03*
D10*
X257938000Y-26337500D03*
G04 #@! TD*
G04 #@! TO.P,SW73,*
G04 #@! TO.N,*
X338138000Y-102538000D03*
X338138000Y-116538000D03*
D11*
X331138000Y-109538000D03*
X345138000Y-109538000D03*
D10*
X334138000Y-116538000D03*
X342138000Y-116538000D03*
X342138000Y-102538000D03*
D11*
X331138000Y-113538000D03*
X331138000Y-105538000D03*
X345138000Y-113538000D03*
X345138000Y-105538000D03*
D10*
X334138000Y-102538000D03*
G04 #@! TD*
G04 #@! TO.P,SW72,*
G04 #@! TO.N,*
X319088000Y-102538000D03*
X319088000Y-116538000D03*
D11*
X312088000Y-109538000D03*
X326088000Y-109538000D03*
D10*
X315088000Y-116538000D03*
X323088000Y-116538000D03*
X323088000Y-102538000D03*
D11*
X312088000Y-113538000D03*
X312088000Y-105538000D03*
X326088000Y-113538000D03*
X326088000Y-105538000D03*
D10*
X315088000Y-102538000D03*
G04 #@! TD*
G04 #@! TO.P,SW71,*
G04 #@! TO.N,*
X300038000Y-102538000D03*
X300038000Y-116538000D03*
D11*
X293038000Y-109538000D03*
X307038000Y-109538000D03*
D10*
X296038000Y-116538000D03*
X304038000Y-116538000D03*
X304038000Y-102538000D03*
D11*
X293038000Y-113538000D03*
X293038000Y-105538000D03*
X307038000Y-113538000D03*
X307038000Y-105538000D03*
D10*
X296038000Y-102538000D03*
G04 #@! TD*
G04 #@! TO.P,SW63,*
G04 #@! TO.N,*
X28575000Y-102538000D03*
X28575000Y-116538000D03*
D11*
X21575000Y-109538000D03*
X35575000Y-109538000D03*
D10*
X24575000Y-116538000D03*
X32575000Y-116538000D03*
X32575000Y-102538000D03*
D11*
X21575000Y-113538000D03*
X21575000Y-105538000D03*
X35575000Y-113538000D03*
X35575000Y-105538000D03*
D10*
X24575000Y-102538000D03*
G04 #@! TD*
G04 #@! TO.P,SW61,*
G04 #@! TO.N,*
X319088000Y-83487500D03*
X319088000Y-97487500D03*
D11*
X312088000Y-90487500D03*
X326088000Y-90487500D03*
D10*
X315088000Y-97487500D03*
X323088000Y-97487500D03*
X323088000Y-83487500D03*
D11*
X312088000Y-94487500D03*
X312088000Y-86487500D03*
X326088000Y-94487500D03*
X326088000Y-86487500D03*
D10*
X315088000Y-83487500D03*
G04 #@! TD*
G04 #@! TO.P,SW60,*
G04 #@! TO.N,*
X300038000Y-83487500D03*
X300038000Y-97487500D03*
D11*
X293038000Y-90487500D03*
X307038000Y-90487500D03*
D10*
X296038000Y-97487500D03*
X304038000Y-97487500D03*
X304038000Y-83487500D03*
D11*
X293038000Y-94487500D03*
X293038000Y-86487500D03*
X307038000Y-94487500D03*
X307038000Y-86487500D03*
D10*
X296038000Y-83487500D03*
G04 #@! TD*
G04 #@! TO.P,SW59,*
G04 #@! TO.N,*
X280988000Y-83487500D03*
X280988000Y-97487500D03*
D11*
X273988000Y-90487500D03*
X287988000Y-90487500D03*
D10*
X276988000Y-97487500D03*
X284988000Y-97487500D03*
X284988000Y-83487500D03*
D11*
X273988000Y-94487500D03*
X273988000Y-86487500D03*
X287988000Y-94487500D03*
X287988000Y-86487500D03*
D10*
X276988000Y-83487500D03*
G04 #@! TD*
G04 #@! TO.P,SW58,*
G04 #@! TO.N,*
X261938000Y-83487500D03*
X261938000Y-97487500D03*
D11*
X254938000Y-90487500D03*
X268938000Y-90487500D03*
D10*
X257938000Y-97487500D03*
X265938000Y-97487500D03*
X265938000Y-83487500D03*
D11*
X254938000Y-94487500D03*
X254938000Y-86487500D03*
X268938000Y-94487500D03*
X268938000Y-86487500D03*
D10*
X257938000Y-83487500D03*
G04 #@! TD*
G04 #@! TO.P,SW57,*
G04 #@! TO.N,*
X242888000Y-83487500D03*
X242888000Y-97487500D03*
D11*
X235888000Y-90487500D03*
X249888000Y-90487500D03*
D10*
X238888000Y-97487500D03*
X246888000Y-97487500D03*
X246888000Y-83487500D03*
D11*
X235888000Y-94487500D03*
X235888000Y-86487500D03*
X249888000Y-94487500D03*
X249888000Y-86487500D03*
D10*
X238888000Y-83487500D03*
G04 #@! TD*
G04 #@! TO.P,SW56,*
G04 #@! TO.N,*
X223838000Y-83487500D03*
X223838000Y-97487500D03*
D11*
X216838000Y-90487500D03*
X230838000Y-90487500D03*
D10*
X219838000Y-97487500D03*
X227838000Y-97487500D03*
X227838000Y-83487500D03*
D11*
X216838000Y-94487500D03*
X216838000Y-86487500D03*
X230838000Y-94487500D03*
X230838000Y-86487500D03*
D10*
X219838000Y-83487500D03*
G04 #@! TD*
G04 #@! TO.P,SW55,*
G04 #@! TO.N,*
X204788000Y-83487500D03*
X204788000Y-97487500D03*
D11*
X197788000Y-90487500D03*
X211788000Y-90487500D03*
D10*
X200788000Y-97487500D03*
X208788000Y-97487500D03*
X208788000Y-83487500D03*
D11*
X197788000Y-94487500D03*
X197788000Y-86487500D03*
X211788000Y-94487500D03*
X211788000Y-86487500D03*
D10*
X200788000Y-83487500D03*
G04 #@! TD*
G04 #@! TO.P,SW54,*
G04 #@! TO.N,*
X185738000Y-83487500D03*
X185738000Y-97487500D03*
D11*
X178738000Y-90487500D03*
X192738000Y-90487500D03*
D10*
X181738000Y-97487500D03*
X189738000Y-97487500D03*
X189738000Y-83487500D03*
D11*
X178738000Y-94487500D03*
X178738000Y-86487500D03*
X192738000Y-94487500D03*
X192738000Y-86487500D03*
D10*
X181738000Y-83487500D03*
G04 #@! TD*
G04 #@! TO.P,SW53,*
G04 #@! TO.N,*
X166688000Y-83487500D03*
X166688000Y-97487500D03*
D11*
X159688000Y-90487500D03*
X173688000Y-90487500D03*
D10*
X162688000Y-97487500D03*
X170688000Y-97487500D03*
X170688000Y-83487500D03*
D11*
X159688000Y-94487500D03*
X159688000Y-86487500D03*
X173688000Y-94487500D03*
X173688000Y-86487500D03*
D10*
X162688000Y-83487500D03*
G04 #@! TD*
G04 #@! TO.P,SW51,*
G04 #@! TO.N,*
X128588000Y-83487500D03*
X128588000Y-97487500D03*
D11*
X121588000Y-90487500D03*
X135588000Y-90487500D03*
D10*
X124588000Y-97487500D03*
X132588000Y-97487500D03*
X132588000Y-83487500D03*
D11*
X121588000Y-94487500D03*
X121588000Y-86487500D03*
X135588000Y-94487500D03*
X135588000Y-86487500D03*
D10*
X124588000Y-83487500D03*
G04 #@! TD*
G04 #@! TO.P,SW50,*
G04 #@! TO.N,*
X109538000Y-83487500D03*
X109538000Y-97487500D03*
D11*
X102538000Y-90487500D03*
X116538000Y-90487500D03*
D10*
X105538000Y-97487500D03*
X113538000Y-97487500D03*
X113538000Y-83487500D03*
D11*
X102538000Y-94487500D03*
X102538000Y-86487500D03*
X116538000Y-94487500D03*
X116538000Y-86487500D03*
D10*
X105538000Y-83487500D03*
G04 #@! TD*
G04 #@! TO.P,SW49,*
G04 #@! TO.N,*
X90487500Y-83487500D03*
X90487500Y-97487500D03*
D11*
X83487500Y-90487500D03*
X97487500Y-90487500D03*
D10*
X86487500Y-97487500D03*
X94487500Y-97487500D03*
X94487500Y-83487500D03*
D11*
X83487500Y-94487500D03*
X83487500Y-86487500D03*
X97487500Y-94487500D03*
X97487500Y-86487500D03*
D10*
X86487500Y-83487500D03*
G04 #@! TD*
G04 #@! TO.P,SW45,*
G04 #@! TO.N,*
X295275000Y-64437500D03*
X295275000Y-78437500D03*
D11*
X288275000Y-71437500D03*
X302275000Y-71437500D03*
D10*
X291275000Y-78437500D03*
X299275000Y-78437500D03*
X299275000Y-64437500D03*
D11*
X288275000Y-75437500D03*
X288275000Y-67437500D03*
X302275000Y-75437500D03*
X302275000Y-67437500D03*
D10*
X291275000Y-64437500D03*
G04 #@! TD*
G04 #@! TO.P,SW44,*
G04 #@! TO.N,*
X276225000Y-64437500D03*
X276225000Y-78437500D03*
D11*
X269225000Y-71437500D03*
X283225000Y-71437500D03*
D10*
X272225000Y-78437500D03*
X280225000Y-78437500D03*
X280225000Y-64437500D03*
D11*
X269225000Y-75437500D03*
X269225000Y-67437500D03*
X283225000Y-75437500D03*
X283225000Y-67437500D03*
D10*
X272225000Y-64437500D03*
G04 #@! TD*
G04 #@! TO.P,SW43,*
G04 #@! TO.N,*
X257175000Y-64437500D03*
X257175000Y-78437500D03*
D11*
X250175000Y-71437500D03*
X264175000Y-71437500D03*
D10*
X253175000Y-78437500D03*
X261175000Y-78437500D03*
X261175000Y-64437500D03*
D11*
X250175000Y-75437500D03*
X250175000Y-67437500D03*
X264175000Y-75437500D03*
X264175000Y-67437500D03*
D10*
X253175000Y-64437500D03*
G04 #@! TD*
G04 #@! TO.P,SW42,*
G04 #@! TO.N,*
X238125000Y-64437500D03*
X238125000Y-78437500D03*
D11*
X231125000Y-71437500D03*
X245125000Y-71437500D03*
D10*
X234125000Y-78437500D03*
X242125000Y-78437500D03*
X242125000Y-64437500D03*
D11*
X231125000Y-75437500D03*
X231125000Y-67437500D03*
X245125000Y-75437500D03*
X245125000Y-67437500D03*
D10*
X234125000Y-64437500D03*
G04 #@! TD*
G04 #@! TO.P,SW41,*
G04 #@! TO.N,*
X219075000Y-64437500D03*
X219075000Y-78437500D03*
D11*
X212075000Y-71437500D03*
X226075000Y-71437500D03*
D10*
X215075000Y-78437500D03*
X223075000Y-78437500D03*
X223075000Y-64437500D03*
D11*
X212075000Y-75437500D03*
X212075000Y-67437500D03*
X226075000Y-75437500D03*
X226075000Y-67437500D03*
D10*
X215075000Y-64437500D03*
G04 #@! TD*
G04 #@! TO.P,SW40,*
G04 #@! TO.N,*
X200025000Y-64437500D03*
X200025000Y-78437500D03*
D11*
X193025000Y-71437500D03*
X207025000Y-71437500D03*
D10*
X196025000Y-78437500D03*
X204025000Y-78437500D03*
X204025000Y-64437500D03*
D11*
X193025000Y-75437500D03*
X193025000Y-67437500D03*
X207025000Y-75437500D03*
X207025000Y-67437500D03*
D10*
X196025000Y-64437500D03*
G04 #@! TD*
G04 #@! TO.P,SW39,*
G04 #@! TO.N,*
X171450000Y-64437500D03*
X171450000Y-78437500D03*
D11*
X164450000Y-71437500D03*
X178450000Y-71437500D03*
D10*
X167450000Y-78437500D03*
X175450000Y-78437500D03*
X175450000Y-64437500D03*
D11*
X164450000Y-75437500D03*
X164450000Y-67437500D03*
X178450000Y-75437500D03*
X178450000Y-67437500D03*
D10*
X167450000Y-64437500D03*
G04 #@! TD*
G04 #@! TO.P,SW38,*
G04 #@! TO.N,*
X152400000Y-64437500D03*
X152400000Y-78437500D03*
D11*
X145400000Y-71437500D03*
X159400000Y-71437500D03*
D10*
X148400000Y-78437500D03*
X156400000Y-78437500D03*
X156400000Y-64437500D03*
D11*
X145400000Y-75437500D03*
X145400000Y-67437500D03*
X159400000Y-75437500D03*
X159400000Y-67437500D03*
D10*
X148400000Y-64437500D03*
G04 #@! TD*
G04 #@! TO.P,SW37,*
G04 #@! TO.N,*
X133350000Y-64437500D03*
X133350000Y-78437500D03*
D11*
X126350000Y-71437500D03*
X140350000Y-71437500D03*
D10*
X129350000Y-78437500D03*
X137350000Y-78437500D03*
X137350000Y-64437500D03*
D11*
X126350000Y-75437500D03*
X126350000Y-67437500D03*
X140350000Y-75437500D03*
X140350000Y-67437500D03*
D10*
X129350000Y-64437500D03*
G04 #@! TD*
G04 #@! TO.P,SW36,*
G04 #@! TO.N,*
X114300000Y-64437500D03*
X114300000Y-78437500D03*
D11*
X107300000Y-71437500D03*
X121300000Y-71437500D03*
D10*
X110300000Y-78437500D03*
X118300000Y-78437500D03*
X118300000Y-64437500D03*
D11*
X107300000Y-75437500D03*
X107300000Y-67437500D03*
X121300000Y-75437500D03*
X121300000Y-67437500D03*
D10*
X110300000Y-64437500D03*
G04 #@! TD*
G04 #@! TO.P,SW35,*
G04 #@! TO.N,*
X95250000Y-64437500D03*
X95250000Y-78437500D03*
D11*
X88250000Y-71437500D03*
X102250000Y-71437500D03*
D10*
X91250000Y-78437500D03*
X99250000Y-78437500D03*
X99250000Y-64437500D03*
D11*
X88250000Y-75437500D03*
X88250000Y-67437500D03*
X102250000Y-75437500D03*
X102250000Y-67437500D03*
D10*
X91250000Y-64437500D03*
G04 #@! TD*
G04 #@! TO.P,SW34,*
G04 #@! TO.N,*
X76200000Y-64437500D03*
X76200000Y-78437500D03*
D11*
X69200000Y-71437500D03*
X83200000Y-71437500D03*
D10*
X72200000Y-78437500D03*
X80200000Y-78437500D03*
X80200000Y-64437500D03*
D11*
X69200000Y-75437500D03*
X69200000Y-67437500D03*
X83200000Y-75437500D03*
X83200000Y-67437500D03*
D10*
X72200000Y-64437500D03*
G04 #@! TD*
G04 #@! TO.P,SW30,*
G04 #@! TO.N,*
X290512000Y-45387500D03*
X290512000Y-59387500D03*
D11*
X283512000Y-52387500D03*
X297512000Y-52387500D03*
D10*
X286512000Y-59387500D03*
X294512000Y-59387500D03*
X294512000Y-45387500D03*
D11*
X283512000Y-56387500D03*
X283512000Y-48387500D03*
X297512000Y-56387500D03*
X297512000Y-48387500D03*
D10*
X286512000Y-45387500D03*
G04 #@! TD*
G04 #@! TO.P,SW29,*
G04 #@! TO.N,*
X271462000Y-45387500D03*
X271462000Y-59387500D03*
D11*
X264462000Y-52387500D03*
X278462000Y-52387500D03*
D10*
X267462000Y-59387500D03*
X275462000Y-59387500D03*
X275462000Y-45387500D03*
D11*
X264462000Y-56387500D03*
X264462000Y-48387500D03*
X278462000Y-56387500D03*
X278462000Y-48387500D03*
D10*
X267462000Y-45387500D03*
G04 #@! TD*
G04 #@! TO.P,SW28,*
G04 #@! TO.N,*
X252412000Y-45387500D03*
X252412000Y-59387500D03*
D11*
X245412000Y-52387500D03*
X259412000Y-52387500D03*
D10*
X248412000Y-59387500D03*
X256412000Y-59387500D03*
X256412000Y-45387500D03*
D11*
X245412000Y-56387500D03*
X245412000Y-48387500D03*
X259412000Y-56387500D03*
X259412000Y-48387500D03*
D10*
X248412000Y-45387500D03*
G04 #@! TD*
G04 #@! TO.P,SW27,*
G04 #@! TO.N,*
X233362000Y-45387500D03*
X233362000Y-59387500D03*
D11*
X226362000Y-52387500D03*
X240362000Y-52387500D03*
D10*
X229362000Y-59387500D03*
X237362000Y-59387500D03*
X237362000Y-45387500D03*
D11*
X226362000Y-56387500D03*
X226362000Y-48387500D03*
X240362000Y-56387500D03*
X240362000Y-48387500D03*
D10*
X229362000Y-45387500D03*
G04 #@! TD*
G04 #@! TO.P,SW26,*
G04 #@! TO.N,*
X214312000Y-45387500D03*
X214312000Y-59387500D03*
D11*
X207312000Y-52387500D03*
X221312000Y-52387500D03*
D10*
X210312000Y-59387500D03*
X218312000Y-59387500D03*
X218312000Y-45387500D03*
D11*
X207312000Y-56387500D03*
X207312000Y-48387500D03*
X221312000Y-56387500D03*
X221312000Y-48387500D03*
D10*
X210312000Y-45387500D03*
G04 #@! TD*
G04 #@! TO.P,SW25,*
G04 #@! TO.N,*
X195262000Y-45387500D03*
X195262000Y-59387500D03*
D11*
X188262000Y-52387500D03*
X202262000Y-52387500D03*
D10*
X191262000Y-59387500D03*
X199262000Y-59387500D03*
X199262000Y-45387500D03*
D11*
X188262000Y-56387500D03*
X188262000Y-48387500D03*
X202262000Y-56387500D03*
X202262000Y-48387500D03*
D10*
X191262000Y-45387500D03*
G04 #@! TD*
G04 #@! TO.P,SW24,*
G04 #@! TO.N,*
X176212000Y-45387500D03*
X176212000Y-59387500D03*
D11*
X169212000Y-52387500D03*
X183212000Y-52387500D03*
D10*
X172212000Y-59387500D03*
X180212000Y-59387500D03*
X180212000Y-45387500D03*
D11*
X169212000Y-56387500D03*
X169212000Y-48387500D03*
X183212000Y-56387500D03*
X183212000Y-48387500D03*
D10*
X172212000Y-45387500D03*
G04 #@! TD*
G04 #@! TO.P,SW22,*
G04 #@! TO.N,*
X138112000Y-45387500D03*
X138112000Y-59387500D03*
D11*
X131112000Y-52387500D03*
X145112000Y-52387500D03*
D10*
X134112000Y-59387500D03*
X142112000Y-59387500D03*
X142112000Y-45387500D03*
D11*
X131112000Y-56387500D03*
X131112000Y-48387500D03*
X145112000Y-56387500D03*
X145112000Y-48387500D03*
D10*
X134112000Y-45387500D03*
G04 #@! TD*
G04 #@! TO.P,SW21,*
G04 #@! TO.N,*
X119062000Y-45387500D03*
X119062000Y-59387500D03*
D11*
X112062000Y-52387500D03*
X126062000Y-52387500D03*
D10*
X115062000Y-59387500D03*
X123062000Y-59387500D03*
X123062000Y-45387500D03*
D11*
X112062000Y-56387500D03*
X112062000Y-48387500D03*
X126062000Y-56387500D03*
X126062000Y-48387500D03*
D10*
X115062000Y-45387500D03*
G04 #@! TD*
G04 #@! TO.P,SW20,*
G04 #@! TO.N,*
X100012000Y-45387500D03*
X100012000Y-59387500D03*
D11*
X93012000Y-52387500D03*
X107012000Y-52387500D03*
D10*
X96012000Y-59387500D03*
X104012000Y-59387500D03*
X104012000Y-45387500D03*
D11*
X93012000Y-56387500D03*
X93012000Y-48387500D03*
X107012000Y-56387500D03*
X107012000Y-48387500D03*
D10*
X96012000Y-45387500D03*
G04 #@! TD*
G04 #@! TO.P,SW19,*
G04 #@! TO.N,*
X80962500Y-45387500D03*
X80962500Y-59387500D03*
D11*
X73962500Y-52387500D03*
X87962500Y-52387500D03*
D10*
X76962500Y-59387500D03*
X84962500Y-59387500D03*
X84962500Y-45387500D03*
D11*
X73962500Y-56387500D03*
X73962500Y-48387500D03*
X87962500Y-56387500D03*
X87962500Y-48387500D03*
D10*
X76962500Y-45387500D03*
G04 #@! TD*
G04 #@! TO.P,SW17,*
G04 #@! TO.N,*
X33337500Y-45387500D03*
X33337500Y-59387500D03*
D11*
X26337500Y-52387500D03*
X40337500Y-52387500D03*
D10*
X29337500Y-59387500D03*
X37337500Y-59387500D03*
X37337500Y-45387500D03*
D11*
X26337500Y-56387500D03*
X26337500Y-48387500D03*
X40337500Y-56387500D03*
X40337500Y-48387500D03*
D10*
X29337500Y-45387500D03*
G04 #@! TD*
G04 #@! TO.P,SW15,*
G04 #@! TO.N,*
X300038000Y-26337500D03*
X300038000Y-40337500D03*
D11*
X293038000Y-33337500D03*
X307038000Y-33337500D03*
D10*
X296038000Y-40337500D03*
X304038000Y-40337500D03*
X304038000Y-26337500D03*
D11*
X293038000Y-37337500D03*
X293038000Y-29337500D03*
X307038000Y-37337500D03*
X307038000Y-29337500D03*
D10*
X296038000Y-26337500D03*
G04 #@! TD*
G04 #@! TO.P,SW14,*
G04 #@! TO.N,*
X280988000Y-26337500D03*
X280988000Y-40337500D03*
D11*
X273988000Y-33337500D03*
X287988000Y-33337500D03*
D10*
X276988000Y-40337500D03*
X284988000Y-40337500D03*
X284988000Y-26337500D03*
D11*
X273988000Y-37337500D03*
X273988000Y-29337500D03*
X287988000Y-37337500D03*
X287988000Y-29337500D03*
D10*
X276988000Y-26337500D03*
G04 #@! TD*
G04 #@! TO.P,SW12,*
G04 #@! TO.N,*
X242888000Y-26337500D03*
X242888000Y-40337500D03*
D11*
X235888000Y-33337500D03*
X249888000Y-33337500D03*
D10*
X238888000Y-40337500D03*
X246888000Y-40337500D03*
X246888000Y-26337500D03*
D11*
X235888000Y-37337500D03*
X235888000Y-29337500D03*
X249888000Y-37337500D03*
X249888000Y-29337500D03*
D10*
X238888000Y-26337500D03*
G04 #@! TD*
G04 #@! TO.P,SW11,*
G04 #@! TO.N,*
X223838000Y-26337500D03*
X223838000Y-40337500D03*
D11*
X216838000Y-33337500D03*
X230838000Y-33337500D03*
D10*
X219838000Y-40337500D03*
X227838000Y-40337500D03*
X227838000Y-26337500D03*
D11*
X216838000Y-37337500D03*
X216838000Y-29337500D03*
X230838000Y-37337500D03*
X230838000Y-29337500D03*
D10*
X219838000Y-26337500D03*
G04 #@! TD*
G04 #@! TO.P,SW9,*
G04 #@! TO.N,*
X185738000Y-26337500D03*
X185738000Y-40337500D03*
D11*
X178738000Y-33337500D03*
X192738000Y-33337500D03*
D10*
X181738000Y-40337500D03*
X189738000Y-40337500D03*
X189738000Y-26337500D03*
D11*
X178738000Y-37337500D03*
X178738000Y-29337500D03*
X192738000Y-37337500D03*
X192738000Y-29337500D03*
D10*
X181738000Y-26337500D03*
G04 #@! TD*
G04 #@! TO.P,SW8,*
G04 #@! TO.N,*
X166688000Y-26337500D03*
X166688000Y-40337500D03*
D11*
X159688000Y-33337500D03*
X173688000Y-33337500D03*
D10*
X162688000Y-40337500D03*
X170688000Y-40337500D03*
X170688000Y-26337500D03*
D11*
X159688000Y-37337500D03*
X159688000Y-29337500D03*
X173688000Y-37337500D03*
X173688000Y-29337500D03*
D10*
X162688000Y-26337500D03*
G04 #@! TD*
G04 #@! TO.P,SW7,*
G04 #@! TO.N,*
X147638000Y-26337500D03*
X147638000Y-40337500D03*
D11*
X140638000Y-33337500D03*
X154638000Y-33337500D03*
D10*
X143638000Y-40337500D03*
X151638000Y-40337500D03*
X151638000Y-26337500D03*
D11*
X140638000Y-37337500D03*
X140638000Y-29337500D03*
X154638000Y-37337500D03*
X154638000Y-29337500D03*
D10*
X143638000Y-26337500D03*
G04 #@! TD*
G04 #@! TO.P,SW6,*
G04 #@! TO.N,*
X128588000Y-26337500D03*
X128588000Y-40337500D03*
D11*
X121588000Y-33337500D03*
X135588000Y-33337500D03*
D10*
X124588000Y-40337500D03*
X132588000Y-40337500D03*
X132588000Y-26337500D03*
D11*
X121588000Y-37337500D03*
X121588000Y-29337500D03*
X135588000Y-37337500D03*
X135588000Y-29337500D03*
D10*
X124588000Y-26337500D03*
G04 #@! TD*
G04 #@! TO.P,SW5,*
G04 #@! TO.N,*
X109538000Y-26337500D03*
X109538000Y-40337500D03*
D11*
X102538000Y-33337500D03*
X116538000Y-33337500D03*
D10*
X105538000Y-40337500D03*
X113538000Y-40337500D03*
X113538000Y-26337500D03*
D11*
X102538000Y-37337500D03*
X102538000Y-29337500D03*
X116538000Y-37337500D03*
X116538000Y-29337500D03*
D10*
X105538000Y-26337500D03*
G04 #@! TD*
G04 #@! TO.P,SW4,*
G04 #@! TO.N,*
X90487500Y-26337500D03*
X90487500Y-40337500D03*
D11*
X83487500Y-33337500D03*
X97487500Y-33337500D03*
D10*
X86487500Y-40337500D03*
X94487500Y-40337500D03*
X94487500Y-26337500D03*
D11*
X83487500Y-37337500D03*
X83487500Y-29337500D03*
X97487500Y-37337500D03*
X97487500Y-29337500D03*
D10*
X86487500Y-26337500D03*
G04 #@! TD*
G04 #@! TO.P,SW2,*
G04 #@! TO.N,*
X52387500Y-26337500D03*
X52387500Y-40337500D03*
D11*
X45387500Y-33337500D03*
X59387500Y-33337500D03*
D10*
X48387500Y-40337500D03*
X56387500Y-40337500D03*
X56387500Y-26337500D03*
D11*
X45387500Y-37337500D03*
X45387500Y-29337500D03*
X59387500Y-37337500D03*
X59387500Y-29337500D03*
D10*
X48387500Y-26337500D03*
G04 #@! TD*
G04 #@! TO.P,SW3,*
G04 #@! TO.N,*
X71437500Y-26337500D03*
X71437500Y-40337500D03*
D11*
X64437500Y-33337500D03*
X78437500Y-33337500D03*
D10*
X67437500Y-40337500D03*
X75437500Y-40337500D03*
X75437500Y-26337500D03*
D11*
X64437500Y-37337500D03*
X64437500Y-29337500D03*
X78437500Y-37337500D03*
X78437500Y-29337500D03*
D10*
X67437500Y-26337500D03*
G04 #@! TD*
G04 #@! TO.P,SW52,*
G04 #@! TO.N,*
X147638000Y-83487500D03*
X147638000Y-97487500D03*
D11*
X140638000Y-90487500D03*
X154638000Y-90487500D03*
D10*
X143638000Y-97487500D03*
X151638000Y-97487500D03*
X151638000Y-83487500D03*
D11*
X140638000Y-94487500D03*
X140638000Y-86487500D03*
X154638000Y-94487500D03*
X154638000Y-86487500D03*
D10*
X143638000Y-83487500D03*
G04 #@! TD*
G04 #@! TO.P,SW10,*
G04 #@! TO.N,*
X204788000Y-26337500D03*
X204788000Y-40337500D03*
D11*
X197788000Y-33337500D03*
X211788000Y-33337500D03*
D10*
X200788000Y-40337500D03*
X208788000Y-40337500D03*
X208788000Y-26337500D03*
D11*
X197788000Y-37337500D03*
X197788000Y-29337500D03*
X211788000Y-37337500D03*
X211788000Y-29337500D03*
D10*
X200788000Y-26337500D03*
G04 #@! TD*
G04 #@! TO.P,SW32,*
G04 #@! TO.N,*
X338138000Y-45387500D03*
X338138000Y-59387500D03*
D11*
X331138000Y-52387500D03*
X345138000Y-52387500D03*
D10*
X334138000Y-59387500D03*
X342138000Y-59387500D03*
X342138000Y-45387500D03*
D11*
X331138000Y-56387500D03*
X331138000Y-48387500D03*
X345138000Y-56387500D03*
X345138000Y-48387500D03*
D10*
X334138000Y-45387500D03*
G04 #@! TD*
G04 #@! TO.P,SW31,*
G04 #@! TO.N,*
X314325000Y-45387500D03*
X314325000Y-59387500D03*
D11*
X307325000Y-52387500D03*
X321325000Y-52387500D03*
D10*
X310325000Y-59387500D03*
X318325000Y-59387500D03*
X318325000Y-45387500D03*
D11*
X307325000Y-56387500D03*
X307325000Y-48387500D03*
X321325000Y-56387500D03*
X321325000Y-48387500D03*
D10*
X310325000Y-45387500D03*
G04 #@! TD*
G04 #@! TO.P,SW18,*
G04 #@! TO.N,*
X57150000Y-45387500D03*
X57150000Y-59387500D03*
D11*
X50150000Y-52387500D03*
X64150000Y-52387500D03*
D10*
X53150000Y-59387500D03*
X61150000Y-59387500D03*
X61150000Y-45387500D03*
D11*
X50150000Y-56387500D03*
X50150000Y-48387500D03*
X64150000Y-56387500D03*
X64150000Y-48387500D03*
D10*
X53150000Y-45387500D03*
G04 #@! TD*
G04 #@! TO.P,SW33,*
G04 #@! TO.N,*
X50006200Y-64437500D03*
X50006200Y-78437500D03*
D11*
X43006200Y-71437500D03*
X57006200Y-71437500D03*
D10*
X46006200Y-78437500D03*
X54006200Y-78437500D03*
X54006200Y-64437500D03*
D11*
X43006200Y-75437500D03*
X43006200Y-67437500D03*
X57006200Y-75437500D03*
X57006200Y-67437500D03*
D10*
X46006200Y-64437500D03*
G04 #@! TD*
D11*
G04 #@! TO.P,SW68,*
G04 #@! TO.N,*
X202262000Y-116681000D03*
X188262000Y-116681000D03*
D10*
X195262000Y-109681000D03*
X195262000Y-123681000D03*
D11*
X188262000Y-112681000D03*
X188262000Y-120681000D03*
X202262000Y-120681000D03*
D10*
X191262000Y-109681000D03*
X199262000Y-109681000D03*
X191262000Y-123681000D03*
X199262000Y-123681000D03*
D11*
X202262000Y-112681000D03*
G04 #@! TD*
G04 #@! TO.P,SW67,*
G04 #@! TO.N,*
X169212000Y-116681000D03*
X183212000Y-116681000D03*
D10*
X176212000Y-123681000D03*
X176212000Y-109681000D03*
D11*
X183212000Y-120681000D03*
X183212000Y-112681000D03*
X169212000Y-112681000D03*
D10*
X180212000Y-123681000D03*
X172212000Y-123681000D03*
X180212000Y-109681000D03*
X172212000Y-109681000D03*
D11*
X169212000Y-120681000D03*
G04 #@! TD*
D10*
G04 #@! TO.P,SW66,*
G04 #@! TO.N,*
X154781000Y-121300000D03*
X154781000Y-107300000D03*
D11*
X161781000Y-114300000D03*
X147781000Y-114300000D03*
D10*
X158781000Y-107300000D03*
X150781000Y-107300000D03*
X150781000Y-121300000D03*
D11*
X161781000Y-110300000D03*
X161781000Y-118300000D03*
X147781000Y-110300000D03*
X147781000Y-118300000D03*
D10*
X158781000Y-121300000D03*
G04 #@! TD*
D11*
G04 #@! TO.P,SW65,*
G04 #@! TO.N,*
X140350000Y-111919000D03*
X126350000Y-111919000D03*
D10*
X133350000Y-104919000D03*
X133350000Y-118919000D03*
D11*
X126350000Y-107919000D03*
X126350000Y-115919000D03*
X140350000Y-115919000D03*
D10*
X129350000Y-104919000D03*
X137350000Y-104919000D03*
X129350000Y-118919000D03*
X137350000Y-118919000D03*
D11*
X140350000Y-107919000D03*
G04 #@! TD*
D10*
G04 #@! TO.P,SW69,*
G04 #@! TO.N,*
X216694000Y-121300000D03*
X216694000Y-107300000D03*
D11*
X223694000Y-114300000D03*
X209694000Y-114300000D03*
D10*
X220694000Y-107300000D03*
X212694000Y-107300000D03*
X212694000Y-121300000D03*
D11*
X223694000Y-110300000D03*
X223694000Y-118300000D03*
X209694000Y-110300000D03*
X209694000Y-118300000D03*
D10*
X220694000Y-121300000D03*
G04 #@! TD*
D11*
G04 #@! TO.P,SW70,*
G04 #@! TO.N,*
X231125000Y-111919000D03*
X245125000Y-111919000D03*
D10*
X238125000Y-118919000D03*
X238125000Y-104919000D03*
D11*
X245125000Y-115919000D03*
X245125000Y-107919000D03*
X231125000Y-107919000D03*
D10*
X242125000Y-118919000D03*
X234125000Y-118919000D03*
X242125000Y-104919000D03*
X234125000Y-104919000D03*
D11*
X231125000Y-115919000D03*
G04 #@! TD*
D10*
G04 #@! TO.P,SW64,*
G04 #@! TO.N,*
X50006200Y-102538000D03*
X50006200Y-116538000D03*
D11*
X43006200Y-109538000D03*
X57006200Y-109538000D03*
D10*
X46006200Y-116538000D03*
X54006200Y-116538000D03*
X54006200Y-102538000D03*
D11*
X43006200Y-113538000D03*
X43006200Y-105538000D03*
X57006200Y-113538000D03*
X57006200Y-105538000D03*
D10*
X46006200Y-102538000D03*
G04 #@! TD*
G04 #@! TO.P,SW23,*
G04 #@! TO.N,*
X157162000Y-45387500D03*
X157162000Y-59387500D03*
D11*
X150162000Y-52387500D03*
X164162000Y-52387500D03*
D10*
X153162000Y-59387500D03*
X161162000Y-59387500D03*
X161162000Y-45387500D03*
D11*
X150162000Y-56387500D03*
X150162000Y-48387500D03*
X164162000Y-56387500D03*
X164162000Y-48387500D03*
D10*
X153162000Y-45387500D03*
G04 #@! TD*
G04 #@! TO.P,SW46,*
G04 #@! TO.N,*
X329231000Y-64437500D03*
X324231000Y-64437500D03*
X318231000Y-78437500D03*
X323231000Y-78437500D03*
X329231000Y-78437500D03*
D12*
X340831000Y-64437500D03*
D11*
X342231000Y-71437500D03*
D13*
X338181000Y-63537500D03*
D14*
X339881000Y-64187500D03*
X336481000Y-64187500D03*
X312581000Y-64187500D03*
X315981000Y-64187500D03*
D13*
X314281000Y-63537500D03*
D12*
X311631000Y-64437500D03*
D11*
X342231000Y-75437500D03*
X342231000Y-67437500D03*
D10*
X318531000Y-64437500D03*
D11*
X310231000Y-75437500D03*
X310231000Y-71437500D03*
X310231000Y-67437500D03*
D10*
X333731000Y-64437500D03*
X313231000Y-78437500D03*
X339231000Y-78437500D03*
X334231000Y-78437500D03*
G04 #@! TD*
G04 #@! TO.P,SW16,*
G04 #@! TO.N,*
X325612000Y-40337500D03*
X330612000Y-40337500D03*
X336612000Y-26337500D03*
X331612000Y-26337500D03*
X325612000Y-26337500D03*
D12*
X314012000Y-40337500D03*
D11*
X312612000Y-33337500D03*
D13*
X316662000Y-41237500D03*
D14*
X314962000Y-40587500D03*
X318362000Y-40587500D03*
X342262000Y-40587500D03*
X338862000Y-40587500D03*
D13*
X340562000Y-41237500D03*
D12*
X343212000Y-40337500D03*
D11*
X312612000Y-29337500D03*
X312612000Y-37337500D03*
D10*
X336312000Y-40337500D03*
D11*
X344612000Y-29337500D03*
X344612000Y-33337500D03*
X344612000Y-37337500D03*
D10*
X321112000Y-40337500D03*
X341612000Y-26337500D03*
X315612000Y-26337500D03*
X320612000Y-26337500D03*
G04 #@! TD*
G04 #@! TO.P,SW62,*
G04 #@! TO.N,*
X357806000Y-83487500D03*
X352806000Y-83487500D03*
X346806000Y-97487500D03*
X351806000Y-97487500D03*
X357806000Y-97487500D03*
D12*
X369406000Y-83487500D03*
D11*
X370806000Y-90487500D03*
D13*
X366756000Y-82587500D03*
D14*
X368456000Y-83237500D03*
X365056000Y-83237500D03*
X341156000Y-83237500D03*
X344556000Y-83237500D03*
D13*
X342856000Y-82587500D03*
D12*
X340206000Y-83487500D03*
D11*
X370806000Y-94487500D03*
X370806000Y-86487500D03*
D10*
X347106000Y-83487500D03*
D11*
X338806000Y-94487500D03*
X338806000Y-90487500D03*
X338806000Y-86487500D03*
D10*
X362306000Y-83487500D03*
X341806000Y-97487500D03*
X367806000Y-97487500D03*
X362806000Y-97487500D03*
G04 #@! TD*
G04 #@! TO.P,SW47,*
G04 #@! TO.N,*
X43481200Y-83487500D03*
X38481200Y-83487500D03*
X32481200Y-97487500D03*
X37481200Y-97487500D03*
X43481200Y-97487500D03*
D12*
X55081200Y-83487500D03*
D11*
X56481200Y-90487500D03*
D13*
X52431200Y-82587500D03*
D14*
X54131200Y-83237500D03*
X50731200Y-83237500D03*
X26831200Y-83237500D03*
X30231200Y-83237500D03*
D13*
X28531200Y-82587500D03*
D12*
X25881200Y-83487500D03*
D11*
X56481200Y-94487500D03*
X56481200Y-86487500D03*
D10*
X32781200Y-83487500D03*
D11*
X24481200Y-94487500D03*
X24481200Y-90487500D03*
X24481200Y-86487500D03*
D10*
X47981200Y-83487500D03*
X27481200Y-97487500D03*
X53481200Y-97487500D03*
X48481200Y-97487500D03*
G04 #@! TD*
D15*
G04 #@! TO.P,Hole2,1*
G04 #@! TO.N,GND*
X28575000Y-122174000D03*
D16*
X30225000Y-122174000D03*
X29741726Y-123340726D03*
X28575000Y-123824000D03*
X27408274Y-123340726D03*
X26925000Y-122174000D03*
X27408274Y-121007274D03*
X28575000Y-120524000D03*
X29741726Y-121007274D03*
G04 #@! TD*
D15*
G04 #@! TO.P,Hole5,1*
G04 #@! TO.N,GND*
X365125000Y-122238000D03*
D16*
X366775000Y-122238000D03*
X366291726Y-123404726D03*
X365125000Y-123888000D03*
X363958274Y-123404726D03*
X363475000Y-122238000D03*
X363958274Y-121071274D03*
X365125000Y-120588000D03*
X366291726Y-121071274D03*
G04 #@! TD*
D15*
G04 #@! TO.P,Hole1,1*
G04 #@! TO.N,GND*
X22225000Y-34607500D03*
D16*
X23875000Y-34607500D03*
X23391726Y-35774226D03*
X22225000Y-36257500D03*
X21058274Y-35774226D03*
X20575000Y-34607500D03*
X21058274Y-33440774D03*
X22225000Y-32957500D03*
X23391726Y-33440774D03*
G04 #@! TD*
D15*
G04 #@! TO.P,Hole3,1*
G04 #@! TO.N,GND*
X185610000Y-65913000D03*
D16*
X187260000Y-65913000D03*
X186776726Y-67079726D03*
X185610000Y-67563000D03*
X184443274Y-67079726D03*
X183960000Y-65913000D03*
X184443274Y-64746274D03*
X185610000Y-64263000D03*
X186776726Y-64746274D03*
G04 #@! TD*
D15*
G04 #@! TO.P,Hole4,1*
G04 #@! TO.N,GND*
X351790000Y-34607500D03*
D16*
X353440000Y-34607500D03*
X352956726Y-35774226D03*
X351790000Y-36257500D03*
X350623274Y-35774226D03*
X350140000Y-34607500D03*
X350623274Y-33440774D03*
X351790000Y-32957500D03*
X352956726Y-33440774D03*
G04 #@! TD*
D17*
G04 #@! TO.N,GND*
X189738000Y-67945000D03*
X181610000Y-67945000D03*
X189738000Y-74168000D03*
X182626000Y-69596000D03*
X184658000Y-69596000D03*
X186690000Y-69596000D03*
X188722000Y-69596000D03*
X187706000Y-71120000D03*
X185674000Y-71120000D03*
X183642000Y-71120000D03*
X184658000Y-72644000D03*
X186690000Y-72644000D03*
X189738000Y-71120000D03*
X186690000Y-75692000D03*
X182626000Y-75692000D03*
X187706000Y-77216000D03*
X188722000Y-75692000D03*
X189738000Y-77216000D03*
X184658000Y-75692000D03*
X183642000Y-77216000D03*
X184658000Y-78740000D03*
X182626000Y-78740000D03*
X185674000Y-74168000D03*
X183642000Y-74168000D03*
X181610000Y-71120000D03*
X181610000Y-74168000D03*
X181610000Y-77216000D03*
X181610000Y-80264000D03*
X187706000Y-74168000D03*
X183642000Y-80264000D03*
X185674000Y-77216000D03*
X188722000Y-72644000D03*
X182626000Y-72644000D03*
X185674000Y-80264000D03*
X186690000Y-78740000D03*
X187706000Y-80264000D03*
X188722000Y-78740000D03*
X189738000Y-80264000D03*
G04 #@! TD*
D18*
G04 #@! TO.N,GND*
G36*
X343673430Y-24593952D02*
X344070216Y-24702500D01*
X312773031Y-24702500D01*
X312612000Y-24670469D01*
X312450969Y-24702500D01*
X311974055Y-24797364D01*
X311433231Y-25158731D01*
X311071864Y-25699555D01*
X310944969Y-26337500D01*
X310977000Y-26498531D01*
X310977001Y-30176469D01*
X310977000Y-34176468D01*
X310977000Y-34176470D01*
X310977001Y-40176464D01*
X310944969Y-40337500D01*
X311071864Y-40975445D01*
X311433231Y-41516269D01*
X311974055Y-41877636D01*
X312450969Y-41972500D01*
X312612000Y-42004531D01*
X312773031Y-41972500D01*
X313486714Y-41972500D01*
X313783231Y-42416269D01*
X314324055Y-42777636D01*
X314962000Y-42904531D01*
X315123031Y-42872500D01*
X318200969Y-42872500D01*
X318362000Y-42904531D01*
X318523031Y-42872500D01*
X318999945Y-42777636D01*
X319540769Y-42416269D01*
X319837286Y-41972500D01*
X337386714Y-41972500D01*
X337683231Y-42416269D01*
X338224055Y-42777636D01*
X338862000Y-42904531D01*
X339023031Y-42872500D01*
X342100969Y-42872500D01*
X342262000Y-42904531D01*
X342423031Y-42872500D01*
X342899945Y-42777636D01*
X343440769Y-42416269D01*
X343737286Y-41972500D01*
X344450969Y-41972500D01*
X344612000Y-42004531D01*
X345249945Y-41877636D01*
X345790769Y-41516269D01*
X346152136Y-40975445D01*
X346247000Y-40498531D01*
X346247000Y-40498530D01*
X346279031Y-40337500D01*
X346247000Y-40176469D01*
X346247000Y-34056860D01*
X348952391Y-34056860D01*
X348957670Y-35184681D01*
X349379112Y-36202132D01*
X349770618Y-36447277D01*
X351610395Y-34607500D01*
X349770618Y-32767723D01*
X349379112Y-33012868D01*
X348952391Y-34056860D01*
X346247000Y-34056860D01*
X346247000Y-26498531D01*
X346279031Y-26337500D01*
X346226646Y-26074140D01*
X346294241Y-26143893D01*
X346727337Y-26788408D01*
X347039449Y-27499418D01*
X347221511Y-28257765D01*
X347270747Y-28990928D01*
X347275362Y-29137789D01*
X347277117Y-29148872D01*
X347276413Y-29160068D01*
X347287588Y-29248528D01*
X347406892Y-29873944D01*
X347420697Y-29916430D01*
X347429066Y-29960305D01*
X347461889Y-30043207D01*
X347732980Y-30619304D01*
X347756916Y-30657021D01*
X347775934Y-30697436D01*
X347828343Y-30769571D01*
X348234185Y-31260151D01*
X348266754Y-31290736D01*
X348295222Y-31325147D01*
X348363915Y-31381975D01*
X348363922Y-31381982D01*
X348363926Y-31381984D01*
X348879019Y-31756221D01*
X348918165Y-31777742D01*
X348954301Y-31803996D01*
X349034965Y-31841954D01*
X349034978Y-31841961D01*
X349034985Y-31841963D01*
X349626960Y-32076343D01*
X349670236Y-32087454D01*
X349711758Y-32103894D01*
X349799330Y-32120600D01*
X349799342Y-32120603D01*
X349799349Y-32120603D01*
X350243431Y-32176704D01*
X350195368Y-32196612D01*
X349950223Y-32588118D01*
X351790000Y-34427895D01*
X351804143Y-34413753D01*
X351983748Y-34593358D01*
X351969605Y-34607500D01*
X351983748Y-34621643D01*
X351804143Y-34801248D01*
X351790000Y-34787105D01*
X349950223Y-36626882D01*
X350195368Y-37018388D01*
X351239360Y-37445109D01*
X352367181Y-37439830D01*
X353175475Y-37105024D01*
X353097239Y-37176619D01*
X352693701Y-37391748D01*
X352225153Y-37505643D01*
X352023981Y-37517000D01*
X350450074Y-37517000D01*
X350430573Y-37520879D01*
X350389256Y-37524013D01*
X349758663Y-37611936D01*
X349715539Y-37623602D01*
X349671303Y-37629770D01*
X349586870Y-37658411D01*
X349586865Y-37658412D01*
X349586862Y-37658413D01*
X348997950Y-37900395D01*
X348959087Y-37922416D01*
X348917768Y-37939394D01*
X348843106Y-37988135D01*
X348332871Y-38368974D01*
X348300701Y-38399973D01*
X348264909Y-38426688D01*
X348204714Y-38492465D01*
X347805220Y-38988229D01*
X347781772Y-39026250D01*
X347753745Y-39061031D01*
X347711799Y-39139712D01*
X347448147Y-39719251D01*
X347434891Y-39761909D01*
X347416395Y-39802566D01*
X347395334Y-39889206D01*
X347311288Y-40362833D01*
X347311195Y-40362973D01*
X347270000Y-40570075D01*
X347270001Y-80575069D01*
X347256091Y-80645000D01*
X347311195Y-80922028D01*
X347468119Y-81156881D01*
X347702972Y-81313805D01*
X347910074Y-81355000D01*
X347910075Y-81355000D01*
X347980000Y-81368909D01*
X348049926Y-81355000D01*
X363957645Y-81355000D01*
X363877231Y-81408731D01*
X363580714Y-81852500D01*
X346031286Y-81852500D01*
X345734769Y-81408731D01*
X345193945Y-81047364D01*
X344717031Y-80952500D01*
X344556000Y-80920469D01*
X344394969Y-80952500D01*
X341317031Y-80952500D01*
X341156000Y-80920469D01*
X340994969Y-80952500D01*
X340518055Y-81047364D01*
X339977231Y-81408731D01*
X339680714Y-81852500D01*
X338967031Y-81852500D01*
X338806000Y-81820469D01*
X338644969Y-81852500D01*
X338168055Y-81947364D01*
X337627231Y-82308731D01*
X337265864Y-82849555D01*
X337138969Y-83487500D01*
X337171001Y-83648536D01*
X337171000Y-87326468D01*
X337171000Y-87326470D01*
X337171001Y-91326469D01*
X337171000Y-97326469D01*
X337138969Y-97487500D01*
X337265864Y-98125445D01*
X337627231Y-98666269D01*
X338168055Y-99027636D01*
X338806000Y-99154531D01*
X338967031Y-99122500D01*
X370644969Y-99122500D01*
X370806000Y-99154531D01*
X370967031Y-99122500D01*
X371443945Y-99027636D01*
X371984769Y-98666269D01*
X372346136Y-98125445D01*
X372473031Y-97487500D01*
X372441000Y-97326469D01*
X372441000Y-83648531D01*
X372473031Y-83487500D01*
X372346136Y-82849555D01*
X371984769Y-82308731D01*
X371443945Y-81947364D01*
X370967031Y-81852500D01*
X370806000Y-81820469D01*
X370644969Y-81852500D01*
X369931286Y-81852500D01*
X369634769Y-81408731D01*
X369554355Y-81355000D01*
X375888382Y-81355000D01*
X376693358Y-81426842D01*
X377442277Y-81631723D01*
X378143072Y-81965986D01*
X378773605Y-82419069D01*
X379313934Y-82976645D01*
X379746989Y-83621099D01*
X380059073Y-84332044D01*
X380241640Y-85092493D01*
X380290001Y-85751044D01*
X380290000Y-120617454D01*
X380219200Y-121387965D01*
X380018044Y-122101210D01*
X379690272Y-122765866D01*
X379246872Y-123359651D01*
X378702685Y-123862691D01*
X378075940Y-124258139D01*
X377387625Y-124532748D01*
X376647026Y-124680064D01*
X376218908Y-124702500D01*
X366590201Y-124702500D01*
X366719632Y-124648888D01*
X366964777Y-124257382D01*
X365125000Y-122417605D01*
X363285223Y-124257382D01*
X363530368Y-124648888D01*
X363661532Y-124702500D01*
X247693501Y-124702500D01*
X247667286Y-124699275D01*
X247623748Y-124702500D01*
X247580074Y-124702500D01*
X247554159Y-124707655D01*
X204761248Y-127877500D01*
X166713766Y-127877500D01*
X123920841Y-124707655D01*
X123894926Y-124702500D01*
X123851252Y-124702500D01*
X123807714Y-124699275D01*
X123781499Y-124702500D01*
X29885692Y-124702500D01*
X30169632Y-124584888D01*
X30414777Y-124193382D01*
X28575000Y-122353605D01*
X26735223Y-124193382D01*
X26980368Y-124584888D01*
X27268111Y-124702500D01*
X23845046Y-124702500D01*
X23074535Y-124631700D01*
X22361290Y-124430544D01*
X21696634Y-124102772D01*
X21102849Y-123659372D01*
X20599809Y-123115185D01*
X20204361Y-122488440D01*
X19929752Y-121800125D01*
X19894591Y-121623360D01*
X25737391Y-121623360D01*
X25742670Y-122751181D01*
X26164112Y-123768632D01*
X26555618Y-124013777D01*
X28395395Y-122174000D01*
X28754605Y-122174000D01*
X30594382Y-124013777D01*
X30985888Y-123768632D01*
X31412609Y-122724640D01*
X31407330Y-121596819D01*
X30985888Y-120579368D01*
X30594382Y-120334223D01*
X28754605Y-122174000D01*
X28395395Y-122174000D01*
X26555618Y-120334223D01*
X26164112Y-120579368D01*
X25737391Y-121623360D01*
X19894591Y-121623360D01*
X19782436Y-121059526D01*
X19760000Y-120631408D01*
X19760000Y-120154618D01*
X26735223Y-120154618D01*
X28575000Y-121994395D01*
X30414777Y-120154618D01*
X30169632Y-119763112D01*
X29125640Y-119336391D01*
X27997819Y-119341670D01*
X26980368Y-119763112D01*
X26735223Y-120154618D01*
X19760000Y-120154618D01*
X19760000Y-102538000D01*
X19907969Y-102538000D01*
X19940001Y-102699036D01*
X19940000Y-108699030D01*
X19940001Y-108699033D01*
X19940000Y-112699030D01*
X19940001Y-112699033D01*
X19940000Y-116376969D01*
X19907969Y-116538000D01*
X20034864Y-117175945D01*
X20264734Y-117519970D01*
X20396231Y-117716769D01*
X20937055Y-118078136D01*
X21575000Y-118205031D01*
X21736031Y-118173000D01*
X35413969Y-118173000D01*
X35575000Y-118205031D01*
X35736031Y-118173000D01*
X36212945Y-118078136D01*
X36753769Y-117716769D01*
X37115136Y-117175945D01*
X37242031Y-116538000D01*
X37210000Y-116376969D01*
X37210000Y-102699031D01*
X37242031Y-102538000D01*
X41339169Y-102538000D01*
X41371201Y-102699036D01*
X41371200Y-108699030D01*
X41371201Y-108699033D01*
X41371200Y-112699030D01*
X41371201Y-112699033D01*
X41371200Y-116376969D01*
X41339169Y-116538000D01*
X41466064Y-117175945D01*
X41695934Y-117519970D01*
X41827431Y-117716769D01*
X42368255Y-118078136D01*
X43006200Y-118205031D01*
X43167231Y-118173000D01*
X56845169Y-118173000D01*
X57006200Y-118205031D01*
X57167231Y-118173000D01*
X57644145Y-118078136D01*
X58184969Y-117716769D01*
X58546336Y-117175945D01*
X58673231Y-116538000D01*
X58641200Y-116376969D01*
X58641200Y-104919000D01*
X124682969Y-104919000D01*
X124715001Y-105080036D01*
X124715000Y-111080030D01*
X124715001Y-111080033D01*
X124715000Y-115080030D01*
X124715001Y-115080033D01*
X124715000Y-118757969D01*
X124682969Y-118919000D01*
X124809864Y-119556945D01*
X125099587Y-119990546D01*
X125171231Y-120097769D01*
X125712055Y-120459136D01*
X126350000Y-120586031D01*
X126511031Y-120554000D01*
X140188969Y-120554000D01*
X140350000Y-120586031D01*
X140511031Y-120554000D01*
X140987945Y-120459136D01*
X141528769Y-120097769D01*
X141890136Y-119556945D01*
X142017031Y-118919000D01*
X141985000Y-118757969D01*
X141985000Y-107300000D01*
X146113969Y-107300000D01*
X146146000Y-107461031D01*
X146146001Y-111138967D01*
X146146000Y-111138970D01*
X146146001Y-115138967D01*
X146146000Y-115138970D01*
X146146001Y-121138964D01*
X146113969Y-121300000D01*
X146240864Y-121937945D01*
X146602231Y-122478769D01*
X147143055Y-122840136D01*
X147619969Y-122935000D01*
X147781000Y-122967031D01*
X147942031Y-122935000D01*
X161619969Y-122935000D01*
X161781000Y-122967031D01*
X162100800Y-122903419D01*
X162418945Y-122840136D01*
X162959769Y-122478769D01*
X163321136Y-121937945D01*
X163398310Y-121549965D01*
X163416000Y-121461031D01*
X163448031Y-121300000D01*
X163416000Y-121138969D01*
X163416000Y-109681000D01*
X167544969Y-109681000D01*
X167577000Y-109842031D01*
X167577001Y-113519967D01*
X167577000Y-113519970D01*
X167577001Y-117519967D01*
X167577000Y-117519970D01*
X167577001Y-123519964D01*
X167544969Y-123681000D01*
X167671864Y-124318945D01*
X168033231Y-124859769D01*
X168574055Y-125221136D01*
X169050969Y-125316000D01*
X169212000Y-125348031D01*
X169373031Y-125316000D01*
X183050969Y-125316000D01*
X183212000Y-125348031D01*
X183721160Y-125246753D01*
X183849945Y-125221136D01*
X184390769Y-124859769D01*
X184752136Y-124318945D01*
X184785590Y-124150761D01*
X184847000Y-123842031D01*
X184847000Y-123842030D01*
X184879031Y-123681000D01*
X184847000Y-123519969D01*
X184847000Y-109842031D01*
X184879031Y-109681000D01*
X186594969Y-109681000D01*
X186627001Y-109842036D01*
X186627000Y-115842030D01*
X186627001Y-115842033D01*
X186627000Y-119842030D01*
X186627001Y-119842033D01*
X186627000Y-123519969D01*
X186594969Y-123681000D01*
X186721864Y-124318945D01*
X187083231Y-124859769D01*
X187624055Y-125221136D01*
X187752841Y-125246753D01*
X188262000Y-125348031D01*
X188423031Y-125316000D01*
X202100969Y-125316000D01*
X202262000Y-125348031D01*
X202423031Y-125316000D01*
X202899945Y-125221136D01*
X203440769Y-124859769D01*
X203802136Y-124318945D01*
X203835590Y-124150761D01*
X203897000Y-123842031D01*
X203897000Y-123842030D01*
X203929031Y-123681000D01*
X203897000Y-123519969D01*
X203897000Y-109842031D01*
X203929031Y-109681000D01*
X203802136Y-109043055D01*
X203440769Y-108502231D01*
X202899945Y-108140864D01*
X202423031Y-108046000D01*
X202262000Y-108013969D01*
X202100969Y-108046000D01*
X188423031Y-108046000D01*
X188262000Y-108013969D01*
X188100969Y-108046000D01*
X187624055Y-108140864D01*
X187083231Y-108502231D01*
X186721864Y-109043055D01*
X186594969Y-109681000D01*
X184879031Y-109681000D01*
X184752136Y-109043055D01*
X184390769Y-108502231D01*
X183849945Y-108140864D01*
X183373031Y-108046000D01*
X183212000Y-108013969D01*
X183050969Y-108046000D01*
X169373031Y-108046000D01*
X169212000Y-108013969D01*
X169050969Y-108046000D01*
X168574055Y-108140864D01*
X168033231Y-108502231D01*
X167671864Y-109043055D01*
X167544969Y-109681000D01*
X163416000Y-109681000D01*
X163416000Y-107461031D01*
X163448031Y-107300000D01*
X208026969Y-107300000D01*
X208059000Y-107461031D01*
X208059001Y-111138967D01*
X208059000Y-111138970D01*
X208059001Y-115138967D01*
X208059000Y-115138970D01*
X208059001Y-121138964D01*
X208026969Y-121300000D01*
X208153864Y-121937945D01*
X208515231Y-122478769D01*
X209056055Y-122840136D01*
X209532969Y-122935000D01*
X209694000Y-122967031D01*
X209855031Y-122935000D01*
X223532969Y-122935000D01*
X223694000Y-122967031D01*
X224013800Y-122903419D01*
X224331945Y-122840136D01*
X224872769Y-122478769D01*
X225234136Y-121937945D01*
X225283980Y-121687360D01*
X362287391Y-121687360D01*
X362292670Y-122815181D01*
X362714112Y-123832632D01*
X363105618Y-124077777D01*
X364945395Y-122238000D01*
X365304605Y-122238000D01*
X367144382Y-124077777D01*
X367535888Y-123832632D01*
X367962609Y-122788640D01*
X367957330Y-121660819D01*
X367535888Y-120643368D01*
X367144382Y-120398223D01*
X365304605Y-122238000D01*
X364945395Y-122238000D01*
X363105618Y-120398223D01*
X362714112Y-120643368D01*
X362287391Y-121687360D01*
X225283980Y-121687360D01*
X225311310Y-121549965D01*
X225329000Y-121461031D01*
X225361031Y-121300000D01*
X225329000Y-121138969D01*
X225329000Y-107461031D01*
X225361031Y-107300000D01*
X225234136Y-106662055D01*
X224872769Y-106121231D01*
X224331945Y-105759864D01*
X223855031Y-105665000D01*
X223694000Y-105632969D01*
X223532969Y-105665000D01*
X209855031Y-105665000D01*
X209694000Y-105632969D01*
X209532969Y-105665000D01*
X209056055Y-105759864D01*
X208515231Y-106121231D01*
X208153864Y-106662055D01*
X208026969Y-107300000D01*
X163448031Y-107300000D01*
X163321136Y-106662055D01*
X162959769Y-106121231D01*
X162418945Y-105759864D01*
X161942031Y-105665000D01*
X161781000Y-105632969D01*
X161619969Y-105665000D01*
X147942031Y-105665000D01*
X147781000Y-105632969D01*
X147619969Y-105665000D01*
X147143055Y-105759864D01*
X146602231Y-106121231D01*
X146240864Y-106662055D01*
X146113969Y-107300000D01*
X141985000Y-107300000D01*
X141985000Y-105080031D01*
X142017031Y-104919000D01*
X229457969Y-104919000D01*
X229490000Y-105080031D01*
X229490001Y-108757967D01*
X229490000Y-108757970D01*
X229490001Y-112757967D01*
X229490000Y-112757970D01*
X229490001Y-118757964D01*
X229457969Y-118919000D01*
X229584864Y-119556945D01*
X229946231Y-120097769D01*
X230487055Y-120459136D01*
X230963969Y-120554000D01*
X231125000Y-120586031D01*
X231286031Y-120554000D01*
X244963969Y-120554000D01*
X245125000Y-120586031D01*
X245762945Y-120459136D01*
X246122905Y-120218618D01*
X363285223Y-120218618D01*
X365125000Y-122058395D01*
X366964777Y-120218618D01*
X366719632Y-119827112D01*
X365675640Y-119400391D01*
X364547819Y-119405670D01*
X363530368Y-119827112D01*
X363285223Y-120218618D01*
X246122905Y-120218618D01*
X246303769Y-120097769D01*
X246665136Y-119556945D01*
X246760000Y-119080031D01*
X246760000Y-119080030D01*
X246792031Y-118919000D01*
X246760000Y-118757969D01*
X246760000Y-105080031D01*
X246792031Y-104919000D01*
X246665136Y-104281055D01*
X246303769Y-103740231D01*
X245762945Y-103378864D01*
X245286031Y-103284000D01*
X245125000Y-103251969D01*
X244963969Y-103284000D01*
X231286031Y-103284000D01*
X231125000Y-103251969D01*
X230963969Y-103284000D01*
X230487055Y-103378864D01*
X229946231Y-103740231D01*
X229584864Y-104281055D01*
X229457969Y-104919000D01*
X142017031Y-104919000D01*
X141890136Y-104281055D01*
X141528769Y-103740231D01*
X140987945Y-103378864D01*
X140511031Y-103284000D01*
X140350000Y-103251969D01*
X140188969Y-103284000D01*
X126511031Y-103284000D01*
X126350000Y-103251969D01*
X126188969Y-103284000D01*
X125712055Y-103378864D01*
X125171231Y-103740231D01*
X124809864Y-104281055D01*
X124682969Y-104919000D01*
X58641200Y-104919000D01*
X58641200Y-102699031D01*
X58673231Y-102538000D01*
X291370969Y-102538000D01*
X291403001Y-102699036D01*
X291403000Y-108699030D01*
X291403001Y-108699033D01*
X291403000Y-112699030D01*
X291403001Y-112699033D01*
X291403000Y-116376969D01*
X291370969Y-116538000D01*
X291497864Y-117175945D01*
X291727734Y-117519970D01*
X291859231Y-117716769D01*
X292400055Y-118078136D01*
X293038000Y-118205031D01*
X293199031Y-118173000D01*
X306876969Y-118173000D01*
X307038000Y-118205031D01*
X307199031Y-118173000D01*
X307675945Y-118078136D01*
X308216769Y-117716769D01*
X308578136Y-117175945D01*
X308705031Y-116538000D01*
X308673000Y-116376969D01*
X308673000Y-102699031D01*
X308705031Y-102538000D01*
X310420969Y-102538000D01*
X310453001Y-102699036D01*
X310453000Y-108699030D01*
X310453001Y-108699033D01*
X310453000Y-112699030D01*
X310453001Y-112699033D01*
X310453000Y-116376969D01*
X310420969Y-116538000D01*
X310547864Y-117175945D01*
X310777734Y-117519970D01*
X310909231Y-117716769D01*
X311450055Y-118078136D01*
X312088000Y-118205031D01*
X312249031Y-118173000D01*
X325926969Y-118173000D01*
X326088000Y-118205031D01*
X326249031Y-118173000D01*
X326725945Y-118078136D01*
X327266769Y-117716769D01*
X327628136Y-117175945D01*
X327755031Y-116538000D01*
X327723000Y-116376969D01*
X327723000Y-102699031D01*
X327755031Y-102538000D01*
X329470969Y-102538000D01*
X329503001Y-102699036D01*
X329503000Y-108699030D01*
X329503001Y-108699033D01*
X329503000Y-112699030D01*
X329503001Y-112699033D01*
X329503000Y-116376969D01*
X329470969Y-116538000D01*
X329597864Y-117175945D01*
X329827734Y-117519970D01*
X329959231Y-117716769D01*
X330500055Y-118078136D01*
X331138000Y-118205031D01*
X331299031Y-118173000D01*
X344976969Y-118173000D01*
X345138000Y-118205031D01*
X345299031Y-118173000D01*
X345775945Y-118078136D01*
X346316769Y-117716769D01*
X346678136Y-117175945D01*
X346805031Y-116538000D01*
X346773000Y-116376969D01*
X346773000Y-102699031D01*
X346805031Y-102538000D01*
X346678136Y-101900055D01*
X346316769Y-101359231D01*
X345775945Y-100997864D01*
X345299031Y-100903000D01*
X345138000Y-100870969D01*
X344976969Y-100903000D01*
X331299031Y-100903000D01*
X331138000Y-100870969D01*
X330976969Y-100903000D01*
X330500055Y-100997864D01*
X329959231Y-101359231D01*
X329597864Y-101900055D01*
X329470969Y-102538000D01*
X327755031Y-102538000D01*
X327628136Y-101900055D01*
X327266769Y-101359231D01*
X326725945Y-100997864D01*
X326249031Y-100903000D01*
X326088000Y-100870969D01*
X325926969Y-100903000D01*
X312249031Y-100903000D01*
X312088000Y-100870969D01*
X311926969Y-100903000D01*
X311450055Y-100997864D01*
X310909231Y-101359231D01*
X310547864Y-101900055D01*
X310420969Y-102538000D01*
X308705031Y-102538000D01*
X308578136Y-101900055D01*
X308216769Y-101359231D01*
X307675945Y-100997864D01*
X307199031Y-100903000D01*
X307038000Y-100870969D01*
X306876969Y-100903000D01*
X293199031Y-100903000D01*
X293038000Y-100870969D01*
X292876969Y-100903000D01*
X292400055Y-100997864D01*
X291859231Y-101359231D01*
X291497864Y-101900055D01*
X291370969Y-102538000D01*
X58673231Y-102538000D01*
X58546336Y-101900055D01*
X58184969Y-101359231D01*
X57644145Y-100997864D01*
X57167231Y-100903000D01*
X57006200Y-100870969D01*
X56845169Y-100903000D01*
X43167231Y-100903000D01*
X43006200Y-100870969D01*
X42845169Y-100903000D01*
X42368255Y-100997864D01*
X41827431Y-101359231D01*
X41466064Y-101900055D01*
X41339169Y-102538000D01*
X37242031Y-102538000D01*
X37115136Y-101900055D01*
X36753769Y-101359231D01*
X36212945Y-100997864D01*
X35736031Y-100903000D01*
X35575000Y-100870969D01*
X35413969Y-100903000D01*
X21736031Y-100903000D01*
X21575000Y-100870969D01*
X21413969Y-100903000D01*
X20937055Y-100997864D01*
X20396231Y-101359231D01*
X20034864Y-101900055D01*
X19907969Y-102538000D01*
X19760000Y-102538000D01*
X19760000Y-83487500D01*
X22814169Y-83487500D01*
X22846201Y-83648536D01*
X22846200Y-87326468D01*
X22846200Y-87326470D01*
X22846201Y-91326469D01*
X22846200Y-97326469D01*
X22814169Y-97487500D01*
X22941064Y-98125445D01*
X23302431Y-98666269D01*
X23843255Y-99027636D01*
X24481200Y-99154531D01*
X24642231Y-99122500D01*
X56320169Y-99122500D01*
X56481200Y-99154531D01*
X56642231Y-99122500D01*
X57119145Y-99027636D01*
X57659969Y-98666269D01*
X58021336Y-98125445D01*
X58148231Y-97487500D01*
X58116200Y-97326469D01*
X58116200Y-83648531D01*
X58148231Y-83487500D01*
X62770469Y-83487500D01*
X62802501Y-83648536D01*
X62802500Y-89648530D01*
X62802501Y-89648533D01*
X62802500Y-93648530D01*
X62802501Y-93648533D01*
X62802500Y-97326469D01*
X62770469Y-97487500D01*
X62897364Y-98125445D01*
X63258731Y-98666269D01*
X63799555Y-99027636D01*
X64437500Y-99154531D01*
X64598531Y-99122500D01*
X78276469Y-99122500D01*
X78437500Y-99154531D01*
X78598531Y-99122500D01*
X79075445Y-99027636D01*
X79616269Y-98666269D01*
X79977636Y-98125445D01*
X80104531Y-97487500D01*
X80072500Y-97326469D01*
X80072500Y-83648531D01*
X80104531Y-83487500D01*
X81820469Y-83487500D01*
X81852501Y-83648536D01*
X81852500Y-89648530D01*
X81852501Y-89648533D01*
X81852500Y-93648530D01*
X81852501Y-93648533D01*
X81852500Y-97326469D01*
X81820469Y-97487500D01*
X81947364Y-98125445D01*
X82308731Y-98666269D01*
X82849555Y-99027636D01*
X83487500Y-99154531D01*
X83648531Y-99122500D01*
X97326469Y-99122500D01*
X97487500Y-99154531D01*
X97648531Y-99122500D01*
X98125445Y-99027636D01*
X98666269Y-98666269D01*
X99027636Y-98125445D01*
X99154531Y-97487500D01*
X99122500Y-97326469D01*
X99122500Y-83648531D01*
X99154531Y-83487500D01*
X100870969Y-83487500D01*
X100903001Y-83648536D01*
X100903000Y-89648530D01*
X100903001Y-89648533D01*
X100903000Y-93648530D01*
X100903001Y-93648533D01*
X100903000Y-97326469D01*
X100870969Y-97487500D01*
X100997864Y-98125445D01*
X101359231Y-98666269D01*
X101900055Y-99027636D01*
X102538000Y-99154531D01*
X102699031Y-99122500D01*
X116376969Y-99122500D01*
X116538000Y-99154531D01*
X116699031Y-99122500D01*
X117175945Y-99027636D01*
X117716769Y-98666269D01*
X118078136Y-98125445D01*
X118205031Y-97487500D01*
X118173000Y-97326469D01*
X118173000Y-83648531D01*
X118205031Y-83487500D01*
X119920969Y-83487500D01*
X119953001Y-83648536D01*
X119953000Y-89648530D01*
X119953001Y-89648533D01*
X119953000Y-93648530D01*
X119953001Y-93648533D01*
X119953000Y-97326469D01*
X119920969Y-97487500D01*
X120047864Y-98125445D01*
X120409231Y-98666269D01*
X120950055Y-99027636D01*
X121588000Y-99154531D01*
X121749031Y-99122500D01*
X135426969Y-99122500D01*
X135588000Y-99154531D01*
X135749031Y-99122500D01*
X136225945Y-99027636D01*
X136766769Y-98666269D01*
X137128136Y-98125445D01*
X137255031Y-97487500D01*
X137223000Y-97326469D01*
X137223000Y-83648531D01*
X137255031Y-83487500D01*
X138970969Y-83487500D01*
X139003001Y-83648536D01*
X139003000Y-89648530D01*
X139003001Y-89648533D01*
X139003000Y-93648530D01*
X139003001Y-93648533D01*
X139003000Y-97326469D01*
X138970969Y-97487500D01*
X139097864Y-98125445D01*
X139459231Y-98666269D01*
X140000055Y-99027636D01*
X140638000Y-99154531D01*
X140799031Y-99122500D01*
X154476969Y-99122500D01*
X154638000Y-99154531D01*
X154799031Y-99122500D01*
X155275945Y-99027636D01*
X155816769Y-98666269D01*
X156178136Y-98125445D01*
X156305031Y-97487500D01*
X156273000Y-97326469D01*
X156273000Y-83648531D01*
X156305031Y-83487500D01*
X158020969Y-83487500D01*
X158053001Y-83648536D01*
X158053000Y-89648530D01*
X158053001Y-89648533D01*
X158053000Y-93648530D01*
X158053001Y-93648533D01*
X158053000Y-97326469D01*
X158020969Y-97487500D01*
X158147864Y-98125445D01*
X158509231Y-98666269D01*
X159050055Y-99027636D01*
X159688000Y-99154531D01*
X159849031Y-99122500D01*
X173526969Y-99122500D01*
X173688000Y-99154531D01*
X173849031Y-99122500D01*
X174325945Y-99027636D01*
X174866769Y-98666269D01*
X175228136Y-98125445D01*
X175355031Y-97487500D01*
X175323000Y-97326469D01*
X175323000Y-83648531D01*
X175355031Y-83487500D01*
X177070969Y-83487500D01*
X177103001Y-83648536D01*
X177103000Y-89648530D01*
X177103001Y-89648533D01*
X177103000Y-93648530D01*
X177103001Y-93648533D01*
X177103000Y-97326469D01*
X177070969Y-97487500D01*
X177197864Y-98125445D01*
X177559231Y-98666269D01*
X178100055Y-99027636D01*
X178738000Y-99154531D01*
X178899031Y-99122500D01*
X192576969Y-99122500D01*
X192738000Y-99154531D01*
X192899031Y-99122500D01*
X193375945Y-99027636D01*
X193916769Y-98666269D01*
X194278136Y-98125445D01*
X194405031Y-97487500D01*
X194373000Y-97326469D01*
X194373000Y-83648531D01*
X194405031Y-83487500D01*
X196120969Y-83487500D01*
X196153001Y-83648536D01*
X196153000Y-89648530D01*
X196153001Y-89648533D01*
X196153000Y-93648530D01*
X196153001Y-93648533D01*
X196153000Y-97326469D01*
X196120969Y-97487500D01*
X196247864Y-98125445D01*
X196609231Y-98666269D01*
X197150055Y-99027636D01*
X197788000Y-99154531D01*
X197949031Y-99122500D01*
X211626969Y-99122500D01*
X211788000Y-99154531D01*
X211949031Y-99122500D01*
X212425945Y-99027636D01*
X212966769Y-98666269D01*
X213328136Y-98125445D01*
X213455031Y-97487500D01*
X213423000Y-97326469D01*
X213423000Y-83648531D01*
X213455031Y-83487500D01*
X215170969Y-83487500D01*
X215203001Y-83648536D01*
X215203000Y-89648530D01*
X215203001Y-89648533D01*
X215203000Y-93648530D01*
X215203001Y-93648533D01*
X215203000Y-97326469D01*
X215170969Y-97487500D01*
X215297864Y-98125445D01*
X215659231Y-98666269D01*
X216200055Y-99027636D01*
X216838000Y-99154531D01*
X216999031Y-99122500D01*
X230676969Y-99122500D01*
X230838000Y-99154531D01*
X230999031Y-99122500D01*
X231475945Y-99027636D01*
X232016769Y-98666269D01*
X232378136Y-98125445D01*
X232505031Y-97487500D01*
X232473000Y-97326469D01*
X232473000Y-83648531D01*
X232505031Y-83487500D01*
X234220969Y-83487500D01*
X234253001Y-83648536D01*
X234253000Y-89648530D01*
X234253001Y-89648533D01*
X234253000Y-93648530D01*
X234253001Y-93648533D01*
X234253000Y-97326469D01*
X234220969Y-97487500D01*
X234347864Y-98125445D01*
X234709231Y-98666269D01*
X235250055Y-99027636D01*
X235888000Y-99154531D01*
X236049031Y-99122500D01*
X249726969Y-99122500D01*
X249888000Y-99154531D01*
X250049031Y-99122500D01*
X250525945Y-99027636D01*
X251066769Y-98666269D01*
X251428136Y-98125445D01*
X251555031Y-97487500D01*
X251523000Y-97326469D01*
X251523000Y-83648531D01*
X251555031Y-83487500D01*
X253270969Y-83487500D01*
X253303001Y-83648536D01*
X253303000Y-89648530D01*
X253303001Y-89648533D01*
X253303000Y-93648530D01*
X253303001Y-93648533D01*
X253303000Y-97326469D01*
X253270969Y-97487500D01*
X253397864Y-98125445D01*
X253759231Y-98666269D01*
X254300055Y-99027636D01*
X254938000Y-99154531D01*
X255099031Y-99122500D01*
X268776969Y-99122500D01*
X268938000Y-99154531D01*
X269099031Y-99122500D01*
X269575945Y-99027636D01*
X270116769Y-98666269D01*
X270478136Y-98125445D01*
X270605031Y-97487500D01*
X270573000Y-97326469D01*
X270573000Y-83648531D01*
X270605031Y-83487500D01*
X272320969Y-83487500D01*
X272353001Y-83648536D01*
X272353000Y-89648530D01*
X272353001Y-89648533D01*
X272353000Y-93648530D01*
X272353001Y-93648533D01*
X272353000Y-97326469D01*
X272320969Y-97487500D01*
X272447864Y-98125445D01*
X272809231Y-98666269D01*
X273350055Y-99027636D01*
X273988000Y-99154531D01*
X274149031Y-99122500D01*
X287826969Y-99122500D01*
X287988000Y-99154531D01*
X288149031Y-99122500D01*
X288625945Y-99027636D01*
X289166769Y-98666269D01*
X289528136Y-98125445D01*
X289655031Y-97487500D01*
X289623000Y-97326469D01*
X289623000Y-83648531D01*
X289655031Y-83487500D01*
X291370969Y-83487500D01*
X291403001Y-83648536D01*
X291403000Y-89648530D01*
X291403001Y-89648533D01*
X291403000Y-93648530D01*
X291403001Y-93648533D01*
X291403000Y-97326469D01*
X291370969Y-97487500D01*
X291497864Y-98125445D01*
X291859231Y-98666269D01*
X292400055Y-99027636D01*
X293038000Y-99154531D01*
X293199031Y-99122500D01*
X306876969Y-99122500D01*
X307038000Y-99154531D01*
X307199031Y-99122500D01*
X307675945Y-99027636D01*
X308216769Y-98666269D01*
X308578136Y-98125445D01*
X308705031Y-97487500D01*
X308673000Y-97326469D01*
X308673000Y-83648531D01*
X308705031Y-83487500D01*
X310420969Y-83487500D01*
X310453001Y-83648536D01*
X310453000Y-89648530D01*
X310453001Y-89648533D01*
X310453000Y-93648530D01*
X310453001Y-93648533D01*
X310453000Y-97326469D01*
X310420969Y-97487500D01*
X310547864Y-98125445D01*
X310909231Y-98666269D01*
X311450055Y-99027636D01*
X312088000Y-99154531D01*
X312249031Y-99122500D01*
X325926969Y-99122500D01*
X326088000Y-99154531D01*
X326249031Y-99122500D01*
X326725945Y-99027636D01*
X327266769Y-98666269D01*
X327628136Y-98125445D01*
X327755031Y-97487500D01*
X327723000Y-97326469D01*
X327723000Y-83648531D01*
X327755031Y-83487500D01*
X327628136Y-82849555D01*
X327266769Y-82308731D01*
X326725945Y-81947364D01*
X326249031Y-81852500D01*
X326088000Y-81820469D01*
X325926969Y-81852500D01*
X312249031Y-81852500D01*
X312088000Y-81820469D01*
X311926969Y-81852500D01*
X311450055Y-81947364D01*
X310909231Y-82308731D01*
X310547864Y-82849555D01*
X310420969Y-83487500D01*
X308705031Y-83487500D01*
X308578136Y-82849555D01*
X308216769Y-82308731D01*
X307675945Y-81947364D01*
X307199031Y-81852500D01*
X307038000Y-81820469D01*
X306876969Y-81852500D01*
X293199031Y-81852500D01*
X293038000Y-81820469D01*
X292876969Y-81852500D01*
X292400055Y-81947364D01*
X291859231Y-82308731D01*
X291497864Y-82849555D01*
X291370969Y-83487500D01*
X289655031Y-83487500D01*
X289528136Y-82849555D01*
X289166769Y-82308731D01*
X288625945Y-81947364D01*
X288149031Y-81852500D01*
X287988000Y-81820469D01*
X287826969Y-81852500D01*
X274149031Y-81852500D01*
X273988000Y-81820469D01*
X273826969Y-81852500D01*
X273350055Y-81947364D01*
X272809231Y-82308731D01*
X272447864Y-82849555D01*
X272320969Y-83487500D01*
X270605031Y-83487500D01*
X270478136Y-82849555D01*
X270116769Y-82308731D01*
X269575945Y-81947364D01*
X269099031Y-81852500D01*
X268938000Y-81820469D01*
X268776969Y-81852500D01*
X255099031Y-81852500D01*
X254938000Y-81820469D01*
X254776969Y-81852500D01*
X254300055Y-81947364D01*
X253759231Y-82308731D01*
X253397864Y-82849555D01*
X253270969Y-83487500D01*
X251555031Y-83487500D01*
X251428136Y-82849555D01*
X251066769Y-82308731D01*
X250525945Y-81947364D01*
X250049031Y-81852500D01*
X249888000Y-81820469D01*
X249726969Y-81852500D01*
X236049031Y-81852500D01*
X235888000Y-81820469D01*
X235726969Y-81852500D01*
X235250055Y-81947364D01*
X234709231Y-82308731D01*
X234347864Y-82849555D01*
X234220969Y-83487500D01*
X232505031Y-83487500D01*
X232378136Y-82849555D01*
X232016769Y-82308731D01*
X231475945Y-81947364D01*
X230999031Y-81852500D01*
X230838000Y-81820469D01*
X230676969Y-81852500D01*
X216999031Y-81852500D01*
X216838000Y-81820469D01*
X216676969Y-81852500D01*
X216200055Y-81947364D01*
X215659231Y-82308731D01*
X215297864Y-82849555D01*
X215170969Y-83487500D01*
X213455031Y-83487500D01*
X213328136Y-82849555D01*
X212966769Y-82308731D01*
X212425945Y-81947364D01*
X211949031Y-81852500D01*
X211788000Y-81820469D01*
X211626969Y-81852500D01*
X197949031Y-81852500D01*
X197788000Y-81820469D01*
X197626969Y-81852500D01*
X197150055Y-81947364D01*
X196609231Y-82308731D01*
X196247864Y-82849555D01*
X196120969Y-83487500D01*
X194405031Y-83487500D01*
X194278136Y-82849555D01*
X193916769Y-82308731D01*
X193375945Y-81947364D01*
X192899031Y-81852500D01*
X192738000Y-81820469D01*
X192576969Y-81852500D01*
X178899031Y-81852500D01*
X178738000Y-81820469D01*
X178576969Y-81852500D01*
X178100055Y-81947364D01*
X177559231Y-82308731D01*
X177197864Y-82849555D01*
X177070969Y-83487500D01*
X175355031Y-83487500D01*
X175228136Y-82849555D01*
X174866769Y-82308731D01*
X174325945Y-81947364D01*
X173849031Y-81852500D01*
X173688000Y-81820469D01*
X173526969Y-81852500D01*
X159849031Y-81852500D01*
X159688000Y-81820469D01*
X159526969Y-81852500D01*
X159050055Y-81947364D01*
X158509231Y-82308731D01*
X158147864Y-82849555D01*
X158020969Y-83487500D01*
X156305031Y-83487500D01*
X156178136Y-82849555D01*
X155816769Y-82308731D01*
X155275945Y-81947364D01*
X154799031Y-81852500D01*
X154638000Y-81820469D01*
X154476969Y-81852500D01*
X140799031Y-81852500D01*
X140638000Y-81820469D01*
X140476969Y-81852500D01*
X140000055Y-81947364D01*
X139459231Y-82308731D01*
X139097864Y-82849555D01*
X138970969Y-83487500D01*
X137255031Y-83487500D01*
X137128136Y-82849555D01*
X136766769Y-82308731D01*
X136225945Y-81947364D01*
X135749031Y-81852500D01*
X135588000Y-81820469D01*
X135426969Y-81852500D01*
X121749031Y-81852500D01*
X121588000Y-81820469D01*
X121426969Y-81852500D01*
X120950055Y-81947364D01*
X120409231Y-82308731D01*
X120047864Y-82849555D01*
X119920969Y-83487500D01*
X118205031Y-83487500D01*
X118078136Y-82849555D01*
X117716769Y-82308731D01*
X117175945Y-81947364D01*
X116699031Y-81852500D01*
X116538000Y-81820469D01*
X116376969Y-81852500D01*
X102699031Y-81852500D01*
X102538000Y-81820469D01*
X102376969Y-81852500D01*
X101900055Y-81947364D01*
X101359231Y-82308731D01*
X100997864Y-82849555D01*
X100870969Y-83487500D01*
X99154531Y-83487500D01*
X99027636Y-82849555D01*
X98666269Y-82308731D01*
X98125445Y-81947364D01*
X97648531Y-81852500D01*
X97487500Y-81820469D01*
X97326469Y-81852500D01*
X83648531Y-81852500D01*
X83487500Y-81820469D01*
X83326469Y-81852500D01*
X82849555Y-81947364D01*
X82308731Y-82308731D01*
X81947364Y-82849555D01*
X81820469Y-83487500D01*
X80104531Y-83487500D01*
X79977636Y-82849555D01*
X79616269Y-82308731D01*
X79075445Y-81947364D01*
X78598531Y-81852500D01*
X78437500Y-81820469D01*
X78276469Y-81852500D01*
X64598531Y-81852500D01*
X64437500Y-81820469D01*
X64276469Y-81852500D01*
X63799555Y-81947364D01*
X63258731Y-82308731D01*
X62897364Y-82849555D01*
X62770469Y-83487500D01*
X58148231Y-83487500D01*
X58021336Y-82849555D01*
X57659969Y-82308731D01*
X57119145Y-81947364D01*
X56642231Y-81852500D01*
X56481200Y-81820469D01*
X56320169Y-81852500D01*
X55606486Y-81852500D01*
X55309969Y-81408731D01*
X54769145Y-81047364D01*
X54292231Y-80952500D01*
X54131200Y-80920469D01*
X53970169Y-80952500D01*
X50892231Y-80952500D01*
X50731200Y-80920469D01*
X50570169Y-80952500D01*
X50093255Y-81047364D01*
X49552431Y-81408731D01*
X49255914Y-81852500D01*
X31706486Y-81852500D01*
X31409969Y-81408731D01*
X30869145Y-81047364D01*
X30392231Y-80952500D01*
X30231200Y-80920469D01*
X30070169Y-80952500D01*
X26992231Y-80952500D01*
X26831200Y-80920469D01*
X26670169Y-80952500D01*
X26193255Y-81047364D01*
X25652431Y-81408731D01*
X25355914Y-81852500D01*
X24642231Y-81852500D01*
X24481200Y-81820469D01*
X24320169Y-81852500D01*
X23843255Y-81947364D01*
X23302431Y-82308731D01*
X22941064Y-82849555D01*
X22814169Y-83487500D01*
X19760000Y-83487500D01*
X19760000Y-64437500D01*
X41339169Y-64437500D01*
X41371201Y-64598536D01*
X41371200Y-70598530D01*
X41371201Y-70598533D01*
X41371200Y-74598530D01*
X41371201Y-74598533D01*
X41371200Y-78276469D01*
X41339169Y-78437500D01*
X41466064Y-79075445D01*
X41827431Y-79616269D01*
X42368255Y-79977636D01*
X42824663Y-80068421D01*
X43006200Y-80104531D01*
X43167231Y-80072500D01*
X56845169Y-80072500D01*
X57006200Y-80104531D01*
X57167231Y-80072500D01*
X57644145Y-79977636D01*
X58184969Y-79616269D01*
X58546336Y-79075445D01*
X58673231Y-78437500D01*
X58641200Y-78276469D01*
X58641200Y-64598531D01*
X58673231Y-64437500D01*
X67532969Y-64437500D01*
X67565001Y-64598536D01*
X67565000Y-70598530D01*
X67565001Y-70598533D01*
X67565000Y-74598530D01*
X67565001Y-74598533D01*
X67565000Y-78276469D01*
X67532969Y-78437500D01*
X67659864Y-79075445D01*
X68021231Y-79616269D01*
X68562055Y-79977636D01*
X69018463Y-80068421D01*
X69200000Y-80104531D01*
X69361031Y-80072500D01*
X83038969Y-80072500D01*
X83200000Y-80104531D01*
X83361031Y-80072500D01*
X83837945Y-79977636D01*
X84378769Y-79616269D01*
X84740136Y-79075445D01*
X84867031Y-78437500D01*
X84835000Y-78276469D01*
X84835000Y-64598531D01*
X84867031Y-64437500D01*
X86582969Y-64437500D01*
X86615001Y-64598536D01*
X86615000Y-70598530D01*
X86615001Y-70598533D01*
X86615000Y-74598530D01*
X86615001Y-74598533D01*
X86615000Y-78276469D01*
X86582969Y-78437500D01*
X86709864Y-79075445D01*
X87071231Y-79616269D01*
X87612055Y-79977636D01*
X88068463Y-80068421D01*
X88250000Y-80104531D01*
X88411031Y-80072500D01*
X102088969Y-80072500D01*
X102250000Y-80104531D01*
X102411031Y-80072500D01*
X102887945Y-79977636D01*
X103428769Y-79616269D01*
X103790136Y-79075445D01*
X103917031Y-78437500D01*
X103885000Y-78276469D01*
X103885000Y-64598531D01*
X103917031Y-64437500D01*
X105632969Y-64437500D01*
X105665001Y-64598536D01*
X105665000Y-70598530D01*
X105665001Y-70598533D01*
X105665000Y-74598530D01*
X105665001Y-74598533D01*
X105665000Y-78276469D01*
X105632969Y-78437500D01*
X105759864Y-79075445D01*
X106121231Y-79616269D01*
X106662055Y-79977636D01*
X107118463Y-80068421D01*
X107300000Y-80104531D01*
X107461031Y-80072500D01*
X121138969Y-80072500D01*
X121300000Y-80104531D01*
X121461031Y-80072500D01*
X121937945Y-79977636D01*
X122478769Y-79616269D01*
X122840136Y-79075445D01*
X122967031Y-78437500D01*
X122935000Y-78276469D01*
X122935000Y-64598531D01*
X122967031Y-64437500D01*
X124682969Y-64437500D01*
X124715001Y-64598536D01*
X124715000Y-70598530D01*
X124715001Y-70598533D01*
X124715000Y-74598530D01*
X124715001Y-74598533D01*
X124715000Y-78276469D01*
X124682969Y-78437500D01*
X124809864Y-79075445D01*
X125171231Y-79616269D01*
X125712055Y-79977636D01*
X126168463Y-80068421D01*
X126350000Y-80104531D01*
X126511031Y-80072500D01*
X140188969Y-80072500D01*
X140350000Y-80104531D01*
X140511031Y-80072500D01*
X140987945Y-79977636D01*
X141528769Y-79616269D01*
X141890136Y-79075445D01*
X142017031Y-78437500D01*
X141985000Y-78276469D01*
X141985000Y-64598531D01*
X142017031Y-64437500D01*
X143732969Y-64437500D01*
X143765001Y-64598536D01*
X143765000Y-70598530D01*
X143765001Y-70598533D01*
X143765000Y-74598530D01*
X143765001Y-74598533D01*
X143765000Y-78276469D01*
X143732969Y-78437500D01*
X143859864Y-79075445D01*
X144221231Y-79616269D01*
X144762055Y-79977636D01*
X145218463Y-80068421D01*
X145400000Y-80104531D01*
X145561031Y-80072500D01*
X159238969Y-80072500D01*
X159400000Y-80104531D01*
X159561031Y-80072500D01*
X160037945Y-79977636D01*
X160578769Y-79616269D01*
X160940136Y-79075445D01*
X161067031Y-78437500D01*
X161035000Y-78276469D01*
X161035000Y-64598531D01*
X161067031Y-64437500D01*
X162782969Y-64437500D01*
X162815001Y-64598536D01*
X162815000Y-70598530D01*
X162815001Y-70598533D01*
X162815000Y-74598530D01*
X162815001Y-74598533D01*
X162815000Y-78276469D01*
X162782969Y-78437500D01*
X162909864Y-79075445D01*
X163271231Y-79616269D01*
X163812055Y-79977636D01*
X164268463Y-80068421D01*
X164450000Y-80104531D01*
X164611031Y-80072500D01*
X178288969Y-80072500D01*
X178450000Y-80104531D01*
X178611031Y-80072500D01*
X179087945Y-79977636D01*
X179628769Y-79616269D01*
X179990136Y-79075445D01*
X180117031Y-78437500D01*
X180085000Y-78276469D01*
X180085000Y-67932382D01*
X183770223Y-67932382D01*
X184015368Y-68323888D01*
X185059360Y-68750609D01*
X186187181Y-68745330D01*
X187204632Y-68323888D01*
X187449777Y-67932382D01*
X185610000Y-66092605D01*
X183770223Y-67932382D01*
X180085000Y-67932382D01*
X180085000Y-65362360D01*
X182772391Y-65362360D01*
X182777670Y-66490181D01*
X183199112Y-67507632D01*
X183590618Y-67752777D01*
X185430395Y-65913000D01*
X185789605Y-65913000D01*
X187629382Y-67752777D01*
X188020888Y-67507632D01*
X188447609Y-66463640D01*
X188442330Y-65335819D01*
X188070235Y-64437500D01*
X191357969Y-64437500D01*
X191390001Y-64598536D01*
X191390000Y-70598530D01*
X191390001Y-70598533D01*
X191390000Y-74598530D01*
X191390001Y-74598533D01*
X191390000Y-78276469D01*
X191357969Y-78437500D01*
X191484864Y-79075445D01*
X191846231Y-79616269D01*
X192387055Y-79977636D01*
X192843463Y-80068421D01*
X193025000Y-80104531D01*
X193186031Y-80072500D01*
X206863969Y-80072500D01*
X207025000Y-80104531D01*
X207186031Y-80072500D01*
X207662945Y-79977636D01*
X208203769Y-79616269D01*
X208565136Y-79075445D01*
X208692031Y-78437500D01*
X208660000Y-78276469D01*
X208660000Y-64598531D01*
X208692031Y-64437500D01*
X210407969Y-64437500D01*
X210440001Y-64598536D01*
X210440000Y-70598530D01*
X210440001Y-70598533D01*
X210440000Y-74598530D01*
X210440001Y-74598533D01*
X210440000Y-78276469D01*
X210407969Y-78437500D01*
X210534864Y-79075445D01*
X210896231Y-79616269D01*
X211437055Y-79977636D01*
X211893463Y-80068421D01*
X212075000Y-80104531D01*
X212236031Y-80072500D01*
X225913969Y-80072500D01*
X226075000Y-80104531D01*
X226236031Y-80072500D01*
X226712945Y-79977636D01*
X227253769Y-79616269D01*
X227615136Y-79075445D01*
X227742031Y-78437500D01*
X227710000Y-78276469D01*
X227710000Y-64598531D01*
X227742031Y-64437500D01*
X229457969Y-64437500D01*
X229490001Y-64598536D01*
X229490000Y-70598530D01*
X229490001Y-70598533D01*
X229490000Y-74598530D01*
X229490001Y-74598533D01*
X229490000Y-78276469D01*
X229457969Y-78437500D01*
X229584864Y-79075445D01*
X229946231Y-79616269D01*
X230487055Y-79977636D01*
X230943463Y-80068421D01*
X231125000Y-80104531D01*
X231286031Y-80072500D01*
X244963969Y-80072500D01*
X245125000Y-80104531D01*
X245286031Y-80072500D01*
X245762945Y-79977636D01*
X246303769Y-79616269D01*
X246665136Y-79075445D01*
X246792031Y-78437500D01*
X246760000Y-78276469D01*
X246760000Y-64598531D01*
X246792031Y-64437500D01*
X248507969Y-64437500D01*
X248540001Y-64598536D01*
X248540000Y-70598530D01*
X248540001Y-70598533D01*
X248540000Y-74598530D01*
X248540001Y-74598533D01*
X248540000Y-78276469D01*
X248507969Y-78437500D01*
X248634864Y-79075445D01*
X248996231Y-79616269D01*
X249537055Y-79977636D01*
X249993463Y-80068421D01*
X250175000Y-80104531D01*
X250336031Y-80072500D01*
X264013969Y-80072500D01*
X264175000Y-80104531D01*
X264336031Y-80072500D01*
X264812945Y-79977636D01*
X265353769Y-79616269D01*
X265715136Y-79075445D01*
X265842031Y-78437500D01*
X265810000Y-78276469D01*
X265810000Y-64598531D01*
X265842031Y-64437500D01*
X267557969Y-64437500D01*
X267590001Y-64598536D01*
X267590000Y-70598530D01*
X267590001Y-70598533D01*
X267590000Y-74598530D01*
X267590001Y-74598533D01*
X267590000Y-78276469D01*
X267557969Y-78437500D01*
X267684864Y-79075445D01*
X268046231Y-79616269D01*
X268587055Y-79977636D01*
X269043463Y-80068421D01*
X269225000Y-80104531D01*
X269386031Y-80072500D01*
X283063969Y-80072500D01*
X283225000Y-80104531D01*
X283386031Y-80072500D01*
X283862945Y-79977636D01*
X284403769Y-79616269D01*
X284765136Y-79075445D01*
X284892031Y-78437500D01*
X284860000Y-78276469D01*
X284860000Y-64598531D01*
X284892031Y-64437500D01*
X286607969Y-64437500D01*
X286640001Y-64598536D01*
X286640000Y-70598530D01*
X286640001Y-70598533D01*
X286640000Y-74598530D01*
X286640001Y-74598533D01*
X286640000Y-78276469D01*
X286607969Y-78437500D01*
X286734864Y-79075445D01*
X287096231Y-79616269D01*
X287637055Y-79977636D01*
X288093463Y-80068421D01*
X288275000Y-80104531D01*
X288436031Y-80072500D01*
X302113969Y-80072500D01*
X302275000Y-80104531D01*
X302436031Y-80072500D01*
X302912945Y-79977636D01*
X303453769Y-79616269D01*
X303815136Y-79075445D01*
X303942031Y-78437500D01*
X303910000Y-78276469D01*
X303910000Y-64598531D01*
X303942031Y-64437500D01*
X308563969Y-64437500D01*
X308596001Y-64598536D01*
X308596000Y-68276468D01*
X308596000Y-68276470D01*
X308596001Y-72276469D01*
X308596000Y-78276469D01*
X308563969Y-78437500D01*
X308690864Y-79075445D01*
X309052231Y-79616269D01*
X309593055Y-79977636D01*
X310049463Y-80068421D01*
X310231000Y-80104531D01*
X310392031Y-80072500D01*
X342069969Y-80072500D01*
X342231000Y-80104531D01*
X342392031Y-80072500D01*
X342868945Y-79977636D01*
X343409769Y-79616269D01*
X343771136Y-79075445D01*
X343898031Y-78437500D01*
X343866000Y-78276469D01*
X343866000Y-64598531D01*
X343898031Y-64437500D01*
X343841625Y-64153925D01*
X343771136Y-63799555D01*
X343409769Y-63258731D01*
X342868945Y-62897364D01*
X342231000Y-62770469D01*
X342069969Y-62802500D01*
X341356286Y-62802500D01*
X341059769Y-62358731D01*
X340518945Y-61997364D01*
X340042031Y-61902500D01*
X339881000Y-61870469D01*
X339719969Y-61902500D01*
X336642031Y-61902500D01*
X336481000Y-61870469D01*
X336319969Y-61902500D01*
X335843055Y-61997364D01*
X335302231Y-62358731D01*
X335005714Y-62802500D01*
X317456286Y-62802500D01*
X317159769Y-62358731D01*
X316618945Y-61997364D01*
X316142031Y-61902500D01*
X315981000Y-61870469D01*
X315819969Y-61902500D01*
X312742031Y-61902500D01*
X312581000Y-61870469D01*
X312419969Y-61902500D01*
X311943055Y-61997364D01*
X311402231Y-62358731D01*
X311105714Y-62802500D01*
X310392031Y-62802500D01*
X310231000Y-62770469D01*
X310069969Y-62802500D01*
X309593055Y-62897364D01*
X309052231Y-63258731D01*
X308690864Y-63799555D01*
X308563969Y-64437500D01*
X303942031Y-64437500D01*
X303885625Y-64153925D01*
X303815136Y-63799555D01*
X303453769Y-63258731D01*
X302912945Y-62897364D01*
X302275000Y-62770469D01*
X302113969Y-62802500D01*
X288436031Y-62802500D01*
X288275000Y-62770469D01*
X288113969Y-62802500D01*
X287637055Y-62897364D01*
X287096231Y-63258731D01*
X286734864Y-63799555D01*
X286607969Y-64437500D01*
X284892031Y-64437500D01*
X284835625Y-64153925D01*
X284765136Y-63799555D01*
X284403769Y-63258731D01*
X283862945Y-62897364D01*
X283225000Y-62770469D01*
X283063969Y-62802500D01*
X269386031Y-62802500D01*
X269225000Y-62770469D01*
X269063969Y-62802500D01*
X268587055Y-62897364D01*
X268046231Y-63258731D01*
X267684864Y-63799555D01*
X267557969Y-64437500D01*
X265842031Y-64437500D01*
X265785625Y-64153925D01*
X265715136Y-63799555D01*
X265353769Y-63258731D01*
X264812945Y-62897364D01*
X264175000Y-62770469D01*
X264013969Y-62802500D01*
X250336031Y-62802500D01*
X250175000Y-62770469D01*
X250013969Y-62802500D01*
X249537055Y-62897364D01*
X248996231Y-63258731D01*
X248634864Y-63799555D01*
X248507969Y-64437500D01*
X246792031Y-64437500D01*
X246735625Y-64153925D01*
X246665136Y-63799555D01*
X246303769Y-63258731D01*
X245762945Y-62897364D01*
X245125000Y-62770469D01*
X244963969Y-62802500D01*
X231286031Y-62802500D01*
X231125000Y-62770469D01*
X230963969Y-62802500D01*
X230487055Y-62897364D01*
X229946231Y-63258731D01*
X229584864Y-63799555D01*
X229457969Y-64437500D01*
X227742031Y-64437500D01*
X227685625Y-64153925D01*
X227615136Y-63799555D01*
X227253769Y-63258731D01*
X226712945Y-62897364D01*
X226075000Y-62770469D01*
X225913969Y-62802500D01*
X212236031Y-62802500D01*
X212075000Y-62770469D01*
X211913969Y-62802500D01*
X211437055Y-62897364D01*
X210896231Y-63258731D01*
X210534864Y-63799555D01*
X210407969Y-64437500D01*
X208692031Y-64437500D01*
X208635625Y-64153925D01*
X208565136Y-63799555D01*
X208203769Y-63258731D01*
X207662945Y-62897364D01*
X207025000Y-62770469D01*
X206863969Y-62802500D01*
X193186031Y-62802500D01*
X193025000Y-62770469D01*
X192863969Y-62802500D01*
X192387055Y-62897364D01*
X191846231Y-63258731D01*
X191484864Y-63799555D01*
X191357969Y-64437500D01*
X188070235Y-64437500D01*
X188020888Y-64318368D01*
X187629382Y-64073223D01*
X185789605Y-65913000D01*
X185430395Y-65913000D01*
X183590618Y-64073223D01*
X183199112Y-64318368D01*
X182772391Y-65362360D01*
X180085000Y-65362360D01*
X180085000Y-64598531D01*
X180117031Y-64437500D01*
X180060625Y-64153925D01*
X180008847Y-63893618D01*
X183770223Y-63893618D01*
X185610000Y-65733395D01*
X187449777Y-63893618D01*
X187204632Y-63502112D01*
X186160640Y-63075391D01*
X185032819Y-63080670D01*
X184015368Y-63502112D01*
X183770223Y-63893618D01*
X180008847Y-63893618D01*
X179990136Y-63799555D01*
X179628769Y-63258731D01*
X179087945Y-62897364D01*
X178450000Y-62770469D01*
X178288969Y-62802500D01*
X164611031Y-62802500D01*
X164450000Y-62770469D01*
X164288969Y-62802500D01*
X163812055Y-62897364D01*
X163271231Y-63258731D01*
X162909864Y-63799555D01*
X162782969Y-64437500D01*
X161067031Y-64437500D01*
X161010625Y-64153925D01*
X160940136Y-63799555D01*
X160578769Y-63258731D01*
X160037945Y-62897364D01*
X159400000Y-62770469D01*
X159238969Y-62802500D01*
X145561031Y-62802500D01*
X145400000Y-62770469D01*
X145238969Y-62802500D01*
X144762055Y-62897364D01*
X144221231Y-63258731D01*
X143859864Y-63799555D01*
X143732969Y-64437500D01*
X142017031Y-64437500D01*
X141960625Y-64153925D01*
X141890136Y-63799555D01*
X141528769Y-63258731D01*
X140987945Y-62897364D01*
X140350000Y-62770469D01*
X140188969Y-62802500D01*
X126511031Y-62802500D01*
X126350000Y-62770469D01*
X126188969Y-62802500D01*
X125712055Y-62897364D01*
X125171231Y-63258731D01*
X124809864Y-63799555D01*
X124682969Y-64437500D01*
X122967031Y-64437500D01*
X122910625Y-64153925D01*
X122840136Y-63799555D01*
X122478769Y-63258731D01*
X121937945Y-62897364D01*
X121300000Y-62770469D01*
X121138969Y-62802500D01*
X107461031Y-62802500D01*
X107300000Y-62770469D01*
X107138969Y-62802500D01*
X106662055Y-62897364D01*
X106121231Y-63258731D01*
X105759864Y-63799555D01*
X105632969Y-64437500D01*
X103917031Y-64437500D01*
X103860625Y-64153925D01*
X103790136Y-63799555D01*
X103428769Y-63258731D01*
X102887945Y-62897364D01*
X102250000Y-62770469D01*
X102088969Y-62802500D01*
X88411031Y-62802500D01*
X88250000Y-62770469D01*
X88088969Y-62802500D01*
X87612055Y-62897364D01*
X87071231Y-63258731D01*
X86709864Y-63799555D01*
X86582969Y-64437500D01*
X84867031Y-64437500D01*
X84810625Y-64153925D01*
X84740136Y-63799555D01*
X84378769Y-63258731D01*
X83837945Y-62897364D01*
X83200000Y-62770469D01*
X83038969Y-62802500D01*
X69361031Y-62802500D01*
X69200000Y-62770469D01*
X69038969Y-62802500D01*
X68562055Y-62897364D01*
X68021231Y-63258731D01*
X67659864Y-63799555D01*
X67532969Y-64437500D01*
X58673231Y-64437500D01*
X58616825Y-64153925D01*
X58546336Y-63799555D01*
X58184969Y-63258731D01*
X57644145Y-62897364D01*
X57006200Y-62770469D01*
X56845169Y-62802500D01*
X43167231Y-62802500D01*
X43006200Y-62770469D01*
X42845169Y-62802500D01*
X42368255Y-62897364D01*
X41827431Y-63258731D01*
X41466064Y-63799555D01*
X41339169Y-64437500D01*
X19760000Y-64437500D01*
X19760000Y-45387500D01*
X24670469Y-45387500D01*
X24702501Y-45548536D01*
X24702500Y-51548530D01*
X24702501Y-51548533D01*
X24702500Y-55548530D01*
X24702501Y-55548533D01*
X24702500Y-59226469D01*
X24670469Y-59387500D01*
X24797364Y-60025445D01*
X25158731Y-60566269D01*
X25699555Y-60927636D01*
X26337500Y-61054531D01*
X26498531Y-61022500D01*
X40176469Y-61022500D01*
X40337500Y-61054531D01*
X40498531Y-61022500D01*
X40975445Y-60927636D01*
X41516269Y-60566269D01*
X41877636Y-60025445D01*
X42004531Y-59387500D01*
X41972500Y-59226469D01*
X41972500Y-45548531D01*
X42004531Y-45387500D01*
X48482969Y-45387500D01*
X48515001Y-45548536D01*
X48515000Y-51548530D01*
X48515001Y-51548533D01*
X48515000Y-55548530D01*
X48515001Y-55548533D01*
X48515000Y-59226469D01*
X48482969Y-59387500D01*
X48609864Y-60025445D01*
X48971231Y-60566269D01*
X49512055Y-60927636D01*
X50150000Y-61054531D01*
X50311031Y-61022500D01*
X63988969Y-61022500D01*
X64150000Y-61054531D01*
X64311031Y-61022500D01*
X64787945Y-60927636D01*
X65328769Y-60566269D01*
X65690136Y-60025445D01*
X65817031Y-59387500D01*
X65785000Y-59226469D01*
X65785000Y-45548531D01*
X65817031Y-45387500D01*
X72295469Y-45387500D01*
X72327501Y-45548536D01*
X72327500Y-51548530D01*
X72327501Y-51548533D01*
X72327500Y-55548530D01*
X72327501Y-55548533D01*
X72327500Y-59226469D01*
X72295469Y-59387500D01*
X72422364Y-60025445D01*
X72783731Y-60566269D01*
X73324555Y-60927636D01*
X73962500Y-61054531D01*
X74123531Y-61022500D01*
X87801469Y-61022500D01*
X87962500Y-61054531D01*
X88123531Y-61022500D01*
X88600445Y-60927636D01*
X89141269Y-60566269D01*
X89502636Y-60025445D01*
X89629531Y-59387500D01*
X89597500Y-59226469D01*
X89597500Y-45548531D01*
X89629531Y-45387500D01*
X91344969Y-45387500D01*
X91377001Y-45548536D01*
X91377000Y-51548530D01*
X91377001Y-51548533D01*
X91377000Y-55548530D01*
X91377001Y-55548533D01*
X91377000Y-59226469D01*
X91344969Y-59387500D01*
X91471864Y-60025445D01*
X91833231Y-60566269D01*
X92374055Y-60927636D01*
X93012000Y-61054531D01*
X93173031Y-61022500D01*
X106850969Y-61022500D01*
X107012000Y-61054531D01*
X107173031Y-61022500D01*
X107649945Y-60927636D01*
X108190769Y-60566269D01*
X108552136Y-60025445D01*
X108679031Y-59387500D01*
X108647000Y-59226469D01*
X108647000Y-45548531D01*
X108679031Y-45387500D01*
X110394969Y-45387500D01*
X110427001Y-45548536D01*
X110427000Y-51548530D01*
X110427001Y-51548533D01*
X110427000Y-55548530D01*
X110427001Y-55548533D01*
X110427000Y-59226469D01*
X110394969Y-59387500D01*
X110521864Y-60025445D01*
X110883231Y-60566269D01*
X111424055Y-60927636D01*
X112062000Y-61054531D01*
X112223031Y-61022500D01*
X125900969Y-61022500D01*
X126062000Y-61054531D01*
X126223031Y-61022500D01*
X126699945Y-60927636D01*
X127240769Y-60566269D01*
X127602136Y-60025445D01*
X127729031Y-59387500D01*
X127697000Y-59226469D01*
X127697000Y-45548531D01*
X127729031Y-45387500D01*
X129444969Y-45387500D01*
X129477001Y-45548536D01*
X129477000Y-51548530D01*
X129477001Y-51548533D01*
X129477000Y-55548530D01*
X129477001Y-55548533D01*
X129477000Y-59226469D01*
X129444969Y-59387500D01*
X129571864Y-60025445D01*
X129933231Y-60566269D01*
X130474055Y-60927636D01*
X131112000Y-61054531D01*
X131273031Y-61022500D01*
X144950969Y-61022500D01*
X145112000Y-61054531D01*
X145273031Y-61022500D01*
X145749945Y-60927636D01*
X146290769Y-60566269D01*
X146652136Y-60025445D01*
X146779031Y-59387500D01*
X146747000Y-59226469D01*
X146747000Y-45548531D01*
X146779031Y-45387500D01*
X148494969Y-45387500D01*
X148527001Y-45548536D01*
X148527000Y-51548530D01*
X148527001Y-51548533D01*
X148527000Y-55548530D01*
X148527001Y-55548533D01*
X148527000Y-59226469D01*
X148494969Y-59387500D01*
X148621864Y-60025445D01*
X148983231Y-60566269D01*
X149524055Y-60927636D01*
X150162000Y-61054531D01*
X150323031Y-61022500D01*
X164000969Y-61022500D01*
X164162000Y-61054531D01*
X164323031Y-61022500D01*
X164799945Y-60927636D01*
X165340769Y-60566269D01*
X165702136Y-60025445D01*
X165829031Y-59387500D01*
X165797000Y-59226469D01*
X165797000Y-45548531D01*
X165829031Y-45387500D01*
X167544969Y-45387500D01*
X167577001Y-45548536D01*
X167577000Y-51548530D01*
X167577001Y-51548533D01*
X167577000Y-55548530D01*
X167577001Y-55548533D01*
X167577000Y-59226469D01*
X167544969Y-59387500D01*
X167671864Y-60025445D01*
X168033231Y-60566269D01*
X168574055Y-60927636D01*
X169212000Y-61054531D01*
X169373031Y-61022500D01*
X183050969Y-61022500D01*
X183212000Y-61054531D01*
X183373031Y-61022500D01*
X183849945Y-60927636D01*
X184390769Y-60566269D01*
X184752136Y-60025445D01*
X184879031Y-59387500D01*
X184847000Y-59226469D01*
X184847000Y-45548531D01*
X184879031Y-45387500D01*
X186594969Y-45387500D01*
X186627001Y-45548536D01*
X186627000Y-51548530D01*
X186627001Y-51548533D01*
X186627000Y-55548530D01*
X186627001Y-55548533D01*
X186627000Y-59226469D01*
X186594969Y-59387500D01*
X186721864Y-60025445D01*
X187083231Y-60566269D01*
X187624055Y-60927636D01*
X188262000Y-61054531D01*
X188423031Y-61022500D01*
X202100969Y-61022500D01*
X202262000Y-61054531D01*
X202423031Y-61022500D01*
X202899945Y-60927636D01*
X203440769Y-60566269D01*
X203802136Y-60025445D01*
X203929031Y-59387500D01*
X203897000Y-59226469D01*
X203897000Y-45548531D01*
X203929031Y-45387500D01*
X205644969Y-45387500D01*
X205677001Y-45548536D01*
X205677000Y-51548530D01*
X205677001Y-51548533D01*
X205677000Y-55548530D01*
X205677001Y-55548533D01*
X205677000Y-59226469D01*
X205644969Y-59387500D01*
X205771864Y-60025445D01*
X206133231Y-60566269D01*
X206674055Y-60927636D01*
X207312000Y-61054531D01*
X207473031Y-61022500D01*
X221150969Y-61022500D01*
X221312000Y-61054531D01*
X221473031Y-61022500D01*
X221949945Y-60927636D01*
X222490769Y-60566269D01*
X222852136Y-60025445D01*
X222979031Y-59387500D01*
X222947000Y-59226469D01*
X222947000Y-45548531D01*
X222979031Y-45387500D01*
X224694969Y-45387500D01*
X224727001Y-45548536D01*
X224727000Y-51548530D01*
X224727001Y-51548533D01*
X224727000Y-55548530D01*
X224727001Y-55548533D01*
X224727000Y-59226469D01*
X224694969Y-59387500D01*
X224821864Y-60025445D01*
X225183231Y-60566269D01*
X225724055Y-60927636D01*
X226362000Y-61054531D01*
X226523031Y-61022500D01*
X240200969Y-61022500D01*
X240362000Y-61054531D01*
X240523031Y-61022500D01*
X240999945Y-60927636D01*
X241540769Y-60566269D01*
X241902136Y-60025445D01*
X242029031Y-59387500D01*
X241997000Y-59226469D01*
X241997000Y-45548531D01*
X242029031Y-45387500D01*
X243744969Y-45387500D01*
X243777001Y-45548536D01*
X243777000Y-51548530D01*
X243777001Y-51548533D01*
X243777000Y-55548530D01*
X243777001Y-55548533D01*
X243777000Y-59226469D01*
X243744969Y-59387500D01*
X243871864Y-60025445D01*
X244233231Y-60566269D01*
X244774055Y-60927636D01*
X245412000Y-61054531D01*
X245573031Y-61022500D01*
X259250969Y-61022500D01*
X259412000Y-61054531D01*
X259573031Y-61022500D01*
X260049945Y-60927636D01*
X260590769Y-60566269D01*
X260952136Y-60025445D01*
X261079031Y-59387500D01*
X261047000Y-59226469D01*
X261047000Y-45548531D01*
X261079031Y-45387500D01*
X262794969Y-45387500D01*
X262827001Y-45548536D01*
X262827000Y-51548530D01*
X262827001Y-51548533D01*
X262827000Y-55548530D01*
X262827001Y-55548533D01*
X262827000Y-59226469D01*
X262794969Y-59387500D01*
X262921864Y-60025445D01*
X263283231Y-60566269D01*
X263824055Y-60927636D01*
X264462000Y-61054531D01*
X264623031Y-61022500D01*
X278300969Y-61022500D01*
X278462000Y-61054531D01*
X278623031Y-61022500D01*
X279099945Y-60927636D01*
X279640769Y-60566269D01*
X280002136Y-60025445D01*
X280129031Y-59387500D01*
X280097000Y-59226469D01*
X280097000Y-45548531D01*
X280129031Y-45387500D01*
X281844969Y-45387500D01*
X281877001Y-45548536D01*
X281877000Y-51548530D01*
X281877001Y-51548533D01*
X281877000Y-55548530D01*
X281877001Y-55548533D01*
X281877000Y-59226469D01*
X281844969Y-59387500D01*
X281971864Y-60025445D01*
X282333231Y-60566269D01*
X282874055Y-60927636D01*
X283512000Y-61054531D01*
X283673031Y-61022500D01*
X297350969Y-61022500D01*
X297512000Y-61054531D01*
X297673031Y-61022500D01*
X298149945Y-60927636D01*
X298690769Y-60566269D01*
X299052136Y-60025445D01*
X299179031Y-59387500D01*
X299147000Y-59226469D01*
X299147000Y-45548531D01*
X299179031Y-45387500D01*
X305657969Y-45387500D01*
X305690001Y-45548536D01*
X305690000Y-51548530D01*
X305690001Y-51548533D01*
X305690000Y-55548530D01*
X305690001Y-55548533D01*
X305690000Y-59226469D01*
X305657969Y-59387500D01*
X305784864Y-60025445D01*
X306146231Y-60566269D01*
X306687055Y-60927636D01*
X307325000Y-61054531D01*
X307486031Y-61022500D01*
X321163969Y-61022500D01*
X321325000Y-61054531D01*
X321486031Y-61022500D01*
X321962945Y-60927636D01*
X322503769Y-60566269D01*
X322865136Y-60025445D01*
X322992031Y-59387500D01*
X322960000Y-59226469D01*
X322960000Y-45548531D01*
X322992031Y-45387500D01*
X329470969Y-45387500D01*
X329503001Y-45548536D01*
X329503000Y-51548530D01*
X329503001Y-51548533D01*
X329503000Y-55548530D01*
X329503001Y-55548533D01*
X329503000Y-59226469D01*
X329470969Y-59387500D01*
X329597864Y-60025445D01*
X329959231Y-60566269D01*
X330500055Y-60927636D01*
X331138000Y-61054531D01*
X331299031Y-61022500D01*
X344976969Y-61022500D01*
X345138000Y-61054531D01*
X345299031Y-61022500D01*
X345775945Y-60927636D01*
X346316769Y-60566269D01*
X346678136Y-60025445D01*
X346805031Y-59387500D01*
X346773000Y-59226469D01*
X346773000Y-45548531D01*
X346805031Y-45387500D01*
X346678136Y-44749555D01*
X346316769Y-44208731D01*
X345775945Y-43847364D01*
X345299031Y-43752500D01*
X345138000Y-43720469D01*
X344976969Y-43752500D01*
X331299031Y-43752500D01*
X331138000Y-43720469D01*
X330976969Y-43752500D01*
X330500055Y-43847364D01*
X329959231Y-44208731D01*
X329597864Y-44749555D01*
X329470969Y-45387500D01*
X322992031Y-45387500D01*
X322865136Y-44749555D01*
X322503769Y-44208731D01*
X321962945Y-43847364D01*
X321486031Y-43752500D01*
X321325000Y-43720469D01*
X321163969Y-43752500D01*
X307486031Y-43752500D01*
X307325000Y-43720469D01*
X307163969Y-43752500D01*
X306687055Y-43847364D01*
X306146231Y-44208731D01*
X305784864Y-44749555D01*
X305657969Y-45387500D01*
X299179031Y-45387500D01*
X299052136Y-44749555D01*
X298690769Y-44208731D01*
X298149945Y-43847364D01*
X297673031Y-43752500D01*
X297512000Y-43720469D01*
X297350969Y-43752500D01*
X283673031Y-43752500D01*
X283512000Y-43720469D01*
X283350969Y-43752500D01*
X282874055Y-43847364D01*
X282333231Y-44208731D01*
X281971864Y-44749555D01*
X281844969Y-45387500D01*
X280129031Y-45387500D01*
X280002136Y-44749555D01*
X279640769Y-44208731D01*
X279099945Y-43847364D01*
X278623031Y-43752500D01*
X278462000Y-43720469D01*
X278300969Y-43752500D01*
X264623031Y-43752500D01*
X264462000Y-43720469D01*
X264300969Y-43752500D01*
X263824055Y-43847364D01*
X263283231Y-44208731D01*
X262921864Y-44749555D01*
X262794969Y-45387500D01*
X261079031Y-45387500D01*
X260952136Y-44749555D01*
X260590769Y-44208731D01*
X260049945Y-43847364D01*
X259573031Y-43752500D01*
X259412000Y-43720469D01*
X259250969Y-43752500D01*
X245573031Y-43752500D01*
X245412000Y-43720469D01*
X245250969Y-43752500D01*
X244774055Y-43847364D01*
X244233231Y-44208731D01*
X243871864Y-44749555D01*
X243744969Y-45387500D01*
X242029031Y-45387500D01*
X241902136Y-44749555D01*
X241540769Y-44208731D01*
X240999945Y-43847364D01*
X240523031Y-43752500D01*
X240362000Y-43720469D01*
X240200969Y-43752500D01*
X226523031Y-43752500D01*
X226362000Y-43720469D01*
X226200969Y-43752500D01*
X225724055Y-43847364D01*
X225183231Y-44208731D01*
X224821864Y-44749555D01*
X224694969Y-45387500D01*
X222979031Y-45387500D01*
X222852136Y-44749555D01*
X222490769Y-44208731D01*
X221949945Y-43847364D01*
X221473031Y-43752500D01*
X221312000Y-43720469D01*
X221150969Y-43752500D01*
X207473031Y-43752500D01*
X207312000Y-43720469D01*
X207150969Y-43752500D01*
X206674055Y-43847364D01*
X206133231Y-44208731D01*
X205771864Y-44749555D01*
X205644969Y-45387500D01*
X203929031Y-45387500D01*
X203802136Y-44749555D01*
X203440769Y-44208731D01*
X202899945Y-43847364D01*
X202423031Y-43752500D01*
X202262000Y-43720469D01*
X202100969Y-43752500D01*
X188423031Y-43752500D01*
X188262000Y-43720469D01*
X188100969Y-43752500D01*
X187624055Y-43847364D01*
X187083231Y-44208731D01*
X186721864Y-44749555D01*
X186594969Y-45387500D01*
X184879031Y-45387500D01*
X184752136Y-44749555D01*
X184390769Y-44208731D01*
X183849945Y-43847364D01*
X183373031Y-43752500D01*
X183212000Y-43720469D01*
X183050969Y-43752500D01*
X169373031Y-43752500D01*
X169212000Y-43720469D01*
X169050969Y-43752500D01*
X168574055Y-43847364D01*
X168033231Y-44208731D01*
X167671864Y-44749555D01*
X167544969Y-45387500D01*
X165829031Y-45387500D01*
X165702136Y-44749555D01*
X165340769Y-44208731D01*
X164799945Y-43847364D01*
X164323031Y-43752500D01*
X164162000Y-43720469D01*
X164000969Y-43752500D01*
X150323031Y-43752500D01*
X150162000Y-43720469D01*
X150000969Y-43752500D01*
X149524055Y-43847364D01*
X148983231Y-44208731D01*
X148621864Y-44749555D01*
X148494969Y-45387500D01*
X146779031Y-45387500D01*
X146652136Y-44749555D01*
X146290769Y-44208731D01*
X145749945Y-43847364D01*
X145273031Y-43752500D01*
X145112000Y-43720469D01*
X144950969Y-43752500D01*
X131273031Y-43752500D01*
X131112000Y-43720469D01*
X130950969Y-43752500D01*
X130474055Y-43847364D01*
X129933231Y-44208731D01*
X129571864Y-44749555D01*
X129444969Y-45387500D01*
X127729031Y-45387500D01*
X127602136Y-44749555D01*
X127240769Y-44208731D01*
X126699945Y-43847364D01*
X126223031Y-43752500D01*
X126062000Y-43720469D01*
X125900969Y-43752500D01*
X112223031Y-43752500D01*
X112062000Y-43720469D01*
X111900969Y-43752500D01*
X111424055Y-43847364D01*
X110883231Y-44208731D01*
X110521864Y-44749555D01*
X110394969Y-45387500D01*
X108679031Y-45387500D01*
X108552136Y-44749555D01*
X108190769Y-44208731D01*
X107649945Y-43847364D01*
X107173031Y-43752500D01*
X107012000Y-43720469D01*
X106850969Y-43752500D01*
X93173031Y-43752500D01*
X93012000Y-43720469D01*
X92850969Y-43752500D01*
X92374055Y-43847364D01*
X91833231Y-44208731D01*
X91471864Y-44749555D01*
X91344969Y-45387500D01*
X89629531Y-45387500D01*
X89502636Y-44749555D01*
X89141269Y-44208731D01*
X88600445Y-43847364D01*
X88123531Y-43752500D01*
X87962500Y-43720469D01*
X87801469Y-43752500D01*
X74123531Y-43752500D01*
X73962500Y-43720469D01*
X73801469Y-43752500D01*
X73324555Y-43847364D01*
X72783731Y-44208731D01*
X72422364Y-44749555D01*
X72295469Y-45387500D01*
X65817031Y-45387500D01*
X65690136Y-44749555D01*
X65328769Y-44208731D01*
X64787945Y-43847364D01*
X64311031Y-43752500D01*
X64150000Y-43720469D01*
X63988969Y-43752500D01*
X50311031Y-43752500D01*
X50150000Y-43720469D01*
X49988969Y-43752500D01*
X49512055Y-43847364D01*
X48971231Y-44208731D01*
X48609864Y-44749555D01*
X48482969Y-45387500D01*
X42004531Y-45387500D01*
X41877636Y-44749555D01*
X41516269Y-44208731D01*
X40975445Y-43847364D01*
X40498531Y-43752500D01*
X40337500Y-43720469D01*
X40176469Y-43752500D01*
X26498531Y-43752500D01*
X26337500Y-43720469D01*
X26176469Y-43752500D01*
X25699555Y-43847364D01*
X25158731Y-44208731D01*
X24797364Y-44749555D01*
X24670469Y-45387500D01*
X19760000Y-45387500D01*
X19760000Y-36626882D01*
X20385223Y-36626882D01*
X20630368Y-37018388D01*
X21674360Y-37445109D01*
X22802181Y-37439830D01*
X23819632Y-37018388D01*
X24064777Y-36626882D01*
X22225000Y-34787105D01*
X20385223Y-36626882D01*
X19760000Y-36626882D01*
X19760000Y-36071494D01*
X19814112Y-36202132D01*
X20205618Y-36447277D01*
X22045395Y-34607500D01*
X22404605Y-34607500D01*
X24244382Y-36447277D01*
X24635888Y-36202132D01*
X24702500Y-36039163D01*
X24702500Y-36498530D01*
X24702501Y-36498533D01*
X24702500Y-40176469D01*
X24670469Y-40337500D01*
X24797364Y-40975445D01*
X25047700Y-41350099D01*
X25158731Y-41516269D01*
X25699555Y-41877636D01*
X26337500Y-42004531D01*
X26498531Y-41972500D01*
X40176469Y-41972500D01*
X40337500Y-42004531D01*
X40498531Y-41972500D01*
X40975445Y-41877636D01*
X41516269Y-41516269D01*
X41877636Y-40975445D01*
X42004531Y-40337500D01*
X41972500Y-40176469D01*
X41972500Y-26498531D01*
X42004531Y-26337500D01*
X43720469Y-26337500D01*
X43752501Y-26498536D01*
X43752500Y-32498530D01*
X43752501Y-32498533D01*
X43752500Y-36498530D01*
X43752501Y-36498533D01*
X43752500Y-40176469D01*
X43720469Y-40337500D01*
X43847364Y-40975445D01*
X44097700Y-41350099D01*
X44208731Y-41516269D01*
X44749555Y-41877636D01*
X45387500Y-42004531D01*
X45548531Y-41972500D01*
X59226469Y-41972500D01*
X59387500Y-42004531D01*
X59548531Y-41972500D01*
X60025445Y-41877636D01*
X60566269Y-41516269D01*
X60927636Y-40975445D01*
X61054531Y-40337500D01*
X61022500Y-40176469D01*
X61022500Y-26498531D01*
X61054531Y-26337500D01*
X62770469Y-26337500D01*
X62802501Y-26498536D01*
X62802500Y-32498530D01*
X62802501Y-32498533D01*
X62802500Y-36498530D01*
X62802501Y-36498533D01*
X62802500Y-40176469D01*
X62770469Y-40337500D01*
X62897364Y-40975445D01*
X63147700Y-41350099D01*
X63258731Y-41516269D01*
X63799555Y-41877636D01*
X64437500Y-42004531D01*
X64598531Y-41972500D01*
X78276469Y-41972500D01*
X78437500Y-42004531D01*
X78598531Y-41972500D01*
X79075445Y-41877636D01*
X79616269Y-41516269D01*
X79977636Y-40975445D01*
X80104531Y-40337500D01*
X80072500Y-40176469D01*
X80072500Y-26498531D01*
X80104531Y-26337500D01*
X81820469Y-26337500D01*
X81852501Y-26498536D01*
X81852500Y-32498530D01*
X81852501Y-32498533D01*
X81852500Y-36498530D01*
X81852501Y-36498533D01*
X81852500Y-40176469D01*
X81820469Y-40337500D01*
X81947364Y-40975445D01*
X82197700Y-41350099D01*
X82308731Y-41516269D01*
X82849555Y-41877636D01*
X83487500Y-42004531D01*
X83648531Y-41972500D01*
X97326469Y-41972500D01*
X97487500Y-42004531D01*
X97648531Y-41972500D01*
X98125445Y-41877636D01*
X98666269Y-41516269D01*
X99027636Y-40975445D01*
X99154531Y-40337500D01*
X99122500Y-40176469D01*
X99122500Y-26498531D01*
X99154531Y-26337500D01*
X100870969Y-26337500D01*
X100903001Y-26498536D01*
X100903000Y-32498530D01*
X100903001Y-32498533D01*
X100903000Y-36498530D01*
X100903001Y-36498533D01*
X100903000Y-40176469D01*
X100870969Y-40337500D01*
X100997864Y-40975445D01*
X101248200Y-41350099D01*
X101359231Y-41516269D01*
X101900055Y-41877636D01*
X102538000Y-42004531D01*
X102699031Y-41972500D01*
X116376969Y-41972500D01*
X116538000Y-42004531D01*
X116699031Y-41972500D01*
X117175945Y-41877636D01*
X117716769Y-41516269D01*
X118078136Y-40975445D01*
X118205031Y-40337500D01*
X118173000Y-40176469D01*
X118173000Y-26498531D01*
X118205031Y-26337500D01*
X119920969Y-26337500D01*
X119953001Y-26498536D01*
X119953000Y-32498530D01*
X119953001Y-32498533D01*
X119953000Y-36498530D01*
X119953001Y-36498533D01*
X119953000Y-40176469D01*
X119920969Y-40337500D01*
X120047864Y-40975445D01*
X120298200Y-41350099D01*
X120409231Y-41516269D01*
X120950055Y-41877636D01*
X121588000Y-42004531D01*
X121749031Y-41972500D01*
X135426969Y-41972500D01*
X135588000Y-42004531D01*
X135749031Y-41972500D01*
X136225945Y-41877636D01*
X136766769Y-41516269D01*
X137128136Y-40975445D01*
X137255031Y-40337500D01*
X137223000Y-40176469D01*
X137223000Y-26498531D01*
X137255031Y-26337500D01*
X138970969Y-26337500D01*
X139003001Y-26498536D01*
X139003000Y-32498530D01*
X139003001Y-32498533D01*
X139003000Y-36498530D01*
X139003001Y-36498533D01*
X139003000Y-40176469D01*
X138970969Y-40337500D01*
X139097864Y-40975445D01*
X139348200Y-41350099D01*
X139459231Y-41516269D01*
X140000055Y-41877636D01*
X140638000Y-42004531D01*
X140799031Y-41972500D01*
X154476969Y-41972500D01*
X154638000Y-42004531D01*
X154799031Y-41972500D01*
X155275945Y-41877636D01*
X155816769Y-41516269D01*
X156178136Y-40975445D01*
X156305031Y-40337500D01*
X156273000Y-40176469D01*
X156273000Y-26498531D01*
X156305031Y-26337500D01*
X158020969Y-26337500D01*
X158053001Y-26498536D01*
X158053000Y-32498530D01*
X158053001Y-32498533D01*
X158053000Y-36498530D01*
X158053001Y-36498533D01*
X158053000Y-40176469D01*
X158020969Y-40337500D01*
X158147864Y-40975445D01*
X158398200Y-41350099D01*
X158509231Y-41516269D01*
X159050055Y-41877636D01*
X159688000Y-42004531D01*
X159849031Y-41972500D01*
X173526969Y-41972500D01*
X173688000Y-42004531D01*
X173849031Y-41972500D01*
X174325945Y-41877636D01*
X174866769Y-41516269D01*
X175228136Y-40975445D01*
X175355031Y-40337500D01*
X175323000Y-40176469D01*
X175323000Y-26498531D01*
X175355031Y-26337500D01*
X177070969Y-26337500D01*
X177103001Y-26498536D01*
X177103000Y-32498530D01*
X177103001Y-32498533D01*
X177103000Y-36498530D01*
X177103001Y-36498533D01*
X177103000Y-40176469D01*
X177070969Y-40337500D01*
X177197864Y-40975445D01*
X177448200Y-41350099D01*
X177559231Y-41516269D01*
X178100055Y-41877636D01*
X178738000Y-42004531D01*
X178899031Y-41972500D01*
X192576969Y-41972500D01*
X192738000Y-42004531D01*
X192899031Y-41972500D01*
X193375945Y-41877636D01*
X193916769Y-41516269D01*
X194278136Y-40975445D01*
X194405031Y-40337500D01*
X194373000Y-40176469D01*
X194373000Y-26498531D01*
X194405031Y-26337500D01*
X196120969Y-26337500D01*
X196153001Y-26498536D01*
X196153000Y-32498530D01*
X196153001Y-32498533D01*
X196153000Y-36498530D01*
X196153001Y-36498533D01*
X196153000Y-40176469D01*
X196120969Y-40337500D01*
X196247864Y-40975445D01*
X196498200Y-41350099D01*
X196609231Y-41516269D01*
X197150055Y-41877636D01*
X197788000Y-42004531D01*
X197949031Y-41972500D01*
X211626969Y-41972500D01*
X211788000Y-42004531D01*
X211949031Y-41972500D01*
X212425945Y-41877636D01*
X212966769Y-41516269D01*
X213328136Y-40975445D01*
X213455031Y-40337500D01*
X213423000Y-40176469D01*
X213423000Y-26498531D01*
X213455031Y-26337500D01*
X215170969Y-26337500D01*
X215203001Y-26498536D01*
X215203000Y-32498530D01*
X215203001Y-32498533D01*
X215203000Y-36498530D01*
X215203001Y-36498533D01*
X215203000Y-40176469D01*
X215170969Y-40337500D01*
X215297864Y-40975445D01*
X215548200Y-41350099D01*
X215659231Y-41516269D01*
X216200055Y-41877636D01*
X216838000Y-42004531D01*
X216999031Y-41972500D01*
X230676969Y-41972500D01*
X230838000Y-42004531D01*
X230999031Y-41972500D01*
X231475945Y-41877636D01*
X232016769Y-41516269D01*
X232378136Y-40975445D01*
X232505031Y-40337500D01*
X232473000Y-40176469D01*
X232473000Y-26498531D01*
X232505031Y-26337500D01*
X234220969Y-26337500D01*
X234253001Y-26498536D01*
X234253000Y-32498530D01*
X234253001Y-32498533D01*
X234253000Y-36498530D01*
X234253001Y-36498533D01*
X234253000Y-40176469D01*
X234220969Y-40337500D01*
X234347864Y-40975445D01*
X234598200Y-41350099D01*
X234709231Y-41516269D01*
X235250055Y-41877636D01*
X235888000Y-42004531D01*
X236049031Y-41972500D01*
X249726969Y-41972500D01*
X249888000Y-42004531D01*
X250049031Y-41972500D01*
X250525945Y-41877636D01*
X251066769Y-41516269D01*
X251428136Y-40975445D01*
X251555031Y-40337500D01*
X251523000Y-40176469D01*
X251523000Y-26498531D01*
X251555031Y-26337500D01*
X253270969Y-26337500D01*
X253303001Y-26498536D01*
X253303000Y-32498530D01*
X253303001Y-32498533D01*
X253303000Y-36498530D01*
X253303001Y-36498533D01*
X253303000Y-40176469D01*
X253270969Y-40337500D01*
X253397864Y-40975445D01*
X253648200Y-41350099D01*
X253759231Y-41516269D01*
X254300055Y-41877636D01*
X254938000Y-42004531D01*
X255099031Y-41972500D01*
X268776969Y-41972500D01*
X268938000Y-42004531D01*
X269099031Y-41972500D01*
X269575945Y-41877636D01*
X270116769Y-41516269D01*
X270478136Y-40975445D01*
X270605031Y-40337500D01*
X270573000Y-40176469D01*
X270573000Y-26498531D01*
X270605031Y-26337500D01*
X272320969Y-26337500D01*
X272353001Y-26498536D01*
X272353000Y-32498530D01*
X272353001Y-32498533D01*
X272353000Y-36498530D01*
X272353001Y-36498533D01*
X272353000Y-40176469D01*
X272320969Y-40337500D01*
X272447864Y-40975445D01*
X272698200Y-41350099D01*
X272809231Y-41516269D01*
X273350055Y-41877636D01*
X273988000Y-42004531D01*
X274149031Y-41972500D01*
X287826969Y-41972500D01*
X287988000Y-42004531D01*
X288149031Y-41972500D01*
X288625945Y-41877636D01*
X289166769Y-41516269D01*
X289528136Y-40975445D01*
X289655031Y-40337500D01*
X289623000Y-40176469D01*
X289623000Y-26498531D01*
X289655031Y-26337500D01*
X291370969Y-26337500D01*
X291403001Y-26498536D01*
X291403000Y-32498530D01*
X291403001Y-32498533D01*
X291403000Y-36498530D01*
X291403001Y-36498533D01*
X291403000Y-40176469D01*
X291370969Y-40337500D01*
X291497864Y-40975445D01*
X291748200Y-41350099D01*
X291859231Y-41516269D01*
X292400055Y-41877636D01*
X293038000Y-42004531D01*
X293199031Y-41972500D01*
X306876969Y-41972500D01*
X307038000Y-42004531D01*
X307199031Y-41972500D01*
X307675945Y-41877636D01*
X308216769Y-41516269D01*
X308578136Y-40975445D01*
X308705031Y-40337500D01*
X308673000Y-40176469D01*
X308673000Y-26498531D01*
X308705031Y-26337500D01*
X308611726Y-25868421D01*
X308578136Y-25699555D01*
X308216769Y-25158731D01*
X307675945Y-24797364D01*
X307297813Y-24722149D01*
X307199031Y-24702500D01*
X307038000Y-24670469D01*
X306876969Y-24702500D01*
X293199031Y-24702500D01*
X293038000Y-24670469D01*
X292876969Y-24702500D01*
X292400055Y-24797364D01*
X291859231Y-25158731D01*
X291497864Y-25699555D01*
X291370969Y-26337500D01*
X289655031Y-26337500D01*
X289561726Y-25868421D01*
X289528136Y-25699555D01*
X289166769Y-25158731D01*
X288625945Y-24797364D01*
X288247813Y-24722149D01*
X288149031Y-24702500D01*
X287988000Y-24670469D01*
X287826969Y-24702500D01*
X274149031Y-24702500D01*
X273988000Y-24670469D01*
X273826969Y-24702500D01*
X273350055Y-24797364D01*
X272809231Y-25158731D01*
X272447864Y-25699555D01*
X272320969Y-26337500D01*
X270605031Y-26337500D01*
X270511726Y-25868421D01*
X270478136Y-25699555D01*
X270116769Y-25158731D01*
X269575945Y-24797364D01*
X269197813Y-24722149D01*
X269099031Y-24702500D01*
X268938000Y-24670469D01*
X268776969Y-24702500D01*
X255099031Y-24702500D01*
X254938000Y-24670469D01*
X254776969Y-24702500D01*
X254300055Y-24797364D01*
X253759231Y-25158731D01*
X253397864Y-25699555D01*
X253270969Y-26337500D01*
X251555031Y-26337500D01*
X251461726Y-25868421D01*
X251428136Y-25699555D01*
X251066769Y-25158731D01*
X250525945Y-24797364D01*
X250147813Y-24722149D01*
X250049031Y-24702500D01*
X249888000Y-24670469D01*
X249726969Y-24702500D01*
X236049031Y-24702500D01*
X235888000Y-24670469D01*
X235726969Y-24702500D01*
X235250055Y-24797364D01*
X234709231Y-25158731D01*
X234347864Y-25699555D01*
X234220969Y-26337500D01*
X232505031Y-26337500D01*
X232411726Y-25868421D01*
X232378136Y-25699555D01*
X232016769Y-25158731D01*
X231475945Y-24797364D01*
X231097813Y-24722149D01*
X230999031Y-24702500D01*
X230838000Y-24670469D01*
X230676969Y-24702500D01*
X216999031Y-24702500D01*
X216838000Y-24670469D01*
X216676969Y-24702500D01*
X216200055Y-24797364D01*
X215659231Y-25158731D01*
X215297864Y-25699555D01*
X215170969Y-26337500D01*
X213455031Y-26337500D01*
X213361726Y-25868421D01*
X213328136Y-25699555D01*
X212966769Y-25158731D01*
X212425945Y-24797364D01*
X212047813Y-24722149D01*
X211949031Y-24702500D01*
X211788000Y-24670469D01*
X211626969Y-24702500D01*
X197949031Y-24702500D01*
X197788000Y-24670469D01*
X197626969Y-24702500D01*
X197150055Y-24797364D01*
X196609231Y-25158731D01*
X196247864Y-25699555D01*
X196120969Y-26337500D01*
X194405031Y-26337500D01*
X194311726Y-25868421D01*
X194278136Y-25699555D01*
X193916769Y-25158731D01*
X193375945Y-24797364D01*
X192997813Y-24722149D01*
X192899031Y-24702500D01*
X192738000Y-24670469D01*
X192576969Y-24702500D01*
X178899031Y-24702500D01*
X178738000Y-24670469D01*
X178576969Y-24702500D01*
X178100055Y-24797364D01*
X177559231Y-25158731D01*
X177197864Y-25699555D01*
X177070969Y-26337500D01*
X175355031Y-26337500D01*
X175261726Y-25868421D01*
X175228136Y-25699555D01*
X174866769Y-25158731D01*
X174325945Y-24797364D01*
X173947813Y-24722149D01*
X173849031Y-24702500D01*
X173688000Y-24670469D01*
X173526969Y-24702500D01*
X159849031Y-24702500D01*
X159688000Y-24670469D01*
X159526969Y-24702500D01*
X159050055Y-24797364D01*
X158509231Y-25158731D01*
X158147864Y-25699555D01*
X158020969Y-26337500D01*
X156305031Y-26337500D01*
X156211726Y-25868421D01*
X156178136Y-25699555D01*
X155816769Y-25158731D01*
X155275945Y-24797364D01*
X154897813Y-24722149D01*
X154799031Y-24702500D01*
X154638000Y-24670469D01*
X154476969Y-24702500D01*
X140799031Y-24702500D01*
X140638000Y-24670469D01*
X140476969Y-24702500D01*
X140000055Y-24797364D01*
X139459231Y-25158731D01*
X139097864Y-25699555D01*
X138970969Y-26337500D01*
X137255031Y-26337500D01*
X137161726Y-25868421D01*
X137128136Y-25699555D01*
X136766769Y-25158731D01*
X136225945Y-24797364D01*
X135847813Y-24722149D01*
X135749031Y-24702500D01*
X135588000Y-24670469D01*
X135426969Y-24702500D01*
X121749031Y-24702500D01*
X121588000Y-24670469D01*
X121426969Y-24702500D01*
X120950055Y-24797364D01*
X120409231Y-25158731D01*
X120047864Y-25699555D01*
X119920969Y-26337500D01*
X118205031Y-26337500D01*
X118111726Y-25868421D01*
X118078136Y-25699555D01*
X117716769Y-25158731D01*
X117175945Y-24797364D01*
X116797813Y-24722149D01*
X116699031Y-24702500D01*
X116538000Y-24670469D01*
X116376969Y-24702500D01*
X102699031Y-24702500D01*
X102538000Y-24670469D01*
X102376969Y-24702500D01*
X101900055Y-24797364D01*
X101359231Y-25158731D01*
X100997864Y-25699555D01*
X100870969Y-26337500D01*
X99154531Y-26337500D01*
X99061226Y-25868421D01*
X99027636Y-25699555D01*
X98666269Y-25158731D01*
X98125445Y-24797364D01*
X97747313Y-24722149D01*
X97648531Y-24702500D01*
X97487500Y-24670469D01*
X97326469Y-24702500D01*
X83648531Y-24702500D01*
X83487500Y-24670469D01*
X83326469Y-24702500D01*
X82849555Y-24797364D01*
X82308731Y-25158731D01*
X81947364Y-25699555D01*
X81820469Y-26337500D01*
X80104531Y-26337500D01*
X80011226Y-25868421D01*
X79977636Y-25699555D01*
X79616269Y-25158731D01*
X79075445Y-24797364D01*
X78697313Y-24722149D01*
X78598531Y-24702500D01*
X78437500Y-24670469D01*
X78276469Y-24702500D01*
X64598531Y-24702500D01*
X64437500Y-24670469D01*
X64276469Y-24702500D01*
X63799555Y-24797364D01*
X63258731Y-25158731D01*
X62897364Y-25699555D01*
X62770469Y-26337500D01*
X61054531Y-26337500D01*
X60961226Y-25868421D01*
X60927636Y-25699555D01*
X60566269Y-25158731D01*
X60025445Y-24797364D01*
X59647313Y-24722149D01*
X59548531Y-24702500D01*
X59387500Y-24670469D01*
X59226469Y-24702500D01*
X45548531Y-24702500D01*
X45387500Y-24670469D01*
X45226469Y-24702500D01*
X44749555Y-24797364D01*
X44208731Y-25158731D01*
X43847364Y-25699555D01*
X43720469Y-26337500D01*
X42004531Y-26337500D01*
X41911226Y-25868421D01*
X41877636Y-25699555D01*
X41516269Y-25158731D01*
X40975445Y-24797364D01*
X40597313Y-24722149D01*
X40498531Y-24702500D01*
X40337500Y-24670469D01*
X40176469Y-24702500D01*
X26498531Y-24702500D01*
X26337500Y-24670469D01*
X26176469Y-24702500D01*
X25699555Y-24797364D01*
X25158731Y-25158731D01*
X24797364Y-25699555D01*
X24670469Y-26337500D01*
X24702501Y-26498536D01*
X24702500Y-32498530D01*
X24702501Y-32498533D01*
X24702501Y-33173685D01*
X24635888Y-33012868D01*
X24244382Y-32767723D01*
X22404605Y-34607500D01*
X22045395Y-34607500D01*
X20205618Y-32767723D01*
X19814112Y-33012868D01*
X19760000Y-33145255D01*
X19760000Y-32588118D01*
X20385223Y-32588118D01*
X22225000Y-34427895D01*
X24064777Y-32588118D01*
X23819632Y-32196612D01*
X22775640Y-31769891D01*
X21647819Y-31775170D01*
X20630368Y-32196612D01*
X20385223Y-32588118D01*
X19760000Y-32588118D01*
X19760000Y-28607547D01*
X19830800Y-27837035D01*
X20031956Y-27123790D01*
X20359728Y-26459134D01*
X20803128Y-25865350D01*
X21347318Y-25362307D01*
X21974060Y-24966861D01*
X22662379Y-24692250D01*
X23402973Y-24544936D01*
X23831092Y-24522500D01*
X342872830Y-24522500D01*
X343673430Y-24593952D01*
X343673430Y-24593952D01*
G37*
X343673430Y-24593952D02*
X344070216Y-24702500D01*
X312773031Y-24702500D01*
X312612000Y-24670469D01*
X312450969Y-24702500D01*
X311974055Y-24797364D01*
X311433231Y-25158731D01*
X311071864Y-25699555D01*
X310944969Y-26337500D01*
X310977000Y-26498531D01*
X310977001Y-30176469D01*
X310977000Y-34176468D01*
X310977000Y-34176470D01*
X310977001Y-40176464D01*
X310944969Y-40337500D01*
X311071864Y-40975445D01*
X311433231Y-41516269D01*
X311974055Y-41877636D01*
X312450969Y-41972500D01*
X312612000Y-42004531D01*
X312773031Y-41972500D01*
X313486714Y-41972500D01*
X313783231Y-42416269D01*
X314324055Y-42777636D01*
X314962000Y-42904531D01*
X315123031Y-42872500D01*
X318200969Y-42872500D01*
X318362000Y-42904531D01*
X318523031Y-42872500D01*
X318999945Y-42777636D01*
X319540769Y-42416269D01*
X319837286Y-41972500D01*
X337386714Y-41972500D01*
X337683231Y-42416269D01*
X338224055Y-42777636D01*
X338862000Y-42904531D01*
X339023031Y-42872500D01*
X342100969Y-42872500D01*
X342262000Y-42904531D01*
X342423031Y-42872500D01*
X342899945Y-42777636D01*
X343440769Y-42416269D01*
X343737286Y-41972500D01*
X344450969Y-41972500D01*
X344612000Y-42004531D01*
X345249945Y-41877636D01*
X345790769Y-41516269D01*
X346152136Y-40975445D01*
X346247000Y-40498531D01*
X346247000Y-40498530D01*
X346279031Y-40337500D01*
X346247000Y-40176469D01*
X346247000Y-34056860D01*
X348952391Y-34056860D01*
X348957670Y-35184681D01*
X349379112Y-36202132D01*
X349770618Y-36447277D01*
X351610395Y-34607500D01*
X349770618Y-32767723D01*
X349379112Y-33012868D01*
X348952391Y-34056860D01*
X346247000Y-34056860D01*
X346247000Y-26498531D01*
X346279031Y-26337500D01*
X346226646Y-26074140D01*
X346294241Y-26143893D01*
X346727337Y-26788408D01*
X347039449Y-27499418D01*
X347221511Y-28257765D01*
X347270747Y-28990928D01*
X347275362Y-29137789D01*
X347277117Y-29148872D01*
X347276413Y-29160068D01*
X347287588Y-29248528D01*
X347406892Y-29873944D01*
X347420697Y-29916430D01*
X347429066Y-29960305D01*
X347461889Y-30043207D01*
X347732980Y-30619304D01*
X347756916Y-30657021D01*
X347775934Y-30697436D01*
X347828343Y-30769571D01*
X348234185Y-31260151D01*
X348266754Y-31290736D01*
X348295222Y-31325147D01*
X348363915Y-31381975D01*
X348363922Y-31381982D01*
X348363926Y-31381984D01*
X348879019Y-31756221D01*
X348918165Y-31777742D01*
X348954301Y-31803996D01*
X349034965Y-31841954D01*
X349034978Y-31841961D01*
X349034985Y-31841963D01*
X349626960Y-32076343D01*
X349670236Y-32087454D01*
X349711758Y-32103894D01*
X349799330Y-32120600D01*
X349799342Y-32120603D01*
X349799349Y-32120603D01*
X350243431Y-32176704D01*
X350195368Y-32196612D01*
X349950223Y-32588118D01*
X351790000Y-34427895D01*
X351804143Y-34413753D01*
X351983748Y-34593358D01*
X351969605Y-34607500D01*
X351983748Y-34621643D01*
X351804143Y-34801248D01*
X351790000Y-34787105D01*
X349950223Y-36626882D01*
X350195368Y-37018388D01*
X351239360Y-37445109D01*
X352367181Y-37439830D01*
X353175475Y-37105024D01*
X353097239Y-37176619D01*
X352693701Y-37391748D01*
X352225153Y-37505643D01*
X352023981Y-37517000D01*
X350450074Y-37517000D01*
X350430573Y-37520879D01*
X350389256Y-37524013D01*
X349758663Y-37611936D01*
X349715539Y-37623602D01*
X349671303Y-37629770D01*
X349586870Y-37658411D01*
X349586865Y-37658412D01*
X349586862Y-37658413D01*
X348997950Y-37900395D01*
X348959087Y-37922416D01*
X348917768Y-37939394D01*
X348843106Y-37988135D01*
X348332871Y-38368974D01*
X348300701Y-38399973D01*
X348264909Y-38426688D01*
X348204714Y-38492465D01*
X347805220Y-38988229D01*
X347781772Y-39026250D01*
X347753745Y-39061031D01*
X347711799Y-39139712D01*
X347448147Y-39719251D01*
X347434891Y-39761909D01*
X347416395Y-39802566D01*
X347395334Y-39889206D01*
X347311288Y-40362833D01*
X347311195Y-40362973D01*
X347270000Y-40570075D01*
X347270001Y-80575069D01*
X347256091Y-80645000D01*
X347311195Y-80922028D01*
X347468119Y-81156881D01*
X347702972Y-81313805D01*
X347910074Y-81355000D01*
X347910075Y-81355000D01*
X347980000Y-81368909D01*
X348049926Y-81355000D01*
X363957645Y-81355000D01*
X363877231Y-81408731D01*
X363580714Y-81852500D01*
X346031286Y-81852500D01*
X345734769Y-81408731D01*
X345193945Y-81047364D01*
X344717031Y-80952500D01*
X344556000Y-80920469D01*
X344394969Y-80952500D01*
X341317031Y-80952500D01*
X341156000Y-80920469D01*
X340994969Y-80952500D01*
X340518055Y-81047364D01*
X339977231Y-81408731D01*
X339680714Y-81852500D01*
X338967031Y-81852500D01*
X338806000Y-81820469D01*
X338644969Y-81852500D01*
X338168055Y-81947364D01*
X337627231Y-82308731D01*
X337265864Y-82849555D01*
X337138969Y-83487500D01*
X337171001Y-83648536D01*
X337171000Y-87326468D01*
X337171000Y-87326470D01*
X337171001Y-91326469D01*
X337171000Y-97326469D01*
X337138969Y-97487500D01*
X337265864Y-98125445D01*
X337627231Y-98666269D01*
X338168055Y-99027636D01*
X338806000Y-99154531D01*
X338967031Y-99122500D01*
X370644969Y-99122500D01*
X370806000Y-99154531D01*
X370967031Y-99122500D01*
X371443945Y-99027636D01*
X371984769Y-98666269D01*
X372346136Y-98125445D01*
X372473031Y-97487500D01*
X372441000Y-97326469D01*
X372441000Y-83648531D01*
X372473031Y-83487500D01*
X372346136Y-82849555D01*
X371984769Y-82308731D01*
X371443945Y-81947364D01*
X370967031Y-81852500D01*
X370806000Y-81820469D01*
X370644969Y-81852500D01*
X369931286Y-81852500D01*
X369634769Y-81408731D01*
X369554355Y-81355000D01*
X375888382Y-81355000D01*
X376693358Y-81426842D01*
X377442277Y-81631723D01*
X378143072Y-81965986D01*
X378773605Y-82419069D01*
X379313934Y-82976645D01*
X379746989Y-83621099D01*
X380059073Y-84332044D01*
X380241640Y-85092493D01*
X380290001Y-85751044D01*
X380290000Y-120617454D01*
X380219200Y-121387965D01*
X380018044Y-122101210D01*
X379690272Y-122765866D01*
X379246872Y-123359651D01*
X378702685Y-123862691D01*
X378075940Y-124258139D01*
X377387625Y-124532748D01*
X376647026Y-124680064D01*
X376218908Y-124702500D01*
X366590201Y-124702500D01*
X366719632Y-124648888D01*
X366964777Y-124257382D01*
X365125000Y-122417605D01*
X363285223Y-124257382D01*
X363530368Y-124648888D01*
X363661532Y-124702500D01*
X247693501Y-124702500D01*
X247667286Y-124699275D01*
X247623748Y-124702500D01*
X247580074Y-124702500D01*
X247554159Y-124707655D01*
X204761248Y-127877500D01*
X166713766Y-127877500D01*
X123920841Y-124707655D01*
X123894926Y-124702500D01*
X123851252Y-124702500D01*
X123807714Y-124699275D01*
X123781499Y-124702500D01*
X29885692Y-124702500D01*
X30169632Y-124584888D01*
X30414777Y-124193382D01*
X28575000Y-122353605D01*
X26735223Y-124193382D01*
X26980368Y-124584888D01*
X27268111Y-124702500D01*
X23845046Y-124702500D01*
X23074535Y-124631700D01*
X22361290Y-124430544D01*
X21696634Y-124102772D01*
X21102849Y-123659372D01*
X20599809Y-123115185D01*
X20204361Y-122488440D01*
X19929752Y-121800125D01*
X19894591Y-121623360D01*
X25737391Y-121623360D01*
X25742670Y-122751181D01*
X26164112Y-123768632D01*
X26555618Y-124013777D01*
X28395395Y-122174000D01*
X28754605Y-122174000D01*
X30594382Y-124013777D01*
X30985888Y-123768632D01*
X31412609Y-122724640D01*
X31407330Y-121596819D01*
X30985888Y-120579368D01*
X30594382Y-120334223D01*
X28754605Y-122174000D01*
X28395395Y-122174000D01*
X26555618Y-120334223D01*
X26164112Y-120579368D01*
X25737391Y-121623360D01*
X19894591Y-121623360D01*
X19782436Y-121059526D01*
X19760000Y-120631408D01*
X19760000Y-120154618D01*
X26735223Y-120154618D01*
X28575000Y-121994395D01*
X30414777Y-120154618D01*
X30169632Y-119763112D01*
X29125640Y-119336391D01*
X27997819Y-119341670D01*
X26980368Y-119763112D01*
X26735223Y-120154618D01*
X19760000Y-120154618D01*
X19760000Y-102538000D01*
X19907969Y-102538000D01*
X19940001Y-102699036D01*
X19940000Y-108699030D01*
X19940001Y-108699033D01*
X19940000Y-112699030D01*
X19940001Y-112699033D01*
X19940000Y-116376969D01*
X19907969Y-116538000D01*
X20034864Y-117175945D01*
X20264734Y-117519970D01*
X20396231Y-117716769D01*
X20937055Y-118078136D01*
X21575000Y-118205031D01*
X21736031Y-118173000D01*
X35413969Y-118173000D01*
X35575000Y-118205031D01*
X35736031Y-118173000D01*
X36212945Y-118078136D01*
X36753769Y-117716769D01*
X37115136Y-117175945D01*
X37242031Y-116538000D01*
X37210000Y-116376969D01*
X37210000Y-102699031D01*
X37242031Y-102538000D01*
X41339169Y-102538000D01*
X41371201Y-102699036D01*
X41371200Y-108699030D01*
X41371201Y-108699033D01*
X41371200Y-112699030D01*
X41371201Y-112699033D01*
X41371200Y-116376969D01*
X41339169Y-116538000D01*
X41466064Y-117175945D01*
X41695934Y-117519970D01*
X41827431Y-117716769D01*
X42368255Y-118078136D01*
X43006200Y-118205031D01*
X43167231Y-118173000D01*
X56845169Y-118173000D01*
X57006200Y-118205031D01*
X57167231Y-118173000D01*
X57644145Y-118078136D01*
X58184969Y-117716769D01*
X58546336Y-117175945D01*
X58673231Y-116538000D01*
X58641200Y-116376969D01*
X58641200Y-104919000D01*
X124682969Y-104919000D01*
X124715001Y-105080036D01*
X124715000Y-111080030D01*
X124715001Y-111080033D01*
X124715000Y-115080030D01*
X124715001Y-115080033D01*
X124715000Y-118757969D01*
X124682969Y-118919000D01*
X124809864Y-119556945D01*
X125099587Y-119990546D01*
X125171231Y-120097769D01*
X125712055Y-120459136D01*
X126350000Y-120586031D01*
X126511031Y-120554000D01*
X140188969Y-120554000D01*
X140350000Y-120586031D01*
X140511031Y-120554000D01*
X140987945Y-120459136D01*
X141528769Y-120097769D01*
X141890136Y-119556945D01*
X142017031Y-118919000D01*
X141985000Y-118757969D01*
X141985000Y-107300000D01*
X146113969Y-107300000D01*
X146146000Y-107461031D01*
X146146001Y-111138967D01*
X146146000Y-111138970D01*
X146146001Y-115138967D01*
X146146000Y-115138970D01*
X146146001Y-121138964D01*
X146113969Y-121300000D01*
X146240864Y-121937945D01*
X146602231Y-122478769D01*
X147143055Y-122840136D01*
X147619969Y-122935000D01*
X147781000Y-122967031D01*
X147942031Y-122935000D01*
X161619969Y-122935000D01*
X161781000Y-122967031D01*
X162100800Y-122903419D01*
X162418945Y-122840136D01*
X162959769Y-122478769D01*
X163321136Y-121937945D01*
X163398310Y-121549965D01*
X163416000Y-121461031D01*
X163448031Y-121300000D01*
X163416000Y-121138969D01*
X163416000Y-109681000D01*
X167544969Y-109681000D01*
X167577000Y-109842031D01*
X167577001Y-113519967D01*
X167577000Y-113519970D01*
X167577001Y-117519967D01*
X167577000Y-117519970D01*
X167577001Y-123519964D01*
X167544969Y-123681000D01*
X167671864Y-124318945D01*
X168033231Y-124859769D01*
X168574055Y-125221136D01*
X169050969Y-125316000D01*
X169212000Y-125348031D01*
X169373031Y-125316000D01*
X183050969Y-125316000D01*
X183212000Y-125348031D01*
X183721160Y-125246753D01*
X183849945Y-125221136D01*
X184390769Y-124859769D01*
X184752136Y-124318945D01*
X184785590Y-124150761D01*
X184847000Y-123842031D01*
X184847000Y-123842030D01*
X184879031Y-123681000D01*
X184847000Y-123519969D01*
X184847000Y-109842031D01*
X184879031Y-109681000D01*
X186594969Y-109681000D01*
X186627001Y-109842036D01*
X186627000Y-115842030D01*
X186627001Y-115842033D01*
X186627000Y-119842030D01*
X186627001Y-119842033D01*
X186627000Y-123519969D01*
X186594969Y-123681000D01*
X186721864Y-124318945D01*
X187083231Y-124859769D01*
X187624055Y-125221136D01*
X187752841Y-125246753D01*
X188262000Y-125348031D01*
X188423031Y-125316000D01*
X202100969Y-125316000D01*
X202262000Y-125348031D01*
X202423031Y-125316000D01*
X202899945Y-125221136D01*
X203440769Y-124859769D01*
X203802136Y-124318945D01*
X203835590Y-124150761D01*
X203897000Y-123842031D01*
X203897000Y-123842030D01*
X203929031Y-123681000D01*
X203897000Y-123519969D01*
X203897000Y-109842031D01*
X203929031Y-109681000D01*
X203802136Y-109043055D01*
X203440769Y-108502231D01*
X202899945Y-108140864D01*
X202423031Y-108046000D01*
X202262000Y-108013969D01*
X202100969Y-108046000D01*
X188423031Y-108046000D01*
X188262000Y-108013969D01*
X188100969Y-108046000D01*
X187624055Y-108140864D01*
X187083231Y-108502231D01*
X186721864Y-109043055D01*
X186594969Y-109681000D01*
X184879031Y-109681000D01*
X184752136Y-109043055D01*
X184390769Y-108502231D01*
X183849945Y-108140864D01*
X183373031Y-108046000D01*
X183212000Y-108013969D01*
X183050969Y-108046000D01*
X169373031Y-108046000D01*
X169212000Y-108013969D01*
X169050969Y-108046000D01*
X168574055Y-108140864D01*
X168033231Y-108502231D01*
X167671864Y-109043055D01*
X167544969Y-109681000D01*
X163416000Y-109681000D01*
X163416000Y-107461031D01*
X163448031Y-107300000D01*
X208026969Y-107300000D01*
X208059000Y-107461031D01*
X208059001Y-111138967D01*
X208059000Y-111138970D01*
X208059001Y-115138967D01*
X208059000Y-115138970D01*
X208059001Y-121138964D01*
X208026969Y-121300000D01*
X208153864Y-121937945D01*
X208515231Y-122478769D01*
X209056055Y-122840136D01*
X209532969Y-122935000D01*
X209694000Y-122967031D01*
X209855031Y-122935000D01*
X223532969Y-122935000D01*
X223694000Y-122967031D01*
X224013800Y-122903419D01*
X224331945Y-122840136D01*
X224872769Y-122478769D01*
X225234136Y-121937945D01*
X225283980Y-121687360D01*
X362287391Y-121687360D01*
X362292670Y-122815181D01*
X362714112Y-123832632D01*
X363105618Y-124077777D01*
X364945395Y-122238000D01*
X365304605Y-122238000D01*
X367144382Y-124077777D01*
X367535888Y-123832632D01*
X367962609Y-122788640D01*
X367957330Y-121660819D01*
X367535888Y-120643368D01*
X367144382Y-120398223D01*
X365304605Y-122238000D01*
X364945395Y-122238000D01*
X363105618Y-120398223D01*
X362714112Y-120643368D01*
X362287391Y-121687360D01*
X225283980Y-121687360D01*
X225311310Y-121549965D01*
X225329000Y-121461031D01*
X225361031Y-121300000D01*
X225329000Y-121138969D01*
X225329000Y-107461031D01*
X225361031Y-107300000D01*
X225234136Y-106662055D01*
X224872769Y-106121231D01*
X224331945Y-105759864D01*
X223855031Y-105665000D01*
X223694000Y-105632969D01*
X223532969Y-105665000D01*
X209855031Y-105665000D01*
X209694000Y-105632969D01*
X209532969Y-105665000D01*
X209056055Y-105759864D01*
X208515231Y-106121231D01*
X208153864Y-106662055D01*
X208026969Y-107300000D01*
X163448031Y-107300000D01*
X163321136Y-106662055D01*
X162959769Y-106121231D01*
X162418945Y-105759864D01*
X161942031Y-105665000D01*
X161781000Y-105632969D01*
X161619969Y-105665000D01*
X147942031Y-105665000D01*
X147781000Y-105632969D01*
X147619969Y-105665000D01*
X147143055Y-105759864D01*
X146602231Y-106121231D01*
X146240864Y-106662055D01*
X146113969Y-107300000D01*
X141985000Y-107300000D01*
X141985000Y-105080031D01*
X142017031Y-104919000D01*
X229457969Y-104919000D01*
X229490000Y-105080031D01*
X229490001Y-108757967D01*
X229490000Y-108757970D01*
X229490001Y-112757967D01*
X229490000Y-112757970D01*
X229490001Y-118757964D01*
X229457969Y-118919000D01*
X229584864Y-119556945D01*
X229946231Y-120097769D01*
X230487055Y-120459136D01*
X230963969Y-120554000D01*
X231125000Y-120586031D01*
X231286031Y-120554000D01*
X244963969Y-120554000D01*
X245125000Y-120586031D01*
X245762945Y-120459136D01*
X246122905Y-120218618D01*
X363285223Y-120218618D01*
X365125000Y-122058395D01*
X366964777Y-120218618D01*
X366719632Y-119827112D01*
X365675640Y-119400391D01*
X364547819Y-119405670D01*
X363530368Y-119827112D01*
X363285223Y-120218618D01*
X246122905Y-120218618D01*
X246303769Y-120097769D01*
X246665136Y-119556945D01*
X246760000Y-119080031D01*
X246760000Y-119080030D01*
X246792031Y-118919000D01*
X246760000Y-118757969D01*
X246760000Y-105080031D01*
X246792031Y-104919000D01*
X246665136Y-104281055D01*
X246303769Y-103740231D01*
X245762945Y-103378864D01*
X245286031Y-103284000D01*
X245125000Y-103251969D01*
X244963969Y-103284000D01*
X231286031Y-103284000D01*
X231125000Y-103251969D01*
X230963969Y-103284000D01*
X230487055Y-103378864D01*
X229946231Y-103740231D01*
X229584864Y-104281055D01*
X229457969Y-104919000D01*
X142017031Y-104919000D01*
X141890136Y-104281055D01*
X141528769Y-103740231D01*
X140987945Y-103378864D01*
X140511031Y-103284000D01*
X140350000Y-103251969D01*
X140188969Y-103284000D01*
X126511031Y-103284000D01*
X126350000Y-103251969D01*
X126188969Y-103284000D01*
X125712055Y-103378864D01*
X125171231Y-103740231D01*
X124809864Y-104281055D01*
X124682969Y-104919000D01*
X58641200Y-104919000D01*
X58641200Y-102699031D01*
X58673231Y-102538000D01*
X291370969Y-102538000D01*
X291403001Y-102699036D01*
X291403000Y-108699030D01*
X291403001Y-108699033D01*
X291403000Y-112699030D01*
X291403001Y-112699033D01*
X291403000Y-116376969D01*
X291370969Y-116538000D01*
X291497864Y-117175945D01*
X291727734Y-117519970D01*
X291859231Y-117716769D01*
X292400055Y-118078136D01*
X293038000Y-118205031D01*
X293199031Y-118173000D01*
X306876969Y-118173000D01*
X307038000Y-118205031D01*
X307199031Y-118173000D01*
X307675945Y-118078136D01*
X308216769Y-117716769D01*
X308578136Y-117175945D01*
X308705031Y-116538000D01*
X308673000Y-116376969D01*
X308673000Y-102699031D01*
X308705031Y-102538000D01*
X310420969Y-102538000D01*
X310453001Y-102699036D01*
X310453000Y-108699030D01*
X310453001Y-108699033D01*
X310453000Y-112699030D01*
X310453001Y-112699033D01*
X310453000Y-116376969D01*
X310420969Y-116538000D01*
X310547864Y-117175945D01*
X310777734Y-117519970D01*
X310909231Y-117716769D01*
X311450055Y-118078136D01*
X312088000Y-118205031D01*
X312249031Y-118173000D01*
X325926969Y-118173000D01*
X326088000Y-118205031D01*
X326249031Y-118173000D01*
X326725945Y-118078136D01*
X327266769Y-117716769D01*
X327628136Y-117175945D01*
X327755031Y-116538000D01*
X327723000Y-116376969D01*
X327723000Y-102699031D01*
X327755031Y-102538000D01*
X329470969Y-102538000D01*
X329503001Y-102699036D01*
X329503000Y-108699030D01*
X329503001Y-108699033D01*
X329503000Y-112699030D01*
X329503001Y-112699033D01*
X329503000Y-116376969D01*
X329470969Y-116538000D01*
X329597864Y-117175945D01*
X329827734Y-117519970D01*
X329959231Y-117716769D01*
X330500055Y-118078136D01*
X331138000Y-118205031D01*
X331299031Y-118173000D01*
X344976969Y-118173000D01*
X345138000Y-118205031D01*
X345299031Y-118173000D01*
X345775945Y-118078136D01*
X346316769Y-117716769D01*
X346678136Y-117175945D01*
X346805031Y-116538000D01*
X346773000Y-116376969D01*
X346773000Y-102699031D01*
X346805031Y-102538000D01*
X346678136Y-101900055D01*
X346316769Y-101359231D01*
X345775945Y-100997864D01*
X345299031Y-100903000D01*
X345138000Y-100870969D01*
X344976969Y-100903000D01*
X331299031Y-100903000D01*
X331138000Y-100870969D01*
X330976969Y-100903000D01*
X330500055Y-100997864D01*
X329959231Y-101359231D01*
X329597864Y-101900055D01*
X329470969Y-102538000D01*
X327755031Y-102538000D01*
X327628136Y-101900055D01*
X327266769Y-101359231D01*
X326725945Y-100997864D01*
X326249031Y-100903000D01*
X326088000Y-100870969D01*
X325926969Y-100903000D01*
X312249031Y-100903000D01*
X312088000Y-100870969D01*
X311926969Y-100903000D01*
X311450055Y-100997864D01*
X310909231Y-101359231D01*
X310547864Y-101900055D01*
X310420969Y-102538000D01*
X308705031Y-102538000D01*
X308578136Y-101900055D01*
X308216769Y-101359231D01*
X307675945Y-100997864D01*
X307199031Y-100903000D01*
X307038000Y-100870969D01*
X306876969Y-100903000D01*
X293199031Y-100903000D01*
X293038000Y-100870969D01*
X292876969Y-100903000D01*
X292400055Y-100997864D01*
X291859231Y-101359231D01*
X291497864Y-101900055D01*
X291370969Y-102538000D01*
X58673231Y-102538000D01*
X58546336Y-101900055D01*
X58184969Y-101359231D01*
X57644145Y-100997864D01*
X57167231Y-100903000D01*
X57006200Y-100870969D01*
X56845169Y-100903000D01*
X43167231Y-100903000D01*
X43006200Y-100870969D01*
X42845169Y-100903000D01*
X42368255Y-100997864D01*
X41827431Y-101359231D01*
X41466064Y-101900055D01*
X41339169Y-102538000D01*
X37242031Y-102538000D01*
X37115136Y-101900055D01*
X36753769Y-101359231D01*
X36212945Y-100997864D01*
X35736031Y-100903000D01*
X35575000Y-100870969D01*
X35413969Y-100903000D01*
X21736031Y-100903000D01*
X21575000Y-100870969D01*
X21413969Y-100903000D01*
X20937055Y-100997864D01*
X20396231Y-101359231D01*
X20034864Y-101900055D01*
X19907969Y-102538000D01*
X19760000Y-102538000D01*
X19760000Y-83487500D01*
X22814169Y-83487500D01*
X22846201Y-83648536D01*
X22846200Y-87326468D01*
X22846200Y-87326470D01*
X22846201Y-91326469D01*
X22846200Y-97326469D01*
X22814169Y-97487500D01*
X22941064Y-98125445D01*
X23302431Y-98666269D01*
X23843255Y-99027636D01*
X24481200Y-99154531D01*
X24642231Y-99122500D01*
X56320169Y-99122500D01*
X56481200Y-99154531D01*
X56642231Y-99122500D01*
X57119145Y-99027636D01*
X57659969Y-98666269D01*
X58021336Y-98125445D01*
X58148231Y-97487500D01*
X58116200Y-97326469D01*
X58116200Y-83648531D01*
X58148231Y-83487500D01*
X62770469Y-83487500D01*
X62802501Y-83648536D01*
X62802500Y-89648530D01*
X62802501Y-89648533D01*
X62802500Y-93648530D01*
X62802501Y-93648533D01*
X62802500Y-97326469D01*
X62770469Y-97487500D01*
X62897364Y-98125445D01*
X63258731Y-98666269D01*
X63799555Y-99027636D01*
X64437500Y-99154531D01*
X64598531Y-99122500D01*
X78276469Y-99122500D01*
X78437500Y-99154531D01*
X78598531Y-99122500D01*
X79075445Y-99027636D01*
X79616269Y-98666269D01*
X79977636Y-98125445D01*
X80104531Y-97487500D01*
X80072500Y-97326469D01*
X80072500Y-83648531D01*
X80104531Y-83487500D01*
X81820469Y-83487500D01*
X81852501Y-83648536D01*
X81852500Y-89648530D01*
X81852501Y-89648533D01*
X81852500Y-93648530D01*
X81852501Y-93648533D01*
X81852500Y-97326469D01*
X81820469Y-97487500D01*
X81947364Y-98125445D01*
X82308731Y-98666269D01*
X82849555Y-99027636D01*
X83487500Y-99154531D01*
X83648531Y-99122500D01*
X97326469Y-99122500D01*
X97487500Y-99154531D01*
X97648531Y-99122500D01*
X98125445Y-99027636D01*
X98666269Y-98666269D01*
X99027636Y-98125445D01*
X99154531Y-97487500D01*
X99122500Y-97326469D01*
X99122500Y-83648531D01*
X99154531Y-83487500D01*
X100870969Y-83487500D01*
X100903001Y-83648536D01*
X100903000Y-89648530D01*
X100903001Y-89648533D01*
X100903000Y-93648530D01*
X100903001Y-93648533D01*
X100903000Y-97326469D01*
X100870969Y-97487500D01*
X100997864Y-98125445D01*
X101359231Y-98666269D01*
X101900055Y-99027636D01*
X102538000Y-99154531D01*
X102699031Y-99122500D01*
X116376969Y-99122500D01*
X116538000Y-99154531D01*
X116699031Y-99122500D01*
X117175945Y-99027636D01*
X117716769Y-98666269D01*
X118078136Y-98125445D01*
X118205031Y-97487500D01*
X118173000Y-97326469D01*
X118173000Y-83648531D01*
X118205031Y-83487500D01*
X119920969Y-83487500D01*
X119953001Y-83648536D01*
X119953000Y-89648530D01*
X119953001Y-89648533D01*
X119953000Y-93648530D01*
X119953001Y-93648533D01*
X119953000Y-97326469D01*
X119920969Y-97487500D01*
X120047864Y-98125445D01*
X120409231Y-98666269D01*
X120950055Y-99027636D01*
X121588000Y-99154531D01*
X121749031Y-99122500D01*
X135426969Y-99122500D01*
X135588000Y-99154531D01*
X135749031Y-99122500D01*
X136225945Y-99027636D01*
X136766769Y-98666269D01*
X137128136Y-98125445D01*
X137255031Y-97487500D01*
X137223000Y-97326469D01*
X137223000Y-83648531D01*
X137255031Y-83487500D01*
X138970969Y-83487500D01*
X139003001Y-83648536D01*
X139003000Y-89648530D01*
X139003001Y-89648533D01*
X139003000Y-93648530D01*
X139003001Y-93648533D01*
X139003000Y-97326469D01*
X138970969Y-97487500D01*
X139097864Y-98125445D01*
X139459231Y-98666269D01*
X140000055Y-99027636D01*
X140638000Y-99154531D01*
X140799031Y-99122500D01*
X154476969Y-99122500D01*
X154638000Y-99154531D01*
X154799031Y-99122500D01*
X155275945Y-99027636D01*
X155816769Y-98666269D01*
X156178136Y-98125445D01*
X156305031Y-97487500D01*
X156273000Y-97326469D01*
X156273000Y-83648531D01*
X156305031Y-83487500D01*
X158020969Y-83487500D01*
X158053001Y-83648536D01*
X158053000Y-89648530D01*
X158053001Y-89648533D01*
X158053000Y-93648530D01*
X158053001Y-93648533D01*
X158053000Y-97326469D01*
X158020969Y-97487500D01*
X158147864Y-98125445D01*
X158509231Y-98666269D01*
X159050055Y-99027636D01*
X159688000Y-99154531D01*
X159849031Y-99122500D01*
X173526969Y-99122500D01*
X173688000Y-99154531D01*
X173849031Y-99122500D01*
X174325945Y-99027636D01*
X174866769Y-98666269D01*
X175228136Y-98125445D01*
X175355031Y-97487500D01*
X175323000Y-97326469D01*
X175323000Y-83648531D01*
X175355031Y-83487500D01*
X177070969Y-83487500D01*
X177103001Y-83648536D01*
X177103000Y-89648530D01*
X177103001Y-89648533D01*
X177103000Y-93648530D01*
X177103001Y-93648533D01*
X177103000Y-97326469D01*
X177070969Y-97487500D01*
X177197864Y-98125445D01*
X177559231Y-98666269D01*
X178100055Y-99027636D01*
X178738000Y-99154531D01*
X178899031Y-99122500D01*
X192576969Y-99122500D01*
X192738000Y-99154531D01*
X192899031Y-99122500D01*
X193375945Y-99027636D01*
X193916769Y-98666269D01*
X194278136Y-98125445D01*
X194405031Y-97487500D01*
X194373000Y-97326469D01*
X194373000Y-83648531D01*
X194405031Y-83487500D01*
X196120969Y-83487500D01*
X196153001Y-83648536D01*
X196153000Y-89648530D01*
X196153001Y-89648533D01*
X196153000Y-93648530D01*
X196153001Y-93648533D01*
X196153000Y-97326469D01*
X196120969Y-97487500D01*
X196247864Y-98125445D01*
X196609231Y-98666269D01*
X197150055Y-99027636D01*
X197788000Y-99154531D01*
X197949031Y-99122500D01*
X211626969Y-99122500D01*
X211788000Y-99154531D01*
X211949031Y-99122500D01*
X212425945Y-99027636D01*
X212966769Y-98666269D01*
X213328136Y-98125445D01*
X213455031Y-97487500D01*
X213423000Y-97326469D01*
X213423000Y-83648531D01*
X213455031Y-83487500D01*
X215170969Y-83487500D01*
X215203001Y-83648536D01*
X215203000Y-89648530D01*
X215203001Y-89648533D01*
X215203000Y-93648530D01*
X215203001Y-93648533D01*
X215203000Y-97326469D01*
X215170969Y-97487500D01*
X215297864Y-98125445D01*
X215659231Y-98666269D01*
X216200055Y-99027636D01*
X216838000Y-99154531D01*
X216999031Y-99122500D01*
X230676969Y-99122500D01*
X230838000Y-99154531D01*
X230999031Y-99122500D01*
X231475945Y-99027636D01*
X232016769Y-98666269D01*
X232378136Y-98125445D01*
X232505031Y-97487500D01*
X232473000Y-97326469D01*
X232473000Y-83648531D01*
X232505031Y-83487500D01*
X234220969Y-83487500D01*
X234253001Y-83648536D01*
X234253000Y-89648530D01*
X234253001Y-89648533D01*
X234253000Y-93648530D01*
X234253001Y-93648533D01*
X234253000Y-97326469D01*
X234220969Y-97487500D01*
X234347864Y-98125445D01*
X234709231Y-98666269D01*
X235250055Y-99027636D01*
X235888000Y-99154531D01*
X236049031Y-99122500D01*
X249726969Y-99122500D01*
X249888000Y-99154531D01*
X250049031Y-99122500D01*
X250525945Y-99027636D01*
X251066769Y-98666269D01*
X251428136Y-98125445D01*
X251555031Y-97487500D01*
X251523000Y-97326469D01*
X251523000Y-83648531D01*
X251555031Y-83487500D01*
X253270969Y-83487500D01*
X253303001Y-83648536D01*
X253303000Y-89648530D01*
X253303001Y-89648533D01*
X253303000Y-93648530D01*
X253303001Y-93648533D01*
X253303000Y-97326469D01*
X253270969Y-97487500D01*
X253397864Y-98125445D01*
X253759231Y-98666269D01*
X254300055Y-99027636D01*
X254938000Y-99154531D01*
X255099031Y-99122500D01*
X268776969Y-99122500D01*
X268938000Y-99154531D01*
X269099031Y-99122500D01*
X269575945Y-99027636D01*
X270116769Y-98666269D01*
X270478136Y-98125445D01*
X270605031Y-97487500D01*
X270573000Y-97326469D01*
X270573000Y-83648531D01*
X270605031Y-83487500D01*
X272320969Y-83487500D01*
X272353001Y-83648536D01*
X272353000Y-89648530D01*
X272353001Y-89648533D01*
X272353000Y-93648530D01*
X272353001Y-93648533D01*
X272353000Y-97326469D01*
X272320969Y-97487500D01*
X272447864Y-98125445D01*
X272809231Y-98666269D01*
X273350055Y-99027636D01*
X273988000Y-99154531D01*
X274149031Y-99122500D01*
X287826969Y-99122500D01*
X287988000Y-99154531D01*
X288149031Y-99122500D01*
X288625945Y-99027636D01*
X289166769Y-98666269D01*
X289528136Y-98125445D01*
X289655031Y-97487500D01*
X289623000Y-97326469D01*
X289623000Y-83648531D01*
X289655031Y-83487500D01*
X291370969Y-83487500D01*
X291403001Y-83648536D01*
X291403000Y-89648530D01*
X291403001Y-89648533D01*
X291403000Y-93648530D01*
X291403001Y-93648533D01*
X291403000Y-97326469D01*
X291370969Y-97487500D01*
X291497864Y-98125445D01*
X291859231Y-98666269D01*
X292400055Y-99027636D01*
X293038000Y-99154531D01*
X293199031Y-99122500D01*
X306876969Y-99122500D01*
X307038000Y-99154531D01*
X307199031Y-99122500D01*
X307675945Y-99027636D01*
X308216769Y-98666269D01*
X308578136Y-98125445D01*
X308705031Y-97487500D01*
X308673000Y-97326469D01*
X308673000Y-83648531D01*
X308705031Y-83487500D01*
X310420969Y-83487500D01*
X310453001Y-83648536D01*
X310453000Y-89648530D01*
X310453001Y-89648533D01*
X310453000Y-93648530D01*
X310453001Y-93648533D01*
X310453000Y-97326469D01*
X310420969Y-97487500D01*
X310547864Y-98125445D01*
X310909231Y-98666269D01*
X311450055Y-99027636D01*
X312088000Y-99154531D01*
X312249031Y-99122500D01*
X325926969Y-99122500D01*
X326088000Y-99154531D01*
X326249031Y-99122500D01*
X326725945Y-99027636D01*
X327266769Y-98666269D01*
X327628136Y-98125445D01*
X327755031Y-97487500D01*
X327723000Y-97326469D01*
X327723000Y-83648531D01*
X327755031Y-83487500D01*
X327628136Y-82849555D01*
X327266769Y-82308731D01*
X326725945Y-81947364D01*
X326249031Y-81852500D01*
X326088000Y-81820469D01*
X325926969Y-81852500D01*
X312249031Y-81852500D01*
X312088000Y-81820469D01*
X311926969Y-81852500D01*
X311450055Y-81947364D01*
X310909231Y-82308731D01*
X310547864Y-82849555D01*
X310420969Y-83487500D01*
X308705031Y-83487500D01*
X308578136Y-82849555D01*
X308216769Y-82308731D01*
X307675945Y-81947364D01*
X307199031Y-81852500D01*
X307038000Y-81820469D01*
X306876969Y-81852500D01*
X293199031Y-81852500D01*
X293038000Y-81820469D01*
X292876969Y-81852500D01*
X292400055Y-81947364D01*
X291859231Y-82308731D01*
X291497864Y-82849555D01*
X291370969Y-83487500D01*
X289655031Y-83487500D01*
X289528136Y-82849555D01*
X289166769Y-82308731D01*
X288625945Y-81947364D01*
X288149031Y-81852500D01*
X287988000Y-81820469D01*
X287826969Y-81852500D01*
X274149031Y-81852500D01*
X273988000Y-81820469D01*
X273826969Y-81852500D01*
X273350055Y-81947364D01*
X272809231Y-82308731D01*
X272447864Y-82849555D01*
X272320969Y-83487500D01*
X270605031Y-83487500D01*
X270478136Y-82849555D01*
X270116769Y-82308731D01*
X269575945Y-81947364D01*
X269099031Y-81852500D01*
X268938000Y-81820469D01*
X268776969Y-81852500D01*
X255099031Y-81852500D01*
X254938000Y-81820469D01*
X254776969Y-81852500D01*
X254300055Y-81947364D01*
X253759231Y-82308731D01*
X253397864Y-82849555D01*
X253270969Y-83487500D01*
X251555031Y-83487500D01*
X251428136Y-82849555D01*
X251066769Y-82308731D01*
X250525945Y-81947364D01*
X250049031Y-81852500D01*
X249888000Y-81820469D01*
X249726969Y-81852500D01*
X236049031Y-81852500D01*
X235888000Y-81820469D01*
X235726969Y-81852500D01*
X235250055Y-81947364D01*
X234709231Y-82308731D01*
X234347864Y-82849555D01*
X234220969Y-83487500D01*
X232505031Y-83487500D01*
X232378136Y-82849555D01*
X232016769Y-82308731D01*
X231475945Y-81947364D01*
X230999031Y-81852500D01*
X230838000Y-81820469D01*
X230676969Y-81852500D01*
X216999031Y-81852500D01*
X216838000Y-81820469D01*
X216676969Y-81852500D01*
X216200055Y-81947364D01*
X215659231Y-82308731D01*
X215297864Y-82849555D01*
X215170969Y-83487500D01*
X213455031Y-83487500D01*
X213328136Y-82849555D01*
X212966769Y-82308731D01*
X212425945Y-81947364D01*
X211949031Y-81852500D01*
X211788000Y-81820469D01*
X211626969Y-81852500D01*
X197949031Y-81852500D01*
X197788000Y-81820469D01*
X197626969Y-81852500D01*
X197150055Y-81947364D01*
X196609231Y-82308731D01*
X196247864Y-82849555D01*
X196120969Y-83487500D01*
X194405031Y-83487500D01*
X194278136Y-82849555D01*
X193916769Y-82308731D01*
X193375945Y-81947364D01*
X192899031Y-81852500D01*
X192738000Y-81820469D01*
X192576969Y-81852500D01*
X178899031Y-81852500D01*
X178738000Y-81820469D01*
X178576969Y-81852500D01*
X178100055Y-81947364D01*
X177559231Y-82308731D01*
X177197864Y-82849555D01*
X177070969Y-83487500D01*
X175355031Y-83487500D01*
X175228136Y-82849555D01*
X174866769Y-82308731D01*
X174325945Y-81947364D01*
X173849031Y-81852500D01*
X173688000Y-81820469D01*
X173526969Y-81852500D01*
X159849031Y-81852500D01*
X159688000Y-81820469D01*
X159526969Y-81852500D01*
X159050055Y-81947364D01*
X158509231Y-82308731D01*
X158147864Y-82849555D01*
X158020969Y-83487500D01*
X156305031Y-83487500D01*
X156178136Y-82849555D01*
X155816769Y-82308731D01*
X155275945Y-81947364D01*
X154799031Y-81852500D01*
X154638000Y-81820469D01*
X154476969Y-81852500D01*
X140799031Y-81852500D01*
X140638000Y-81820469D01*
X140476969Y-81852500D01*
X140000055Y-81947364D01*
X139459231Y-82308731D01*
X139097864Y-82849555D01*
X138970969Y-83487500D01*
X137255031Y-83487500D01*
X137128136Y-82849555D01*
X136766769Y-82308731D01*
X136225945Y-81947364D01*
X135749031Y-81852500D01*
X135588000Y-81820469D01*
X135426969Y-81852500D01*
X121749031Y-81852500D01*
X121588000Y-81820469D01*
X121426969Y-81852500D01*
X120950055Y-81947364D01*
X120409231Y-82308731D01*
X120047864Y-82849555D01*
X119920969Y-83487500D01*
X118205031Y-83487500D01*
X118078136Y-82849555D01*
X117716769Y-82308731D01*
X117175945Y-81947364D01*
X116699031Y-81852500D01*
X116538000Y-81820469D01*
X116376969Y-81852500D01*
X102699031Y-81852500D01*
X102538000Y-81820469D01*
X102376969Y-81852500D01*
X101900055Y-81947364D01*
X101359231Y-82308731D01*
X100997864Y-82849555D01*
X100870969Y-83487500D01*
X99154531Y-83487500D01*
X99027636Y-82849555D01*
X98666269Y-82308731D01*
X98125445Y-81947364D01*
X97648531Y-81852500D01*
X97487500Y-81820469D01*
X97326469Y-81852500D01*
X83648531Y-81852500D01*
X83487500Y-81820469D01*
X83326469Y-81852500D01*
X82849555Y-81947364D01*
X82308731Y-82308731D01*
X81947364Y-82849555D01*
X81820469Y-83487500D01*
X80104531Y-83487500D01*
X79977636Y-82849555D01*
X79616269Y-82308731D01*
X79075445Y-81947364D01*
X78598531Y-81852500D01*
X78437500Y-81820469D01*
X78276469Y-81852500D01*
X64598531Y-81852500D01*
X64437500Y-81820469D01*
X64276469Y-81852500D01*
X63799555Y-81947364D01*
X63258731Y-82308731D01*
X62897364Y-82849555D01*
X62770469Y-83487500D01*
X58148231Y-83487500D01*
X58021336Y-82849555D01*
X57659969Y-82308731D01*
X57119145Y-81947364D01*
X56642231Y-81852500D01*
X56481200Y-81820469D01*
X56320169Y-81852500D01*
X55606486Y-81852500D01*
X55309969Y-81408731D01*
X54769145Y-81047364D01*
X54292231Y-80952500D01*
X54131200Y-80920469D01*
X53970169Y-80952500D01*
X50892231Y-80952500D01*
X50731200Y-80920469D01*
X50570169Y-80952500D01*
X50093255Y-81047364D01*
X49552431Y-81408731D01*
X49255914Y-81852500D01*
X31706486Y-81852500D01*
X31409969Y-81408731D01*
X30869145Y-81047364D01*
X30392231Y-80952500D01*
X30231200Y-80920469D01*
X30070169Y-80952500D01*
X26992231Y-80952500D01*
X26831200Y-80920469D01*
X26670169Y-80952500D01*
X26193255Y-81047364D01*
X25652431Y-81408731D01*
X25355914Y-81852500D01*
X24642231Y-81852500D01*
X24481200Y-81820469D01*
X24320169Y-81852500D01*
X23843255Y-81947364D01*
X23302431Y-82308731D01*
X22941064Y-82849555D01*
X22814169Y-83487500D01*
X19760000Y-83487500D01*
X19760000Y-64437500D01*
X41339169Y-64437500D01*
X41371201Y-64598536D01*
X41371200Y-70598530D01*
X41371201Y-70598533D01*
X41371200Y-74598530D01*
X41371201Y-74598533D01*
X41371200Y-78276469D01*
X41339169Y-78437500D01*
X41466064Y-79075445D01*
X41827431Y-79616269D01*
X42368255Y-79977636D01*
X42824663Y-80068421D01*
X43006200Y-80104531D01*
X43167231Y-80072500D01*
X56845169Y-80072500D01*
X57006200Y-80104531D01*
X57167231Y-80072500D01*
X57644145Y-79977636D01*
X58184969Y-79616269D01*
X58546336Y-79075445D01*
X58673231Y-78437500D01*
X58641200Y-78276469D01*
X58641200Y-64598531D01*
X58673231Y-64437500D01*
X67532969Y-64437500D01*
X67565001Y-64598536D01*
X67565000Y-70598530D01*
X67565001Y-70598533D01*
X67565000Y-74598530D01*
X67565001Y-74598533D01*
X67565000Y-78276469D01*
X67532969Y-78437500D01*
X67659864Y-79075445D01*
X68021231Y-79616269D01*
X68562055Y-79977636D01*
X69018463Y-80068421D01*
X69200000Y-80104531D01*
X69361031Y-80072500D01*
X83038969Y-80072500D01*
X83200000Y-80104531D01*
X83361031Y-80072500D01*
X83837945Y-79977636D01*
X84378769Y-79616269D01*
X84740136Y-79075445D01*
X84867031Y-78437500D01*
X84835000Y-78276469D01*
X84835000Y-64598531D01*
X84867031Y-64437500D01*
X86582969Y-64437500D01*
X86615001Y-64598536D01*
X86615000Y-70598530D01*
X86615001Y-70598533D01*
X86615000Y-74598530D01*
X86615001Y-74598533D01*
X86615000Y-78276469D01*
X86582969Y-78437500D01*
X86709864Y-79075445D01*
X87071231Y-79616269D01*
X87612055Y-79977636D01*
X88068463Y-80068421D01*
X88250000Y-80104531D01*
X88411031Y-80072500D01*
X102088969Y-80072500D01*
X102250000Y-80104531D01*
X102411031Y-80072500D01*
X102887945Y-79977636D01*
X103428769Y-79616269D01*
X103790136Y-79075445D01*
X103917031Y-78437500D01*
X103885000Y-78276469D01*
X103885000Y-64598531D01*
X103917031Y-64437500D01*
X105632969Y-64437500D01*
X105665001Y-64598536D01*
X105665000Y-70598530D01*
X105665001Y-70598533D01*
X105665000Y-74598530D01*
X105665001Y-74598533D01*
X105665000Y-78276469D01*
X105632969Y-78437500D01*
X105759864Y-79075445D01*
X106121231Y-79616269D01*
X106662055Y-79977636D01*
X107118463Y-80068421D01*
X107300000Y-80104531D01*
X107461031Y-80072500D01*
X121138969Y-80072500D01*
X121300000Y-80104531D01*
X121461031Y-80072500D01*
X121937945Y-79977636D01*
X122478769Y-79616269D01*
X122840136Y-79075445D01*
X122967031Y-78437500D01*
X122935000Y-78276469D01*
X122935000Y-64598531D01*
X122967031Y-64437500D01*
X124682969Y-64437500D01*
X124715001Y-64598536D01*
X124715000Y-70598530D01*
X124715001Y-70598533D01*
X124715000Y-74598530D01*
X124715001Y-74598533D01*
X124715000Y-78276469D01*
X124682969Y-78437500D01*
X124809864Y-79075445D01*
X125171231Y-79616269D01*
X125712055Y-79977636D01*
X126168463Y-80068421D01*
X126350000Y-80104531D01*
X126511031Y-80072500D01*
X140188969Y-80072500D01*
X140350000Y-80104531D01*
X140511031Y-80072500D01*
X140987945Y-79977636D01*
X141528769Y-79616269D01*
X141890136Y-79075445D01*
X142017031Y-78437500D01*
X141985000Y-78276469D01*
X141985000Y-64598531D01*
X142017031Y-64437500D01*
X143732969Y-64437500D01*
X143765001Y-64598536D01*
X143765000Y-70598530D01*
X143765001Y-70598533D01*
X143765000Y-74598530D01*
X143765001Y-74598533D01*
X143765000Y-78276469D01*
X143732969Y-78437500D01*
X143859864Y-79075445D01*
X144221231Y-79616269D01*
X144762055Y-79977636D01*
X145218463Y-80068421D01*
X145400000Y-80104531D01*
X145561031Y-80072500D01*
X159238969Y-80072500D01*
X159400000Y-80104531D01*
X159561031Y-80072500D01*
X160037945Y-79977636D01*
X160578769Y-79616269D01*
X160940136Y-79075445D01*
X161067031Y-78437500D01*
X161035000Y-78276469D01*
X161035000Y-64598531D01*
X161067031Y-64437500D01*
X162782969Y-64437500D01*
X162815001Y-64598536D01*
X162815000Y-70598530D01*
X162815001Y-70598533D01*
X162815000Y-74598530D01*
X162815001Y-74598533D01*
X162815000Y-78276469D01*
X162782969Y-78437500D01*
X162909864Y-79075445D01*
X163271231Y-79616269D01*
X163812055Y-79977636D01*
X164268463Y-80068421D01*
X164450000Y-80104531D01*
X164611031Y-80072500D01*
X178288969Y-80072500D01*
X178450000Y-80104531D01*
X178611031Y-80072500D01*
X179087945Y-79977636D01*
X179628769Y-79616269D01*
X179990136Y-79075445D01*
X180117031Y-78437500D01*
X180085000Y-78276469D01*
X180085000Y-67932382D01*
X183770223Y-67932382D01*
X184015368Y-68323888D01*
X185059360Y-68750609D01*
X186187181Y-68745330D01*
X187204632Y-68323888D01*
X187449777Y-67932382D01*
X185610000Y-66092605D01*
X183770223Y-67932382D01*
X180085000Y-67932382D01*
X180085000Y-65362360D01*
X182772391Y-65362360D01*
X182777670Y-66490181D01*
X183199112Y-67507632D01*
X183590618Y-67752777D01*
X185430395Y-65913000D01*
X185789605Y-65913000D01*
X187629382Y-67752777D01*
X188020888Y-67507632D01*
X188447609Y-66463640D01*
X188442330Y-65335819D01*
X188070235Y-64437500D01*
X191357969Y-64437500D01*
X191390001Y-64598536D01*
X191390000Y-70598530D01*
X191390001Y-70598533D01*
X191390000Y-74598530D01*
X191390001Y-74598533D01*
X191390000Y-78276469D01*
X191357969Y-78437500D01*
X191484864Y-79075445D01*
X191846231Y-79616269D01*
X192387055Y-79977636D01*
X192843463Y-80068421D01*
X193025000Y-80104531D01*
X193186031Y-80072500D01*
X206863969Y-80072500D01*
X207025000Y-80104531D01*
X207186031Y-80072500D01*
X207662945Y-79977636D01*
X208203769Y-79616269D01*
X208565136Y-79075445D01*
X208692031Y-78437500D01*
X208660000Y-78276469D01*
X208660000Y-64598531D01*
X208692031Y-64437500D01*
X210407969Y-64437500D01*
X210440001Y-64598536D01*
X210440000Y-70598530D01*
X210440001Y-70598533D01*
X210440000Y-74598530D01*
X210440001Y-74598533D01*
X210440000Y-78276469D01*
X210407969Y-78437500D01*
X210534864Y-79075445D01*
X210896231Y-79616269D01*
X211437055Y-79977636D01*
X211893463Y-80068421D01*
X212075000Y-80104531D01*
X212236031Y-80072500D01*
X225913969Y-80072500D01*
X226075000Y-80104531D01*
X226236031Y-80072500D01*
X226712945Y-79977636D01*
X227253769Y-79616269D01*
X227615136Y-79075445D01*
X227742031Y-78437500D01*
X227710000Y-78276469D01*
X227710000Y-64598531D01*
X227742031Y-64437500D01*
X229457969Y-64437500D01*
X229490001Y-64598536D01*
X229490000Y-70598530D01*
X229490001Y-70598533D01*
X229490000Y-74598530D01*
X229490001Y-74598533D01*
X229490000Y-78276469D01*
X229457969Y-78437500D01*
X229584864Y-79075445D01*
X229946231Y-79616269D01*
X230487055Y-79977636D01*
X230943463Y-80068421D01*
X231125000Y-80104531D01*
X231286031Y-80072500D01*
X244963969Y-80072500D01*
X245125000Y-80104531D01*
X245286031Y-80072500D01*
X245762945Y-79977636D01*
X246303769Y-79616269D01*
X246665136Y-79075445D01*
X246792031Y-78437500D01*
X246760000Y-78276469D01*
X246760000Y-64598531D01*
X246792031Y-64437500D01*
X248507969Y-64437500D01*
X248540001Y-64598536D01*
X248540000Y-70598530D01*
X248540001Y-70598533D01*
X248540000Y-74598530D01*
X248540001Y-74598533D01*
X248540000Y-78276469D01*
X248507969Y-78437500D01*
X248634864Y-79075445D01*
X248996231Y-79616269D01*
X249537055Y-79977636D01*
X249993463Y-80068421D01*
X250175000Y-80104531D01*
X250336031Y-80072500D01*
X264013969Y-80072500D01*
X264175000Y-80104531D01*
X264336031Y-80072500D01*
X264812945Y-79977636D01*
X265353769Y-79616269D01*
X265715136Y-79075445D01*
X265842031Y-78437500D01*
X265810000Y-78276469D01*
X265810000Y-64598531D01*
X265842031Y-64437500D01*
X267557969Y-64437500D01*
X267590001Y-64598536D01*
X267590000Y-70598530D01*
X267590001Y-70598533D01*
X267590000Y-74598530D01*
X267590001Y-74598533D01*
X267590000Y-78276469D01*
X267557969Y-78437500D01*
X267684864Y-79075445D01*
X268046231Y-79616269D01*
X268587055Y-79977636D01*
X269043463Y-80068421D01*
X269225000Y-80104531D01*
X269386031Y-80072500D01*
X283063969Y-80072500D01*
X283225000Y-80104531D01*
X283386031Y-80072500D01*
X283862945Y-79977636D01*
X284403769Y-79616269D01*
X284765136Y-79075445D01*
X284892031Y-78437500D01*
X284860000Y-78276469D01*
X284860000Y-64598531D01*
X284892031Y-64437500D01*
X286607969Y-64437500D01*
X286640001Y-64598536D01*
X286640000Y-70598530D01*
X286640001Y-70598533D01*
X286640000Y-74598530D01*
X286640001Y-74598533D01*
X286640000Y-78276469D01*
X286607969Y-78437500D01*
X286734864Y-79075445D01*
X287096231Y-79616269D01*
X287637055Y-79977636D01*
X288093463Y-80068421D01*
X288275000Y-80104531D01*
X288436031Y-80072500D01*
X302113969Y-80072500D01*
X302275000Y-80104531D01*
X302436031Y-80072500D01*
X302912945Y-79977636D01*
X303453769Y-79616269D01*
X303815136Y-79075445D01*
X303942031Y-78437500D01*
X303910000Y-78276469D01*
X303910000Y-64598531D01*
X303942031Y-64437500D01*
X308563969Y-64437500D01*
X308596001Y-64598536D01*
X308596000Y-68276468D01*
X308596000Y-68276470D01*
X308596001Y-72276469D01*
X308596000Y-78276469D01*
X308563969Y-78437500D01*
X308690864Y-79075445D01*
X309052231Y-79616269D01*
X309593055Y-79977636D01*
X310049463Y-80068421D01*
X310231000Y-80104531D01*
X310392031Y-80072500D01*
X342069969Y-80072500D01*
X342231000Y-80104531D01*
X342392031Y-80072500D01*
X342868945Y-79977636D01*
X343409769Y-79616269D01*
X343771136Y-79075445D01*
X343898031Y-78437500D01*
X343866000Y-78276469D01*
X343866000Y-64598531D01*
X343898031Y-64437500D01*
X343841625Y-64153925D01*
X343771136Y-63799555D01*
X343409769Y-63258731D01*
X342868945Y-62897364D01*
X342231000Y-62770469D01*
X342069969Y-62802500D01*
X341356286Y-62802500D01*
X341059769Y-62358731D01*
X340518945Y-61997364D01*
X340042031Y-61902500D01*
X339881000Y-61870469D01*
X339719969Y-61902500D01*
X336642031Y-61902500D01*
X336481000Y-61870469D01*
X336319969Y-61902500D01*
X335843055Y-61997364D01*
X335302231Y-62358731D01*
X335005714Y-62802500D01*
X317456286Y-62802500D01*
X317159769Y-62358731D01*
X316618945Y-61997364D01*
X316142031Y-61902500D01*
X315981000Y-61870469D01*
X315819969Y-61902500D01*
X312742031Y-61902500D01*
X312581000Y-61870469D01*
X312419969Y-61902500D01*
X311943055Y-61997364D01*
X311402231Y-62358731D01*
X311105714Y-62802500D01*
X310392031Y-62802500D01*
X310231000Y-62770469D01*
X310069969Y-62802500D01*
X309593055Y-62897364D01*
X309052231Y-63258731D01*
X308690864Y-63799555D01*
X308563969Y-64437500D01*
X303942031Y-64437500D01*
X303885625Y-64153925D01*
X303815136Y-63799555D01*
X303453769Y-63258731D01*
X302912945Y-62897364D01*
X302275000Y-62770469D01*
X302113969Y-62802500D01*
X288436031Y-62802500D01*
X288275000Y-62770469D01*
X288113969Y-62802500D01*
X287637055Y-62897364D01*
X287096231Y-63258731D01*
X286734864Y-63799555D01*
X286607969Y-64437500D01*
X284892031Y-64437500D01*
X284835625Y-64153925D01*
X284765136Y-63799555D01*
X284403769Y-63258731D01*
X283862945Y-62897364D01*
X283225000Y-62770469D01*
X283063969Y-62802500D01*
X269386031Y-62802500D01*
X269225000Y-62770469D01*
X269063969Y-62802500D01*
X268587055Y-62897364D01*
X268046231Y-63258731D01*
X267684864Y-63799555D01*
X267557969Y-64437500D01*
X265842031Y-64437500D01*
X265785625Y-64153925D01*
X265715136Y-63799555D01*
X265353769Y-63258731D01*
X264812945Y-62897364D01*
X264175000Y-62770469D01*
X264013969Y-62802500D01*
X250336031Y-62802500D01*
X250175000Y-62770469D01*
X250013969Y-62802500D01*
X249537055Y-62897364D01*
X248996231Y-63258731D01*
X248634864Y-63799555D01*
X248507969Y-64437500D01*
X246792031Y-64437500D01*
X246735625Y-64153925D01*
X246665136Y-63799555D01*
X246303769Y-63258731D01*
X245762945Y-62897364D01*
X245125000Y-62770469D01*
X244963969Y-62802500D01*
X231286031Y-62802500D01*
X231125000Y-62770469D01*
X230963969Y-62802500D01*
X230487055Y-62897364D01*
X229946231Y-63258731D01*
X229584864Y-63799555D01*
X229457969Y-64437500D01*
X227742031Y-64437500D01*
X227685625Y-64153925D01*
X227615136Y-63799555D01*
X227253769Y-63258731D01*
X226712945Y-62897364D01*
X226075000Y-62770469D01*
X225913969Y-62802500D01*
X212236031Y-62802500D01*
X212075000Y-62770469D01*
X211913969Y-62802500D01*
X211437055Y-62897364D01*
X210896231Y-63258731D01*
X210534864Y-63799555D01*
X210407969Y-64437500D01*
X208692031Y-64437500D01*
X208635625Y-64153925D01*
X208565136Y-63799555D01*
X208203769Y-63258731D01*
X207662945Y-62897364D01*
X207025000Y-62770469D01*
X206863969Y-62802500D01*
X193186031Y-62802500D01*
X193025000Y-62770469D01*
X192863969Y-62802500D01*
X192387055Y-62897364D01*
X191846231Y-63258731D01*
X191484864Y-63799555D01*
X191357969Y-64437500D01*
X188070235Y-64437500D01*
X188020888Y-64318368D01*
X187629382Y-64073223D01*
X185789605Y-65913000D01*
X185430395Y-65913000D01*
X183590618Y-64073223D01*
X183199112Y-64318368D01*
X182772391Y-65362360D01*
X180085000Y-65362360D01*
X180085000Y-64598531D01*
X180117031Y-64437500D01*
X180060625Y-64153925D01*
X180008847Y-63893618D01*
X183770223Y-63893618D01*
X185610000Y-65733395D01*
X187449777Y-63893618D01*
X187204632Y-63502112D01*
X186160640Y-63075391D01*
X185032819Y-63080670D01*
X184015368Y-63502112D01*
X183770223Y-63893618D01*
X180008847Y-63893618D01*
X179990136Y-63799555D01*
X179628769Y-63258731D01*
X179087945Y-62897364D01*
X178450000Y-62770469D01*
X178288969Y-62802500D01*
X164611031Y-62802500D01*
X164450000Y-62770469D01*
X164288969Y-62802500D01*
X163812055Y-62897364D01*
X163271231Y-63258731D01*
X162909864Y-63799555D01*
X162782969Y-64437500D01*
X161067031Y-64437500D01*
X161010625Y-64153925D01*
X160940136Y-63799555D01*
X160578769Y-63258731D01*
X160037945Y-62897364D01*
X159400000Y-62770469D01*
X159238969Y-62802500D01*
X145561031Y-62802500D01*
X145400000Y-62770469D01*
X145238969Y-62802500D01*
X144762055Y-62897364D01*
X144221231Y-63258731D01*
X143859864Y-63799555D01*
X143732969Y-64437500D01*
X142017031Y-64437500D01*
X141960625Y-64153925D01*
X141890136Y-63799555D01*
X141528769Y-63258731D01*
X140987945Y-62897364D01*
X140350000Y-62770469D01*
X140188969Y-62802500D01*
X126511031Y-62802500D01*
X126350000Y-62770469D01*
X126188969Y-62802500D01*
X125712055Y-62897364D01*
X125171231Y-63258731D01*
X124809864Y-63799555D01*
X124682969Y-64437500D01*
X122967031Y-64437500D01*
X122910625Y-64153925D01*
X122840136Y-63799555D01*
X122478769Y-63258731D01*
X121937945Y-62897364D01*
X121300000Y-62770469D01*
X121138969Y-62802500D01*
X107461031Y-62802500D01*
X107300000Y-62770469D01*
X107138969Y-62802500D01*
X106662055Y-62897364D01*
X106121231Y-63258731D01*
X105759864Y-63799555D01*
X105632969Y-64437500D01*
X103917031Y-64437500D01*
X103860625Y-64153925D01*
X103790136Y-63799555D01*
X103428769Y-63258731D01*
X102887945Y-62897364D01*
X102250000Y-62770469D01*
X102088969Y-62802500D01*
X88411031Y-62802500D01*
X88250000Y-62770469D01*
X88088969Y-62802500D01*
X87612055Y-62897364D01*
X87071231Y-63258731D01*
X86709864Y-63799555D01*
X86582969Y-64437500D01*
X84867031Y-64437500D01*
X84810625Y-64153925D01*
X84740136Y-63799555D01*
X84378769Y-63258731D01*
X83837945Y-62897364D01*
X83200000Y-62770469D01*
X83038969Y-62802500D01*
X69361031Y-62802500D01*
X69200000Y-62770469D01*
X69038969Y-62802500D01*
X68562055Y-62897364D01*
X68021231Y-63258731D01*
X67659864Y-63799555D01*
X67532969Y-64437500D01*
X58673231Y-64437500D01*
X58616825Y-64153925D01*
X58546336Y-63799555D01*
X58184969Y-63258731D01*
X57644145Y-62897364D01*
X57006200Y-62770469D01*
X56845169Y-62802500D01*
X43167231Y-62802500D01*
X43006200Y-62770469D01*
X42845169Y-62802500D01*
X42368255Y-62897364D01*
X41827431Y-63258731D01*
X41466064Y-63799555D01*
X41339169Y-64437500D01*
X19760000Y-64437500D01*
X19760000Y-45387500D01*
X24670469Y-45387500D01*
X24702501Y-45548536D01*
X24702500Y-51548530D01*
X24702501Y-51548533D01*
X24702500Y-55548530D01*
X24702501Y-55548533D01*
X24702500Y-59226469D01*
X24670469Y-59387500D01*
X24797364Y-60025445D01*
X25158731Y-60566269D01*
X25699555Y-60927636D01*
X26337500Y-61054531D01*
X26498531Y-61022500D01*
X40176469Y-61022500D01*
X40337500Y-61054531D01*
X40498531Y-61022500D01*
X40975445Y-60927636D01*
X41516269Y-60566269D01*
X41877636Y-60025445D01*
X42004531Y-59387500D01*
X41972500Y-59226469D01*
X41972500Y-45548531D01*
X42004531Y-45387500D01*
X48482969Y-45387500D01*
X48515001Y-45548536D01*
X48515000Y-51548530D01*
X48515001Y-51548533D01*
X48515000Y-55548530D01*
X48515001Y-55548533D01*
X48515000Y-59226469D01*
X48482969Y-59387500D01*
X48609864Y-60025445D01*
X48971231Y-60566269D01*
X49512055Y-60927636D01*
X50150000Y-61054531D01*
X50311031Y-61022500D01*
X63988969Y-61022500D01*
X64150000Y-61054531D01*
X64311031Y-61022500D01*
X64787945Y-60927636D01*
X65328769Y-60566269D01*
X65690136Y-60025445D01*
X65817031Y-59387500D01*
X65785000Y-59226469D01*
X65785000Y-45548531D01*
X65817031Y-45387500D01*
X72295469Y-45387500D01*
X72327501Y-45548536D01*
X72327500Y-51548530D01*
X72327501Y-51548533D01*
X72327500Y-55548530D01*
X72327501Y-55548533D01*
X72327500Y-59226469D01*
X72295469Y-59387500D01*
X72422364Y-60025445D01*
X72783731Y-60566269D01*
X73324555Y-60927636D01*
X73962500Y-61054531D01*
X74123531Y-61022500D01*
X87801469Y-61022500D01*
X87962500Y-61054531D01*
X88123531Y-61022500D01*
X88600445Y-60927636D01*
X89141269Y-60566269D01*
X89502636Y-60025445D01*
X89629531Y-59387500D01*
X89597500Y-59226469D01*
X89597500Y-45548531D01*
X89629531Y-45387500D01*
X91344969Y-45387500D01*
X91377001Y-45548536D01*
X91377000Y-51548530D01*
X91377001Y-51548533D01*
X91377000Y-55548530D01*
X91377001Y-55548533D01*
X91377000Y-59226469D01*
X91344969Y-59387500D01*
X91471864Y-60025445D01*
X91833231Y-60566269D01*
X92374055Y-60927636D01*
X93012000Y-61054531D01*
X93173031Y-61022500D01*
X106850969Y-61022500D01*
X107012000Y-61054531D01*
X107173031Y-61022500D01*
X107649945Y-60927636D01*
X108190769Y-60566269D01*
X108552136Y-60025445D01*
X108679031Y-59387500D01*
X108647000Y-59226469D01*
X108647000Y-45548531D01*
X108679031Y-45387500D01*
X110394969Y-45387500D01*
X110427001Y-45548536D01*
X110427000Y-51548530D01*
X110427001Y-51548533D01*
X110427000Y-55548530D01*
X110427001Y-55548533D01*
X110427000Y-59226469D01*
X110394969Y-59387500D01*
X110521864Y-60025445D01*
X110883231Y-60566269D01*
X111424055Y-60927636D01*
X112062000Y-61054531D01*
X112223031Y-61022500D01*
X125900969Y-61022500D01*
X126062000Y-61054531D01*
X126223031Y-61022500D01*
X126699945Y-60927636D01*
X127240769Y-60566269D01*
X127602136Y-60025445D01*
X127729031Y-59387500D01*
X127697000Y-59226469D01*
X127697000Y-45548531D01*
X127729031Y-45387500D01*
X129444969Y-45387500D01*
X129477001Y-45548536D01*
X129477000Y-51548530D01*
X129477001Y-51548533D01*
X129477000Y-55548530D01*
X129477001Y-55548533D01*
X129477000Y-59226469D01*
X129444969Y-59387500D01*
X129571864Y-60025445D01*
X129933231Y-60566269D01*
X130474055Y-60927636D01*
X131112000Y-61054531D01*
X131273031Y-61022500D01*
X144950969Y-61022500D01*
X145112000Y-61054531D01*
X145273031Y-61022500D01*
X145749945Y-60927636D01*
X146290769Y-60566269D01*
X146652136Y-60025445D01*
X146779031Y-59387500D01*
X146747000Y-59226469D01*
X146747000Y-45548531D01*
X146779031Y-45387500D01*
X148494969Y-45387500D01*
X148527001Y-45548536D01*
X148527000Y-51548530D01*
X148527001Y-51548533D01*
X148527000Y-55548530D01*
X148527001Y-55548533D01*
X148527000Y-59226469D01*
X148494969Y-59387500D01*
X148621864Y-60025445D01*
X148983231Y-60566269D01*
X149524055Y-60927636D01*
X150162000Y-61054531D01*
X150323031Y-61022500D01*
X164000969Y-61022500D01*
X164162000Y-61054531D01*
X164323031Y-61022500D01*
X164799945Y-60927636D01*
X165340769Y-60566269D01*
X165702136Y-60025445D01*
X165829031Y-59387500D01*
X165797000Y-59226469D01*
X165797000Y-45548531D01*
X165829031Y-45387500D01*
X167544969Y-45387500D01*
X167577001Y-45548536D01*
X167577000Y-51548530D01*
X167577001Y-51548533D01*
X167577000Y-55548530D01*
X167577001Y-55548533D01*
X167577000Y-59226469D01*
X167544969Y-59387500D01*
X167671864Y-60025445D01*
X168033231Y-60566269D01*
X168574055Y-60927636D01*
X169212000Y-61054531D01*
X169373031Y-61022500D01*
X183050969Y-61022500D01*
X183212000Y-61054531D01*
X183373031Y-61022500D01*
X183849945Y-60927636D01*
X184390769Y-60566269D01*
X184752136Y-60025445D01*
X184879031Y-59387500D01*
X184847000Y-59226469D01*
X184847000Y-45548531D01*
X184879031Y-45387500D01*
X186594969Y-45387500D01*
X186627001Y-45548536D01*
X186627000Y-51548530D01*
X186627001Y-51548533D01*
X186627000Y-55548530D01*
X186627001Y-55548533D01*
X186627000Y-59226469D01*
X186594969Y-59387500D01*
X186721864Y-60025445D01*
X187083231Y-60566269D01*
X187624055Y-60927636D01*
X188262000Y-61054531D01*
X188423031Y-61022500D01*
X202100969Y-61022500D01*
X202262000Y-61054531D01*
X202423031Y-61022500D01*
X202899945Y-60927636D01*
X203440769Y-60566269D01*
X203802136Y-60025445D01*
X203929031Y-59387500D01*
X203897000Y-59226469D01*
X203897000Y-45548531D01*
X203929031Y-45387500D01*
X205644969Y-45387500D01*
X205677001Y-45548536D01*
X205677000Y-51548530D01*
X205677001Y-51548533D01*
X205677000Y-55548530D01*
X205677001Y-55548533D01*
X205677000Y-59226469D01*
X205644969Y-59387500D01*
X205771864Y-60025445D01*
X206133231Y-60566269D01*
X206674055Y-60927636D01*
X207312000Y-61054531D01*
X207473031Y-61022500D01*
X221150969Y-61022500D01*
X221312000Y-61054531D01*
X221473031Y-61022500D01*
X221949945Y-60927636D01*
X222490769Y-60566269D01*
X222852136Y-60025445D01*
X222979031Y-59387500D01*
X222947000Y-59226469D01*
X222947000Y-45548531D01*
X222979031Y-45387500D01*
X224694969Y-45387500D01*
X224727001Y-45548536D01*
X224727000Y-51548530D01*
X224727001Y-51548533D01*
X224727000Y-55548530D01*
X224727001Y-55548533D01*
X224727000Y-59226469D01*
X224694969Y-59387500D01*
X224821864Y-60025445D01*
X225183231Y-60566269D01*
X225724055Y-60927636D01*
X226362000Y-61054531D01*
X226523031Y-61022500D01*
X240200969Y-61022500D01*
X240362000Y-61054531D01*
X240523031Y-61022500D01*
X240999945Y-60927636D01*
X241540769Y-60566269D01*
X241902136Y-60025445D01*
X242029031Y-59387500D01*
X241997000Y-59226469D01*
X241997000Y-45548531D01*
X242029031Y-45387500D01*
X243744969Y-45387500D01*
X243777001Y-45548536D01*
X243777000Y-51548530D01*
X243777001Y-51548533D01*
X243777000Y-55548530D01*
X243777001Y-55548533D01*
X243777000Y-59226469D01*
X243744969Y-59387500D01*
X243871864Y-60025445D01*
X244233231Y-60566269D01*
X244774055Y-60927636D01*
X245412000Y-61054531D01*
X245573031Y-61022500D01*
X259250969Y-61022500D01*
X259412000Y-61054531D01*
X259573031Y-61022500D01*
X260049945Y-60927636D01*
X260590769Y-60566269D01*
X260952136Y-60025445D01*
X261079031Y-59387500D01*
X261047000Y-59226469D01*
X261047000Y-45548531D01*
X261079031Y-45387500D01*
X262794969Y-45387500D01*
X262827001Y-45548536D01*
X262827000Y-51548530D01*
X262827001Y-51548533D01*
X262827000Y-55548530D01*
X262827001Y-55548533D01*
X262827000Y-59226469D01*
X262794969Y-59387500D01*
X262921864Y-60025445D01*
X263283231Y-60566269D01*
X263824055Y-60927636D01*
X264462000Y-61054531D01*
X264623031Y-61022500D01*
X278300969Y-61022500D01*
X278462000Y-61054531D01*
X278623031Y-61022500D01*
X279099945Y-60927636D01*
X279640769Y-60566269D01*
X280002136Y-60025445D01*
X280129031Y-59387500D01*
X280097000Y-59226469D01*
X280097000Y-45548531D01*
X280129031Y-45387500D01*
X281844969Y-45387500D01*
X281877001Y-45548536D01*
X281877000Y-51548530D01*
X281877001Y-51548533D01*
X281877000Y-55548530D01*
X281877001Y-55548533D01*
X281877000Y-59226469D01*
X281844969Y-59387500D01*
X281971864Y-60025445D01*
X282333231Y-60566269D01*
X282874055Y-60927636D01*
X283512000Y-61054531D01*
X283673031Y-61022500D01*
X297350969Y-61022500D01*
X297512000Y-61054531D01*
X297673031Y-61022500D01*
X298149945Y-60927636D01*
X298690769Y-60566269D01*
X299052136Y-60025445D01*
X299179031Y-59387500D01*
X299147000Y-59226469D01*
X299147000Y-45548531D01*
X299179031Y-45387500D01*
X305657969Y-45387500D01*
X305690001Y-45548536D01*
X305690000Y-51548530D01*
X305690001Y-51548533D01*
X305690000Y-55548530D01*
X305690001Y-55548533D01*
X305690000Y-59226469D01*
X305657969Y-59387500D01*
X305784864Y-60025445D01*
X306146231Y-60566269D01*
X306687055Y-60927636D01*
X307325000Y-61054531D01*
X307486031Y-61022500D01*
X321163969Y-61022500D01*
X321325000Y-61054531D01*
X321486031Y-61022500D01*
X321962945Y-60927636D01*
X322503769Y-60566269D01*
X322865136Y-60025445D01*
X322992031Y-59387500D01*
X322960000Y-59226469D01*
X322960000Y-45548531D01*
X322992031Y-45387500D01*
X329470969Y-45387500D01*
X329503001Y-45548536D01*
X329503000Y-51548530D01*
X329503001Y-51548533D01*
X329503000Y-55548530D01*
X329503001Y-55548533D01*
X329503000Y-59226469D01*
X329470969Y-59387500D01*
X329597864Y-60025445D01*
X329959231Y-60566269D01*
X330500055Y-60927636D01*
X331138000Y-61054531D01*
X331299031Y-61022500D01*
X344976969Y-61022500D01*
X345138000Y-61054531D01*
X345299031Y-61022500D01*
X345775945Y-60927636D01*
X346316769Y-60566269D01*
X346678136Y-60025445D01*
X346805031Y-59387500D01*
X346773000Y-59226469D01*
X346773000Y-45548531D01*
X346805031Y-45387500D01*
X346678136Y-44749555D01*
X346316769Y-44208731D01*
X345775945Y-43847364D01*
X345299031Y-43752500D01*
X345138000Y-43720469D01*
X344976969Y-43752500D01*
X331299031Y-43752500D01*
X331138000Y-43720469D01*
X330976969Y-43752500D01*
X330500055Y-43847364D01*
X329959231Y-44208731D01*
X329597864Y-44749555D01*
X329470969Y-45387500D01*
X322992031Y-45387500D01*
X322865136Y-44749555D01*
X322503769Y-44208731D01*
X321962945Y-43847364D01*
X321486031Y-43752500D01*
X321325000Y-43720469D01*
X321163969Y-43752500D01*
X307486031Y-43752500D01*
X307325000Y-43720469D01*
X307163969Y-43752500D01*
X306687055Y-43847364D01*
X306146231Y-44208731D01*
X305784864Y-44749555D01*
X305657969Y-45387500D01*
X299179031Y-45387500D01*
X299052136Y-44749555D01*
X298690769Y-44208731D01*
X298149945Y-43847364D01*
X297673031Y-43752500D01*
X297512000Y-43720469D01*
X297350969Y-43752500D01*
X283673031Y-43752500D01*
X283512000Y-43720469D01*
X283350969Y-43752500D01*
X282874055Y-43847364D01*
X282333231Y-44208731D01*
X281971864Y-44749555D01*
X281844969Y-45387500D01*
X280129031Y-45387500D01*
X280002136Y-44749555D01*
X279640769Y-44208731D01*
X279099945Y-43847364D01*
X278623031Y-43752500D01*
X278462000Y-43720469D01*
X278300969Y-43752500D01*
X264623031Y-43752500D01*
X264462000Y-43720469D01*
X264300969Y-43752500D01*
X263824055Y-43847364D01*
X263283231Y-44208731D01*
X262921864Y-44749555D01*
X262794969Y-45387500D01*
X261079031Y-45387500D01*
X260952136Y-44749555D01*
X260590769Y-44208731D01*
X260049945Y-43847364D01*
X259573031Y-43752500D01*
X259412000Y-43720469D01*
X259250969Y-43752500D01*
X245573031Y-43752500D01*
X245412000Y-43720469D01*
X245250969Y-43752500D01*
X244774055Y-43847364D01*
X244233231Y-44208731D01*
X243871864Y-44749555D01*
X243744969Y-45387500D01*
X242029031Y-45387500D01*
X241902136Y-44749555D01*
X241540769Y-44208731D01*
X240999945Y-43847364D01*
X240523031Y-43752500D01*
X240362000Y-43720469D01*
X240200969Y-43752500D01*
X226523031Y-43752500D01*
X226362000Y-43720469D01*
X226200969Y-43752500D01*
X225724055Y-43847364D01*
X225183231Y-44208731D01*
X224821864Y-44749555D01*
X224694969Y-45387500D01*
X222979031Y-45387500D01*
X222852136Y-44749555D01*
X222490769Y-44208731D01*
X221949945Y-43847364D01*
X221473031Y-43752500D01*
X221312000Y-43720469D01*
X221150969Y-43752500D01*
X207473031Y-43752500D01*
X207312000Y-43720469D01*
X207150969Y-43752500D01*
X206674055Y-43847364D01*
X206133231Y-44208731D01*
X205771864Y-44749555D01*
X205644969Y-45387500D01*
X203929031Y-45387500D01*
X203802136Y-44749555D01*
X203440769Y-44208731D01*
X202899945Y-43847364D01*
X202423031Y-43752500D01*
X202262000Y-43720469D01*
X202100969Y-43752500D01*
X188423031Y-43752500D01*
X188262000Y-43720469D01*
X188100969Y-43752500D01*
X187624055Y-43847364D01*
X187083231Y-44208731D01*
X186721864Y-44749555D01*
X186594969Y-45387500D01*
X184879031Y-45387500D01*
X184752136Y-44749555D01*
X184390769Y-44208731D01*
X183849945Y-43847364D01*
X183373031Y-43752500D01*
X183212000Y-43720469D01*
X183050969Y-43752500D01*
X169373031Y-43752500D01*
X169212000Y-43720469D01*
X169050969Y-43752500D01*
X168574055Y-43847364D01*
X168033231Y-44208731D01*
X167671864Y-44749555D01*
X167544969Y-45387500D01*
X165829031Y-45387500D01*
X165702136Y-44749555D01*
X165340769Y-44208731D01*
X164799945Y-43847364D01*
X164323031Y-43752500D01*
X164162000Y-43720469D01*
X164000969Y-43752500D01*
X150323031Y-43752500D01*
X150162000Y-43720469D01*
X150000969Y-43752500D01*
X149524055Y-43847364D01*
X148983231Y-44208731D01*
X148621864Y-44749555D01*
X148494969Y-45387500D01*
X146779031Y-45387500D01*
X146652136Y-44749555D01*
X146290769Y-44208731D01*
X145749945Y-43847364D01*
X145273031Y-43752500D01*
X145112000Y-43720469D01*
X144950969Y-43752500D01*
X131273031Y-43752500D01*
X131112000Y-43720469D01*
X130950969Y-43752500D01*
X130474055Y-43847364D01*
X129933231Y-44208731D01*
X129571864Y-44749555D01*
X129444969Y-45387500D01*
X127729031Y-45387500D01*
X127602136Y-44749555D01*
X127240769Y-44208731D01*
X126699945Y-43847364D01*
X126223031Y-43752500D01*
X126062000Y-43720469D01*
X125900969Y-43752500D01*
X112223031Y-43752500D01*
X112062000Y-43720469D01*
X111900969Y-43752500D01*
X111424055Y-43847364D01*
X110883231Y-44208731D01*
X110521864Y-44749555D01*
X110394969Y-45387500D01*
X108679031Y-45387500D01*
X108552136Y-44749555D01*
X108190769Y-44208731D01*
X107649945Y-43847364D01*
X107173031Y-43752500D01*
X107012000Y-43720469D01*
X106850969Y-43752500D01*
X93173031Y-43752500D01*
X93012000Y-43720469D01*
X92850969Y-43752500D01*
X92374055Y-43847364D01*
X91833231Y-44208731D01*
X91471864Y-44749555D01*
X91344969Y-45387500D01*
X89629531Y-45387500D01*
X89502636Y-44749555D01*
X89141269Y-44208731D01*
X88600445Y-43847364D01*
X88123531Y-43752500D01*
X87962500Y-43720469D01*
X87801469Y-43752500D01*
X74123531Y-43752500D01*
X73962500Y-43720469D01*
X73801469Y-43752500D01*
X73324555Y-43847364D01*
X72783731Y-44208731D01*
X72422364Y-44749555D01*
X72295469Y-45387500D01*
X65817031Y-45387500D01*
X65690136Y-44749555D01*
X65328769Y-44208731D01*
X64787945Y-43847364D01*
X64311031Y-43752500D01*
X64150000Y-43720469D01*
X63988969Y-43752500D01*
X50311031Y-43752500D01*
X50150000Y-43720469D01*
X49988969Y-43752500D01*
X49512055Y-43847364D01*
X48971231Y-44208731D01*
X48609864Y-44749555D01*
X48482969Y-45387500D01*
X42004531Y-45387500D01*
X41877636Y-44749555D01*
X41516269Y-44208731D01*
X40975445Y-43847364D01*
X40498531Y-43752500D01*
X40337500Y-43720469D01*
X40176469Y-43752500D01*
X26498531Y-43752500D01*
X26337500Y-43720469D01*
X26176469Y-43752500D01*
X25699555Y-43847364D01*
X25158731Y-44208731D01*
X24797364Y-44749555D01*
X24670469Y-45387500D01*
X19760000Y-45387500D01*
X19760000Y-36626882D01*
X20385223Y-36626882D01*
X20630368Y-37018388D01*
X21674360Y-37445109D01*
X22802181Y-37439830D01*
X23819632Y-37018388D01*
X24064777Y-36626882D01*
X22225000Y-34787105D01*
X20385223Y-36626882D01*
X19760000Y-36626882D01*
X19760000Y-36071494D01*
X19814112Y-36202132D01*
X20205618Y-36447277D01*
X22045395Y-34607500D01*
X22404605Y-34607500D01*
X24244382Y-36447277D01*
X24635888Y-36202132D01*
X24702500Y-36039163D01*
X24702500Y-36498530D01*
X24702501Y-36498533D01*
X24702500Y-40176469D01*
X24670469Y-40337500D01*
X24797364Y-40975445D01*
X25047700Y-41350099D01*
X25158731Y-41516269D01*
X25699555Y-41877636D01*
X26337500Y-42004531D01*
X26498531Y-41972500D01*
X40176469Y-41972500D01*
X40337500Y-42004531D01*
X40498531Y-41972500D01*
X40975445Y-41877636D01*
X41516269Y-41516269D01*
X41877636Y-40975445D01*
X42004531Y-40337500D01*
X41972500Y-40176469D01*
X41972500Y-26498531D01*
X42004531Y-26337500D01*
X43720469Y-26337500D01*
X43752501Y-26498536D01*
X43752500Y-32498530D01*
X43752501Y-32498533D01*
X43752500Y-36498530D01*
X43752501Y-36498533D01*
X43752500Y-40176469D01*
X43720469Y-40337500D01*
X43847364Y-40975445D01*
X44097700Y-41350099D01*
X44208731Y-41516269D01*
X44749555Y-41877636D01*
X45387500Y-42004531D01*
X45548531Y-41972500D01*
X59226469Y-41972500D01*
X59387500Y-42004531D01*
X59548531Y-41972500D01*
X60025445Y-41877636D01*
X60566269Y-41516269D01*
X60927636Y-40975445D01*
X61054531Y-40337500D01*
X61022500Y-40176469D01*
X61022500Y-26498531D01*
X61054531Y-26337500D01*
X62770469Y-26337500D01*
X62802501Y-26498536D01*
X62802500Y-32498530D01*
X62802501Y-32498533D01*
X62802500Y-36498530D01*
X62802501Y-36498533D01*
X62802500Y-40176469D01*
X62770469Y-40337500D01*
X62897364Y-40975445D01*
X63147700Y-41350099D01*
X63258731Y-41516269D01*
X63799555Y-41877636D01*
X64437500Y-42004531D01*
X64598531Y-41972500D01*
X78276469Y-41972500D01*
X78437500Y-42004531D01*
X78598531Y-41972500D01*
X79075445Y-41877636D01*
X79616269Y-41516269D01*
X79977636Y-40975445D01*
X80104531Y-40337500D01*
X80072500Y-40176469D01*
X80072500Y-26498531D01*
X80104531Y-26337500D01*
X81820469Y-26337500D01*
X81852501Y-26498536D01*
X81852500Y-32498530D01*
X81852501Y-32498533D01*
X81852500Y-36498530D01*
X81852501Y-36498533D01*
X81852500Y-40176469D01*
X81820469Y-40337500D01*
X81947364Y-40975445D01*
X82197700Y-41350099D01*
X82308731Y-41516269D01*
X82849555Y-41877636D01*
X83487500Y-42004531D01*
X83648531Y-41972500D01*
X97326469Y-41972500D01*
X97487500Y-42004531D01*
X97648531Y-41972500D01*
X98125445Y-41877636D01*
X98666269Y-41516269D01*
X99027636Y-40975445D01*
X99154531Y-40337500D01*
X99122500Y-40176469D01*
X99122500Y-26498531D01*
X99154531Y-26337500D01*
X100870969Y-26337500D01*
X100903001Y-26498536D01*
X100903000Y-32498530D01*
X100903001Y-32498533D01*
X100903000Y-36498530D01*
X100903001Y-36498533D01*
X100903000Y-40176469D01*
X100870969Y-40337500D01*
X100997864Y-40975445D01*
X101248200Y-41350099D01*
X101359231Y-41516269D01*
X101900055Y-41877636D01*
X102538000Y-42004531D01*
X102699031Y-41972500D01*
X116376969Y-41972500D01*
X116538000Y-42004531D01*
X116699031Y-41972500D01*
X117175945Y-41877636D01*
X117716769Y-41516269D01*
X118078136Y-40975445D01*
X118205031Y-40337500D01*
X118173000Y-40176469D01*
X118173000Y-26498531D01*
X118205031Y-26337500D01*
X119920969Y-26337500D01*
X119953001Y-26498536D01*
X119953000Y-32498530D01*
X119953001Y-32498533D01*
X119953000Y-36498530D01*
X119953001Y-36498533D01*
X119953000Y-40176469D01*
X119920969Y-40337500D01*
X120047864Y-40975445D01*
X120298200Y-41350099D01*
X120409231Y-41516269D01*
X120950055Y-41877636D01*
X121588000Y-42004531D01*
X121749031Y-41972500D01*
X135426969Y-41972500D01*
X135588000Y-42004531D01*
X135749031Y-41972500D01*
X136225945Y-41877636D01*
X136766769Y-41516269D01*
X137128136Y-40975445D01*
X137255031Y-40337500D01*
X137223000Y-40176469D01*
X137223000Y-26498531D01*
X137255031Y-26337500D01*
X138970969Y-26337500D01*
X139003001Y-26498536D01*
X139003000Y-32498530D01*
X139003001Y-32498533D01*
X139003000Y-36498530D01*
X139003001Y-36498533D01*
X139003000Y-40176469D01*
X138970969Y-40337500D01*
X139097864Y-40975445D01*
X139348200Y-41350099D01*
X139459231Y-41516269D01*
X140000055Y-41877636D01*
X140638000Y-42004531D01*
X140799031Y-41972500D01*
X154476969Y-41972500D01*
X154638000Y-42004531D01*
X154799031Y-41972500D01*
X155275945Y-41877636D01*
X155816769Y-41516269D01*
X156178136Y-40975445D01*
X156305031Y-40337500D01*
X156273000Y-40176469D01*
X156273000Y-26498531D01*
X156305031Y-26337500D01*
X158020969Y-26337500D01*
X158053001Y-26498536D01*
X158053000Y-32498530D01*
X158053001Y-32498533D01*
X158053000Y-36498530D01*
X158053001Y-36498533D01*
X158053000Y-40176469D01*
X158020969Y-40337500D01*
X158147864Y-40975445D01*
X158398200Y-41350099D01*
X158509231Y-41516269D01*
X159050055Y-41877636D01*
X159688000Y-42004531D01*
X159849031Y-41972500D01*
X173526969Y-41972500D01*
X173688000Y-42004531D01*
X173849031Y-41972500D01*
X174325945Y-41877636D01*
X174866769Y-41516269D01*
X175228136Y-40975445D01*
X175355031Y-40337500D01*
X175323000Y-40176469D01*
X175323000Y-26498531D01*
X175355031Y-26337500D01*
X177070969Y-26337500D01*
X177103001Y-26498536D01*
X177103000Y-32498530D01*
X177103001Y-32498533D01*
X177103000Y-36498530D01*
X177103001Y-36498533D01*
X177103000Y-40176469D01*
X177070969Y-40337500D01*
X177197864Y-40975445D01*
X177448200Y-41350099D01*
X177559231Y-41516269D01*
X178100055Y-41877636D01*
X178738000Y-42004531D01*
X178899031Y-41972500D01*
X192576969Y-41972500D01*
X192738000Y-42004531D01*
X192899031Y-41972500D01*
X193375945Y-41877636D01*
X193916769Y-41516269D01*
X194278136Y-40975445D01*
X194405031Y-40337500D01*
X194373000Y-40176469D01*
X194373000Y-26498531D01*
X194405031Y-26337500D01*
X196120969Y-26337500D01*
X196153001Y-26498536D01*
X196153000Y-32498530D01*
X196153001Y-32498533D01*
X196153000Y-36498530D01*
X196153001Y-36498533D01*
X196153000Y-40176469D01*
X196120969Y-40337500D01*
X196247864Y-40975445D01*
X196498200Y-41350099D01*
X196609231Y-41516269D01*
X197150055Y-41877636D01*
X197788000Y-42004531D01*
X197949031Y-41972500D01*
X211626969Y-41972500D01*
X211788000Y-42004531D01*
X211949031Y-41972500D01*
X212425945Y-41877636D01*
X212966769Y-41516269D01*
X213328136Y-40975445D01*
X213455031Y-40337500D01*
X213423000Y-40176469D01*
X213423000Y-26498531D01*
X213455031Y-26337500D01*
X215170969Y-26337500D01*
X215203001Y-26498536D01*
X215203000Y-32498530D01*
X215203001Y-32498533D01*
X215203000Y-36498530D01*
X215203001Y-36498533D01*
X215203000Y-40176469D01*
X215170969Y-40337500D01*
X215297864Y-40975445D01*
X215548200Y-41350099D01*
X215659231Y-41516269D01*
X216200055Y-41877636D01*
X216838000Y-42004531D01*
X216999031Y-41972500D01*
X230676969Y-41972500D01*
X230838000Y-42004531D01*
X230999031Y-41972500D01*
X231475945Y-41877636D01*
X232016769Y-41516269D01*
X232378136Y-40975445D01*
X232505031Y-40337500D01*
X232473000Y-40176469D01*
X232473000Y-26498531D01*
X232505031Y-26337500D01*
X234220969Y-26337500D01*
X234253001Y-26498536D01*
X234253000Y-32498530D01*
X234253001Y-32498533D01*
X234253000Y-36498530D01*
X234253001Y-36498533D01*
X234253000Y-40176469D01*
X234220969Y-40337500D01*
X234347864Y-40975445D01*
X234598200Y-41350099D01*
X234709231Y-41516269D01*
X235250055Y-41877636D01*
X235888000Y-42004531D01*
X236049031Y-41972500D01*
X249726969Y-41972500D01*
X249888000Y-42004531D01*
X250049031Y-41972500D01*
X250525945Y-41877636D01*
X251066769Y-41516269D01*
X251428136Y-40975445D01*
X251555031Y-40337500D01*
X251523000Y-40176469D01*
X251523000Y-26498531D01*
X251555031Y-26337500D01*
X253270969Y-26337500D01*
X253303001Y-26498536D01*
X253303000Y-32498530D01*
X253303001Y-32498533D01*
X253303000Y-36498530D01*
X253303001Y-36498533D01*
X253303000Y-40176469D01*
X253270969Y-40337500D01*
X253397864Y-40975445D01*
X253648200Y-41350099D01*
X253759231Y-41516269D01*
X254300055Y-41877636D01*
X254938000Y-42004531D01*
X255099031Y-41972500D01*
X268776969Y-41972500D01*
X268938000Y-42004531D01*
X269099031Y-41972500D01*
X269575945Y-41877636D01*
X270116769Y-41516269D01*
X270478136Y-40975445D01*
X270605031Y-40337500D01*
X270573000Y-40176469D01*
X270573000Y-26498531D01*
X270605031Y-26337500D01*
X272320969Y-26337500D01*
X272353001Y-26498536D01*
X272353000Y-32498530D01*
X272353001Y-32498533D01*
X272353000Y-36498530D01*
X272353001Y-36498533D01*
X272353000Y-40176469D01*
X272320969Y-40337500D01*
X272447864Y-40975445D01*
X272698200Y-41350099D01*
X272809231Y-41516269D01*
X273350055Y-41877636D01*
X273988000Y-42004531D01*
X274149031Y-41972500D01*
X287826969Y-41972500D01*
X287988000Y-42004531D01*
X288149031Y-41972500D01*
X288625945Y-41877636D01*
X289166769Y-41516269D01*
X289528136Y-40975445D01*
X289655031Y-40337500D01*
X289623000Y-40176469D01*
X289623000Y-26498531D01*
X289655031Y-26337500D01*
X291370969Y-26337500D01*
X291403001Y-26498536D01*
X291403000Y-32498530D01*
X291403001Y-32498533D01*
X291403000Y-36498530D01*
X291403001Y-36498533D01*
X291403000Y-40176469D01*
X291370969Y-40337500D01*
X291497864Y-40975445D01*
X291748200Y-41350099D01*
X291859231Y-41516269D01*
X292400055Y-41877636D01*
X293038000Y-42004531D01*
X293199031Y-41972500D01*
X306876969Y-41972500D01*
X307038000Y-42004531D01*
X307199031Y-41972500D01*
X307675945Y-41877636D01*
X308216769Y-41516269D01*
X308578136Y-40975445D01*
X308705031Y-40337500D01*
X308673000Y-40176469D01*
X308673000Y-26498531D01*
X308705031Y-26337500D01*
X308611726Y-25868421D01*
X308578136Y-25699555D01*
X308216769Y-25158731D01*
X307675945Y-24797364D01*
X307297813Y-24722149D01*
X307199031Y-24702500D01*
X307038000Y-24670469D01*
X306876969Y-24702500D01*
X293199031Y-24702500D01*
X293038000Y-24670469D01*
X292876969Y-24702500D01*
X292400055Y-24797364D01*
X291859231Y-25158731D01*
X291497864Y-25699555D01*
X291370969Y-26337500D01*
X289655031Y-26337500D01*
X289561726Y-25868421D01*
X289528136Y-25699555D01*
X289166769Y-25158731D01*
X288625945Y-24797364D01*
X288247813Y-24722149D01*
X288149031Y-24702500D01*
X287988000Y-24670469D01*
X287826969Y-24702500D01*
X274149031Y-24702500D01*
X273988000Y-24670469D01*
X273826969Y-24702500D01*
X273350055Y-24797364D01*
X272809231Y-25158731D01*
X272447864Y-25699555D01*
X272320969Y-26337500D01*
X270605031Y-26337500D01*
X270511726Y-25868421D01*
X270478136Y-25699555D01*
X270116769Y-25158731D01*
X269575945Y-24797364D01*
X269197813Y-24722149D01*
X269099031Y-24702500D01*
X268938000Y-24670469D01*
X268776969Y-24702500D01*
X255099031Y-24702500D01*
X254938000Y-24670469D01*
X254776969Y-24702500D01*
X254300055Y-24797364D01*
X253759231Y-25158731D01*
X253397864Y-25699555D01*
X253270969Y-26337500D01*
X251555031Y-26337500D01*
X251461726Y-25868421D01*
X251428136Y-25699555D01*
X251066769Y-25158731D01*
X250525945Y-24797364D01*
X250147813Y-24722149D01*
X250049031Y-24702500D01*
X249888000Y-24670469D01*
X249726969Y-24702500D01*
X236049031Y-24702500D01*
X235888000Y-24670469D01*
X235726969Y-24702500D01*
X235250055Y-24797364D01*
X234709231Y-25158731D01*
X234347864Y-25699555D01*
X234220969Y-26337500D01*
X232505031Y-26337500D01*
X232411726Y-25868421D01*
X232378136Y-25699555D01*
X232016769Y-25158731D01*
X231475945Y-24797364D01*
X231097813Y-24722149D01*
X230999031Y-24702500D01*
X230838000Y-24670469D01*
X230676969Y-24702500D01*
X216999031Y-24702500D01*
X216838000Y-24670469D01*
X216676969Y-24702500D01*
X216200055Y-24797364D01*
X215659231Y-25158731D01*
X215297864Y-25699555D01*
X215170969Y-26337500D01*
X213455031Y-26337500D01*
X213361726Y-25868421D01*
X213328136Y-25699555D01*
X212966769Y-25158731D01*
X212425945Y-24797364D01*
X212047813Y-24722149D01*
X211949031Y-24702500D01*
X211788000Y-24670469D01*
X211626969Y-24702500D01*
X197949031Y-24702500D01*
X197788000Y-24670469D01*
X197626969Y-24702500D01*
X197150055Y-24797364D01*
X196609231Y-25158731D01*
X196247864Y-25699555D01*
X196120969Y-26337500D01*
X194405031Y-26337500D01*
X194311726Y-25868421D01*
X194278136Y-25699555D01*
X193916769Y-25158731D01*
X193375945Y-24797364D01*
X192997813Y-24722149D01*
X192899031Y-24702500D01*
X192738000Y-24670469D01*
X192576969Y-24702500D01*
X178899031Y-24702500D01*
X178738000Y-24670469D01*
X178576969Y-24702500D01*
X178100055Y-24797364D01*
X177559231Y-25158731D01*
X177197864Y-25699555D01*
X177070969Y-26337500D01*
X175355031Y-26337500D01*
X175261726Y-25868421D01*
X175228136Y-25699555D01*
X174866769Y-25158731D01*
X174325945Y-24797364D01*
X173947813Y-24722149D01*
X173849031Y-24702500D01*
X173688000Y-24670469D01*
X173526969Y-24702500D01*
X159849031Y-24702500D01*
X159688000Y-24670469D01*
X159526969Y-24702500D01*
X159050055Y-24797364D01*
X158509231Y-25158731D01*
X158147864Y-25699555D01*
X158020969Y-26337500D01*
X156305031Y-26337500D01*
X156211726Y-25868421D01*
X156178136Y-25699555D01*
X155816769Y-25158731D01*
X155275945Y-24797364D01*
X154897813Y-24722149D01*
X154799031Y-24702500D01*
X154638000Y-24670469D01*
X154476969Y-24702500D01*
X140799031Y-24702500D01*
X140638000Y-24670469D01*
X140476969Y-24702500D01*
X140000055Y-24797364D01*
X139459231Y-25158731D01*
X139097864Y-25699555D01*
X138970969Y-26337500D01*
X137255031Y-26337500D01*
X137161726Y-25868421D01*
X137128136Y-25699555D01*
X136766769Y-25158731D01*
X136225945Y-24797364D01*
X135847813Y-24722149D01*
X135749031Y-24702500D01*
X135588000Y-24670469D01*
X135426969Y-24702500D01*
X121749031Y-24702500D01*
X121588000Y-24670469D01*
X121426969Y-24702500D01*
X120950055Y-24797364D01*
X120409231Y-25158731D01*
X120047864Y-25699555D01*
X119920969Y-26337500D01*
X118205031Y-26337500D01*
X118111726Y-25868421D01*
X118078136Y-25699555D01*
X117716769Y-25158731D01*
X117175945Y-24797364D01*
X116797813Y-24722149D01*
X116699031Y-24702500D01*
X116538000Y-24670469D01*
X116376969Y-24702500D01*
X102699031Y-24702500D01*
X102538000Y-24670469D01*
X102376969Y-24702500D01*
X101900055Y-24797364D01*
X101359231Y-25158731D01*
X100997864Y-25699555D01*
X100870969Y-26337500D01*
X99154531Y-26337500D01*
X99061226Y-25868421D01*
X99027636Y-25699555D01*
X98666269Y-25158731D01*
X98125445Y-24797364D01*
X97747313Y-24722149D01*
X97648531Y-24702500D01*
X97487500Y-24670469D01*
X97326469Y-24702500D01*
X83648531Y-24702500D01*
X83487500Y-24670469D01*
X83326469Y-24702500D01*
X82849555Y-24797364D01*
X82308731Y-25158731D01*
X81947364Y-25699555D01*
X81820469Y-26337500D01*
X80104531Y-26337500D01*
X80011226Y-25868421D01*
X79977636Y-25699555D01*
X79616269Y-25158731D01*
X79075445Y-24797364D01*
X78697313Y-24722149D01*
X78598531Y-24702500D01*
X78437500Y-24670469D01*
X78276469Y-24702500D01*
X64598531Y-24702500D01*
X64437500Y-24670469D01*
X64276469Y-24702500D01*
X63799555Y-24797364D01*
X63258731Y-25158731D01*
X62897364Y-25699555D01*
X62770469Y-26337500D01*
X61054531Y-26337500D01*
X60961226Y-25868421D01*
X60927636Y-25699555D01*
X60566269Y-25158731D01*
X60025445Y-24797364D01*
X59647313Y-24722149D01*
X59548531Y-24702500D01*
X59387500Y-24670469D01*
X59226469Y-24702500D01*
X45548531Y-24702500D01*
X45387500Y-24670469D01*
X45226469Y-24702500D01*
X44749555Y-24797364D01*
X44208731Y-25158731D01*
X43847364Y-25699555D01*
X43720469Y-26337500D01*
X42004531Y-26337500D01*
X41911226Y-25868421D01*
X41877636Y-25699555D01*
X41516269Y-25158731D01*
X40975445Y-24797364D01*
X40597313Y-24722149D01*
X40498531Y-24702500D01*
X40337500Y-24670469D01*
X40176469Y-24702500D01*
X26498531Y-24702500D01*
X26337500Y-24670469D01*
X26176469Y-24702500D01*
X25699555Y-24797364D01*
X25158731Y-25158731D01*
X24797364Y-25699555D01*
X24670469Y-26337500D01*
X24702501Y-26498536D01*
X24702500Y-32498530D01*
X24702501Y-32498533D01*
X24702501Y-33173685D01*
X24635888Y-33012868D01*
X24244382Y-32767723D01*
X22404605Y-34607500D01*
X22045395Y-34607500D01*
X20205618Y-32767723D01*
X19814112Y-33012868D01*
X19760000Y-33145255D01*
X19760000Y-32588118D01*
X20385223Y-32588118D01*
X22225000Y-34427895D01*
X24064777Y-32588118D01*
X23819632Y-32196612D01*
X22775640Y-31769891D01*
X21647819Y-31775170D01*
X20630368Y-32196612D01*
X20385223Y-32588118D01*
X19760000Y-32588118D01*
X19760000Y-28607547D01*
X19830800Y-27837035D01*
X20031956Y-27123790D01*
X20359728Y-26459134D01*
X20803128Y-25865350D01*
X21347318Y-25362307D01*
X21974060Y-24966861D01*
X22662379Y-24692250D01*
X23402973Y-24544936D01*
X23831092Y-24522500D01*
X342872830Y-24522500D01*
X343673430Y-24593952D01*
G04 #@! TD*
M02*
