M48
;DRILL file {KiCad 5.0.2-bee76a0~70~ubuntu18.04.1} date 2020年04月06日 01時25分35秒
;FORMAT={-:-/ absolute / inch / decimal}
FMAT,2
INCH,TZ
T1C0.0004
T2C0.0157
T3C0.0394
T4C0.0866
%
G90
G05
T2
X14.31Y-4.8125
X14.3291Y-4.7666
X14.3291Y-4.8585
X14.375Y-4.7476
X14.375Y-4.8775
X14.4209Y-4.7666
X14.4209Y-4.8585
X14.44Y-4.8125
X7.2425Y-2.595
X7.2615Y-2.5491
X7.2615Y-2.6409
X7.3075Y-2.53
X7.3075Y-2.66
X7.3534Y-2.5491
X7.3534Y-2.6409
X7.3724Y-2.595
X0.81Y-1.3625
X0.8291Y-1.3166
X0.8291Y-1.4084
X0.875Y-1.2975
X0.875Y-1.4275
X0.9209Y-1.3166
X0.9209Y-1.4084
X0.94Y-1.3625
X13.785Y-1.3625
X13.8041Y-1.3166
X13.8041Y-1.4084
X13.85Y-1.2975
X13.85Y-1.4275
X13.8959Y-1.3166
X13.8959Y-1.4084
X13.915Y-1.3625
X1.06Y-4.81
X1.0791Y-4.7641
X1.0791Y-4.8559
X1.125Y-4.745
X1.125Y-4.875
X1.1709Y-4.7641
X1.1709Y-4.8559
X1.19Y-4.81
T3
X7.15Y-2.675
X7.15Y-2.8
X7.15Y-2.92
X7.15Y-3.04
X7.15Y-3.16
X7.19Y-2.74
X7.19Y-2.86
X7.19Y-2.98
X7.19Y-3.1
X7.23Y-2.8
X7.23Y-2.92
X7.23Y-3.04
X7.23Y-3.16
X7.27Y-2.74
X7.27Y-2.86
X7.27Y-2.98
X7.27Y-3.1
X7.31Y-2.8
X7.31Y-2.92
X7.31Y-3.04
X7.31Y-3.16
X7.35Y-2.74
X7.35Y-2.86
X7.35Y-2.98
X7.35Y-3.1
X7.39Y-2.8
X7.39Y-2.92
X7.39Y-3.04
X7.39Y-3.16
X7.43Y-2.74
X7.43Y-2.86
X7.43Y-2.98
X7.43Y-3.1
X7.47Y-2.675
X7.47Y-2.8
X7.47Y-2.92
X7.47Y-3.04
X7.47Y-3.16
T4
X14.375Y-4.8125
X7.3075Y-2.595
X0.875Y-1.3625
X13.85Y-1.3625
X1.125Y-4.81
T1
X4.9744Y-4.3667G85X4.9744Y-4.1309
G05
X4.9744Y-4.5242G85X4.9744Y-4.2883
G05
X4.9744Y-4.6817G85X4.9744Y-4.4458
G05
X4.9746Y-4.1307G85X5.2104Y-4.1307
G05
X4.9746Y-4.6819G85X5.2104Y-4.6819
G05
X5.1321Y-4.1307G85X5.3679Y-4.1307
G05
X5.1321Y-4.6819G85X5.3679Y-4.6819
G05
X5.2896Y-4.1307G85X5.5254Y-4.1307
G05
X5.2896Y-4.6819G85X5.5254Y-4.6819
G05
X5.5256Y-4.3667G85X5.5256Y-4.1309
G05
X5.5256Y-4.5242G85X5.5256Y-4.2883
G05
X5.5256Y-4.6817G85X5.5256Y-4.4458
G05
X3.2869Y-1.2729G85X3.2869Y-1.0371
G05
X3.2869Y-1.4304G85X3.2869Y-1.1946
G05
X3.2869Y-1.5879G85X3.2869Y-1.3521
G05
X3.5229Y-1.0369G85X3.2871Y-1.0369
G05
X3.5229Y-1.5881G85X3.2871Y-1.5881
G05
X3.6804Y-1.0369G85X3.4446Y-1.0369
G05
X3.6804Y-1.5881G85X3.4446Y-1.5881
G05
X3.8379Y-1.0369G85X3.6021Y-1.0369
G05
X3.8379Y-1.5881G85X3.6021Y-1.5881
G05
X3.8381Y-1.2729G85X3.8381Y-1.0371
G05
X3.8381Y-1.4304G85X3.8381Y-1.1946
G05
X3.8381Y-1.5879G85X3.8381Y-1.3521
G05
X8.5369Y-3.5229G85X8.5369Y-3.2871
G05
X8.5369Y-3.6804G85X8.5369Y-3.4446
G05
X8.5369Y-3.8379G85X8.5369Y-3.6021
G05
X8.773Y-3.2869G85X8.5371Y-3.2869
G05
X8.773Y-3.8381G85X8.5371Y-3.8381
G05
X8.9304Y-3.2869G85X8.6946Y-3.2869
G05
X8.9304Y-3.8381G85X8.6946Y-3.8381
G05
X9.0879Y-3.2869G85X8.8521Y-3.2869
G05
X9.0879Y-3.8381G85X8.8521Y-3.8381
G05
X9.0881Y-3.5229G85X9.0881Y-3.2871
G05
X9.0881Y-3.6804G85X9.0881Y-3.4446
G05
X9.0881Y-3.8379G85X9.0881Y-3.6021
G05
X9.8494Y-2.7729G85X9.8494Y-2.5371
G05
X9.8494Y-2.9304G85X9.8494Y-2.6946
G05
X9.8494Y-3.0879G85X9.8494Y-2.8521
G05
X10.0854Y-2.5369G85X9.8496Y-2.5369
G05
X10.0854Y-3.0881G85X9.8496Y-3.0881
G05
X10.2429Y-2.5369G85X10.0071Y-2.5369
G05
X10.2429Y-3.0881G85X10.0071Y-3.0881
G05
X10.4004Y-2.5369G85X10.1646Y-2.5369
G05
X10.4004Y-3.0881G85X10.1646Y-3.0881
G05
X10.4006Y-2.7729G85X10.4006Y-2.5371
G05
X10.4006Y-2.9304G85X10.4006Y-2.6946
G05
X10.4006Y-3.0879G85X10.4006Y-2.8521
G05
X11.1619Y-2.0229G85X11.1619Y-1.7871
G05
X11.1619Y-2.1804G85X11.1619Y-1.9446
G05
X11.1619Y-2.3379G85X11.1619Y-2.1021
G05
X11.3979Y-1.7869G85X11.1621Y-1.7869
G05
X11.3979Y-2.3381G85X11.1621Y-2.3381
G05
X11.5554Y-1.7869G85X11.3196Y-1.7869
G05
X11.5554Y-2.3381G85X11.3196Y-2.3381
G05
X11.7129Y-1.7869G85X11.477Y-1.7869
G05
X11.7129Y-2.3381G85X11.477Y-2.3381
G05
X11.7131Y-2.0229G85X11.7131Y-1.7871
G05
X11.7131Y-2.1804G85X11.7131Y-1.9446
G05
X11.7131Y-2.3379G85X11.7131Y-2.1021
G05
X6.2869Y-1.2729G85X6.2869Y-1.0371
G05
X6.2869Y-1.4304G85X6.2869Y-1.1946
G05
X6.2869Y-1.5879G85X6.2869Y-1.3521
G05
X6.523Y-1.0369G85X6.2871Y-1.0369
G05
X6.523Y-1.5881G85X6.2871Y-1.5881
G05
X6.6804Y-1.0369G85X6.4446Y-1.0369
G05
X6.6804Y-1.5881G85X6.4446Y-1.5881
G05
X6.8379Y-1.0369G85X6.6021Y-1.0369
G05
X6.8379Y-1.5881G85X6.6021Y-1.5881
G05
X6.8381Y-1.2729G85X6.8381Y-1.0371
G05
X6.8381Y-1.4304G85X6.8381Y-1.1946
G05
X6.8381Y-1.5879G85X6.8381Y-1.3521
G05
X3.4744Y-2.7729G85X3.4744Y-2.5371
G05
X3.4744Y-2.9304G85X3.4744Y-2.6946
G05
X3.4744Y-3.0879G85X3.4744Y-2.8521
G05
X3.7104Y-2.5369G85X3.4746Y-2.5369
G05
X3.7104Y-3.0881G85X3.4746Y-3.0881
G05
X3.8679Y-2.5369G85X3.6321Y-2.5369
G05
X3.8679Y-3.0881G85X3.6321Y-3.0881
G05
X4.0254Y-2.5369G85X3.7896Y-2.5369
G05
X4.0254Y-3.0881G85X3.7896Y-3.0881
G05
X4.0256Y-2.7729G85X4.0256Y-2.5371
G05
X4.0256Y-2.9304G85X4.0256Y-2.6946
G05
X4.0256Y-3.0879G85X4.0256Y-2.8521
G05
X9.2869Y-3.5229G85X9.2869Y-3.2871
G05
X9.2869Y-3.6804G85X9.2869Y-3.4446
G05
X9.2869Y-3.8379G85X9.2869Y-3.6021
G05
X9.523Y-3.2869G85X9.2871Y-3.2869
G05
X9.523Y-3.8381G85X9.2871Y-3.8381
G05
X9.6804Y-3.2869G85X9.4446Y-3.2869
G05
X9.6804Y-3.8381G85X9.4446Y-3.8381
G05
X9.8379Y-3.2869G85X9.6021Y-3.2869
G05
X9.8379Y-3.8381G85X9.6021Y-3.8381
G05
X9.8381Y-3.5229G85X9.8381Y-3.2871
G05
X9.8381Y-3.6804G85X9.8381Y-3.4446
G05
X9.8381Y-3.8379G85X9.8381Y-3.6021
G05
X7.5994Y-2.7729G85X7.5994Y-2.5371
G05
X7.5994Y-2.9304G85X7.5994Y-2.6946
G05
X7.5994Y-3.0879G85X7.5994Y-2.8521
G05
X7.8354Y-2.5369G85X7.5996Y-2.5369
G05
X7.8354Y-3.0881G85X7.5996Y-3.0881
G05
X7.9929Y-2.5369G85X7.7571Y-2.5369
G05
X7.9929Y-3.0881G85X7.7571Y-3.0881
G05
X8.1504Y-2.5369G85X7.9146Y-2.5369
G05
X8.1504Y-3.0881G85X7.9146Y-3.0881
G05
X8.1506Y-2.7729G85X8.1506Y-2.5371
G05
X8.1506Y-2.9304G85X8.1506Y-2.6946
G05
X8.1506Y-3.0879G85X8.1506Y-2.8521
G05
X12.3076Y-1.0371G85X12.3076Y-1.2729
G05
X12.3076Y-1.4304G85X12.3076Y-1.1946
G05
X12.3076Y-1.3521G85X12.3076Y-1.5879
G05
X12.3078Y-1.5881G85X12.4176Y-1.5881
G05
X12.4001Y-1.6233G85X12.4001Y-1.5725
G05
X12.3078Y-1.0369G85X12.5436Y-1.0369
G05
X12.4003Y-1.6235G85X12.5337Y-1.6235
G05
X12.5339Y-1.6233G85X12.5339Y-1.5725
G05
X12.5046Y-1.0369G85X12.7404Y-1.0369
G05
X12.5243Y-1.5881G85X12.7601Y-1.5881
G05
X12.7015Y-1.0369G85X12.9373Y-1.0369
G05
X12.7015Y-1.5881G85X12.9373Y-1.5881
G05
X12.8983Y-1.5881G85X13.1341Y-1.5881
G05
X12.9377Y-1.0369G85X13.1735Y-1.0369
G05
X13.1227Y-1.5881G85X13.3585Y-1.5881
G05
X13.1345Y-1.0369G85X13.3704Y-1.0369
G05
X13.341Y-1.6233G85X13.341Y-1.5725
G05
X13.3412Y-1.6235G85X13.4747Y-1.6235
G05
X13.3314Y-1.0369G85X13.5672Y-1.0369
G05
X13.4749Y-1.6233G85X13.4749Y-1.5725
G05
X13.4574Y-1.5881G85X13.5672Y-1.5881
G05
X13.5674Y-1.0371G85X13.5674Y-1.2729
G05
X13.5674Y-1.4304G85X13.5674Y-1.1946
G05
X13.5674Y-1.3521G85X13.5674Y-1.5879
G05
X13.3388Y-3.5229G85X13.3388Y-3.2871
G05
X13.3388Y-3.4446G85X13.3388Y-3.6804
G05
X13.3388Y-3.8379G85X13.3388Y-3.6021
G05
X13.4489Y-3.2869G85X13.339Y-3.2869
G05
X13.4313Y-3.2517G85X13.4313Y-3.3025
G05
X13.5748Y-3.8381G85X13.339Y-3.8381
G05
X13.565Y-3.2515G85X13.4315Y-3.2515
G05
X13.5652Y-3.2517G85X13.5652Y-3.3025
G05
X13.7717Y-3.8381G85X13.5359Y-3.8381
G05
X13.7835Y-3.2869G85X13.5477Y-3.2869
G05
X13.9685Y-3.8381G85X13.7327Y-3.8381
G05
X14.0079Y-3.2869G85X13.7721Y-3.2869
G05
X14.2048Y-3.2869G85X13.9689Y-3.2869
G05
X14.2048Y-3.8381G85X13.9689Y-3.8381
G05
X14.3819Y-3.2869G85X14.1461Y-3.2869
G05
X14.4016Y-3.8381G85X14.1658Y-3.8381
G05
X14.3723Y-3.2517G85X14.3723Y-3.3025
G05
X14.5059Y-3.2515G85X14.3725Y-3.2515
G05
X14.5985Y-3.8381G85X14.3626Y-3.8381
G05
X14.5061Y-3.2517G85X14.5061Y-3.3025
G05
X14.5985Y-3.2869G85X14.4886Y-3.2869
G05
X14.5987Y-3.5229G85X14.5987Y-3.2871
G05
X14.5987Y-3.4446G85X14.5987Y-3.6804
G05
X14.5987Y-3.8379G85X14.5987Y-3.6021
G05
X4.0369Y-1.2729G85X4.0369Y-1.0371
G05
X4.0369Y-1.4304G85X4.0369Y-1.1946
G05
X4.0369Y-1.5879G85X4.0369Y-1.3521
G05
X4.273Y-1.0369G85X4.0371Y-1.0369
G05
X4.273Y-1.5881G85X4.0371Y-1.5881
G05
X4.4304Y-1.0369G85X4.1946Y-1.0369
G05
X4.4304Y-1.5881G85X4.1946Y-1.5881
G05
X4.5879Y-1.0369G85X4.3521Y-1.0369
G05
X4.5879Y-1.5881G85X4.3521Y-1.5881
G05
X4.5881Y-1.2729G85X4.5881Y-1.0371
G05
X4.5881Y-1.4304G85X4.5881Y-1.1946
G05
X4.5881Y-1.5879G85X4.5881Y-1.3521
G05
X8.9119Y-2.0229G85X8.9119Y-1.7871
G05
X8.9119Y-2.1804G85X8.9119Y-1.9446
G05
X8.9119Y-2.3379G85X8.9119Y-2.1021
G05
X9.1479Y-1.7869G85X8.9121Y-1.7869
G05
X9.1479Y-2.3381G85X8.9121Y-2.3381
G05
X9.3054Y-1.7869G85X9.0696Y-1.7869
G05
X9.3054Y-2.3381G85X9.0696Y-2.3381
G05
X9.4629Y-1.7869G85X9.227Y-1.7869
G05
X9.4629Y-2.3381G85X9.227Y-2.3381
G05
X9.4631Y-2.0229G85X9.4631Y-1.7871
G05
X9.4631Y-2.1804G85X9.4631Y-1.9446
G05
X9.4631Y-2.3379G85X9.4631Y-2.1021
G05
X5.8181Y-4.2246G85X5.8181Y-4.4604
G05
X5.8181Y-4.3821G85X5.8181Y-4.6179
G05
X5.8181Y-4.5396G85X5.8181Y-4.7754
G05
X5.8183Y-4.2244G85X6.0542Y-4.2244
G05
X5.8183Y-4.7756G85X6.0542Y-4.7756
G05
X5.9758Y-4.2244G85X6.2117Y-4.2244
G05
X5.9758Y-4.7756G85X6.2117Y-4.7756
G05
X6.1333Y-4.2244G85X6.3691Y-4.2244
G05
X6.1333Y-4.7756G85X6.3691Y-4.7756
G05
X6.3693Y-4.2246G85X6.3693Y-4.4604
G05
X6.3693Y-4.3821G85X6.3693Y-4.6179
G05
X6.3693Y-4.5396G85X6.3693Y-4.7754
G05
X5.7244Y-2.7729G85X5.7244Y-2.5371
G05
X5.7244Y-2.9304G85X5.7244Y-2.6946
G05
X5.7244Y-3.0879G85X5.7244Y-2.8521
G05
X5.9604Y-2.5369G85X5.7246Y-2.5369
G05
X5.9604Y-3.0881G85X5.7246Y-3.0881
G05
X6.1179Y-2.5369G85X5.8821Y-2.5369
G05
X6.1179Y-3.0881G85X5.8821Y-3.0881
G05
X6.2754Y-2.5369G85X6.0396Y-2.5369
G05
X6.2754Y-3.0881G85X6.0396Y-3.0881
G05
X6.2756Y-2.7729G85X6.2756Y-2.5371
G05
X6.2756Y-2.9304G85X6.2756Y-2.6946
G05
X6.2756Y-3.0879G85X6.2756Y-2.8521
G05
X0.9638Y-3.5229G85X0.9638Y-3.2871
G05
X0.9638Y-3.4446G85X0.9638Y-3.6804
G05
X0.9638Y-3.8379G85X0.9638Y-3.6021
G05
X1.0739Y-3.2869G85X0.964Y-3.2869
G05
X1.0563Y-3.2517G85X1.0563Y-3.3025
G05
X1.1999Y-3.8381G85X0.964Y-3.8381
G05
X1.19Y-3.2515G85X1.0565Y-3.2515
G05
X1.1902Y-3.2517G85X1.1902Y-3.3025
G05
X1.3967Y-3.8381G85X1.1609Y-3.8381
G05
X1.4085Y-3.2869G85X1.1727Y-3.2869
G05
X1.5936Y-3.8381G85X1.3577Y-3.8381
G05
X1.6329Y-3.2869G85X1.3971Y-3.2869
G05
X1.8298Y-3.2869G85X1.5939Y-3.2869
G05
X1.8298Y-3.8381G85X1.5939Y-3.8381
G05
X2.0069Y-3.2869G85X1.7711Y-3.2869
G05
X2.0266Y-3.8381G85X1.7908Y-3.8381
G05
X1.9973Y-3.2517G85X1.9973Y-3.3025
G05
X2.131Y-3.2515G85X1.9975Y-3.2515
G05
X2.2235Y-3.8381G85X1.9876Y-3.8381
G05
X2.1311Y-3.2517G85X2.1311Y-3.3025
G05
X2.2235Y-3.2869G85X2.1136Y-3.2869
G05
X2.2237Y-3.5229G85X2.2237Y-3.2871
G05
X2.2237Y-3.4446G85X2.2237Y-3.6804
G05
X2.2237Y-3.8379G85X2.2237Y-3.6021
G05
X11.5369Y-1.2729G85X11.5369Y-1.0371
G05
X11.5369Y-1.4304G85X11.5369Y-1.1946
G05
X11.5369Y-1.5879G85X11.5369Y-1.3521
G05
X11.773Y-1.0369G85X11.5371Y-1.0369
G05
X11.773Y-1.5881G85X11.5371Y-1.5881
G05
X11.9304Y-1.0369G85X11.6946Y-1.0369
G05
X11.9304Y-1.5881G85X11.6946Y-1.5881
G05
X12.0879Y-1.0369G85X11.8521Y-1.0369
G05
X12.0879Y-1.5881G85X11.8521Y-1.5881
G05
X12.0881Y-1.2729G85X12.0881Y-1.0371
G05
X12.0881Y-1.4304G85X12.0881Y-1.1946
G05
X12.0881Y-1.5879G85X12.0881Y-1.3521
G05
X8.1619Y-2.0229G85X8.1619Y-1.7871
G05
X8.1619Y-2.1804G85X8.1619Y-1.9446
G05
X8.1619Y-2.3379G85X8.1619Y-2.1021
G05
X8.3979Y-1.7869G85X8.1621Y-1.7869
G05
X8.3979Y-2.3381G85X8.1621Y-2.3381
G05
X8.5554Y-1.7869G85X8.3196Y-1.7869
G05
X8.5554Y-2.3381G85X8.3196Y-2.3381
G05
X8.7129Y-1.7869G85X8.477Y-1.7869
G05
X8.7129Y-2.3381G85X8.477Y-2.3381
G05
X8.7131Y-2.0229G85X8.7131Y-1.7871
G05
X8.7131Y-2.1804G85X8.7131Y-1.9446
G05
X8.7131Y-2.3379G85X8.7131Y-2.1021
G05
X6.6619Y-4.3183G85X6.6619Y-4.5542
G05
X6.6619Y-4.4758G85X6.6619Y-4.7117
G05
X6.6619Y-4.6333G85X6.6619Y-4.8691
G05
X6.8979Y-4.3181G85X6.6621Y-4.3181
G05
X6.8979Y-4.8693G85X6.6621Y-4.8693
G05
X7.0554Y-4.3181G85X6.8196Y-4.3181
G05
X7.0554Y-4.8693G85X6.8196Y-4.8693
G05
X7.2129Y-4.3181G85X6.977Y-4.3181
G05
X7.2129Y-4.8693G85X6.977Y-4.8693
G05
X7.2131Y-4.3183G85X7.2131Y-4.5542
G05
X7.2131Y-4.4758G85X7.2131Y-4.7117
G05
X7.2131Y-4.6333G85X7.2131Y-4.8691
G05
X7.0369Y-1.2729G85X7.0369Y-1.0371
G05
X7.0369Y-1.4304G85X7.0369Y-1.1946
G05
X7.0369Y-1.5879G85X7.0369Y-1.3521
G05
X7.273Y-1.0369G85X7.0371Y-1.0369
G05
X7.273Y-1.5881G85X7.0371Y-1.5881
G05
X7.4304Y-1.0369G85X7.1946Y-1.0369
G05
X7.4304Y-1.5881G85X7.1946Y-1.5881
G05
X7.5879Y-1.0369G85X7.3521Y-1.0369
G05
X7.5879Y-1.5881G85X7.3521Y-1.5881
G05
X7.5881Y-1.2729G85X7.5881Y-1.0371
G05
X7.5881Y-1.4304G85X7.5881Y-1.1946
G05
X7.5881Y-1.5879G85X7.5881Y-1.3521
G05
X10.5994Y-2.7729G85X10.5994Y-2.5371
G05
X10.5994Y-2.9304G85X10.5994Y-2.6946
G05
X10.5994Y-3.0879G85X10.5994Y-2.8521
G05
X10.8354Y-2.5369G85X10.5996Y-2.5369
G05
X10.8354Y-3.0881G85X10.5996Y-3.0881
G05
X10.9929Y-2.5369G85X10.7571Y-2.5369
G05
X10.9929Y-3.0881G85X10.7571Y-3.0881
G05
X11.1504Y-2.5369G85X10.9146Y-2.5369
G05
X11.1504Y-3.0881G85X10.9146Y-3.0881
G05
X11.1506Y-2.7729G85X11.1506Y-2.5371
G05
X11.1506Y-2.9304G85X11.1506Y-2.6946
G05
X11.1506Y-3.0879G85X11.1506Y-2.8521
G05
X4.9744Y-2.7729G85X4.9744Y-2.5371
G05
X4.9744Y-2.9304G85X4.9744Y-2.6946
G05
X4.9744Y-3.0879G85X4.9744Y-2.8521
G05
X5.2104Y-2.5369G85X4.9746Y-2.5369
G05
X5.2104Y-3.0881G85X4.9746Y-3.0881
G05
X5.3679Y-2.5369G85X5.1321Y-2.5369
G05
X5.3679Y-3.0881G85X5.1321Y-3.0881
G05
X5.5254Y-2.5369G85X5.2896Y-2.5369
G05
X5.5254Y-3.0881G85X5.2896Y-3.0881
G05
X5.5256Y-2.7729G85X5.5256Y-2.5371
G05
X5.5256Y-2.9304G85X5.5256Y-2.6946
G05
X5.5256Y-3.0879G85X5.5256Y-2.8521
G05
X7.0369Y-3.5229G85X7.0369Y-3.2871
G05
X7.0369Y-3.6804G85X7.0369Y-3.4446
G05
X7.0369Y-3.8379G85X7.0369Y-3.6021
G05
X7.273Y-3.2869G85X7.0371Y-3.2869
G05
X7.273Y-3.8381G85X7.0371Y-3.8381
G05
X7.4304Y-3.2869G85X7.1946Y-3.2869
G05
X7.4304Y-3.8381G85X7.1946Y-3.8381
G05
X7.5879Y-3.2869G85X7.3521Y-3.2869
G05
X7.5879Y-3.8381G85X7.3521Y-3.8381
G05
X7.5881Y-3.5229G85X7.5881Y-3.2871
G05
X7.5881Y-3.6804G85X7.5881Y-3.4446
G05
X7.5881Y-3.8379G85X7.5881Y-3.6021
G05
X8.2557Y-4.2246G85X8.2557Y-4.4604
G05
X8.2557Y-4.3821G85X8.2557Y-4.6179
G05
X8.2557Y-4.5396G85X8.2557Y-4.7754
G05
X8.2559Y-4.2244G85X8.4917Y-4.2244
G05
X8.2559Y-4.7756G85X8.4917Y-4.7756
G05
X8.4133Y-4.2244G85X8.6492Y-4.2244
G05
X8.4133Y-4.7756G85X8.6492Y-4.7756
G05
X8.5708Y-4.2244G85X8.8067Y-4.2244
G05
X8.5708Y-4.7756G85X8.8067Y-4.7756
G05
X8.8069Y-4.2246G85X8.8069Y-4.4604
G05
X8.8069Y-4.3821G85X8.8069Y-4.6179
G05
X8.8069Y-4.5396G85X8.8069Y-4.7754
G05
X8.3494Y-2.7729G85X8.3494Y-2.5371
G05
X8.3494Y-2.9304G85X8.3494Y-2.6946
G05
X8.3494Y-3.0879G85X8.3494Y-2.8521
G05
X8.5854Y-2.5369G85X8.3496Y-2.5369
G05
X8.5854Y-3.0881G85X8.3496Y-3.0881
G05
X8.7429Y-2.5369G85X8.5071Y-2.5369
G05
X8.7429Y-3.0881G85X8.5071Y-3.0881
G05
X8.9004Y-2.5369G85X8.6646Y-2.5369
G05
X8.9004Y-3.0881G85X8.6646Y-3.0881
G05
X8.9006Y-2.7729G85X8.9006Y-2.5371
G05
X8.9006Y-2.9304G85X8.9006Y-2.6946
G05
X8.9006Y-3.0879G85X8.9006Y-2.8521
G05
X4.7869Y-3.5229G85X4.7869Y-3.2871
G05
X4.7869Y-3.6804G85X4.7869Y-3.4446
G05
X4.7869Y-3.8379G85X4.7869Y-3.6021
G05
X5.023Y-3.2869G85X4.7871Y-3.2869
G05
X5.023Y-3.8381G85X4.7871Y-3.8381
G05
X5.1804Y-3.2869G85X4.9446Y-3.2869
G05
X5.1804Y-3.8381G85X4.9446Y-3.8381
G05
X5.3379Y-3.2869G85X5.1021Y-3.2869
G05
X5.3379Y-3.8381G85X5.1021Y-3.8381
G05
X5.3381Y-3.5229G85X5.3381Y-3.2871
G05
X5.3381Y-3.6804G85X5.3381Y-3.4446
G05
X5.3381Y-3.8379G85X5.3381Y-3.6021
G05
X11.5369Y-4.273G85X11.5369Y-4.0371
G05
X11.5369Y-4.4304G85X11.5369Y-4.1946
G05
X11.5369Y-4.5879G85X11.5369Y-4.3521
G05
X11.773Y-4.0369G85X11.5371Y-4.0369
G05
X11.773Y-4.5881G85X11.5371Y-4.5881
G05
X11.9304Y-4.0369G85X11.6946Y-4.0369
G05
X11.9304Y-4.5881G85X11.6946Y-4.5881
G05
X12.0879Y-4.0369G85X11.8521Y-4.0369
G05
X12.0879Y-4.5881G85X11.8521Y-4.5881
G05
X12.0881Y-4.273G85X12.0881Y-4.0371
G05
X12.0881Y-4.4304G85X12.0881Y-4.1946
G05
X12.0881Y-4.5879G85X12.0881Y-4.3521
G05
X6.6619Y-2.0229G85X6.6619Y-1.7871
G05
X6.6619Y-2.1804G85X6.6619Y-1.9446
G05
X6.6619Y-2.3379G85X6.6619Y-2.1021
G05
X6.8979Y-1.7869G85X6.6621Y-1.7869
G05
X6.8979Y-2.3381G85X6.6621Y-2.3381
G05
X7.0554Y-1.7869G85X6.8196Y-1.7869
G05
X7.0554Y-2.3381G85X6.8196Y-2.3381
G05
X7.2129Y-1.7869G85X6.977Y-1.7869
G05
X7.2129Y-2.3381G85X6.977Y-2.3381
G05
X7.2131Y-2.0229G85X7.2131Y-1.7871
G05
X7.2131Y-2.1804G85X7.2131Y-1.9446
G05
X7.2131Y-2.3379G85X7.2131Y-2.1021
G05
X2.5369Y-3.5229G85X2.5369Y-3.2871
G05
X2.5369Y-3.6804G85X2.5369Y-3.4446
G05
X2.5369Y-3.8379G85X2.5369Y-3.6021
G05
X2.7729Y-3.2869G85X2.5371Y-3.2869
G05
X2.7729Y-3.8381G85X2.5371Y-3.8381
G05
X2.9304Y-3.2869G85X2.6946Y-3.2869
G05
X2.9304Y-3.8381G85X2.6946Y-3.8381
G05
X3.0879Y-3.2869G85X2.8521Y-3.2869
G05
X3.0879Y-3.8381G85X2.8521Y-3.8381
G05
X3.0881Y-3.5229G85X3.0881Y-3.2871
G05
X3.0881Y-3.6804G85X3.0881Y-3.4446
G05
X3.0881Y-3.8379G85X3.0881Y-3.6021
G05
X4.7869Y-1.2729G85X4.7869Y-1.0371
G05
X4.7869Y-1.4304G85X4.7869Y-1.1946
G05
X4.7869Y-1.5879G85X4.7869Y-1.3521
G05
X5.023Y-1.0369G85X4.7871Y-1.0369
G05
X5.023Y-1.5881G85X4.7871Y-1.5881
G05
X5.1804Y-1.0369G85X4.9446Y-1.0369
G05
X5.1804Y-1.5881G85X4.9446Y-1.5881
G05
X5.3379Y-1.0369G85X5.1021Y-1.0369
G05
X5.3379Y-1.5881G85X5.1021Y-1.5881
G05
X5.3381Y-1.2729G85X5.3381Y-1.0371
G05
X5.3381Y-1.4304G85X5.3381Y-1.1946
G05
X5.3381Y-1.5879G85X5.3381Y-1.3521
G05
X10.7869Y-1.2729G85X10.7869Y-1.0371
G05
X10.7869Y-1.4304G85X10.7869Y-1.1946
G05
X10.7869Y-1.5879G85X10.7869Y-1.3521
G05
X11.023Y-1.0369G85X10.7871Y-1.0369
G05
X11.023Y-1.5881G85X10.7871Y-1.5881
G05
X11.1804Y-1.0369G85X10.9446Y-1.0369
G05
X11.1804Y-1.5881G85X10.9446Y-1.5881
G05
X11.3379Y-1.0369G85X11.1021Y-1.0369
G05
X11.3379Y-1.5881G85X11.1021Y-1.5881
G05
X11.3381Y-1.2729G85X11.3381Y-1.0371
G05
X11.3381Y-1.4304G85X11.3381Y-1.1946
G05
X11.3381Y-1.5879G85X11.3381Y-1.3521
G05
X7.4119Y-2.0229G85X7.4119Y-1.7871
G05
X7.4119Y-2.1804G85X7.4119Y-1.9446
G05
X7.4119Y-2.3379G85X7.4119Y-2.1021
G05
X7.6479Y-1.7869G85X7.4121Y-1.7869
G05
X7.6479Y-2.3381G85X7.4121Y-2.3381
G05
X7.8054Y-1.7869G85X7.5696Y-1.7869
G05
X7.8054Y-2.3381G85X7.5696Y-2.3381
G05
X7.9629Y-1.7869G85X7.727Y-1.7869
G05
X7.9629Y-2.3381G85X7.727Y-2.3381
G05
X7.9631Y-2.0229G85X7.9631Y-1.7871
G05
X7.9631Y-2.1804G85X7.9631Y-1.9446
G05
X7.9631Y-2.3379G85X7.9631Y-2.1021
G05
X3.6619Y-2.0229G85X3.6619Y-1.7871
G05
X3.6619Y-2.1804G85X3.6619Y-1.9446
G05
X3.6619Y-2.3379G85X3.6619Y-2.1021
G05
X3.8979Y-1.7869G85X3.6621Y-1.7869
G05
X3.8979Y-2.3381G85X3.6621Y-2.3381
G05
X4.0554Y-1.7869G85X3.8196Y-1.7869
G05
X4.0554Y-2.3381G85X3.8196Y-2.3381
G05
X4.2129Y-1.7869G85X3.977Y-1.7869
G05
X4.2129Y-2.3381G85X3.977Y-2.3381
G05
X4.2131Y-2.0229G85X4.2131Y-1.7871
G05
X4.2131Y-2.1804G85X4.2131Y-1.9446
G05
X4.2131Y-2.3379G85X4.2131Y-2.1021
G05
X2.7244Y-2.7729G85X2.7244Y-2.5371
G05
X2.7244Y-2.9304G85X2.7244Y-2.6946
G05
X2.7244Y-3.0879G85X2.7244Y-2.8521
G05
X2.9604Y-2.5369G85X2.7246Y-2.5369
G05
X2.9604Y-3.0881G85X2.7246Y-3.0881
G05
X3.1179Y-2.5369G85X2.8821Y-2.5369
G05
X3.1179Y-3.0881G85X2.8821Y-3.0881
G05
X3.2754Y-2.5369G85X3.0396Y-2.5369
G05
X3.2754Y-3.0881G85X3.0396Y-3.0881
G05
X3.2756Y-2.7729G85X3.2756Y-2.5371
G05
X3.2756Y-2.9304G85X3.2756Y-2.6946
G05
X3.2756Y-3.0879G85X3.2756Y-2.8521
G05
X9.6619Y-2.0229G85X9.6619Y-1.7871
G05
X9.6619Y-2.1804G85X9.6619Y-1.9446
G05
X9.6619Y-2.3379G85X9.6619Y-2.1021
G05
X9.8979Y-1.7869G85X9.6621Y-1.7869
G05
X9.8979Y-2.3381G85X9.6621Y-2.3381
G05
X10.0554Y-1.7869G85X9.8196Y-1.7869
G05
X10.0554Y-2.3381G85X9.8196Y-2.3381
G05
X10.2129Y-1.7869G85X9.977Y-1.7869
G05
X10.2129Y-2.3381G85X9.977Y-2.3381
G05
X10.2131Y-2.0229G85X10.2131Y-1.7871
G05
X10.2131Y-2.1804G85X10.2131Y-1.9446
G05
X10.2131Y-2.3379G85X10.2131Y-2.1021
G05
X6.4744Y-2.7729G85X6.4744Y-2.5371
G05
X6.4744Y-2.9304G85X6.4744Y-2.6946
G05
X6.4744Y-3.0879G85X6.4744Y-2.8521
G05
X6.7104Y-2.5369G85X6.4746Y-2.5369
G05
X6.7104Y-3.0881G85X6.4746Y-3.0881
G05
X6.8679Y-2.5369G85X6.6321Y-2.5369
G05
X6.8679Y-3.0881G85X6.6321Y-3.0881
G05
X7.0254Y-2.5369G85X6.7896Y-2.5369
G05
X7.0254Y-3.0881G85X6.7896Y-3.0881
G05
X7.0256Y-2.7729G85X7.0256Y-2.5371
G05
X7.0256Y-2.9304G85X7.0256Y-2.6946
G05
X7.0256Y-3.0879G85X7.0256Y-2.8521
G05
X0.8494Y-4.273G85X0.8494Y-4.0371
G05
X0.8494Y-4.4304G85X0.8494Y-4.1946
G05
X0.8494Y-4.5879G85X0.8494Y-4.3521
G05
X1.0854Y-4.0369G85X0.8496Y-4.0369
G05
X1.0854Y-4.5881G85X0.8496Y-4.5881
G05
X1.2429Y-4.0369G85X1.0071Y-4.0369
G05
X1.2429Y-4.5881G85X1.0071Y-4.5881
G05
X1.4004Y-4.0369G85X1.1646Y-4.0369
G05
X1.4004Y-4.5881G85X1.1646Y-4.5881
G05
X1.4006Y-4.273G85X1.4006Y-4.0371
G05
X1.4006Y-4.4304G85X1.4006Y-4.1946
G05
X1.4006Y-4.5879G85X1.4006Y-4.3521
G05
X4.0369Y-3.5229G85X4.0369Y-3.2871
G05
X4.0369Y-3.6804G85X4.0369Y-3.4446
G05
X4.0369Y-3.8379G85X4.0369Y-3.6021
G05
X4.273Y-3.2869G85X4.0371Y-3.2869
G05
X4.273Y-3.8381G85X4.0371Y-3.8381
G05
X4.4304Y-3.2869G85X4.1946Y-3.2869
G05
X4.4304Y-3.8381G85X4.1946Y-3.8381
G05
X4.5879Y-3.2869G85X4.3521Y-3.2869
G05
X4.5879Y-3.8381G85X4.3521Y-3.8381
G05
X4.5881Y-3.5229G85X4.5881Y-3.2871
G05
X4.5881Y-3.6804G85X4.5881Y-3.4446
G05
X4.5881Y-3.8379G85X4.5881Y-3.6021
G05
X13.0369Y-2.0229G85X13.0369Y-1.7871
G05
X13.0369Y-2.1804G85X13.0369Y-1.9446
G05
X13.0369Y-2.3379G85X13.0369Y-2.1021
G05
X13.273Y-1.7869G85X13.0371Y-1.7869
G05
X13.273Y-2.3381G85X13.0371Y-2.3381
G05
X13.4304Y-1.7869G85X13.1946Y-1.7869
G05
X13.4304Y-2.3381G85X13.1946Y-2.3381
G05
X13.5879Y-1.7869G85X13.3521Y-1.7869
G05
X13.5879Y-2.3381G85X13.3521Y-2.3381
G05
X13.5881Y-2.0229G85X13.5881Y-1.7871
G05
X13.5881Y-2.1804G85X13.5881Y-1.9446
G05
X13.5881Y-2.3379G85X13.5881Y-2.1021
G05
X11.5369Y-3.5229G85X11.5369Y-3.2871
G05
X11.5369Y-3.6804G85X11.5369Y-3.4446
G05
X11.5369Y-3.8379G85X11.5369Y-3.6021
G05
X11.773Y-3.2869G85X11.5371Y-3.2869
G05
X11.773Y-3.8381G85X11.5371Y-3.8381
G05
X11.9304Y-3.2869G85X11.6946Y-3.2869
G05
X11.9304Y-3.8381G85X11.6946Y-3.8381
G05
X12.0879Y-3.2869G85X11.8521Y-3.2869
G05
X12.0879Y-3.8381G85X11.8521Y-3.8381
G05
X12.0881Y-3.5229G85X12.0881Y-3.2871
G05
X12.0881Y-3.6804G85X12.0881Y-3.4446
G05
X12.0881Y-3.8379G85X12.0881Y-3.6021
G05
X10.0369Y-1.2729G85X10.0369Y-1.0371
G05
X10.0369Y-1.4304G85X10.0369Y-1.1946
G05
X10.0369Y-1.5879G85X10.0369Y-1.3521
G05
X10.273Y-1.0369G85X10.0371Y-1.0369
G05
X10.273Y-1.5881G85X10.0371Y-1.5881
G05
X10.4304Y-1.0369G85X10.1946Y-1.0369
G05
X10.4304Y-1.5881G85X10.1946Y-1.5881
G05
X10.5879Y-1.0369G85X10.3521Y-1.0369
G05
X10.5879Y-1.5881G85X10.3521Y-1.5881
G05
X10.5881Y-1.2729G85X10.5881Y-1.0371
G05
X10.5881Y-1.4304G85X10.5881Y-1.1946
G05
X10.5881Y-1.5879G85X10.5881Y-1.3521
G05
X1.0369Y-1.2729G85X1.0369Y-1.0371
G05
X1.0369Y-1.4304G85X1.0369Y-1.1946
G05
X1.0369Y-1.5879G85X1.0369Y-1.3521
G05
X1.2729Y-1.0369G85X1.0371Y-1.0369
G05
X1.2729Y-1.5881G85X1.0371Y-1.5881
G05
X1.4304Y-1.0369G85X1.1946Y-1.0369
G05
X1.4304Y-1.5881G85X1.1946Y-1.5881
G05
X1.5879Y-1.0369G85X1.3521Y-1.0369
G05
X1.5879Y-1.5881G85X1.3521Y-1.5881
G05
X1.5881Y-1.2729G85X1.5881Y-1.0371
G05
X1.5881Y-1.4304G85X1.5881Y-1.1946
G05
X1.5881Y-1.5879G85X1.5881Y-1.3521
G05
X7.4119Y-4.5542G85X7.4119Y-4.3183
G05
X7.4119Y-4.7117G85X7.4119Y-4.4758
G05
X7.4119Y-4.8691G85X7.4119Y-4.6333
G05
X7.4121Y-4.3181G85X7.6479Y-4.3181
G05
X7.4121Y-4.8693G85X7.6479Y-4.8693
G05
X7.5696Y-4.3181G85X7.8054Y-4.3181
G05
X7.5696Y-4.8693G85X7.8054Y-4.8693
G05
X7.727Y-4.3181G85X7.9629Y-4.3181
G05
X7.727Y-4.8693G85X7.9629Y-4.8693
G05
X7.9631Y-4.5542G85X7.9631Y-4.3183
G05
X7.9631Y-4.7117G85X7.9631Y-4.4758
G05
X7.9631Y-4.8691G85X7.9631Y-4.6333
G05
X8.5369Y-1.2729G85X8.5369Y-1.0371
G05
X8.5369Y-1.4304G85X8.5369Y-1.1946
G05
X8.5369Y-1.5879G85X8.5369Y-1.3521
G05
X8.773Y-1.0369G85X8.5371Y-1.0369
G05
X8.773Y-1.5881G85X8.5371Y-1.5881
G05
X8.9304Y-1.0369G85X8.6946Y-1.0369
G05
X8.9304Y-1.5881G85X8.6946Y-1.5881
G05
X9.0879Y-1.0369G85X8.8521Y-1.0369
G05
X9.0879Y-1.5881G85X8.8521Y-1.5881
G05
X9.0881Y-1.2729G85X9.0881Y-1.0371
G05
X9.0881Y-1.4304G85X9.0881Y-1.1946
G05
X9.0881Y-1.5879G85X9.0881Y-1.3521
G05
X11.3494Y-2.7729G85X11.3494Y-2.5371
G05
X11.3494Y-2.9304G85X11.3494Y-2.6946
G05
X11.3494Y-3.0879G85X11.3494Y-2.8521
G05
X11.5854Y-2.5369G85X11.3496Y-2.5369
G05
X11.5854Y-3.0881G85X11.3496Y-3.0881
G05
X11.7429Y-2.5369G85X11.5071Y-2.5369
G05
X11.7429Y-3.0881G85X11.5071Y-3.0881
G05
X11.9004Y-2.5369G85X11.6646Y-2.5369
G05
X11.9004Y-3.0881G85X11.6646Y-3.0881
G05
X11.9006Y-2.7729G85X11.9006Y-2.5371
G05
X11.9006Y-2.9304G85X11.9006Y-2.6946
G05
X11.9006Y-3.0879G85X11.9006Y-2.8521
G05
X1.0369Y-2.0229G85X1.0369Y-1.7871
G05
X1.0369Y-2.1804G85X1.0369Y-1.9446
G05
X1.0369Y-2.3379G85X1.0369Y-2.1021
G05
X1.2729Y-1.7869G85X1.0371Y-1.7869
G05
X1.2729Y-2.3381G85X1.0371Y-2.3381
G05
X1.4304Y-1.7869G85X1.1946Y-1.7869
G05
X1.4304Y-2.3381G85X1.1946Y-2.3381
G05
X1.5879Y-1.7869G85X1.3521Y-1.7869
G05
X1.5879Y-2.3381G85X1.3521Y-2.3381
G05
X1.5881Y-2.0229G85X1.5881Y-1.7871
G05
X1.5881Y-2.1804G85X1.5881Y-1.9446
G05
X1.5881Y-2.3379G85X1.5881Y-2.1021
G05
X2.5369Y-1.2729G85X2.5369Y-1.0371
G05
X2.5369Y-1.4304G85X2.5369Y-1.1946
G05
X2.5369Y-1.5879G85X2.5369Y-1.3521
G05
X2.7729Y-1.0369G85X2.5371Y-1.0369
G05
X2.7729Y-1.5881G85X2.5371Y-1.5881
G05
X2.9304Y-1.0369G85X2.6946Y-1.0369
G05
X2.9304Y-1.5881G85X2.6946Y-1.5881
G05
X3.0879Y-1.0369G85X2.8521Y-1.0369
G05
X3.0879Y-1.5881G85X2.8521Y-1.5881
G05
X3.0881Y-1.2729G85X3.0881Y-1.0371
G05
X3.0881Y-1.4304G85X3.0881Y-1.1946
G05
X3.0881Y-1.5879G85X3.0881Y-1.3521
G05
X7.7869Y-1.2729G85X7.7869Y-1.0371
G05
X7.7869Y-1.4304G85X7.7869Y-1.1946
G05
X7.7869Y-1.5879G85X7.7869Y-1.3521
G05
X8.023Y-1.0369G85X7.7871Y-1.0369
G05
X8.023Y-1.5881G85X7.7871Y-1.5881
G05
X8.1804Y-1.0369G85X7.9446Y-1.0369
G05
X8.1804Y-1.5881G85X7.9446Y-1.5881
G05
X8.3379Y-1.0369G85X8.1021Y-1.0369
G05
X8.3379Y-1.5881G85X8.1021Y-1.5881
G05
X8.3381Y-1.2729G85X8.3381Y-1.0371
G05
X8.3381Y-1.4304G85X8.3381Y-1.1946
G05
X8.3381Y-1.5879G85X8.3381Y-1.3521
G05
X12.2869Y-3.5229G85X12.2869Y-3.2871
G05
X12.2869Y-3.6804G85X12.2869Y-3.4446
G05
X12.2869Y-3.8379G85X12.2869Y-3.6021
G05
X12.523Y-3.2869G85X12.2871Y-3.2869
G05
X12.523Y-3.8381G85X12.2871Y-3.8381
G05
X12.6804Y-3.2869G85X12.4446Y-3.2869
G05
X12.6804Y-3.8381G85X12.4446Y-3.8381
G05
X12.8379Y-3.2869G85X12.6021Y-3.2869
G05
X12.8379Y-3.8381G85X12.6021Y-3.8381
G05
X12.8381Y-3.5229G85X12.8381Y-3.2871
G05
X12.8381Y-3.6804G85X12.8381Y-3.4446
G05
X12.8381Y-3.8379G85X12.8381Y-3.6021
G05
X5.1619Y-2.0229G85X5.1619Y-1.7871
G05
X5.1619Y-2.1804G85X5.1619Y-1.9446
G05
X5.1619Y-2.3379G85X5.1619Y-2.1021
G05
X5.3979Y-1.7869G85X5.1621Y-1.7869
G05
X5.3979Y-2.3381G85X5.1621Y-2.3381
G05
X5.5554Y-1.7869G85X5.3196Y-1.7869
G05
X5.5554Y-2.3381G85X5.3196Y-2.3381
G05
X5.7129Y-1.7869G85X5.477Y-1.7869
G05
X5.7129Y-2.3381G85X5.477Y-2.3381
G05
X5.7131Y-2.0229G85X5.7131Y-1.7871
G05
X5.7131Y-2.1804G85X5.7131Y-1.9446
G05
X5.7131Y-2.3379G85X5.7131Y-2.1021
G05
X1.9744Y-2.0229G85X1.9744Y-1.7871
G05
X1.9744Y-2.1804G85X1.9744Y-1.9446
G05
X1.9744Y-2.3379G85X1.9744Y-2.1021
G05
X2.2104Y-1.7869G85X1.9746Y-1.7869
G05
X2.2104Y-2.3381G85X1.9746Y-2.3381
G05
X2.3679Y-1.7869G85X2.1321Y-1.7869
G05
X2.3679Y-2.3381G85X2.1321Y-2.3381
G05
X2.5254Y-1.7869G85X2.2896Y-1.7869
G05
X2.5254Y-2.3381G85X2.2896Y-2.3381
G05
X2.5256Y-2.0229G85X2.5256Y-1.7871
G05
X2.5256Y-2.1804G85X2.5256Y-1.9446
G05
X2.5256Y-2.3379G85X2.5256Y-2.1021
G05
X12.2138Y-2.7729G85X12.2138Y-2.5371
G05
X12.2138Y-2.6946G85X12.2138Y-2.9304
G05
X12.2138Y-3.0879G85X12.2138Y-2.8521
G05
X12.3239Y-2.5369G85X12.214Y-2.5369
G05
X12.3063Y-2.5017G85X12.3063Y-2.5525
G05
X12.4498Y-3.0881G85X12.214Y-3.0881
G05
X12.44Y-2.5015G85X12.3065Y-2.5015
G05
X12.4402Y-2.5017G85X12.4402Y-2.5525
G05
X12.6467Y-3.0881G85X12.4109Y-3.0881
G05
X12.6585Y-2.5369G85X12.4227Y-2.5369
G05
X12.8435Y-3.0881G85X12.6077Y-3.0881
G05
X12.8829Y-2.5369G85X12.6471Y-2.5369
G05
X13.0798Y-2.5369G85X12.8439Y-2.5369
G05
X13.0798Y-3.0881G85X12.8439Y-3.0881
G05
X13.2569Y-2.5369G85X13.0211Y-2.5369
G05
X13.2766Y-3.0881G85X13.0408Y-3.0881
G05
X13.2473Y-2.5017G85X13.2473Y-2.5525
G05
X13.3809Y-2.5015G85X13.2475Y-2.5015
G05
X13.4735Y-3.0881G85X13.2376Y-3.0881
G05
X13.3811Y-2.5017G85X13.3811Y-2.5525
G05
X13.4735Y-2.5369G85X13.3636Y-2.5369
G05
X13.4737Y-2.7729G85X13.4737Y-2.5371
G05
X13.4737Y-2.6946G85X13.4737Y-2.9304
G05
X13.4737Y-3.0879G85X13.4737Y-2.8521
G05
X9.0994Y-2.7729G85X9.0994Y-2.5371
G05
X9.0994Y-2.9304G85X9.0994Y-2.6946
G05
X9.0994Y-3.0879G85X9.0994Y-2.8521
G05
X9.3354Y-2.5369G85X9.0996Y-2.5369
G05
X9.3354Y-3.0881G85X9.0996Y-3.0881
G05
X9.4929Y-2.5369G85X9.2571Y-2.5369
G05
X9.4929Y-3.0881G85X9.2571Y-3.0881
G05
X9.6504Y-2.5369G85X9.4146Y-2.5369
G05
X9.6504Y-3.0881G85X9.4146Y-3.0881
G05
X9.6506Y-2.7729G85X9.6506Y-2.5371
G05
X9.6506Y-2.9304G85X9.6506Y-2.6946
G05
X9.6506Y-3.0879G85X9.6506Y-2.8521
G05
X12.0994Y-2.0229G85X12.0994Y-1.7871
G05
X12.0994Y-2.1804G85X12.0994Y-1.9446
G05
X12.0994Y-2.3379G85X12.0994Y-2.1021
G05
X12.3354Y-1.7869G85X12.0996Y-1.7869
G05
X12.3354Y-2.3381G85X12.0996Y-2.3381
G05
X12.4929Y-1.7869G85X12.2571Y-1.7869
G05
X12.4929Y-2.3381G85X12.2571Y-2.3381
G05
X12.6504Y-1.7869G85X12.4146Y-1.7869
G05
X12.6504Y-2.3381G85X12.4146Y-2.3381
G05
X12.6506Y-2.0229G85X12.6506Y-1.7871
G05
X12.6506Y-2.1804G85X12.6506Y-1.9446
G05
X12.6506Y-2.3379G85X12.6506Y-2.1021
G05
X10.7869Y-3.5229G85X10.7869Y-3.2871
G05
X10.7869Y-3.6804G85X10.7869Y-3.4446
G05
X10.7869Y-3.8379G85X10.7869Y-3.6021
G05
X11.023Y-3.2869G85X10.7871Y-3.2869
G05
X11.023Y-3.8381G85X10.7871Y-3.8381
G05
X11.1804Y-3.2869G85X10.9446Y-3.2869
G05
X11.1804Y-3.8381G85X10.9446Y-3.8381
G05
X11.3379Y-3.2869G85X11.1021Y-3.2869
G05
X11.3379Y-3.8381G85X11.1021Y-3.8381
G05
X11.3381Y-3.5229G85X11.3381Y-3.2871
G05
X11.3381Y-3.6804G85X11.3381Y-3.4446
G05
X11.3381Y-3.8379G85X11.3381Y-3.6021
G05
X4.4119Y-2.0229G85X4.4119Y-1.7871
G05
X4.4119Y-2.1804G85X4.4119Y-1.9446
G05
X4.4119Y-2.3379G85X4.4119Y-2.1021
G05
X4.6479Y-1.7869G85X4.4121Y-1.7869
G05
X4.6479Y-2.3381G85X4.4121Y-2.3381
G05
X4.8054Y-1.7869G85X4.5696Y-1.7869
G05
X4.8054Y-2.3381G85X4.5696Y-2.3381
G05
X4.9629Y-1.7869G85X4.727Y-1.7869
G05
X4.9629Y-2.3381G85X4.727Y-2.3381
G05
X4.9631Y-2.0229G85X4.9631Y-1.7871
G05
X4.9631Y-2.1804G85X4.9631Y-1.9446
G05
X4.9631Y-2.3379G85X4.9631Y-2.1021
G05
X5.9119Y-2.0229G85X5.9119Y-1.7871
G05
X5.9119Y-2.1804G85X5.9119Y-1.9446
G05
X5.9119Y-2.3379G85X5.9119Y-2.1021
G05
X6.1479Y-1.7869G85X5.9121Y-1.7869
G05
X6.1479Y-2.3381G85X5.9121Y-2.3381
G05
X6.3054Y-1.7869G85X6.0696Y-1.7869
G05
X6.3054Y-2.3381G85X6.0696Y-2.3381
G05
X6.4629Y-1.7869G85X6.227Y-1.7869
G05
X6.4629Y-2.3381G85X6.227Y-2.3381
G05
X6.4631Y-2.0229G85X6.4631Y-1.7871
G05
X6.4631Y-2.1804G85X6.4631Y-1.9446
G05
X6.4631Y-2.3379G85X6.4631Y-2.1021
G05
X3.2869Y-3.5229G85X3.2869Y-3.2871
G05
X3.2869Y-3.6804G85X3.2869Y-3.4446
G05
X3.2869Y-3.8379G85X3.2869Y-3.6021
G05
X3.5229Y-3.2869G85X3.2871Y-3.2869
G05
X3.5229Y-3.8381G85X3.2871Y-3.8381
G05
X3.6804Y-3.2869G85X3.4446Y-3.2869
G05
X3.6804Y-3.8381G85X3.4446Y-3.8381
G05
X3.8379Y-3.2869G85X3.6021Y-3.2869
G05
X3.8379Y-3.8381G85X3.6021Y-3.8381
G05
X3.8381Y-3.5229G85X3.8381Y-3.2871
G05
X3.8381Y-3.6804G85X3.8381Y-3.4446
G05
X3.8381Y-3.8379G85X3.8381Y-3.6021
G05
X10.4119Y-2.0229G85X10.4119Y-1.7871
G05
X10.4119Y-2.1804G85X10.4119Y-1.9446
G05
X10.4119Y-2.3379G85X10.4119Y-2.1021
G05
X10.6479Y-1.7869G85X10.4121Y-1.7869
G05
X10.6479Y-2.3381G85X10.4121Y-2.3381
G05
X10.8054Y-1.7869G85X10.5696Y-1.7869
G05
X10.8054Y-2.3381G85X10.5696Y-2.3381
G05
X10.9629Y-1.7869G85X10.727Y-1.7869
G05
X10.9629Y-2.3381G85X10.727Y-2.3381
G05
X10.9631Y-2.0229G85X10.9631Y-1.7871
G05
X10.9631Y-2.1804G85X10.9631Y-1.9446
G05
X10.9631Y-2.3379G85X10.9631Y-2.1021
G05
X1.6932Y-4.273G85X1.6932Y-4.0371
G05
X1.6932Y-4.4304G85X1.6932Y-4.1946
G05
X1.6932Y-4.5879G85X1.6932Y-4.3521
G05
X1.9292Y-4.0369G85X1.6934Y-4.0369
G05
X1.9292Y-4.5881G85X1.6934Y-4.5881
G05
X2.0867Y-4.0369G85X1.8508Y-4.0369
G05
X2.0867Y-4.5881G85X1.8508Y-4.5881
G05
X2.2441Y-4.0369G85X2.0083Y-4.0369
G05
X2.2441Y-4.5881G85X2.0083Y-4.5881
G05
X2.2443Y-4.273G85X2.2443Y-4.0371
G05
X2.2443Y-4.4304G85X2.2443Y-4.1946
G05
X2.2443Y-4.5879G85X2.2443Y-4.3521
G05
X1.7869Y-1.2729G85X1.7869Y-1.0371
G05
X1.7869Y-1.4304G85X1.7869Y-1.1946
G05
X1.7869Y-1.5879G85X1.7869Y-1.3521
G05
X2.0229Y-1.0369G85X1.7871Y-1.0369
G05
X2.0229Y-1.5881G85X1.7871Y-1.5881
G05
X2.1804Y-1.0369G85X1.9446Y-1.0369
G05
X2.1804Y-1.5881G85X1.9446Y-1.5881
G05
X2.3379Y-1.0369G85X2.1021Y-1.0369
G05
X2.3379Y-1.5881G85X2.1021Y-1.5881
G05
X2.3381Y-1.2729G85X2.3381Y-1.0371
G05
X2.3381Y-1.4304G85X2.3381Y-1.1946
G05
X2.3381Y-1.5879G85X2.3381Y-1.3521
G05
X7.7869Y-3.5229G85X7.7869Y-3.2871
G05
X7.7869Y-3.6804G85X7.7869Y-3.4446
G05
X7.7869Y-3.8379G85X7.7869Y-3.6021
G05
X8.023Y-3.2869G85X7.7871Y-3.2869
G05
X8.023Y-3.8381G85X7.7871Y-3.8381
G05
X8.1804Y-3.2869G85X7.9446Y-3.2869
G05
X8.1804Y-3.8381G85X7.9446Y-3.8381
G05
X8.3379Y-3.2869G85X8.1021Y-3.2869
G05
X8.3379Y-3.8381G85X8.1021Y-3.8381
G05
X8.3381Y-3.5229G85X8.3381Y-3.2871
G05
X8.3381Y-3.6804G85X8.3381Y-3.4446
G05
X8.3381Y-3.8379G85X8.3381Y-3.6021
G05
X13.0369Y-4.273G85X13.0369Y-4.0371
G05
X13.0369Y-4.4304G85X13.0369Y-4.1946
G05
X13.0369Y-4.5879G85X13.0369Y-4.3521
G05
X13.273Y-4.0369G85X13.0371Y-4.0369
G05
X13.273Y-4.5881G85X13.0371Y-4.5881
G05
X13.4304Y-4.0369G85X13.1946Y-4.0369
G05
X13.4304Y-4.5881G85X13.1946Y-4.5881
G05
X13.5879Y-4.0369G85X13.3521Y-4.0369
G05
X13.5879Y-4.5881G85X13.3521Y-4.5881
G05
X13.5881Y-4.273G85X13.5881Y-4.0371
G05
X13.5881Y-4.4304G85X13.5881Y-4.1946
G05
X13.5881Y-4.5879G85X13.5881Y-4.3521
G05
X1.6932Y-2.7729G85X1.6932Y-2.5371
G05
X1.6932Y-2.9304G85X1.6932Y-2.6946
G05
X1.6932Y-3.0879G85X1.6932Y-2.8521
G05
X1.9292Y-2.5369G85X1.6934Y-2.5369
G05
X1.9292Y-3.0881G85X1.6934Y-3.0881
G05
X2.0867Y-2.5369G85X1.8508Y-2.5369
G05
X2.0867Y-3.0881G85X1.8508Y-3.0881
G05
X2.2441Y-2.5369G85X2.0083Y-2.5369
G05
X2.2441Y-3.0881G85X2.0083Y-3.0881
G05
X2.2443Y-2.7729G85X2.2443Y-2.5371
G05
X2.2443Y-2.9304G85X2.2443Y-2.6946
G05
X2.2443Y-3.0879G85X2.2443Y-2.8521
G05
X9.0994Y-4.1309G85X9.0994Y-4.3667
G05
X9.0994Y-4.2883G85X9.0994Y-4.5242
G05
X9.0994Y-4.4458G85X9.0994Y-4.6817
G05
X9.3354Y-4.1307G85X9.0996Y-4.1307
G05
X9.3354Y-4.6819G85X9.0996Y-4.6819
G05
X9.4929Y-4.1307G85X9.2571Y-4.1307
G05
X9.4929Y-4.6819G85X9.2571Y-4.6819
G05
X9.6504Y-4.1307G85X9.4146Y-4.1307
G05
X9.6504Y-4.6819G85X9.4146Y-4.6819
G05
X9.6506Y-4.1309G85X9.6506Y-4.3667
G05
X9.6506Y-4.2883G85X9.6506Y-4.5242
G05
X9.6506Y-4.4458G85X9.6506Y-4.6817
G05
X9.2869Y-1.2729G85X9.2869Y-1.0371
G05
X9.2869Y-1.4304G85X9.2869Y-1.1946
G05
X9.2869Y-1.5879G85X9.2869Y-1.3521
G05
X9.523Y-1.0369G85X9.2871Y-1.0369
G05
X9.523Y-1.5881G85X9.2871Y-1.5881
G05
X9.6804Y-1.0369G85X9.4446Y-1.0369
G05
X9.6804Y-1.5881G85X9.4446Y-1.5881
G05
X9.8379Y-1.0369G85X9.6021Y-1.0369
G05
X9.8379Y-1.5881G85X9.6021Y-1.5881
G05
X9.8381Y-1.2729G85X9.8381Y-1.0371
G05
X9.8381Y-1.4304G85X9.8381Y-1.1946
G05
X9.8381Y-1.5879G85X9.8381Y-1.3521
G05
X4.2244Y-2.7729G85X4.2244Y-2.5371
G05
X4.2244Y-2.9304G85X4.2244Y-2.6946
G05
X4.2244Y-3.0879G85X4.2244Y-2.8521
G05
X4.4604Y-2.5369G85X4.2246Y-2.5369
G05
X4.4604Y-3.0881G85X4.2246Y-3.0881
G05
X4.6179Y-2.5369G85X4.3821Y-2.5369
G05
X4.6179Y-3.0881G85X4.3821Y-3.0881
G05
X4.7754Y-2.5369G85X4.5396Y-2.5369
G05
X4.7754Y-3.0881G85X4.5396Y-3.0881
G05
X4.7756Y-2.7729G85X4.7756Y-2.5371
G05
X4.7756Y-2.9304G85X4.7756Y-2.6946
G05
X4.7756Y-3.0879G85X4.7756Y-2.8521
G05
X12.2869Y-4.273G85X12.2869Y-4.0371
G05
X12.2869Y-4.4304G85X12.2869Y-4.1946
G05
X12.2869Y-4.5879G85X12.2869Y-4.3521
G05
X12.523Y-4.0369G85X12.2871Y-4.0369
G05
X12.523Y-4.5881G85X12.2871Y-4.5881
G05
X12.6804Y-4.0369G85X12.4446Y-4.0369
G05
X12.6804Y-4.5881G85X12.4446Y-4.5881
G05
X12.8379Y-4.0369G85X12.6021Y-4.0369
G05
X12.8379Y-4.5881G85X12.6021Y-4.5881
G05
X12.8381Y-4.273G85X12.8381Y-4.0371
G05
X12.8381Y-4.4304G85X12.8381Y-4.1946
G05
X12.8381Y-4.5879G85X12.8381Y-4.3521
G05
X2.9119Y-2.0229G85X2.9119Y-1.7871
G05
X2.9119Y-2.1804G85X2.9119Y-1.9446
G05
X2.9119Y-2.3379G85X2.9119Y-2.1021
G05
X3.1479Y-1.7869G85X2.9121Y-1.7869
G05
X3.1479Y-2.3381G85X2.9121Y-2.3381
G05
X3.3054Y-1.7869G85X3.0696Y-1.7869
G05
X3.3054Y-2.3381G85X3.0696Y-2.3381
G05
X3.4629Y-1.7869G85X3.2271Y-1.7869
G05
X3.4629Y-2.3381G85X3.2271Y-2.3381
G05
X3.4631Y-2.0229G85X3.4631Y-1.7871
G05
X3.4631Y-2.1804G85X3.4631Y-1.9446
G05
X3.4631Y-2.3379G85X3.4631Y-2.1021
G05
X5.5369Y-1.2729G85X5.5369Y-1.0371
G05
X5.5369Y-1.4304G85X5.5369Y-1.1946
G05
X5.5369Y-1.5879G85X5.5369Y-1.3521
G05
X5.773Y-1.0369G85X5.5371Y-1.0369
G05
X5.773Y-1.5881G85X5.5371Y-1.5881
G05
X5.9304Y-1.0369G85X5.6946Y-1.0369
G05
X5.9304Y-1.5881G85X5.6946Y-1.5881
G05
X6.0879Y-1.0369G85X5.8521Y-1.0369
G05
X6.0879Y-1.5881G85X5.8521Y-1.5881
G05
X6.0881Y-1.2729G85X6.0881Y-1.0371
G05
X6.0881Y-1.4304G85X6.0881Y-1.1946
G05
X6.0881Y-1.5879G85X6.0881Y-1.3521
G05
X5.5369Y-3.5229G85X5.5369Y-3.2871
G05
X5.5369Y-3.6804G85X5.5369Y-3.4446
G05
X5.5369Y-3.8379G85X5.5369Y-3.6021
G05
X5.773Y-3.2869G85X5.5371Y-3.2869
G05
X5.773Y-3.8381G85X5.5371Y-3.8381
G05
X5.9304Y-3.2869G85X5.6946Y-3.2869
G05
X5.9304Y-3.8381G85X5.6946Y-3.8381
G05
X6.0879Y-3.2869G85X5.8521Y-3.2869
G05
X6.0879Y-3.8381G85X5.8521Y-3.8381
G05
X6.0881Y-3.5229G85X6.0881Y-3.2871
G05
X6.0881Y-3.6804G85X6.0881Y-3.4446
G05
X6.0881Y-3.8379G85X6.0881Y-3.6021
G05
X10.0369Y-3.5229G85X10.0369Y-3.2871
G05
X10.0369Y-3.6804G85X10.0369Y-3.4446
G05
X10.0369Y-3.8379G85X10.0369Y-3.6021
G05
X10.273Y-3.2869G85X10.0371Y-3.2869
G05
X10.273Y-3.8381G85X10.0371Y-3.8381
G05
X10.4304Y-3.2869G85X10.1946Y-3.2869
G05
X10.4304Y-3.8381G85X10.1946Y-3.8381
G05
X10.5879Y-3.2869G85X10.3521Y-3.2869
G05
X10.5879Y-3.8381G85X10.3521Y-3.8381
G05
X10.5881Y-3.5229G85X10.5881Y-3.2871
G05
X10.5881Y-3.6804G85X10.5881Y-3.4446
G05
X10.5881Y-3.8379G85X10.5881Y-3.6021
G05
X6.2869Y-3.5229G85X6.2869Y-3.2871
G05
X6.2869Y-3.6804G85X6.2869Y-3.4446
G05
X6.2869Y-3.8379G85X6.2869Y-3.6021
G05
X6.523Y-3.2869G85X6.2871Y-3.2869
G05
X6.523Y-3.8381G85X6.2871Y-3.8381
G05
X6.6804Y-3.2869G85X6.4446Y-3.2869
G05
X6.6804Y-3.8381G85X6.4446Y-3.8381
G05
X6.8379Y-3.2869G85X6.6021Y-3.2869
G05
X6.8379Y-3.8381G85X6.6021Y-3.8381
G05
X6.8381Y-3.5229G85X6.8381Y-3.2871
G05
X6.8381Y-3.6804G85X6.8381Y-3.4446
G05
X6.8381Y-3.8379G85X6.8381Y-3.6021
G05
T0
M30
