M48
;DRILL file {KiCad 5.0.2-bee76a0~70~ubuntu18.04.1} date 2020年02月19日 03時00分38秒
;FORMAT={-:-/ absolute / inch / decimal}
FMAT,2
INCH,TZ
T1C0.0157
T2C0.0866
%
G90
G05
T1
X7.2425Y-2.595
X7.2615Y-2.5491
X7.2615Y-2.6409
X7.3075Y-2.53
X7.3075Y-2.66
X7.3534Y-2.5491
X7.3534Y-2.6409
X7.3724Y-2.595
X14.31Y-4.8125
X14.3291Y-4.7666
X14.3291Y-4.8585
X14.375Y-4.7476
X14.375Y-4.8775
X14.4209Y-4.7666
X14.4209Y-4.8585
X14.44Y-4.8125
X13.785Y-1.3625
X13.8041Y-1.3166
X13.8041Y-1.4084
X13.85Y-1.2975
X13.85Y-1.4275
X13.8959Y-1.3166
X13.8959Y-1.4084
X13.915Y-1.3625
X0.81Y-1.3625
X0.8291Y-1.3166
X0.8291Y-1.4084
X0.875Y-1.2975
X0.875Y-1.4275
X0.9209Y-1.3166
X0.9209Y-1.4084
X0.94Y-1.3625
X1.06Y-4.81
X1.0791Y-4.7641
X1.0791Y-4.8559
X1.125Y-4.745
X1.125Y-4.875
X1.1709Y-4.7641
X1.1709Y-4.8559
X1.19Y-4.81
T2
X14.375Y-4.8125
X13.85Y-1.3625
X0.875Y-1.3625
X1.125Y-4.81
X7.3075Y-2.595
T0
M30
