G04 #@! TF.GenerationSoftware,KiCad,Pcbnew,5.0.2-bee76a0~70~ubuntu18.04.1*
G04 #@! TF.CreationDate,2020-02-19T03:00:32+09:00*
G04 #@! TF.ProjectId,amatelus73,616d6174-656c-4757-9337-332e6b696361,rev?*
G04 #@! TF.SameCoordinates,Original*
G04 #@! TF.FileFunction,Legend,Top*
G04 #@! TF.FilePolarity,Positive*
%FSLAX46Y46*%
G04 Gerber Fmt 4.6, Leading zero omitted, Abs format (unit mm)*
G04 Created by KiCad (PCBNEW 5.0.2-bee76a0~70~ubuntu18.04.1) date 2020年02月19日 03時00分32秒*
%MOMM*%
%LPD*%
G01*
G04 APERTURE LIST*
%ADD10C,0.300000*%
%ADD11C,0.010000*%
%ADD12C,0.150000*%
G04 APERTURE END LIST*
D10*
X337388571Y-110528571D02*
X337388571Y-109028571D01*
X337960000Y-109028571D01*
X338102857Y-109100000D01*
X338174285Y-109171428D01*
X338245714Y-109314285D01*
X338245714Y-109528571D01*
X338174285Y-109671428D01*
X338102857Y-109742857D01*
X337960000Y-109814285D01*
X337388571Y-109814285D01*
X339745714Y-110385714D02*
X339674285Y-110457142D01*
X339460000Y-110528571D01*
X339317142Y-110528571D01*
X339102857Y-110457142D01*
X338960000Y-110314285D01*
X338888571Y-110171428D01*
X338817142Y-109885714D01*
X338817142Y-109671428D01*
X338888571Y-109385714D01*
X338960000Y-109242857D01*
X339102857Y-109100000D01*
X339317142Y-109028571D01*
X339460000Y-109028571D01*
X339674285Y-109100000D01*
X339745714Y-109171428D01*
X340388571Y-110528571D02*
X340388571Y-109028571D01*
X340960000Y-109028571D01*
X341102857Y-109100000D01*
X341174285Y-109171428D01*
X341245714Y-109314285D01*
X341245714Y-109528571D01*
X341174285Y-109671428D01*
X341102857Y-109742857D01*
X340960000Y-109814285D01*
X340388571Y-109814285D01*
X343031428Y-110528571D02*
X343031428Y-109028571D01*
X343388571Y-109028571D01*
X343602857Y-109100000D01*
X343745714Y-109242857D01*
X343817142Y-109385714D01*
X343888571Y-109671428D01*
X343888571Y-109885714D01*
X343817142Y-110171428D01*
X343745714Y-110314285D01*
X343602857Y-110457142D01*
X343388571Y-110528571D01*
X343031428Y-110528571D01*
X345102857Y-110457142D02*
X344960000Y-110528571D01*
X344674285Y-110528571D01*
X344531428Y-110457142D01*
X344460000Y-110314285D01*
X344460000Y-109742857D01*
X344531428Y-109600000D01*
X344674285Y-109528571D01*
X344960000Y-109528571D01*
X345102857Y-109600000D01*
X345174285Y-109742857D01*
X345174285Y-109885714D01*
X344460000Y-110028571D01*
X345745714Y-110457142D02*
X345888571Y-110528571D01*
X346174285Y-110528571D01*
X346317142Y-110457142D01*
X346388571Y-110314285D01*
X346388571Y-110242857D01*
X346317142Y-110100000D01*
X346174285Y-110028571D01*
X345960000Y-110028571D01*
X345817142Y-109957142D01*
X345745714Y-109814285D01*
X345745714Y-109742857D01*
X345817142Y-109600000D01*
X345960000Y-109528571D01*
X346174285Y-109528571D01*
X346317142Y-109600000D01*
X347031428Y-110528571D02*
X347031428Y-109528571D01*
X347031428Y-109028571D02*
X346960000Y-109100000D01*
X347031428Y-109171428D01*
X347102857Y-109100000D01*
X347031428Y-109028571D01*
X347031428Y-109171428D01*
X348388571Y-109528571D02*
X348388571Y-110742857D01*
X348317142Y-110885714D01*
X348245714Y-110957142D01*
X348102857Y-111028571D01*
X347888571Y-111028571D01*
X347745714Y-110957142D01*
X348388571Y-110457142D02*
X348245714Y-110528571D01*
X347960000Y-110528571D01*
X347817142Y-110457142D01*
X347745714Y-110385714D01*
X347674285Y-110242857D01*
X347674285Y-109814285D01*
X347745714Y-109671428D01*
X347817142Y-109600000D01*
X347960000Y-109528571D01*
X348245714Y-109528571D01*
X348388571Y-109600000D01*
X349102857Y-109528571D02*
X349102857Y-110528571D01*
X349102857Y-109671428D02*
X349174285Y-109600000D01*
X349317142Y-109528571D01*
X349531428Y-109528571D01*
X349674285Y-109600000D01*
X349745714Y-109742857D01*
X349745714Y-110528571D01*
X351031428Y-110457142D02*
X350888571Y-110528571D01*
X350602857Y-110528571D01*
X350460000Y-110457142D01*
X350388571Y-110314285D01*
X350388571Y-109742857D01*
X350460000Y-109600000D01*
X350602857Y-109528571D01*
X350888571Y-109528571D01*
X351031428Y-109600000D01*
X351102857Y-109742857D01*
X351102857Y-109885714D01*
X350388571Y-110028571D01*
X352388571Y-110528571D02*
X352388571Y-109028571D01*
X352388571Y-110457142D02*
X352245714Y-110528571D01*
X351960000Y-110528571D01*
X351817142Y-110457142D01*
X351745714Y-110385714D01*
X351674285Y-110242857D01*
X351674285Y-109814285D01*
X351745714Y-109671428D01*
X351817142Y-109600000D01*
X351960000Y-109528571D01*
X352245714Y-109528571D01*
X352388571Y-109600000D01*
X354245714Y-110528571D02*
X354245714Y-109028571D01*
X354245714Y-109600000D02*
X354388571Y-109528571D01*
X354674285Y-109528571D01*
X354817142Y-109600000D01*
X354888571Y-109671428D01*
X354960000Y-109814285D01*
X354960000Y-110242857D01*
X354888571Y-110385714D01*
X354817142Y-110457142D01*
X354674285Y-110528571D01*
X354388571Y-110528571D01*
X354245714Y-110457142D01*
X355460000Y-109528571D02*
X355817142Y-110528571D01*
X356174285Y-109528571D02*
X355817142Y-110528571D01*
X355674285Y-110885714D01*
X355602857Y-110957142D01*
X355460000Y-111028571D01*
X341995714Y-113007142D02*
X342210000Y-113078571D01*
X342567142Y-113078571D01*
X342710000Y-113007142D01*
X342781428Y-112935714D01*
X342852857Y-112792857D01*
X342852857Y-112650000D01*
X342781428Y-112507142D01*
X342710000Y-112435714D01*
X342567142Y-112364285D01*
X342281428Y-112292857D01*
X342138571Y-112221428D01*
X342067142Y-112150000D01*
X341995714Y-112007142D01*
X341995714Y-111864285D01*
X342067142Y-111721428D01*
X342138571Y-111650000D01*
X342281428Y-111578571D01*
X342638571Y-111578571D01*
X342852857Y-111650000D01*
X343352857Y-112078571D02*
X343638571Y-113078571D01*
X343924285Y-112364285D01*
X344210000Y-113078571D01*
X344495714Y-112078571D01*
X345710000Y-113078571D02*
X345710000Y-112292857D01*
X345638571Y-112150000D01*
X345495714Y-112078571D01*
X345210000Y-112078571D01*
X345067142Y-112150000D01*
X345710000Y-113007142D02*
X345567142Y-113078571D01*
X345210000Y-113078571D01*
X345067142Y-113007142D01*
X344995714Y-112864285D01*
X344995714Y-112721428D01*
X345067142Y-112578571D01*
X345210000Y-112507142D01*
X345567142Y-112507142D01*
X345710000Y-112435714D01*
X346424285Y-112078571D02*
X346424285Y-113078571D01*
X346424285Y-112221428D02*
X346495714Y-112150000D01*
X346638571Y-112078571D01*
X346852857Y-112078571D01*
X346995714Y-112150000D01*
X347067142Y-112292857D01*
X347067142Y-113078571D01*
X347781428Y-113078571D02*
X347781428Y-111578571D01*
X348281428Y-112650000D01*
X348781428Y-111578571D01*
X348781428Y-113078571D01*
X350138571Y-113078571D02*
X350138571Y-112292857D01*
X350067142Y-112150000D01*
X349924285Y-112078571D01*
X349638571Y-112078571D01*
X349495714Y-112150000D01*
X350138571Y-113007142D02*
X349995714Y-113078571D01*
X349638571Y-113078571D01*
X349495714Y-113007142D01*
X349424285Y-112864285D01*
X349424285Y-112721428D01*
X349495714Y-112578571D01*
X349638571Y-112507142D01*
X349995714Y-112507142D01*
X350138571Y-112435714D01*
X350638571Y-112078571D02*
X351210000Y-112078571D01*
X350852857Y-111578571D02*
X350852857Y-112864285D01*
X350924285Y-113007142D01*
X351067142Y-113078571D01*
X351210000Y-113078571D01*
X352352857Y-113007142D02*
X352210000Y-113078571D01*
X351924285Y-113078571D01*
X351781428Y-113007142D01*
X351710000Y-112935714D01*
X351638571Y-112792857D01*
X351638571Y-112364285D01*
X351710000Y-112221428D01*
X351781428Y-112150000D01*
X351924285Y-112078571D01*
X352210000Y-112078571D01*
X352352857Y-112150000D01*
X352995714Y-113078571D02*
X352995714Y-111578571D01*
X353638571Y-113078571D02*
X353638571Y-112292857D01*
X353567142Y-112150000D01*
X353424285Y-112078571D01*
X353210000Y-112078571D01*
X353067142Y-112150000D01*
X352995714Y-112221428D01*
D11*
G04 #@! TO.C,G\002A\002A\002A*
G36*
X186300281Y-27497364D02*
X186338727Y-27665214D01*
X186420114Y-28119099D01*
X186540085Y-28831097D01*
X186694284Y-29773289D01*
X186878357Y-30917750D01*
X187087947Y-32236560D01*
X187318699Y-33701797D01*
X187566256Y-35285539D01*
X187826263Y-36959864D01*
X188094365Y-38696851D01*
X188366205Y-40468578D01*
X188637428Y-42247122D01*
X188903678Y-44004563D01*
X189160599Y-45712978D01*
X189403836Y-47344445D01*
X189539220Y-48260000D01*
X189826021Y-50183989D01*
X190083976Y-51868802D01*
X190311089Y-53302521D01*
X190505361Y-54473226D01*
X190664795Y-55369001D01*
X190787394Y-55977924D01*
X190871160Y-56288079D01*
X190890583Y-56323499D01*
X191053933Y-56293109D01*
X191287055Y-56124183D01*
X191432987Y-55962649D01*
X191766994Y-55574821D01*
X192274119Y-54978501D01*
X192939404Y-54191494D01*
X193747891Y-53231603D01*
X194684623Y-52116632D01*
X195734642Y-50864384D01*
X196882992Y-49492663D01*
X198114713Y-48019272D01*
X199414850Y-46462016D01*
X200768444Y-44838698D01*
X200769770Y-44837107D01*
X202116059Y-43222422D01*
X203403615Y-41679878D01*
X204618061Y-40226604D01*
X205745016Y-38879732D01*
X206770100Y-37656388D01*
X207678934Y-36573705D01*
X208457139Y-35648810D01*
X209090335Y-34898834D01*
X209564142Y-34340906D01*
X209864180Y-33992156D01*
X209976071Y-33869713D01*
X209976415Y-33869748D01*
X209940479Y-34034897D01*
X209795639Y-34473086D01*
X209550199Y-35162282D01*
X209212461Y-36080453D01*
X208790728Y-37205564D01*
X208293303Y-38515582D01*
X207728488Y-39988474D01*
X207104586Y-41602206D01*
X206429901Y-43334744D01*
X205899770Y-44688125D01*
X205619118Y-45404019D01*
X205240785Y-46370800D01*
X204782319Y-47543502D01*
X204261269Y-48877159D01*
X203695185Y-50326806D01*
X203101615Y-51847477D01*
X202498109Y-53394208D01*
X201902214Y-54922032D01*
X201331480Y-56385984D01*
X200803456Y-57741099D01*
X200335690Y-58942411D01*
X200025386Y-59740054D01*
X199768536Y-60420110D01*
X199569504Y-60984919D01*
X199448758Y-61373629D01*
X199425175Y-61524341D01*
X199560544Y-61502943D01*
X199926956Y-61393021D01*
X200531063Y-61192185D01*
X201379520Y-60898044D01*
X202478980Y-60508207D01*
X203836096Y-60020283D01*
X205457523Y-59431881D01*
X207349912Y-58740610D01*
X209519919Y-57944080D01*
X211974196Y-57039898D01*
X214471250Y-56117452D01*
X215686096Y-55668842D01*
X216976240Y-55193571D01*
X218256110Y-54723083D01*
X219440137Y-54288822D01*
X220442750Y-53922233D01*
X220741875Y-53813220D01*
X221754098Y-53443089D01*
X222823157Y-53049341D01*
X223844991Y-52670482D01*
X224715539Y-52345017D01*
X225008235Y-52234563D01*
X225701399Y-51980702D01*
X226289127Y-51781836D01*
X226706615Y-51658808D01*
X226885475Y-51630783D01*
X226815482Y-51741161D01*
X226534450Y-52020024D01*
X226078466Y-52436516D01*
X225483616Y-52959782D01*
X224785985Y-53558967D01*
X224021659Y-54203217D01*
X223226724Y-54861677D01*
X222437266Y-55503491D01*
X221689371Y-56097806D01*
X221377113Y-56340665D01*
X220690333Y-56885894D01*
X219926300Y-57515797D01*
X219242032Y-58100752D01*
X219196545Y-58140750D01*
X218651202Y-58613251D01*
X218136791Y-59044700D01*
X217741776Y-59361320D01*
X217655039Y-59426335D01*
X217039231Y-59881886D01*
X216359236Y-60398533D01*
X215670421Y-60932610D01*
X215028153Y-61440450D01*
X214487798Y-61878386D01*
X214104722Y-62202752D01*
X213953668Y-62345526D01*
X213872214Y-62445357D01*
X213854660Y-62522419D01*
X213936438Y-62581137D01*
X214152977Y-62625937D01*
X214539706Y-62661245D01*
X215132057Y-62691488D01*
X215965459Y-62721092D01*
X217075342Y-62754484D01*
X217273386Y-62760254D01*
X218108968Y-62779685D01*
X219219500Y-62797947D01*
X220562431Y-62814703D01*
X222095213Y-62829618D01*
X223775294Y-62842355D01*
X225560127Y-62852579D01*
X227407160Y-62859953D01*
X229273846Y-62864142D01*
X230538538Y-62865000D01*
X232584369Y-62865248D01*
X234336917Y-62867050D01*
X235820398Y-62871991D01*
X237059029Y-62881656D01*
X238077027Y-62897631D01*
X238898608Y-62921501D01*
X239547989Y-62954851D01*
X240049387Y-62999267D01*
X240427019Y-63056333D01*
X240705100Y-63127635D01*
X240907849Y-63214758D01*
X241059481Y-63319289D01*
X241184214Y-63442811D01*
X241291312Y-63568907D01*
X241299144Y-63603231D01*
X241252970Y-63634276D01*
X241137969Y-63662202D01*
X240939317Y-63687173D01*
X240642192Y-63709351D01*
X240231770Y-63728899D01*
X239693228Y-63745978D01*
X239011743Y-63760751D01*
X238172493Y-63773381D01*
X237160653Y-63784029D01*
X235961402Y-63792858D01*
X234559916Y-63800031D01*
X232941372Y-63805709D01*
X231090947Y-63810055D01*
X228993818Y-63813232D01*
X226635163Y-63815402D01*
X224000157Y-63816726D01*
X221073978Y-63817368D01*
X218592925Y-63817499D01*
X195688225Y-63817500D01*
X194880050Y-63207553D01*
X193001151Y-61975405D01*
X191028319Y-61045663D01*
X188956541Y-60416809D01*
X186780802Y-60087323D01*
X184496088Y-60055686D01*
X184480687Y-60056460D01*
X182449565Y-60276047D01*
X180557698Y-60733787D01*
X178744882Y-61450755D01*
X176950917Y-62448027D01*
X176177910Y-62962982D01*
X174952696Y-63817500D01*
X129786944Y-63817500D01*
X130115757Y-63488686D01*
X130491155Y-63233961D01*
X130985005Y-63036435D01*
X131063847Y-63016224D01*
X131348363Y-62986425D01*
X131915165Y-62958540D01*
X132729043Y-62933233D01*
X133754786Y-62911165D01*
X134957182Y-62892999D01*
X136301022Y-62879400D01*
X137751095Y-62871029D01*
X138906250Y-62868570D01*
X140994773Y-62864819D01*
X143074480Y-62856159D01*
X145121498Y-62843005D01*
X147111954Y-62825775D01*
X149021974Y-62804885D01*
X150827686Y-62780754D01*
X152505216Y-62753798D01*
X154030691Y-62724434D01*
X155380239Y-62693080D01*
X156529985Y-62660152D01*
X157456058Y-62626068D01*
X158134584Y-62591245D01*
X158541690Y-62556100D01*
X158655783Y-62523485D01*
X158519066Y-62394459D01*
X158166521Y-62086186D01*
X157626290Y-61622603D01*
X156926519Y-61027647D01*
X156095350Y-60325256D01*
X155160927Y-59539367D01*
X154256983Y-58782179D01*
X152399213Y-57227784D01*
X150775383Y-55866610D01*
X149374782Y-54689510D01*
X148603270Y-54038723D01*
X150378359Y-54038723D01*
X150482082Y-54150604D01*
X150804378Y-54443318D01*
X151319605Y-54894808D01*
X152002123Y-55483014D01*
X152826288Y-56185878D01*
X153766461Y-56981339D01*
X154796999Y-57847340D01*
X155109412Y-58108788D01*
X156169410Y-59000685D01*
X157151965Y-59838278D01*
X158030322Y-60597943D01*
X158777727Y-61256058D01*
X159367425Y-61789001D01*
X159772664Y-62173149D01*
X159966689Y-62384878D01*
X159979192Y-62408597D01*
X159989582Y-62466555D01*
X160002920Y-62516548D01*
X160041273Y-62559412D01*
X160126706Y-62595982D01*
X160281285Y-62627095D01*
X160527076Y-62653587D01*
X160886145Y-62676293D01*
X161380558Y-62696050D01*
X162032381Y-62713693D01*
X162863680Y-62730059D01*
X163896520Y-62745984D01*
X165152967Y-62762303D01*
X166655088Y-62779853D01*
X168424948Y-62799469D01*
X170484614Y-62821988D01*
X171056524Y-62828269D01*
X174393673Y-62865000D01*
X175501524Y-62050626D01*
X176732347Y-61251900D01*
X178166274Y-60497047D01*
X179689125Y-59841624D01*
X180895625Y-59425933D01*
X181419273Y-59273351D01*
X181875599Y-59161551D01*
X182329389Y-59084234D01*
X182845427Y-59035104D01*
X183488498Y-59007863D01*
X184323386Y-58996214D01*
X185340625Y-58993852D01*
X186415824Y-58996641D01*
X187238418Y-59009187D01*
X187873285Y-59037763D01*
X188385301Y-59088639D01*
X188839341Y-59168086D01*
X189300283Y-59282374D01*
X189785625Y-59423505D01*
X191055071Y-59866657D01*
X192372557Y-60433996D01*
X193630240Y-61073493D01*
X194720273Y-61733114D01*
X195044302Y-61960640D01*
X195944614Y-62508768D01*
X196823275Y-62783514D01*
X197770123Y-62808779D01*
X198087596Y-62770283D01*
X198213557Y-62745937D01*
X199708653Y-62745937D01*
X199861506Y-62772062D01*
X200298048Y-62796206D01*
X200984472Y-62817725D01*
X201886967Y-62835979D01*
X202971728Y-62850326D01*
X204204945Y-62860122D01*
X205552810Y-62864727D01*
X205978125Y-62865000D01*
X207590761Y-62863403D01*
X208912451Y-62858002D01*
X209969737Y-62847881D01*
X210789159Y-62832124D01*
X211397258Y-62809815D01*
X211820576Y-62780038D01*
X212085654Y-62741878D01*
X212219032Y-62694417D01*
X212248750Y-62648598D01*
X212293836Y-62512100D01*
X212441678Y-62310286D01*
X212711151Y-62026610D01*
X213121133Y-61644525D01*
X213690499Y-61147484D01*
X214438124Y-60518942D01*
X215382886Y-59742351D01*
X216543658Y-58801165D01*
X217689517Y-57879236D01*
X218646191Y-57108468D01*
X219515449Y-56402418D01*
X220268303Y-55785084D01*
X220875767Y-55280461D01*
X221308854Y-54912548D01*
X221538578Y-54705341D01*
X221567745Y-54668578D01*
X221408388Y-54702359D01*
X221003309Y-54830863D01*
X220403815Y-55036655D01*
X219661214Y-55302302D01*
X219143227Y-55492455D01*
X216925137Y-56313953D01*
X214752439Y-57117745D01*
X212650172Y-57894616D01*
X210643372Y-58635348D01*
X208757075Y-59330728D01*
X207016318Y-59971537D01*
X205446137Y-60548561D01*
X204071570Y-61052584D01*
X202917653Y-61474389D01*
X202009422Y-61804760D01*
X201371915Y-62034483D01*
X201335840Y-62047352D01*
X200677267Y-62292294D01*
X200146517Y-62509150D01*
X199804822Y-62671635D01*
X199708653Y-62745937D01*
X198213557Y-62745937D01*
X198501375Y-62690307D01*
X198631652Y-62607840D01*
X198538509Y-62518342D01*
X198398237Y-62413735D01*
X198306784Y-62263829D01*
X198271606Y-62042192D01*
X198300159Y-61722389D01*
X198399899Y-61277985D01*
X198578282Y-60682546D01*
X198842763Y-59909638D01*
X199200799Y-58932827D01*
X199659845Y-57725678D01*
X200227358Y-56261757D01*
X200500431Y-55562500D01*
X200954648Y-54399756D01*
X201420069Y-53206062D01*
X201868348Y-52054287D01*
X202271134Y-51017303D01*
X202600078Y-50167979D01*
X202723750Y-49847500D01*
X203139941Y-48769286D01*
X203592552Y-47600617D01*
X204065237Y-46383341D01*
X204541648Y-45159302D01*
X205005438Y-43970347D01*
X205440260Y-42858324D01*
X205829766Y-41865077D01*
X206157610Y-41032453D01*
X206407444Y-40402300D01*
X206562922Y-40016462D01*
X206584191Y-39965312D01*
X206725294Y-39596301D01*
X206777220Y-39387505D01*
X206768628Y-39370000D01*
X206658426Y-39488669D01*
X206361340Y-39831669D01*
X205893826Y-40379488D01*
X205272341Y-41112615D01*
X204513341Y-42011538D01*
X203633283Y-43056745D01*
X202648621Y-44228726D01*
X201575814Y-45507968D01*
X200431317Y-46874961D01*
X199571931Y-47902812D01*
X198367724Y-49342785D01*
X197209534Y-50725605D01*
X196115580Y-52029651D01*
X195104083Y-53233301D01*
X194193265Y-54314934D01*
X193401346Y-55252928D01*
X192746546Y-56025662D01*
X192247087Y-56611514D01*
X191921188Y-56988861D01*
X191812713Y-57110312D01*
X191301445Y-57574382D01*
X190865675Y-57760184D01*
X190453742Y-57680375D01*
X190192734Y-57507187D01*
X190123815Y-57454551D01*
X190063153Y-57403003D01*
X190006950Y-57331221D01*
X189951412Y-57217882D01*
X189892741Y-57041662D01*
X189827141Y-56781239D01*
X189750817Y-56415291D01*
X189659971Y-55922493D01*
X189550807Y-55281524D01*
X189419530Y-54471060D01*
X189262343Y-53469778D01*
X189075450Y-52256356D01*
X188855053Y-50809471D01*
X188597358Y-49107799D01*
X188298568Y-47130018D01*
X188037645Y-45402500D01*
X187679489Y-43037284D01*
X187365113Y-40973110D01*
X187092423Y-39196853D01*
X186859324Y-37695386D01*
X186663721Y-36455584D01*
X186503521Y-35464321D01*
X186376628Y-34708470D01*
X186280947Y-34174906D01*
X186214386Y-33850503D01*
X186174848Y-33722134D01*
X186173524Y-33720607D01*
X186131841Y-33852516D01*
X186046461Y-34250493D01*
X185926501Y-34867528D01*
X185781079Y-35656614D01*
X185619314Y-36570742D01*
X185607551Y-36638562D01*
X185427750Y-37675323D01*
X185209139Y-38933850D01*
X184967545Y-40323144D01*
X184718796Y-41752206D01*
X184478721Y-43130039D01*
X184373108Y-43735625D01*
X184135803Y-45096180D01*
X183862311Y-46664749D01*
X183570896Y-48336545D01*
X183279822Y-50006786D01*
X183007351Y-51570688D01*
X182866235Y-52380872D01*
X182655584Y-53556437D01*
X182449550Y-54643464D01*
X182257236Y-55598608D01*
X182087745Y-56378524D01*
X181950180Y-56939867D01*
X181853642Y-57239293D01*
X181841061Y-57262434D01*
X181465954Y-57570825D01*
X181142098Y-57626250D01*
X180866351Y-57577081D01*
X180568611Y-57400315D01*
X180191245Y-57052061D01*
X179734973Y-56554687D01*
X179544707Y-56339474D01*
X179374300Y-56146065D01*
X179208789Y-55955959D01*
X179033208Y-55750652D01*
X178832594Y-55511642D01*
X178591985Y-55220427D01*
X178296415Y-54858504D01*
X177930921Y-54407370D01*
X177480540Y-53848523D01*
X176930308Y-53163460D01*
X176265261Y-52333679D01*
X175470436Y-51340677D01*
X174530868Y-50165952D01*
X173431594Y-48791001D01*
X172157650Y-47197321D01*
X171333517Y-46166331D01*
X170292866Y-44866758D01*
X169311909Y-43646113D01*
X168408369Y-42526154D01*
X167599967Y-41528638D01*
X166904426Y-40675324D01*
X166339468Y-39987967D01*
X165922816Y-39488327D01*
X165672192Y-39198159D01*
X165603248Y-39131334D01*
X165624967Y-39257617D01*
X165730624Y-39604060D01*
X165923415Y-40179620D01*
X166206532Y-40993250D01*
X166583169Y-42053905D01*
X167056520Y-43370540D01*
X167629779Y-44952108D01*
X168306140Y-46807564D01*
X169088795Y-48945863D01*
X169623516Y-50403125D01*
X170160192Y-51865226D01*
X170608324Y-53088194D01*
X170989170Y-54130802D01*
X171323989Y-55051825D01*
X171634038Y-55910039D01*
X171940576Y-56764217D01*
X172264860Y-57673134D01*
X172628150Y-58695566D01*
X172896342Y-59451875D01*
X173221064Y-60425433D01*
X173410220Y-61154801D01*
X173466123Y-61681787D01*
X173391088Y-62048199D01*
X173187428Y-62295845D01*
X173058282Y-62377627D01*
X172962224Y-62428049D01*
X172863468Y-62464356D01*
X172738807Y-62478592D01*
X172565038Y-62462798D01*
X172318953Y-62409016D01*
X171977348Y-62309289D01*
X171517018Y-62155658D01*
X170914756Y-61940166D01*
X170147358Y-61654855D01*
X169191619Y-61291766D01*
X168024332Y-60842943D01*
X166622292Y-60300427D01*
X164962294Y-59656260D01*
X163750625Y-59185738D01*
X162705509Y-58779131D01*
X161617627Y-58354562D01*
X160577452Y-57947428D01*
X159675456Y-57593129D01*
X159146875Y-57384485D01*
X157334557Y-56668821D01*
X155694296Y-56025397D01*
X154242783Y-55460583D01*
X152996712Y-54980748D01*
X151972775Y-54592261D01*
X151187664Y-54301491D01*
X150658070Y-54114808D01*
X150400687Y-54038580D01*
X150378359Y-54038723D01*
X148603270Y-54038723D01*
X148186699Y-53687337D01*
X147200425Y-52850943D01*
X146405251Y-52171181D01*
X145790465Y-51638903D01*
X145345359Y-51244963D01*
X145059222Y-50980211D01*
X144921344Y-50835502D01*
X144911354Y-50800000D01*
X145048658Y-50836332D01*
X145373233Y-50947600D01*
X145893914Y-51137212D01*
X146619539Y-51408576D01*
X147558944Y-51765099D01*
X148720967Y-52210189D01*
X150114442Y-52747254D01*
X151748208Y-53379700D01*
X153631100Y-54110937D01*
X155771955Y-54944372D01*
X158179610Y-55883412D01*
X160862902Y-56931465D01*
X163830666Y-58091939D01*
X164544375Y-58371178D01*
X166027571Y-58949952D01*
X167424897Y-59492162D01*
X168708499Y-59987217D01*
X169850526Y-60424523D01*
X170823126Y-60793487D01*
X171598445Y-61083518D01*
X172148632Y-61284022D01*
X172445834Y-61384407D01*
X172491202Y-61393468D01*
X172451788Y-61239377D01*
X172322338Y-60849051D01*
X172123798Y-60283726D01*
X171908524Y-59690000D01*
X171624034Y-58914411D01*
X171270882Y-57950002D01*
X170889128Y-56906259D01*
X170518833Y-55892664D01*
X170427296Y-55641875D01*
X169872760Y-54122650D01*
X169248091Y-52411975D01*
X168580989Y-50585666D01*
X167899160Y-48719543D01*
X167230307Y-46889422D01*
X166602132Y-45171122D01*
X166042340Y-43640462D01*
X165815795Y-43021250D01*
X165116750Y-41110154D01*
X164519620Y-39476001D01*
X164016795Y-38097722D01*
X163600662Y-36954248D01*
X163263612Y-36024512D01*
X162998034Y-35287445D01*
X162796315Y-34721978D01*
X162650845Y-34307044D01*
X162554012Y-34021575D01*
X162498207Y-33844501D01*
X162489515Y-33813750D01*
X162381348Y-33416875D01*
X162669111Y-33755987D01*
X162809138Y-33927717D01*
X163133126Y-34329019D01*
X163626474Y-34941712D01*
X164274582Y-35747620D01*
X165062850Y-36728563D01*
X165976678Y-37866363D01*
X167001465Y-39142841D01*
X168122612Y-40539819D01*
X169325518Y-42039118D01*
X170595584Y-43622559D01*
X171912914Y-45265362D01*
X173230434Y-46907398D01*
X174492427Y-48477863D01*
X175684647Y-49959161D01*
X176792845Y-51333700D01*
X177802774Y-52583885D01*
X178700186Y-53692122D01*
X179470834Y-54640816D01*
X180100470Y-55412373D01*
X180574846Y-55989200D01*
X180879715Y-56353703D01*
X181000830Y-56488286D01*
X181001352Y-56488541D01*
X181131266Y-56463194D01*
X181133749Y-56445744D01*
X181160335Y-56262727D01*
X181236585Y-55797440D01*
X181357239Y-55080325D01*
X181517037Y-54141825D01*
X181710717Y-53012382D01*
X181933019Y-51722440D01*
X182178683Y-50302440D01*
X182442448Y-48782825D01*
X182719053Y-47194038D01*
X183003239Y-45566521D01*
X183289744Y-43930718D01*
X183573308Y-42317071D01*
X183672987Y-41751250D01*
X183941066Y-40225600D01*
X184231373Y-38564763D01*
X184528784Y-36855849D01*
X184818174Y-35185970D01*
X185084420Y-33642236D01*
X185312398Y-32311758D01*
X185340501Y-32146875D01*
X185571431Y-30794835D01*
X185756437Y-29724718D01*
X185901966Y-28905295D01*
X186014464Y-28305337D01*
X186100378Y-27893617D01*
X186166153Y-27638906D01*
X186218236Y-27509975D01*
X186263074Y-27475595D01*
X186300281Y-27497364D01*
X186300281Y-27497364D01*
G37*
X186300281Y-27497364D02*
X186338727Y-27665214D01*
X186420114Y-28119099D01*
X186540085Y-28831097D01*
X186694284Y-29773289D01*
X186878357Y-30917750D01*
X187087947Y-32236560D01*
X187318699Y-33701797D01*
X187566256Y-35285539D01*
X187826263Y-36959864D01*
X188094365Y-38696851D01*
X188366205Y-40468578D01*
X188637428Y-42247122D01*
X188903678Y-44004563D01*
X189160599Y-45712978D01*
X189403836Y-47344445D01*
X189539220Y-48260000D01*
X189826021Y-50183989D01*
X190083976Y-51868802D01*
X190311089Y-53302521D01*
X190505361Y-54473226D01*
X190664795Y-55369001D01*
X190787394Y-55977924D01*
X190871160Y-56288079D01*
X190890583Y-56323499D01*
X191053933Y-56293109D01*
X191287055Y-56124183D01*
X191432987Y-55962649D01*
X191766994Y-55574821D01*
X192274119Y-54978501D01*
X192939404Y-54191494D01*
X193747891Y-53231603D01*
X194684623Y-52116632D01*
X195734642Y-50864384D01*
X196882992Y-49492663D01*
X198114713Y-48019272D01*
X199414850Y-46462016D01*
X200768444Y-44838698D01*
X200769770Y-44837107D01*
X202116059Y-43222422D01*
X203403615Y-41679878D01*
X204618061Y-40226604D01*
X205745016Y-38879732D01*
X206770100Y-37656388D01*
X207678934Y-36573705D01*
X208457139Y-35648810D01*
X209090335Y-34898834D01*
X209564142Y-34340906D01*
X209864180Y-33992156D01*
X209976071Y-33869713D01*
X209976415Y-33869748D01*
X209940479Y-34034897D01*
X209795639Y-34473086D01*
X209550199Y-35162282D01*
X209212461Y-36080453D01*
X208790728Y-37205564D01*
X208293303Y-38515582D01*
X207728488Y-39988474D01*
X207104586Y-41602206D01*
X206429901Y-43334744D01*
X205899770Y-44688125D01*
X205619118Y-45404019D01*
X205240785Y-46370800D01*
X204782319Y-47543502D01*
X204261269Y-48877159D01*
X203695185Y-50326806D01*
X203101615Y-51847477D01*
X202498109Y-53394208D01*
X201902214Y-54922032D01*
X201331480Y-56385984D01*
X200803456Y-57741099D01*
X200335690Y-58942411D01*
X200025386Y-59740054D01*
X199768536Y-60420110D01*
X199569504Y-60984919D01*
X199448758Y-61373629D01*
X199425175Y-61524341D01*
X199560544Y-61502943D01*
X199926956Y-61393021D01*
X200531063Y-61192185D01*
X201379520Y-60898044D01*
X202478980Y-60508207D01*
X203836096Y-60020283D01*
X205457523Y-59431881D01*
X207349912Y-58740610D01*
X209519919Y-57944080D01*
X211974196Y-57039898D01*
X214471250Y-56117452D01*
X215686096Y-55668842D01*
X216976240Y-55193571D01*
X218256110Y-54723083D01*
X219440137Y-54288822D01*
X220442750Y-53922233D01*
X220741875Y-53813220D01*
X221754098Y-53443089D01*
X222823157Y-53049341D01*
X223844991Y-52670482D01*
X224715539Y-52345017D01*
X225008235Y-52234563D01*
X225701399Y-51980702D01*
X226289127Y-51781836D01*
X226706615Y-51658808D01*
X226885475Y-51630783D01*
X226815482Y-51741161D01*
X226534450Y-52020024D01*
X226078466Y-52436516D01*
X225483616Y-52959782D01*
X224785985Y-53558967D01*
X224021659Y-54203217D01*
X223226724Y-54861677D01*
X222437266Y-55503491D01*
X221689371Y-56097806D01*
X221377113Y-56340665D01*
X220690333Y-56885894D01*
X219926300Y-57515797D01*
X219242032Y-58100752D01*
X219196545Y-58140750D01*
X218651202Y-58613251D01*
X218136791Y-59044700D01*
X217741776Y-59361320D01*
X217655039Y-59426335D01*
X217039231Y-59881886D01*
X216359236Y-60398533D01*
X215670421Y-60932610D01*
X215028153Y-61440450D01*
X214487798Y-61878386D01*
X214104722Y-62202752D01*
X213953668Y-62345526D01*
X213872214Y-62445357D01*
X213854660Y-62522419D01*
X213936438Y-62581137D01*
X214152977Y-62625937D01*
X214539706Y-62661245D01*
X215132057Y-62691488D01*
X215965459Y-62721092D01*
X217075342Y-62754484D01*
X217273386Y-62760254D01*
X218108968Y-62779685D01*
X219219500Y-62797947D01*
X220562431Y-62814703D01*
X222095213Y-62829618D01*
X223775294Y-62842355D01*
X225560127Y-62852579D01*
X227407160Y-62859953D01*
X229273846Y-62864142D01*
X230538538Y-62865000D01*
X232584369Y-62865248D01*
X234336917Y-62867050D01*
X235820398Y-62871991D01*
X237059029Y-62881656D01*
X238077027Y-62897631D01*
X238898608Y-62921501D01*
X239547989Y-62954851D01*
X240049387Y-62999267D01*
X240427019Y-63056333D01*
X240705100Y-63127635D01*
X240907849Y-63214758D01*
X241059481Y-63319289D01*
X241184214Y-63442811D01*
X241291312Y-63568907D01*
X241299144Y-63603231D01*
X241252970Y-63634276D01*
X241137969Y-63662202D01*
X240939317Y-63687173D01*
X240642192Y-63709351D01*
X240231770Y-63728899D01*
X239693228Y-63745978D01*
X239011743Y-63760751D01*
X238172493Y-63773381D01*
X237160653Y-63784029D01*
X235961402Y-63792858D01*
X234559916Y-63800031D01*
X232941372Y-63805709D01*
X231090947Y-63810055D01*
X228993818Y-63813232D01*
X226635163Y-63815402D01*
X224000157Y-63816726D01*
X221073978Y-63817368D01*
X218592925Y-63817499D01*
X195688225Y-63817500D01*
X194880050Y-63207553D01*
X193001151Y-61975405D01*
X191028319Y-61045663D01*
X188956541Y-60416809D01*
X186780802Y-60087323D01*
X184496088Y-60055686D01*
X184480687Y-60056460D01*
X182449565Y-60276047D01*
X180557698Y-60733787D01*
X178744882Y-61450755D01*
X176950917Y-62448027D01*
X176177910Y-62962982D01*
X174952696Y-63817500D01*
X129786944Y-63817500D01*
X130115757Y-63488686D01*
X130491155Y-63233961D01*
X130985005Y-63036435D01*
X131063847Y-63016224D01*
X131348363Y-62986425D01*
X131915165Y-62958540D01*
X132729043Y-62933233D01*
X133754786Y-62911165D01*
X134957182Y-62892999D01*
X136301022Y-62879400D01*
X137751095Y-62871029D01*
X138906250Y-62868570D01*
X140994773Y-62864819D01*
X143074480Y-62856159D01*
X145121498Y-62843005D01*
X147111954Y-62825775D01*
X149021974Y-62804885D01*
X150827686Y-62780754D01*
X152505216Y-62753798D01*
X154030691Y-62724434D01*
X155380239Y-62693080D01*
X156529985Y-62660152D01*
X157456058Y-62626068D01*
X158134584Y-62591245D01*
X158541690Y-62556100D01*
X158655783Y-62523485D01*
X158519066Y-62394459D01*
X158166521Y-62086186D01*
X157626290Y-61622603D01*
X156926519Y-61027647D01*
X156095350Y-60325256D01*
X155160927Y-59539367D01*
X154256983Y-58782179D01*
X152399213Y-57227784D01*
X150775383Y-55866610D01*
X149374782Y-54689510D01*
X148603270Y-54038723D01*
X150378359Y-54038723D01*
X150482082Y-54150604D01*
X150804378Y-54443318D01*
X151319605Y-54894808D01*
X152002123Y-55483014D01*
X152826288Y-56185878D01*
X153766461Y-56981339D01*
X154796999Y-57847340D01*
X155109412Y-58108788D01*
X156169410Y-59000685D01*
X157151965Y-59838278D01*
X158030322Y-60597943D01*
X158777727Y-61256058D01*
X159367425Y-61789001D01*
X159772664Y-62173149D01*
X159966689Y-62384878D01*
X159979192Y-62408597D01*
X159989582Y-62466555D01*
X160002920Y-62516548D01*
X160041273Y-62559412D01*
X160126706Y-62595982D01*
X160281285Y-62627095D01*
X160527076Y-62653587D01*
X160886145Y-62676293D01*
X161380558Y-62696050D01*
X162032381Y-62713693D01*
X162863680Y-62730059D01*
X163896520Y-62745984D01*
X165152967Y-62762303D01*
X166655088Y-62779853D01*
X168424948Y-62799469D01*
X170484614Y-62821988D01*
X171056524Y-62828269D01*
X174393673Y-62865000D01*
X175501524Y-62050626D01*
X176732347Y-61251900D01*
X178166274Y-60497047D01*
X179689125Y-59841624D01*
X180895625Y-59425933D01*
X181419273Y-59273351D01*
X181875599Y-59161551D01*
X182329389Y-59084234D01*
X182845427Y-59035104D01*
X183488498Y-59007863D01*
X184323386Y-58996214D01*
X185340625Y-58993852D01*
X186415824Y-58996641D01*
X187238418Y-59009187D01*
X187873285Y-59037763D01*
X188385301Y-59088639D01*
X188839341Y-59168086D01*
X189300283Y-59282374D01*
X189785625Y-59423505D01*
X191055071Y-59866657D01*
X192372557Y-60433996D01*
X193630240Y-61073493D01*
X194720273Y-61733114D01*
X195044302Y-61960640D01*
X195944614Y-62508768D01*
X196823275Y-62783514D01*
X197770123Y-62808779D01*
X198087596Y-62770283D01*
X198213557Y-62745937D01*
X199708653Y-62745937D01*
X199861506Y-62772062D01*
X200298048Y-62796206D01*
X200984472Y-62817725D01*
X201886967Y-62835979D01*
X202971728Y-62850326D01*
X204204945Y-62860122D01*
X205552810Y-62864727D01*
X205978125Y-62865000D01*
X207590761Y-62863403D01*
X208912451Y-62858002D01*
X209969737Y-62847881D01*
X210789159Y-62832124D01*
X211397258Y-62809815D01*
X211820576Y-62780038D01*
X212085654Y-62741878D01*
X212219032Y-62694417D01*
X212248750Y-62648598D01*
X212293836Y-62512100D01*
X212441678Y-62310286D01*
X212711151Y-62026610D01*
X213121133Y-61644525D01*
X213690499Y-61147484D01*
X214438124Y-60518942D01*
X215382886Y-59742351D01*
X216543658Y-58801165D01*
X217689517Y-57879236D01*
X218646191Y-57108468D01*
X219515449Y-56402418D01*
X220268303Y-55785084D01*
X220875767Y-55280461D01*
X221308854Y-54912548D01*
X221538578Y-54705341D01*
X221567745Y-54668578D01*
X221408388Y-54702359D01*
X221003309Y-54830863D01*
X220403815Y-55036655D01*
X219661214Y-55302302D01*
X219143227Y-55492455D01*
X216925137Y-56313953D01*
X214752439Y-57117745D01*
X212650172Y-57894616D01*
X210643372Y-58635348D01*
X208757075Y-59330728D01*
X207016318Y-59971537D01*
X205446137Y-60548561D01*
X204071570Y-61052584D01*
X202917653Y-61474389D01*
X202009422Y-61804760D01*
X201371915Y-62034483D01*
X201335840Y-62047352D01*
X200677267Y-62292294D01*
X200146517Y-62509150D01*
X199804822Y-62671635D01*
X199708653Y-62745937D01*
X198213557Y-62745937D01*
X198501375Y-62690307D01*
X198631652Y-62607840D01*
X198538509Y-62518342D01*
X198398237Y-62413735D01*
X198306784Y-62263829D01*
X198271606Y-62042192D01*
X198300159Y-61722389D01*
X198399899Y-61277985D01*
X198578282Y-60682546D01*
X198842763Y-59909638D01*
X199200799Y-58932827D01*
X199659845Y-57725678D01*
X200227358Y-56261757D01*
X200500431Y-55562500D01*
X200954648Y-54399756D01*
X201420069Y-53206062D01*
X201868348Y-52054287D01*
X202271134Y-51017303D01*
X202600078Y-50167979D01*
X202723750Y-49847500D01*
X203139941Y-48769286D01*
X203592552Y-47600617D01*
X204065237Y-46383341D01*
X204541648Y-45159302D01*
X205005438Y-43970347D01*
X205440260Y-42858324D01*
X205829766Y-41865077D01*
X206157610Y-41032453D01*
X206407444Y-40402300D01*
X206562922Y-40016462D01*
X206584191Y-39965312D01*
X206725294Y-39596301D01*
X206777220Y-39387505D01*
X206768628Y-39370000D01*
X206658426Y-39488669D01*
X206361340Y-39831669D01*
X205893826Y-40379488D01*
X205272341Y-41112615D01*
X204513341Y-42011538D01*
X203633283Y-43056745D01*
X202648621Y-44228726D01*
X201575814Y-45507968D01*
X200431317Y-46874961D01*
X199571931Y-47902812D01*
X198367724Y-49342785D01*
X197209534Y-50725605D01*
X196115580Y-52029651D01*
X195104083Y-53233301D01*
X194193265Y-54314934D01*
X193401346Y-55252928D01*
X192746546Y-56025662D01*
X192247087Y-56611514D01*
X191921188Y-56988861D01*
X191812713Y-57110312D01*
X191301445Y-57574382D01*
X190865675Y-57760184D01*
X190453742Y-57680375D01*
X190192734Y-57507187D01*
X190123815Y-57454551D01*
X190063153Y-57403003D01*
X190006950Y-57331221D01*
X189951412Y-57217882D01*
X189892741Y-57041662D01*
X189827141Y-56781239D01*
X189750817Y-56415291D01*
X189659971Y-55922493D01*
X189550807Y-55281524D01*
X189419530Y-54471060D01*
X189262343Y-53469778D01*
X189075450Y-52256356D01*
X188855053Y-50809471D01*
X188597358Y-49107799D01*
X188298568Y-47130018D01*
X188037645Y-45402500D01*
X187679489Y-43037284D01*
X187365113Y-40973110D01*
X187092423Y-39196853D01*
X186859324Y-37695386D01*
X186663721Y-36455584D01*
X186503521Y-35464321D01*
X186376628Y-34708470D01*
X186280947Y-34174906D01*
X186214386Y-33850503D01*
X186174848Y-33722134D01*
X186173524Y-33720607D01*
X186131841Y-33852516D01*
X186046461Y-34250493D01*
X185926501Y-34867528D01*
X185781079Y-35656614D01*
X185619314Y-36570742D01*
X185607551Y-36638562D01*
X185427750Y-37675323D01*
X185209139Y-38933850D01*
X184967545Y-40323144D01*
X184718796Y-41752206D01*
X184478721Y-43130039D01*
X184373108Y-43735625D01*
X184135803Y-45096180D01*
X183862311Y-46664749D01*
X183570896Y-48336545D01*
X183279822Y-50006786D01*
X183007351Y-51570688D01*
X182866235Y-52380872D01*
X182655584Y-53556437D01*
X182449550Y-54643464D01*
X182257236Y-55598608D01*
X182087745Y-56378524D01*
X181950180Y-56939867D01*
X181853642Y-57239293D01*
X181841061Y-57262434D01*
X181465954Y-57570825D01*
X181142098Y-57626250D01*
X180866351Y-57577081D01*
X180568611Y-57400315D01*
X180191245Y-57052061D01*
X179734973Y-56554687D01*
X179544707Y-56339474D01*
X179374300Y-56146065D01*
X179208789Y-55955959D01*
X179033208Y-55750652D01*
X178832594Y-55511642D01*
X178591985Y-55220427D01*
X178296415Y-54858504D01*
X177930921Y-54407370D01*
X177480540Y-53848523D01*
X176930308Y-53163460D01*
X176265261Y-52333679D01*
X175470436Y-51340677D01*
X174530868Y-50165952D01*
X173431594Y-48791001D01*
X172157650Y-47197321D01*
X171333517Y-46166331D01*
X170292866Y-44866758D01*
X169311909Y-43646113D01*
X168408369Y-42526154D01*
X167599967Y-41528638D01*
X166904426Y-40675324D01*
X166339468Y-39987967D01*
X165922816Y-39488327D01*
X165672192Y-39198159D01*
X165603248Y-39131334D01*
X165624967Y-39257617D01*
X165730624Y-39604060D01*
X165923415Y-40179620D01*
X166206532Y-40993250D01*
X166583169Y-42053905D01*
X167056520Y-43370540D01*
X167629779Y-44952108D01*
X168306140Y-46807564D01*
X169088795Y-48945863D01*
X169623516Y-50403125D01*
X170160192Y-51865226D01*
X170608324Y-53088194D01*
X170989170Y-54130802D01*
X171323989Y-55051825D01*
X171634038Y-55910039D01*
X171940576Y-56764217D01*
X172264860Y-57673134D01*
X172628150Y-58695566D01*
X172896342Y-59451875D01*
X173221064Y-60425433D01*
X173410220Y-61154801D01*
X173466123Y-61681787D01*
X173391088Y-62048199D01*
X173187428Y-62295845D01*
X173058282Y-62377627D01*
X172962224Y-62428049D01*
X172863468Y-62464356D01*
X172738807Y-62478592D01*
X172565038Y-62462798D01*
X172318953Y-62409016D01*
X171977348Y-62309289D01*
X171517018Y-62155658D01*
X170914756Y-61940166D01*
X170147358Y-61654855D01*
X169191619Y-61291766D01*
X168024332Y-60842943D01*
X166622292Y-60300427D01*
X164962294Y-59656260D01*
X163750625Y-59185738D01*
X162705509Y-58779131D01*
X161617627Y-58354562D01*
X160577452Y-57947428D01*
X159675456Y-57593129D01*
X159146875Y-57384485D01*
X157334557Y-56668821D01*
X155694296Y-56025397D01*
X154242783Y-55460583D01*
X152996712Y-54980748D01*
X151972775Y-54592261D01*
X151187664Y-54301491D01*
X150658070Y-54114808D01*
X150400687Y-54038580D01*
X150378359Y-54038723D01*
X148603270Y-54038723D01*
X148186699Y-53687337D01*
X147200425Y-52850943D01*
X146405251Y-52171181D01*
X145790465Y-51638903D01*
X145345359Y-51244963D01*
X145059222Y-50980211D01*
X144921344Y-50835502D01*
X144911354Y-50800000D01*
X145048658Y-50836332D01*
X145373233Y-50947600D01*
X145893914Y-51137212D01*
X146619539Y-51408576D01*
X147558944Y-51765099D01*
X148720967Y-52210189D01*
X150114442Y-52747254D01*
X151748208Y-53379700D01*
X153631100Y-54110937D01*
X155771955Y-54944372D01*
X158179610Y-55883412D01*
X160862902Y-56931465D01*
X163830666Y-58091939D01*
X164544375Y-58371178D01*
X166027571Y-58949952D01*
X167424897Y-59492162D01*
X168708499Y-59987217D01*
X169850526Y-60424523D01*
X170823126Y-60793487D01*
X171598445Y-61083518D01*
X172148632Y-61284022D01*
X172445834Y-61384407D01*
X172491202Y-61393468D01*
X172451788Y-61239377D01*
X172322338Y-60849051D01*
X172123798Y-60283726D01*
X171908524Y-59690000D01*
X171624034Y-58914411D01*
X171270882Y-57950002D01*
X170889128Y-56906259D01*
X170518833Y-55892664D01*
X170427296Y-55641875D01*
X169872760Y-54122650D01*
X169248091Y-52411975D01*
X168580989Y-50585666D01*
X167899160Y-48719543D01*
X167230307Y-46889422D01*
X166602132Y-45171122D01*
X166042340Y-43640462D01*
X165815795Y-43021250D01*
X165116750Y-41110154D01*
X164519620Y-39476001D01*
X164016795Y-38097722D01*
X163600662Y-36954248D01*
X163263612Y-36024512D01*
X162998034Y-35287445D01*
X162796315Y-34721978D01*
X162650845Y-34307044D01*
X162554012Y-34021575D01*
X162498207Y-33844501D01*
X162489515Y-33813750D01*
X162381348Y-33416875D01*
X162669111Y-33755987D01*
X162809138Y-33927717D01*
X163133126Y-34329019D01*
X163626474Y-34941712D01*
X164274582Y-35747620D01*
X165062850Y-36728563D01*
X165976678Y-37866363D01*
X167001465Y-39142841D01*
X168122612Y-40539819D01*
X169325518Y-42039118D01*
X170595584Y-43622559D01*
X171912914Y-45265362D01*
X173230434Y-46907398D01*
X174492427Y-48477863D01*
X175684647Y-49959161D01*
X176792845Y-51333700D01*
X177802774Y-52583885D01*
X178700186Y-53692122D01*
X179470834Y-54640816D01*
X180100470Y-55412373D01*
X180574846Y-55989200D01*
X180879715Y-56353703D01*
X181000830Y-56488286D01*
X181001352Y-56488541D01*
X181131266Y-56463194D01*
X181133749Y-56445744D01*
X181160335Y-56262727D01*
X181236585Y-55797440D01*
X181357239Y-55080325D01*
X181517037Y-54141825D01*
X181710717Y-53012382D01*
X181933019Y-51722440D01*
X182178683Y-50302440D01*
X182442448Y-48782825D01*
X182719053Y-47194038D01*
X183003239Y-45566521D01*
X183289744Y-43930718D01*
X183573308Y-42317071D01*
X183672987Y-41751250D01*
X183941066Y-40225600D01*
X184231373Y-38564763D01*
X184528784Y-36855849D01*
X184818174Y-35185970D01*
X185084420Y-33642236D01*
X185312398Y-32311758D01*
X185340501Y-32146875D01*
X185571431Y-30794835D01*
X185756437Y-29724718D01*
X185901966Y-28905295D01*
X186014464Y-28305337D01*
X186100378Y-27893617D01*
X186166153Y-27638906D01*
X186218236Y-27509975D01*
X186263074Y-27475595D01*
X186300281Y-27497364D01*
G36*
X229870000Y-69142789D02*
X229868131Y-70081887D01*
X229857292Y-70760498D01*
X229829635Y-71235632D01*
X229777311Y-71564300D01*
X229692472Y-71803512D01*
X229567268Y-72010278D01*
X229454283Y-72162467D01*
X229038566Y-72707500D01*
X229870000Y-72707500D01*
X229870000Y-81915000D01*
X223837500Y-81915000D01*
X223837500Y-80327500D01*
X228123750Y-80327500D01*
X228123750Y-73025000D01*
X224155000Y-73025000D01*
X224155000Y-71437500D01*
X228123750Y-71437500D01*
X228123750Y-68262500D01*
X223661353Y-68262500D01*
X223709739Y-67508437D01*
X223758125Y-66754375D01*
X226814062Y-66711259D01*
X229870000Y-66668144D01*
X229870000Y-69142789D01*
X229870000Y-69142789D01*
G37*
X229870000Y-69142789D02*
X229868131Y-70081887D01*
X229857292Y-70760498D01*
X229829635Y-71235632D01*
X229777311Y-71564300D01*
X229692472Y-71803512D01*
X229567268Y-72010278D01*
X229454283Y-72162467D01*
X229038566Y-72707500D01*
X229870000Y-72707500D01*
X229870000Y-81915000D01*
X223837500Y-81915000D01*
X223837500Y-80327500D01*
X228123750Y-80327500D01*
X228123750Y-73025000D01*
X224155000Y-73025000D01*
X224155000Y-71437500D01*
X228123750Y-71437500D01*
X228123750Y-68262500D01*
X223661353Y-68262500D01*
X223709739Y-67508437D01*
X223758125Y-66754375D01*
X226814062Y-66711259D01*
X229870000Y-66668144D01*
X229870000Y-69142789D01*
G36*
X220662500Y-69565290D02*
X219100811Y-71731707D01*
X218576573Y-72460930D01*
X218115801Y-73105618D01*
X217751392Y-73619447D01*
X217516243Y-73956089D01*
X217445174Y-74063220D01*
X217404452Y-74265804D01*
X217345773Y-74734311D01*
X217274374Y-75418012D01*
X217195495Y-76266179D01*
X217114373Y-77228082D01*
X217100918Y-77396970D01*
X217018723Y-78415525D01*
X216938557Y-79369209D01*
X216865860Y-80196238D01*
X216806075Y-80834831D01*
X216764642Y-81223204D01*
X216762453Y-81240312D01*
X216674295Y-81915000D01*
X215890272Y-81915000D01*
X215421884Y-81900743D01*
X215189536Y-81832352D01*
X215112159Y-81671394D01*
X215106250Y-81543323D01*
X215119545Y-81249014D01*
X215156385Y-80708900D01*
X215212201Y-79975798D01*
X215282427Y-79102522D01*
X215362492Y-78141889D01*
X215447830Y-77146713D01*
X215533871Y-76169810D01*
X215616049Y-75263995D01*
X215689793Y-74482084D01*
X215750537Y-73876893D01*
X215793713Y-73501235D01*
X215810134Y-73405325D01*
X215920681Y-73223125D01*
X216186249Y-72832313D01*
X216573831Y-72280112D01*
X217050416Y-71613745D01*
X217394263Y-71139043D01*
X217909085Y-70413190D01*
X218349445Y-69756904D01*
X218683321Y-69220773D01*
X218878690Y-68855386D01*
X218916250Y-68734655D01*
X218900951Y-68618970D01*
X218825076Y-68535892D01*
X218643658Y-68480042D01*
X218311729Y-68446038D01*
X217784320Y-68428501D01*
X217016464Y-68422050D01*
X216296875Y-68421250D01*
X213677500Y-68421250D01*
X213677500Y-66833750D01*
X220662500Y-66833750D01*
X220662500Y-69565290D01*
X220662500Y-69565290D01*
G37*
X220662500Y-69565290D02*
X219100811Y-71731707D01*
X218576573Y-72460930D01*
X218115801Y-73105618D01*
X217751392Y-73619447D01*
X217516243Y-73956089D01*
X217445174Y-74063220D01*
X217404452Y-74265804D01*
X217345773Y-74734311D01*
X217274374Y-75418012D01*
X217195495Y-76266179D01*
X217114373Y-77228082D01*
X217100918Y-77396970D01*
X217018723Y-78415525D01*
X216938557Y-79369209D01*
X216865860Y-80196238D01*
X216806075Y-80834831D01*
X216764642Y-81223204D01*
X216762453Y-81240312D01*
X216674295Y-81915000D01*
X215890272Y-81915000D01*
X215421884Y-81900743D01*
X215189536Y-81832352D01*
X215112159Y-81671394D01*
X215106250Y-81543323D01*
X215119545Y-81249014D01*
X215156385Y-80708900D01*
X215212201Y-79975798D01*
X215282427Y-79102522D01*
X215362492Y-78141889D01*
X215447830Y-77146713D01*
X215533871Y-76169810D01*
X215616049Y-75263995D01*
X215689793Y-74482084D01*
X215750537Y-73876893D01*
X215793713Y-73501235D01*
X215810134Y-73405325D01*
X215920681Y-73223125D01*
X216186249Y-72832313D01*
X216573831Y-72280112D01*
X217050416Y-71613745D01*
X217394263Y-71139043D01*
X217909085Y-70413190D01*
X218349445Y-69756904D01*
X218683321Y-69220773D01*
X218878690Y-68855386D01*
X218916250Y-68734655D01*
X218900951Y-68618970D01*
X218825076Y-68535892D01*
X218643658Y-68480042D01*
X218311729Y-68446038D01*
X217784320Y-68428501D01*
X217016464Y-68422050D01*
X216296875Y-68421250D01*
X213677500Y-68421250D01*
X213677500Y-66833750D01*
X220662500Y-66833750D01*
X220662500Y-69565290D01*
G36*
X191611250Y-80327500D02*
X193198750Y-80327500D01*
X193198750Y-81915000D01*
X191889062Y-81913034D01*
X190579375Y-81911069D01*
X190222187Y-81359636D01*
X190137681Y-81224519D01*
X190067681Y-81084269D01*
X190010820Y-80909454D01*
X189965732Y-80670640D01*
X189931052Y-80338397D01*
X189905415Y-79883291D01*
X189887453Y-79275891D01*
X189875802Y-78486764D01*
X189869095Y-77486477D01*
X189865968Y-76245599D01*
X189865054Y-74734697D01*
X189865000Y-73662226D01*
X189865000Y-66516250D01*
X191611250Y-66516250D01*
X191611250Y-80327500D01*
X191611250Y-80327500D01*
G37*
X191611250Y-80327500D02*
X193198750Y-80327500D01*
X193198750Y-81915000D01*
X191889062Y-81913034D01*
X190579375Y-81911069D01*
X190222187Y-81359636D01*
X190137681Y-81224519D01*
X190067681Y-81084269D01*
X190010820Y-80909454D01*
X189965732Y-80670640D01*
X189931052Y-80338397D01*
X189905415Y-79883291D01*
X189887453Y-79275891D01*
X189875802Y-78486764D01*
X189869095Y-77486477D01*
X189865968Y-76245599D01*
X189865054Y-74734697D01*
X189865000Y-73662226D01*
X189865000Y-66516250D01*
X191611250Y-66516250D01*
X191611250Y-80327500D01*
G36*
X176212500Y-69850000D02*
X178435000Y-69850000D01*
X178435000Y-71437500D01*
X176212500Y-71437500D01*
X176212500Y-75575436D01*
X176218935Y-76910479D01*
X176237592Y-78043118D01*
X176267493Y-78946958D01*
X176307664Y-79595604D01*
X176357128Y-79962660D01*
X176376835Y-80020436D01*
X176522889Y-80192411D01*
X176781895Y-80286539D01*
X177234910Y-80323725D01*
X177567460Y-80327500D01*
X178593750Y-80327500D01*
X178593750Y-81915000D01*
X175763291Y-81915000D01*
X175194145Y-81139668D01*
X174625000Y-80364337D01*
X174625000Y-71437500D01*
X173196250Y-71437500D01*
X173196250Y-69850000D01*
X174625000Y-69850000D01*
X174625000Y-66833750D01*
X176212500Y-66833750D01*
X176212500Y-69850000D01*
X176212500Y-69850000D01*
G37*
X176212500Y-69850000D02*
X178435000Y-69850000D01*
X178435000Y-71437500D01*
X176212500Y-71437500D01*
X176212500Y-75575436D01*
X176218935Y-76910479D01*
X176237592Y-78043118D01*
X176267493Y-78946958D01*
X176307664Y-79595604D01*
X176357128Y-79962660D01*
X176376835Y-80020436D01*
X176522889Y-80192411D01*
X176781895Y-80286539D01*
X177234910Y-80323725D01*
X177567460Y-80327500D01*
X178593750Y-80327500D01*
X178593750Y-81915000D01*
X175763291Y-81915000D01*
X175194145Y-81139668D01*
X174625000Y-80364337D01*
X174625000Y-71437500D01*
X173196250Y-71437500D01*
X173196250Y-69850000D01*
X174625000Y-69850000D01*
X174625000Y-66833750D01*
X176212500Y-66833750D01*
X176212500Y-69850000D01*
G36*
X147803174Y-70881875D02*
X147799712Y-76398437D01*
X147796250Y-81915000D01*
X146050000Y-81915000D01*
X146050000Y-74930000D01*
X142240000Y-74930000D01*
X142240000Y-81915000D01*
X140652500Y-81915000D01*
X140656028Y-76239687D01*
X140658610Y-72085729D01*
X142238709Y-72085729D01*
X142254365Y-72635348D01*
X142294034Y-73051332D01*
X142345833Y-73236666D01*
X142538144Y-73278869D01*
X142979757Y-73313080D01*
X143602503Y-73335511D01*
X144250833Y-73342500D01*
X146050000Y-73342500D01*
X146050000Y-72167203D01*
X146025277Y-71475283D01*
X145930218Y-70891872D01*
X145733481Y-70274017D01*
X145519248Y-69746265D01*
X144988497Y-68500625D01*
X144198244Y-68453625D01*
X143407990Y-68406625D01*
X142822704Y-69723625D01*
X142516958Y-70458162D01*
X142337701Y-71036823D01*
X142255144Y-71580105D01*
X142238709Y-72085729D01*
X140658610Y-72085729D01*
X140659556Y-70564375D01*
X141491848Y-68659375D01*
X142324141Y-66754375D01*
X144157383Y-66709906D01*
X145990626Y-66665437D01*
X147803174Y-70881875D01*
X147803174Y-70881875D01*
G37*
X147803174Y-70881875D02*
X147799712Y-76398437D01*
X147796250Y-81915000D01*
X146050000Y-81915000D01*
X146050000Y-74930000D01*
X142240000Y-74930000D01*
X142240000Y-81915000D01*
X140652500Y-81915000D01*
X140656028Y-76239687D01*
X140658610Y-72085729D01*
X142238709Y-72085729D01*
X142254365Y-72635348D01*
X142294034Y-73051332D01*
X142345833Y-73236666D01*
X142538144Y-73278869D01*
X142979757Y-73313080D01*
X143602503Y-73335511D01*
X144250833Y-73342500D01*
X146050000Y-73342500D01*
X146050000Y-72167203D01*
X146025277Y-71475283D01*
X145930218Y-70891872D01*
X145733481Y-70274017D01*
X145519248Y-69746265D01*
X144988497Y-68500625D01*
X144198244Y-68453625D01*
X143407990Y-68406625D01*
X142822704Y-69723625D01*
X142516958Y-70458162D01*
X142337701Y-71036823D01*
X142255144Y-71580105D01*
X142238709Y-72085729D01*
X140658610Y-72085729D01*
X140659556Y-70564375D01*
X141491848Y-68659375D01*
X142324141Y-66754375D01*
X144157383Y-66709906D01*
X145990626Y-66665437D01*
X147803174Y-70881875D01*
G36*
X210502500Y-71903977D02*
X208557812Y-71948551D01*
X206613125Y-71993125D01*
X206565858Y-73078976D01*
X206567008Y-73748574D01*
X206630596Y-74219107D01*
X206704359Y-74388664D01*
X206930320Y-74513664D01*
X207381723Y-74586086D01*
X208100711Y-74612183D01*
X208212855Y-74612500D01*
X209535585Y-74612500D01*
X210336542Y-75602390D01*
X211137500Y-76592280D01*
X211137500Y-79751306D01*
X210383437Y-80910478D01*
X209629375Y-82069649D01*
X207367187Y-82071699D01*
X205105000Y-82073750D01*
X205105000Y-80486250D01*
X207000998Y-80486250D01*
X207917557Y-80478210D01*
X208563688Y-80424910D01*
X208986458Y-80282580D01*
X209232935Y-80007447D01*
X209350187Y-79555741D01*
X209385282Y-78883691D01*
X209386201Y-78268114D01*
X209372355Y-77425792D01*
X209308680Y-76850108D01*
X209152029Y-76490270D01*
X208859257Y-76295485D01*
X208387216Y-76214963D01*
X207692760Y-76197910D01*
X207627498Y-76197768D01*
X206295625Y-76195537D01*
X205541562Y-75288459D01*
X205158696Y-74816462D01*
X204933995Y-74467247D01*
X204825310Y-74123216D01*
X204790492Y-73666766D01*
X204787500Y-73184525D01*
X204794444Y-72568926D01*
X204842351Y-72157516D01*
X204971833Y-71836981D01*
X205223500Y-71494011D01*
X205514185Y-71156960D01*
X206240871Y-70326250D01*
X210502500Y-70326250D01*
X210502500Y-71903977D01*
X210502500Y-71903977D01*
G37*
X210502500Y-71903977D02*
X208557812Y-71948551D01*
X206613125Y-71993125D01*
X206565858Y-73078976D01*
X206567008Y-73748574D01*
X206630596Y-74219107D01*
X206704359Y-74388664D01*
X206930320Y-74513664D01*
X207381723Y-74586086D01*
X208100711Y-74612183D01*
X208212855Y-74612500D01*
X209535585Y-74612500D01*
X210336542Y-75602390D01*
X211137500Y-76592280D01*
X211137500Y-79751306D01*
X210383437Y-80910478D01*
X209629375Y-82069649D01*
X207367187Y-82071699D01*
X205105000Y-82073750D01*
X205105000Y-80486250D01*
X207000998Y-80486250D01*
X207917557Y-80478210D01*
X208563688Y-80424910D01*
X208986458Y-80282580D01*
X209232935Y-80007447D01*
X209350187Y-79555741D01*
X209385282Y-78883691D01*
X209386201Y-78268114D01*
X209372355Y-77425792D01*
X209308680Y-76850108D01*
X209152029Y-76490270D01*
X208859257Y-76295485D01*
X208387216Y-76214963D01*
X207692760Y-76197910D01*
X207627498Y-76197768D01*
X206295625Y-76195537D01*
X205541562Y-75288459D01*
X205158696Y-74816462D01*
X204933995Y-74467247D01*
X204825310Y-74123216D01*
X204790492Y-73666766D01*
X204787500Y-73184525D01*
X204794444Y-72568926D01*
X204842351Y-72157516D01*
X204971833Y-71836981D01*
X205223500Y-71494011D01*
X205514185Y-71156960D01*
X206240871Y-70326250D01*
X210502500Y-70326250D01*
X210502500Y-71903977D01*
G36*
X197328680Y-75128437D02*
X197333528Y-76338906D01*
X197346076Y-77451155D01*
X197365222Y-78424270D01*
X197389868Y-79217338D01*
X197418912Y-79789448D01*
X197451254Y-80099685D01*
X197463477Y-80139360D01*
X197731139Y-80279347D01*
X198260428Y-80300398D01*
X198294483Y-80298110D01*
X198993125Y-80248125D01*
X200572807Y-77390625D01*
X200624845Y-73858437D01*
X200676883Y-70326250D01*
X202247500Y-70326250D01*
X202247500Y-82073750D01*
X200660000Y-82073750D01*
X200652608Y-81240312D01*
X200645216Y-80406875D01*
X200252690Y-81160937D01*
X199860164Y-81915000D01*
X198315394Y-81908808D01*
X196770625Y-81902617D01*
X196254687Y-81201107D01*
X195738750Y-80499598D01*
X195738750Y-70326250D01*
X197326250Y-70326250D01*
X197328680Y-75128437D01*
X197328680Y-75128437D01*
G37*
X197328680Y-75128437D02*
X197333528Y-76338906D01*
X197346076Y-77451155D01*
X197365222Y-78424270D01*
X197389868Y-79217338D01*
X197418912Y-79789448D01*
X197451254Y-80099685D01*
X197463477Y-80139360D01*
X197731139Y-80279347D01*
X198260428Y-80300398D01*
X198294483Y-80298110D01*
X198993125Y-80248125D01*
X200572807Y-77390625D01*
X200624845Y-73858437D01*
X200676883Y-70326250D01*
X202247500Y-70326250D01*
X202247500Y-82073750D01*
X200660000Y-82073750D01*
X200652608Y-81240312D01*
X200645216Y-80406875D01*
X200252690Y-81160937D01*
X199860164Y-81915000D01*
X198315394Y-81908808D01*
X196770625Y-81902617D01*
X196254687Y-81201107D01*
X195738750Y-80499598D01*
X195738750Y-70326250D01*
X197326250Y-70326250D01*
X197328680Y-75128437D01*
G36*
X186750091Y-71185006D02*
X187483750Y-72043763D01*
X187483750Y-76041250D01*
X182403750Y-76041250D01*
X182403750Y-77258865D01*
X182415884Y-77907535D01*
X182475661Y-78365082D01*
X182618137Y-78757635D01*
X182878371Y-79211321D01*
X182999062Y-79400602D01*
X183594375Y-80324723D01*
X185380312Y-80326111D01*
X187166250Y-80327500D01*
X187166250Y-82073750D01*
X182904527Y-82073750D01*
X181860388Y-80565699D01*
X180816250Y-79057649D01*
X180816250Y-73833023D01*
X182403750Y-73833023D01*
X182403750Y-74622898D01*
X184189687Y-74578011D01*
X185975625Y-74533125D01*
X186023760Y-73695308D01*
X186023403Y-73124738D01*
X185919066Y-72725113D01*
X185706260Y-72394404D01*
X185490339Y-72151371D01*
X185261125Y-72011569D01*
X184925370Y-71945681D01*
X184389824Y-71924389D01*
X184205368Y-71922533D01*
X183070111Y-71913750D01*
X182736930Y-72478449D01*
X182455612Y-73253061D01*
X182403750Y-73833023D01*
X180816250Y-73833023D01*
X180816250Y-72584648D01*
X181490937Y-71461075D01*
X182165625Y-70337501D01*
X184091028Y-70331875D01*
X186016432Y-70326250D01*
X186750091Y-71185006D01*
X186750091Y-71185006D01*
G37*
X186750091Y-71185006D02*
X187483750Y-72043763D01*
X187483750Y-76041250D01*
X182403750Y-76041250D01*
X182403750Y-77258865D01*
X182415884Y-77907535D01*
X182475661Y-78365082D01*
X182618137Y-78757635D01*
X182878371Y-79211321D01*
X182999062Y-79400602D01*
X183594375Y-80324723D01*
X185380312Y-80326111D01*
X187166250Y-80327500D01*
X187166250Y-82073750D01*
X182904527Y-82073750D01*
X181860388Y-80565699D01*
X180816250Y-79057649D01*
X180816250Y-73833023D01*
X182403750Y-73833023D01*
X182403750Y-74622898D01*
X184189687Y-74578011D01*
X185975625Y-74533125D01*
X186023760Y-73695308D01*
X186023403Y-73124738D01*
X185919066Y-72725113D01*
X185706260Y-72394404D01*
X185490339Y-72151371D01*
X185261125Y-72011569D01*
X184925370Y-71945681D01*
X184389824Y-71924389D01*
X184205368Y-71922533D01*
X183070111Y-71913750D01*
X182736930Y-72478449D01*
X182455612Y-73253061D01*
X182403750Y-73833023D01*
X180816250Y-73833023D01*
X180816250Y-72584648D01*
X181490937Y-71461075D01*
X182165625Y-70337501D01*
X184091028Y-70331875D01*
X186016432Y-70326250D01*
X186750091Y-71185006D01*
G36*
X166991260Y-70327183D02*
X168989375Y-70328117D01*
X169505312Y-71733897D01*
X169771246Y-72511263D01*
X169928459Y-73146086D01*
X170003545Y-73783048D01*
X170023082Y-74550776D01*
X170055890Y-75288744D01*
X170146549Y-76254658D01*
X170285731Y-77366154D01*
X170464107Y-78540866D01*
X170497500Y-78740000D01*
X170651133Y-79657696D01*
X170784108Y-80479765D01*
X170887650Y-81149681D01*
X170952984Y-81610916D01*
X170971917Y-81795937D01*
X170909194Y-81973801D01*
X170668382Y-82056384D01*
X170273718Y-82073750D01*
X169573686Y-82073750D01*
X169389668Y-80922812D01*
X169250343Y-80078875D01*
X169136326Y-79539813D01*
X169024216Y-79296760D01*
X168890614Y-79340850D01*
X168712119Y-79663217D01*
X168465331Y-80254994D01*
X168355745Y-80531059D01*
X167745160Y-82073750D01*
X166180526Y-82073750D01*
X165461606Y-82069222D01*
X164996603Y-82046734D01*
X164721969Y-81992926D01*
X164574155Y-81894437D01*
X164489611Y-81737909D01*
X164481440Y-81716562D01*
X164137789Y-80798649D01*
X163886803Y-80088658D01*
X163713889Y-79505308D01*
X163604454Y-78967318D01*
X163543904Y-78393408D01*
X163517646Y-77702295D01*
X163511086Y-76812699D01*
X163510661Y-76309601D01*
X163509036Y-73896191D01*
X165080442Y-73896191D01*
X165134630Y-76595908D01*
X165162475Y-77664050D01*
X165200639Y-78467256D01*
X165254421Y-79058052D01*
X165329118Y-79488962D01*
X165430029Y-79812511D01*
X165467895Y-79900163D01*
X165673108Y-80283987D01*
X165885762Y-80446003D01*
X166221870Y-80462764D01*
X166309914Y-80455788D01*
X166544050Y-80427048D01*
X166724935Y-80355756D01*
X166886233Y-80193404D01*
X167061611Y-79891486D01*
X167284733Y-79401494D01*
X167589266Y-78674923D01*
X167653303Y-78520160D01*
X167974703Y-77733630D01*
X168193014Y-77148542D01*
X168328193Y-76673652D01*
X168400196Y-76217715D01*
X168428982Y-75689487D01*
X168434507Y-74997721D01*
X168434535Y-74948285D01*
X168407115Y-73904167D01*
X168319159Y-73110683D01*
X168165050Y-72509062D01*
X167894779Y-71755000D01*
X166082426Y-71755000D01*
X165581434Y-72825595D01*
X165080442Y-73896191D01*
X163509036Y-73896191D01*
X163508823Y-73580625D01*
X164250985Y-71953437D01*
X164993146Y-70326250D01*
X166991260Y-70327183D01*
X166991260Y-70327183D01*
G37*
X166991260Y-70327183D02*
X168989375Y-70328117D01*
X169505312Y-71733897D01*
X169771246Y-72511263D01*
X169928459Y-73146086D01*
X170003545Y-73783048D01*
X170023082Y-74550776D01*
X170055890Y-75288744D01*
X170146549Y-76254658D01*
X170285731Y-77366154D01*
X170464107Y-78540866D01*
X170497500Y-78740000D01*
X170651133Y-79657696D01*
X170784108Y-80479765D01*
X170887650Y-81149681D01*
X170952984Y-81610916D01*
X170971917Y-81795937D01*
X170909194Y-81973801D01*
X170668382Y-82056384D01*
X170273718Y-82073750D01*
X169573686Y-82073750D01*
X169389668Y-80922812D01*
X169250343Y-80078875D01*
X169136326Y-79539813D01*
X169024216Y-79296760D01*
X168890614Y-79340850D01*
X168712119Y-79663217D01*
X168465331Y-80254994D01*
X168355745Y-80531059D01*
X167745160Y-82073750D01*
X166180526Y-82073750D01*
X165461606Y-82069222D01*
X164996603Y-82046734D01*
X164721969Y-81992926D01*
X164574155Y-81894437D01*
X164489611Y-81737909D01*
X164481440Y-81716562D01*
X164137789Y-80798649D01*
X163886803Y-80088658D01*
X163713889Y-79505308D01*
X163604454Y-78967318D01*
X163543904Y-78393408D01*
X163517646Y-77702295D01*
X163511086Y-76812699D01*
X163510661Y-76309601D01*
X163509036Y-73896191D01*
X165080442Y-73896191D01*
X165134630Y-76595908D01*
X165162475Y-77664050D01*
X165200639Y-78467256D01*
X165254421Y-79058052D01*
X165329118Y-79488962D01*
X165430029Y-79812511D01*
X165467895Y-79900163D01*
X165673108Y-80283987D01*
X165885762Y-80446003D01*
X166221870Y-80462764D01*
X166309914Y-80455788D01*
X166544050Y-80427048D01*
X166724935Y-80355756D01*
X166886233Y-80193404D01*
X167061611Y-79891486D01*
X167284733Y-79401494D01*
X167589266Y-78674923D01*
X167653303Y-78520160D01*
X167974703Y-77733630D01*
X168193014Y-77148542D01*
X168328193Y-76673652D01*
X168400196Y-76217715D01*
X168428982Y-75689487D01*
X168434507Y-74997721D01*
X168434535Y-74948285D01*
X168407115Y-73904167D01*
X168319159Y-73110683D01*
X168165050Y-72509062D01*
X167894779Y-71755000D01*
X166082426Y-71755000D01*
X165581434Y-72825595D01*
X165080442Y-73896191D01*
X163509036Y-73896191D01*
X163508823Y-73580625D01*
X164250985Y-71953437D01*
X164993146Y-70326250D01*
X166991260Y-70327183D01*
G36*
X151407812Y-70198489D02*
X152161875Y-70246875D01*
X152142790Y-70881875D01*
X152140774Y-71258371D01*
X152177709Y-71351375D01*
X152270341Y-71194118D01*
X152284553Y-71163180D01*
X152508392Y-70857267D01*
X152700513Y-70735666D01*
X153088711Y-70640634D01*
X153598987Y-70537428D01*
X154137975Y-70441905D01*
X154612305Y-70369922D01*
X154928610Y-70337333D01*
X155004867Y-70344329D01*
X155101107Y-70508936D01*
X155290842Y-70868363D01*
X155455862Y-71192069D01*
X155851689Y-71978513D01*
X156173486Y-71350819D01*
X156340003Y-71048403D01*
X156513594Y-70848943D01*
X156769642Y-70713354D01*
X157183532Y-70602552D01*
X157830646Y-70477452D01*
X157873052Y-70469647D01*
X158437100Y-70358605D01*
X158833550Y-70294454D01*
X159118408Y-70312788D01*
X159347683Y-70449200D01*
X159577382Y-70739283D01*
X159863512Y-71218630D01*
X160262082Y-71922835D01*
X160320703Y-72025145D01*
X160977549Y-73168415D01*
X160893125Y-81994375D01*
X160139062Y-82042760D01*
X159385000Y-82091146D01*
X159385000Y-77870295D01*
X159384295Y-76602806D01*
X159379963Y-75610610D01*
X159368679Y-74851497D01*
X159347115Y-74283260D01*
X159311947Y-73863692D01*
X159259848Y-73550584D01*
X159187492Y-73301728D01*
X159091552Y-73074917D01*
X158991143Y-72872207D01*
X158726133Y-72370180D01*
X158523198Y-72096552D01*
X158304898Y-71994515D01*
X157993797Y-72007261D01*
X157842138Y-72029318D01*
X157462381Y-72156123D01*
X157150259Y-72453929D01*
X156929326Y-72792747D01*
X156806805Y-73007952D01*
X156712125Y-73212096D01*
X156641698Y-73447556D01*
X156591936Y-73756712D01*
X156559250Y-74181942D01*
X156540051Y-74765625D01*
X156530751Y-75550138D01*
X156527760Y-76577861D01*
X156527500Y-77537956D01*
X156527500Y-81597500D01*
X154940000Y-81597500D01*
X154940000Y-77623472D01*
X154939208Y-76397572D01*
X154934371Y-75445130D01*
X154921793Y-74722103D01*
X154897780Y-74184449D01*
X154858635Y-73788126D01*
X154800666Y-73489091D01*
X154720176Y-73243302D01*
X154613470Y-73006717D01*
X154540450Y-72860972D01*
X154266102Y-72382434D01*
X154026882Y-72141055D01*
X153758211Y-72072556D01*
X153748281Y-72072500D01*
X153518939Y-72118668D01*
X153313138Y-72296063D01*
X153081332Y-72663017D01*
X152838169Y-73144062D01*
X152320678Y-74215625D01*
X152241276Y-78105000D01*
X152161875Y-81994375D01*
X151407812Y-82042760D01*
X150653750Y-82091146D01*
X150653750Y-70150103D01*
X151407812Y-70198489D01*
X151407812Y-70198489D01*
G37*
X151407812Y-70198489D02*
X152161875Y-70246875D01*
X152142790Y-70881875D01*
X152140774Y-71258371D01*
X152177709Y-71351375D01*
X152270341Y-71194118D01*
X152284553Y-71163180D01*
X152508392Y-70857267D01*
X152700513Y-70735666D01*
X153088711Y-70640634D01*
X153598987Y-70537428D01*
X154137975Y-70441905D01*
X154612305Y-70369922D01*
X154928610Y-70337333D01*
X155004867Y-70344329D01*
X155101107Y-70508936D01*
X155290842Y-70868363D01*
X155455862Y-71192069D01*
X155851689Y-71978513D01*
X156173486Y-71350819D01*
X156340003Y-71048403D01*
X156513594Y-70848943D01*
X156769642Y-70713354D01*
X157183532Y-70602552D01*
X157830646Y-70477452D01*
X157873052Y-70469647D01*
X158437100Y-70358605D01*
X158833550Y-70294454D01*
X159118408Y-70312788D01*
X159347683Y-70449200D01*
X159577382Y-70739283D01*
X159863512Y-71218630D01*
X160262082Y-71922835D01*
X160320703Y-72025145D01*
X160977549Y-73168415D01*
X160893125Y-81994375D01*
X160139062Y-82042760D01*
X159385000Y-82091146D01*
X159385000Y-77870295D01*
X159384295Y-76602806D01*
X159379963Y-75610610D01*
X159368679Y-74851497D01*
X159347115Y-74283260D01*
X159311947Y-73863692D01*
X159259848Y-73550584D01*
X159187492Y-73301728D01*
X159091552Y-73074917D01*
X158991143Y-72872207D01*
X158726133Y-72370180D01*
X158523198Y-72096552D01*
X158304898Y-71994515D01*
X157993797Y-72007261D01*
X157842138Y-72029318D01*
X157462381Y-72156123D01*
X157150259Y-72453929D01*
X156929326Y-72792747D01*
X156806805Y-73007952D01*
X156712125Y-73212096D01*
X156641698Y-73447556D01*
X156591936Y-73756712D01*
X156559250Y-74181942D01*
X156540051Y-74765625D01*
X156530751Y-75550138D01*
X156527760Y-76577861D01*
X156527500Y-77537956D01*
X156527500Y-81597500D01*
X154940000Y-81597500D01*
X154940000Y-77623472D01*
X154939208Y-76397572D01*
X154934371Y-75445130D01*
X154921793Y-74722103D01*
X154897780Y-74184449D01*
X154858635Y-73788126D01*
X154800666Y-73489091D01*
X154720176Y-73243302D01*
X154613470Y-73006717D01*
X154540450Y-72860972D01*
X154266102Y-72382434D01*
X154026882Y-72141055D01*
X153758211Y-72072556D01*
X153748281Y-72072500D01*
X153518939Y-72118668D01*
X153313138Y-72296063D01*
X153081332Y-72663017D01*
X152838169Y-73144062D01*
X152320678Y-74215625D01*
X152241276Y-78105000D01*
X152161875Y-81994375D01*
X151407812Y-82042760D01*
X150653750Y-82091146D01*
X150653750Y-70150103D01*
X151407812Y-70198489D01*
G36*
X219187764Y-86081641D02*
X241696875Y-86121875D01*
X240109375Y-87074375D01*
X212538925Y-87233125D01*
X214347531Y-88741250D01*
X215672526Y-89846925D01*
X217018023Y-90971220D01*
X218359341Y-92093401D01*
X219671799Y-93192734D01*
X220930718Y-94248483D01*
X222111417Y-95239914D01*
X223189215Y-96146293D01*
X224139431Y-96946885D01*
X224937386Y-97620955D01*
X225558398Y-98147770D01*
X225977787Y-98506594D01*
X226139375Y-98647786D01*
X226774375Y-99217340D01*
X225504375Y-98759386D01*
X225028705Y-98584887D01*
X224390347Y-98345500D01*
X223572820Y-98034874D01*
X222559649Y-97646658D01*
X221334354Y-97174503D01*
X219880458Y-96612057D01*
X218181483Y-95952971D01*
X216220951Y-95190893D01*
X213982384Y-94319474D01*
X213836250Y-94262552D01*
X211356932Y-93297158D01*
X209158061Y-92441800D01*
X207224468Y-91690680D01*
X205540983Y-91038003D01*
X204092436Y-90477971D01*
X202863658Y-90004787D01*
X201839479Y-89612655D01*
X201004731Y-89295778D01*
X200344243Y-89048357D01*
X199842846Y-88864598D01*
X199485371Y-88738702D01*
X199256648Y-88664874D01*
X199141508Y-88637315D01*
X199121446Y-88639387D01*
X199160727Y-88801403D01*
X199306109Y-89248796D01*
X199553187Y-89969294D01*
X199897556Y-90950624D01*
X200334811Y-92180515D01*
X200860547Y-93646694D01*
X201470359Y-95336890D01*
X202159842Y-97238831D01*
X202924591Y-99340244D01*
X203760201Y-101628858D01*
X204662266Y-104092400D01*
X204941750Y-104854375D01*
X205829196Y-107277484D01*
X206609306Y-109417066D01*
X207281462Y-111271387D01*
X207845047Y-112838713D01*
X208299444Y-114117308D01*
X208644035Y-115105438D01*
X208878203Y-115801370D01*
X209001331Y-116203368D01*
X209019719Y-116311947D01*
X208978804Y-116285797D01*
X208872809Y-116175902D01*
X208691857Y-115970094D01*
X208426069Y-115656208D01*
X208065567Y-115222078D01*
X207600473Y-114655536D01*
X207020908Y-113944418D01*
X206316994Y-113076557D01*
X205478854Y-112039786D01*
X204496608Y-110821940D01*
X203360379Y-109410853D01*
X202060288Y-107794357D01*
X200586457Y-105960288D01*
X198929008Y-103896479D01*
X198041188Y-102790625D01*
X196571880Y-100962096D01*
X195289518Y-99370246D01*
X194183974Y-98002817D01*
X193245123Y-96847550D01*
X192462841Y-95892187D01*
X191827000Y-95124469D01*
X191327475Y-94532140D01*
X190954142Y-94102940D01*
X190696873Y-93824612D01*
X190545544Y-93684897D01*
X190501044Y-93662500D01*
X190468128Y-93691123D01*
X190426831Y-93792425D01*
X190372792Y-93989557D01*
X190301652Y-94305668D01*
X190209052Y-94763908D01*
X190090632Y-95387429D01*
X189942033Y-96199378D01*
X189758895Y-97222907D01*
X189536859Y-98481166D01*
X189271566Y-99997304D01*
X188958656Y-101794472D01*
X188826948Y-102552500D01*
X188407652Y-104966360D01*
X188037996Y-107093584D01*
X187713394Y-108960370D01*
X187429264Y-110592916D01*
X187181021Y-112017423D01*
X186964081Y-113260089D01*
X186773861Y-114347112D01*
X186605777Y-115304692D01*
X186455245Y-116159027D01*
X186317682Y-116936317D01*
X186188502Y-117662760D01*
X186063123Y-118364555D01*
X185952190Y-118983125D01*
X185721689Y-120229301D01*
X185523139Y-121226344D01*
X185359605Y-121961807D01*
X185234155Y-122423244D01*
X185149856Y-122598208D01*
X185109773Y-122474252D01*
X185107327Y-122412224D01*
X185082860Y-122212427D01*
X185014914Y-121732478D01*
X184908511Y-121006000D01*
X184768673Y-120066615D01*
X184600421Y-118947946D01*
X184408775Y-117683615D01*
X184198758Y-116307244D01*
X184075998Y-115506599D01*
X183810614Y-113776650D01*
X183520044Y-111878931D01*
X183216934Y-109896276D01*
X182913932Y-107911516D01*
X182623686Y-106007485D01*
X182358842Y-104267015D01*
X182170826Y-103028750D01*
X181825420Y-100765493D01*
X181522028Y-98808234D01*
X181260860Y-97158249D01*
X181042127Y-95816815D01*
X180866039Y-94785206D01*
X180732808Y-94064700D01*
X180642645Y-93656572D01*
X180606207Y-93558291D01*
X180550105Y-93574694D01*
X180423572Y-93681605D01*
X180215588Y-93891899D01*
X179915136Y-94218450D01*
X179511197Y-94674135D01*
X178992753Y-95271826D01*
X178348784Y-96024400D01*
X177568273Y-96944732D01*
X176640200Y-98045696D01*
X175553547Y-99340167D01*
X174297297Y-100841020D01*
X172860429Y-102561130D01*
X171278510Y-104457500D01*
X169640544Y-106421722D01*
X168193948Y-108155584D01*
X166927082Y-109672842D01*
X165828301Y-110987252D01*
X164885966Y-112112568D01*
X164088433Y-113062546D01*
X163424062Y-113850943D01*
X162881210Y-114491513D01*
X162448235Y-114998011D01*
X162113495Y-115384194D01*
X161865349Y-115663817D01*
X161692155Y-115850636D01*
X161582271Y-115958405D01*
X161524054Y-116000881D01*
X161509024Y-116000690D01*
X161506290Y-115972487D01*
X161523918Y-115896538D01*
X161569052Y-115754232D01*
X161648836Y-115526959D01*
X161770413Y-115196109D01*
X161940927Y-114743070D01*
X162167521Y-114149233D01*
X162457339Y-113395987D01*
X162817525Y-112464721D01*
X163255221Y-111336824D01*
X163777573Y-109993686D01*
X164391723Y-108416697D01*
X165104815Y-106587246D01*
X165923992Y-104486722D01*
X166214046Y-103743125D01*
X167175990Y-101276666D01*
X168028675Y-99089184D01*
X168778504Y-97163974D01*
X169431880Y-95484328D01*
X169995208Y-94033542D01*
X170474890Y-92794909D01*
X170877330Y-91751723D01*
X171208931Y-90887279D01*
X171476097Y-90184870D01*
X171685231Y-89627790D01*
X171842737Y-89199334D01*
X171955019Y-88882795D01*
X172028479Y-88661469D01*
X172069521Y-88518648D01*
X172084549Y-88437626D01*
X172085000Y-88426447D01*
X171950651Y-88409942D01*
X171598092Y-88495074D01*
X171103053Y-88663460D01*
X171092812Y-88667326D01*
X170698252Y-88814880D01*
X170050824Y-89054995D01*
X169195772Y-89370982D01*
X168178339Y-89746147D01*
X167043767Y-90163801D01*
X165837300Y-90607251D01*
X165258750Y-90819669D01*
X163823954Y-91346636D01*
X162251909Y-91924643D01*
X160630119Y-92521473D01*
X159046087Y-93104913D01*
X157587316Y-93642746D01*
X156368750Y-94092618D01*
X154674868Y-94717194D01*
X152986314Y-95337268D01*
X151346201Y-95937165D01*
X149797639Y-96501207D01*
X148383742Y-97013722D01*
X147147620Y-97459033D01*
X146132387Y-97821465D01*
X145522697Y-98036155D01*
X145007019Y-98200165D01*
X144639780Y-98286425D01*
X144490159Y-98279321D01*
X144490822Y-98269065D01*
X144622730Y-98137742D01*
X144972870Y-97833091D01*
X145511374Y-97379909D01*
X146208375Y-96802990D01*
X147034005Y-96127130D01*
X147958396Y-95377125D01*
X148191009Y-95189591D01*
X150064174Y-95189591D01*
X150233860Y-95171195D01*
X150601431Y-95055775D01*
X150906656Y-94940020D01*
X151234660Y-94813425D01*
X151821397Y-94592500D01*
X152627387Y-94291892D01*
X153613151Y-93926247D01*
X154739210Y-93510210D01*
X155966084Y-93058429D01*
X157162500Y-92619196D01*
X158618937Y-92084942D01*
X160161130Y-91518615D01*
X161719277Y-90945891D01*
X163223576Y-90392443D01*
X164604224Y-89883947D01*
X165791420Y-89446078D01*
X166290625Y-89261665D01*
X167828456Y-88694278D01*
X169097267Y-88231229D01*
X170125541Y-87865962D01*
X170941763Y-87591923D01*
X171574417Y-87402557D01*
X172051986Y-87291309D01*
X172402955Y-87251623D01*
X172655808Y-87276945D01*
X172839028Y-87360719D01*
X172981101Y-87496391D01*
X173110509Y-87677406D01*
X173118955Y-87690269D01*
X173212972Y-87853783D01*
X173262008Y-88029239D01*
X173254930Y-88260470D01*
X173180607Y-88591309D01*
X173027909Y-89065588D01*
X172785705Y-89727139D01*
X172442864Y-90619795D01*
X172247360Y-91122500D01*
X171922053Y-91958094D01*
X171516363Y-93000817D01*
X171064840Y-94161829D01*
X170602032Y-95352291D01*
X170162490Y-96483364D01*
X170148257Y-96520000D01*
X169676977Y-97732179D01*
X169134895Y-99125033D01*
X168566813Y-100583531D01*
X168017535Y-101992642D01*
X167551323Y-103187500D01*
X166912250Y-104825102D01*
X166379871Y-106191507D01*
X165944976Y-107311107D01*
X165598354Y-108208291D01*
X165330794Y-108907451D01*
X165133084Y-109432978D01*
X164996015Y-109809263D01*
X164910375Y-110060697D01*
X164866954Y-110211671D01*
X164856539Y-110286575D01*
X164863114Y-110306030D01*
X164897907Y-110310882D01*
X164968031Y-110264685D01*
X165091864Y-110146076D01*
X165287788Y-109933692D01*
X165574181Y-109606170D01*
X165969423Y-109142148D01*
X166491895Y-108520261D01*
X167159976Y-107719147D01*
X167992045Y-106717442D01*
X169006484Y-105493785D01*
X169088276Y-105395067D01*
X170832936Y-103290590D01*
X172387605Y-101418377D01*
X173763750Y-99765292D01*
X174972837Y-98318201D01*
X176026333Y-97063966D01*
X176935705Y-95989453D01*
X177712417Y-95081525D01*
X178367938Y-94327046D01*
X178913734Y-93712881D01*
X179361270Y-93225894D01*
X179722013Y-92852948D01*
X180007431Y-92580909D01*
X180228988Y-92396639D01*
X180398152Y-92287004D01*
X180526389Y-92238868D01*
X180576925Y-92233750D01*
X180887948Y-92245744D01*
X181134385Y-92306235D01*
X181331471Y-92451987D01*
X181494445Y-92719763D01*
X181638544Y-93146327D01*
X181779005Y-93768442D01*
X181931066Y-94622872D01*
X182109963Y-95746381D01*
X182156049Y-96043750D01*
X182638218Y-99166894D01*
X183072719Y-101992667D01*
X183462010Y-104537214D01*
X183808548Y-106816683D01*
X184114788Y-108847220D01*
X184383189Y-110644972D01*
X184559541Y-111839375D01*
X184719578Y-112912738D01*
X184869732Y-113888835D01*
X185002498Y-114721303D01*
X185110371Y-115363781D01*
X185185846Y-115769909D01*
X185214866Y-115887500D01*
X185259046Y-115916217D01*
X185319816Y-115803767D01*
X185401279Y-115529772D01*
X185507537Y-115073850D01*
X185642693Y-114415623D01*
X185810850Y-113534710D01*
X186016109Y-112410733D01*
X186262574Y-111023311D01*
X186554347Y-109352065D01*
X186700890Y-108505625D01*
X187170747Y-105794489D01*
X187592048Y-103382196D01*
X187967588Y-101254271D01*
X188300162Y-99396237D01*
X188592567Y-97793619D01*
X188847598Y-96431938D01*
X189068050Y-95296721D01*
X189256719Y-94373490D01*
X189416399Y-93647769D01*
X189549888Y-93105082D01*
X189659980Y-92730954D01*
X189749471Y-92510907D01*
X189803483Y-92439185D01*
X189968569Y-92323344D01*
X190124694Y-92242783D01*
X190288135Y-92214076D01*
X190475167Y-92253797D01*
X190702066Y-92378518D01*
X190985108Y-92604815D01*
X191340570Y-92949259D01*
X191784726Y-93428426D01*
X192333852Y-94058888D01*
X193004225Y-94857219D01*
X193812121Y-95839993D01*
X194773815Y-97023784D01*
X195905582Y-98425164D01*
X196929375Y-99695439D01*
X198515888Y-101663804D01*
X199914104Y-103397204D01*
X201134387Y-104908340D01*
X202187104Y-106209914D01*
X203082620Y-107314628D01*
X203831300Y-108235184D01*
X204443510Y-108984284D01*
X204929616Y-109574630D01*
X205299982Y-110018923D01*
X205564976Y-110329865D01*
X205734961Y-110520158D01*
X205820305Y-110602504D01*
X205834277Y-110607389D01*
X205792603Y-110452437D01*
X205652653Y-110030949D01*
X205425563Y-109374437D01*
X205122472Y-108514415D01*
X204754518Y-107482398D01*
X204332840Y-106309900D01*
X203868576Y-105028433D01*
X203658473Y-104451337D01*
X202731517Y-101907697D01*
X201908304Y-99645828D01*
X201183061Y-97649488D01*
X200550016Y-95902433D01*
X200003397Y-94388421D01*
X199537433Y-93091207D01*
X199146350Y-91994550D01*
X198824377Y-91082205D01*
X198565741Y-90337931D01*
X198364670Y-89745483D01*
X198215391Y-89288620D01*
X198112134Y-88951096D01*
X198049125Y-88716671D01*
X198024637Y-88597671D01*
X198034109Y-88013742D01*
X198276484Y-87644214D01*
X198742656Y-87498519D01*
X199070495Y-87514347D01*
X199334330Y-87586900D01*
X199861051Y-87763948D01*
X200618187Y-88033487D01*
X201573269Y-88383515D01*
X202693827Y-88802032D01*
X203947391Y-89277035D01*
X205301491Y-89796521D01*
X206463629Y-90247093D01*
X208890022Y-91192075D01*
X211037230Y-92027858D01*
X212921799Y-92760784D01*
X214560275Y-93397194D01*
X215969205Y-93943428D01*
X217165135Y-94405829D01*
X218164611Y-94790736D01*
X218984179Y-95104490D01*
X219640385Y-95353434D01*
X220149775Y-95543906D01*
X220528897Y-95682250D01*
X220794295Y-95774804D01*
X220962517Y-95827911D01*
X221050107Y-95847911D01*
X221072364Y-95845552D01*
X220983129Y-95727139D01*
X220696820Y-95453336D01*
X220262416Y-95069411D01*
X219903874Y-94765579D01*
X219071159Y-94068150D01*
X218148793Y-93291109D01*
X217173693Y-92465986D01*
X216182778Y-91624310D01*
X215212967Y-90797609D01*
X214301178Y-90017414D01*
X213484330Y-89315253D01*
X212799341Y-88722655D01*
X212283131Y-88271150D01*
X211972617Y-87992267D01*
X211970937Y-87990701D01*
X211605335Y-87620205D01*
X211360321Y-87315577D01*
X211296250Y-87178135D01*
X211207569Y-87131453D01*
X210929380Y-87092511D01*
X210443462Y-87060837D01*
X209731595Y-87035960D01*
X208775557Y-87017409D01*
X207557129Y-87004714D01*
X206058089Y-86997401D01*
X204260216Y-86995001D01*
X204215512Y-86995000D01*
X197134775Y-86995000D01*
X196317700Y-87730057D01*
X194584350Y-89083263D01*
X192710061Y-90169460D01*
X190725685Y-90988649D01*
X188662076Y-91540830D01*
X186550088Y-91826004D01*
X184420574Y-91844169D01*
X182304387Y-91595327D01*
X180232382Y-91079476D01*
X178235412Y-90296618D01*
X176344330Y-89246751D01*
X174589990Y-87929877D01*
X174363549Y-87730057D01*
X173546474Y-86995000D01*
X166505424Y-86996003D01*
X159464375Y-86997007D01*
X159214929Y-87432566D01*
X159014608Y-87667422D01*
X158607906Y-88057962D01*
X158038979Y-88564839D01*
X157351985Y-89148706D01*
X156595554Y-89766631D01*
X155098620Y-90969299D01*
X153773505Y-92041104D01*
X152631670Y-92972531D01*
X151684576Y-93754065D01*
X150943684Y-94376188D01*
X150420455Y-94829386D01*
X150126350Y-95104141D01*
X150064174Y-95189591D01*
X148191009Y-95189591D01*
X148510625Y-94931915D01*
X150269421Y-93516768D01*
X151796258Y-92287238D01*
X153106923Y-91230375D01*
X154217200Y-90333231D01*
X155142876Y-89582855D01*
X155899738Y-88966298D01*
X156503570Y-88470612D01*
X156970160Y-88082846D01*
X157315293Y-87790052D01*
X157554755Y-87579279D01*
X157704333Y-87437579D01*
X157779811Y-87352002D01*
X157797500Y-87313830D01*
X157642632Y-87293170D01*
X157193559Y-87272179D01*
X156473574Y-87251188D01*
X155505971Y-87230529D01*
X154314044Y-87210530D01*
X152921086Y-87191524D01*
X151350391Y-87173841D01*
X149625252Y-87157812D01*
X147768964Y-87143766D01*
X145804821Y-87132035D01*
X144581562Y-87126234D01*
X142209092Y-87115636D01*
X140133548Y-87105183D01*
X138334354Y-87094391D01*
X136790937Y-87082778D01*
X135482722Y-87069859D01*
X134389136Y-87055154D01*
X133489603Y-87038179D01*
X132763550Y-87018450D01*
X132190402Y-86995486D01*
X131749586Y-86968803D01*
X131420526Y-86937919D01*
X131182649Y-86902351D01*
X131015381Y-86861616D01*
X130898147Y-86815231D01*
X130877812Y-86804648D01*
X130480047Y-86549921D01*
X130190526Y-86299169D01*
X130183687Y-86291092D01*
X130175376Y-86256123D01*
X130221484Y-86224561D01*
X130337121Y-86196235D01*
X130537396Y-86170972D01*
X130837419Y-86148601D01*
X131252299Y-86128948D01*
X131797147Y-86111842D01*
X132487072Y-86097111D01*
X133337183Y-86084583D01*
X134362591Y-86074085D01*
X135578405Y-86065445D01*
X136999734Y-86058491D01*
X138641688Y-86053052D01*
X140519378Y-86048954D01*
X142647912Y-86046025D01*
X145042401Y-86044094D01*
X147717953Y-86042989D01*
X150689679Y-86042536D01*
X152001818Y-86042500D01*
X174026262Y-86042500D01*
X174920943Y-86815355D01*
X176777116Y-88213982D01*
X178781460Y-89334537D01*
X180918583Y-90169011D01*
X181889826Y-90441697D01*
X182671712Y-90577684D01*
X183676807Y-90667107D01*
X184814257Y-90710017D01*
X185993213Y-90706462D01*
X187122822Y-90656494D01*
X188112233Y-90560162D01*
X188791423Y-90437906D01*
X190771803Y-89822934D01*
X192628408Y-88970007D01*
X194416866Y-87850316D01*
X195692764Y-86863471D01*
X196678653Y-86041408D01*
X219187764Y-86081641D01*
X219187764Y-86081641D01*
G37*
X219187764Y-86081641D02*
X241696875Y-86121875D01*
X240109375Y-87074375D01*
X212538925Y-87233125D01*
X214347531Y-88741250D01*
X215672526Y-89846925D01*
X217018023Y-90971220D01*
X218359341Y-92093401D01*
X219671799Y-93192734D01*
X220930718Y-94248483D01*
X222111417Y-95239914D01*
X223189215Y-96146293D01*
X224139431Y-96946885D01*
X224937386Y-97620955D01*
X225558398Y-98147770D01*
X225977787Y-98506594D01*
X226139375Y-98647786D01*
X226774375Y-99217340D01*
X225504375Y-98759386D01*
X225028705Y-98584887D01*
X224390347Y-98345500D01*
X223572820Y-98034874D01*
X222559649Y-97646658D01*
X221334354Y-97174503D01*
X219880458Y-96612057D01*
X218181483Y-95952971D01*
X216220951Y-95190893D01*
X213982384Y-94319474D01*
X213836250Y-94262552D01*
X211356932Y-93297158D01*
X209158061Y-92441800D01*
X207224468Y-91690680D01*
X205540983Y-91038003D01*
X204092436Y-90477971D01*
X202863658Y-90004787D01*
X201839479Y-89612655D01*
X201004731Y-89295778D01*
X200344243Y-89048357D01*
X199842846Y-88864598D01*
X199485371Y-88738702D01*
X199256648Y-88664874D01*
X199141508Y-88637315D01*
X199121446Y-88639387D01*
X199160727Y-88801403D01*
X199306109Y-89248796D01*
X199553187Y-89969294D01*
X199897556Y-90950624D01*
X200334811Y-92180515D01*
X200860547Y-93646694D01*
X201470359Y-95336890D01*
X202159842Y-97238831D01*
X202924591Y-99340244D01*
X203760201Y-101628858D01*
X204662266Y-104092400D01*
X204941750Y-104854375D01*
X205829196Y-107277484D01*
X206609306Y-109417066D01*
X207281462Y-111271387D01*
X207845047Y-112838713D01*
X208299444Y-114117308D01*
X208644035Y-115105438D01*
X208878203Y-115801370D01*
X209001331Y-116203368D01*
X209019719Y-116311947D01*
X208978804Y-116285797D01*
X208872809Y-116175902D01*
X208691857Y-115970094D01*
X208426069Y-115656208D01*
X208065567Y-115222078D01*
X207600473Y-114655536D01*
X207020908Y-113944418D01*
X206316994Y-113076557D01*
X205478854Y-112039786D01*
X204496608Y-110821940D01*
X203360379Y-109410853D01*
X202060288Y-107794357D01*
X200586457Y-105960288D01*
X198929008Y-103896479D01*
X198041188Y-102790625D01*
X196571880Y-100962096D01*
X195289518Y-99370246D01*
X194183974Y-98002817D01*
X193245123Y-96847550D01*
X192462841Y-95892187D01*
X191827000Y-95124469D01*
X191327475Y-94532140D01*
X190954142Y-94102940D01*
X190696873Y-93824612D01*
X190545544Y-93684897D01*
X190501044Y-93662500D01*
X190468128Y-93691123D01*
X190426831Y-93792425D01*
X190372792Y-93989557D01*
X190301652Y-94305668D01*
X190209052Y-94763908D01*
X190090632Y-95387429D01*
X189942033Y-96199378D01*
X189758895Y-97222907D01*
X189536859Y-98481166D01*
X189271566Y-99997304D01*
X188958656Y-101794472D01*
X188826948Y-102552500D01*
X188407652Y-104966360D01*
X188037996Y-107093584D01*
X187713394Y-108960370D01*
X187429264Y-110592916D01*
X187181021Y-112017423D01*
X186964081Y-113260089D01*
X186773861Y-114347112D01*
X186605777Y-115304692D01*
X186455245Y-116159027D01*
X186317682Y-116936317D01*
X186188502Y-117662760D01*
X186063123Y-118364555D01*
X185952190Y-118983125D01*
X185721689Y-120229301D01*
X185523139Y-121226344D01*
X185359605Y-121961807D01*
X185234155Y-122423244D01*
X185149856Y-122598208D01*
X185109773Y-122474252D01*
X185107327Y-122412224D01*
X185082860Y-122212427D01*
X185014914Y-121732478D01*
X184908511Y-121006000D01*
X184768673Y-120066615D01*
X184600421Y-118947946D01*
X184408775Y-117683615D01*
X184198758Y-116307244D01*
X184075998Y-115506599D01*
X183810614Y-113776650D01*
X183520044Y-111878931D01*
X183216934Y-109896276D01*
X182913932Y-107911516D01*
X182623686Y-106007485D01*
X182358842Y-104267015D01*
X182170826Y-103028750D01*
X181825420Y-100765493D01*
X181522028Y-98808234D01*
X181260860Y-97158249D01*
X181042127Y-95816815D01*
X180866039Y-94785206D01*
X180732808Y-94064700D01*
X180642645Y-93656572D01*
X180606207Y-93558291D01*
X180550105Y-93574694D01*
X180423572Y-93681605D01*
X180215588Y-93891899D01*
X179915136Y-94218450D01*
X179511197Y-94674135D01*
X178992753Y-95271826D01*
X178348784Y-96024400D01*
X177568273Y-96944732D01*
X176640200Y-98045696D01*
X175553547Y-99340167D01*
X174297297Y-100841020D01*
X172860429Y-102561130D01*
X171278510Y-104457500D01*
X169640544Y-106421722D01*
X168193948Y-108155584D01*
X166927082Y-109672842D01*
X165828301Y-110987252D01*
X164885966Y-112112568D01*
X164088433Y-113062546D01*
X163424062Y-113850943D01*
X162881210Y-114491513D01*
X162448235Y-114998011D01*
X162113495Y-115384194D01*
X161865349Y-115663817D01*
X161692155Y-115850636D01*
X161582271Y-115958405D01*
X161524054Y-116000881D01*
X161509024Y-116000690D01*
X161506290Y-115972487D01*
X161523918Y-115896538D01*
X161569052Y-115754232D01*
X161648836Y-115526959D01*
X161770413Y-115196109D01*
X161940927Y-114743070D01*
X162167521Y-114149233D01*
X162457339Y-113395987D01*
X162817525Y-112464721D01*
X163255221Y-111336824D01*
X163777573Y-109993686D01*
X164391723Y-108416697D01*
X165104815Y-106587246D01*
X165923992Y-104486722D01*
X166214046Y-103743125D01*
X167175990Y-101276666D01*
X168028675Y-99089184D01*
X168778504Y-97163974D01*
X169431880Y-95484328D01*
X169995208Y-94033542D01*
X170474890Y-92794909D01*
X170877330Y-91751723D01*
X171208931Y-90887279D01*
X171476097Y-90184870D01*
X171685231Y-89627790D01*
X171842737Y-89199334D01*
X171955019Y-88882795D01*
X172028479Y-88661469D01*
X172069521Y-88518648D01*
X172084549Y-88437626D01*
X172085000Y-88426447D01*
X171950651Y-88409942D01*
X171598092Y-88495074D01*
X171103053Y-88663460D01*
X171092812Y-88667326D01*
X170698252Y-88814880D01*
X170050824Y-89054995D01*
X169195772Y-89370982D01*
X168178339Y-89746147D01*
X167043767Y-90163801D01*
X165837300Y-90607251D01*
X165258750Y-90819669D01*
X163823954Y-91346636D01*
X162251909Y-91924643D01*
X160630119Y-92521473D01*
X159046087Y-93104913D01*
X157587316Y-93642746D01*
X156368750Y-94092618D01*
X154674868Y-94717194D01*
X152986314Y-95337268D01*
X151346201Y-95937165D01*
X149797639Y-96501207D01*
X148383742Y-97013722D01*
X147147620Y-97459033D01*
X146132387Y-97821465D01*
X145522697Y-98036155D01*
X145007019Y-98200165D01*
X144639780Y-98286425D01*
X144490159Y-98279321D01*
X144490822Y-98269065D01*
X144622730Y-98137742D01*
X144972870Y-97833091D01*
X145511374Y-97379909D01*
X146208375Y-96802990D01*
X147034005Y-96127130D01*
X147958396Y-95377125D01*
X148191009Y-95189591D01*
X150064174Y-95189591D01*
X150233860Y-95171195D01*
X150601431Y-95055775D01*
X150906656Y-94940020D01*
X151234660Y-94813425D01*
X151821397Y-94592500D01*
X152627387Y-94291892D01*
X153613151Y-93926247D01*
X154739210Y-93510210D01*
X155966084Y-93058429D01*
X157162500Y-92619196D01*
X158618937Y-92084942D01*
X160161130Y-91518615D01*
X161719277Y-90945891D01*
X163223576Y-90392443D01*
X164604224Y-89883947D01*
X165791420Y-89446078D01*
X166290625Y-89261665D01*
X167828456Y-88694278D01*
X169097267Y-88231229D01*
X170125541Y-87865962D01*
X170941763Y-87591923D01*
X171574417Y-87402557D01*
X172051986Y-87291309D01*
X172402955Y-87251623D01*
X172655808Y-87276945D01*
X172839028Y-87360719D01*
X172981101Y-87496391D01*
X173110509Y-87677406D01*
X173118955Y-87690269D01*
X173212972Y-87853783D01*
X173262008Y-88029239D01*
X173254930Y-88260470D01*
X173180607Y-88591309D01*
X173027909Y-89065588D01*
X172785705Y-89727139D01*
X172442864Y-90619795D01*
X172247360Y-91122500D01*
X171922053Y-91958094D01*
X171516363Y-93000817D01*
X171064840Y-94161829D01*
X170602032Y-95352291D01*
X170162490Y-96483364D01*
X170148257Y-96520000D01*
X169676977Y-97732179D01*
X169134895Y-99125033D01*
X168566813Y-100583531D01*
X168017535Y-101992642D01*
X167551323Y-103187500D01*
X166912250Y-104825102D01*
X166379871Y-106191507D01*
X165944976Y-107311107D01*
X165598354Y-108208291D01*
X165330794Y-108907451D01*
X165133084Y-109432978D01*
X164996015Y-109809263D01*
X164910375Y-110060697D01*
X164866954Y-110211671D01*
X164856539Y-110286575D01*
X164863114Y-110306030D01*
X164897907Y-110310882D01*
X164968031Y-110264685D01*
X165091864Y-110146076D01*
X165287788Y-109933692D01*
X165574181Y-109606170D01*
X165969423Y-109142148D01*
X166491895Y-108520261D01*
X167159976Y-107719147D01*
X167992045Y-106717442D01*
X169006484Y-105493785D01*
X169088276Y-105395067D01*
X170832936Y-103290590D01*
X172387605Y-101418377D01*
X173763750Y-99765292D01*
X174972837Y-98318201D01*
X176026333Y-97063966D01*
X176935705Y-95989453D01*
X177712417Y-95081525D01*
X178367938Y-94327046D01*
X178913734Y-93712881D01*
X179361270Y-93225894D01*
X179722013Y-92852948D01*
X180007431Y-92580909D01*
X180228988Y-92396639D01*
X180398152Y-92287004D01*
X180526389Y-92238868D01*
X180576925Y-92233750D01*
X180887948Y-92245744D01*
X181134385Y-92306235D01*
X181331471Y-92451987D01*
X181494445Y-92719763D01*
X181638544Y-93146327D01*
X181779005Y-93768442D01*
X181931066Y-94622872D01*
X182109963Y-95746381D01*
X182156049Y-96043750D01*
X182638218Y-99166894D01*
X183072719Y-101992667D01*
X183462010Y-104537214D01*
X183808548Y-106816683D01*
X184114788Y-108847220D01*
X184383189Y-110644972D01*
X184559541Y-111839375D01*
X184719578Y-112912738D01*
X184869732Y-113888835D01*
X185002498Y-114721303D01*
X185110371Y-115363781D01*
X185185846Y-115769909D01*
X185214866Y-115887500D01*
X185259046Y-115916217D01*
X185319816Y-115803767D01*
X185401279Y-115529772D01*
X185507537Y-115073850D01*
X185642693Y-114415623D01*
X185810850Y-113534710D01*
X186016109Y-112410733D01*
X186262574Y-111023311D01*
X186554347Y-109352065D01*
X186700890Y-108505625D01*
X187170747Y-105794489D01*
X187592048Y-103382196D01*
X187967588Y-101254271D01*
X188300162Y-99396237D01*
X188592567Y-97793619D01*
X188847598Y-96431938D01*
X189068050Y-95296721D01*
X189256719Y-94373490D01*
X189416399Y-93647769D01*
X189549888Y-93105082D01*
X189659980Y-92730954D01*
X189749471Y-92510907D01*
X189803483Y-92439185D01*
X189968569Y-92323344D01*
X190124694Y-92242783D01*
X190288135Y-92214076D01*
X190475167Y-92253797D01*
X190702066Y-92378518D01*
X190985108Y-92604815D01*
X191340570Y-92949259D01*
X191784726Y-93428426D01*
X192333852Y-94058888D01*
X193004225Y-94857219D01*
X193812121Y-95839993D01*
X194773815Y-97023784D01*
X195905582Y-98425164D01*
X196929375Y-99695439D01*
X198515888Y-101663804D01*
X199914104Y-103397204D01*
X201134387Y-104908340D01*
X202187104Y-106209914D01*
X203082620Y-107314628D01*
X203831300Y-108235184D01*
X204443510Y-108984284D01*
X204929616Y-109574630D01*
X205299982Y-110018923D01*
X205564976Y-110329865D01*
X205734961Y-110520158D01*
X205820305Y-110602504D01*
X205834277Y-110607389D01*
X205792603Y-110452437D01*
X205652653Y-110030949D01*
X205425563Y-109374437D01*
X205122472Y-108514415D01*
X204754518Y-107482398D01*
X204332840Y-106309900D01*
X203868576Y-105028433D01*
X203658473Y-104451337D01*
X202731517Y-101907697D01*
X201908304Y-99645828D01*
X201183061Y-97649488D01*
X200550016Y-95902433D01*
X200003397Y-94388421D01*
X199537433Y-93091207D01*
X199146350Y-91994550D01*
X198824377Y-91082205D01*
X198565741Y-90337931D01*
X198364670Y-89745483D01*
X198215391Y-89288620D01*
X198112134Y-88951096D01*
X198049125Y-88716671D01*
X198024637Y-88597671D01*
X198034109Y-88013742D01*
X198276484Y-87644214D01*
X198742656Y-87498519D01*
X199070495Y-87514347D01*
X199334330Y-87586900D01*
X199861051Y-87763948D01*
X200618187Y-88033487D01*
X201573269Y-88383515D01*
X202693827Y-88802032D01*
X203947391Y-89277035D01*
X205301491Y-89796521D01*
X206463629Y-90247093D01*
X208890022Y-91192075D01*
X211037230Y-92027858D01*
X212921799Y-92760784D01*
X214560275Y-93397194D01*
X215969205Y-93943428D01*
X217165135Y-94405829D01*
X218164611Y-94790736D01*
X218984179Y-95104490D01*
X219640385Y-95353434D01*
X220149775Y-95543906D01*
X220528897Y-95682250D01*
X220794295Y-95774804D01*
X220962517Y-95827911D01*
X221050107Y-95847911D01*
X221072364Y-95845552D01*
X220983129Y-95727139D01*
X220696820Y-95453336D01*
X220262416Y-95069411D01*
X219903874Y-94765579D01*
X219071159Y-94068150D01*
X218148793Y-93291109D01*
X217173693Y-92465986D01*
X216182778Y-91624310D01*
X215212967Y-90797609D01*
X214301178Y-90017414D01*
X213484330Y-89315253D01*
X212799341Y-88722655D01*
X212283131Y-88271150D01*
X211972617Y-87992267D01*
X211970937Y-87990701D01*
X211605335Y-87620205D01*
X211360321Y-87315577D01*
X211296250Y-87178135D01*
X211207569Y-87131453D01*
X210929380Y-87092511D01*
X210443462Y-87060837D01*
X209731595Y-87035960D01*
X208775557Y-87017409D01*
X207557129Y-87004714D01*
X206058089Y-86997401D01*
X204260216Y-86995001D01*
X204215512Y-86995000D01*
X197134775Y-86995000D01*
X196317700Y-87730057D01*
X194584350Y-89083263D01*
X192710061Y-90169460D01*
X190725685Y-90988649D01*
X188662076Y-91540830D01*
X186550088Y-91826004D01*
X184420574Y-91844169D01*
X182304387Y-91595327D01*
X180232382Y-91079476D01*
X178235412Y-90296618D01*
X176344330Y-89246751D01*
X174589990Y-87929877D01*
X174363549Y-87730057D01*
X173546474Y-86995000D01*
X166505424Y-86996003D01*
X159464375Y-86997007D01*
X159214929Y-87432566D01*
X159014608Y-87667422D01*
X158607906Y-88057962D01*
X158038979Y-88564839D01*
X157351985Y-89148706D01*
X156595554Y-89766631D01*
X155098620Y-90969299D01*
X153773505Y-92041104D01*
X152631670Y-92972531D01*
X151684576Y-93754065D01*
X150943684Y-94376188D01*
X150420455Y-94829386D01*
X150126350Y-95104141D01*
X150064174Y-95189591D01*
X148191009Y-95189591D01*
X148510625Y-94931915D01*
X150269421Y-93516768D01*
X151796258Y-92287238D01*
X153106923Y-91230375D01*
X154217200Y-90333231D01*
X155142876Y-89582855D01*
X155899738Y-88966298D01*
X156503570Y-88470612D01*
X156970160Y-88082846D01*
X157315293Y-87790052D01*
X157554755Y-87579279D01*
X157704333Y-87437579D01*
X157779811Y-87352002D01*
X157797500Y-87313830D01*
X157642632Y-87293170D01*
X157193559Y-87272179D01*
X156473574Y-87251188D01*
X155505971Y-87230529D01*
X154314044Y-87210530D01*
X152921086Y-87191524D01*
X151350391Y-87173841D01*
X149625252Y-87157812D01*
X147768964Y-87143766D01*
X145804821Y-87132035D01*
X144581562Y-87126234D01*
X142209092Y-87115636D01*
X140133548Y-87105183D01*
X138334354Y-87094391D01*
X136790937Y-87082778D01*
X135482722Y-87069859D01*
X134389136Y-87055154D01*
X133489603Y-87038179D01*
X132763550Y-87018450D01*
X132190402Y-86995486D01*
X131749586Y-86968803D01*
X131420526Y-86937919D01*
X131182649Y-86902351D01*
X131015381Y-86861616D01*
X130898147Y-86815231D01*
X130877812Y-86804648D01*
X130480047Y-86549921D01*
X130190526Y-86299169D01*
X130183687Y-86291092D01*
X130175376Y-86256123D01*
X130221484Y-86224561D01*
X130337121Y-86196235D01*
X130537396Y-86170972D01*
X130837419Y-86148601D01*
X131252299Y-86128948D01*
X131797147Y-86111842D01*
X132487072Y-86097111D01*
X133337183Y-86084583D01*
X134362591Y-86074085D01*
X135578405Y-86065445D01*
X136999734Y-86058491D01*
X138641688Y-86053052D01*
X140519378Y-86048954D01*
X142647912Y-86046025D01*
X145042401Y-86044094D01*
X147717953Y-86042989D01*
X150689679Y-86042536D01*
X152001818Y-86042500D01*
X174026262Y-86042500D01*
X174920943Y-86815355D01*
X176777116Y-88213982D01*
X178781460Y-89334537D01*
X180918583Y-90169011D01*
X181889826Y-90441697D01*
X182671712Y-90577684D01*
X183676807Y-90667107D01*
X184814257Y-90710017D01*
X185993213Y-90706462D01*
X187122822Y-90656494D01*
X188112233Y-90560162D01*
X188791423Y-90437906D01*
X190771803Y-89822934D01*
X192628408Y-88970007D01*
X194416866Y-87850316D01*
X195692764Y-86863471D01*
X196678653Y-86041408D01*
X219187764Y-86081641D01*
G04 #@! TO.C,Hole2*
D12*
X26670238Y-119426380D02*
X26670238Y-118426380D01*
X26670238Y-118902571D02*
X27241666Y-118902571D01*
X27241666Y-119426380D02*
X27241666Y-118426380D01*
X27860714Y-119426380D02*
X27765476Y-119378761D01*
X27717857Y-119331142D01*
X27670238Y-119235904D01*
X27670238Y-118950190D01*
X27717857Y-118854952D01*
X27765476Y-118807333D01*
X27860714Y-118759714D01*
X28003571Y-118759714D01*
X28098809Y-118807333D01*
X28146428Y-118854952D01*
X28194047Y-118950190D01*
X28194047Y-119235904D01*
X28146428Y-119331142D01*
X28098809Y-119378761D01*
X28003571Y-119426380D01*
X27860714Y-119426380D01*
X28765476Y-119426380D02*
X28670238Y-119378761D01*
X28622619Y-119283523D01*
X28622619Y-118426380D01*
X29527380Y-119378761D02*
X29432142Y-119426380D01*
X29241666Y-119426380D01*
X29146428Y-119378761D01*
X29098809Y-119283523D01*
X29098809Y-118902571D01*
X29146428Y-118807333D01*
X29241666Y-118759714D01*
X29432142Y-118759714D01*
X29527380Y-118807333D01*
X29575000Y-118902571D01*
X29575000Y-118997809D01*
X29098809Y-119093047D01*
X29955952Y-118521619D02*
X30003571Y-118474000D01*
X30098809Y-118426380D01*
X30336904Y-118426380D01*
X30432142Y-118474000D01*
X30479761Y-118521619D01*
X30527380Y-118616857D01*
X30527380Y-118712095D01*
X30479761Y-118854952D01*
X29908333Y-119426380D01*
X30527380Y-119426380D01*
G04 #@! TO.C,Hole5*
X363220238Y-119490380D02*
X363220238Y-118490380D01*
X363220238Y-118966571D02*
X363791666Y-118966571D01*
X363791666Y-119490380D02*
X363791666Y-118490380D01*
X364410714Y-119490380D02*
X364315476Y-119442761D01*
X364267857Y-119395142D01*
X364220238Y-119299904D01*
X364220238Y-119014190D01*
X364267857Y-118918952D01*
X364315476Y-118871333D01*
X364410714Y-118823714D01*
X364553571Y-118823714D01*
X364648809Y-118871333D01*
X364696428Y-118918952D01*
X364744047Y-119014190D01*
X364744047Y-119299904D01*
X364696428Y-119395142D01*
X364648809Y-119442761D01*
X364553571Y-119490380D01*
X364410714Y-119490380D01*
X365315476Y-119490380D02*
X365220238Y-119442761D01*
X365172619Y-119347523D01*
X365172619Y-118490380D01*
X366077380Y-119442761D02*
X365982142Y-119490380D01*
X365791666Y-119490380D01*
X365696428Y-119442761D01*
X365648809Y-119347523D01*
X365648809Y-118966571D01*
X365696428Y-118871333D01*
X365791666Y-118823714D01*
X365982142Y-118823714D01*
X366077380Y-118871333D01*
X366125000Y-118966571D01*
X366125000Y-119061809D01*
X365648809Y-119157047D01*
X367029761Y-118490380D02*
X366553571Y-118490380D01*
X366505952Y-118966571D01*
X366553571Y-118918952D01*
X366648809Y-118871333D01*
X366886904Y-118871333D01*
X366982142Y-118918952D01*
X367029761Y-118966571D01*
X367077380Y-119061809D01*
X367077380Y-119299904D01*
X367029761Y-119395142D01*
X366982142Y-119442761D01*
X366886904Y-119490380D01*
X366648809Y-119490380D01*
X366553571Y-119442761D01*
X366505952Y-119395142D01*
G04 #@! TO.C,Hole1*
X20320238Y-31859880D02*
X20320238Y-30859880D01*
X20320238Y-31336071D02*
X20891666Y-31336071D01*
X20891666Y-31859880D02*
X20891666Y-30859880D01*
X21510714Y-31859880D02*
X21415476Y-31812261D01*
X21367857Y-31764642D01*
X21320238Y-31669404D01*
X21320238Y-31383690D01*
X21367857Y-31288452D01*
X21415476Y-31240833D01*
X21510714Y-31193214D01*
X21653571Y-31193214D01*
X21748809Y-31240833D01*
X21796428Y-31288452D01*
X21844047Y-31383690D01*
X21844047Y-31669404D01*
X21796428Y-31764642D01*
X21748809Y-31812261D01*
X21653571Y-31859880D01*
X21510714Y-31859880D01*
X22415476Y-31859880D02*
X22320238Y-31812261D01*
X22272619Y-31717023D01*
X22272619Y-30859880D01*
X23177380Y-31812261D02*
X23082142Y-31859880D01*
X22891666Y-31859880D01*
X22796428Y-31812261D01*
X22748809Y-31717023D01*
X22748809Y-31336071D01*
X22796428Y-31240833D01*
X22891666Y-31193214D01*
X23082142Y-31193214D01*
X23177380Y-31240833D01*
X23225000Y-31336071D01*
X23225000Y-31431309D01*
X22748809Y-31526547D01*
X24177380Y-31859880D02*
X23605952Y-31859880D01*
X23891666Y-31859880D02*
X23891666Y-30859880D01*
X23796428Y-31002738D01*
X23701190Y-31097976D01*
X23605952Y-31145595D01*
G04 #@! TO.C,Hole3*
X183705238Y-63165380D02*
X183705238Y-62165380D01*
X183705238Y-62641571D02*
X184276666Y-62641571D01*
X184276666Y-63165380D02*
X184276666Y-62165380D01*
X184895714Y-63165380D02*
X184800476Y-63117761D01*
X184752857Y-63070142D01*
X184705238Y-62974904D01*
X184705238Y-62689190D01*
X184752857Y-62593952D01*
X184800476Y-62546333D01*
X184895714Y-62498714D01*
X185038571Y-62498714D01*
X185133809Y-62546333D01*
X185181428Y-62593952D01*
X185229047Y-62689190D01*
X185229047Y-62974904D01*
X185181428Y-63070142D01*
X185133809Y-63117761D01*
X185038571Y-63165380D01*
X184895714Y-63165380D01*
X185800476Y-63165380D02*
X185705238Y-63117761D01*
X185657619Y-63022523D01*
X185657619Y-62165380D01*
X186562380Y-63117761D02*
X186467142Y-63165380D01*
X186276666Y-63165380D01*
X186181428Y-63117761D01*
X186133809Y-63022523D01*
X186133809Y-62641571D01*
X186181428Y-62546333D01*
X186276666Y-62498714D01*
X186467142Y-62498714D01*
X186562380Y-62546333D01*
X186610000Y-62641571D01*
X186610000Y-62736809D01*
X186133809Y-62832047D01*
X186943333Y-62165380D02*
X187562380Y-62165380D01*
X187229047Y-62546333D01*
X187371904Y-62546333D01*
X187467142Y-62593952D01*
X187514761Y-62641571D01*
X187562380Y-62736809D01*
X187562380Y-62974904D01*
X187514761Y-63070142D01*
X187467142Y-63117761D01*
X187371904Y-63165380D01*
X187086190Y-63165380D01*
X186990952Y-63117761D01*
X186943333Y-63070142D01*
G04 #@! TO.C,Hole4*
X349885238Y-31859880D02*
X349885238Y-30859880D01*
X349885238Y-31336071D02*
X350456666Y-31336071D01*
X350456666Y-31859880D02*
X350456666Y-30859880D01*
X351075714Y-31859880D02*
X350980476Y-31812261D01*
X350932857Y-31764642D01*
X350885238Y-31669404D01*
X350885238Y-31383690D01*
X350932857Y-31288452D01*
X350980476Y-31240833D01*
X351075714Y-31193214D01*
X351218571Y-31193214D01*
X351313809Y-31240833D01*
X351361428Y-31288452D01*
X351409047Y-31383690D01*
X351409047Y-31669404D01*
X351361428Y-31764642D01*
X351313809Y-31812261D01*
X351218571Y-31859880D01*
X351075714Y-31859880D01*
X351980476Y-31859880D02*
X351885238Y-31812261D01*
X351837619Y-31717023D01*
X351837619Y-30859880D01*
X352742380Y-31812261D02*
X352647142Y-31859880D01*
X352456666Y-31859880D01*
X352361428Y-31812261D01*
X352313809Y-31717023D01*
X352313809Y-31336071D01*
X352361428Y-31240833D01*
X352456666Y-31193214D01*
X352647142Y-31193214D01*
X352742380Y-31240833D01*
X352790000Y-31336071D01*
X352790000Y-31431309D01*
X352313809Y-31526547D01*
X353647142Y-31193214D02*
X353647142Y-31859880D01*
X353409047Y-30812261D02*
X353170952Y-31526547D01*
X353790000Y-31526547D01*
G04 #@! TD*
M02*
